<?xml version="1.0" encoding="utf-8" standalone="no"?>
<!DOCTYPE svg PUBLIC "-//W3C//DTD SVG 1.1//EN"
  "http://www.w3.org/Graphics/SVG/1.1/DTD/svg11.dtd">
<!-- Created with matplotlib (https://matplotlib.org/) -->
<svg height="345.6pt" version="1.1" viewBox="0 0 460.8 345.6" width="460.8pt" xmlns="http://www.w3.org/2000/svg" xmlns:xlink="http://www.w3.org/1999/xlink">
 <defs>
  <style type="text/css">
*{stroke-linecap:butt;stroke-linejoin:round;}
  </style>
 </defs>
 <g id="figure_1">
  <g id="patch_1">
   <path d="M 0 345.6 
L 460.8 345.6 
L 460.8 0 
L 0 0 
z
" style="fill:#ffffff;"/>
  </g>
  <g id="axes_1">
   <g id="patch_2">
    <path d="M 50.5775 304.36 
L 391.1875 304.36 
L 391.1875 10.8 
L 50.5775 10.8 
z
" style="fill:#ffffff;"/>
   </g>
   <g id="matplotlib.axis_1">
    <g id="xtick_1">
     <g id="line2d_1">
      <defs>
       <path d="M 0 0 
L 0 3.5 
" id="mc115a13a09" style="stroke:#000000;stroke-width:0.8;"/>
      </defs>
      <g>
       <use style="stroke:#000000;stroke-width:0.8;" x="66.059773" xlink:href="#mc115a13a09" y="304.36"/>
      </g>
     </g>
     <g id="text_1">
      <!-- 0 -->
      <defs>
       <path d="M 31.78125 66.40625 
Q 24.171875 66.40625 20.328125 58.90625 
Q 16.5 51.421875 16.5 36.375 
Q 16.5 21.390625 20.328125 13.890625 
Q 24.171875 6.390625 31.78125 6.390625 
Q 39.453125 6.390625 43.28125 13.890625 
Q 47.125 21.390625 47.125 36.375 
Q 47.125 51.421875 43.28125 58.90625 
Q 39.453125 66.40625 31.78125 66.40625 
z
M 31.78125 74.21875 
Q 44.046875 74.21875 50.515625 64.515625 
Q 56.984375 54.828125 56.984375 36.375 
Q 56.984375 17.96875 50.515625 8.265625 
Q 44.046875 -1.421875 31.78125 -1.421875 
Q 19.53125 -1.421875 13.0625 8.265625 
Q 6.59375 17.96875 6.59375 36.375 
Q 6.59375 54.828125 13.0625 64.515625 
Q 19.53125 74.21875 31.78125 74.21875 
z
" id="DejaVuSans-48"/>
      </defs>
      <g transform="translate(62.878523 318.958437)scale(0.1 -0.1)">
       <use xlink:href="#DejaVuSans-48"/>
      </g>
     </g>
    </g>
    <g id="xtick_2">
     <g id="line2d_2">
      <g>
       <use style="stroke:#000000;stroke-width:0.8;" x="117.839949" xlink:href="#mc115a13a09" y="304.36"/>
      </g>
     </g>
     <g id="text_2">
      <!-- 50 -->
      <defs>
       <path d="M 10.796875 72.90625 
L 49.515625 72.90625 
L 49.515625 64.59375 
L 19.828125 64.59375 
L 19.828125 46.734375 
Q 21.96875 47.46875 24.109375 47.828125 
Q 26.265625 48.1875 28.421875 48.1875 
Q 40.625 48.1875 47.75 41.5 
Q 54.890625 34.8125 54.890625 23.390625 
Q 54.890625 11.625 47.5625 5.09375 
Q 40.234375 -1.421875 26.90625 -1.421875 
Q 22.3125 -1.421875 17.546875 -0.640625 
Q 12.796875 0.140625 7.71875 1.703125 
L 7.71875 11.625 
Q 12.109375 9.234375 16.796875 8.0625 
Q 21.484375 6.890625 26.703125 6.890625 
Q 35.15625 6.890625 40.078125 11.328125 
Q 45.015625 15.765625 45.015625 23.390625 
Q 45.015625 31 40.078125 35.4375 
Q 35.15625 39.890625 26.703125 39.890625 
Q 22.75 39.890625 18.8125 39.015625 
Q 14.890625 38.140625 10.796875 36.28125 
z
" id="DejaVuSans-53"/>
      </defs>
      <g transform="translate(111.477449 318.958437)scale(0.1 -0.1)">
       <use xlink:href="#DejaVuSans-53"/>
       <use x="63.623047" xlink:href="#DejaVuSans-48"/>
      </g>
     </g>
    </g>
    <g id="xtick_3">
     <g id="line2d_3">
      <g>
       <use style="stroke:#000000;stroke-width:0.8;" x="169.620125" xlink:href="#mc115a13a09" y="304.36"/>
      </g>
     </g>
     <g id="text_3">
      <!-- 100 -->
      <defs>
       <path d="M 12.40625 8.296875 
L 28.515625 8.296875 
L 28.515625 63.921875 
L 10.984375 60.40625 
L 10.984375 69.390625 
L 28.421875 72.90625 
L 38.28125 72.90625 
L 38.28125 8.296875 
L 54.390625 8.296875 
L 54.390625 0 
L 12.40625 0 
z
" id="DejaVuSans-49"/>
      </defs>
      <g transform="translate(160.076375 318.958437)scale(0.1 -0.1)">
       <use xlink:href="#DejaVuSans-49"/>
       <use x="63.623047" xlink:href="#DejaVuSans-48"/>
       <use x="127.246094" xlink:href="#DejaVuSans-48"/>
      </g>
     </g>
    </g>
    <g id="xtick_4">
     <g id="line2d_4">
      <g>
       <use style="stroke:#000000;stroke-width:0.8;" x="221.400302" xlink:href="#mc115a13a09" y="304.36"/>
      </g>
     </g>
     <g id="text_4">
      <!-- 150 -->
      <g transform="translate(211.856552 318.958437)scale(0.1 -0.1)">
       <use xlink:href="#DejaVuSans-49"/>
       <use x="63.623047" xlink:href="#DejaVuSans-53"/>
       <use x="127.246094" xlink:href="#DejaVuSans-48"/>
      </g>
     </g>
    </g>
    <g id="xtick_5">
     <g id="line2d_5">
      <g>
       <use style="stroke:#000000;stroke-width:0.8;" x="273.180478" xlink:href="#mc115a13a09" y="304.36"/>
      </g>
     </g>
     <g id="text_5">
      <!-- 200 -->
      <defs>
       <path d="M 19.1875 8.296875 
L 53.609375 8.296875 
L 53.609375 0 
L 7.328125 0 
L 7.328125 8.296875 
Q 12.9375 14.109375 22.625 23.890625 
Q 32.328125 33.6875 34.8125 36.53125 
Q 39.546875 41.84375 41.421875 45.53125 
Q 43.3125 49.21875 43.3125 52.78125 
Q 43.3125 58.59375 39.234375 62.25 
Q 35.15625 65.921875 28.609375 65.921875 
Q 23.96875 65.921875 18.8125 64.3125 
Q 13.671875 62.703125 7.8125 59.421875 
L 7.8125 69.390625 
Q 13.765625 71.78125 18.9375 73 
Q 24.125 74.21875 28.421875 74.21875 
Q 39.75 74.21875 46.484375 68.546875 
Q 53.21875 62.890625 53.21875 53.421875 
Q 53.21875 48.921875 51.53125 44.890625 
Q 49.859375 40.875 45.40625 35.40625 
Q 44.1875 33.984375 37.640625 27.21875 
Q 31.109375 20.453125 19.1875 8.296875 
z
" id="DejaVuSans-50"/>
      </defs>
      <g transform="translate(263.636728 318.958437)scale(0.1 -0.1)">
       <use xlink:href="#DejaVuSans-50"/>
       <use x="63.623047" xlink:href="#DejaVuSans-48"/>
       <use x="127.246094" xlink:href="#DejaVuSans-48"/>
      </g>
     </g>
    </g>
    <g id="xtick_6">
     <g id="line2d_6">
      <g>
       <use style="stroke:#000000;stroke-width:0.8;" x="324.960654" xlink:href="#mc115a13a09" y="304.36"/>
      </g>
     </g>
     <g id="text_6">
      <!-- 250 -->
      <g transform="translate(315.416904 318.958437)scale(0.1 -0.1)">
       <use xlink:href="#DejaVuSans-50"/>
       <use x="63.623047" xlink:href="#DejaVuSans-53"/>
       <use x="127.246094" xlink:href="#DejaVuSans-48"/>
      </g>
     </g>
    </g>
    <g id="xtick_7">
     <g id="line2d_7">
      <g>
       <use style="stroke:#000000;stroke-width:0.8;" x="376.740831" xlink:href="#mc115a13a09" y="304.36"/>
      </g>
     </g>
     <g id="text_7">
      <!-- 300 -->
      <defs>
       <path d="M 40.578125 39.3125 
Q 47.65625 37.796875 51.625 33 
Q 55.609375 28.21875 55.609375 21.1875 
Q 55.609375 10.40625 48.1875 4.484375 
Q 40.765625 -1.421875 27.09375 -1.421875 
Q 22.515625 -1.421875 17.65625 -0.515625 
Q 12.796875 0.390625 7.625 2.203125 
L 7.625 11.71875 
Q 11.71875 9.328125 16.59375 8.109375 
Q 21.484375 6.890625 26.8125 6.890625 
Q 36.078125 6.890625 40.9375 10.546875 
Q 45.796875 14.203125 45.796875 21.1875 
Q 45.796875 27.640625 41.28125 31.265625 
Q 36.765625 34.90625 28.71875 34.90625 
L 20.21875 34.90625 
L 20.21875 43.015625 
L 29.109375 43.015625 
Q 36.375 43.015625 40.234375 45.921875 
Q 44.09375 48.828125 44.09375 54.296875 
Q 44.09375 59.90625 40.109375 62.90625 
Q 36.140625 65.921875 28.71875 65.921875 
Q 24.65625 65.921875 20.015625 65.03125 
Q 15.375 64.15625 9.8125 62.3125 
L 9.8125 71.09375 
Q 15.4375 72.65625 20.34375 73.4375 
Q 25.25 74.21875 29.59375 74.21875 
Q 40.828125 74.21875 47.359375 69.109375 
Q 53.90625 64.015625 53.90625 55.328125 
Q 53.90625 49.265625 50.4375 45.09375 
Q 46.96875 40.921875 40.578125 39.3125 
z
" id="DejaVuSans-51"/>
      </defs>
      <g transform="translate(367.197081 318.958437)scale(0.1 -0.1)">
       <use xlink:href="#DejaVuSans-51"/>
       <use x="63.623047" xlink:href="#DejaVuSans-48"/>
       <use x="127.246094" xlink:href="#DejaVuSans-48"/>
      </g>
     </g>
    </g>
    <g id="text_8">
     <!-- Average of Per 7500.0 Episode -->
     <defs>
      <path d="M 34.1875 63.1875 
L 20.796875 26.90625 
L 47.609375 26.90625 
z
M 28.609375 72.90625 
L 39.796875 72.90625 
L 67.578125 0 
L 57.328125 0 
L 50.6875 18.703125 
L 17.828125 18.703125 
L 11.1875 0 
L 0.78125 0 
z
" id="DejaVuSans-65"/>
      <path d="M 2.984375 54.6875 
L 12.5 54.6875 
L 29.59375 8.796875 
L 46.6875 54.6875 
L 56.203125 54.6875 
L 35.6875 0 
L 23.484375 0 
z
" id="DejaVuSans-118"/>
      <path d="M 56.203125 29.59375 
L 56.203125 25.203125 
L 14.890625 25.203125 
Q 15.484375 15.921875 20.484375 11.0625 
Q 25.484375 6.203125 34.421875 6.203125 
Q 39.59375 6.203125 44.453125 7.46875 
Q 49.3125 8.734375 54.109375 11.28125 
L 54.109375 2.78125 
Q 49.265625 0.734375 44.1875 -0.34375 
Q 39.109375 -1.421875 33.890625 -1.421875 
Q 20.796875 -1.421875 13.15625 6.1875 
Q 5.515625 13.8125 5.515625 26.8125 
Q 5.515625 40.234375 12.765625 48.109375 
Q 20.015625 56 32.328125 56 
Q 43.359375 56 49.78125 48.890625 
Q 56.203125 41.796875 56.203125 29.59375 
z
M 47.21875 32.234375 
Q 47.125 39.59375 43.09375 43.984375 
Q 39.0625 48.390625 32.421875 48.390625 
Q 24.90625 48.390625 20.390625 44.140625 
Q 15.875 39.890625 15.1875 32.171875 
z
" id="DejaVuSans-101"/>
      <path d="M 41.109375 46.296875 
Q 39.59375 47.171875 37.8125 47.578125 
Q 36.03125 48 33.890625 48 
Q 26.265625 48 22.1875 43.046875 
Q 18.109375 38.09375 18.109375 28.8125 
L 18.109375 0 
L 9.078125 0 
L 9.078125 54.6875 
L 18.109375 54.6875 
L 18.109375 46.1875 
Q 20.953125 51.171875 25.484375 53.578125 
Q 30.03125 56 36.53125 56 
Q 37.453125 56 38.578125 55.875 
Q 39.703125 55.765625 41.0625 55.515625 
z
" id="DejaVuSans-114"/>
      <path d="M 34.28125 27.484375 
Q 23.390625 27.484375 19.1875 25 
Q 14.984375 22.515625 14.984375 16.5 
Q 14.984375 11.71875 18.140625 8.90625 
Q 21.296875 6.109375 26.703125 6.109375 
Q 34.1875 6.109375 38.703125 11.40625 
Q 43.21875 16.703125 43.21875 25.484375 
L 43.21875 27.484375 
z
M 52.203125 31.203125 
L 52.203125 0 
L 43.21875 0 
L 43.21875 8.296875 
Q 40.140625 3.328125 35.546875 0.953125 
Q 30.953125 -1.421875 24.3125 -1.421875 
Q 15.921875 -1.421875 10.953125 3.296875 
Q 6 8.015625 6 15.921875 
Q 6 25.140625 12.171875 29.828125 
Q 18.359375 34.515625 30.609375 34.515625 
L 43.21875 34.515625 
L 43.21875 35.40625 
Q 43.21875 41.609375 39.140625 45 
Q 35.0625 48.390625 27.6875 48.390625 
Q 23 48.390625 18.546875 47.265625 
Q 14.109375 46.140625 10.015625 43.890625 
L 10.015625 52.203125 
Q 14.9375 54.109375 19.578125 55.046875 
Q 24.21875 56 28.609375 56 
Q 40.484375 56 46.34375 49.84375 
Q 52.203125 43.703125 52.203125 31.203125 
z
" id="DejaVuSans-97"/>
      <path d="M 45.40625 27.984375 
Q 45.40625 37.75 41.375 43.109375 
Q 37.359375 48.484375 30.078125 48.484375 
Q 22.859375 48.484375 18.828125 43.109375 
Q 14.796875 37.75 14.796875 27.984375 
Q 14.796875 18.265625 18.828125 12.890625 
Q 22.859375 7.515625 30.078125 7.515625 
Q 37.359375 7.515625 41.375 12.890625 
Q 45.40625 18.265625 45.40625 27.984375 
z
M 54.390625 6.78125 
Q 54.390625 -7.171875 48.1875 -13.984375 
Q 42 -20.796875 29.203125 -20.796875 
Q 24.46875 -20.796875 20.265625 -20.09375 
Q 16.0625 -19.390625 12.109375 -17.921875 
L 12.109375 -9.1875 
Q 16.0625 -11.328125 19.921875 -12.34375 
Q 23.78125 -13.375 27.78125 -13.375 
Q 36.625 -13.375 41.015625 -8.765625 
Q 45.40625 -4.15625 45.40625 5.171875 
L 45.40625 9.625 
Q 42.625 4.78125 38.28125 2.390625 
Q 33.9375 0 27.875 0 
Q 17.828125 0 11.671875 7.65625 
Q 5.515625 15.328125 5.515625 27.984375 
Q 5.515625 40.671875 11.671875 48.328125 
Q 17.828125 56 27.875 56 
Q 33.9375 56 38.28125 53.609375 
Q 42.625 51.21875 45.40625 46.390625 
L 45.40625 54.6875 
L 54.390625 54.6875 
z
" id="DejaVuSans-103"/>
      <path id="DejaVuSans-32"/>
      <path d="M 30.609375 48.390625 
Q 23.390625 48.390625 19.1875 42.75 
Q 14.984375 37.109375 14.984375 27.296875 
Q 14.984375 17.484375 19.15625 11.84375 
Q 23.34375 6.203125 30.609375 6.203125 
Q 37.796875 6.203125 41.984375 11.859375 
Q 46.1875 17.53125 46.1875 27.296875 
Q 46.1875 37.015625 41.984375 42.703125 
Q 37.796875 48.390625 30.609375 48.390625 
z
M 30.609375 56 
Q 42.328125 56 49.015625 48.375 
Q 55.71875 40.765625 55.71875 27.296875 
Q 55.71875 13.875 49.015625 6.21875 
Q 42.328125 -1.421875 30.609375 -1.421875 
Q 18.84375 -1.421875 12.171875 6.21875 
Q 5.515625 13.875 5.515625 27.296875 
Q 5.515625 40.765625 12.171875 48.375 
Q 18.84375 56 30.609375 56 
z
" id="DejaVuSans-111"/>
      <path d="M 37.109375 75.984375 
L 37.109375 68.5 
L 28.515625 68.5 
Q 23.6875 68.5 21.796875 66.546875 
Q 19.921875 64.59375 19.921875 59.515625 
L 19.921875 54.6875 
L 34.71875 54.6875 
L 34.71875 47.703125 
L 19.921875 47.703125 
L 19.921875 0 
L 10.890625 0 
L 10.890625 47.703125 
L 2.296875 47.703125 
L 2.296875 54.6875 
L 10.890625 54.6875 
L 10.890625 58.5 
Q 10.890625 67.625 15.140625 71.796875 
Q 19.390625 75.984375 28.609375 75.984375 
z
" id="DejaVuSans-102"/>
      <path d="M 19.671875 64.796875 
L 19.671875 37.40625 
L 32.078125 37.40625 
Q 38.96875 37.40625 42.71875 40.96875 
Q 46.484375 44.53125 46.484375 51.125 
Q 46.484375 57.671875 42.71875 61.234375 
Q 38.96875 64.796875 32.078125 64.796875 
z
M 9.8125 72.90625 
L 32.078125 72.90625 
Q 44.34375 72.90625 50.609375 67.359375 
Q 56.890625 61.8125 56.890625 51.125 
Q 56.890625 40.328125 50.609375 34.8125 
Q 44.34375 29.296875 32.078125 29.296875 
L 19.671875 29.296875 
L 19.671875 0 
L 9.8125 0 
z
" id="DejaVuSans-80"/>
      <path d="M 8.203125 72.90625 
L 55.078125 72.90625 
L 55.078125 68.703125 
L 28.609375 0 
L 18.3125 0 
L 43.21875 64.59375 
L 8.203125 64.59375 
z
" id="DejaVuSans-55"/>
      <path d="M 10.6875 12.40625 
L 21 12.40625 
L 21 0 
L 10.6875 0 
z
" id="DejaVuSans-46"/>
      <path d="M 9.8125 72.90625 
L 55.90625 72.90625 
L 55.90625 64.59375 
L 19.671875 64.59375 
L 19.671875 43.015625 
L 54.390625 43.015625 
L 54.390625 34.71875 
L 19.671875 34.71875 
L 19.671875 8.296875 
L 56.78125 8.296875 
L 56.78125 0 
L 9.8125 0 
z
" id="DejaVuSans-69"/>
      <path d="M 18.109375 8.203125 
L 18.109375 -20.796875 
L 9.078125 -20.796875 
L 9.078125 54.6875 
L 18.109375 54.6875 
L 18.109375 46.390625 
Q 20.953125 51.265625 25.265625 53.625 
Q 29.59375 56 35.59375 56 
Q 45.5625 56 51.78125 48.09375 
Q 58.015625 40.1875 58.015625 27.296875 
Q 58.015625 14.40625 51.78125 6.484375 
Q 45.5625 -1.421875 35.59375 -1.421875 
Q 29.59375 -1.421875 25.265625 0.953125 
Q 20.953125 3.328125 18.109375 8.203125 
z
M 48.6875 27.296875 
Q 48.6875 37.203125 44.609375 42.84375 
Q 40.53125 48.484375 33.40625 48.484375 
Q 26.265625 48.484375 22.1875 42.84375 
Q 18.109375 37.203125 18.109375 27.296875 
Q 18.109375 17.390625 22.1875 11.75 
Q 26.265625 6.109375 33.40625 6.109375 
Q 40.53125 6.109375 44.609375 11.75 
Q 48.6875 17.390625 48.6875 27.296875 
z
" id="DejaVuSans-112"/>
      <path d="M 9.421875 54.6875 
L 18.40625 54.6875 
L 18.40625 0 
L 9.421875 0 
z
M 9.421875 75.984375 
L 18.40625 75.984375 
L 18.40625 64.59375 
L 9.421875 64.59375 
z
" id="DejaVuSans-105"/>
      <path d="M 44.28125 53.078125 
L 44.28125 44.578125 
Q 40.484375 46.53125 36.375 47.5 
Q 32.28125 48.484375 27.875 48.484375 
Q 21.1875 48.484375 17.84375 46.4375 
Q 14.5 44.390625 14.5 40.28125 
Q 14.5 37.15625 16.890625 35.375 
Q 19.28125 33.59375 26.515625 31.984375 
L 29.59375 31.296875 
Q 39.15625 29.25 43.1875 25.515625 
Q 47.21875 21.78125 47.21875 15.09375 
Q 47.21875 7.46875 41.1875 3.015625 
Q 35.15625 -1.421875 24.609375 -1.421875 
Q 20.21875 -1.421875 15.453125 -0.5625 
Q 10.6875 0.296875 5.421875 2 
L 5.421875 11.28125 
Q 10.40625 8.6875 15.234375 7.390625 
Q 20.0625 6.109375 24.8125 6.109375 
Q 31.15625 6.109375 34.5625 8.28125 
Q 37.984375 10.453125 37.984375 14.40625 
Q 37.984375 18.0625 35.515625 20.015625 
Q 33.0625 21.96875 24.703125 23.78125 
L 21.578125 24.515625 
Q 13.234375 26.265625 9.515625 29.90625 
Q 5.8125 33.546875 5.8125 39.890625 
Q 5.8125 47.609375 11.28125 51.796875 
Q 16.75 56 26.8125 56 
Q 31.78125 56 36.171875 55.265625 
Q 40.578125 54.546875 44.28125 53.078125 
z
" id="DejaVuSans-115"/>
      <path d="M 45.40625 46.390625 
L 45.40625 75.984375 
L 54.390625 75.984375 
L 54.390625 0 
L 45.40625 0 
L 45.40625 8.203125 
Q 42.578125 3.328125 38.25 0.953125 
Q 33.9375 -1.421875 27.875 -1.421875 
Q 17.96875 -1.421875 11.734375 6.484375 
Q 5.515625 14.40625 5.515625 27.296875 
Q 5.515625 40.1875 11.734375 48.09375 
Q 17.96875 56 27.875 56 
Q 33.9375 56 38.25 53.625 
Q 42.578125 51.265625 45.40625 46.390625 
z
M 14.796875 27.296875 
Q 14.796875 17.390625 18.875 11.75 
Q 22.953125 6.109375 30.078125 6.109375 
Q 37.203125 6.109375 41.296875 11.75 
Q 45.40625 17.390625 45.40625 27.296875 
Q 45.40625 37.203125 41.296875 42.84375 
Q 37.203125 48.484375 30.078125 48.484375 
Q 22.953125 48.484375 18.875 42.84375 
Q 14.796875 37.203125 14.796875 27.296875 
z
" id="DejaVuSans-100"/>
     </defs>
     <g transform="translate(144.075469 332.636562)scale(0.1 -0.1)">
      <use xlink:href="#DejaVuSans-65"/>
      <use x="62.533203" xlink:href="#DejaVuSans-118"/>
      <use x="121.712891" xlink:href="#DejaVuSans-101"/>
      <use x="183.236328" xlink:href="#DejaVuSans-114"/>
      <use x="224.349609" xlink:href="#DejaVuSans-97"/>
      <use x="285.628906" xlink:href="#DejaVuSans-103"/>
      <use x="349.105469" xlink:href="#DejaVuSans-101"/>
      <use x="410.628906" xlink:href="#DejaVuSans-32"/>
      <use x="442.416016" xlink:href="#DejaVuSans-111"/>
      <use x="503.597656" xlink:href="#DejaVuSans-102"/>
      <use x="538.802734" xlink:href="#DejaVuSans-32"/>
      <use x="570.589844" xlink:href="#DejaVuSans-80"/>
      <use x="627.267578" xlink:href="#DejaVuSans-101"/>
      <use x="688.791016" xlink:href="#DejaVuSans-114"/>
      <use x="729.904297" xlink:href="#DejaVuSans-32"/>
      <use x="761.691406" xlink:href="#DejaVuSans-55"/>
      <use x="825.314453" xlink:href="#DejaVuSans-53"/>
      <use x="888.9375" xlink:href="#DejaVuSans-48"/>
      <use x="952.560547" xlink:href="#DejaVuSans-48"/>
      <use x="1016.183594" xlink:href="#DejaVuSans-46"/>
      <use x="1047.970703" xlink:href="#DejaVuSans-48"/>
      <use x="1111.59375" xlink:href="#DejaVuSans-32"/>
      <use x="1143.380859" xlink:href="#DejaVuSans-69"/>
      <use x="1206.564453" xlink:href="#DejaVuSans-112"/>
      <use x="1270.041016" xlink:href="#DejaVuSans-105"/>
      <use x="1297.824219" xlink:href="#DejaVuSans-115"/>
      <use x="1349.923828" xlink:href="#DejaVuSans-111"/>
      <use x="1411.105469" xlink:href="#DejaVuSans-100"/>
      <use x="1474.582031" xlink:href="#DejaVuSans-101"/>
     </g>
    </g>
   </g>
   <g id="matplotlib.axis_2">
    <g id="ytick_1">
     <g id="line2d_8">
      <defs>
       <path d="M 0 0 
L -3.5 0 
" id="m47be287afb" style="stroke:#000000;stroke-width:0.8;"/>
      </defs>
      <g>
       <use style="stroke:#000000;stroke-width:0.8;" x="50.5775" xlink:href="#m47be287afb" y="291.039017"/>
      </g>
     </g>
     <g id="text_9">
      <!-- 0 -->
      <g style="fill:#0000ff;" transform="translate(37.215 294.838235)scale(0.1 -0.1)">
       <use xlink:href="#DejaVuSans-48"/>
      </g>
     </g>
    </g>
    <g id="ytick_2">
     <g id="line2d_9">
      <g>
       <use style="stroke:#000000;stroke-width:0.8;" x="50.5775" xlink:href="#m47be287afb" y="229.198969"/>
      </g>
     </g>
     <g id="text_10">
      <!-- 100 -->
      <g style="fill:#0000ff;" transform="translate(24.49 232.998187)scale(0.1 -0.1)">
       <use xlink:href="#DejaVuSans-49"/>
       <use x="63.623047" xlink:href="#DejaVuSans-48"/>
       <use x="127.246094" xlink:href="#DejaVuSans-48"/>
      </g>
     </g>
    </g>
    <g id="ytick_3">
     <g id="line2d_10">
      <g>
       <use style="stroke:#000000;stroke-width:0.8;" x="50.5775" xlink:href="#m47be287afb" y="167.358921"/>
      </g>
     </g>
     <g id="text_11">
      <!-- 200 -->
      <g style="fill:#0000ff;" transform="translate(24.49 171.158139)scale(0.1 -0.1)">
       <use xlink:href="#DejaVuSans-50"/>
       <use x="63.623047" xlink:href="#DejaVuSans-48"/>
       <use x="127.246094" xlink:href="#DejaVuSans-48"/>
      </g>
     </g>
    </g>
    <g id="ytick_4">
     <g id="line2d_11">
      <g>
       <use style="stroke:#000000;stroke-width:0.8;" x="50.5775" xlink:href="#m47be287afb" y="105.518873"/>
      </g>
     </g>
     <g id="text_12">
      <!-- 300 -->
      <g style="fill:#0000ff;" transform="translate(24.49 109.318091)scale(0.1 -0.1)">
       <use xlink:href="#DejaVuSans-51"/>
       <use x="63.623047" xlink:href="#DejaVuSans-48"/>
       <use x="127.246094" xlink:href="#DejaVuSans-48"/>
      </g>
     </g>
    </g>
    <g id="ytick_5">
     <g id="line2d_12">
      <g>
       <use style="stroke:#000000;stroke-width:0.8;" x="50.5775" xlink:href="#m47be287afb" y="43.678825"/>
      </g>
     </g>
     <g id="text_13">
      <!-- 400 -->
      <defs>
       <path d="M 37.796875 64.3125 
L 12.890625 25.390625 
L 37.796875 25.390625 
z
M 35.203125 72.90625 
L 47.609375 72.90625 
L 47.609375 25.390625 
L 58.015625 25.390625 
L 58.015625 17.1875 
L 47.609375 17.1875 
L 47.609375 0 
L 37.796875 0 
L 37.796875 17.1875 
L 4.890625 17.1875 
L 4.890625 26.703125 
z
" id="DejaVuSans-52"/>
      </defs>
      <g style="fill:#0000ff;" transform="translate(24.49 47.478043)scale(0.1 -0.1)">
       <use xlink:href="#DejaVuSans-52"/>
       <use x="63.623047" xlink:href="#DejaVuSans-48"/>
       <use x="127.246094" xlink:href="#DejaVuSans-48"/>
      </g>
     </g>
    </g>
    <g id="text_14">
     <!-- Demand-Supply -->
     <defs>
      <path d="M 19.671875 64.796875 
L 19.671875 8.109375 
L 31.59375 8.109375 
Q 46.6875 8.109375 53.6875 14.9375 
Q 60.6875 21.78125 60.6875 36.53125 
Q 60.6875 51.171875 53.6875 57.984375 
Q 46.6875 64.796875 31.59375 64.796875 
z
M 9.8125 72.90625 
L 30.078125 72.90625 
Q 51.265625 72.90625 61.171875 64.09375 
Q 71.09375 55.28125 71.09375 36.53125 
Q 71.09375 17.671875 61.125 8.828125 
Q 51.171875 0 30.078125 0 
L 9.8125 0 
z
" id="DejaVuSans-68"/>
      <path d="M 52 44.1875 
Q 55.375 50.25 60.0625 53.125 
Q 64.75 56 71.09375 56 
Q 79.640625 56 84.28125 50.015625 
Q 88.921875 44.046875 88.921875 33.015625 
L 88.921875 0 
L 79.890625 0 
L 79.890625 32.71875 
Q 79.890625 40.578125 77.09375 44.375 
Q 74.3125 48.1875 68.609375 48.1875 
Q 61.625 48.1875 57.5625 43.546875 
Q 53.515625 38.921875 53.515625 30.90625 
L 53.515625 0 
L 44.484375 0 
L 44.484375 32.71875 
Q 44.484375 40.625 41.703125 44.40625 
Q 38.921875 48.1875 33.109375 48.1875 
Q 26.21875 48.1875 22.15625 43.53125 
Q 18.109375 38.875 18.109375 30.90625 
L 18.109375 0 
L 9.078125 0 
L 9.078125 54.6875 
L 18.109375 54.6875 
L 18.109375 46.1875 
Q 21.1875 51.21875 25.484375 53.609375 
Q 29.78125 56 35.6875 56 
Q 41.65625 56 45.828125 52.96875 
Q 50 49.953125 52 44.1875 
z
" id="DejaVuSans-109"/>
      <path d="M 54.890625 33.015625 
L 54.890625 0 
L 45.90625 0 
L 45.90625 32.71875 
Q 45.90625 40.484375 42.875 44.328125 
Q 39.84375 48.1875 33.796875 48.1875 
Q 26.515625 48.1875 22.3125 43.546875 
Q 18.109375 38.921875 18.109375 30.90625 
L 18.109375 0 
L 9.078125 0 
L 9.078125 54.6875 
L 18.109375 54.6875 
L 18.109375 46.1875 
Q 21.34375 51.125 25.703125 53.5625 
Q 30.078125 56 35.796875 56 
Q 45.21875 56 50.046875 50.171875 
Q 54.890625 44.34375 54.890625 33.015625 
z
" id="DejaVuSans-110"/>
      <path d="M 4.890625 31.390625 
L 31.203125 31.390625 
L 31.203125 23.390625 
L 4.890625 23.390625 
z
" id="DejaVuSans-45"/>
      <path d="M 53.515625 70.515625 
L 53.515625 60.890625 
Q 47.90625 63.578125 42.921875 64.890625 
Q 37.9375 66.21875 33.296875 66.21875 
Q 25.25 66.21875 20.875 63.09375 
Q 16.5 59.96875 16.5 54.203125 
Q 16.5 49.359375 19.40625 46.890625 
Q 22.3125 44.4375 30.421875 42.921875 
L 36.375 41.703125 
Q 47.40625 39.59375 52.65625 34.296875 
Q 57.90625 29 57.90625 20.125 
Q 57.90625 9.515625 50.796875 4.046875 
Q 43.703125 -1.421875 29.984375 -1.421875 
Q 24.8125 -1.421875 18.96875 -0.25 
Q 13.140625 0.921875 6.890625 3.21875 
L 6.890625 13.375 
Q 12.890625 10.015625 18.65625 8.296875 
Q 24.421875 6.59375 29.984375 6.59375 
Q 38.421875 6.59375 43.015625 9.90625 
Q 47.609375 13.234375 47.609375 19.390625 
Q 47.609375 24.75 44.3125 27.78125 
Q 41.015625 30.8125 33.5 32.328125 
L 27.484375 33.5 
Q 16.453125 35.6875 11.515625 40.375 
Q 6.59375 45.0625 6.59375 53.421875 
Q 6.59375 63.09375 13.40625 68.65625 
Q 20.21875 74.21875 32.171875 74.21875 
Q 37.3125 74.21875 42.625 73.28125 
Q 47.953125 72.359375 53.515625 70.515625 
z
" id="DejaVuSans-83"/>
      <path d="M 8.5 21.578125 
L 8.5 54.6875 
L 17.484375 54.6875 
L 17.484375 21.921875 
Q 17.484375 14.15625 20.5 10.265625 
Q 23.53125 6.390625 29.59375 6.390625 
Q 36.859375 6.390625 41.078125 11.03125 
Q 45.3125 15.671875 45.3125 23.6875 
L 45.3125 54.6875 
L 54.296875 54.6875 
L 54.296875 0 
L 45.3125 0 
L 45.3125 8.40625 
Q 42.046875 3.421875 37.71875 1 
Q 33.40625 -1.421875 27.6875 -1.421875 
Q 18.265625 -1.421875 13.375 4.4375 
Q 8.5 10.296875 8.5 21.578125 
z
M 31.109375 56 
z
" id="DejaVuSans-117"/>
      <path d="M 9.421875 75.984375 
L 18.40625 75.984375 
L 18.40625 0 
L 9.421875 0 
z
" id="DejaVuSans-108"/>
      <path d="M 32.171875 -5.078125 
Q 28.375 -14.84375 24.75 -17.8125 
Q 21.140625 -20.796875 15.09375 -20.796875 
L 7.90625 -20.796875 
L 7.90625 -13.28125 
L 13.1875 -13.28125 
Q 16.890625 -13.28125 18.9375 -11.515625 
Q 21 -9.765625 23.484375 -3.21875 
L 25.09375 0.875 
L 2.984375 54.6875 
L 12.5 54.6875 
L 29.59375 11.921875 
L 46.6875 54.6875 
L 56.203125 54.6875 
z
" id="DejaVuSans-121"/>
     </defs>
     <g transform="translate(18.410313 197.627656)rotate(-90)scale(0.1 -0.1)">
      <use xlink:href="#DejaVuSans-68"/>
      <use x="77.001953" xlink:href="#DejaVuSans-101"/>
      <use x="138.525391" xlink:href="#DejaVuSans-109"/>
      <use x="235.9375" xlink:href="#DejaVuSans-97"/>
      <use x="297.216797" xlink:href="#DejaVuSans-110"/>
      <use x="360.595703" xlink:href="#DejaVuSans-100"/>
      <use x="424.072266" xlink:href="#DejaVuSans-45"/>
      <use x="460.15625" xlink:href="#DejaVuSans-83"/>
      <use x="523.632812" xlink:href="#DejaVuSans-117"/>
      <use x="587.011719" xlink:href="#DejaVuSans-112"/>
      <use x="650.488281" xlink:href="#DejaVuSans-112"/>
      <use x="713.964844" xlink:href="#DejaVuSans-108"/>
      <use x="741.748047" xlink:href="#DejaVuSans-121"/>
     </g>
    </g>
   </g>
   <g id="line2d_13">
    <path clip-path="url(#pbd9edbb68d)" d="M 66.059773 291.016364 
L 67.095376 59.203873 
L 68.13098 53.084113 
L 69.166583 38.821172 
L 70.202187 36.801327 
L 71.23779 56.788918 
L 72.273394 39.241591 
L 73.308997 42.458481 
L 74.344601 57.296982 
L 75.380204 48.272203 
L 76.415808 54.667735 
L 77.451412 41.264125 
L 78.487015 34.81701 
L 79.522619 45.221942 
L 80.558222 45.418994 
L 81.593826 53.278563 
L 82.629429 54.780217 
L 83.665033 50.655127 
L 84.700636 47.66815 
L 85.73624 28.840935 
L 86.771843 42.753721 
L 87.807447 59.519566 
L 88.84305 61.005063 
L 89.878654 35.87822 
L 90.914257 52.869852 
L 91.949861 54.852422 
L 92.985464 46.180731 
L 94.021068 34.798579 
L 95.056671 36.468526 
L 96.092275 54.564709 
L 97.127879 58.94499 
L 98.163482 71.646057 
L 99.199086 51.304353 
L 100.234689 52.962908 
L 101.270293 57.253678 
L 102.305896 56.643858 
L 103.3415 56.882739 
L 104.377103 63.682235 
L 105.412707 38.90003 
L 106.44831 43.953918 
L 107.483914 46.37111 
L 108.519517 48.327445 
L 109.555121 51.832633 
L 110.590724 43.13752 
L 111.626328 61.064724 
L 112.661931 46.671318 
L 113.697535 57.510852 
L 114.733138 57.761489 
L 115.768742 64.667779 
L 116.804346 37.758161 
L 117.839949 48.509726 
L 118.875553 54.967308 
L 119.911156 44.074437 
L 120.94676 36.869333 
L 121.982363 44.471788 
L 123.017967 44.217966 
L 124.05357 37.690156 
L 125.089174 41.731402 
L 126.124777 68.080311 
L 128.195984 29.766222 
L 129.231588 54.136361 
L 130.267191 47.849179 
L 131.302795 56.61198 
L 132.338398 55.075991 
L 133.374002 47.727658 
L 134.409606 52.683333 
L 136.480813 45.304075 
L 137.516416 53.455148 
L 138.55202 60.042253 
L 139.587623 68.838699 
L 140.623227 71.772271 
L 141.65883 48.860244 
L 142.694434 35.001083 
L 143.730037 55.988051 
L 145.801244 43.926682 
L 146.836848 46.580714 
L 147.872451 65.048045 
L 148.908055 56.054628 
L 149.943658 51.084922 
L 150.979262 49.066758 
L 152.014865 56.290443 
L 153.050469 36.749679 
L 154.086073 53.711157 
L 155.121676 46.612247 
L 156.15728 43.286267 
L 157.192883 47.133186 
L 158.228487 51.588443 
L 159.26409 50.186742 
L 160.299694 44.226356 
L 161.335297 51.834568 
L 162.370901 50.046931 
L 163.406504 58.703998 
L 164.442108 64.172851 
L 165.477711 55.133352 
L 166.513315 37.558172 
L 167.548918 44.965268 
L 168.584522 50.899163 
L 169.620125 27.780937 
L 170.655729 48.965019 
L 171.691332 63.827856 
L 173.76254 68.862371 
L 174.798143 59.654993 
L 175.833747 55.619501 
L 176.86935 56.625319 
L 177.904954 34.427473 
L 178.940557 52.993107 
L 179.976161 45.848641 
L 181.011764 42.409556 
L 182.047368 53.957011 
L 183.082971 48.544092 
L 184.118575 57.547387 
L 185.154178 48.4577 
L 186.189782 54.459768 
L 187.225385 37.621909 
L 188.260989 44.843302 
L 189.296592 53.815396 
L 190.332196 55.044488 
L 191.367799 54.601585 
L 192.403403 36.721205 
L 193.439007 48.028585 
L 194.47461 56.611851 
L 195.510214 46.006178 
L 196.545817 57.953677 
L 197.581421 38.398793 
L 198.617024 24.143636 
L 199.652628 36.51227 
L 200.688231 53.372007 
L 201.723835 44.411916 
L 202.759438 47.689332 
L 203.795042 34.236314 
L 204.830645 51.104939 
L 205.866249 57.987558 
L 206.901852 40.418195 
L 207.937456 59.227906 
L 208.973059 69.209997 
L 210.008663 49.278905 
L 211.044266 58.950551 
L 212.07987 74.784194 
L 213.115474 60.567438 
L 214.151077 40.456074 
L 215.186681 45.446889 
L 216.222284 46.459207 
L 217.257888 50.56674 
L 218.293491 33.698654 
L 219.329095 37.847768 
L 220.364698 51.315804 
L 221.400302 55.587675 
L 222.435905 57.60702 
L 223.471509 45.076059 
L 224.507112 40.861406 
L 225.542716 63.758453 
L 227.613923 45.392784 
L 228.649526 48.20974 
L 229.68513 25.523516 
L 230.720734 51.315252 
L 231.756337 36.794532 
L 232.791941 52.597958 
L 233.827544 62.282689 
L 234.863148 44.185972 
L 235.898751 53.021775 
L 236.934355 60.847098 
L 237.969958 51.595642 
L 239.005562 50.796522 
L 240.041165 44.400855 
L 241.076769 47.013957 
L 242.112372 38.288291 
L 243.147976 56.685287 
L 244.183579 66.875389 
L 245.219183 52.47765 
L 246.254786 53.47227 
L 247.29039 52.616952 
L 248.325993 61.776803 
L 249.361597 55.873223 
L 250.397201 56.839884 
L 251.432804 55.1657 
L 252.468408 47.987866 
L 253.504011 45.766656 
L 254.539615 50.55016 
L 255.575218 41.873855 
L 256.610822 57.775099 
L 257.646425 50.103188 
L 258.682029 40.837392 
L 259.717632 43.403053 
L 260.753236 42.966706 
L 261.788839 49.797315 
L 262.824443 61.92807 
L 264.89565 44.518161 
L 265.931253 56.762303 
L 266.966857 55.670431 
L 268.00246 45.381989 
L 269.038064 31.623846 
L 270.073668 39.233773 
L 271.109271 53.97427 
L 272.144875 61.957757 
L 273.180478 49.589055 
L 274.216082 45.611121 
L 276.287289 53.554708 
L 277.322892 42.898994 
L 278.358496 37.755954 
L 279.394099 39.776894 
L 280.429703 45.624209 
L 281.465306 41.188116 
L 282.50091 53.325867 
L 283.536513 60.330777 
L 284.572117 42.386192 
L 286.643324 41.179459 
L 287.678927 35.954415 
L 288.714531 39.754378 
L 289.750135 53.019025 
L 290.785738 43.099751 
L 291.821342 28.251295 
L 293.892549 55.853225 
L 294.928152 63.884521 
L 295.963756 62.683607 
L 296.999359 59.945893 
L 298.034963 54.934904 
L 299.070566 52.675293 
L 300.10617 56.075378 
L 301.141773 45.713986 
L 302.177377 37.042262 
L 303.21298 46.020499 
L 304.248584 56.797203 
L 305.284187 65.146301 
L 306.319791 56.48198 
L 307.355394 51.964598 
L 308.390998 60.35163 
L 309.426602 56.851727 
L 310.462205 26.043802 
L 311.497809 56.196967 
L 312.533412 51.242515 
L 313.569016 51.224305 
L 314.604619 39.738639 
L 315.640223 49.134621 
L 316.675826 44.554775 
L 317.71143 43.635483 
L 318.747033 54.356975 
L 319.782637 48.578826 
L 320.81824 31.25164 
L 321.853844 44.092492 
L 322.889447 52.046046 
L 323.925051 37.959969 
L 324.960654 56.60912 
L 325.996258 68.737846 
L 327.031862 47.880158 
L 328.067465 61.078308 
L 329.103069 62.035043 
L 330.138672 43.107064 
L 331.174276 33.264716 
L 332.209879 53.028479 
L 333.245483 68.850924 
L 334.281086 67.524191 
L 335.31669 58.424044 
L 337.387897 47.068176 
L 338.4235 40.913229 
L 339.459104 51.084978 
L 340.494707 52.577987 
L 341.530311 59.954254 
L 342.565914 73.664409 
L 343.601518 47.246012 
L 344.637121 49.729421 
L 345.672725 45.095322 
L 346.708329 44.676041 
L 347.743932 39.816118 
L 348.779536 55.837875 
L 349.815139 52.654209 
L 350.850743 46.816436 
L 351.886346 38.774287 
L 352.92195 57.769603 
L 353.957553 55.969147 
L 354.993157 51.206078 
L 356.02876 59.621309 
L 357.064364 57.67122 
L 358.099967 44.152864 
L 359.135571 54.930674 
L 360.171174 43.073145 
L 361.206778 28.192419 
L 362.242381 46.059941 
L 363.277985 51.578931 
L 364.313588 65.17307 
L 365.349192 67.401073 
L 366.384796 61.369583 
L 367.420399 64.17629 
L 368.456003 54.358064 
L 369.491606 52.66584 
L 370.52721 45.072636 
L 371.562813 41.45432 
L 372.598417 53.455845 
L 373.63402 56.259617 
L 374.669624 50.82567 
L 375.705227 32.964852 
L 375.705227 32.964852 
" style="fill:none;stroke:#0000ff;stroke-linecap:square;stroke-width:1.5;"/>
   </g>
   <g id="patch_3">
    <path d="M 50.5775 304.36 
L 50.5775 10.8 
" style="fill:none;stroke:#000000;stroke-linecap:square;stroke-linejoin:miter;stroke-width:0.8;"/>
   </g>
   <g id="patch_4">
    <path d="M 391.1875 304.36 
L 391.1875 10.8 
" style="fill:none;stroke:#000000;stroke-linecap:square;stroke-linejoin:miter;stroke-width:0.8;"/>
   </g>
   <g id="patch_5">
    <path d="M 50.5775 304.36 
L 391.1875 304.36 
" style="fill:none;stroke:#000000;stroke-linecap:square;stroke-linejoin:miter;stroke-width:0.8;"/>
   </g>
   <g id="patch_6">
    <path d="M 50.5775 10.8 
L 391.1875 10.8 
" style="fill:none;stroke:#000000;stroke-linecap:square;stroke-linejoin:miter;stroke-width:0.8;"/>
   </g>
  </g>
  <g id="axes_2">
   <g id="matplotlib.axis_3">
    <g id="ytick_6">
     <g id="line2d_14">
      <defs>
       <path d="M 0 0 
L 3.5 0 
" id="m5896f6d977" style="stroke:#000000;stroke-width:0.8;"/>
      </defs>
      <g>
       <use style="stroke:#000000;stroke-width:0.8;" x="391.1875" xlink:href="#m5896f6d977" y="291.174058"/>
      </g>
     </g>
     <g id="text_15">
      <!-- 0 -->
      <g style="fill:#008000;" transform="translate(398.1875 294.973277)scale(0.1 -0.1)">
       <use xlink:href="#DejaVuSans-48"/>
      </g>
     </g>
    </g>
    <g id="ytick_7">
     <g id="line2d_15">
      <g>
       <use style="stroke:#000000;stroke-width:0.8;" x="391.1875" xlink:href="#m5896f6d977" y="248.676937"/>
      </g>
     </g>
     <g id="text_16">
      <!-- 50 -->
      <g style="fill:#008000;" transform="translate(398.1875 252.476155)scale(0.1 -0.1)">
       <use xlink:href="#DejaVuSans-53"/>
       <use x="63.623047" xlink:href="#DejaVuSans-48"/>
      </g>
     </g>
    </g>
    <g id="ytick_8">
     <g id="line2d_16">
      <g>
       <use style="stroke:#000000;stroke-width:0.8;" x="391.1875" xlink:href="#m5896f6d977" y="206.179815"/>
      </g>
     </g>
     <g id="text_17">
      <!-- 100 -->
      <g style="fill:#008000;" transform="translate(398.1875 209.979034)scale(0.1 -0.1)">
       <use xlink:href="#DejaVuSans-49"/>
       <use x="63.623047" xlink:href="#DejaVuSans-48"/>
       <use x="127.246094" xlink:href="#DejaVuSans-48"/>
      </g>
     </g>
    </g>
    <g id="ytick_9">
     <g id="line2d_17">
      <g>
       <use style="stroke:#000000;stroke-width:0.8;" x="391.1875" xlink:href="#m5896f6d977" y="163.682693"/>
      </g>
     </g>
     <g id="text_18">
      <!-- 150 -->
      <g style="fill:#008000;" transform="translate(398.1875 167.481912)scale(0.1 -0.1)">
       <use xlink:href="#DejaVuSans-49"/>
       <use x="63.623047" xlink:href="#DejaVuSans-53"/>
       <use x="127.246094" xlink:href="#DejaVuSans-48"/>
      </g>
     </g>
    </g>
    <g id="ytick_10">
     <g id="line2d_18">
      <g>
       <use style="stroke:#000000;stroke-width:0.8;" x="391.1875" xlink:href="#m5896f6d977" y="121.185571"/>
      </g>
     </g>
     <g id="text_19">
      <!-- 200 -->
      <g style="fill:#008000;" transform="translate(398.1875 124.98479)scale(0.1 -0.1)">
       <use xlink:href="#DejaVuSans-50"/>
       <use x="63.623047" xlink:href="#DejaVuSans-48"/>
       <use x="127.246094" xlink:href="#DejaVuSans-48"/>
      </g>
     </g>
    </g>
    <g id="ytick_11">
     <g id="line2d_19">
      <g>
       <use style="stroke:#000000;stroke-width:0.8;" x="391.1875" xlink:href="#m5896f6d977" y="78.68845"/>
      </g>
     </g>
     <g id="text_20">
      <!-- 250 -->
      <g style="fill:#008000;" transform="translate(398.1875 82.487668)scale(0.1 -0.1)">
       <use xlink:href="#DejaVuSans-50"/>
       <use x="63.623047" xlink:href="#DejaVuSans-53"/>
       <use x="127.246094" xlink:href="#DejaVuSans-48"/>
      </g>
     </g>
    </g>
    <g id="ytick_12">
     <g id="line2d_20">
      <g>
       <use style="stroke:#000000;stroke-width:0.8;" x="391.1875" xlink:href="#m5896f6d977" y="36.191328"/>
      </g>
     </g>
     <g id="text_21">
      <!-- 300 -->
      <g style="fill:#008000;" transform="translate(398.1875 39.990547)scale(0.1 -0.1)">
       <use xlink:href="#DejaVuSans-51"/>
       <use x="63.623047" xlink:href="#DejaVuSans-48"/>
       <use x="127.246094" xlink:href="#DejaVuSans-48"/>
      </g>
     </g>
    </g>
    <g id="text_22">
     <!-- Model Price -->
     <defs>
      <path d="M 9.8125 72.90625 
L 24.515625 72.90625 
L 43.109375 23.296875 
L 61.8125 72.90625 
L 76.515625 72.90625 
L 76.515625 0 
L 66.890625 0 
L 66.890625 64.015625 
L 48.09375 14.015625 
L 38.1875 14.015625 
L 19.390625 64.015625 
L 19.390625 0 
L 9.8125 0 
z
" id="DejaVuSans-77"/>
      <path d="M 48.78125 52.59375 
L 48.78125 44.1875 
Q 44.96875 46.296875 41.140625 47.34375 
Q 37.3125 48.390625 33.40625 48.390625 
Q 24.65625 48.390625 19.8125 42.84375 
Q 14.984375 37.3125 14.984375 27.296875 
Q 14.984375 17.28125 19.8125 11.734375 
Q 24.65625 6.203125 33.40625 6.203125 
Q 37.3125 6.203125 41.140625 7.25 
Q 44.96875 8.296875 48.78125 10.40625 
L 48.78125 2.09375 
Q 45.015625 0.34375 40.984375 -0.53125 
Q 36.96875 -1.421875 32.421875 -1.421875 
Q 20.0625 -1.421875 12.78125 6.34375 
Q 5.515625 14.109375 5.515625 27.296875 
Q 5.515625 40.671875 12.859375 48.328125 
Q 20.21875 56 33.015625 56 
Q 37.15625 56 41.109375 55.140625 
Q 45.0625 54.296875 48.78125 52.59375 
z
" id="DejaVuSans-99"/>
     </defs>
     <g style="fill:#008000;" transform="translate(428.873437 186.38)rotate(-90)scale(0.1 -0.1)">
      <use xlink:href="#DejaVuSans-77"/>
      <use x="86.279297" xlink:href="#DejaVuSans-111"/>
      <use x="147.460938" xlink:href="#DejaVuSans-100"/>
      <use x="210.9375" xlink:href="#DejaVuSans-101"/>
      <use x="272.460938" xlink:href="#DejaVuSans-108"/>
      <use x="300.244141" xlink:href="#DejaVuSans-32"/>
      <use x="332.03125" xlink:href="#DejaVuSans-80"/>
      <use x="390.583984" xlink:href="#DejaVuSans-114"/>
      <use x="431.697266" xlink:href="#DejaVuSans-105"/>
      <use x="459.480469" xlink:href="#DejaVuSans-99"/>
      <use x="514.460938" xlink:href="#DejaVuSans-101"/>
     </g>
    </g>
   </g>
   <g id="line2d_21">
    <path clip-path="url(#pbd9edbb68d)" d="M 66.059773 291.016364 
L 67.095376 129.061623 
L 68.13098 141.853335 
L 69.166583 75.833 
L 70.202187 65.175319 
L 71.23779 150.942597 
L 72.273394 73.458454 
L 73.308997 89.546139 
L 74.344601 153.523457 
L 75.380204 109.990479 
L 76.415808 129.775413 
L 77.451412 94.965249 
L 78.487015 66.676868 
L 79.522619 92.611833 
L 80.558222 106.273601 
L 81.593826 124.606833 
L 82.629429 137.68549 
L 83.665033 127.167436 
L 84.700636 103.346495 
L 85.73624 42.218835 
L 87.807447 155.031519 
L 88.84305 146.594436 
L 89.878654 72.331706 
L 90.914257 129.880172 
L 91.949861 127.144045 
L 92.985464 106.654913 
L 94.021068 74.672506 
L 95.056671 70.744314 
L 96.092275 136.937134 
L 97.127879 143.249012 
L 98.163482 193.763862 
L 99.199086 110.925142 
L 100.234689 139.382894 
L 101.270293 140.685106 
L 102.305896 137.277164 
L 103.3415 141.091329 
L 104.377103 163.913692 
L 105.412707 74.273675 
L 106.44831 107.27845 
L 107.483914 111.34989 
L 108.519517 107.115233 
L 109.555121 118.84339 
L 110.590724 86.697127 
L 111.626328 152.851896 
L 112.661931 102.733243 
L 113.697535 144.310395 
L 114.733138 133.854734 
L 115.768742 173.600732 
L 116.804346 74.064705 
L 118.875553 138.010761 
L 119.911156 94.234401 
L 120.94676 77.66709 
L 121.982363 96.681326 
L 123.017967 97.99075 
L 124.05357 77.370466 
L 125.089174 88.803118 
L 126.124777 175.707446 
L 128.195984 47.586321 
L 129.231588 133.164259 
L 130.267191 113.171041 
L 131.302795 144.82294 
L 132.338398 129.305091 
L 133.374002 117.782626 
L 134.409606 124.823162 
L 136.480813 101.372985 
L 137.516416 128.718739 
L 138.55202 148.256249 
L 139.587623 181.407321 
L 140.623227 194.701975 
L 141.65883 106.881041 
L 142.694434 73.065215 
L 143.730037 142.65935 
L 144.765641 113.926113 
L 145.801244 100.641326 
L 146.836848 112.091048 
L 147.872451 159.144394 
L 148.908055 137.911628 
L 149.943658 119.895892 
L 150.979262 108.556947 
L 152.014865 133.766642 
L 153.050469 74.153633 
L 154.086073 127.389914 
L 155.121676 102.562837 
L 156.15728 94.783115 
L 158.228487 117.983322 
L 159.26409 119.981272 
L 160.299694 102.708492 
L 161.335297 123.848379 
L 162.370901 119.076978 
L 164.442108 168.043193 
L 165.477711 134.273967 
L 166.513315 74.778656 
L 167.548918 102.889903 
L 168.584522 122.235629 
L 169.620125 45.806448 
L 170.655729 108.53517 
L 171.691332 163.338488 
L 172.726936 174.063548 
L 173.76254 180.780567 
L 174.798143 149.719277 
L 175.833747 132.702845 
L 176.86935 132.420976 
L 177.904954 67.272593 
L 178.940557 125.776183 
L 179.976161 94.716429 
L 181.011764 99.172596 
L 182.047368 127.987227 
L 183.082971 114.443877 
L 184.118575 144.640034 
L 185.154178 112.469342 
L 186.189782 127.407285 
L 187.225385 82.118362 
L 188.260989 98.147264 
L 189.296592 132.543931 
L 190.332196 138.554814 
L 191.367799 126.932326 
L 192.403403 72.614895 
L 193.439007 116.803422 
L 194.47461 141.172169 
L 195.510214 94.184928 
L 196.545817 154.828361 
L 197.581421 78.755849 
L 198.617024 24.143636 
L 199.652628 80.534315 
L 200.688231 120.068685 
L 201.723835 93.163298 
L 202.759438 115.215774 
L 203.795042 64.869039 
L 204.830645 119.453464 
L 205.866249 144.396877 
L 206.901852 83.843213 
L 207.937456 151.2101 
L 208.973059 189.207322 
L 210.008663 111.474354 
L 211.044266 150.225999 
L 212.07987 198.295158 
L 213.115474 150.027048 
L 214.151077 89.863104 
L 215.186681 104.550258 
L 216.222284 105.416621 
L 217.257888 121.744602 
L 218.293491 63.52161 
L 219.329095 72.794138 
L 220.364698 123.815296 
L 221.400302 131.504174 
L 222.435905 141.977093 
L 223.471509 104.961275 
L 224.507112 96.723701 
L 225.542716 168.270417 
L 226.578319 130.312839 
L 227.613923 98.158895 
L 228.649526 102.250201 
L 229.68513 44.031944 
L 230.720734 121.825197 
L 231.756337 70.666962 
L 232.791941 134.034506 
L 233.827544 159.655043 
L 234.863148 90.558631 
L 235.898751 126.525725 
L 236.934355 149.120756 
L 237.969958 125.53271 
L 239.005562 114.200022 
L 240.041165 97.156333 
L 241.076769 103.705389 
L 242.112372 87.090594 
L 243.147976 140.627153 
L 244.183579 170.337986 
L 245.219183 125.657387 
L 246.254786 128.885473 
L 247.29039 132.831208 
L 248.325993 155.738153 
L 249.361597 135.373048 
L 250.397201 138.775345 
L 251.432804 133.062445 
L 252.468408 113.428469 
L 253.504011 103.850674 
L 254.539615 125.582926 
L 255.575218 91.946644 
L 256.610822 149.713257 
L 257.646425 111.985058 
L 258.682029 85.80305 
L 259.717632 96.392794 
L 260.753236 93.75766 
L 262.824443 156.214129 
L 263.860046 127.087175 
L 264.89565 101.555527 
L 265.931253 144.265193 
L 266.966857 136.60326 
L 268.00246 108.398135 
L 269.038064 57.349746 
L 270.073668 77.2362 
L 271.109271 139.462974 
L 272.144875 154.7487 
L 273.180478 107.937859 
L 274.216082 107.117514 
L 275.251685 111.265806 
L 276.287289 126.525937 
L 277.322892 94.87343 
L 278.358496 76.336039 
L 279.394099 83.804901 
L 280.429703 103.149524 
L 281.465306 78.477983 
L 282.50091 137.709862 
L 283.536513 152.643007 
L 284.572117 85.697975 
L 285.60772 98.028443 
L 286.643324 83.173647 
L 287.678927 71.233045 
L 288.714531 83.643646 
L 289.750135 134.560602 
L 291.821342 50.90507 
L 292.856945 96.679259 
L 293.892549 136.683865 
L 294.928152 162.219933 
L 295.963756 159.809771 
L 296.999359 145.094447 
L 298.034963 134.673215 
L 299.070566 126.757975 
L 300.10617 130.89085 
L 301.141773 100.626991 
L 302.177377 77.953556 
L 303.21298 102.287151 
L 305.284187 170.445872 
L 306.319791 131.681076 
L 307.355394 123.888682 
L 308.390998 157.659911 
L 309.426602 129.27248 
L 310.462205 43.349443 
L 311.497809 139.075981 
L 312.533412 116.604451 
L 313.569016 121.152996 
L 314.604619 84.62596 
L 315.640223 112.954939 
L 316.675826 94.730395 
L 317.71143 92.933058 
L 318.747033 134.839199 
L 319.782637 112.457495 
L 320.81824 57.710979 
L 321.853844 98.718318 
L 322.889447 119.911564 
L 323.925051 70.833279 
L 324.960654 142.469467 
L 325.996258 176.120947 
L 327.031862 110.640782 
L 328.067465 151.584547 
L 329.103069 157.448662 
L 330.138672 95.71192 
L 331.174276 62.008965 
L 332.209879 130.992447 
L 333.245483 173.235434 
L 334.281086 173.425731 
L 336.352293 125.909538 
L 337.387897 105.700988 
L 338.4235 94.756896 
L 339.459104 117.539238 
L 340.494707 128.580174 
L 341.530311 158.647403 
L 342.565914 192.834377 
L 343.601518 104.083999 
L 344.637121 115.550867 
L 345.672725 102.477456 
L 346.708329 96.22354 
L 347.743932 87.26321 
L 348.779536 131.911703 
L 349.815139 122.247911 
L 350.850743 108.214753 
L 351.886346 79.44487 
L 352.92195 152.769838 
L 353.957553 142.28511 
L 354.993157 117.913128 
L 356.02876 152.693441 
L 357.064364 141.236934 
L 358.099967 99.63288 
L 359.135571 128.428539 
L 360.171174 91.73003 
L 361.206778 45.873155 
L 362.242381 101.337013 
L 363.277985 124.852287 
L 364.313588 172.180125 
L 365.349192 170.71192 
L 366.384796 156.497698 
L 367.420399 162.33433 
L 368.456003 125.578009 
L 369.491606 124.472687 
L 370.52721 96.832425 
L 371.562813 89.646887 
L 372.598417 133.207394 
L 373.63402 135.183514 
L 374.669624 120.440927 
L 375.705227 59.389332 
L 375.705227 59.389332 
" style="fill:none;stroke:#008000;stroke-linecap:square;stroke-width:1.5;"/>
   </g>
   <g id="patch_7">
    <path d="M 50.5775 304.36 
L 50.5775 10.8 
" style="fill:none;stroke:#000000;stroke-linecap:square;stroke-linejoin:miter;stroke-width:0.8;"/>
   </g>
   <g id="patch_8">
    <path d="M 391.1875 304.36 
L 391.1875 10.8 
" style="fill:none;stroke:#000000;stroke-linecap:square;stroke-linejoin:miter;stroke-width:0.8;"/>
   </g>
   <g id="patch_9">
    <path d="M 50.5775 304.36 
L 391.1875 304.36 
" style="fill:none;stroke:#000000;stroke-linecap:square;stroke-linejoin:miter;stroke-width:0.8;"/>
   </g>
   <g id="patch_10">
    <path d="M 50.5775 10.8 
L 391.1875 10.8 
" style="fill:none;stroke:#000000;stroke-linecap:square;stroke-linejoin:miter;stroke-width:0.8;"/>
   </g>
  </g>
  <g id="axes_3">
   <g id="matplotlib.axis_4">
    <g id="ytick_13">
     <g id="line2d_22">
      <g>
       <use style="stroke:#000000;stroke-width:0.8;" x="391.1875" xlink:href="#m5896f6d977" y="291.111288"/>
      </g>
     </g>
     <g id="text_23">
      <!-- 0 -->
      <g style="fill:#bf00bf;" transform="translate(398.1875 294.910507)scale(0.1 -0.1)">
       <use xlink:href="#DejaVuSans-48"/>
      </g>
     </g>
    </g>
    <g id="ytick_14">
     <g id="line2d_23">
      <g>
       <use style="stroke:#000000;stroke-width:0.8;" x="391.1875" xlink:href="#m5896f6d977" y="253.866741"/>
      </g>
     </g>
     <g id="text_24">
      <!-- 20000 -->
      <g style="fill:#bf00bf;" transform="translate(398.1875 257.66596)scale(0.1 -0.1)">
       <use xlink:href="#DejaVuSans-50"/>
       <use x="63.623047" xlink:href="#DejaVuSans-48"/>
       <use x="127.246094" xlink:href="#DejaVuSans-48"/>
       <use x="190.869141" xlink:href="#DejaVuSans-48"/>
       <use x="254.492188" xlink:href="#DejaVuSans-48"/>
      </g>
     </g>
    </g>
    <g id="ytick_15">
     <g id="line2d_24">
      <g>
       <use style="stroke:#000000;stroke-width:0.8;" x="391.1875" xlink:href="#m5896f6d977" y="216.622194"/>
      </g>
     </g>
     <g id="text_25">
      <!-- 40000 -->
      <g style="fill:#bf00bf;" transform="translate(398.1875 220.421413)scale(0.1 -0.1)">
       <use xlink:href="#DejaVuSans-52"/>
       <use x="63.623047" xlink:href="#DejaVuSans-48"/>
       <use x="127.246094" xlink:href="#DejaVuSans-48"/>
       <use x="190.869141" xlink:href="#DejaVuSans-48"/>
       <use x="254.492188" xlink:href="#DejaVuSans-48"/>
      </g>
     </g>
    </g>
    <g id="ytick_16">
     <g id="line2d_25">
      <g>
       <use style="stroke:#000000;stroke-width:0.8;" x="391.1875" xlink:href="#m5896f6d977" y="179.377647"/>
      </g>
     </g>
     <g id="text_26">
      <!-- 60000 -->
      <defs>
       <path d="M 33.015625 40.375 
Q 26.375 40.375 22.484375 35.828125 
Q 18.609375 31.296875 18.609375 23.390625 
Q 18.609375 15.53125 22.484375 10.953125 
Q 26.375 6.390625 33.015625 6.390625 
Q 39.65625 6.390625 43.53125 10.953125 
Q 47.40625 15.53125 47.40625 23.390625 
Q 47.40625 31.296875 43.53125 35.828125 
Q 39.65625 40.375 33.015625 40.375 
z
M 52.59375 71.296875 
L 52.59375 62.3125 
Q 48.875 64.0625 45.09375 64.984375 
Q 41.3125 65.921875 37.59375 65.921875 
Q 27.828125 65.921875 22.671875 59.328125 
Q 17.53125 52.734375 16.796875 39.40625 
Q 19.671875 43.65625 24.015625 45.921875 
Q 28.375 48.1875 33.59375 48.1875 
Q 44.578125 48.1875 50.953125 41.515625 
Q 57.328125 34.859375 57.328125 23.390625 
Q 57.328125 12.15625 50.6875 5.359375 
Q 44.046875 -1.421875 33.015625 -1.421875 
Q 20.359375 -1.421875 13.671875 8.265625 
Q 6.984375 17.96875 6.984375 36.375 
Q 6.984375 53.65625 15.1875 63.9375 
Q 23.390625 74.21875 37.203125 74.21875 
Q 40.921875 74.21875 44.703125 73.484375 
Q 48.484375 72.75 52.59375 71.296875 
z
" id="DejaVuSans-54"/>
      </defs>
      <g style="fill:#bf00bf;" transform="translate(398.1875 183.176866)scale(0.1 -0.1)">
       <use xlink:href="#DejaVuSans-54"/>
       <use x="63.623047" xlink:href="#DejaVuSans-48"/>
       <use x="127.246094" xlink:href="#DejaVuSans-48"/>
       <use x="190.869141" xlink:href="#DejaVuSans-48"/>
       <use x="254.492188" xlink:href="#DejaVuSans-48"/>
      </g>
     </g>
    </g>
    <g id="ytick_17">
     <g id="line2d_26">
      <g>
       <use style="stroke:#000000;stroke-width:0.8;" x="391.1875" xlink:href="#m5896f6d977" y="142.1331"/>
      </g>
     </g>
     <g id="text_27">
      <!-- 80000 -->
      <defs>
       <path d="M 31.78125 34.625 
Q 24.75 34.625 20.71875 30.859375 
Q 16.703125 27.09375 16.703125 20.515625 
Q 16.703125 13.921875 20.71875 10.15625 
Q 24.75 6.390625 31.78125 6.390625 
Q 38.8125 6.390625 42.859375 10.171875 
Q 46.921875 13.96875 46.921875 20.515625 
Q 46.921875 27.09375 42.890625 30.859375 
Q 38.875 34.625 31.78125 34.625 
z
M 21.921875 38.8125 
Q 15.578125 40.375 12.03125 44.71875 
Q 8.5 49.078125 8.5 55.328125 
Q 8.5 64.0625 14.71875 69.140625 
Q 20.953125 74.21875 31.78125 74.21875 
Q 42.671875 74.21875 48.875 69.140625 
Q 55.078125 64.0625 55.078125 55.328125 
Q 55.078125 49.078125 51.53125 44.71875 
Q 48 40.375 41.703125 38.8125 
Q 48.828125 37.15625 52.796875 32.3125 
Q 56.78125 27.484375 56.78125 20.515625 
Q 56.78125 9.90625 50.3125 4.234375 
Q 43.84375 -1.421875 31.78125 -1.421875 
Q 19.734375 -1.421875 13.25 4.234375 
Q 6.78125 9.90625 6.78125 20.515625 
Q 6.78125 27.484375 10.78125 32.3125 
Q 14.796875 37.15625 21.921875 38.8125 
z
M 18.3125 54.390625 
Q 18.3125 48.734375 21.84375 45.5625 
Q 25.390625 42.390625 31.78125 42.390625 
Q 38.140625 42.390625 41.71875 45.5625 
Q 45.3125 48.734375 45.3125 54.390625 
Q 45.3125 60.0625 41.71875 63.234375 
Q 38.140625 66.40625 31.78125 66.40625 
Q 25.390625 66.40625 21.84375 63.234375 
Q 18.3125 60.0625 18.3125 54.390625 
z
" id="DejaVuSans-56"/>
      </defs>
      <g style="fill:#bf00bf;" transform="translate(398.1875 145.932319)scale(0.1 -0.1)">
       <use xlink:href="#DejaVuSans-56"/>
       <use x="63.623047" xlink:href="#DejaVuSans-48"/>
       <use x="127.246094" xlink:href="#DejaVuSans-48"/>
       <use x="190.869141" xlink:href="#DejaVuSans-48"/>
       <use x="254.492188" xlink:href="#DejaVuSans-48"/>
      </g>
     </g>
    </g>
    <g id="ytick_18">
     <g id="line2d_27">
      <g>
       <use style="stroke:#000000;stroke-width:0.8;" x="391.1875" xlink:href="#m5896f6d977" y="104.888553"/>
      </g>
     </g>
     <g id="text_28">
      <!-- 100000 -->
      <g style="fill:#bf00bf;" transform="translate(398.1875 108.687772)scale(0.1 -0.1)">
       <use xlink:href="#DejaVuSans-49"/>
       <use x="63.623047" xlink:href="#DejaVuSans-48"/>
       <use x="127.246094" xlink:href="#DejaVuSans-48"/>
       <use x="190.869141" xlink:href="#DejaVuSans-48"/>
       <use x="254.492188" xlink:href="#DejaVuSans-48"/>
       <use x="318.115234" xlink:href="#DejaVuSans-48"/>
      </g>
     </g>
    </g>
    <g id="ytick_19">
     <g id="line2d_28">
      <g>
       <use style="stroke:#000000;stroke-width:0.8;" x="391.1875" xlink:href="#m5896f6d977" y="67.644006"/>
      </g>
     </g>
     <g id="text_29">
      <!-- 120000 -->
      <g style="fill:#bf00bf;" transform="translate(398.1875 71.443225)scale(0.1 -0.1)">
       <use xlink:href="#DejaVuSans-49"/>
       <use x="63.623047" xlink:href="#DejaVuSans-50"/>
       <use x="127.246094" xlink:href="#DejaVuSans-48"/>
       <use x="190.869141" xlink:href="#DejaVuSans-48"/>
       <use x="254.492188" xlink:href="#DejaVuSans-48"/>
       <use x="318.115234" xlink:href="#DejaVuSans-48"/>
      </g>
     </g>
    </g>
    <g id="ytick_20">
     <g id="line2d_29">
      <g>
       <use style="stroke:#000000;stroke-width:0.8;" x="391.1875" xlink:href="#m5896f6d977" y="30.399459"/>
      </g>
     </g>
     <g id="text_30">
      <!-- 140000 -->
      <g style="fill:#bf00bf;" transform="translate(398.1875 34.198678)scale(0.1 -0.1)">
       <use xlink:href="#DejaVuSans-49"/>
       <use x="63.623047" xlink:href="#DejaVuSans-52"/>
       <use x="127.246094" xlink:href="#DejaVuSans-48"/>
       <use x="190.869141" xlink:href="#DejaVuSans-48"/>
       <use x="254.492188" xlink:href="#DejaVuSans-48"/>
       <use x="318.115234" xlink:href="#DejaVuSans-48"/>
      </g>
     </g>
    </g>
    <g id="text_31">
     <!-- Profit -->
     <defs>
      <path d="M 18.3125 70.21875 
L 18.3125 54.6875 
L 36.8125 54.6875 
L 36.8125 47.703125 
L 18.3125 47.703125 
L 18.3125 18.015625 
Q 18.3125 11.328125 20.140625 9.421875 
Q 21.96875 7.515625 27.59375 7.515625 
L 36.8125 7.515625 
L 36.8125 0 
L 27.59375 0 
Q 17.1875 0 13.234375 3.875 
Q 9.28125 7.765625 9.28125 18.015625 
L 9.28125 47.703125 
L 2.6875 47.703125 
L 2.6875 54.6875 
L 9.28125 54.6875 
L 9.28125 70.21875 
z
" id="DejaVuSans-116"/>
     </defs>
     <g style="fill:#bf00bf;" transform="translate(447.960938 170.619062)rotate(-90)scale(0.1 -0.1)">
      <use xlink:href="#DejaVuSans-80"/>
      <use x="58.552734" xlink:href="#DejaVuSans-114"/>
      <use x="97.416016" xlink:href="#DejaVuSans-111"/>
      <use x="158.597656" xlink:href="#DejaVuSans-102"/>
      <use x="193.802734" xlink:href="#DejaVuSans-105"/>
      <use x="221.585938" xlink:href="#DejaVuSans-116"/>
     </g>
    </g>
   </g>
   <g id="line2d_30">
    <path clip-path="url(#pbd9edbb68d)" d="M 66.059773 291.016364 
L 67.095376 166.932053 
L 68.13098 168.926115 
L 69.166583 93.791404 
L 70.202187 81.219018 
L 71.23779 179.65467 
L 72.273394 90.269298 
L 73.308997 113.482639 
L 74.344601 182.897945 
L 75.380204 136.707309 
L 76.415808 159.904821 
L 78.487015 74.863941 
L 79.522619 119.74546 
L 80.558222 132.185517 
L 81.593826 147.950964 
L 82.629429 161.728296 
L 83.665033 148.089564 
L 84.700636 129.0996 
L 85.73624 39.187911 
L 87.807447 184.52456 
L 88.84305 183.048714 
L 89.878654 82.388214 
L 90.914257 157.674555 
L 91.949861 157.372989 
L 92.985464 127.432303 
L 94.021068 67.759977 
L 95.056671 84.083136 
L 96.092275 162.982195 
L 97.127879 179.423228 
L 98.163482 225.662891 
L 99.199086 137.101911 
L 100.234689 163.886241 
L 101.270293 163.461419 
L 102.305896 165.028237 
L 103.3415 172.559296 
L 104.377103 186.980469 
L 105.412707 84.711507 
L 106.44831 116.258512 
L 107.483914 120.909412 
L 109.555121 153.961268 
L 110.590724 114.310172 
L 111.626328 186.615079 
L 112.661931 122.365772 
L 113.697535 173.362959 
L 114.733138 167.75723 
L 115.768742 195.10596 
L 116.804346 91.444257 
L 117.839949 138.22253 
L 118.875553 168.378075 
L 119.911156 114.682306 
L 120.94676 88.45715 
L 121.982363 121.394642 
L 123.017967 123.052388 
L 124.05357 94.126407 
L 125.089174 104.443317 
L 126.124777 209.533921 
L 127.160381 137.19698 
L 128.195984 45.968483 
L 129.231588 163.718215 
L 130.267191 131.861281 
L 131.302795 173.363853 
L 132.338398 156.492477 
L 133.374002 135.312415 
L 134.409606 154.622595 
L 135.445209 133.688369 
L 136.480813 126.793704 
L 137.516416 160.693256 
L 138.55202 178.455494 
L 139.587623 208.845731 
L 140.623227 221.187403 
L 141.65883 131.218338 
L 142.694434 75.946129 
L 143.730037 172.109658 
L 144.765641 129.671881 
L 145.801244 121.100885 
L 146.836848 128.284617 
L 147.872451 189.604857 
L 148.908055 167.301034 
L 149.943658 149.545918 
L 150.979262 138.645478 
L 152.014865 166.896794 
L 153.050469 82.204168 
L 154.086073 156.768494 
L 155.121676 127.118176 
L 156.15728 121.0899 
L 157.192883 133.023259 
L 158.228487 150.208606 
L 159.26409 149.519424 
L 160.299694 118.150272 
L 161.335297 150.000938 
L 162.370901 142.693588 
L 163.406504 168.760319 
L 164.442108 198.557218 
L 165.477711 163.284444 
L 166.513315 88.368215 
L 167.548918 121.496083 
L 168.584522 149.112567 
L 169.620125 34.500811 
L 170.655729 132.456187 
L 171.691332 197.062688 
L 172.726936 205.190134 
L 173.76254 210.52593 
L 174.798143 181.766699 
L 175.833747 164.03057 
L 176.86935 151.179338 
L 177.904954 70.684572 
L 178.940557 155.371834 
L 179.976161 120.729147 
L 181.011764 120.290456 
L 182.047368 159.169171 
L 183.082971 126.744852 
L 184.118575 173.454454 
L 185.154178 140.202195 
L 186.189782 151.410916 
L 187.225385 93.655914 
L 188.260989 123.075063 
L 189.296592 156.477834 
L 190.332196 167.841766 
L 191.367799 154.047737 
L 192.403403 70.432732 
L 193.439007 141.849006 
L 194.47461 171.939539 
L 195.510214 107.552326 
L 196.545817 173.915293 
L 197.581421 83.749607 
L 198.617024 24.143636 
L 199.652628 92.226636 
L 200.688231 152.166705 
L 201.723835 118.840518 
L 202.759438 139.206847 
L 203.795042 52.151322 
L 204.830645 135.871317 
L 205.866249 176.78734 
L 206.901852 103.888415 
L 207.937456 179.839355 
L 208.973059 217.307584 
L 210.008663 134.890922 
L 211.044266 179.376914 
L 212.07987 230.460989 
L 213.115474 172.220102 
L 214.151077 101.530348 
L 215.186681 122.783551 
L 216.222284 128.977351 
L 217.257888 145.806971 
L 218.293491 71.60912 
L 219.329095 93.432496 
L 220.364698 145.323129 
L 221.400302 152.629079 
L 222.435905 172.752783 
L 223.471509 124.851077 
L 224.507112 98.499198 
L 225.542716 195.739109 
L 227.613923 117.114802 
L 228.649526 127.453694 
L 229.68513 42.830217 
L 230.720734 152.665944 
L 231.756337 82.226213 
L 232.791941 161.456489 
L 233.827544 192.638169 
L 234.863148 110.808887 
L 235.898751 150.419542 
L 236.934355 180.267745 
L 237.969958 150.07759 
L 239.005562 145.006881 
L 240.041165 123.927029 
L 241.076769 131.525126 
L 242.112372 87.832547 
L 243.147976 168.811341 
L 244.183579 203.763073 
L 245.219183 151.344055 
L 246.254786 153.370562 
L 247.29039 155.11999 
L 248.325993 188.236409 
L 249.361597 168.34573 
L 250.397201 165.153079 
L 251.432804 165.47072 
L 252.468408 143.787431 
L 253.504011 118.97716 
L 254.539615 151.393129 
L 255.575218 109.234347 
L 256.610822 176.86682 
L 257.646425 136.758346 
L 258.682029 109.348512 
L 259.717632 116.706221 
L 260.753236 109.208794 
L 261.788839 141.155635 
L 262.824443 177.304837 
L 263.860046 152.115666 
L 264.89565 122.829461 
L 265.931253 164.207654 
L 266.966857 162.787779 
L 268.00246 124.815668 
L 269.038064 44.881825 
L 270.073668 88.881588 
L 271.109271 164.441251 
L 272.144875 188.075397 
L 273.180478 138.678889 
L 274.216082 128.492888 
L 275.251685 133.947709 
L 276.287289 159.708336 
L 277.322892 114.728592 
L 278.358496 92.367134 
L 279.394099 105.140793 
L 280.429703 129.303428 
L 281.465306 94.564843 
L 282.50091 165.061367 
L 283.536513 186.220866 
L 284.572117 96.402107 
L 285.60772 115.260738 
L 286.643324 103.438482 
L 287.678927 85.844872 
L 288.714531 96.816305 
L 289.750135 147.191691 
L 290.785738 104.753907 
L 291.821342 45.397449 
L 292.856945 120.118735 
L 293.892549 165.796388 
L 294.928152 196.487555 
L 295.963756 193.771994 
L 298.034963 163.032151 
L 299.070566 158.428254 
L 300.10617 165.738472 
L 302.177377 83.478967 
L 303.21298 119.094515 
L 304.248584 165.851462 
L 305.284187 200.632994 
L 306.319791 161.408689 
L 307.355394 150.138997 
L 308.390998 186.213542 
L 309.426602 161.067706 
L 310.462205 39.846502 
L 311.497809 162.29016 
L 312.533412 140.00186 
L 313.569016 150.661587 
L 314.604619 89.027943 
L 315.640223 137.412184 
L 316.675826 122.330908 
L 317.71143 116.619305 
L 318.747033 156.705247 
L 319.782637 130.848746 
L 320.81824 63.775886 
L 321.853844 122.235863 
L 322.889447 148.251247 
L 323.925051 96.61751 
L 324.960654 175.818509 
L 325.996258 208.811781 
L 327.031862 128.192717 
L 328.067465 181.406744 
L 329.103069 186.226005 
L 330.138672 105.648605 
L 331.174276 69.326345 
L 332.209879 149.03898 
L 333.245483 204.356191 
L 334.281086 202.337958 
L 335.31669 172.599134 
L 336.352293 150.213299 
L 337.387897 130.964103 
L 338.4235 86.014178 
L 339.459104 140.525228 
L 340.494707 155.594971 
L 341.530311 181.749347 
L 342.565914 224.469939 
L 343.601518 123.637675 
L 344.637121 144.443438 
L 345.672725 120.984386 
L 346.708329 115.211746 
L 347.743932 84.809926 
L 348.779536 164.220944 
L 349.815139 154.020578 
L 350.850743 133.834423 
L 351.886346 88.309355 
L 352.92195 173.999925 
L 353.957553 166.01557 
L 354.993157 148.139383 
L 356.02876 182.99371 
L 357.064364 166.410962 
L 358.099967 113.199096 
L 359.135571 157.768707 
L 360.171174 111.923767 
L 361.206778 45.505059 
L 362.242381 121.774376 
L 363.277985 146.124456 
L 364.313588 199.96645 
L 365.349192 205.679771 
L 366.384796 188.879345 
L 367.420399 199.121545 
L 368.456003 161.512881 
L 369.491606 155.676436 
L 370.52721 125.012587 
L 371.562813 105.364615 
L 372.598417 156.859816 
L 373.63402 163.996052 
L 374.669624 141.128136 
L 375.705227 73.502099 
L 375.705227 73.502099 
" style="fill:none;stroke:#ff0000;stroke-linecap:square;stroke-width:1.5;"/>
   </g>
   <g id="line2d_31">
    <path clip-path="url(#pbd9edbb68d)" d="M 66.059773 93.208663 
L 375.705227 93.208663 
L 375.705227 93.208663 
" style="fill:none;stroke:#bf00bf;stroke-linecap:square;stroke-width:1.5;"/>
   </g>
   <g id="patch_11">
    <path d="M 50.5775 304.36 
L 50.5775 10.8 
" style="fill:none;stroke:#000000;stroke-linecap:square;stroke-linejoin:miter;stroke-width:0.8;"/>
   </g>
   <g id="patch_12">
    <path d="M 391.1875 304.36 
L 391.1875 10.8 
" style="fill:none;stroke:#000000;stroke-linecap:square;stroke-linejoin:miter;stroke-width:0.8;"/>
   </g>
   <g id="patch_13">
    <path d="M 50.5775 304.36 
L 391.1875 304.36 
" style="fill:none;stroke:#000000;stroke-linecap:square;stroke-linejoin:miter;stroke-width:0.8;"/>
   </g>
   <g id="patch_14">
    <path d="M 50.5775 10.8 
L 391.1875 10.8 
" style="fill:none;stroke:#000000;stroke-linecap:square;stroke-linejoin:miter;stroke-width:0.8;"/>
   </g>
   <g id="legend_1">
    <g id="patch_15">
     <path d="M 245.54375 299.36 
L 384.1875 299.36 
Q 386.1875 299.36 386.1875 297.36 
L 386.1875 269.00375 
Q 386.1875 267.00375 384.1875 267.00375 
L 245.54375 267.00375 
Q 243.54375 267.00375 243.54375 269.00375 
L 243.54375 297.36 
Q 243.54375 299.36 245.54375 299.36 
z
" style="fill:#ffffff;opacity:0.8;stroke:#cccccc;stroke-linejoin:miter;"/>
    </g>
    <g id="line2d_32">
     <path d="M 247.54375 275.102187 
L 267.54375 275.102187 
" style="fill:none;stroke:#ff0000;stroke-linecap:square;stroke-width:1.5;"/>
    </g>
    <g id="line2d_33"/>
    <g id="text_32">
     <!-- Model Profit -->
     <g transform="translate(275.54375 278.602187)scale(0.1 -0.1)">
      <use xlink:href="#DejaVuSans-77"/>
      <use x="86.279297" xlink:href="#DejaVuSans-111"/>
      <use x="147.460938" xlink:href="#DejaVuSans-100"/>
      <use x="210.9375" xlink:href="#DejaVuSans-101"/>
      <use x="272.460938" xlink:href="#DejaVuSans-108"/>
      <use x="300.244141" xlink:href="#DejaVuSans-32"/>
      <use x="332.03125" xlink:href="#DejaVuSans-80"/>
      <use x="390.583984" xlink:href="#DejaVuSans-114"/>
      <use x="429.447266" xlink:href="#DejaVuSans-111"/>
      <use x="490.628906" xlink:href="#DejaVuSans-102"/>
      <use x="525.833984" xlink:href="#DejaVuSans-105"/>
      <use x="553.617188" xlink:href="#DejaVuSans-116"/>
     </g>
    </g>
    <g id="line2d_34">
     <path d="M 247.54375 289.780312 
L 267.54375 289.780312 
" style="fill:none;stroke:#bf00bf;stroke-linecap:square;stroke-width:1.5;"/>
    </g>
    <g id="line2d_35"/>
    <g id="text_33">
     <!-- Mean Profit (Dataset) -->
     <defs>
      <path d="M 31 75.875 
Q 24.46875 64.65625 21.28125 53.65625 
Q 18.109375 42.671875 18.109375 31.390625 
Q 18.109375 20.125 21.3125 9.0625 
Q 24.515625 -2 31 -13.1875 
L 23.1875 -13.1875 
Q 15.875 -1.703125 12.234375 9.375 
Q 8.59375 20.453125 8.59375 31.390625 
Q 8.59375 42.28125 12.203125 53.3125 
Q 15.828125 64.359375 23.1875 75.875 
z
" id="DejaVuSans-40"/>
      <path d="M 8.015625 75.875 
L 15.828125 75.875 
Q 23.140625 64.359375 26.78125 53.3125 
Q 30.421875 42.28125 30.421875 31.390625 
Q 30.421875 20.453125 26.78125 9.375 
Q 23.140625 -1.703125 15.828125 -13.1875 
L 8.015625 -13.1875 
Q 14.5 -2 17.703125 9.0625 
Q 20.90625 20.125 20.90625 31.390625 
Q 20.90625 42.671875 17.703125 53.65625 
Q 14.5 64.65625 8.015625 75.875 
z
" id="DejaVuSans-41"/>
     </defs>
     <g transform="translate(275.54375 293.280312)scale(0.1 -0.1)">
      <use xlink:href="#DejaVuSans-77"/>
      <use x="86.279297" xlink:href="#DejaVuSans-101"/>
      <use x="147.802734" xlink:href="#DejaVuSans-97"/>
      <use x="209.082031" xlink:href="#DejaVuSans-110"/>
      <use x="272.460938" xlink:href="#DejaVuSans-32"/>
      <use x="304.248047" xlink:href="#DejaVuSans-80"/>
      <use x="362.800781" xlink:href="#DejaVuSans-114"/>
      <use x="401.664062" xlink:href="#DejaVuSans-111"/>
      <use x="462.845703" xlink:href="#DejaVuSans-102"/>
      <use x="498.050781" xlink:href="#DejaVuSans-105"/>
      <use x="525.833984" xlink:href="#DejaVuSans-116"/>
      <use x="565.042969" xlink:href="#DejaVuSans-32"/>
      <use x="596.830078" xlink:href="#DejaVuSans-40"/>
      <use x="635.84375" xlink:href="#DejaVuSans-68"/>
      <use x="712.845703" xlink:href="#DejaVuSans-97"/>
      <use x="774.125" xlink:href="#DejaVuSans-116"/>
      <use x="813.333984" xlink:href="#DejaVuSans-97"/>
      <use x="874.613281" xlink:href="#DejaVuSans-115"/>
      <use x="926.712891" xlink:href="#DejaVuSans-101"/>
      <use x="988.236328" xlink:href="#DejaVuSans-116"/>
      <use x="1027.445312" xlink:href="#DejaVuSans-41"/>
     </g>
    </g>
   </g>
  </g>
  <g id="text_34">
   <!-- A3C price vs Exchange vs Profits -->
   <defs>
    <path d="M 64.40625 67.28125 
L 64.40625 56.890625 
Q 59.421875 61.53125 53.78125 63.8125 
Q 48.140625 66.109375 41.796875 66.109375 
Q 29.296875 66.109375 22.65625 58.46875 
Q 16.015625 50.828125 16.015625 36.375 
Q 16.015625 21.96875 22.65625 14.328125 
Q 29.296875 6.6875 41.796875 6.6875 
Q 48.140625 6.6875 53.78125 8.984375 
Q 59.421875 11.28125 64.40625 15.921875 
L 64.40625 5.609375 
Q 59.234375 2.09375 53.4375 0.328125 
Q 47.65625 -1.421875 41.21875 -1.421875 
Q 24.65625 -1.421875 15.125 8.703125 
Q 5.609375 18.84375 5.609375 36.375 
Q 5.609375 53.953125 15.125 64.078125 
Q 24.65625 74.21875 41.21875 74.21875 
Q 47.75 74.21875 53.53125 72.484375 
Q 59.328125 70.75 64.40625 67.28125 
z
" id="DejaVuSans-67"/>
    <path d="M 54.890625 54.6875 
L 35.109375 28.078125 
L 55.90625 0 
L 45.3125 0 
L 29.390625 21.484375 
L 13.484375 0 
L 2.875 0 
L 24.125 28.609375 
L 4.6875 54.6875 
L 15.28125 54.6875 
L 29.78125 35.203125 
L 44.28125 54.6875 
z
" id="DejaVuSans-120"/>
    <path d="M 54.890625 33.015625 
L 54.890625 0 
L 45.90625 0 
L 45.90625 32.71875 
Q 45.90625 40.484375 42.875 44.328125 
Q 39.84375 48.1875 33.796875 48.1875 
Q 26.515625 48.1875 22.3125 43.546875 
Q 18.109375 38.921875 18.109375 30.90625 
L 18.109375 0 
L 9.078125 0 
L 9.078125 75.984375 
L 18.109375 75.984375 
L 18.109375 46.1875 
Q 21.34375 51.125 25.703125 53.5625 
Q 30.078125 56 35.796875 56 
Q 45.21875 56 50.046875 50.171875 
Q 54.890625 44.34375 54.890625 33.015625 
z
" id="DejaVuSans-104"/>
   </defs>
   <g transform="translate(116.0375 17.549812)scale(0.14 -0.14)">
    <use xlink:href="#DejaVuSans-65"/>
    <use x="68.408203" xlink:href="#DejaVuSans-51"/>
    <use x="132.03125" xlink:href="#DejaVuSans-67"/>
    <use x="201.855469" xlink:href="#DejaVuSans-32"/>
    <use x="233.642578" xlink:href="#DejaVuSans-112"/>
    <use x="297.119141" xlink:href="#DejaVuSans-114"/>
    <use x="338.232422" xlink:href="#DejaVuSans-105"/>
    <use x="366.015625" xlink:href="#DejaVuSans-99"/>
    <use x="420.996094" xlink:href="#DejaVuSans-101"/>
    <use x="482.519531" xlink:href="#DejaVuSans-32"/>
    <use x="514.306641" xlink:href="#DejaVuSans-118"/>
    <use x="573.486328" xlink:href="#DejaVuSans-115"/>
    <use x="625.585938" xlink:href="#DejaVuSans-32"/>
    <use x="657.373047" xlink:href="#DejaVuSans-69"/>
    <use x="720.556641" xlink:href="#DejaVuSans-120"/>
    <use x="777.986328" xlink:href="#DejaVuSans-99"/>
    <use x="832.966797" xlink:href="#DejaVuSans-104"/>
    <use x="896.345703" xlink:href="#DejaVuSans-97"/>
    <use x="957.625" xlink:href="#DejaVuSans-110"/>
    <use x="1021.003906" xlink:href="#DejaVuSans-103"/>
    <use x="1084.480469" xlink:href="#DejaVuSans-101"/>
    <use x="1146.003906" xlink:href="#DejaVuSans-32"/>
    <use x="1177.791016" xlink:href="#DejaVuSans-118"/>
    <use x="1236.970703" xlink:href="#DejaVuSans-115"/>
    <use x="1289.070312" xlink:href="#DejaVuSans-32"/>
    <use x="1320.857422" xlink:href="#DejaVuSans-80"/>
    <use x="1379.410156" xlink:href="#DejaVuSans-114"/>
    <use x="1418.273438" xlink:href="#DejaVuSans-111"/>
    <use x="1479.455078" xlink:href="#DejaVuSans-102"/>
    <use x="1514.660156" xlink:href="#DejaVuSans-105"/>
    <use x="1542.443359" xlink:href="#DejaVuSans-116"/>
    <use x="1581.652344" xlink:href="#DejaVuSans-115"/>
   </g>
  </g>
 </g>
 <defs>
  <clipPath id="pbd9edbb68d">
   <rect height="293.56" width="340.61" x="50.5775" y="10.8"/>
  </clipPath>
 </defs>
</svg>
