<?xml version="1.0" encoding="utf-8" standalone="no"?>
<!DOCTYPE svg PUBLIC "-//W3C//DTD SVG 1.1//EN"
  "http://www.w3.org/Graphics/SVG/1.1/DTD/svg11.dtd">
<!-- Created with matplotlib (https://matplotlib.org/) -->
<svg height="345.6pt" version="1.1" viewBox="0 0 460.8 345.6" width="460.8pt" xmlns="http://www.w3.org/2000/svg" xmlns:xlink="http://www.w3.org/1999/xlink">
 <defs>
  <style type="text/css">
*{stroke-linecap:butt;stroke-linejoin:round;}
  </style>
 </defs>
 <g id="figure_1">
  <g id="patch_1">
   <path d="M 0 345.6 
L 460.8 345.6 
L 460.8 0 
L 0 0 
z
" style="fill:#ffffff;"/>
  </g>
  <g id="axes_1">
   <g id="patch_2">
    <path d="M 50.6 304.36 
L 410.2225 304.36 
L 410.2225 10.8 
L 50.6 10.8 
z
" style="fill:#ffffff;"/>
   </g>
   <g id="matplotlib.axis_1">
    <g id="xtick_1">
     <g id="line2d_1">
      <defs>
       <path d="M 0 0 
L 0 3.5 
" id="md691b4d2d7" style="stroke:#000000;stroke-width:0.8;"/>
      </defs>
      <g>
       <use style="stroke:#000000;stroke-width:0.8;" x="66.946477" xlink:href="#md691b4d2d7" y="304.36"/>
      </g>
     </g>
     <g id="text_1">
      <!-- 0 -->
      <defs>
       <path d="M 31.78125 66.40625 
Q 24.171875 66.40625 20.328125 58.90625 
Q 16.5 51.421875 16.5 36.375 
Q 16.5 21.390625 20.328125 13.890625 
Q 24.171875 6.390625 31.78125 6.390625 
Q 39.453125 6.390625 43.28125 13.890625 
Q 47.125 21.390625 47.125 36.375 
Q 47.125 51.421875 43.28125 58.90625 
Q 39.453125 66.40625 31.78125 66.40625 
z
M 31.78125 74.21875 
Q 44.046875 74.21875 50.515625 64.515625 
Q 56.984375 54.828125 56.984375 36.375 
Q 56.984375 17.96875 50.515625 8.265625 
Q 44.046875 -1.421875 31.78125 -1.421875 
Q 19.53125 -1.421875 13.0625 8.265625 
Q 6.59375 17.96875 6.59375 36.375 
Q 6.59375 54.828125 13.0625 64.515625 
Q 19.53125 74.21875 31.78125 74.21875 
z
" id="DejaVuSans-48"/>
      </defs>
      <g transform="translate(63.765227 318.958437)scale(0.1 -0.1)">
       <use xlink:href="#DejaVuSans-48"/>
      </g>
     </g>
    </g>
    <g id="xtick_2">
     <g id="line2d_2">
      <g>
       <use style="stroke:#000000;stroke-width:0.8;" x="121.61697" xlink:href="#md691b4d2d7" y="304.36"/>
      </g>
     </g>
     <g id="text_2">
      <!-- 50 -->
      <defs>
       <path d="M 10.796875 72.90625 
L 49.515625 72.90625 
L 49.515625 64.59375 
L 19.828125 64.59375 
L 19.828125 46.734375 
Q 21.96875 47.46875 24.109375 47.828125 
Q 26.265625 48.1875 28.421875 48.1875 
Q 40.625 48.1875 47.75 41.5 
Q 54.890625 34.8125 54.890625 23.390625 
Q 54.890625 11.625 47.5625 5.09375 
Q 40.234375 -1.421875 26.90625 -1.421875 
Q 22.3125 -1.421875 17.546875 -0.640625 
Q 12.796875 0.140625 7.71875 1.703125 
L 7.71875 11.625 
Q 12.109375 9.234375 16.796875 8.0625 
Q 21.484375 6.890625 26.703125 6.890625 
Q 35.15625 6.890625 40.078125 11.328125 
Q 45.015625 15.765625 45.015625 23.390625 
Q 45.015625 31 40.078125 35.4375 
Q 35.15625 39.890625 26.703125 39.890625 
Q 22.75 39.890625 18.8125 39.015625 
Q 14.890625 38.140625 10.796875 36.28125 
z
" id="DejaVuSans-53"/>
      </defs>
      <g transform="translate(115.25447 318.958437)scale(0.1 -0.1)">
       <use xlink:href="#DejaVuSans-53"/>
       <use x="63.623047" xlink:href="#DejaVuSans-48"/>
      </g>
     </g>
    </g>
    <g id="xtick_3">
     <g id="line2d_3">
      <g>
       <use style="stroke:#000000;stroke-width:0.8;" x="176.287462" xlink:href="#md691b4d2d7" y="304.36"/>
      </g>
     </g>
     <g id="text_3">
      <!-- 100 -->
      <defs>
       <path d="M 12.40625 8.296875 
L 28.515625 8.296875 
L 28.515625 63.921875 
L 10.984375 60.40625 
L 10.984375 69.390625 
L 28.421875 72.90625 
L 38.28125 72.90625 
L 38.28125 8.296875 
L 54.390625 8.296875 
L 54.390625 0 
L 12.40625 0 
z
" id="DejaVuSans-49"/>
      </defs>
      <g transform="translate(166.743712 318.958437)scale(0.1 -0.1)">
       <use xlink:href="#DejaVuSans-49"/>
       <use x="63.623047" xlink:href="#DejaVuSans-48"/>
       <use x="127.246094" xlink:href="#DejaVuSans-48"/>
      </g>
     </g>
    </g>
    <g id="xtick_4">
     <g id="line2d_4">
      <g>
       <use style="stroke:#000000;stroke-width:0.8;" x="230.957955" xlink:href="#md691b4d2d7" y="304.36"/>
      </g>
     </g>
     <g id="text_4">
      <!-- 150 -->
      <g transform="translate(221.414205 318.958437)scale(0.1 -0.1)">
       <use xlink:href="#DejaVuSans-49"/>
       <use x="63.623047" xlink:href="#DejaVuSans-53"/>
       <use x="127.246094" xlink:href="#DejaVuSans-48"/>
      </g>
     </g>
    </g>
    <g id="xtick_5">
     <g id="line2d_5">
      <g>
       <use style="stroke:#000000;stroke-width:0.8;" x="285.628447" xlink:href="#md691b4d2d7" y="304.36"/>
      </g>
     </g>
     <g id="text_5">
      <!-- 200 -->
      <defs>
       <path d="M 19.1875 8.296875 
L 53.609375 8.296875 
L 53.609375 0 
L 7.328125 0 
L 7.328125 8.296875 
Q 12.9375 14.109375 22.625 23.890625 
Q 32.328125 33.6875 34.8125 36.53125 
Q 39.546875 41.84375 41.421875 45.53125 
Q 43.3125 49.21875 43.3125 52.78125 
Q 43.3125 58.59375 39.234375 62.25 
Q 35.15625 65.921875 28.609375 65.921875 
Q 23.96875 65.921875 18.8125 64.3125 
Q 13.671875 62.703125 7.8125 59.421875 
L 7.8125 69.390625 
Q 13.765625 71.78125 18.9375 73 
Q 24.125 74.21875 28.421875 74.21875 
Q 39.75 74.21875 46.484375 68.546875 
Q 53.21875 62.890625 53.21875 53.421875 
Q 53.21875 48.921875 51.53125 44.890625 
Q 49.859375 40.875 45.40625 35.40625 
Q 44.1875 33.984375 37.640625 27.21875 
Q 31.109375 20.453125 19.1875 8.296875 
z
" id="DejaVuSans-50"/>
      </defs>
      <g transform="translate(276.084697 318.958437)scale(0.1 -0.1)">
       <use xlink:href="#DejaVuSans-50"/>
       <use x="63.623047" xlink:href="#DejaVuSans-48"/>
       <use x="127.246094" xlink:href="#DejaVuSans-48"/>
      </g>
     </g>
    </g>
    <g id="xtick_6">
     <g id="line2d_6">
      <g>
       <use style="stroke:#000000;stroke-width:0.8;" x="340.29894" xlink:href="#md691b4d2d7" y="304.36"/>
      </g>
     </g>
     <g id="text_6">
      <!-- 250 -->
      <g transform="translate(330.75519 318.958437)scale(0.1 -0.1)">
       <use xlink:href="#DejaVuSans-50"/>
       <use x="63.623047" xlink:href="#DejaVuSans-53"/>
       <use x="127.246094" xlink:href="#DejaVuSans-48"/>
      </g>
     </g>
    </g>
    <g id="xtick_7">
     <g id="line2d_7">
      <g>
       <use style="stroke:#000000;stroke-width:0.8;" x="394.969433" xlink:href="#md691b4d2d7" y="304.36"/>
      </g>
     </g>
     <g id="text_7">
      <!-- 300 -->
      <defs>
       <path d="M 40.578125 39.3125 
Q 47.65625 37.796875 51.625 33 
Q 55.609375 28.21875 55.609375 21.1875 
Q 55.609375 10.40625 48.1875 4.484375 
Q 40.765625 -1.421875 27.09375 -1.421875 
Q 22.515625 -1.421875 17.65625 -0.515625 
Q 12.796875 0.390625 7.625 2.203125 
L 7.625 11.71875 
Q 11.71875 9.328125 16.59375 8.109375 
Q 21.484375 6.890625 26.8125 6.890625 
Q 36.078125 6.890625 40.9375 10.546875 
Q 45.796875 14.203125 45.796875 21.1875 
Q 45.796875 27.640625 41.28125 31.265625 
Q 36.765625 34.90625 28.71875 34.90625 
L 20.21875 34.90625 
L 20.21875 43.015625 
L 29.109375 43.015625 
Q 36.375 43.015625 40.234375 45.921875 
Q 44.09375 48.828125 44.09375 54.296875 
Q 44.09375 59.90625 40.109375 62.90625 
Q 36.140625 65.921875 28.71875 65.921875 
Q 24.65625 65.921875 20.015625 65.03125 
Q 15.375 64.15625 9.8125 62.3125 
L 9.8125 71.09375 
Q 15.4375 72.65625 20.34375 73.4375 
Q 25.25 74.21875 29.59375 74.21875 
Q 40.828125 74.21875 47.359375 69.109375 
Q 53.90625 64.015625 53.90625 55.328125 
Q 53.90625 49.265625 50.4375 45.09375 
Q 46.96875 40.921875 40.578125 39.3125 
z
" id="DejaVuSans-51"/>
      </defs>
      <g transform="translate(385.425683 318.958437)scale(0.1 -0.1)">
       <use xlink:href="#DejaVuSans-51"/>
       <use x="63.623047" xlink:href="#DejaVuSans-48"/>
       <use x="127.246094" xlink:href="#DejaVuSans-48"/>
      </g>
     </g>
    </g>
    <g id="text_8">
     <!-- Average of Per 7500.0 Episode -->
     <defs>
      <path d="M 34.1875 63.1875 
L 20.796875 26.90625 
L 47.609375 26.90625 
z
M 28.609375 72.90625 
L 39.796875 72.90625 
L 67.578125 0 
L 57.328125 0 
L 50.6875 18.703125 
L 17.828125 18.703125 
L 11.1875 0 
L 0.78125 0 
z
" id="DejaVuSans-65"/>
      <path d="M 2.984375 54.6875 
L 12.5 54.6875 
L 29.59375 8.796875 
L 46.6875 54.6875 
L 56.203125 54.6875 
L 35.6875 0 
L 23.484375 0 
z
" id="DejaVuSans-118"/>
      <path d="M 56.203125 29.59375 
L 56.203125 25.203125 
L 14.890625 25.203125 
Q 15.484375 15.921875 20.484375 11.0625 
Q 25.484375 6.203125 34.421875 6.203125 
Q 39.59375 6.203125 44.453125 7.46875 
Q 49.3125 8.734375 54.109375 11.28125 
L 54.109375 2.78125 
Q 49.265625 0.734375 44.1875 -0.34375 
Q 39.109375 -1.421875 33.890625 -1.421875 
Q 20.796875 -1.421875 13.15625 6.1875 
Q 5.515625 13.8125 5.515625 26.8125 
Q 5.515625 40.234375 12.765625 48.109375 
Q 20.015625 56 32.328125 56 
Q 43.359375 56 49.78125 48.890625 
Q 56.203125 41.796875 56.203125 29.59375 
z
M 47.21875 32.234375 
Q 47.125 39.59375 43.09375 43.984375 
Q 39.0625 48.390625 32.421875 48.390625 
Q 24.90625 48.390625 20.390625 44.140625 
Q 15.875 39.890625 15.1875 32.171875 
z
" id="DejaVuSans-101"/>
      <path d="M 41.109375 46.296875 
Q 39.59375 47.171875 37.8125 47.578125 
Q 36.03125 48 33.890625 48 
Q 26.265625 48 22.1875 43.046875 
Q 18.109375 38.09375 18.109375 28.8125 
L 18.109375 0 
L 9.078125 0 
L 9.078125 54.6875 
L 18.109375 54.6875 
L 18.109375 46.1875 
Q 20.953125 51.171875 25.484375 53.578125 
Q 30.03125 56 36.53125 56 
Q 37.453125 56 38.578125 55.875 
Q 39.703125 55.765625 41.0625 55.515625 
z
" id="DejaVuSans-114"/>
      <path d="M 34.28125 27.484375 
Q 23.390625 27.484375 19.1875 25 
Q 14.984375 22.515625 14.984375 16.5 
Q 14.984375 11.71875 18.140625 8.90625 
Q 21.296875 6.109375 26.703125 6.109375 
Q 34.1875 6.109375 38.703125 11.40625 
Q 43.21875 16.703125 43.21875 25.484375 
L 43.21875 27.484375 
z
M 52.203125 31.203125 
L 52.203125 0 
L 43.21875 0 
L 43.21875 8.296875 
Q 40.140625 3.328125 35.546875 0.953125 
Q 30.953125 -1.421875 24.3125 -1.421875 
Q 15.921875 -1.421875 10.953125 3.296875 
Q 6 8.015625 6 15.921875 
Q 6 25.140625 12.171875 29.828125 
Q 18.359375 34.515625 30.609375 34.515625 
L 43.21875 34.515625 
L 43.21875 35.40625 
Q 43.21875 41.609375 39.140625 45 
Q 35.0625 48.390625 27.6875 48.390625 
Q 23 48.390625 18.546875 47.265625 
Q 14.109375 46.140625 10.015625 43.890625 
L 10.015625 52.203125 
Q 14.9375 54.109375 19.578125 55.046875 
Q 24.21875 56 28.609375 56 
Q 40.484375 56 46.34375 49.84375 
Q 52.203125 43.703125 52.203125 31.203125 
z
" id="DejaVuSans-97"/>
      <path d="M 45.40625 27.984375 
Q 45.40625 37.75 41.375 43.109375 
Q 37.359375 48.484375 30.078125 48.484375 
Q 22.859375 48.484375 18.828125 43.109375 
Q 14.796875 37.75 14.796875 27.984375 
Q 14.796875 18.265625 18.828125 12.890625 
Q 22.859375 7.515625 30.078125 7.515625 
Q 37.359375 7.515625 41.375 12.890625 
Q 45.40625 18.265625 45.40625 27.984375 
z
M 54.390625 6.78125 
Q 54.390625 -7.171875 48.1875 -13.984375 
Q 42 -20.796875 29.203125 -20.796875 
Q 24.46875 -20.796875 20.265625 -20.09375 
Q 16.0625 -19.390625 12.109375 -17.921875 
L 12.109375 -9.1875 
Q 16.0625 -11.328125 19.921875 -12.34375 
Q 23.78125 -13.375 27.78125 -13.375 
Q 36.625 -13.375 41.015625 -8.765625 
Q 45.40625 -4.15625 45.40625 5.171875 
L 45.40625 9.625 
Q 42.625 4.78125 38.28125 2.390625 
Q 33.9375 0 27.875 0 
Q 17.828125 0 11.671875 7.65625 
Q 5.515625 15.328125 5.515625 27.984375 
Q 5.515625 40.671875 11.671875 48.328125 
Q 17.828125 56 27.875 56 
Q 33.9375 56 38.28125 53.609375 
Q 42.625 51.21875 45.40625 46.390625 
L 45.40625 54.6875 
L 54.390625 54.6875 
z
" id="DejaVuSans-103"/>
      <path id="DejaVuSans-32"/>
      <path d="M 30.609375 48.390625 
Q 23.390625 48.390625 19.1875 42.75 
Q 14.984375 37.109375 14.984375 27.296875 
Q 14.984375 17.484375 19.15625 11.84375 
Q 23.34375 6.203125 30.609375 6.203125 
Q 37.796875 6.203125 41.984375 11.859375 
Q 46.1875 17.53125 46.1875 27.296875 
Q 46.1875 37.015625 41.984375 42.703125 
Q 37.796875 48.390625 30.609375 48.390625 
z
M 30.609375 56 
Q 42.328125 56 49.015625 48.375 
Q 55.71875 40.765625 55.71875 27.296875 
Q 55.71875 13.875 49.015625 6.21875 
Q 42.328125 -1.421875 30.609375 -1.421875 
Q 18.84375 -1.421875 12.171875 6.21875 
Q 5.515625 13.875 5.515625 27.296875 
Q 5.515625 40.765625 12.171875 48.375 
Q 18.84375 56 30.609375 56 
z
" id="DejaVuSans-111"/>
      <path d="M 37.109375 75.984375 
L 37.109375 68.5 
L 28.515625 68.5 
Q 23.6875 68.5 21.796875 66.546875 
Q 19.921875 64.59375 19.921875 59.515625 
L 19.921875 54.6875 
L 34.71875 54.6875 
L 34.71875 47.703125 
L 19.921875 47.703125 
L 19.921875 0 
L 10.890625 0 
L 10.890625 47.703125 
L 2.296875 47.703125 
L 2.296875 54.6875 
L 10.890625 54.6875 
L 10.890625 58.5 
Q 10.890625 67.625 15.140625 71.796875 
Q 19.390625 75.984375 28.609375 75.984375 
z
" id="DejaVuSans-102"/>
      <path d="M 19.671875 64.796875 
L 19.671875 37.40625 
L 32.078125 37.40625 
Q 38.96875 37.40625 42.71875 40.96875 
Q 46.484375 44.53125 46.484375 51.125 
Q 46.484375 57.671875 42.71875 61.234375 
Q 38.96875 64.796875 32.078125 64.796875 
z
M 9.8125 72.90625 
L 32.078125 72.90625 
Q 44.34375 72.90625 50.609375 67.359375 
Q 56.890625 61.8125 56.890625 51.125 
Q 56.890625 40.328125 50.609375 34.8125 
Q 44.34375 29.296875 32.078125 29.296875 
L 19.671875 29.296875 
L 19.671875 0 
L 9.8125 0 
z
" id="DejaVuSans-80"/>
      <path d="M 8.203125 72.90625 
L 55.078125 72.90625 
L 55.078125 68.703125 
L 28.609375 0 
L 18.3125 0 
L 43.21875 64.59375 
L 8.203125 64.59375 
z
" id="DejaVuSans-55"/>
      <path d="M 10.6875 12.40625 
L 21 12.40625 
L 21 0 
L 10.6875 0 
z
" id="DejaVuSans-46"/>
      <path d="M 9.8125 72.90625 
L 55.90625 72.90625 
L 55.90625 64.59375 
L 19.671875 64.59375 
L 19.671875 43.015625 
L 54.390625 43.015625 
L 54.390625 34.71875 
L 19.671875 34.71875 
L 19.671875 8.296875 
L 56.78125 8.296875 
L 56.78125 0 
L 9.8125 0 
z
" id="DejaVuSans-69"/>
      <path d="M 18.109375 8.203125 
L 18.109375 -20.796875 
L 9.078125 -20.796875 
L 9.078125 54.6875 
L 18.109375 54.6875 
L 18.109375 46.390625 
Q 20.953125 51.265625 25.265625 53.625 
Q 29.59375 56 35.59375 56 
Q 45.5625 56 51.78125 48.09375 
Q 58.015625 40.1875 58.015625 27.296875 
Q 58.015625 14.40625 51.78125 6.484375 
Q 45.5625 -1.421875 35.59375 -1.421875 
Q 29.59375 -1.421875 25.265625 0.953125 
Q 20.953125 3.328125 18.109375 8.203125 
z
M 48.6875 27.296875 
Q 48.6875 37.203125 44.609375 42.84375 
Q 40.53125 48.484375 33.40625 48.484375 
Q 26.265625 48.484375 22.1875 42.84375 
Q 18.109375 37.203125 18.109375 27.296875 
Q 18.109375 17.390625 22.1875 11.75 
Q 26.265625 6.109375 33.40625 6.109375 
Q 40.53125 6.109375 44.609375 11.75 
Q 48.6875 17.390625 48.6875 27.296875 
z
" id="DejaVuSans-112"/>
      <path d="M 9.421875 54.6875 
L 18.40625 54.6875 
L 18.40625 0 
L 9.421875 0 
z
M 9.421875 75.984375 
L 18.40625 75.984375 
L 18.40625 64.59375 
L 9.421875 64.59375 
z
" id="DejaVuSans-105"/>
      <path d="M 44.28125 53.078125 
L 44.28125 44.578125 
Q 40.484375 46.53125 36.375 47.5 
Q 32.28125 48.484375 27.875 48.484375 
Q 21.1875 48.484375 17.84375 46.4375 
Q 14.5 44.390625 14.5 40.28125 
Q 14.5 37.15625 16.890625 35.375 
Q 19.28125 33.59375 26.515625 31.984375 
L 29.59375 31.296875 
Q 39.15625 29.25 43.1875 25.515625 
Q 47.21875 21.78125 47.21875 15.09375 
Q 47.21875 7.46875 41.1875 3.015625 
Q 35.15625 -1.421875 24.609375 -1.421875 
Q 20.21875 -1.421875 15.453125 -0.5625 
Q 10.6875 0.296875 5.421875 2 
L 5.421875 11.28125 
Q 10.40625 8.6875 15.234375 7.390625 
Q 20.0625 6.109375 24.8125 6.109375 
Q 31.15625 6.109375 34.5625 8.28125 
Q 37.984375 10.453125 37.984375 14.40625 
Q 37.984375 18.0625 35.515625 20.015625 
Q 33.0625 21.96875 24.703125 23.78125 
L 21.578125 24.515625 
Q 13.234375 26.265625 9.515625 29.90625 
Q 5.8125 33.546875 5.8125 39.890625 
Q 5.8125 47.609375 11.28125 51.796875 
Q 16.75 56 26.8125 56 
Q 31.78125 56 36.171875 55.265625 
Q 40.578125 54.546875 44.28125 53.078125 
z
" id="DejaVuSans-115"/>
      <path d="M 45.40625 46.390625 
L 45.40625 75.984375 
L 54.390625 75.984375 
L 54.390625 0 
L 45.40625 0 
L 45.40625 8.203125 
Q 42.578125 3.328125 38.25 0.953125 
Q 33.9375 -1.421875 27.875 -1.421875 
Q 17.96875 -1.421875 11.734375 6.484375 
Q 5.515625 14.40625 5.515625 27.296875 
Q 5.515625 40.1875 11.734375 48.09375 
Q 17.96875 56 27.875 56 
Q 33.9375 56 38.25 53.625 
Q 42.578125 51.265625 45.40625 46.390625 
z
M 14.796875 27.296875 
Q 14.796875 17.390625 18.875 11.75 
Q 22.953125 6.109375 30.078125 6.109375 
Q 37.203125 6.109375 41.296875 11.75 
Q 45.40625 17.390625 45.40625 27.296875 
Q 45.40625 37.203125 41.296875 42.84375 
Q 37.203125 48.484375 30.078125 48.484375 
Q 22.953125 48.484375 18.875 42.84375 
Q 14.796875 37.203125 14.796875 27.296875 
z
" id="DejaVuSans-100"/>
     </defs>
     <g transform="translate(153.604219 332.636562)scale(0.1 -0.1)">
      <use xlink:href="#DejaVuSans-65"/>
      <use x="62.533203" xlink:href="#DejaVuSans-118"/>
      <use x="121.712891" xlink:href="#DejaVuSans-101"/>
      <use x="183.236328" xlink:href="#DejaVuSans-114"/>
      <use x="224.349609" xlink:href="#DejaVuSans-97"/>
      <use x="285.628906" xlink:href="#DejaVuSans-103"/>
      <use x="349.105469" xlink:href="#DejaVuSans-101"/>
      <use x="410.628906" xlink:href="#DejaVuSans-32"/>
      <use x="442.416016" xlink:href="#DejaVuSans-111"/>
      <use x="503.597656" xlink:href="#DejaVuSans-102"/>
      <use x="538.802734" xlink:href="#DejaVuSans-32"/>
      <use x="570.589844" xlink:href="#DejaVuSans-80"/>
      <use x="627.267578" xlink:href="#DejaVuSans-101"/>
      <use x="688.791016" xlink:href="#DejaVuSans-114"/>
      <use x="729.904297" xlink:href="#DejaVuSans-32"/>
      <use x="761.691406" xlink:href="#DejaVuSans-55"/>
      <use x="825.314453" xlink:href="#DejaVuSans-53"/>
      <use x="888.9375" xlink:href="#DejaVuSans-48"/>
      <use x="952.560547" xlink:href="#DejaVuSans-48"/>
      <use x="1016.183594" xlink:href="#DejaVuSans-46"/>
      <use x="1047.970703" xlink:href="#DejaVuSans-48"/>
      <use x="1111.59375" xlink:href="#DejaVuSans-32"/>
      <use x="1143.380859" xlink:href="#DejaVuSans-69"/>
      <use x="1206.564453" xlink:href="#DejaVuSans-112"/>
      <use x="1270.041016" xlink:href="#DejaVuSans-105"/>
      <use x="1297.824219" xlink:href="#DejaVuSans-115"/>
      <use x="1349.923828" xlink:href="#DejaVuSans-111"/>
      <use x="1411.105469" xlink:href="#DejaVuSans-100"/>
      <use x="1474.582031" xlink:href="#DejaVuSans-101"/>
     </g>
    </g>
   </g>
   <g id="matplotlib.axis_2">
    <g id="ytick_1">
     <g id="line2d_8">
      <defs>
       <path d="M 0 0 
L -3.5 0 
" id="ma001066ac2" style="stroke:#000000;stroke-width:0.8;"/>
      </defs>
      <g>
       <use style="stroke:#000000;stroke-width:0.8;" x="50.6" xlink:href="#ma001066ac2" y="291.174058"/>
      </g>
     </g>
     <g id="text_9">
      <!-- 0 -->
      <g style="fill:#ff0000;" transform="translate(37.2375 294.973277)scale(0.1 -0.1)">
       <use xlink:href="#DejaVuSans-48"/>
      </g>
     </g>
    </g>
    <g id="ytick_2">
     <g id="line2d_9">
      <g>
       <use style="stroke:#000000;stroke-width:0.8;" x="50.6" xlink:href="#ma001066ac2" y="248.676937"/>
      </g>
     </g>
     <g id="text_10">
      <!-- 50 -->
      <g style="fill:#ff0000;" transform="translate(30.875 252.476155)scale(0.1 -0.1)">
       <use xlink:href="#DejaVuSans-53"/>
       <use x="63.623047" xlink:href="#DejaVuSans-48"/>
      </g>
     </g>
    </g>
    <g id="ytick_3">
     <g id="line2d_10">
      <g>
       <use style="stroke:#000000;stroke-width:0.8;" x="50.6" xlink:href="#ma001066ac2" y="206.179815"/>
      </g>
     </g>
     <g id="text_11">
      <!-- 100 -->
      <g style="fill:#ff0000;" transform="translate(24.5125 209.979034)scale(0.1 -0.1)">
       <use xlink:href="#DejaVuSans-49"/>
       <use x="63.623047" xlink:href="#DejaVuSans-48"/>
       <use x="127.246094" xlink:href="#DejaVuSans-48"/>
      </g>
     </g>
    </g>
    <g id="ytick_4">
     <g id="line2d_11">
      <g>
       <use style="stroke:#000000;stroke-width:0.8;" x="50.6" xlink:href="#ma001066ac2" y="163.682693"/>
      </g>
     </g>
     <g id="text_12">
      <!-- 150 -->
      <g style="fill:#ff0000;" transform="translate(24.5125 167.481912)scale(0.1 -0.1)">
       <use xlink:href="#DejaVuSans-49"/>
       <use x="63.623047" xlink:href="#DejaVuSans-53"/>
       <use x="127.246094" xlink:href="#DejaVuSans-48"/>
      </g>
     </g>
    </g>
    <g id="ytick_5">
     <g id="line2d_12">
      <g>
       <use style="stroke:#000000;stroke-width:0.8;" x="50.6" xlink:href="#ma001066ac2" y="121.185571"/>
      </g>
     </g>
     <g id="text_13">
      <!-- 200 -->
      <g style="fill:#ff0000;" transform="translate(24.5125 124.98479)scale(0.1 -0.1)">
       <use xlink:href="#DejaVuSans-50"/>
       <use x="63.623047" xlink:href="#DejaVuSans-48"/>
       <use x="127.246094" xlink:href="#DejaVuSans-48"/>
      </g>
     </g>
    </g>
    <g id="ytick_6">
     <g id="line2d_13">
      <g>
       <use style="stroke:#000000;stroke-width:0.8;" x="50.6" xlink:href="#ma001066ac2" y="78.68845"/>
      </g>
     </g>
     <g id="text_14">
      <!-- 250 -->
      <g style="fill:#ff0000;" transform="translate(24.5125 82.487668)scale(0.1 -0.1)">
       <use xlink:href="#DejaVuSans-50"/>
       <use x="63.623047" xlink:href="#DejaVuSans-53"/>
       <use x="127.246094" xlink:href="#DejaVuSans-48"/>
      </g>
     </g>
    </g>
    <g id="ytick_7">
     <g id="line2d_14">
      <g>
       <use style="stroke:#000000;stroke-width:0.8;" x="50.6" xlink:href="#ma001066ac2" y="36.191328"/>
      </g>
     </g>
     <g id="text_15">
      <!-- 300 -->
      <g style="fill:#ff0000;" transform="translate(24.5125 39.990547)scale(0.1 -0.1)">
       <use xlink:href="#DejaVuSans-51"/>
       <use x="63.623047" xlink:href="#DejaVuSans-48"/>
       <use x="127.246094" xlink:href="#DejaVuSans-48"/>
      </g>
     </g>
    </g>
    <g id="text_16">
     <!-- Model Price -->
     <defs>
      <path d="M 9.8125 72.90625 
L 24.515625 72.90625 
L 43.109375 23.296875 
L 61.8125 72.90625 
L 76.515625 72.90625 
L 76.515625 0 
L 66.890625 0 
L 66.890625 64.015625 
L 48.09375 14.015625 
L 38.1875 14.015625 
L 19.390625 64.015625 
L 19.390625 0 
L 9.8125 0 
z
" id="DejaVuSans-77"/>
      <path d="M 9.421875 75.984375 
L 18.40625 75.984375 
L 18.40625 0 
L 9.421875 0 
z
" id="DejaVuSans-108"/>
      <path d="M 48.78125 52.59375 
L 48.78125 44.1875 
Q 44.96875 46.296875 41.140625 47.34375 
Q 37.3125 48.390625 33.40625 48.390625 
Q 24.65625 48.390625 19.8125 42.84375 
Q 14.984375 37.3125 14.984375 27.296875 
Q 14.984375 17.28125 19.8125 11.734375 
Q 24.65625 6.203125 33.40625 6.203125 
Q 37.3125 6.203125 41.140625 7.25 
Q 44.96875 8.296875 48.78125 10.40625 
L 48.78125 2.09375 
Q 45.015625 0.34375 40.984375 -0.53125 
Q 36.96875 -1.421875 32.421875 -1.421875 
Q 20.0625 -1.421875 12.78125 6.34375 
Q 5.515625 14.109375 5.515625 27.296875 
Q 5.515625 40.671875 12.859375 48.328125 
Q 20.21875 56 33.015625 56 
Q 37.15625 56 41.109375 55.140625 
Q 45.0625 54.296875 48.78125 52.59375 
z
" id="DejaVuSans-99"/>
     </defs>
     <g style="fill:#ff0000;" transform="translate(18.432813 186.38)rotate(-90)scale(0.1 -0.1)">
      <use xlink:href="#DejaVuSans-77"/>
      <use x="86.279297" xlink:href="#DejaVuSans-111"/>
      <use x="147.460938" xlink:href="#DejaVuSans-100"/>
      <use x="210.9375" xlink:href="#DejaVuSans-101"/>
      <use x="272.460938" xlink:href="#DejaVuSans-108"/>
      <use x="300.244141" xlink:href="#DejaVuSans-32"/>
      <use x="332.03125" xlink:href="#DejaVuSans-80"/>
      <use x="390.583984" xlink:href="#DejaVuSans-114"/>
      <use x="431.697266" xlink:href="#DejaVuSans-105"/>
      <use x="459.480469" xlink:href="#DejaVuSans-99"/>
      <use x="514.460938" xlink:href="#DejaVuSans-101"/>
     </g>
    </g>
   </g>
   <g id="line2d_15">
    <path clip-path="url(#pc17227d023)" d="M 66.946477 291.016364 
L 68.039887 129.061623 
L 69.133297 141.853335 
L 70.226707 75.833 
L 71.320117 65.175319 
L 72.413527 150.942597 
L 73.506936 73.458454 
L 74.600346 89.546139 
L 75.693756 153.523457 
L 76.787166 109.990479 
L 77.880576 129.775413 
L 78.973986 94.965249 
L 80.067395 66.676868 
L 81.160805 92.611833 
L 82.254215 106.273601 
L 83.347625 124.606833 
L 84.441035 137.68549 
L 85.534445 127.167436 
L 86.627855 103.346495 
L 87.721264 42.218835 
L 89.908084 155.031519 
L 91.001494 146.594436 
L 92.094904 72.331706 
L 93.188314 129.880172 
L 94.281724 127.144045 
L 95.375133 106.654913 
L 96.468543 74.672506 
L 97.561953 70.744314 
L 98.655363 136.937134 
L 99.748773 143.249012 
L 100.842183 193.763862 
L 101.935593 110.925142 
L 103.029002 139.382894 
L 104.122412 140.685106 
L 105.215822 137.277164 
L 106.309232 141.091329 
L 107.402642 163.913692 
L 108.496052 74.273675 
L 109.589461 107.27845 
L 110.682871 111.34989 
L 111.776281 107.115233 
L 112.869691 118.84339 
L 113.963101 86.697127 
L 115.056511 152.851896 
L 116.149921 102.733243 
L 117.24333 144.310395 
L 118.33674 133.854734 
L 119.43015 173.600732 
L 120.52356 74.064705 
L 122.71038 138.010761 
L 123.80379 94.234401 
L 124.897199 77.66709 
L 125.990609 96.681326 
L 127.084019 97.99075 
L 128.177429 77.370466 
L 129.270839 88.803118 
L 130.364249 175.707446 
L 132.551068 47.586321 
L 133.644478 133.164259 
L 134.737888 113.171041 
L 135.831298 144.82294 
L 136.924708 129.305091 
L 138.018118 117.782626 
L 139.111527 124.823162 
L 141.298347 101.372985 
L 142.391757 128.718739 
L 143.485167 148.256249 
L 144.578577 181.407321 
L 145.671987 194.701975 
L 146.765396 106.881041 
L 147.858806 73.065215 
L 148.952216 142.65935 
L 150.045626 113.926113 
L 151.139036 100.641326 
L 152.232446 112.091048 
L 153.325856 159.144394 
L 154.419265 137.911628 
L 155.512675 119.895892 
L 156.606085 108.556947 
L 157.699495 133.766642 
L 158.792905 74.153633 
L 159.886315 127.389914 
L 160.979724 102.562837 
L 162.073134 94.783115 
L 164.259954 117.983322 
L 165.353364 119.981272 
L 166.446774 102.708492 
L 167.540184 123.848379 
L 168.633593 119.076978 
L 170.820413 168.043193 
L 171.913823 134.273967 
L 173.007233 74.778656 
L 174.100643 102.889903 
L 175.194053 122.235629 
L 176.287462 45.806448 
L 177.380872 108.53517 
L 178.474282 163.338488 
L 179.567692 174.063548 
L 180.661102 180.780567 
L 181.754512 149.719277 
L 182.847921 132.702845 
L 183.941331 132.420976 
L 185.034741 67.272593 
L 186.128151 125.776183 
L 187.221561 94.716429 
L 188.314971 99.172596 
L 189.408381 127.987227 
L 190.50179 114.443877 
L 191.5952 144.640034 
L 192.68861 112.469342 
L 193.78202 127.407285 
L 194.87543 82.118362 
L 195.96884 98.147264 
L 197.06225 132.543931 
L 198.155659 138.554814 
L 199.249069 126.932326 
L 200.342479 72.614895 
L 201.435889 116.803422 
L 202.529299 141.172169 
L 203.622709 94.184928 
L 204.716119 154.828361 
L 205.809528 78.755849 
L 206.902938 24.143636 
L 207.996348 80.534315 
L 209.089758 120.068685 
L 210.183168 93.163298 
L 211.276578 115.215774 
L 212.369987 64.869039 
L 213.463397 119.453464 
L 214.556807 144.396877 
L 215.650217 83.843213 
L 216.743627 151.2101 
L 217.837037 189.207322 
L 218.930447 111.474354 
L 220.023856 150.225999 
L 221.117266 198.295158 
L 222.210676 150.027048 
L 223.304086 89.863104 
L 224.397496 104.550258 
L 225.490906 105.416621 
L 226.584316 121.744602 
L 227.677725 63.52161 
L 228.771135 72.794138 
L 229.864545 123.815296 
L 230.957955 131.504174 
L 232.051365 141.977093 
L 233.144775 104.961275 
L 234.238184 96.723701 
L 235.331594 168.270417 
L 236.425004 130.312839 
L 237.518414 98.158895 
L 238.611824 102.250201 
L 239.705234 44.031944 
L 240.798644 121.825197 
L 241.892053 70.666962 
L 242.985463 134.034506 
L 244.078873 159.655043 
L 245.172283 90.558631 
L 246.265693 126.525725 
L 247.359103 149.120756 
L 248.452513 125.53271 
L 249.545922 114.200022 
L 250.639332 97.156333 
L 251.732742 103.705389 
L 252.826152 87.090594 
L 253.919562 140.627153 
L 255.012972 170.337986 
L 256.106381 125.657387 
L 257.199791 128.885473 
L 258.293201 132.831208 
L 259.386611 155.738153 
L 260.480021 135.373048 
L 261.573431 138.775345 
L 262.666841 133.062445 
L 263.76025 113.428469 
L 264.85366 103.850674 
L 265.94707 125.582926 
L 267.04048 91.946644 
L 268.13389 149.713257 
L 269.2273 111.985058 
L 270.32071 85.80305 
L 271.414119 96.392794 
L 272.507529 93.75766 
L 274.694349 156.214129 
L 275.787759 127.087175 
L 276.881169 101.555527 
L 277.974579 144.265193 
L 279.067988 136.60326 
L 280.161398 108.398135 
L 281.254808 57.349746 
L 282.348218 77.2362 
L 283.441628 139.462974 
L 284.535038 154.7487 
L 285.628447 107.937859 
L 286.721857 107.117514 
L 287.815267 111.265806 
L 288.908677 126.525937 
L 290.002087 94.87343 
L 291.095497 76.336039 
L 292.188907 83.804901 
L 293.282316 103.149524 
L 294.375726 78.477983 
L 295.469136 137.709862 
L 296.562546 152.643007 
L 297.655956 85.697975 
L 298.749366 98.028443 
L 299.842776 83.173647 
L 300.936185 71.233045 
L 302.029595 83.643646 
L 303.123005 134.560602 
L 305.309825 50.90507 
L 306.403235 96.679259 
L 307.496644 136.683865 
L 308.590054 162.219933 
L 309.683464 159.809771 
L 310.776874 145.094447 
L 311.870284 134.673215 
L 312.963694 126.757975 
L 314.057104 130.89085 
L 315.150513 100.626991 
L 316.243923 77.953556 
L 317.337333 102.287151 
L 319.524153 170.445872 
L 320.617563 131.681076 
L 321.710973 123.888682 
L 322.804382 157.659911 
L 323.897792 129.27248 
L 324.991202 43.349443 
L 326.084612 139.075981 
L 327.178022 116.604451 
L 328.271432 121.152996 
L 329.364842 84.62596 
L 330.458251 112.954939 
L 331.551661 94.730395 
L 332.645071 92.933058 
L 333.738481 134.839199 
L 334.831891 112.457495 
L 335.925301 57.710979 
L 337.01871 98.718318 
L 338.11212 119.911564 
L 339.20553 70.833279 
L 340.29894 142.469467 
L 341.39235 176.120947 
L 342.48576 110.640782 
L 343.57917 151.584547 
L 344.672579 157.448662 
L 345.765989 95.71192 
L 346.859399 62.008965 
L 347.952809 130.992447 
L 349.046219 173.235434 
L 350.139629 173.425731 
L 352.326448 125.909538 
L 353.419858 105.700988 
L 354.513268 94.756896 
L 355.606678 117.539238 
L 356.700088 128.580174 
L 357.793498 158.647403 
L 358.886907 192.834377 
L 359.980317 104.083999 
L 361.073727 115.550867 
L 362.167137 102.477456 
L 363.260547 96.22354 
L 364.353957 87.26321 
L 365.447367 131.911703 
L 366.540776 122.247911 
L 367.634186 108.214753 
L 368.727596 79.44487 
L 369.821006 152.769838 
L 370.914416 142.28511 
L 372.007826 117.913128 
L 373.101236 152.693441 
L 374.194645 141.236934 
L 375.288055 99.63288 
L 376.381465 128.428539 
L 377.474875 91.73003 
L 378.568285 45.873155 
L 379.661695 101.337013 
L 380.755105 124.852287 
L 381.848514 172.180125 
L 382.941924 170.71192 
L 384.035334 156.497698 
L 385.128744 162.33433 
L 386.222154 125.578009 
L 387.315564 124.472687 
L 388.408973 96.832425 
L 389.502383 89.646887 
L 390.595793 133.207394 
L 391.689203 135.183514 
L 392.782613 120.440927 
L 393.876023 59.389332 
L 393.876023 59.389332 
" style="fill:none;stroke:#ff0000;stroke-linecap:square;stroke-width:1.5;"/>
   </g>
   <g id="patch_3">
    <path d="M 50.6 304.36 
L 50.6 10.8 
" style="fill:none;stroke:#000000;stroke-linecap:square;stroke-linejoin:miter;stroke-width:0.8;"/>
   </g>
   <g id="patch_4">
    <path d="M 410.2225 304.36 
L 410.2225 10.8 
" style="fill:none;stroke:#000000;stroke-linecap:square;stroke-linejoin:miter;stroke-width:0.8;"/>
   </g>
   <g id="patch_5">
    <path d="M 50.6 304.36 
L 410.2225 304.36 
" style="fill:none;stroke:#000000;stroke-linecap:square;stroke-linejoin:miter;stroke-width:0.8;"/>
   </g>
   <g id="patch_6">
    <path d="M 50.6 10.8 
L 410.2225 10.8 
" style="fill:none;stroke:#000000;stroke-linecap:square;stroke-linejoin:miter;stroke-width:0.8;"/>
   </g>
  </g>
  <g id="axes_2">
   <g id="matplotlib.axis_3">
    <g id="ytick_8">
     <g id="line2d_16">
      <defs>
       <path d="M 0 0 
L 3.5 0 
" id="m484136200a" style="stroke:#000000;stroke-width:0.8;"/>
      </defs>
      <g>
       <use style="stroke:#000000;stroke-width:0.8;" x="410.2225" xlink:href="#m484136200a" y="291.039017"/>
      </g>
     </g>
     <g id="text_17">
      <!-- 0 -->
      <g style="fill:#0000ff;" transform="translate(417.2225 294.838235)scale(0.1 -0.1)">
       <use xlink:href="#DejaVuSans-48"/>
      </g>
     </g>
    </g>
    <g id="ytick_9">
     <g id="line2d_17">
      <g>
       <use style="stroke:#000000;stroke-width:0.8;" x="410.2225" xlink:href="#m484136200a" y="229.198969"/>
      </g>
     </g>
     <g id="text_18">
      <!-- 100 -->
      <g style="fill:#0000ff;" transform="translate(417.2225 232.998187)scale(0.1 -0.1)">
       <use xlink:href="#DejaVuSans-49"/>
       <use x="63.623047" xlink:href="#DejaVuSans-48"/>
       <use x="127.246094" xlink:href="#DejaVuSans-48"/>
      </g>
     </g>
    </g>
    <g id="ytick_10">
     <g id="line2d_18">
      <g>
       <use style="stroke:#000000;stroke-width:0.8;" x="410.2225" xlink:href="#m484136200a" y="167.358921"/>
      </g>
     </g>
     <g id="text_19">
      <!-- 200 -->
      <g style="fill:#0000ff;" transform="translate(417.2225 171.158139)scale(0.1 -0.1)">
       <use xlink:href="#DejaVuSans-50"/>
       <use x="63.623047" xlink:href="#DejaVuSans-48"/>
       <use x="127.246094" xlink:href="#DejaVuSans-48"/>
      </g>
     </g>
    </g>
    <g id="ytick_11">
     <g id="line2d_19">
      <g>
       <use style="stroke:#000000;stroke-width:0.8;" x="410.2225" xlink:href="#m484136200a" y="105.518873"/>
      </g>
     </g>
     <g id="text_20">
      <!-- 300 -->
      <g style="fill:#0000ff;" transform="translate(417.2225 109.318091)scale(0.1 -0.1)">
       <use xlink:href="#DejaVuSans-51"/>
       <use x="63.623047" xlink:href="#DejaVuSans-48"/>
       <use x="127.246094" xlink:href="#DejaVuSans-48"/>
      </g>
     </g>
    </g>
    <g id="ytick_12">
     <g id="line2d_20">
      <g>
       <use style="stroke:#000000;stroke-width:0.8;" x="410.2225" xlink:href="#m484136200a" y="43.678825"/>
      </g>
     </g>
     <g id="text_21">
      <!-- 400 -->
      <defs>
       <path d="M 37.796875 64.3125 
L 12.890625 25.390625 
L 37.796875 25.390625 
z
M 35.203125 72.90625 
L 47.609375 72.90625 
L 47.609375 25.390625 
L 58.015625 25.390625 
L 58.015625 17.1875 
L 47.609375 17.1875 
L 47.609375 0 
L 37.796875 0 
L 37.796875 17.1875 
L 4.890625 17.1875 
L 4.890625 26.703125 
z
" id="DejaVuSans-52"/>
      </defs>
      <g style="fill:#0000ff;" transform="translate(417.2225 47.478043)scale(0.1 -0.1)">
       <use xlink:href="#DejaVuSans-52"/>
       <use x="63.623047" xlink:href="#DejaVuSans-48"/>
       <use x="127.246094" xlink:href="#DejaVuSans-48"/>
      </g>
     </g>
    </g>
    <g id="text_22">
     <!-- Demand-Supply -->
     <defs>
      <path d="M 19.671875 64.796875 
L 19.671875 8.109375 
L 31.59375 8.109375 
Q 46.6875 8.109375 53.6875 14.9375 
Q 60.6875 21.78125 60.6875 36.53125 
Q 60.6875 51.171875 53.6875 57.984375 
Q 46.6875 64.796875 31.59375 64.796875 
z
M 9.8125 72.90625 
L 30.078125 72.90625 
Q 51.265625 72.90625 61.171875 64.09375 
Q 71.09375 55.28125 71.09375 36.53125 
Q 71.09375 17.671875 61.125 8.828125 
Q 51.171875 0 30.078125 0 
L 9.8125 0 
z
" id="DejaVuSans-68"/>
      <path d="M 52 44.1875 
Q 55.375 50.25 60.0625 53.125 
Q 64.75 56 71.09375 56 
Q 79.640625 56 84.28125 50.015625 
Q 88.921875 44.046875 88.921875 33.015625 
L 88.921875 0 
L 79.890625 0 
L 79.890625 32.71875 
Q 79.890625 40.578125 77.09375 44.375 
Q 74.3125 48.1875 68.609375 48.1875 
Q 61.625 48.1875 57.5625 43.546875 
Q 53.515625 38.921875 53.515625 30.90625 
L 53.515625 0 
L 44.484375 0 
L 44.484375 32.71875 
Q 44.484375 40.625 41.703125 44.40625 
Q 38.921875 48.1875 33.109375 48.1875 
Q 26.21875 48.1875 22.15625 43.53125 
Q 18.109375 38.875 18.109375 30.90625 
L 18.109375 0 
L 9.078125 0 
L 9.078125 54.6875 
L 18.109375 54.6875 
L 18.109375 46.1875 
Q 21.1875 51.21875 25.484375 53.609375 
Q 29.78125 56 35.6875 56 
Q 41.65625 56 45.828125 52.96875 
Q 50 49.953125 52 44.1875 
z
" id="DejaVuSans-109"/>
      <path d="M 54.890625 33.015625 
L 54.890625 0 
L 45.90625 0 
L 45.90625 32.71875 
Q 45.90625 40.484375 42.875 44.328125 
Q 39.84375 48.1875 33.796875 48.1875 
Q 26.515625 48.1875 22.3125 43.546875 
Q 18.109375 38.921875 18.109375 30.90625 
L 18.109375 0 
L 9.078125 0 
L 9.078125 54.6875 
L 18.109375 54.6875 
L 18.109375 46.1875 
Q 21.34375 51.125 25.703125 53.5625 
Q 30.078125 56 35.796875 56 
Q 45.21875 56 50.046875 50.171875 
Q 54.890625 44.34375 54.890625 33.015625 
z
" id="DejaVuSans-110"/>
      <path d="M 4.890625 31.390625 
L 31.203125 31.390625 
L 31.203125 23.390625 
L 4.890625 23.390625 
z
" id="DejaVuSans-45"/>
      <path d="M 53.515625 70.515625 
L 53.515625 60.890625 
Q 47.90625 63.578125 42.921875 64.890625 
Q 37.9375 66.21875 33.296875 66.21875 
Q 25.25 66.21875 20.875 63.09375 
Q 16.5 59.96875 16.5 54.203125 
Q 16.5 49.359375 19.40625 46.890625 
Q 22.3125 44.4375 30.421875 42.921875 
L 36.375 41.703125 
Q 47.40625 39.59375 52.65625 34.296875 
Q 57.90625 29 57.90625 20.125 
Q 57.90625 9.515625 50.796875 4.046875 
Q 43.703125 -1.421875 29.984375 -1.421875 
Q 24.8125 -1.421875 18.96875 -0.25 
Q 13.140625 0.921875 6.890625 3.21875 
L 6.890625 13.375 
Q 12.890625 10.015625 18.65625 8.296875 
Q 24.421875 6.59375 29.984375 6.59375 
Q 38.421875 6.59375 43.015625 9.90625 
Q 47.609375 13.234375 47.609375 19.390625 
Q 47.609375 24.75 44.3125 27.78125 
Q 41.015625 30.8125 33.5 32.328125 
L 27.484375 33.5 
Q 16.453125 35.6875 11.515625 40.375 
Q 6.59375 45.0625 6.59375 53.421875 
Q 6.59375 63.09375 13.40625 68.65625 
Q 20.21875 74.21875 32.171875 74.21875 
Q 37.3125 74.21875 42.625 73.28125 
Q 47.953125 72.359375 53.515625 70.515625 
z
" id="DejaVuSans-83"/>
      <path d="M 8.5 21.578125 
L 8.5 54.6875 
L 17.484375 54.6875 
L 17.484375 21.921875 
Q 17.484375 14.15625 20.5 10.265625 
Q 23.53125 6.390625 29.59375 6.390625 
Q 36.859375 6.390625 41.078125 11.03125 
Q 45.3125 15.671875 45.3125 23.6875 
L 45.3125 54.6875 
L 54.296875 54.6875 
L 54.296875 0 
L 45.3125 0 
L 45.3125 8.40625 
Q 42.046875 3.421875 37.71875 1 
Q 33.40625 -1.421875 27.6875 -1.421875 
Q 18.265625 -1.421875 13.375 4.4375 
Q 8.5 10.296875 8.5 21.578125 
z
M 31.109375 56 
z
" id="DejaVuSans-117"/>
      <path d="M 32.171875 -5.078125 
Q 28.375 -14.84375 24.75 -17.8125 
Q 21.140625 -20.796875 15.09375 -20.796875 
L 7.90625 -20.796875 
L 7.90625 -13.28125 
L 13.1875 -13.28125 
Q 16.890625 -13.28125 18.9375 -11.515625 
Q 21 -9.765625 23.484375 -3.21875 
L 25.09375 0.875 
L 2.984375 54.6875 
L 12.5 54.6875 
L 29.59375 11.921875 
L 46.6875 54.6875 
L 56.203125 54.6875 
z
" id="DejaVuSans-121"/>
     </defs>
     <g style="fill:#0000ff;" transform="translate(447.908437 197.627656)rotate(-90)scale(0.1 -0.1)">
      <use xlink:href="#DejaVuSans-68"/>
      <use x="77.001953" xlink:href="#DejaVuSans-101"/>
      <use x="138.525391" xlink:href="#DejaVuSans-109"/>
      <use x="235.9375" xlink:href="#DejaVuSans-97"/>
      <use x="297.216797" xlink:href="#DejaVuSans-110"/>
      <use x="360.595703" xlink:href="#DejaVuSans-100"/>
      <use x="424.072266" xlink:href="#DejaVuSans-45"/>
      <use x="460.15625" xlink:href="#DejaVuSans-83"/>
      <use x="523.632812" xlink:href="#DejaVuSans-117"/>
      <use x="587.011719" xlink:href="#DejaVuSans-112"/>
      <use x="650.488281" xlink:href="#DejaVuSans-112"/>
      <use x="713.964844" xlink:href="#DejaVuSans-108"/>
      <use x="741.748047" xlink:href="#DejaVuSans-121"/>
     </g>
    </g>
   </g>
   <g id="line2d_21">
    <path clip-path="url(#pc17227d023)" d="M 66.946477 291.016364 
L 68.039887 59.203873 
L 69.133297 53.084113 
L 70.226707 38.821172 
L 71.320117 36.801327 
L 72.413527 56.788918 
L 73.506936 39.241591 
L 74.600346 42.458481 
L 75.693756 57.296982 
L 76.787166 48.272203 
L 77.880576 54.667735 
L 78.973986 41.264125 
L 80.067395 34.81701 
L 81.160805 45.221942 
L 82.254215 45.418994 
L 83.347625 53.278563 
L 84.441035 54.780217 
L 85.534445 50.655127 
L 86.627855 47.66815 
L 87.721264 28.840935 
L 88.814674 42.753721 
L 89.908084 59.519566 
L 91.001494 61.005063 
L 92.094904 35.87822 
L 93.188314 52.869852 
L 94.281724 54.852422 
L 95.375133 46.180731 
L 96.468543 34.798579 
L 97.561953 36.468526 
L 98.655363 54.564709 
L 99.748773 58.94499 
L 100.842183 71.646057 
L 101.935593 51.304353 
L 103.029002 52.962908 
L 104.122412 57.253678 
L 105.215822 56.643858 
L 106.309232 56.882739 
L 107.402642 63.682235 
L 108.496052 38.90003 
L 109.589461 43.953918 
L 110.682871 46.37111 
L 111.776281 48.327445 
L 112.869691 51.832633 
L 113.963101 43.13752 
L 115.056511 61.064724 
L 116.149921 46.671318 
L 117.24333 57.510852 
L 118.33674 57.761489 
L 119.43015 64.667779 
L 120.52356 37.758161 
L 121.61697 48.509726 
L 122.71038 54.967308 
L 123.80379 44.074437 
L 124.897199 36.869333 
L 125.990609 44.471788 
L 127.084019 44.217966 
L 128.177429 37.690156 
L 129.270839 41.731402 
L 130.364249 68.080311 
L 132.551068 29.766222 
L 133.644478 54.136361 
L 134.737888 47.849179 
L 135.831298 56.61198 
L 136.924708 55.075991 
L 138.018118 47.727658 
L 139.111527 52.683333 
L 141.298347 45.304075 
L 142.391757 53.455148 
L 143.485167 60.042253 
L 144.578577 68.838699 
L 145.671987 71.772271 
L 146.765396 48.860244 
L 147.858806 35.001083 
L 148.952216 55.988051 
L 151.139036 43.926682 
L 152.232446 46.580714 
L 153.325856 65.048045 
L 154.419265 56.054628 
L 155.512675 51.084922 
L 156.606085 49.066758 
L 157.699495 56.290443 
L 158.792905 36.749679 
L 159.886315 53.711157 
L 160.979724 46.612247 
L 162.073134 43.286267 
L 163.166544 47.133186 
L 164.259954 51.588443 
L 165.353364 50.186742 
L 166.446774 44.226356 
L 167.540184 51.834568 
L 168.633593 50.046931 
L 169.727003 58.703998 
L 170.820413 64.172851 
L 171.913823 55.133352 
L 173.007233 37.558172 
L 174.100643 44.965268 
L 175.194053 50.899163 
L 176.287462 27.780937 
L 177.380872 48.965019 
L 178.474282 63.827856 
L 180.661102 68.862371 
L 181.754512 59.654993 
L 182.847921 55.619501 
L 183.941331 56.625319 
L 185.034741 34.427473 
L 186.128151 52.993107 
L 187.221561 45.848641 
L 188.314971 42.409556 
L 189.408381 53.957011 
L 190.50179 48.544092 
L 191.5952 57.547387 
L 192.68861 48.4577 
L 193.78202 54.459768 
L 194.87543 37.621909 
L 195.96884 44.843302 
L 197.06225 53.815396 
L 198.155659 55.044488 
L 199.249069 54.601585 
L 200.342479 36.721205 
L 201.435889 48.028585 
L 202.529299 56.611851 
L 203.622709 46.006178 
L 204.716119 57.953677 
L 205.809528 38.398793 
L 206.902938 24.143636 
L 207.996348 36.51227 
L 209.089758 53.372007 
L 210.183168 44.411916 
L 211.276578 47.689332 
L 212.369987 34.236314 
L 213.463397 51.104939 
L 214.556807 57.987558 
L 215.650217 40.418195 
L 216.743627 59.227906 
L 217.837037 69.209997 
L 218.930447 49.278905 
L 220.023856 58.950551 
L 221.117266 74.784194 
L 222.210676 60.567438 
L 223.304086 40.456074 
L 224.397496 45.446889 
L 225.490906 46.459207 
L 226.584316 50.56674 
L 227.677725 33.698654 
L 228.771135 37.847768 
L 229.864545 51.315804 
L 230.957955 55.587675 
L 232.051365 57.60702 
L 233.144775 45.076059 
L 234.238184 40.861406 
L 235.331594 63.758453 
L 237.518414 45.392784 
L 238.611824 48.20974 
L 239.705234 25.523516 
L 240.798644 51.315252 
L 241.892053 36.794532 
L 242.985463 52.597958 
L 244.078873 62.282689 
L 245.172283 44.185972 
L 246.265693 53.021775 
L 247.359103 60.847098 
L 248.452513 51.595642 
L 249.545922 50.796522 
L 250.639332 44.400855 
L 251.732742 47.013957 
L 252.826152 38.288291 
L 253.919562 56.685287 
L 255.012972 66.875389 
L 256.106381 52.47765 
L 257.199791 53.47227 
L 258.293201 52.616952 
L 259.386611 61.776803 
L 260.480021 55.873223 
L 261.573431 56.839884 
L 262.666841 55.1657 
L 263.76025 47.987866 
L 264.85366 45.766656 
L 265.94707 50.55016 
L 267.04048 41.873855 
L 268.13389 57.775099 
L 269.2273 50.103188 
L 270.32071 40.837392 
L 271.414119 43.403053 
L 272.507529 42.966706 
L 273.600939 49.797315 
L 274.694349 61.92807 
L 276.881169 44.518161 
L 277.974579 56.762303 
L 279.067988 55.670431 
L 280.161398 45.381989 
L 281.254808 31.623846 
L 282.348218 39.233773 
L 283.441628 53.97427 
L 284.535038 61.957757 
L 285.628447 49.589055 
L 286.721857 45.611121 
L 288.908677 53.554708 
L 290.002087 42.898994 
L 291.095497 37.755954 
L 292.188907 39.776894 
L 293.282316 45.624209 
L 294.375726 41.188116 
L 295.469136 53.325867 
L 296.562546 60.330777 
L 297.655956 42.386192 
L 299.842776 41.179459 
L 300.936185 35.954415 
L 302.029595 39.754378 
L 303.123005 53.019025 
L 304.216415 43.099751 
L 305.309825 28.251295 
L 307.496644 55.853225 
L 308.590054 63.884521 
L 309.683464 62.683607 
L 310.776874 59.945893 
L 311.870284 54.934904 
L 312.963694 52.675293 
L 314.057104 56.075378 
L 315.150513 45.713986 
L 316.243923 37.042262 
L 317.337333 46.020499 
L 318.430743 56.797203 
L 319.524153 65.146301 
L 320.617563 56.48198 
L 321.710973 51.964598 
L 322.804382 60.35163 
L 323.897792 56.851727 
L 324.991202 26.043802 
L 326.084612 56.196967 
L 327.178022 51.242515 
L 328.271432 51.224305 
L 329.364842 39.738639 
L 330.458251 49.134621 
L 331.551661 44.554775 
L 332.645071 43.635483 
L 333.738481 54.356975 
L 334.831891 48.578826 
L 335.925301 31.25164 
L 337.01871 44.092492 
L 338.11212 52.046046 
L 339.20553 37.959969 
L 340.29894 56.60912 
L 341.39235 68.737846 
L 342.48576 47.880158 
L 343.57917 61.078308 
L 344.672579 62.035043 
L 345.765989 43.107064 
L 346.859399 33.264716 
L 347.952809 53.028479 
L 349.046219 68.850924 
L 350.139629 67.524191 
L 351.233039 58.424044 
L 353.419858 47.068176 
L 354.513268 40.913229 
L 355.606678 51.084978 
L 356.700088 52.577987 
L 357.793498 59.954254 
L 358.886907 73.664409 
L 359.980317 47.246012 
L 361.073727 49.729421 
L 362.167137 45.095322 
L 363.260547 44.676041 
L 364.353957 39.816118 
L 365.447367 55.837875 
L 366.540776 52.654209 
L 367.634186 46.816436 
L 368.727596 38.774287 
L 369.821006 57.769603 
L 370.914416 55.969147 
L 372.007826 51.206078 
L 373.101236 59.621309 
L 374.194645 57.67122 
L 375.288055 44.152864 
L 376.381465 54.930674 
L 377.474875 43.073145 
L 378.568285 28.192419 
L 379.661695 46.059941 
L 380.755105 51.578931 
L 381.848514 65.17307 
L 382.941924 67.401073 
L 384.035334 61.369583 
L 385.128744 64.17629 
L 386.222154 54.358064 
L 387.315564 52.66584 
L 388.408973 45.072636 
L 389.502383 41.45432 
L 390.595793 53.455845 
L 391.689203 56.259617 
L 392.782613 50.82567 
L 393.876023 32.964852 
L 393.876023 32.964852 
" style="fill:none;stroke:#0000ff;stroke-linecap:square;stroke-width:1.5;"/>
   </g>
   <g id="patch_7">
    <path d="M 50.6 304.36 
L 50.6 10.8 
" style="fill:none;stroke:#000000;stroke-linecap:square;stroke-linejoin:miter;stroke-width:0.8;"/>
   </g>
   <g id="patch_8">
    <path d="M 410.2225 304.36 
L 410.2225 10.8 
" style="fill:none;stroke:#000000;stroke-linecap:square;stroke-linejoin:miter;stroke-width:0.8;"/>
   </g>
   <g id="patch_9">
    <path d="M 50.6 304.36 
L 410.2225 304.36 
" style="fill:none;stroke:#000000;stroke-linecap:square;stroke-linejoin:miter;stroke-width:0.8;"/>
   </g>
   <g id="patch_10">
    <path d="M 50.6 10.8 
L 410.2225 10.8 
" style="fill:none;stroke:#000000;stroke-linecap:square;stroke-linejoin:miter;stroke-width:0.8;"/>
   </g>
  </g>
 </g>
 <defs>
  <clipPath id="pc17227d023">
   <rect height="293.56" width="359.6225" x="50.6" y="10.8"/>
  </clipPath>
 </defs>
</svg>
