<?xml version="1.0" encoding="utf-8" standalone="no"?>
<!DOCTYPE svg PUBLIC "-//W3C//DTD SVG 1.1//EN"
  "http://www.w3.org/Graphics/SVG/1.1/DTD/svg11.dtd">
<!-- Created with matplotlib (https://matplotlib.org/) -->
<svg height="345.6pt" version="1.1" viewBox="0 0 460.8 345.6" width="460.8pt" xmlns="http://www.w3.org/2000/svg" xmlns:xlink="http://www.w3.org/1999/xlink">
 <defs>
  <style type="text/css">
*{stroke-linecap:butt;stroke-linejoin:round;}
  </style>
 </defs>
 <g id="figure_1">
  <g id="patch_1">
   <path d="M 0 345.6 
L 460.8 345.6 
L 460.8 0 
L 0 0 
z
" style="fill:#ffffff;"/>
  </g>
  <g id="axes_1">
   <g id="patch_2">
    <path d="M 57.6 307.584 
L 414.72 307.584 
L 414.72 41.472 
L 57.6 41.472 
z
" style="fill:#ffffff;"/>
   </g>
   <g id="matplotlib.axis_1">
    <g id="xtick_1">
     <g id="line2d_1">
      <defs>
       <path d="M 0 0 
L 0 3.5 
" id="mc67d9c2ebb" style="stroke:#000000;stroke-width:0.8;"/>
      </defs>
      <g>
       <use style="stroke:#000000;stroke-width:0.8;" x="73.832727" xlink:href="#mc67d9c2ebb" y="307.584"/>
      </g>
     </g>
     <g id="text_1">
      <!-- 0 -->
      <defs>
       <path d="M 31.78125 66.40625 
Q 24.171875 66.40625 20.328125 58.90625 
Q 16.5 51.421875 16.5 36.375 
Q 16.5 21.390625 20.328125 13.890625 
Q 24.171875 6.390625 31.78125 6.390625 
Q 39.453125 6.390625 43.28125 13.890625 
Q 47.125 21.390625 47.125 36.375 
Q 47.125 51.421875 43.28125 58.90625 
Q 39.453125 66.40625 31.78125 66.40625 
z
M 31.78125 74.21875 
Q 44.046875 74.21875 50.515625 64.515625 
Q 56.984375 54.828125 56.984375 36.375 
Q 56.984375 17.96875 50.515625 8.265625 
Q 44.046875 -1.421875 31.78125 -1.421875 
Q 19.53125 -1.421875 13.0625 8.265625 
Q 6.59375 17.96875 6.59375 36.375 
Q 6.59375 54.828125 13.0625 64.515625 
Q 19.53125 74.21875 31.78125 74.21875 
z
" id="DejaVuSans-48"/>
      </defs>
      <g transform="translate(70.651477 322.182437)scale(0.1 -0.1)">
       <use xlink:href="#DejaVuSans-48"/>
      </g>
     </g>
    </g>
    <g id="xtick_2">
     <g id="line2d_2">
      <g>
       <use style="stroke:#000000;stroke-width:0.8;" x="127.943622" xlink:href="#mc67d9c2ebb" y="307.584"/>
      </g>
     </g>
     <g id="text_2">
      <!-- 5000 -->
      <defs>
       <path d="M 10.796875 72.90625 
L 49.515625 72.90625 
L 49.515625 64.59375 
L 19.828125 64.59375 
L 19.828125 46.734375 
Q 21.96875 47.46875 24.109375 47.828125 
Q 26.265625 48.1875 28.421875 48.1875 
Q 40.625 48.1875 47.75 41.5 
Q 54.890625 34.8125 54.890625 23.390625 
Q 54.890625 11.625 47.5625 5.09375 
Q 40.234375 -1.421875 26.90625 -1.421875 
Q 22.3125 -1.421875 17.546875 -0.640625 
Q 12.796875 0.140625 7.71875 1.703125 
L 7.71875 11.625 
Q 12.109375 9.234375 16.796875 8.0625 
Q 21.484375 6.890625 26.703125 6.890625 
Q 35.15625 6.890625 40.078125 11.328125 
Q 45.015625 15.765625 45.015625 23.390625 
Q 45.015625 31 40.078125 35.4375 
Q 35.15625 39.890625 26.703125 39.890625 
Q 22.75 39.890625 18.8125 39.015625 
Q 14.890625 38.140625 10.796875 36.28125 
z
" id="DejaVuSans-53"/>
      </defs>
      <g transform="translate(115.218622 322.182437)scale(0.1 -0.1)">
       <use xlink:href="#DejaVuSans-53"/>
       <use x="63.623047" xlink:href="#DejaVuSans-48"/>
       <use x="127.246094" xlink:href="#DejaVuSans-48"/>
       <use x="190.869141" xlink:href="#DejaVuSans-48"/>
      </g>
     </g>
    </g>
    <g id="xtick_3">
     <g id="line2d_3">
      <g>
       <use style="stroke:#000000;stroke-width:0.8;" x="182.054516" xlink:href="#mc67d9c2ebb" y="307.584"/>
      </g>
     </g>
     <g id="text_3">
      <!-- 10000 -->
      <defs>
       <path d="M 12.40625 8.296875 
L 28.515625 8.296875 
L 28.515625 63.921875 
L 10.984375 60.40625 
L 10.984375 69.390625 
L 28.421875 72.90625 
L 38.28125 72.90625 
L 38.28125 8.296875 
L 54.390625 8.296875 
L 54.390625 0 
L 12.40625 0 
z
" id="DejaVuSans-49"/>
      </defs>
      <g transform="translate(166.148266 322.182437)scale(0.1 -0.1)">
       <use xlink:href="#DejaVuSans-49"/>
       <use x="63.623047" xlink:href="#DejaVuSans-48"/>
       <use x="127.246094" xlink:href="#DejaVuSans-48"/>
       <use x="190.869141" xlink:href="#DejaVuSans-48"/>
       <use x="254.492188" xlink:href="#DejaVuSans-48"/>
      </g>
     </g>
    </g>
    <g id="xtick_4">
     <g id="line2d_4">
      <g>
       <use style="stroke:#000000;stroke-width:0.8;" x="236.165411" xlink:href="#mc67d9c2ebb" y="307.584"/>
      </g>
     </g>
     <g id="text_4">
      <!-- 15000 -->
      <g transform="translate(220.259161 322.182437)scale(0.1 -0.1)">
       <use xlink:href="#DejaVuSans-49"/>
       <use x="63.623047" xlink:href="#DejaVuSans-53"/>
       <use x="127.246094" xlink:href="#DejaVuSans-48"/>
       <use x="190.869141" xlink:href="#DejaVuSans-48"/>
       <use x="254.492188" xlink:href="#DejaVuSans-48"/>
      </g>
     </g>
    </g>
    <g id="xtick_5">
     <g id="line2d_5">
      <g>
       <use style="stroke:#000000;stroke-width:0.8;" x="290.276306" xlink:href="#mc67d9c2ebb" y="307.584"/>
      </g>
     </g>
     <g id="text_5">
      <!-- 20000 -->
      <defs>
       <path d="M 19.1875 8.296875 
L 53.609375 8.296875 
L 53.609375 0 
L 7.328125 0 
L 7.328125 8.296875 
Q 12.9375 14.109375 22.625 23.890625 
Q 32.328125 33.6875 34.8125 36.53125 
Q 39.546875 41.84375 41.421875 45.53125 
Q 43.3125 49.21875 43.3125 52.78125 
Q 43.3125 58.59375 39.234375 62.25 
Q 35.15625 65.921875 28.609375 65.921875 
Q 23.96875 65.921875 18.8125 64.3125 
Q 13.671875 62.703125 7.8125 59.421875 
L 7.8125 69.390625 
Q 13.765625 71.78125 18.9375 73 
Q 24.125 74.21875 28.421875 74.21875 
Q 39.75 74.21875 46.484375 68.546875 
Q 53.21875 62.890625 53.21875 53.421875 
Q 53.21875 48.921875 51.53125 44.890625 
Q 49.859375 40.875 45.40625 35.40625 
Q 44.1875 33.984375 37.640625 27.21875 
Q 31.109375 20.453125 19.1875 8.296875 
z
" id="DejaVuSans-50"/>
      </defs>
      <g transform="translate(274.370056 322.182437)scale(0.1 -0.1)">
       <use xlink:href="#DejaVuSans-50"/>
       <use x="63.623047" xlink:href="#DejaVuSans-48"/>
       <use x="127.246094" xlink:href="#DejaVuSans-48"/>
       <use x="190.869141" xlink:href="#DejaVuSans-48"/>
       <use x="254.492188" xlink:href="#DejaVuSans-48"/>
      </g>
     </g>
    </g>
    <g id="xtick_6">
     <g id="line2d_6">
      <g>
       <use style="stroke:#000000;stroke-width:0.8;" x="344.3872" xlink:href="#mc67d9c2ebb" y="307.584"/>
      </g>
     </g>
     <g id="text_6">
      <!-- 25000 -->
      <g transform="translate(328.48095 322.182437)scale(0.1 -0.1)">
       <use xlink:href="#DejaVuSans-50"/>
       <use x="63.623047" xlink:href="#DejaVuSans-53"/>
       <use x="127.246094" xlink:href="#DejaVuSans-48"/>
       <use x="190.869141" xlink:href="#DejaVuSans-48"/>
       <use x="254.492188" xlink:href="#DejaVuSans-48"/>
      </g>
     </g>
    </g>
    <g id="xtick_7">
     <g id="line2d_7">
      <g>
       <use style="stroke:#000000;stroke-width:0.8;" x="398.498095" xlink:href="#mc67d9c2ebb" y="307.584"/>
      </g>
     </g>
     <g id="text_7">
      <!-- 30000 -->
      <defs>
       <path d="M 40.578125 39.3125 
Q 47.65625 37.796875 51.625 33 
Q 55.609375 28.21875 55.609375 21.1875 
Q 55.609375 10.40625 48.1875 4.484375 
Q 40.765625 -1.421875 27.09375 -1.421875 
Q 22.515625 -1.421875 17.65625 -0.515625 
Q 12.796875 0.390625 7.625 2.203125 
L 7.625 11.71875 
Q 11.71875 9.328125 16.59375 8.109375 
Q 21.484375 6.890625 26.8125 6.890625 
Q 36.078125 6.890625 40.9375 10.546875 
Q 45.796875 14.203125 45.796875 21.1875 
Q 45.796875 27.640625 41.28125 31.265625 
Q 36.765625 34.90625 28.71875 34.90625 
L 20.21875 34.90625 
L 20.21875 43.015625 
L 29.109375 43.015625 
Q 36.375 43.015625 40.234375 45.921875 
Q 44.09375 48.828125 44.09375 54.296875 
Q 44.09375 59.90625 40.109375 62.90625 
Q 36.140625 65.921875 28.71875 65.921875 
Q 24.65625 65.921875 20.015625 65.03125 
Q 15.375 64.15625 9.8125 62.3125 
L 9.8125 71.09375 
Q 15.4375 72.65625 20.34375 73.4375 
Q 25.25 74.21875 29.59375 74.21875 
Q 40.828125 74.21875 47.359375 69.109375 
Q 53.90625 64.015625 53.90625 55.328125 
Q 53.90625 49.265625 50.4375 45.09375 
Q 46.96875 40.921875 40.578125 39.3125 
z
" id="DejaVuSans-51"/>
      </defs>
      <g transform="translate(382.591845 322.182437)scale(0.1 -0.1)">
       <use xlink:href="#DejaVuSans-51"/>
       <use x="63.623047" xlink:href="#DejaVuSans-48"/>
       <use x="127.246094" xlink:href="#DejaVuSans-48"/>
       <use x="190.869141" xlink:href="#DejaVuSans-48"/>
       <use x="254.492188" xlink:href="#DejaVuSans-48"/>
      </g>
     </g>
    </g>
    <g id="text_8">
     <!-- Episode -->
     <defs>
      <path d="M 9.8125 72.90625 
L 55.90625 72.90625 
L 55.90625 64.59375 
L 19.671875 64.59375 
L 19.671875 43.015625 
L 54.390625 43.015625 
L 54.390625 34.71875 
L 19.671875 34.71875 
L 19.671875 8.296875 
L 56.78125 8.296875 
L 56.78125 0 
L 9.8125 0 
z
" id="DejaVuSans-69"/>
      <path d="M 18.109375 8.203125 
L 18.109375 -20.796875 
L 9.078125 -20.796875 
L 9.078125 54.6875 
L 18.109375 54.6875 
L 18.109375 46.390625 
Q 20.953125 51.265625 25.265625 53.625 
Q 29.59375 56 35.59375 56 
Q 45.5625 56 51.78125 48.09375 
Q 58.015625 40.1875 58.015625 27.296875 
Q 58.015625 14.40625 51.78125 6.484375 
Q 45.5625 -1.421875 35.59375 -1.421875 
Q 29.59375 -1.421875 25.265625 0.953125 
Q 20.953125 3.328125 18.109375 8.203125 
z
M 48.6875 27.296875 
Q 48.6875 37.203125 44.609375 42.84375 
Q 40.53125 48.484375 33.40625 48.484375 
Q 26.265625 48.484375 22.1875 42.84375 
Q 18.109375 37.203125 18.109375 27.296875 
Q 18.109375 17.390625 22.1875 11.75 
Q 26.265625 6.109375 33.40625 6.109375 
Q 40.53125 6.109375 44.609375 11.75 
Q 48.6875 17.390625 48.6875 27.296875 
z
" id="DejaVuSans-112"/>
      <path d="M 9.421875 54.6875 
L 18.40625 54.6875 
L 18.40625 0 
L 9.421875 0 
z
M 9.421875 75.984375 
L 18.40625 75.984375 
L 18.40625 64.59375 
L 9.421875 64.59375 
z
" id="DejaVuSans-105"/>
      <path d="M 44.28125 53.078125 
L 44.28125 44.578125 
Q 40.484375 46.53125 36.375 47.5 
Q 32.28125 48.484375 27.875 48.484375 
Q 21.1875 48.484375 17.84375 46.4375 
Q 14.5 44.390625 14.5 40.28125 
Q 14.5 37.15625 16.890625 35.375 
Q 19.28125 33.59375 26.515625 31.984375 
L 29.59375 31.296875 
Q 39.15625 29.25 43.1875 25.515625 
Q 47.21875 21.78125 47.21875 15.09375 
Q 47.21875 7.46875 41.1875 3.015625 
Q 35.15625 -1.421875 24.609375 -1.421875 
Q 20.21875 -1.421875 15.453125 -0.5625 
Q 10.6875 0.296875 5.421875 2 
L 5.421875 11.28125 
Q 10.40625 8.6875 15.234375 7.390625 
Q 20.0625 6.109375 24.8125 6.109375 
Q 31.15625 6.109375 34.5625 8.28125 
Q 37.984375 10.453125 37.984375 14.40625 
Q 37.984375 18.0625 35.515625 20.015625 
Q 33.0625 21.96875 24.703125 23.78125 
L 21.578125 24.515625 
Q 13.234375 26.265625 9.515625 29.90625 
Q 5.8125 33.546875 5.8125 39.890625 
Q 5.8125 47.609375 11.28125 51.796875 
Q 16.75 56 26.8125 56 
Q 31.78125 56 36.171875 55.265625 
Q 40.578125 54.546875 44.28125 53.078125 
z
" id="DejaVuSans-115"/>
      <path d="M 30.609375 48.390625 
Q 23.390625 48.390625 19.1875 42.75 
Q 14.984375 37.109375 14.984375 27.296875 
Q 14.984375 17.484375 19.15625 11.84375 
Q 23.34375 6.203125 30.609375 6.203125 
Q 37.796875 6.203125 41.984375 11.859375 
Q 46.1875 17.53125 46.1875 27.296875 
Q 46.1875 37.015625 41.984375 42.703125 
Q 37.796875 48.390625 30.609375 48.390625 
z
M 30.609375 56 
Q 42.328125 56 49.015625 48.375 
Q 55.71875 40.765625 55.71875 27.296875 
Q 55.71875 13.875 49.015625 6.21875 
Q 42.328125 -1.421875 30.609375 -1.421875 
Q 18.84375 -1.421875 12.171875 6.21875 
Q 5.515625 13.875 5.515625 27.296875 
Q 5.515625 40.765625 12.171875 48.375 
Q 18.84375 56 30.609375 56 
z
" id="DejaVuSans-111"/>
      <path d="M 45.40625 46.390625 
L 45.40625 75.984375 
L 54.390625 75.984375 
L 54.390625 0 
L 45.40625 0 
L 45.40625 8.203125 
Q 42.578125 3.328125 38.25 0.953125 
Q 33.9375 -1.421875 27.875 -1.421875 
Q 17.96875 -1.421875 11.734375 6.484375 
Q 5.515625 14.40625 5.515625 27.296875 
Q 5.515625 40.1875 11.734375 48.09375 
Q 17.96875 56 27.875 56 
Q 33.9375 56 38.25 53.625 
Q 42.578125 51.265625 45.40625 46.390625 
z
M 14.796875 27.296875 
Q 14.796875 17.390625 18.875 11.75 
Q 22.953125 6.109375 30.078125 6.109375 
Q 37.203125 6.109375 41.296875 11.75 
Q 45.40625 17.390625 45.40625 27.296875 
Q 45.40625 37.203125 41.296875 42.84375 
Q 37.203125 48.484375 30.078125 48.484375 
Q 22.953125 48.484375 18.875 42.84375 
Q 14.796875 37.203125 14.796875 27.296875 
z
" id="DejaVuSans-100"/>
      <path d="M 56.203125 29.59375 
L 56.203125 25.203125 
L 14.890625 25.203125 
Q 15.484375 15.921875 20.484375 11.0625 
Q 25.484375 6.203125 34.421875 6.203125 
Q 39.59375 6.203125 44.453125 7.46875 
Q 49.3125 8.734375 54.109375 11.28125 
L 54.109375 2.78125 
Q 49.265625 0.734375 44.1875 -0.34375 
Q 39.109375 -1.421875 33.890625 -1.421875 
Q 20.796875 -1.421875 13.15625 6.1875 
Q 5.515625 13.8125 5.515625 26.8125 
Q 5.515625 40.234375 12.765625 48.109375 
Q 20.015625 56 32.328125 56 
Q 43.359375 56 49.78125 48.890625 
Q 56.203125 41.796875 56.203125 29.59375 
z
M 47.21875 32.234375 
Q 47.125 39.59375 43.09375 43.984375 
Q 39.0625 48.390625 32.421875 48.390625 
Q 24.90625 48.390625 20.390625 44.140625 
Q 15.875 39.890625 15.1875 32.171875 
z
" id="DejaVuSans-101"/>
     </defs>
     <g transform="translate(216.5225 335.860562)scale(0.1 -0.1)">
      <use xlink:href="#DejaVuSans-69"/>
      <use x="63.183594" xlink:href="#DejaVuSans-112"/>
      <use x="126.660156" xlink:href="#DejaVuSans-105"/>
      <use x="154.443359" xlink:href="#DejaVuSans-115"/>
      <use x="206.542969" xlink:href="#DejaVuSans-111"/>
      <use x="267.724609" xlink:href="#DejaVuSans-100"/>
      <use x="331.201172" xlink:href="#DejaVuSans-101"/>
     </g>
    </g>
   </g>
   <g id="matplotlib.axis_2">
    <g id="ytick_1">
     <g id="line2d_8">
      <defs>
       <path d="M 0 0 
L -3.5 0 
" id="mda3747bc43" style="stroke:#000000;stroke-width:0.8;"/>
      </defs>
      <g>
       <use style="stroke:#000000;stroke-width:0.8;" x="57.6" xlink:href="#mda3747bc43" y="295.488041"/>
      </g>
     </g>
     <g id="text_9">
      <!-- 0.00 -->
      <defs>
       <path d="M 10.6875 12.40625 
L 21 12.40625 
L 21 0 
L 10.6875 0 
z
" id="DejaVuSans-46"/>
      </defs>
      <g transform="translate(28.334375 299.28726)scale(0.1 -0.1)">
       <use xlink:href="#DejaVuSans-48"/>
       <use x="63.623047" xlink:href="#DejaVuSans-46"/>
       <use x="95.410156" xlink:href="#DejaVuSans-48"/>
       <use x="159.033203" xlink:href="#DejaVuSans-48"/>
      </g>
     </g>
    </g>
    <g id="ytick_2">
     <g id="line2d_9">
      <g>
       <use style="stroke:#000000;stroke-width:0.8;" x="57.6" xlink:href="#mda3747bc43" y="248.947366"/>
      </g>
     </g>
     <g id="text_10">
      <!-- 0.05 -->
      <g transform="translate(28.334375 252.746585)scale(0.1 -0.1)">
       <use xlink:href="#DejaVuSans-48"/>
       <use x="63.623047" xlink:href="#DejaVuSans-46"/>
       <use x="95.410156" xlink:href="#DejaVuSans-48"/>
       <use x="159.033203" xlink:href="#DejaVuSans-53"/>
      </g>
     </g>
    </g>
    <g id="ytick_3">
     <g id="line2d_10">
      <g>
       <use style="stroke:#000000;stroke-width:0.8;" x="57.6" xlink:href="#mda3747bc43" y="202.406691"/>
      </g>
     </g>
     <g id="text_11">
      <!-- 0.10 -->
      <g transform="translate(28.334375 206.20591)scale(0.1 -0.1)">
       <use xlink:href="#DejaVuSans-48"/>
       <use x="63.623047" xlink:href="#DejaVuSans-46"/>
       <use x="95.410156" xlink:href="#DejaVuSans-49"/>
       <use x="159.033203" xlink:href="#DejaVuSans-48"/>
      </g>
     </g>
    </g>
    <g id="ytick_4">
     <g id="line2d_11">
      <g>
       <use style="stroke:#000000;stroke-width:0.8;" x="57.6" xlink:href="#mda3747bc43" y="155.866016"/>
      </g>
     </g>
     <g id="text_12">
      <!-- 0.15 -->
      <g transform="translate(28.334375 159.665235)scale(0.1 -0.1)">
       <use xlink:href="#DejaVuSans-48"/>
       <use x="63.623047" xlink:href="#DejaVuSans-46"/>
       <use x="95.410156" xlink:href="#DejaVuSans-49"/>
       <use x="159.033203" xlink:href="#DejaVuSans-53"/>
      </g>
     </g>
    </g>
    <g id="ytick_5">
     <g id="line2d_12">
      <g>
       <use style="stroke:#000000;stroke-width:0.8;" x="57.6" xlink:href="#mda3747bc43" y="109.325341"/>
      </g>
     </g>
     <g id="text_13">
      <!-- 0.20 -->
      <g transform="translate(28.334375 113.12456)scale(0.1 -0.1)">
       <use xlink:href="#DejaVuSans-48"/>
       <use x="63.623047" xlink:href="#DejaVuSans-46"/>
       <use x="95.410156" xlink:href="#DejaVuSans-50"/>
       <use x="159.033203" xlink:href="#DejaVuSans-48"/>
      </g>
     </g>
    </g>
    <g id="ytick_6">
     <g id="line2d_13">
      <g>
       <use style="stroke:#000000;stroke-width:0.8;" x="57.6" xlink:href="#mda3747bc43" y="62.784666"/>
      </g>
     </g>
     <g id="text_14">
      <!-- 0.25 -->
      <g transform="translate(28.334375 66.583885)scale(0.1 -0.1)">
       <use xlink:href="#DejaVuSans-48"/>
       <use x="63.623047" xlink:href="#DejaVuSans-46"/>
       <use x="95.410156" xlink:href="#DejaVuSans-50"/>
       <use x="159.033203" xlink:href="#DejaVuSans-53"/>
      </g>
     </g>
    </g>
    <g id="text_15">
     <!-- criticLoss -->
     <defs>
      <path d="M 48.78125 52.59375 
L 48.78125 44.1875 
Q 44.96875 46.296875 41.140625 47.34375 
Q 37.3125 48.390625 33.40625 48.390625 
Q 24.65625 48.390625 19.8125 42.84375 
Q 14.984375 37.3125 14.984375 27.296875 
Q 14.984375 17.28125 19.8125 11.734375 
Q 24.65625 6.203125 33.40625 6.203125 
Q 37.3125 6.203125 41.140625 7.25 
Q 44.96875 8.296875 48.78125 10.40625 
L 48.78125 2.09375 
Q 45.015625 0.34375 40.984375 -0.53125 
Q 36.96875 -1.421875 32.421875 -1.421875 
Q 20.0625 -1.421875 12.78125 6.34375 
Q 5.515625 14.109375 5.515625 27.296875 
Q 5.515625 40.671875 12.859375 48.328125 
Q 20.21875 56 33.015625 56 
Q 37.15625 56 41.109375 55.140625 
Q 45.0625 54.296875 48.78125 52.59375 
z
" id="DejaVuSans-99"/>
      <path d="M 41.109375 46.296875 
Q 39.59375 47.171875 37.8125 47.578125 
Q 36.03125 48 33.890625 48 
Q 26.265625 48 22.1875 43.046875 
Q 18.109375 38.09375 18.109375 28.8125 
L 18.109375 0 
L 9.078125 0 
L 9.078125 54.6875 
L 18.109375 54.6875 
L 18.109375 46.1875 
Q 20.953125 51.171875 25.484375 53.578125 
Q 30.03125 56 36.53125 56 
Q 37.453125 56 38.578125 55.875 
Q 39.703125 55.765625 41.0625 55.515625 
z
" id="DejaVuSans-114"/>
      <path d="M 18.3125 70.21875 
L 18.3125 54.6875 
L 36.8125 54.6875 
L 36.8125 47.703125 
L 18.3125 47.703125 
L 18.3125 18.015625 
Q 18.3125 11.328125 20.140625 9.421875 
Q 21.96875 7.515625 27.59375 7.515625 
L 36.8125 7.515625 
L 36.8125 0 
L 27.59375 0 
Q 17.1875 0 13.234375 3.875 
Q 9.28125 7.765625 9.28125 18.015625 
L 9.28125 47.703125 
L 2.6875 47.703125 
L 2.6875 54.6875 
L 9.28125 54.6875 
L 9.28125 70.21875 
z
" id="DejaVuSans-116"/>
      <path d="M 9.8125 72.90625 
L 19.671875 72.90625 
L 19.671875 8.296875 
L 55.171875 8.296875 
L 55.171875 0 
L 9.8125 0 
z
" id="DejaVuSans-76"/>
     </defs>
     <g transform="translate(22.254687 197.787375)rotate(-90)scale(0.1 -0.1)">
      <use xlink:href="#DejaVuSans-99"/>
      <use x="54.980469" xlink:href="#DejaVuSans-114"/>
      <use x="96.09375" xlink:href="#DejaVuSans-105"/>
      <use x="123.876953" xlink:href="#DejaVuSans-116"/>
      <use x="163.085938" xlink:href="#DejaVuSans-105"/>
      <use x="190.869141" xlink:href="#DejaVuSans-99"/>
      <use x="245.849609" xlink:href="#DejaVuSans-76"/>
      <use x="299.8125" xlink:href="#DejaVuSans-111"/>
      <use x="360.994141" xlink:href="#DejaVuSans-115"/>
      <use x="413.09375" xlink:href="#DejaVuSans-115"/>
     </g>
    </g>
   </g>
   <g id="line2d_14">
    <path clip-path="url(#pcf1b230cb3)" d="M 73.832727 149.974795 
L 73.843549 53.568 
L 73.919305 294.998656 
L 73.940949 144.820212 
L 74.005882 294.38709 
L 74.059993 293.102511 
L 74.168215 62.230219 
L 74.254792 294.148834 
L 74.287259 282.410913 
L 74.352192 224.225863 
L 74.308903 294.992272 
L 74.395481 287.284369 
L 74.438769 295.309066 
L 74.482058 162.065353 
L 74.49288 70.785026 
L 74.546991 294.663709 
L 74.568635 281.570266 
L 74.611924 261.42717 
L 74.633569 293.918894 
L 74.655213 158.951992 
L 74.698502 295.31413 
L 74.74179 294.174064 
L 74.752612 292.738818 
L 74.806723 80.496789 
L 74.785079 295.462446 
L 74.871656 245.017684 
L 74.958234 293.643052 
L 74.979878 292.519251 
L 75.033989 164.196287 
L 75.0881 295.465712 
L 75.098922 295.478799 
L 75.153033 90.002274 
L 75.207144 294.914903 
L 75.293721 169.214388 
L 75.315366 236.891507 
L 75.380299 295.453503 
L 75.43441 286.696416 
L 75.477698 97.550841 
L 75.488521 291.190409 
L 75.531809 278.075324 
L 75.542632 295.456336 
L 75.58592 278.611445 
L 75.596742 175.634252 
L 75.640031 295.408774 
L 75.694142 293.789292 
L 75.780719 183.931685 
L 75.791542 107.701318 
L 75.824008 295.343456 
L 75.867297 270.359653 
L 75.943052 295.486686 
L 75.93223 179.797837 
L 75.986341 295.339193 
L 76.116207 114.505137 
L 76.127029 198.057397 
L 76.148674 295.422981 
L 76.235251 276.444264 
L 76.246073 184.956505 
L 76.267718 295.461185 
L 76.343473 289.213419 
L 76.354295 291.076854 
L 76.440872 123.316516 
L 76.462517 295.23554 
L 76.473339 295.475715 
L 76.52745 188.781241 
L 76.592383 278.75031 
L 76.668138 295.479185 
L 76.689783 262.556395 
L 76.700605 293.108575 
L 76.754716 129.88525 
L 76.798004 295.315373 
L 76.808826 255.41193 
L 76.830471 295.456232 
L 76.906226 295.409099 
L 76.917048 194.042043 
L 77.003626 295.470344 
L 77.014448 292.711825 
L 77.090203 138.85884 
L 77.101025 295.478544 
L 77.12267 269.166991 
L 77.133492 295.358013 
L 77.155136 215.833454 
L 77.230891 282.103342 
L 77.241714 199.032146 
L 77.263358 295.374391 
L 77.339113 294.564697 
L 77.349935 295.443545 
L 77.414868 146.188327 
L 77.436513 295.484455 
L 77.458157 221.823502 
L 77.577201 295.304305 
L 77.588023 203.542077 
L 77.685423 295.401083 
L 77.761178 152.976972 
L 77.750356 295.463952 
L 77.793645 227.237105 
L 77.815289 295.363857 
L 77.912689 295.177452 
L 77.923511 207.856133 
L 78.010088 295.346553 
L 78.020911 275.415997 
L 78.042555 288.10976 
L 78.053377 295.486665 
L 78.064199 286.684116 
L 78.085844 159.821792 
L 78.096666 295.443753 
L 78.183243 231.428381 
L 78.194065 212.857249 
L 78.204888 295.21435 
L 78.258998 282.037428 
L 78.291465 295.365831 
L 78.323932 274.572357 
L 78.36722 289.193169 
L 78.442975 165.633684 
L 78.432153 295.483107 
L 78.475442 295.226602 
L 78.540375 218.208844 
L 78.583664 295.277795 
L 78.594486 294.997913 
L 78.61613 295.431672 
L 78.702708 224.706986 
L 78.735174 295.463462 
L 78.745997 172.466756 
L 78.821752 295.439198 
L 78.832574 295.210586 
L 78.854218 221.768465 
L 78.940796 295.443622 
L 78.951618 295.222183 
L 78.973262 279.0615 
L 79.027373 295.44174 
L 79.038195 290.339401 
L 79.081484 178.370316 
L 79.05984 295.436151 
L 79.146417 292.370197 
L 79.157239 295.066613 
L 79.168061 225.061466 
L 79.189706 295.284832 
L 79.265461 295.038003 
L 79.362861 295.454334 
L 79.384505 231.991824 
L 79.406149 295.423616 
L 79.416972 184.734249 
L 79.492727 290.300844 
L 79.55766 229.137329 
L 79.579304 295.204211 
L 79.600949 282.17502 
L 79.676704 295.418134 
L 79.687526 292.337976 
L 79.698348 190.585269 
L 79.795748 295.46615 
L 79.80657 293.949531 
L 79.817392 294.398369 
L 79.882325 232.007851 
L 79.914792 295.286684 
L 79.925614 293.557682 
L 80.012191 197.798024 
L 80.001369 295.427025 
L 80.033836 294.334496 
L 80.044658 295.484255 
L 80.066302 292.951947 
L 80.077125 237.774876 
L 80.142058 295.481497 
L 80.174524 257.331715 
L 80.271924 295.394328 
L 80.196168 236.122307 
L 80.293568 287.448373 
L 80.358501 295.485618 
L 80.369323 293.534184 
L 80.380146 204.343365 
L 80.466723 295.481764 
L 80.477545 295.352408 
L 80.488367 294.336553 
L 80.499189 239.162878 
L 80.564123 295.386597 
L 80.596589 288.698322 
L 80.607411 287.644162 
L 80.629056 295.371721 
L 80.639878 294.899471 
L 80.6507 295.461781 
L 80.661522 294.780043 
L 80.683167 208.693283 
L 80.693989 295.484283 
L 80.769744 294.995418 
L 80.780566 295.027434 
L 80.823855 243.207432 
L 80.80221 295.39999 
L 80.888788 293.694753 
L 80.942899 295.394932 
L 80.932077 288.924639 
L 80.953721 295.101589 
L 80.964543 289.823548 
L 80.975365 213.948522 
L 81.072765 295.47982 
L 81.094409 294.26454 
L 81.105232 290.742008 
L 81.116054 247.060567 
L 81.180987 295.462636 
L 81.213453 289.230197 
L 81.278386 295.444018 
L 81.300031 288.515815 
L 81.332497 295.417218 
L 81.343319 295.485163 
L 81.375786 218.810035 
L 81.451541 249.927808 
L 81.462363 295.476194 
L 81.570585 294.837091 
L 81.64634 295.476375 
L 81.678807 224.428638 
L 81.700451 295.487532 
L 81.797851 295.483425 
L 81.808673 295.477864 
L 81.819495 272.757684 
L 81.916895 295.433966 
L 81.99265 256.695749 
L 81.949361 295.480631 
L 82.003472 295.465557 
L 82.014295 228.84412 
L 82.09005 295.48307 
L 82.111694 295.427231 
L 82.122516 255.780198 
L 82.144161 295.482856 
L 82.219916 291.891531 
L 82.274027 295.486256 
L 82.252382 291.766467 
L 82.306493 294.813979 
L 82.317316 233.151574 
L 82.349782 295.477543 
L 82.414715 295.117153 
L 82.43636 295.467147 
L 82.447182 258.943769 
L 82.544581 295.045141 
L 82.620337 261.76845 
L 82.598692 295.480074 
L 82.631159 293.313427 
L 82.641981 237.494844 
L 82.652803 295.478919 
L 82.739381 295.423345 
L 82.761025 295.439047 
L 82.771847 261.15745 
L 82.793491 295.449552 
L 82.869247 294.931385 
L 82.901713 293.099257 
L 82.923358 295.480656 
L 82.93418 241.846609 
L 83.031579 295.418242 
L 83.042402 295.464777 
L 83.053224 295.047144 
L 83.064046 295.41548 
L 83.074868 263.382882 
L 83.118157 295.465039 
L 83.172268 295.007894 
L 83.204734 293.54223 
L 83.237201 294.303443 
L 83.248023 295.474541 
L 83.269667 245.73167 
L 83.345423 295.486499 
L 83.356245 295.124752 
L 83.377889 295.465364 
L 83.388711 295.445804 
L 83.399533 266.437168 
L 83.421178 295.471135 
L 83.496933 283.687446 
L 83.58351 295.449155 
L 83.572688 249.68938 
L 83.594333 295.293713 
L 83.605155 268.24194 
L 83.68091 295.486017 
L 83.702554 295.449465 
L 83.713377 295.433864 
L 83.724199 268.691364 
L 83.767488 295.453983 
L 83.821598 285.583487 
L 83.843243 295.124195 
L 83.886531 294.819775 
L 83.897354 253.008408 
L 83.994753 295.485278 
L 84.016398 295.063903 
L 84.02722 270.741245 
L 84.048864 295.465792 
L 84.124619 295.34111 
L 84.167908 294.712699 
L 84.211197 295.018456 
L 84.254486 256.203884 
L 84.297774 295.477176 
L 84.319419 295.200655 
L 84.330241 295.386786 
L 84.341063 295.293122 
L 84.351885 273.481463 
L 84.405996 295.484687 
L 84.449285 295.261673 
L 84.460107 295.484031 
L 84.52504 294.988819 
L 84.535862 295.058952 
L 84.579151 260.017829 
L 84.633262 295.455853 
L 84.644084 294.83878 
L 84.654906 295.412284 
L 84.676551 295.093881 
L 84.687373 274.877391 
L 84.741484 295.4849 
L 84.784772 289.482509 
L 84.806417 295.486768 
L 84.860528 295.202544 
L 84.936283 263.740883 
L 84.882172 295.449684 
L 84.968749 295.423092 
L 85.001216 295.031018 
L 84.990394 295.481098 
L 85.012038 295.44932 
L 85.02286 276.548911 
L 85.087793 295.487258 
L 85.12026 294.563089 
L 85.174371 294.140461 
L 85.196015 295.456307 
L 85.228482 265.730397 
L 85.260948 295.479523 
L 85.304237 295.378188 
L 85.325881 295.479564 
L 85.336703 295.260302 
L 85.347526 278.861352 
L 85.401637 295.483966 
L 85.444925 295.149893 
L 85.455747 295.485667 
L 85.499036 294.80432 
L 85.531503 295.263303 
L 85.585614 268.361565 
L 85.563969 295.480254 
L 85.639724 295.448611 
L 85.650547 295.484789 
L 85.661369 295.30474 
L 85.672191 280.479238 
L 85.758768 295.482619 
L 85.769591 295.135608 
L 85.802057 295.476137 
L 85.888635 270.937874 
L 85.986034 295.483143 
L 86.007679 295.475402 
L 86.105078 292.936734 
L 86.061789 295.478492 
L 86.1159 295.191141 
L 86.180833 295.464826 
L 86.148367 294.592199 
L 86.191656 295.461757 
L 86.202478 273.979387 
L 86.245766 295.475021 
L 86.299877 294.955032 
L 86.3107 283.214833 
L 86.332344 295.481566 
L 86.408099 295.476156 
L 86.46221 293.727225 
L 86.527143 294.717382 
L 86.537965 295.474818 
L 86.548788 294.871314 
L 86.55961 275.996231 
L 86.657009 295.485753 
L 86.743587 293.96526 
L 86.776053 295.359966 
L 86.797698 294.87017 
L 86.840986 295.477796 
L 86.873453 294.418192 
L 86.884275 295.485892 
L 86.895097 277.538001 
L 86.992497 295.32071 
L 87.046608 294.186141 
L 87.035786 295.481657 
L 87.100719 294.685955 
L 87.165652 295.483766 
L 87.187296 294.310967 
L 87.20894 294.895929 
L 87.241407 280.27903 
L 87.30634 295.481299 
L 87.317162 295.269204 
L 87.327984 295.313849 
L 87.338807 294.653848 
L 87.425384 295.484122 
L 87.447028 294.702694 
L 87.457851 294.637629 
L 87.501139 295.485938 
L 87.544428 295.111661 
L 87.609361 281.653081 
L 87.620183 295.486048 
L 87.65265 295.466382 
L 87.685116 294.857795 
L 87.695938 295.487243 
L 87.782516 295.27371 
L 87.793338 295.486698 
L 87.858271 294.745711 
L 87.879916 295.257949 
L 87.890738 295.168215 
L 87.923204 283.291387 
L 87.977315 295.479161 
L 87.998959 295.381696 
L 88.009782 295.458355 
L 88.020604 295.071618 
L 88.05307 295.393355 
L 88.085537 295.487681 
L 88.161292 294.665156 
L 88.182937 295.458678 
L 88.204581 295.42195 
L 88.237047 285.16825 
L 88.280336 295.487034 
L 88.312803 295.369292 
L 88.323625 295.478905 
L 88.356091 294.93925 
L 88.388558 295.242117 
L 88.431847 294.684479 
L 88.442669 295.48338 
L 88.485958 295.381412 
L 88.507602 295.40437 
L 88.529246 294.887091 
L 88.540068 286.261924 
L 88.583357 295.485614 
L 88.637468 295.314713 
L 88.734868 295.487566 
L 88.724045 295.034478 
L 88.756512 295.485588 
L 88.843089 294.795701 
L 88.875556 295.047308 
L 88.886378 287.852108 
L 88.918845 295.485806 
L 88.983778 295.372989 
L 88.9946 291.821753 
L 89.048711 295.479579 
L 89.092 294.70922 
L 89.113644 295.477898 
L 89.200221 295.401771 
L 89.211044 288.708866 
L 89.275977 295.482689 
L 89.308443 295.473952 
L 89.330087 295.393035 
L 89.34091 294.986438 
L 89.362554 295.486367 
L 89.438309 295.410767 
L 89.449131 295.470927 
L 89.470776 295.063964 
L 89.481598 295.28582 
L 89.49242 289.802085 
L 89.557353 295.486664 
L 89.58982 295.271555 
L 89.600642 292.007989 
L 89.611464 295.480768 
L 89.698042 295.337151 
L 89.708864 295.486867 
L 89.74133 295.187123 
L 89.784619 295.349775 
L 89.795441 290.852354 
L 89.817086 295.477076 
L 89.892841 295.410054 
L 89.903663 295.345988 
L 89.925307 295.486426 
L 89.93613 292.283069 
L 90.033529 295.475174 
L 90.065996 294.457687 
L 90.109284 295.39168 
L 90.120107 291.665715 
L 90.217506 295.486954 
L 90.228328 295.36849 
L 90.239151 295.429419 
L 90.249973 292.740234 
L 90.314906 295.477369 
L 90.347372 295.153187 
L 90.401483 295.481425 
L 90.390661 294.657957 
L 90.444772 295.471482 
L 90.455594 292.269049 
L 90.552994 295.486348 
L 90.563816 293.438108 
L 90.661215 295.026442 
L 90.672038 294.253371 
L 90.68286 295.487604 
L 90.758615 295.236213 
L 90.769437 295.409831 
L 90.780259 292.85051 
L 90.866837 295.485796 
L 90.877659 295.424136 
L 90.888481 295.479766 
L 90.899303 293.826128 
L 90.910126 295.487373 
L 90.996703 295.080249 
L 91.018347 295.48778 
L 91.115747 295.482656 
L 91.126569 293.366107 
L 91.213147 295.484898 
L 91.223969 294.091342 
L 91.343013 295.487428 
L 91.451235 293.762033 
L 91.548634 295.471916 
L 91.570279 295.228195 
L 91.667678 295.487788 
L 91.635212 294.957626 
L 91.6785 295.38427 
L 91.786722 294.367413 
L 91.721789 295.483997 
L 91.797544 295.234331 
L 91.862477 295.484883 
L 91.851655 294.59159 
L 91.905766 295.44181 
L 91.992344 295.487352 
L 92.02481 294.96746 
L 92.057277 295.486814 
L 92.089743 294.486554 
L 92.143854 295.388343 
L 92.197965 295.486756 
L 92.176321 294.873908 
L 92.219609 295.477228 
L 92.230431 295.200615 
L 92.306187 295.487877 
L 92.327831 295.295671 
L 92.37112 295.485238 
L 92.349475 295.28055 
L 92.392764 295.482777 
L 92.500986 294.56301 
L 92.609208 295.485122 
L 92.62003 295.279776 
L 92.641674 295.47615 
L 92.652496 295.46754 
L 92.663319 294.784959 
L 92.684963 295.486646 
L 92.760718 295.289825 
L 92.814829 295.487113 
L 92.825651 295.171372 
L 92.86894 295.45994 
L 92.912229 295.078365 
L 92.890584 295.484551 
L 92.96634 295.419489 
L 93.009628 295.487432 
L 92.987984 295.269621 
L 93.063739 295.401385 
L 93.128672 295.152139 
L 93.161139 295.487031 
L 93.193605 295.038716 
L 93.280183 295.34691 
L 93.377582 295.484906 
L 93.323472 295.198207 
L 93.388405 295.39709 
L 93.442515 295.487455 
L 93.410049 295.202472 
L 93.46416 295.368599 
L 93.485804 294.913396 
L 93.518271 295.485308 
L 93.572382 295.373945 
L 93.594026 295.26974 
L 93.648137 295.475324 
L 93.745536 295.046018 
L 93.680603 295.479113 
L 93.756359 295.452455 
L 93.81047 294.557836 
L 93.86458 295.057003 
L 93.972802 295.484567 
L 93.983624 294.695366 
L 94.081024 295.477315 
L 94.113491 295.093521 
L 94.21089 295.380907 
L 94.30829 295.287294 
L 94.329934 295.483703 
L 94.351579 295.352443 
L 94.427334 294.546242 
L 94.438156 295.486947 
L 94.4598 295.404082 
L 94.524733 295.484869 
L 94.568022 295.181476 
L 94.665422 295.480872 
L 94.643777 295.009487 
L 94.687066 295.399792 
L 94.762821 294.956246 
L 94.741177 295.485513 
L 94.795288 295.402883 
L 94.892687 295.484719 
L 94.871043 295.345826 
L 94.90351 295.456562 
L 94.979265 295.218603 
L 94.935976 295.481993 
L 95.011731 295.484753 
L 95.033376 295.383022 
L 95.076664 295.240996 
L 95.087487 295.483324 
L 95.130775 295.44838 
L 95.195708 295.483441 
L 95.206531 295.362614 
L 95.238997 295.465939 
L 95.293108 294.898923 
L 95.260642 295.482715 
L 95.347219 295.481857 
L 95.379686 295.102225 
L 95.390508 295.430546 
L 95.40133 294.915203 
L 95.466263 295.483662 
L 95.498729 295.316282 
L 95.596129 295.482958 
L 95.520374 295.270944 
L 95.617773 295.467963 
L 95.628596 295.062856 
L 95.671884 295.484042 
L 95.725995 295.459761 
L 95.736817 295.283646 
L 95.758462 295.485001 
L 95.834217 295.485629 
L 95.845039 295.37674 
L 95.942439 295.478841 
L 96.061483 295.144809 
L 96.072305 295.447549 
L 96.115594 295.291017 
L 96.126416 295.484496 
L 96.137238 295.273569 
L 96.234638 295.397906 
L 96.299571 295.303276 
L 96.353682 295.485305 
L 96.451081 295.27517 
L 96.472726 295.334138 
L 96.59177 295.486439 
L 96.602592 295.476852 
L 96.764924 295.486294 
L 96.775747 295.246039 
L 96.873146 295.459305 
L 96.970546 295.472209 
L 96.938079 295.352363 
L 96.981368 295.444276 
L 97.08959 294.934249 
L 97.035479 295.471177 
L 97.100412 295.249392 
L 97.186989 295.487467 
L 97.165345 295.152199 
L 97.219456 295.445061 
L 97.262745 295.312654 
L 97.327678 295.484282 
L 97.446722 295.16407 
L 97.576588 295.486602 
L 97.695632 295.21508 
L 97.728098 295.308375 
L 97.825498 295.487129 
L 97.847142 295.484876 
L 97.944542 295.188083 
L 97.955364 295.367467 
L 98.041942 295.485003 
L 97.998653 295.23843 
L 98.063586 295.465457 
L 98.106875 294.970627 
L 98.171808 295.485183 
L 98.280029 295.218245 
L 98.301674 295.256129 
L 98.312496 295.486793 
L 98.409896 295.473681 
L 98.43154 295.137002 
L 98.442362 295.486474 
L 98.518117 295.458339 
L 98.561406 295.468367 
L 98.572228 295.397909 
L 98.626339 295.237714 
L 98.658806 295.487356 
L 98.68045 295.33682 
L 98.767028 295.486532 
L 98.756205 295.018199 
L 98.788672 295.475821 
L 98.799494 295.340846 
L 98.831961 295.485563 
L 98.896894 295.478141 
L 98.940182 295.163453 
L 99.015938 295.331364 
L 99.113337 295.486143 
L 99.091693 295.128787 
L 99.124159 295.473975 
L 99.134982 295.399394 
L 99.167448 295.486654 
L 99.232381 295.483427 
L 99.286492 295.240091 
L 99.351425 295.328835 
L 99.416358 295.486924 
L 99.42718 295.102485 
L 99.470469 295.427081 
L 99.567869 295.479622 
L 99.578691 295.473155 
L 99.589513 295.286145 
L 99.632802 295.481502 
L 99.686913 295.477162 
L 99.762668 295.27199 
L 99.860068 295.439916 
L 99.946645 295.487047 
L 99.903356 295.310819 
L 99.957467 295.451951 
L 100.033222 295.317306 
L 100.0224 295.487147 
L 100.065689 295.452479 
L 100.087333 295.224319 
L 100.163089 295.483994 
L 100.27131 295.203135 
L 100.36871 295.486576 
L 100.390354 295.484309 
L 100.401177 295.15308 
L 100.498576 295.472329 
L 100.531043 295.475706 
L 100.541865 295.448899 
L 100.606798 295.167177 
L 100.585154 295.486574 
L 100.650087 295.317467 
L 100.736664 295.48541 
L 100.71502 295.277632 
L 100.769131 295.466487 
L 100.877352 295.479103 
L 100.974752 295.334924 
L 100.898997 295.486841 
L 100.985574 295.487112 
L 101.007219 295.476472 
L 101.050507 295.485025 
L 101.126263 295.151643 
L 101.234484 295.486934 
L 101.245306 295.485106 
L 101.288595 295.271942 
L 101.36435 295.362883 
L 101.46175 295.481797 
L 101.385995 295.003999 
L 101.483394 295.453585 
L 101.526683 295.322935 
L 101.55915 295.479772 
L 101.624083 295.107748 
L 101.580794 295.483609 
L 101.667371 295.411857 
L 101.689016 295.227696 
L 101.786415 295.486242 
L 101.927104 295.358064 
L 102.035326 295.487757 
L 101.992037 295.302472 
L 102.046148 295.471315 
L 102.067792 295.42307 
L 102.111081 295.463188 
L 102.197658 294.943917 
L 102.219303 295.267878 
L 102.316702 295.474672 
L 102.327524 295.396977 
L 102.381635 295.209762 
L 102.370813 295.484005 
L 102.414102 295.478727 
L 102.55479 295.485024 
L 102.565612 295.452724 
L 102.641368 295.165532 
L 102.630545 295.485859 
L 102.673834 295.485296 
L 102.792878 295.298008 
L 102.836167 295.443282 
L 102.846989 295.197999 
L 102.944389 295.486484 
L 102.976855 295.316445 
L 103.05261 295.48099 
L 103.160832 295.486917 
L 103.236587 295.19163 
L 103.269054 295.329813 
L 103.355631 295.486832 
L 103.30152 295.230331 
L 103.388098 295.481561 
L 103.49632 295.457229 
L 103.550431 295.482426 
L 103.615364 295.358138 
L 103.723585 295.482623 
L 103.810163 295.15044 
L 103.842629 295.332579 
L 103.950851 295.485943 
L 103.961673 295.300801 
L 104.059073 295.466856 
L 104.210584 295.479374 
L 104.297161 295.195161 
L 104.318805 295.465358 
L 104.437849 295.480641 
L 104.535249 295.423349 
L 104.556893 295.480648 
L 104.578538 295.432645 
L 104.708404 295.486915 
L 104.730048 295.330929 
L 104.816626 295.485665 
L 105.098002 295.456979 
L 105.206224 295.400243 
L 105.119647 295.486208 
L 105.217046 295.405506 
L 105.271157 295.340135 
L 105.422668 295.483504 
L 105.541712 295.412285 
L 105.639111 295.483978 
L 105.617467 295.331371 
L 105.660755 295.467158 
L 105.758155 295.48692 
L 105.877199 295.407355 
L 105.996243 295.482624 
L 106.08282 295.481566 
L 106.18022 295.375362 
L 106.191042 295.381654 
L 106.266797 295.487436 
L 106.310086 295.463826 
L 106.42913 295.481143 
L 106.558996 295.381001 
L 106.667218 295.486426 
L 106.613107 295.373596 
L 106.67804 295.463622 
L 106.797084 295.47952 
L 106.883662 295.416369 
L 106.905306 295.486438 
L 107.143394 295.449322 
L 107.165038 295.433223 
L 107.262438 295.48519 
L 108.030813 295.468601 
L 108.095746 295.260558 
L 108.128212 295.486014 
L 108.149857 295.319296 
L 108.258078 295.483433 
L 108.268901 295.481243 
L 108.344656 295.409303 
L 108.387945 295.469156 
L 108.409589 295.477051 
L 108.420411 295.412445 
L 108.431233 295.220431 
L 108.474522 295.486127 
L 108.517811 295.459886 
L 108.571922 295.486287 
L 108.582744 295.381368 
L 108.593566 295.245601 
L 108.604388 295.487265 
L 108.680143 295.476687 
L 108.939876 295.312741 
L 108.950698 295.471514 
L 109.080564 295.459652 
L 109.177964 295.371766 
L 109.102208 295.481014 
L 109.188786 295.480928 
L 109.394407 295.40599 
L 109.405229 295.33591 
L 109.45934 295.48673 
L 109.491807 295.484602 
L 109.524273 295.432479 
L 109.610851 295.48337 
L 109.729895 295.43477 
L 109.762361 295.469798 
L 109.827294 295.371099 
L 109.90305 295.485798 
L 110.595669 295.480805 
L 110.606491 295.157998 
L 110.64978 295.486213 
L 110.703891 295.3731 
L 110.812113 295.486097 
L 110.877046 295.181847 
L 110.920334 295.481706 
L 111.028556 295.443228 
L 111.093489 295.262578 
L 111.1476 295.4843 
L 111.99173 295.483508 
L 112.327218 295.486954 
L 112.446262 295.434605 
L 112.554483 295.486441 
L 112.522017 295.401589 
L 112.565306 295.482219 
L 112.749283 295.384863 
L 112.760105 295.411138 
L 112.879149 295.485701 
L 112.987371 295.431422 
L 113.063126 295.236045 
L 113.052304 295.487476 
L 113.08477 295.375297 
L 113.149703 295.247847 
L 113.203814 295.484694 
L 113.409436 295.48705 
L 113.420258 295.358496 
L 113.517657 295.483259 
L 113.799034 295.472319 
L 113.809856 295.388653 
L 113.820678 295.487817 
L 113.907256 295.484015 
L 113.972189 295.460729 
L 113.983011 295.059927 
L 114.069589 295.484954 
L 114.080411 295.464481 
L 114.145344 295.062288 
L 114.112877 295.484829 
L 114.188632 295.483513 
L 114.296854 295.473409 
L 114.318499 295.487084 
L 114.329321 295.433382 
L 114.340143 295.468174 
L 114.350965 295.332655 
L 114.394254 295.487041 
L 114.448365 295.428601 
L 114.545764 295.483129 
L 114.567409 295.47243 
L 114.632342 295.394269 
L 114.589053 295.479805 
L 114.675631 295.449956 
L 115.02194 295.352192 
L 115.032762 295.063063 
L 115.097695 295.486067 
L 115.130162 295.30743 
L 115.140984 295.26926 
L 115.151806 295.486909 
L 115.195095 295.484964 
L 115.314139 295.482036 
L 115.324961 295.306585 
L 115.422361 295.482333 
L 115.61716 295.483873 
L 115.660449 295.427091 
L 115.725382 295.480174 
L 115.898537 295.480897 
L 116.006759 295.39815 
L 116.093336 295.487071 
L 116.11498 295.458171 
L 116.125802 294.717365 
L 116.147447 295.481364 
L 116.223202 295.340501 
L 116.353068 295.479664 
L 116.36389 295.441681 
L 116.385535 295.26334 
L 116.418001 295.4833 
L 116.472112 295.440601 
L 116.591156 295.486569 
L 116.666911 295.253928 
L 116.721022 295.460369 
L 116.829244 295.485425 
L 116.840066 295.476272 
L 116.883355 295.476107 
L 116.894177 295.366522 
L 116.926644 295.486313 
L 116.991577 295.482522 
L 117.521864 295.430251 
L 117.532686 295.154325 
L 117.55433 295.485071 
L 117.630085 295.486131 
L 118.214483 295.444255 
L 118.30106 295.48771 
L 118.333527 295.473811 
L 118.463393 295.474294 
L 118.582437 295.387798 
L 118.690659 295.364285 
L 118.701481 295.484426 
L 118.820525 295.093034 
L 118.917925 295.486129 
L 118.939569 295.467799 
L 118.972036 295.367988 
L 119.069435 295.481659 
L 119.112724 295.470016 
L 119.123546 295.326325 
L 119.210123 295.486827 
L 119.220946 295.477128 
L 119.383278 295.477994 
L 119.556433 295.485734 
L 119.675477 295.385206 
L 119.697122 295.486365 
L 119.783699 295.430354 
L 119.902743 295.48738 
L 119.924387 295.457107 
L 119.935209 295.403097 
L 119.956854 295.485846 
L 120.032609 295.466352 
L 120.075898 295.391284 
L 120.140831 295.485674 
L 120.18412 295.214778 
L 120.249053 295.468261 
L 120.313986 295.341339 
L 120.303164 295.487289 
L 120.357274 295.469355 
L 120.378919 295.359491 
L 120.454674 295.481117 
L 120.497963 295.062524 
L 120.476318 295.485928 
L 120.562896 295.486568 
L 120.606185 295.278459 
L 120.68194 295.408669 
L 120.779339 295.484056 
L 120.714406 295.4005 
L 120.800984 295.478466 
L 120.887561 295.337979 
L 120.822628 295.485597 
L 120.909206 295.468026 
L 121.125649 295.483008 
L 121.27716 295.427322 
L 121.287982 295.458177 
L 121.461137 295.483631 
L 121.580181 295.461784 
L 121.666758 295.404269 
L 121.710047 295.482982 
L 122.045534 295.473502 
L 122.078001 295.327184 
L 122.110467 295.486414 
L 122.153756 295.487027 
L 122.218689 295.417555 
L 122.229511 295.065981 
L 122.261978 295.484863 
L 122.326911 295.249828 
L 122.359378 295.485639 
L 122.445955 295.442528 
L 122.543355 295.482306 
L 122.467599 295.297803 
L 122.554177 295.478501 
L 122.575821 295.307951 
L 122.586643 295.387707 
L 122.597465 295.072854 
L 122.608288 295.485547 
L 122.694865 295.449149 
L 122.792265 295.486889 
L 122.803087 295.465458 
L 122.889664 295.381439 
L 122.824731 295.480336 
L 122.911309 295.449376 
L 122.932953 295.262756 
L 123.041175 295.48719 
L 123.203508 295.383687 
L 123.322551 295.486448 
L 123.722972 295.487855 
L 123.733794 295.29057 
L 123.831194 295.466556 
L 123.906949 295.475411 
L 123.852838 295.439826 
L 123.917771 295.468567 
L 123.928593 295.252038 
L 123.993527 295.487084 
L 124.025993 295.476415 
L 124.145037 295.30808 
L 124.188326 295.375791 
L 124.296548 295.482706 
L 124.30737 295.46119 
L 124.45888 295.473851 
L 124.534636 295.482836 
L 124.502169 295.36208 
L 124.55628 295.460336 
L 124.567102 295.299326 
L 124.621213 295.486729 
L 124.664502 295.469935 
L 124.772723 295.487471 
L 124.783546 295.475737 
L 124.90259 295.442873 
L 125.021634 295.485906 
L 125.40041 295.406239 
L 125.411232 295.486254 
L 125.486987 295.480319 
L 125.519454 295.486704 
L 125.595209 295.08866 
L 125.714253 295.487004 
L 125.768364 295.447757 
L 125.779186 295.283199 
L 125.844119 295.485933 
L 125.876586 295.40358 
L 125.941519 295.319892 
L 125.973985 295.484252 
L 126.060563 295.140858 
L 126.082207 295.479718 
L 126.320295 295.475031 
L 126.331117 295.155782 
L 126.352762 295.486033 
L 126.428517 295.485717 
L 126.558383 295.467914 
L 126.601672 295.376931 
L 126.580027 295.48746 
L 126.666605 295.455821 
L 126.958804 295.460255 
L 127.08867 295.47648 
L 127.575668 295.480329 
L 127.694712 295.460077 
L 127.759645 295.48216 
L 127.770467 295.418507 
L 127.781289 295.431891 
L 127.792111 295.394017 
L 127.813756 295.481264 
L 127.878689 295.465755 
L 127.943622 295.399585 
L 128.008555 295.48575 
L 128.192532 295.479248 
L 128.376509 295.473546 
L 128.52802 295.465093 
L 128.647064 295.48646 
L 128.690352 295.402394 
L 128.766107 295.444806 
L 128.885151 295.48496 
L 128.895974 295.302444 
L 128.993373 295.48735 
L 129.112417 295.45296 
L 129.144884 295.485792 
L 129.599415 295.484557 
L 129.761748 295.44751 
L 129.77257 295.413334 
L 129.783392 295.485302 
L 129.859148 295.481955 
L 129.999836 295.476289 
L 130.043125 295.309446 
L 130.032302 295.480271 
L 130.108058 295.486732 
L 130.248746 295.426245 
L 130.36779 295.485215 
L 130.627522 295.404765 
L 130.638344 295.462375 
L 130.7141 295.482149 
L 130.659989 295.450349 
L 130.724922 295.462061 
L 130.789855 295.486181 
L 130.833144 295.384493 
L 130.941365 295.481985 
L 130.952188 295.328657 
L 130.995476 295.487239 
L 131.049587 295.422177 
L 131.157809 295.487128 
L 131.168631 295.477889 
L 131.30932 295.408721 
L 131.428363 295.48572 
L 131.623163 295.486791 
L 131.633985 295.370718 
L 131.731385 295.396084 
L 131.850428 295.482244 
L 131.980295 295.384675 
L 132.099339 295.482857 
L 132.272493 295.33069 
L 132.283316 295.438456 
L 132.413182 295.479186 
L 132.434826 295.480082 
L 132.445648 295.418999 
L 132.45647 295.317931 
L 132.467293 295.481929 
L 132.543048 295.468541 
L 132.662092 295.48676 
L 132.672914 295.478825 
L 132.856891 295.472043 
L 133.030046 295.347516 
L 133.05169 295.47449 
L 133.333067 295.48037 
L 133.506222 295.473507 
L 133.614444 295.477841 
L 133.538688 295.39211 
L 133.625266 295.449891 
L 133.679377 295.348265 
L 133.64691 295.487661 
L 133.74431 295.38853 
L 133.787598 295.201724 
L 133.863354 295.482697 
L 133.971576 295.484283 
L 133.982398 295.25298 
L 134.079797 295.481754 
L 134.14473 295.486733 
L 134.155553 295.111168 
L 134.252952 295.408553 
L 134.361174 295.486043 
L 134.371996 295.479482 
L 134.436929 295.452497 
L 134.49104 295.48549 
L 134.653373 295.442644 
L 134.718306 295.486186 
L 134.675017 295.353831 
L 134.761595 295.41762 
L 134.826528 294.995917 
L 134.783239 295.487106 
L 134.858994 295.484674 
L 134.902283 295.406861 
L 134.913105 295.465701 
L 134.923927 295.089651 
L 134.978038 295.486967 
L 135.021327 295.479713 
L 135.053793 295.486684 
L 135.064616 295.36792 
L 135.162015 295.486647 
L 135.313526 295.484165 
L 135.324348 295.366907 
L 135.421748 295.486958 
L 135.551614 295.407434 
L 135.68148 295.484647 
L 136.168478 295.487219 
L 136.265877 295.459683 
L 136.2767 295.486214 
L 136.439032 295.472574 
L 136.503965 295.423056 
L 136.568898 295.483703 
L 136.709587 295.484396 
L 137.034252 295.481578 
L 137.142474 295.331815 
L 137.164118 295.480029 
L 137.36974 295.482493 
L 137.488784 295.448856 
L 137.52125 295.412804 
L 137.607828 295.486338 
L 137.705227 295.459053 
L 137.726872 295.485144 
L 138.127292 295.483366 
L 138.192225 295.430277 
L 138.246336 295.450884 
L 138.332914 295.487017 
L 138.322091 295.400791 
L 138.36538 295.469863 
L 138.419491 295.341646 
L 138.441135 295.486174 
L 138.451958 294.683721 
L 138.549357 295.487464 
L 138.8632 295.383418 
L 138.874023 294.869614 
L 138.949778 295.485859 
L 138.971422 295.482166 
L 139.220332 295.482111 
L 139.296088 295.387089 
L 139.328554 295.448081 
L 139.447598 295.484763 
L 139.609931 295.467674 
L 139.674864 295.485896 
L 139.685686 295.086585 
L 139.783086 295.472134 
L 139.923774 295.484244 
L 140.031996 295.484211 
L 140.042818 295.37449 
L 140.05364 295.486673 
L 140.140218 295.476768 
L 140.280906 295.486576 
L 140.291728 295.448805 
L 140.367483 295.424574 
L 140.313372 295.485489 
L 140.39995 295.467928 
L 140.573105 295.48577 
L 140.681326 295.449341 
L 140.692149 295.481644 
L 140.702971 295.150509 
L 140.778726 295.486757 
L 140.80037 295.481573 
L 140.962703 295.456898 
L 141.081747 295.484861 
L 141.622856 295.486303 
L 142.661785 295.464655 
L 142.672607 295.218484 
L 142.726718 295.487116 
L 142.770007 295.487123 
L 142.83494 295.288769 
L 142.878229 295.470452 
L 142.986451 295.482079 
L 143.105495 295.347249 
L 143.202894 295.487109 
L 143.224539 295.480323 
L 143.311116 295.421436 
L 143.321938 295.35645 
L 143.354405 295.483795 
L 143.408516 295.459126 
L 143.43016 295.447898 
L 143.52756 295.485632 
L 143.646603 295.446642 
L 143.733181 295.395846 
L 143.765647 295.482104 
L 143.982091 295.421071 
L 144.101135 295.478823 
L 144.27429 295.486998 
L 144.393334 295.440075 
L 144.512378 295.485874 
L 144.67471 295.486964 
L 144.685533 295.377005 
L 144.782932 295.48703 
L 144.804577 295.48611 
L 144.837043 295.320354 
L 144.912798 295.486614 
L 145.107598 295.4823 
L 145.150886 295.465618 
L 145.172531 295.210562 
L 145.183353 295.483048 
L 145.259108 295.471438 
L 145.36733 295.486938 
L 145.378152 295.222351 
L 145.475552 295.48521 
L 145.486374 295.440489 
L 145.583774 295.464149 
L 145.691995 295.485053 
L 145.702817 295.4739 
L 145.724462 295.486777 
L 145.811039 295.469736 
L 145.951728 295.483959 
L 146.11406 295.418511 
L 146.146527 295.485162 
L 146.319682 295.476571 
L 146.330504 295.291611 
L 146.373793 295.486454 
L 146.427903 295.482201 
L 146.471192 295.325617 
L 146.536125 295.484801 
L 146.720102 295.467438 
L 146.730924 295.375899 
L 146.741747 295.486096 
L 146.828324 295.465433 
L 147.066412 295.479032 
L 147.174634 295.367282 
L 147.185456 295.487425 
L 147.239567 295.343558 
L 147.347789 295.470083 
L 147.391077 295.478477 
L 147.4019 295.294286 
L 147.423544 295.485741 
L 147.499299 295.486795 
L 147.575054 295.483704 
L 147.596699 295.292563 
L 147.683276 295.482616 
L 147.769854 295.437813 
L 147.791498 295.482842 
L 147.975475 295.48679 
L 147.986297 295.266913 
L 148.083697 295.48687 
L 148.191919 295.463976 
L 148.202741 295.487357 
L 148.321785 295.485266 
L 149.025226 295.476789 
L 149.165915 295.439746 
L 149.284959 295.487209 
L 150.291421 295.478276 
L 150.464576 295.486696 
L 150.529509 295.456977 
L 150.572798 295.484962 
L 150.789242 295.481429 
L 151.02733 295.479998 
L 151.52515 295.483154 
L 151.633372 295.46336 
L 151.644194 295.487278 
L 152.228591 295.468859 
L 152.239414 295.389033 
L 152.250236 295.485263 
L 152.336813 295.486632 
L 152.7697 295.474323 
L 152.780523 295.303675 
L 152.812989 295.486419 
L 152.877922 295.477779 
L 152.986144 295.487013 
L 152.996966 295.382075 
L 153.094366 295.479407 
L 153.137654 295.36877 
L 153.235054 295.456012 
L 153.299987 295.373918 
L 153.354098 295.477127 
L 153.375742 295.484806 
L 153.46232 295.402714 
L 153.538075 295.48708 
L 153.581364 295.477821 
L 153.592186 295.362222 
L 153.624652 295.48756 
L 153.689586 295.447354 
L 153.873563 295.482201 
L 154.090006 295.486713 
L 154.100828 295.293865 
L 154.198228 295.381309 
L 154.30645 295.483539 
L 154.317272 295.48088 
L 154.522893 295.464805 
L 154.544538 295.484301 
L 154.641937 295.486189 
L 155.518534 295.478384 
L 155.529356 295.181448 
L 155.551 295.486106 
L 155.626756 295.487466 
L 155.637578 295.487204 
L 155.6484 295.214641 
L 155.7458 295.479803 
L 155.908132 295.483797 
L 155.918954 295.424966 
L 156.016354 295.480858 
L 156.124576 295.486239 
L 156.135398 295.457412 
L 156.14622 295.386239 
L 156.157042 295.486995 
L 156.232798 295.486009 
L 157.109394 295.484988 
L 157.120216 295.329079 
L 157.217616 295.487324 
L 157.369126 295.413942 
L 157.379949 295.460125 
L 157.423237 295.481064 
L 157.434059 295.232614 
L 157.444882 295.487674 
L 157.531459 295.486132 
L 157.910235 295.485361 
L 158.094212 295.486876 
L 158.105035 295.378085 
L 158.202434 295.459915 
L 158.310656 295.483801 
L 158.321478 295.045316 
L 158.375589 295.487432 
L 158.418878 295.465207 
L 158.516277 295.465357 
L 158.440522 295.486305 
L 158.537922 295.483052 
L 158.67861 295.487525 
L 158.689432 295.400221 
L 158.786832 295.477148 
L 158.970809 295.483139 
L 158.981631 295.176853 
L 159.046564 295.486772 
L 159.079031 295.465302 
L 159.360407 295.471883 
L 159.793294 295.430842 
L 159.804117 295.486724 
L 160.485914 295.485957 
L 160.583314 295.486391 
L 160.594136 295.362885 
L 160.691535 295.482397 
L 161.232644 295.48023 
L 161.243466 295.29194 
L 161.275933 295.486645 
L 161.340866 295.475666 
L 161.70882 295.448359 
L 161.827864 295.487144 
L 161.990197 295.457038 
L 162.001019 295.330734 
L 162.044308 295.486882 
L 162.098419 295.474394 
L 162.228285 295.487162 
L 162.120063 295.449194 
L 162.239107 295.471167 
L 163.959833 295.48169 
L 164.132988 295.482282 
L 164.176277 295.308863 
L 164.24121 295.482556 
L 164.674097 295.378393 
L 164.771497 295.353449 
L 164.793141 295.487656 
L 164.803963 295.452039 
L 164.901363 295.483649 
L 165.18274 295.485273 
L 165.193562 295.41642 
L 165.290961 295.484937 
L 165.420827 295.442447 
L 165.442472 295.473817 
L 165.593982 295.485617 
L 165.658915 295.487796 
L 165.669738 295.29775 
L 165.767137 295.480091 
L 166.048514 295.485385 
L 166.308246 295.474861 
L 166.319068 295.176651 
L 166.351535 295.486405 
L 166.416468 295.470695 
L 166.567978 295.482592 
L 166.578801 295.484504 
L 166.600445 294.971088 
L 166.632912 295.48744 
L 166.687022 295.485865 
L 167.293064 295.473659 
L 167.303887 295.320896 
L 167.357998 295.487769 
L 167.401286 295.471644 
L 167.509508 295.484948 
L 167.52033 295.476723 
L 167.531152 295.16852 
L 167.585263 295.487243 
L 167.628552 295.473232 
L 167.639374 295.482437 
L 167.650196 295.098363 
L 167.661019 295.48527 
L 167.747596 295.470933 
L 167.888284 295.485924 
L 168.061439 295.43161 
L 168.072261 295.453524 
L 168.191305 295.486255 
L 168.277883 295.237522 
L 168.310349 295.457524 
L 168.375282 295.402231 
L 168.440215 295.483017 
L 168.95968 295.486205 
L 169.046257 295.434268 
L 169.067902 295.478404 
L 169.241057 295.486295 
L 169.30599 295.353951 
L 169.349278 295.485922 
L 169.468322 295.41208 
L 169.479145 295.484285 
L 169.619833 295.483426 
L 169.630655 295.092926 
L 169.663122 295.487553 
L 169.728055 295.487321 
L 170.193408 295.460491 
L 170.290808 295.487836 
L 170.312452 295.466815 
L 170.334097 295.364673 
L 170.507252 295.482282 
L 170.637118 295.32959 
L 170.702051 295.140739 
L 170.756162 295.486076 
L 170.831917 295.486667 
L 170.842739 295.333582 
L 170.940139 295.487359 
L 171.091649 295.388683 
L 171.124116 295.47816 
L 171.189049 295.485755 
L 171.199871 295.375327 
L 171.297271 295.487732 
L 172.119756 295.427031 
L 172.130578 295.17157 
L 172.195511 295.486149 
L 172.227978 295.30011 
L 172.314555 295.485451 
L 172.347022 295.457409 
L 172.48771 295.484314 
L 172.498532 295.21244 
L 172.509355 295.486324 
L 172.595932 295.470387 
L 172.73662 295.485508 
L 172.877309 295.475115 
L 172.888131 295.234577 
L 172.898953 295.487605 
L 172.985531 295.486401 
L 174.143504 295.487329 
L 174.154326 295.327316 
L 174.251725 295.487384 
L 174.543924 295.487003 
L 174.554746 295.287143 
L 174.652146 295.448623 
L 174.760368 295.486295 
L 174.77119 295.477355 
L 174.901056 295.484904 
L 174.911878 295.397066 
L 175.009278 295.462358 
L 175.139144 295.487003 
L 175.247366 295.355069 
L 175.258188 295.446954 
L 175.377232 295.484435 
L 175.539565 295.478027 
L 175.766831 295.484153 
L 176.134785 295.484989 
L 176.243006 295.486925 
L 176.827404 295.484248 
L 176.838226 295.327298 
L 176.935626 295.385175 
L 177.033025 295.487758 
L 177.05467 295.482755 
L 177.087136 295.486539 
L 177.097959 295.17782 
L 177.195358 295.487732 
L 177.314402 295.48655 
L 177.833867 295.445344 
L 177.844689 295.315014 
L 177.855511 295.486747 
L 177.931266 295.486473 
L 178.342509 295.486843 
L 178.353331 295.358124 
L 178.450731 295.448721 
L 178.580597 295.482283 
L 178.721285 295.453738 
L 178.753752 295.17063 
L 178.764574 295.485946 
L 178.829507 295.484397 
L 178.916085 295.299275 
L 178.948551 295.476184 
L 179.110884 295.485292 
L 179.229928 295.48466 
L 179.662815 295.486333 
L 179.792681 295.472316 
L 179.933369 295.487245 
L 180.18228 295.484019 
L 180.485301 295.481309 
L 180.496123 295.345958 
L 180.528589 295.487875 
L 180.593522 295.485946 
L 181.405186 295.463116 
L 181.480941 295.465949 
L 181.491763 293.486529 
L 181.545874 295.487439 
L 181.589163 295.487124 
L 181.697385 295.438835 
L 181.708207 295.08951 
L 181.740673 295.485491 
L 181.805606 295.451544 
L 181.903006 295.483976 
L 181.92465 295.469243 
L 181.957117 295.486163 
L 182.02205 294.329415 
L 182.065339 295.487047 
L 182.227671 295.4413 
L 182.238494 295.481334 
L 182.249316 294.987075 
L 182.260138 295.484814 
L 182.346715 295.483685 
L 182.725492 295.485689 
L 182.736314 295.440474 
L 182.833713 295.476449 
L 182.844536 295.481397 
L 182.855358 295.237388 
L 182.898646 295.48625 
L 182.952757 295.477814 
L 183.082623 295.456809 
L 183.093446 295.478637 
L 183.125912 295.48555 
L 183.136734 295.365578 
L 183.234134 295.478437 
L 183.483044 295.484619 
L 184.013331 295.456112 
L 184.132375 295.484774 
L 184.143197 295.451953 
L 184.240597 295.486414 
L 184.424574 295.486566 
L 184.511151 295.294951 
L 184.532795 295.483986 
L 184.998149 295.485788 
L 185.560902 295.477883 
L 185.723235 295.486465 
L 186.350922 295.484146 
L 186.361744 295.417595 
L 186.459143 295.486461 
L 187.011074 295.48588 
L 187.021897 295.385191 
L 187.119296 295.482021 
L 187.379029 295.474405 
L 187.389851 295.402767 
L 187.400673 295.486373 
L 187.48725 295.486851 
L 188.050004 295.469728 
L 188.060826 295.076092 
L 188.071648 295.487177 
L 188.158225 295.48676 
L 188.374669 295.483135 
L 188.385491 295.377446 
L 188.407136 295.487388 
L 188.482891 295.470878 
L 188.601935 295.486195 
L 188.515357 295.386819 
L 188.612757 295.476056 
L 188.710157 295.382559 
L 188.634401 295.486919 
L 188.720979 295.48661 
L 189.391954 295.476177 
L 189.413598 295.452875 
L 189.543464 295.474198 
L 189.640864 295.377459 
L 189.694975 295.479636 
L 189.705797 294.14479 
L 189.716619 295.487134 
L 189.803197 294.752847 
L 189.911418 295.486423 
L 189.922241 295.482231 
L 189.954707 295.487506 
L 189.965529 295.28877 
L 190.062929 295.467444 
L 190.073751 295.481753 
L 190.084573 295.473459 
L 190.095395 294.708813 
L 190.138684 295.487512 
L 190.192795 295.485141 
L 190.257728 295.487108 
L 190.26855 295.228438 
L 190.36595 295.475781 
L 190.376772 295.487218 
L 190.387594 295.376312 
L 190.398416 295.024816 
L 190.46335 295.48704 
L 190.484994 295.486161 
L 190.831304 295.461062 
L 190.842126 295.355789 
L 190.852948 295.486217 
L 190.939525 295.485917 
L 191.394057 295.480314 
L 191.55639 295.48547 
L 191.588856 295.149386 
L 191.664611 295.487443 
L 192.119143 295.487533 
L 192.129965 295.356861 
L 192.227365 295.469096 
L 192.368053 295.486869 
L 192.627785 295.483157 
L 192.64943 295.4835 
L 192.660252 295.333719 
L 192.671074 295.486466 
L 192.757651 295.487683 
L 192.974095 295.486839 
L 193.103961 295.477431 
L 193.114783 295.308566 
L 193.136428 295.485481 
L 193.212183 295.4866 
L 193.266294 295.4837 
L 193.277116 295.375166 
L 193.374516 295.47509 
L 193.515204 295.484065 
L 193.623426 295.397514 
L 193.64507 295.48724 
L 195.311686 295.426773 
L 195.322508 295.341982 
L 195.344152 295.486267 
L 195.409085 295.486196 
L 196.17746 295.486546 
L 196.837613 295.48518 
L 196.848435 295.191215 
L 196.859257 295.486781 
L 196.945835 295.486488 
L 198.038875 295.48459 
L 198.049697 295.400848 
L 198.147097 295.481954 
L 198.36354 295.485229 
L 198.482584 295.485348 
L 198.980404 295.48713 
L 199.023693 295.318549 
L 199.088626 295.462446 
L 199.175204 295.484637 
L 199.272603 294.705239 
L 199.218492 295.487189 
L 199.283425 295.485533 
L 199.348358 295.484057 
L 199.370003 294.936256 
L 199.45658 295.486203 
L 199.467402 295.47096 
L 199.478225 295.191951 
L 199.489047 295.486036 
L 199.575624 295.483987 
L 199.792068 295.484988 
L 199.867823 295.175204 
L 199.90029 295.486955 
L 200.268244 295.463297 
L 200.39811 295.484356 
L 200.885108 295.487552 
L 200.89593 295.330732 
L 200.99333 295.485431 
L 201.014974 295.480333 
L 201.025796 295.35119 
L 201.036618 295.486616 
L 201.123196 295.487109 
L 201.220595 295.46047 
L 201.231418 295.485086 
L 202.183769 295.487396 
L 202.194591 295.22816 
L 202.291991 295.487649 
L 202.58419 295.481558 
L 202.595012 295.028179 
L 202.659945 295.487307 
L 202.692412 295.478584 
L 202.865567 295.486645 
L 202.984611 295.477777 
L 202.995433 295.487101 
L 203.850385 295.473227 
L 203.861207 295.291862 
L 203.872029 295.486242 
L 203.958607 295.483241 
L 204.142584 295.471114 
L 204.153406 295.402902 
L 204.164228 295.485921 
L 204.250805 295.485147 
L 204.456427 295.261065 
L 204.488893 295.462736 
L 204.597115 295.484471 
L 204.716159 295.032814 
L 204.835203 295.486999 
L 205.397956 295.470813 
L 205.408779 295.035751 
L 205.430423 295.486829 
L 205.506178 295.487645 
L 205.852488 295.480097 
L 205.86331 295.218732 
L 205.895777 295.487074 
L 205.96071 295.483987 
L 206.187975 295.463909 
L 206.317842 295.482443 
L 206.620863 295.487194 
L 206.631685 295.323399 
L 206.729084 295.460044 
L 206.880595 295.480713 
L 207.140327 295.487766 
L 207.324304 295.48696 
L 208.460633 295.487003 
L 208.514744 295.44353 
L 208.568855 295.486917 
L 209.109964 295.486941 
L 209.120786 295.252205 
L 209.218186 295.48031 
L 209.348052 295.484748 
L 209.358874 295.4595 
L 209.369696 295.417404 
L 209.380518 295.483988 
L 209.467096 295.478423 
L 210.744113 295.479537 
L 210.754935 295.334513 
L 210.776579 295.48739 
L 210.852335 295.48038 
L 210.971379 295.485727 
L 210.982201 295.39963 
L 211.0796 295.487573 
L 211.122889 295.228752 
L 211.198644 295.451731 
L 211.231111 295.484011 
L 211.339333 295.487146 
L 211.350155 295.006128 
L 211.469199 295.486094 
L 211.512488 295.391989 
L 211.52331 294.925497 
L 211.534132 295.487048 
L 211.620709 295.453073 
L 211.750575 295.481019 
L 211.902086 295.437576 
L 212.010308 295.483333 
L 212.02113 295.464891 
L 212.205107 295.308373 
L 212.248396 295.4699 
L 212.27004 295.377911 
L 212.280862 295.483039 
L 212.291684 295.22106 
L 212.313329 295.486026 
L 212.389084 295.484379 
L 212.464839 295.481742 
L 212.475661 293.978959 
L 212.540595 295.486009 
L 212.573061 295.481669 
L 212.61635 295.471311 
L 212.627172 295.213714 
L 212.659638 295.486085 
L 212.724572 295.485807 
L 212.735394 295.482803 
L 212.757038 294.939919 
L 212.789505 295.486352 
L 212.843616 295.477472 
L 213.038415 295.480222 
L 213.124992 294.989323 
L 213.146637 295.482979 
L 213.61199 295.486137 
L 213.666101 295.39616 
L 213.720212 295.480907 
L 213.8609 295.483444 
L 213.871723 295.421784 
L 213.969122 295.485914 
L 214.174744 295.453564 
L 214.293787 295.481293 
L 214.466942 295.484304 
L 214.477765 295.440244 
L 214.575164 295.484405 
L 214.856541 295.433294 
L 214.95394 295.487547 
L 214.964763 295.483819 
L 214.975585 295.143286 
L 215.018873 295.487451 
L 215.072984 295.484628 
L 215.386828 295.482164 
L 215.473405 295.133366 
L 215.419294 295.487048 
L 215.495049 295.487406 
L 215.570805 295.475981 
L 215.592449 295.486945 
L 215.603271 294.191423 
L 215.700671 295.482001 
L 215.852181 295.463952 
L 215.863003 295.236315 
L 215.884648 295.487144 
L 215.960403 295.483728 
L 216.209313 295.484212 
L 216.220135 295.061863 
L 216.230958 295.487593 
L 216.317535 295.435508 
L 216.436579 295.486449 
L 216.523156 295.452398 
L 216.544801 295.486019 
L 216.6422 295.484533 
L 216.653022 295.380458 
L 216.750422 295.443429 
L 217.23742 295.454904 
L 217.248242 295.016277 
L 217.259065 295.485353 
L 217.345642 295.486354 
L 217.432219 295.482819 
L 217.443042 295.299164 
L 217.48633 295.48679 
L 217.540441 295.395861 
L 217.648663 295.482262 
L 217.659485 295.478314 
L 217.670307 295.472047 
L 217.681129 295.282762 
L 217.713596 295.484589 
L 217.778529 295.477053 
L 217.865107 295.421096 
L 217.875929 295.199716 
L 217.886751 295.48595 
L 217.962506 295.485987 
L 218.189772 295.487158 
L 218.200594 295.338835 
L 218.297994 295.480065 
L 218.514437 295.486987 
L 218.590193 295.411661 
L 218.622659 295.483265 
L 218.817458 295.485278 
L 218.82828 295.359503 
L 218.92568 295.486509 
L 218.936502 295.484609 
L 218.947324 295.007716 
L 218.968969 295.487003 
L 219.044724 295.383715 
L 219.152946 295.487844 
L 219.098835 295.342966 
L 219.163768 295.486343 
L 219.282812 295.467001 
L 219.293634 295.487428 
L 219.358567 295.450936 
L 219.369389 295.323126 
L 219.380212 295.486528 
L 219.466789 295.475466 
L 219.553366 295.479166 
L 219.564189 294.923602 
L 219.585833 295.487539 
L 219.661588 295.487061 
L 219.856387 295.478271 
L 220.083653 295.452546 
L 220.094475 295.419025 
L 220.105298 295.484866 
L 220.181053 295.476499 
L 220.354208 295.487574 
L 220.473252 295.474882 
L 220.549007 295.485195 
L 220.559829 295.244583 
L 220.657229 295.469049 
L 220.797917 295.487266 
L 220.906139 295.451834 
L 220.916961 295.164094 
L 220.949428 295.483825 
L 221.014361 295.485369 
L 221.057649 295.485949 
L 221.068471 295.292497 
L 221.165871 295.484025 
L 221.20916 295.483617 
L 221.219982 295.222653 
L 221.252449 295.487654 
L 221.317382 295.309644 
L 221.436426 295.486368 
L 221.501359 295.486023 
L 221.512181 295.311081 
L 221.60958 295.484766 
L 221.642047 295.440404 
L 221.728624 295.474091 
L 221.880135 295.487072 
L 223.64415 295.486178 
L 223.654972 294.982963 
L 223.676617 295.486892 
L 223.752372 295.487082 
L 223.925527 295.486131 
L 223.936349 295.137618 
L 223.957993 295.487287 
L 224.033749 295.483949 
L 224.271836 295.474592 
L 224.704724 295.487099 
L 224.715546 295.326166 
L 224.812945 295.478889 
L 225.007745 295.485268 
L 225.440632 295.487064 
L 225.451454 295.381428 
L 225.548854 295.486331 
L 226.338873 295.477932 
L 226.501205 295.486143 
L 226.631071 295.483259 
L 226.869159 295.486717 
L 227.161358 295.487231 
L 227.17218 295.234364 
L 227.26958 295.451396 
L 227.399446 295.485952 
L 227.550957 295.421906 
L 227.572601 295.475877 
L 227.583423 295.486958 
L 227.594245 295.419248 
L 227.605068 295.121546 
L 227.61589 295.485778 
L 227.702467 295.487494 
L 227.724112 295.485047 
L 227.734934 295.238152 
L 227.7674 295.487639 
L 227.832333 295.455568 
L 227.843155 295.351791 
L 227.886444 295.486989 
L 227.940555 295.486185 
L 228.070421 295.486047 
L 228.081243 295.251855 
L 228.178643 295.475697 
L 228.221932 295.37529 
L 228.308509 295.480377 
L 228.330154 295.48738 
L 228.416731 295.248971 
L 228.514131 295.486739 
L 228.535775 295.485232 
L 228.589886 295.294851 
L 228.643997 295.48656 
L 229.250039 295.485202 
L 229.260861 295.269736 
L 229.358261 295.486725 
L 229.509771 295.47529 
L 229.520593 295.206526 
L 229.585526 295.487013 
L 229.617993 295.484826 
L 230.267324 295.484629 
L 230.278146 294.89159 
L 230.288968 295.487192 
L 230.375545 295.486782 
L 231.39283 295.485894 
L 231.403652 295.395889 
L 231.501052 295.487429 
L 231.576807 295.306105 
L 231.630918 295.486957 
L 231.782429 295.480654 
L 231.793251 295.290675 
L 231.814895 295.48731 
L 231.89065 295.476478 
L 232.052983 295.487041 
L 232.063805 295.290666 
L 232.161205 295.361699 
L 232.258604 295.486609 
L 232.269427 295.371133 
L 232.323538 295.485516 
L 232.33436 295.044239 
L 232.431759 295.487356 
L 232.464226 295.410836 
L 232.496692 295.486161 
L 232.507515 295.225005 
L 232.604914 295.482508 
L 232.637381 295.353756 
L 232.723958 295.446261 
L 232.778069 295.383826 
L 232.83218 295.486939 
L 232.843002 294.977294 
L 232.940402 295.486439 
L 232.962046 295.486355 
L 232.972868 295.173052 
L 232.98369 295.48769 
L 233.070268 295.432006 
L 233.156845 295.486414 
L 233.167668 295.215765 
L 233.265067 295.4754 
L 233.308356 295.486349 
L 233.319178 295.338703 
L 233.4274 295.354157 
L 233.492333 295.174904 
L 233.546444 295.485344 
L 233.557266 295.241116 
L 233.568088 295.486574 
L 233.654666 295.486307 
L 233.903576 295.483443 
L 234.163308 295.487125 
L 234.17413 295.424314 
L 234.27153 295.44682 
L 234.379752 295.487251 
L 234.390574 295.479136 
L 234.585373 295.485729 
L 234.704417 295.367705 
L 234.736883 295.487534 
L 235.310459 295.476912 
L 235.472792 295.48738 
L 235.916501 295.458569 
L 235.927323 295.343193 
L 235.948968 295.487653 
L 236.024723 295.433772 
L 236.057189 295.484092 
L 236.068011 295.020579 
L 236.1113 295.486673 
L 236.165411 295.486986 
L 237.269273 295.46608 
L 237.399139 295.485813 
L 237.485717 295.487133 
L 237.496539 295.333938 
L 237.593939 295.485799 
L 237.756271 295.482671 
L 237.767094 294.850249 
L 237.821204 295.487154 
L 237.864493 295.486967 
L 238.124225 295.484748 
L 238.135048 295.287997 
L 238.14587 295.486576 
L 238.232447 295.486858 
L 238.29738 295.481503 
L 238.308203 295.325034 
L 238.319025 295.485614 
L 238.405602 295.486782 
L 238.806023 295.442244 
L 238.816845 295.243704 
L 238.827667 295.486609 
L 238.914245 295.48722 
L 239.000822 295.343176 
L 239.087399 295.484159 
L 239.498642 295.484746 
L 239.509464 295.395996 
L 239.606864 295.452573 
L 239.725908 295.487507 
L 241.143613 295.486231 
L 241.652256 295.487467 
L 241.663078 295.005817 
L 241.760478 295.485812 
L 241.857877 295.48713 
L 241.868699 295.135826 
L 241.966099 295.156268 
L 242.085143 295.487709 
L 242.117609 295.486948 
L 242.128432 295.116809 
L 242.225831 295.487324 
L 242.398986 295.487502 
L 242.409808 295.287193 
L 242.507208 295.470118 
L 242.637074 295.328248 
L 242.702007 295.481206 
L 242.875162 295.487688 
L 242.885984 295.435621 
L 242.983384 295.485825 
L 243.080783 295.485717 
L 243.091606 295.382663 
L 243.189005 295.487664 
L 243.719292 295.474471 
L 243.773403 295.487173 
L 243.784225 295.234323 
L 243.881625 295.474197 
L 243.924913 295.486939 
L 243.946558 295.230096 
L 244.033135 295.482554 
L 244.173823 295.364011 
L 244.227934 295.019906 
L 244.20629 295.487395 
L 244.282045 295.391612 
L 244.314512 295.483992 
L 244.325334 295.16737 
L 244.346978 295.450398 
L 244.357801 295.115418 
L 244.368623 295.486936 
L 244.4552 295.484047 
L 244.974665 295.485917 
L 245.028776 295.188086 
L 245.082887 295.484079 
L 245.191108 295.469983 
L 245.20193 295.485358 
L 245.39673 295.23799 
L 245.407552 295.430881 
L 245.515774 295.486657 
L 245.526596 295.48323 
L 245.699751 295.486809 
L 246.002772 295.481887 
L 246.013594 295.346204 
L 246.024416 295.486961 
L 246.110994 295.48542 
L 246.197571 295.484722 
L 246.273326 295.342306 
L 246.305793 295.485701 
L 246.370726 295.47108 
L 246.381548 295.323826 
L 246.39237 295.487232 
L 246.478948 295.47361 
L 246.597992 295.486083 
L 246.608814 295.410028 
L 246.706213 295.486994 
L 246.89019 295.398849 
L 246.901013 295.486013 
L 247.388011 295.485035 
L 247.398833 295.42889 
L 247.496232 295.486468 
L 247.636921 295.483169 
L 247.98323 295.486477 
L 248.113097 295.486483 
L 249.011337 295.482975 
L 249.130381 295.486766 
L 249.67149 295.485261 
L 249.682313 295.185073 
L 249.693135 295.486945 
L 249.779712 295.487606 
L 249.877112 295.443909 
L 249.898756 295.487344 
L 249.909578 295.487028 
L 249.9204 295.08802 
L 250.0178 295.486328 
L 250.028622 295.481522 
L 250.039444 295.272804 
L 250.061089 295.48661 
L 250.136844 295.486531 
L 250.634664 295.486255 
L 250.645486 295.119319 
L 250.742886 295.467124 
L 250.872752 295.483367 
L 250.95933 295.486227 
L 250.970152 295.361964 
L 251.067551 295.486992 
L 251.273173 295.443273 
L 251.283995 294.988718 
L 251.305639 295.487022 
L 251.381395 295.48715 
L 251.619483 295.484398 
L 251.749349 295.486766 
L 251.760171 295.388565 
L 251.857571 295.484832 
L 252.387857 295.484753 
L 252.398679 295.358341 
L 252.409502 295.487788 
L 252.496079 295.485667 
L 255.439712 295.404027 
L 255.547934 295.486124 
L 255.558756 295.26747 
L 255.656155 295.487146 
L 255.764377 295.469784 
L 255.872599 295.482526 
L 255.883421 295.388051 
L 255.894243 295.487036 
L 255.980821 295.487424 
L 256.143153 295.426286 
L 256.251375 295.487073 
L 256.262197 295.485076 
L 256.760018 295.487579 
L 256.77084 295.151057 
L 256.868239 295.479679 
L 256.987283 295.485165 
L 257.322771 295.481035 
L 257.701547 295.484543 
L 257.76648 295.453257 
L 257.809769 295.48463 
L 258.004568 295.43042 
L 258.026213 295.476371 
L 258.166901 295.48403 
L 258.285945 295.479713 
L 258.469922 295.476756 
L 258.480744 295.442279 
L 258.491566 295.485653 
L 258.578144 295.487687 
L 260.006671 295.484576 
L 260.190648 295.486454 
L 260.20147 295.347596 
L 260.29887 295.48354 
L 260.439558 295.485928 
L 260.450381 295.388012 
L 260.54778 295.48736 
L 260.753402 295.481447 
L 260.872446 295.487303 
L 260.883268 295.143285 
L 260.980667 295.473764 
L 261.013134 295.427966 
L 261.099711 295.486121 
L 261.218755 295.482739 
L 261.586709 295.485617 
L 261.694931 295.453979 
L 261.705753 295.486978 
L 263.805256 295.487292 
L 263.816078 295.312107 
L 263.913478 295.485894 
L 263.945944 295.405833 
L 264.032522 295.479386 
L 264.140744 295.487885 
L 264.151566 295.342628 
L 264.248965 295.486191 
L 264.324721 295.487283 
L 264.335543 295.127623 
L 264.432942 295.487462 
L 264.746786 295.481757 
L 264.757608 295.209743 
L 264.790074 295.487917 
L 264.855007 295.487963 
L 265.093095 295.48508 
L 265.103918 295.323117 
L 265.11474 295.487356 
L 265.201317 295.470264 
L 265.320361 295.487293 
L 265.331183 295.474686 
L 265.753248 295.487716 
L 265.883114 295.486195 
L 265.893937 295.366785 
L 265.991336 295.478522 
L 266.164491 295.487357 
L 266.175313 295.344042 
L 266.272713 295.481366 
L 266.305179 295.383172 
L 266.402579 295.486314 
L 266.467512 295.267974 
L 266.510801 295.486484 
L 266.629845 295.487341 
L 266.640667 295.323906 
L 266.738067 295.487816 
L 267.095198 295.484292 
L 267.398219 295.487087 
L 267.409042 295.348239 
L 267.506441 295.47932 
L 267.668774 295.486994 
L 267.679596 295.438342 
L 267.776996 295.471669 
L 267.906862 295.484947 
L 267.982617 295.3393 
L 268.025906 295.486928 
L 268.74017 295.485275 
L 268.750992 295.432733 
L 268.848391 295.484454 
L 268.913325 295.33753 
L 268.967435 295.478827 
L 269.151412 295.487707 
L 269.162235 295.339256 
L 269.259634 295.487448 
L 269.573477 295.484607 
L 269.5843 295.23469 
L 269.595122 295.487647 
L 269.681699 295.466176 
L 269.800743 295.487443 
L 269.757454 295.392786 
L 269.811565 295.474958 
L 270.006365 295.486871 
L 270.266097 295.472662 
L 270.352674 295.487652 
L 270.363496 295.332507 
L 270.460896 295.474182 
L 270.612407 295.487433 
L 270.774739 295.352529 
L 270.893783 295.487296 
L 271.012827 295.486098 
L 271.023649 295.352854 
L 271.121049 295.486644 
L 272.3656 295.485929 
L 273.079863 295.487705 
L 273.198907 295.486722 
L 273.826594 295.442392 
L 273.837416 294.60165 
L 273.848238 295.487763 
L 273.934816 295.487577 
L 274.129615 295.466836 
L 274.237837 295.48726 
L 274.30277 295.341768 
L 274.346058 295.48743 
L 274.573324 295.48635 
L 274.627435 295.234041 
L 274.594968 295.487535 
L 274.681546 295.485036 
L 274.843879 295.434469 
L 274.9521 295.487321 
L 274.897989 295.414336 
L 274.962923 295.48252 
L 275.244299 295.486908 
L 275.352521 295.420182 
L 275.374165 295.486354 
L 277.23558 295.486559 
L 277.7334 295.487875 
L 277.744223 295.399579 
L 277.841622 295.487332 
L 278.047244 295.476491 
L 278.209576 295.487061 
L 279.237683 295.486763 
L 279.648926 295.486629 
L 279.659748 294.209691 
L 279.681393 295.487515 
L 279.757148 295.486328 
L 279.876192 295.45235 
L 280.01688 295.486244 
L 280.309079 295.484028 
L 280.319901 295.063503 
L 280.341545 295.486834 
L 280.417301 295.48699 
L 280.850188 295.487617 
L 280.86101 295.284295 
L 280.95841 295.477222 
L 281.131565 295.483286 
L 281.261431 295.390429 
L 281.283075 295.48659 
L 281.423763 295.48566 
L 281.434586 294.352645 
L 281.499519 295.487417 
L 281.531985 295.485385 
L 281.542807 295.306284 
L 281.553629 295.486745 
L 281.640207 295.486552 
L 281.737607 295.477846 
L 281.748429 295.483329 
L 282.018983 295.485047 
L 282.127205 295.472167 
L 282.148849 295.486663 
L 282.657492 295.487131 
L 282.668314 295.413414 
L 282.765714 295.487685 
L 283.458333 295.48651 
L 283.469155 295.172733 
L 283.566555 295.483597 
L 283.923687 295.487352 
L 284.129308 295.48637 
L 284.280819 295.481573 
L 284.313285 295.261396 
L 284.302463 295.487549 
L 284.38904 295.487247 
L 284.616306 295.479956 
L 284.627128 295.349008 
L 284.63795 295.487237 
L 284.724528 295.483391 
L 284.800283 295.486326 
L 284.811105 295.263429 
L 284.908505 295.448709 
L 285.016727 295.484459 
L 285.027549 295.462519 
L 285.103304 295.483454 
L 285.114126 295.346073 
L 285.146593 295.48758 
L 285.211526 295.487847 
L 285.590302 295.395705 
L 285.601124 295.132638 
L 285.611947 295.486935 
L 285.687702 295.483134 
L 285.839212 295.475825 
L 285.850035 295.350614 
L 285.871679 295.486983 
L 285.947434 295.487284 
L 286.337033 295.450323 
L 286.347855 295.48587 
L 286.358677 295.112881 
L 286.456077 295.486334 
L 286.499365 295.040323 
L 286.575121 295.45397 
L 286.694164 295.486168 
L 286.845675 295.48568 
L 287.830493 295.48329 
L 288.144336 295.486617 
L 289.486287 295.470077 
L 289.497109 294.967375 
L 289.55122 295.486768 
L 289.594508 295.486072 
L 289.637797 295.487378 
L 289.648619 295.282419 
L 289.746019 295.487448 
L 290.168084 295.482564 
L 290.178906 295.317531 
L 290.189728 295.48736 
L 290.276306 295.481525 
L 290.947281 295.482152 
L 291.012214 295.487025 
L 291.023036 295.087712 
L 291.120436 295.419343 
L 291.217835 295.485952 
L 291.228657 295.374034 
L 291.326057 295.486854 
L 291.39099 295.047329 
L 291.445101 295.442687 
L 291.574967 295.479948 
L 291.585789 294.185309 
L 291.607434 295.487402 
L 291.683189 295.486996 
L 291.704833 295.168168 
L 291.813055 295.453095 
L 291.997032 295.486679 
L 292.321698 295.486226 
L 293.847625 295.48519 
L 293.858447 295.342341 
L 293.955847 295.487039 
L 294.183112 295.477039 
L 294.345445 295.486369 
L 296.910301 295.486865 
L 296.921124 295.48747 
L 297.029345 295.16304 
L 297.126745 295.487281 
L 297.148389 295.482952 
L 297.332366 295.487379 
L 297.343189 295.249691 
L 297.440588 295.343779 
L 297.54881 295.486368 
L 297.559632 295.441674 
L 297.581276 295.485244 
L 297.592099 294.949357 
L 297.624565 295.487629 
L 297.689498 295.487734 
L 297.79772 295.487149 
L 297.808542 295.306036 
L 297.905942 295.487629 
L 298.035808 295.485744 
L 298.04663 295.096971 
L 298.068275 295.487492 
L 298.14403 295.483988 
L 298.154852 295.487577 
L 298.263074 295.104688 
L 298.338829 295.487745 
L 298.382118 295.438149 
L 298.490339 295.484854 
L 298.501162 295.471043 
L 298.555273 295.372807 
L 298.598561 295.486579 
L 298.717605 295.351517 
L 298.836649 295.486543 
L 298.847471 295.487492 
L 298.858294 295.283479 
L 298.955693 295.451115 
L 299.042271 295.4854 
L 299.074737 295.472809 
L 299.204603 295.487156 
L 299.215425 295.476125 
L 299.38858 295.487844 
L 299.994622 295.484863 
L 300.42751 295.484974 
L 300.568198 295.486681 
L 301.791104 295.486843 
L 301.801926 295.305884 
L 301.899326 295.485598 
L 302.050836 295.464054 
L 302.137414 295.234584 
L 302.104947 295.487354 
L 302.159058 295.461431 
L 302.16988 295.415205 
L 302.191525 295.485939 
L 302.26728 295.477805 
L 302.288924 295.38978 
L 302.462079 295.487491 
L 302.602767 295.479135 
L 302.61359 295.368319 
L 302.656878 295.486647 
L 302.710989 295.483055 
L 302.786745 295.485059 
L 302.797567 295.274664 
L 302.808389 295.487247 
L 302.894966 295.487185 
L 302.916611 295.311013 
L 303.003188 295.484335 
L 303.133054 295.487656 
L 304.475004 295.487509 
L 304.485827 295.195792 
L 304.583226 295.484742 
L 304.788848 295.48673 
L 304.79967 295.404238 
L 304.897069 295.486044 
L 305.687088 295.48638 
L 305.697911 295.389816 
L 305.79531 295.487562 
L 305.816955 295.481473 
L 305.827777 295.259198 
L 305.838599 295.486176 
L 305.925176 295.484875 
L 306.260664 295.481973 
L 306.314775 295.358791 
L 306.379708 295.487416 
L 306.617796 295.477772 
L 306.628618 295.162375 
L 306.63944 295.487183 
L 306.726018 295.487243 
L 306.953283 295.483472 
L 306.964106 295.173869 
L 306.98575 295.48733 
L 307.061505 295.485552 
L 307.213016 295.472225 
L 307.267127 294.907358 
L 307.245482 295.48669 
L 307.321237 295.487088 
L 307.494392 295.486679 
L 307.505215 294.717044 
L 307.526859 295.487508 
L 307.602614 295.487585 
L 307.786591 295.485226 
L 307.797413 295.278406 
L 307.894813 295.467797 
L 307.916457 295.480832 
L 307.92728 295.202916 
L 307.948924 295.486111 
L 308.024679 295.487588 
L 308.262767 295.462707 
L 308.306056 295.330894 
L 308.360167 295.485686 
L 308.370989 295.124026 
L 308.468388 295.486844 
L 308.630721 295.450513 
L 308.728121 295.269029 
L 308.67401 295.487735 
L 308.738943 295.432056 
L 308.847165 295.48699 
L 308.814698 295.362935 
L 308.857987 295.474561 
L 308.955387 294.977983 
L 308.890453 295.485719 
L 308.966209 295.487465 
L 308.977031 295.485266 
L 308.987853 295.262438 
L 309.085253 295.473871 
L 309.215119 295.459288 
L 309.344985 295.485156 
L 309.496495 295.409103 
L 309.51814 295.482073 
L 309.604717 295.482894 
L 309.615539 295.365498 
L 309.637184 295.487045 
L 309.712939 295.480961 
L 309.940205 295.485856 
L 310.189115 295.473902 
L 310.329803 295.48736 
L 310.795157 295.293268 
L 310.816801 295.486633 
L 310.903379 295.485945 
L 310.914201 295.216241 
L 311.011601 295.487698 
L 311.130644 295.397691 
L 311.141467 295.485184 
L 312.364373 295.487414 
L 314.442231 295.482899 
L 314.453053 295.228394 
L 314.463876 295.487535 
L 314.550453 295.480804 
L 314.745252 295.486556 
L 314.950874 295.475655 
L 315.124028 295.485098 
L 315.816648 295.48648 
L 315.946514 295.487036 
L 316.898866 295.487474 
L 317.007088 294.576078 
L 317.093665 295.487637 
L 317.126132 295.485316 
L 317.483264 295.48038 
L 317.494086 295.088927 
L 317.504908 295.487849 
L 317.591485 295.47293 
L 317.732174 295.487486 
L 317.883684 295.468922 
L 318.01355 295.484607 
L 318.597948 295.486343 
L 318.60877 295.263785 
L 318.70617 295.483327 
L 319.009191 295.485715 
L 319.139057 295.475448 
L 319.420434 295.487198 
L 319.507011 295.099796 
L 319.528655 295.485324 
L 320.361963 295.487426 
L 320.740739 295.478383 
L 320.848961 295.314689 
L 320.762384 295.487632 
L 320.859783 295.373567 
L 320.989649 295.486925 
L 321.271026 295.478091 
L 321.455003 295.487167 
L 321.465825 295.432097 
L 321.563225 295.484524 
L 321.682269 295.483632 
L 321.898713 295.487656 
L 321.909535 295.399157 
L 322.006934 295.487029 
L 323.035041 295.486859 
L 323.045863 295.387981 
L 323.143263 295.48617 
L 323.944104 295.477305 
L 323.954926 295.42295 
L 323.965749 295.483019 
L 324.052326 295.482429 
L 324.290414 295.477163 
L 324.301236 295.355648 
L 324.322881 295.487002 
L 324.398636 295.48739 
L 325.123722 295.486966 
L 325.156188 295.487827 
L 325.167011 295.352221 
L 325.26441 295.484878 
L 328.164754 295.480009 
L 328.175576 295.213676 
L 328.208043 295.487209 
L 328.272976 295.479128 
L 328.467775 295.485881 
L 328.586819 295.474689 
L 328.705863 295.486876 
L 328.716685 295.4255 
L 328.814085 295.4867 
L 328.933129 295.485139 
L 328.943951 295.193269 
L 328.965595 295.486346 
L 329.041351 295.487233 
L 329.614926 295.479653 
L 329.658215 295.486818 
L 329.766437 295.300956 
L 329.885481 295.486752 
L 330.643033 295.486221 
L 330.653855 295.399776 
L 330.751255 295.484729 
L 331.065098 295.252588 
L 331.162498 295.485737 
L 331.184142 295.47399 
L 331.281542 295.487771 
L 331.292364 295.418763 
L 331.389763 295.486754 
L 332.471981 295.485218 
L 332.482803 295.181401 
L 332.504448 295.487831 
L 332.580203 295.482581 
L 332.591025 295.485005 
L 332.601847 295.195085 
L 332.634314 295.487566 
L 332.699247 295.483872 
L 332.915691 295.484925 
L 332.926513 295.338436 
L 332.948157 295.487583 
L 333.023912 295.481001 
L 333.088846 295.487288 
L 333.099668 294.080521 
L 333.197067 295.486693 
L 333.316111 295.256754 
L 333.326933 295.461019 
L 333.445977 295.487688 
L 333.521733 294.299744 
L 333.554199 295.486007 
L 335.707813 295.483674 
L 335.718635 295.045299 
L 335.79439 295.48741 
L 335.816035 295.484334 
L 336.183989 295.48604 
L 336.194811 295.12267 
L 336.205633 295.486803 
L 336.29221 295.486154 
L 336.357144 295.484099 
L 336.367966 295.37357 
L 336.378788 295.487803 
L 336.465365 295.479929 
L 336.519476 295.487406 
L 336.530298 295.308043 
L 336.627698 295.486495 
L 337.071407 295.48723 
L 337.08223 295.336035 
L 337.179629 295.487645 
L 337.33114 295.487154 
L 337.341962 295.162001 
L 337.439361 295.487659 
L 338.348424 295.4731 
L 338.499935 295.485641 
L 338.543224 295.483263 
L 338.554046 295.32535 
L 338.57569 295.487521 
L 338.651445 295.486305 
L 338.943644 295.480876 
L 339.095155 295.4782 
L 339.105977 295.410359 
L 339.127621 295.484417 
L 339.203377 295.487307 
L 339.300776 295.485821 
L 339.311598 295.267707 
L 339.408998 295.484714 
L 339.538864 295.483815 
L 339.831063 295.482958 
L 339.841885 295.387266 
L 339.939285 295.48557 
L 340.079973 295.487104 
L 340.090795 295.302105 
L 340.188195 295.486455 
L 340.393816 295.485406 
L 340.404638 295.269763 
L 340.502038 295.485142 
L 340.642726 295.487173 
L 340.653549 295.222388 
L 340.750948 295.486841 
L 340.826703 295.485201 
L 340.837526 294.93738 
L 340.869992 295.487642 
L 340.934925 295.473104 
L 341.01068 295.487637 
L 341.021503 295.332493 
L 341.118902 295.480593 
L 341.335346 295.487116 
L 341.443568 295.463874 
L 341.465212 295.479238 
L 341.660011 295.486229 
L 341.670833 295.420534 
L 341.768233 295.487193 
L 342.082076 295.487101 
L 342.092898 295.222634 
L 342.190298 295.487425 
L 342.276875 295.481504 
L 342.363453 295.205537 
L 342.29852 295.487118 
L 342.385097 295.486978 
L 342.742229 295.486842 
L 342.753051 295.022939 
L 342.850451 295.486439 
L 343.337449 295.487272 
L 343.348271 295.311332 
L 343.445671 295.486144 
L 343.975958 295.486918 
L 343.98678 295.396897 
L 344.084179 295.470903 
L 344.224868 295.486296 
L 345.642573 295.487474 
L 345.653395 295.431714 
L 345.750795 295.487722 
L 347.449877 295.486992 
L 348.737716 295.485536 
L 348.748538 295.277931 
L 348.845938 295.487688 
L 349.094848 295.48546 
L 349.181426 295.297373 
L 349.20307 295.483133 
L 349.343758 295.486879 
L 349.462802 295.486972 
L 349.473624 295.08633 
L 349.571024 295.485321 
L 349.625135 295.485412 
L 349.668424 295.211904 
L 349.733357 295.487333 
L 349.744179 295.484964 
L 349.755001 295.368731 
L 349.852401 295.451849 
L 349.971445 295.485302 
L 350.079666 295.483518 
L 350.144599 295.306813 
L 350.101311 295.487615 
L 350.19871 295.367683 
L 350.274466 295.281631 
L 350.285288 295.486795 
L 350.29611 295.063154 
L 350.39351 295.485996 
L 350.501731 295.467211 
L 350.512554 295.27518 
L 350.523376 295.487051 
L 350.609953 295.470515 
L 350.718175 295.473209 
L 350.728997 295.142271 
L 350.739819 295.487201 
L 350.826397 295.451485 
L 350.858863 295.269896 
L 350.956263 295.48632 
L 351.259284 295.369187 
L 351.270106 295.338715 
L 351.280928 295.484944 
L 351.335039 295.485944 
L 351.627238 295.482501 
L 351.63806 295.194342 
L 351.670527 295.487368 
L 351.73546 295.485259 
L 351.832859 295.48702 
L 351.843682 295.366694 
L 351.941081 295.484718 
L 352.189991 295.484508 
L 352.720278 295.484674 
L 352.7311 295.415186 
L 352.8285 295.486402 
L 353.748385 295.481441 
L 354.040584 295.481147 
L 354.051406 295.431222 
L 354.148806 295.486364 
L 354.354427 295.46171 
L 354.473471 295.484796 
L 354.484293 295.411116 
L 354.581693 295.486945 
L 355.869532 295.486113 
L 355.880354 295.330161 
L 355.977754 295.487469 
L 357.384637 295.48726 
L 357.633547 295.486002 
L 357.720125 295.353823 
L 357.741769 295.487426 
L 358.358633 295.486909 
L 358.369455 295.328616 
L 358.466855 295.486605 
L 358.88892 295.484013 
L 359.13783 295.474948 
L 359.148652 295.37005 
L 359.170297 295.487745 
L 359.246052 295.482433 
L 359.624828 295.487051 
L 359.63565 295.420184 
L 359.73305 295.487378 
L 359.873738 295.447836 
L 359.992782 295.487746 
L 360.620469 295.446546 
L 360.739513 295.487328 
L 360.92349 295.486935 
L 361.085822 295.484956 
L 361.096645 295.374286 
L 361.194044 295.484678 
L 361.973241 295.484867 
L 362.503528 295.487335 
L 363.250258 295.48563 
L 363.26108 295.264101 
L 363.271903 295.487649 
L 363.35848 295.482307 
L 363.758901 295.483494 
L 363.813011 295.487056 
L 363.823834 295.249205 
L 363.921233 295.486643 
L 364.473164 295.486955 
L 364.483987 295.358004 
L 364.581386 295.487221 
L 364.732897 295.486672 
L 364.776185 295.300828 
L 364.841118 295.434823 
L 365.068384 295.487208 
L 365.512094 295.484304 
L 365.620315 295.487008 
L 365.631138 295.375433 
L 365.728537 295.48693 
L 366.312935 295.473597 
L 366.323757 295.363341 
L 366.334579 295.48738 
L 366.421157 295.487069 
L 366.864866 295.475756 
L 366.875688 295.206106 
L 366.88651 295.487463 
L 366.973088 295.487413 
L 366.98391 295.396009 
L 367.081309 295.485231 
L 367.460086 295.486232 
L 367.492552 295.403414 
L 367.568308 295.442125 
L 367.676529 295.48663 
L 367.687352 295.4825 
L 367.741462 295.390165 
L 367.806395 295.476354 
L 367.925439 295.435022 
L 367.82804 295.487438 
L 367.936262 295.461325 
L 368.260927 295.48248 
L 368.271749 295.37584 
L 368.369149 295.486371 
L 368.986013 295.485331 
L 368.996835 295.335434 
L 369.094235 295.487455 
L 369.494655 295.464732 
L 369.537944 295.331432 
L 369.624522 295.486625 
L 370.533585 295.487326 
L 370.544407 295.397423 
L 370.641806 295.487139 
L 371.431825 295.476299 
L 371.442648 295.28854 
L 371.464292 295.487559 
L 371.540047 295.472245 
L 371.572514 295.441639 
L 371.669913 295.485762 
L 371.734846 295.000021 
L 371.788957 295.465208 
L 371.85389 295.487287 
L 371.864713 295.154285 
L 371.962112 295.486642 
L 371.994579 295.388855 
L 372.070334 295.459708 
L 372.124445 295.365142 
L 372.189378 295.4867 
L 372.275955 295.471773 
L 372.308422 295.487161 
L 372.524865 295.471455 
L 372.600621 295.481787 
L 372.611443 295.231693 
L 372.622265 295.487502 
L 372.708843 295.487552 
L 373.877638 295.487114 
L 374.48368 295.45302 
L 374.494502 295.221334 
L 374.505324 295.487803 
L 374.591902 295.483744 
L 374.9815 295.480297 
L 374.992322 295.353585 
L 375.003144 295.485537 
L 375.089722 295.487685 
L 375.338632 295.487423 
L 375.349454 295.299254 
L 375.446854 295.464832 
L 375.565898 295.487204 
L 375.695764 295.484592 
L 376.17194 295.487079 
L 376.658938 295.484301 
L 377.070181 295.484633 
L 377.7628 295.48025 
L 377.957599 295.485915 
L 378.119932 295.43655 
L 378.238976 295.486341 
L 378.271443 295.483728 
L 378.325553 294.411974 
L 378.293087 295.486209 
L 378.379664 295.486669 
L 378.477064 295.487075 
L 378.531175 294.887648 
L 378.585286 295.482202 
L 379.234616 295.48711 
L 379.440238 295.484232 
L 379.829836 295.486513 
L 379.959702 295.487772 
L 380.425056 295.486837 
L 380.435878 295.276367 
L 380.533278 295.486007 
L 380.771366 295.486159 
L 380.782188 295.264292 
L 380.879588 295.486751 
L 380.987809 295.486418 
L 380.998632 294.906542 
L 381.009454 295.486976 
L 381.096031 295.419298 
L 381.106853 295.136838 
L 381.117676 295.487116 
L 381.204253 295.486434 
L 381.463985 295.487162 
L 381.583029 294.848665 
L 381.702073 295.485989 
L 381.756184 295.484563 
L 381.767006 295.084354 
L 381.788651 295.486982 
L 381.864406 295.486424 
L 382.145783 295.486356 
L 382.156605 295.220865 
L 382.254004 295.486777 
L 382.351404 295.461622 
L 382.373048 295.474216 
L 382.405515 295.44123 
L 382.524559 295.48721 
L 383.650065 295.487386 
L 383.660888 295.330424 
L 383.758287 295.486351 
L 384.331863 295.487304 
L 384.342685 295.322665 
L 384.440084 295.486308 
L 384.472551 295.48643 
L 384.483373 295.376651 
L 384.580773 295.486802 
L 385.132704 295.486439 
L 385.143526 295.322327 
L 385.240926 295.487705 
L 387.556872 295.480695 
L 387.567694 295.400323 
L 387.578516 295.487425 
L 387.665094 295.487179 
L 388.152092 295.468767 
L 388.281958 295.483703 
L 388.649912 295.487045 
L 388.758134 295.449144 
L 388.877178 295.486973 
L 389.320887 295.483433 
L 389.688841 295.486555 
L 389.926929 295.445659 
L 390.045973 295.487079 
L 390.056795 295.314267 
L 390.154195 295.48428 
L 390.511327 295.484275 
L 390.630371 295.464709 
L 390.652015 295.432935 
L 390.760237 295.486492 
L 390.82517 295.294026 
L 390.92257 295.484483 
L 392.069721 295.448447 
L 392.080543 295.140807 
L 392.091365 295.487162 
L 392.177942 295.487289 
L 392.491786 295.480129 
L 392.675763 295.487656 
L 392.686585 295.376653 
L 392.783984 295.487835 
L 393.35756 295.487285 
L 393.368382 295.303865 
L 393.465782 295.485083 
L 393.801269 295.487351 
L 393.812091 295.39195 
L 393.909491 295.485647 
L 394.504711 295.485 
L 394.515533 295.422395 
L 394.612933 295.487423 
L 396.23626 295.487509 
L 396.247082 295.311868 
L 396.344481 295.476686 
L 396.398592 295.466147 
L 396.409414 295.355945 
L 396.431059 295.48721 
L 396.506814 295.486885 
L 396.744902 295.486031 
L 396.755724 295.080628 
L 396.766546 295.487858 
L 396.853124 295.483199 
L 397.112856 295.487096 
L 397.199433 295.396202 
L 397.2319 295.439513 
L 397.350944 295.481148 
L 397.372588 295.4854 
L 397.38341 295.135232 
L 397.415877 295.487263 
L 397.48081 295.487341 
L 397.632321 295.437363 
L 397.740542 295.487576 
L 397.751365 295.471931 
L 397.816298 295.286224 
L 397.870409 295.487076 
L 397.892053 295.486289 
L 397.924519 295.156233 
L 398.000275 295.487016 
L 398.011097 295.43187 
L 398.108496 295.454359 
L 398.151785 295.418763 
L 398.22754 295.483335 
L 398.411517 295.464995 
L 398.487273 295.486023 
L 398.487273 295.486023 
" style="fill:none;stroke:#1f77b4;stroke-linecap:square;stroke-width:1.5;"/>
   </g>
   <g id="patch_3">
    <path d="M 57.6 307.584 
L 57.6 41.472 
" style="fill:none;stroke:#000000;stroke-linecap:square;stroke-linejoin:miter;stroke-width:0.8;"/>
   </g>
   <g id="patch_4">
    <path d="M 414.72 307.584 
L 414.72 41.472 
" style="fill:none;stroke:#000000;stroke-linecap:square;stroke-linejoin:miter;stroke-width:0.8;"/>
   </g>
   <g id="patch_5">
    <path d="M 57.6 307.584 
L 414.72 307.584 
" style="fill:none;stroke:#000000;stroke-linecap:square;stroke-linejoin:miter;stroke-width:0.8;"/>
   </g>
   <g id="patch_6">
    <path d="M 57.6 41.472 
L 414.72 41.472 
" style="fill:none;stroke:#000000;stroke-linecap:square;stroke-linejoin:miter;stroke-width:0.8;"/>
   </g>
  </g>
 </g>
 <defs>
  <clipPath id="pcf1b230cb3">
   <rect height="266.112" width="357.12" x="57.6" y="41.472"/>
  </clipPath>
 </defs>
</svg>
