<?xml version="1.0" encoding="utf-8" standalone="no"?>
<!DOCTYPE svg PUBLIC "-//W3C//DTD SVG 1.1//EN"
  "http://www.w3.org/Graphics/SVG/1.1/DTD/svg11.dtd">
<!-- Created with matplotlib (https://matplotlib.org/) -->
<svg height="345.6pt" version="1.1" viewBox="0 0 460.8 345.6" width="460.8pt" xmlns="http://www.w3.org/2000/svg" xmlns:xlink="http://www.w3.org/1999/xlink">
 <defs>
  <style type="text/css">
*{stroke-linecap:butt;stroke-linejoin:round;}
  </style>
 </defs>
 <g id="figure_1">
  <g id="patch_1">
   <path d="M 0 345.6 
L 460.8 345.6 
L 460.8 0 
L 0 0 
z
" style="fill:#ffffff;"/>
  </g>
  <g id="axes_1">
   <g id="patch_2">
    <path d="M 63.245 304.36 
L 397.555 304.36 
L 397.555 10.8 
L 63.245 10.8 
z
" style="fill:#ffffff;"/>
   </g>
   <g id="matplotlib.axis_1">
    <g id="xtick_1">
     <g id="line2d_1">
      <defs>
       <path d="M 0 0 
L 0 3.5 
" id="m64ca4e2080" style="stroke:#000000;stroke-width:0.8;"/>
      </defs>
      <g>
       <use style="stroke:#000000;stroke-width:0.8;" x="78.440909" xlink:href="#m64ca4e2080" y="304.36"/>
      </g>
     </g>
     <g id="text_1">
      <!-- 0 -->
      <defs>
       <path d="M 31.78125 66.40625 
Q 24.171875 66.40625 20.328125 58.90625 
Q 16.5 51.421875 16.5 36.375 
Q 16.5 21.390625 20.328125 13.890625 
Q 24.171875 6.390625 31.78125 6.390625 
Q 39.453125 6.390625 43.28125 13.890625 
Q 47.125 21.390625 47.125 36.375 
Q 47.125 51.421875 43.28125 58.90625 
Q 39.453125 66.40625 31.78125 66.40625 
z
M 31.78125 74.21875 
Q 44.046875 74.21875 50.515625 64.515625 
Q 56.984375 54.828125 56.984375 36.375 
Q 56.984375 17.96875 50.515625 8.265625 
Q 44.046875 -1.421875 31.78125 -1.421875 
Q 19.53125 -1.421875 13.0625 8.265625 
Q 6.59375 17.96875 6.59375 36.375 
Q 6.59375 54.828125 13.0625 64.515625 
Q 19.53125 74.21875 31.78125 74.21875 
z
" id="DejaVuSans-48"/>
      </defs>
      <g transform="translate(75.259659 318.958437)scale(0.1 -0.1)">
       <use xlink:href="#DejaVuSans-48"/>
      </g>
     </g>
    </g>
    <g id="xtick_2">
     <g id="line2d_2">
      <g>
       <use style="stroke:#000000;stroke-width:0.8;" x="129.263348" xlink:href="#m64ca4e2080" y="304.36"/>
      </g>
     </g>
     <g id="text_2">
      <!-- 50 -->
      <defs>
       <path d="M 10.796875 72.90625 
L 49.515625 72.90625 
L 49.515625 64.59375 
L 19.828125 64.59375 
L 19.828125 46.734375 
Q 21.96875 47.46875 24.109375 47.828125 
Q 26.265625 48.1875 28.421875 48.1875 
Q 40.625 48.1875 47.75 41.5 
Q 54.890625 34.8125 54.890625 23.390625 
Q 54.890625 11.625 47.5625 5.09375 
Q 40.234375 -1.421875 26.90625 -1.421875 
Q 22.3125 -1.421875 17.546875 -0.640625 
Q 12.796875 0.140625 7.71875 1.703125 
L 7.71875 11.625 
Q 12.109375 9.234375 16.796875 8.0625 
Q 21.484375 6.890625 26.703125 6.890625 
Q 35.15625 6.890625 40.078125 11.328125 
Q 45.015625 15.765625 45.015625 23.390625 
Q 45.015625 31 40.078125 35.4375 
Q 35.15625 39.890625 26.703125 39.890625 
Q 22.75 39.890625 18.8125 39.015625 
Q 14.890625 38.140625 10.796875 36.28125 
z
" id="DejaVuSans-53"/>
      </defs>
      <g transform="translate(122.900848 318.958437)scale(0.1 -0.1)">
       <use xlink:href="#DejaVuSans-53"/>
       <use x="63.623047" xlink:href="#DejaVuSans-48"/>
      </g>
     </g>
    </g>
    <g id="xtick_3">
     <g id="line2d_3">
      <g>
       <use style="stroke:#000000;stroke-width:0.8;" x="180.085786" xlink:href="#m64ca4e2080" y="304.36"/>
      </g>
     </g>
     <g id="text_3">
      <!-- 100 -->
      <defs>
       <path d="M 12.40625 8.296875 
L 28.515625 8.296875 
L 28.515625 63.921875 
L 10.984375 60.40625 
L 10.984375 69.390625 
L 28.421875 72.90625 
L 38.28125 72.90625 
L 38.28125 8.296875 
L 54.390625 8.296875 
L 54.390625 0 
L 12.40625 0 
z
" id="DejaVuSans-49"/>
      </defs>
      <g transform="translate(170.542036 318.958437)scale(0.1 -0.1)">
       <use xlink:href="#DejaVuSans-49"/>
       <use x="63.623047" xlink:href="#DejaVuSans-48"/>
       <use x="127.246094" xlink:href="#DejaVuSans-48"/>
      </g>
     </g>
    </g>
    <g id="xtick_4">
     <g id="line2d_4">
      <g>
       <use style="stroke:#000000;stroke-width:0.8;" x="230.908224" xlink:href="#m64ca4e2080" y="304.36"/>
      </g>
     </g>
     <g id="text_4">
      <!-- 150 -->
      <g transform="translate(221.364474 318.958437)scale(0.1 -0.1)">
       <use xlink:href="#DejaVuSans-49"/>
       <use x="63.623047" xlink:href="#DejaVuSans-53"/>
       <use x="127.246094" xlink:href="#DejaVuSans-48"/>
      </g>
     </g>
    </g>
    <g id="xtick_5">
     <g id="line2d_5">
      <g>
       <use style="stroke:#000000;stroke-width:0.8;" x="281.730663" xlink:href="#m64ca4e2080" y="304.36"/>
      </g>
     </g>
     <g id="text_5">
      <!-- 200 -->
      <defs>
       <path d="M 19.1875 8.296875 
L 53.609375 8.296875 
L 53.609375 0 
L 7.328125 0 
L 7.328125 8.296875 
Q 12.9375 14.109375 22.625 23.890625 
Q 32.328125 33.6875 34.8125 36.53125 
Q 39.546875 41.84375 41.421875 45.53125 
Q 43.3125 49.21875 43.3125 52.78125 
Q 43.3125 58.59375 39.234375 62.25 
Q 35.15625 65.921875 28.609375 65.921875 
Q 23.96875 65.921875 18.8125 64.3125 
Q 13.671875 62.703125 7.8125 59.421875 
L 7.8125 69.390625 
Q 13.765625 71.78125 18.9375 73 
Q 24.125 74.21875 28.421875 74.21875 
Q 39.75 74.21875 46.484375 68.546875 
Q 53.21875 62.890625 53.21875 53.421875 
Q 53.21875 48.921875 51.53125 44.890625 
Q 49.859375 40.875 45.40625 35.40625 
Q 44.1875 33.984375 37.640625 27.21875 
Q 31.109375 20.453125 19.1875 8.296875 
z
" id="DejaVuSans-50"/>
      </defs>
      <g transform="translate(272.186913 318.958437)scale(0.1 -0.1)">
       <use xlink:href="#DejaVuSans-50"/>
       <use x="63.623047" xlink:href="#DejaVuSans-48"/>
       <use x="127.246094" xlink:href="#DejaVuSans-48"/>
      </g>
     </g>
    </g>
    <g id="xtick_6">
     <g id="line2d_6">
      <g>
       <use style="stroke:#000000;stroke-width:0.8;" x="332.553101" xlink:href="#m64ca4e2080" y="304.36"/>
      </g>
     </g>
     <g id="text_6">
      <!-- 250 -->
      <g transform="translate(323.009351 318.958437)scale(0.1 -0.1)">
       <use xlink:href="#DejaVuSans-50"/>
       <use x="63.623047" xlink:href="#DejaVuSans-53"/>
       <use x="127.246094" xlink:href="#DejaVuSans-48"/>
      </g>
     </g>
    </g>
    <g id="xtick_7">
     <g id="line2d_7">
      <g>
       <use style="stroke:#000000;stroke-width:0.8;" x="383.37554" xlink:href="#m64ca4e2080" y="304.36"/>
      </g>
     </g>
     <g id="text_7">
      <!-- 300 -->
      <defs>
       <path d="M 40.578125 39.3125 
Q 47.65625 37.796875 51.625 33 
Q 55.609375 28.21875 55.609375 21.1875 
Q 55.609375 10.40625 48.1875 4.484375 
Q 40.765625 -1.421875 27.09375 -1.421875 
Q 22.515625 -1.421875 17.65625 -0.515625 
Q 12.796875 0.390625 7.625 2.203125 
L 7.625 11.71875 
Q 11.71875 9.328125 16.59375 8.109375 
Q 21.484375 6.890625 26.8125 6.890625 
Q 36.078125 6.890625 40.9375 10.546875 
Q 45.796875 14.203125 45.796875 21.1875 
Q 45.796875 27.640625 41.28125 31.265625 
Q 36.765625 34.90625 28.71875 34.90625 
L 20.21875 34.90625 
L 20.21875 43.015625 
L 29.109375 43.015625 
Q 36.375 43.015625 40.234375 45.921875 
Q 44.09375 48.828125 44.09375 54.296875 
Q 44.09375 59.90625 40.109375 62.90625 
Q 36.140625 65.921875 28.71875 65.921875 
Q 24.65625 65.921875 20.015625 65.03125 
Q 15.375 64.15625 9.8125 62.3125 
L 9.8125 71.09375 
Q 15.4375 72.65625 20.34375 73.4375 
Q 25.25 74.21875 29.59375 74.21875 
Q 40.828125 74.21875 47.359375 69.109375 
Q 53.90625 64.015625 53.90625 55.328125 
Q 53.90625 49.265625 50.4375 45.09375 
Q 46.96875 40.921875 40.578125 39.3125 
z
" id="DejaVuSans-51"/>
      </defs>
      <g transform="translate(373.83179 318.958437)scale(0.1 -0.1)">
       <use xlink:href="#DejaVuSans-51"/>
       <use x="63.623047" xlink:href="#DejaVuSans-48"/>
       <use x="127.246094" xlink:href="#DejaVuSans-48"/>
      </g>
     </g>
    </g>
    <g id="text_8">
     <!-- Average of Per 7500 Episode -->
     <defs>
      <path d="M 34.1875 63.1875 
L 20.796875 26.90625 
L 47.609375 26.90625 
z
M 28.609375 72.90625 
L 39.796875 72.90625 
L 67.578125 0 
L 57.328125 0 
L 50.6875 18.703125 
L 17.828125 18.703125 
L 11.1875 0 
L 0.78125 0 
z
" id="DejaVuSans-65"/>
      <path d="M 2.984375 54.6875 
L 12.5 54.6875 
L 29.59375 8.796875 
L 46.6875 54.6875 
L 56.203125 54.6875 
L 35.6875 0 
L 23.484375 0 
z
" id="DejaVuSans-118"/>
      <path d="M 56.203125 29.59375 
L 56.203125 25.203125 
L 14.890625 25.203125 
Q 15.484375 15.921875 20.484375 11.0625 
Q 25.484375 6.203125 34.421875 6.203125 
Q 39.59375 6.203125 44.453125 7.46875 
Q 49.3125 8.734375 54.109375 11.28125 
L 54.109375 2.78125 
Q 49.265625 0.734375 44.1875 -0.34375 
Q 39.109375 -1.421875 33.890625 -1.421875 
Q 20.796875 -1.421875 13.15625 6.1875 
Q 5.515625 13.8125 5.515625 26.8125 
Q 5.515625 40.234375 12.765625 48.109375 
Q 20.015625 56 32.328125 56 
Q 43.359375 56 49.78125 48.890625 
Q 56.203125 41.796875 56.203125 29.59375 
z
M 47.21875 32.234375 
Q 47.125 39.59375 43.09375 43.984375 
Q 39.0625 48.390625 32.421875 48.390625 
Q 24.90625 48.390625 20.390625 44.140625 
Q 15.875 39.890625 15.1875 32.171875 
z
" id="DejaVuSans-101"/>
      <path d="M 41.109375 46.296875 
Q 39.59375 47.171875 37.8125 47.578125 
Q 36.03125 48 33.890625 48 
Q 26.265625 48 22.1875 43.046875 
Q 18.109375 38.09375 18.109375 28.8125 
L 18.109375 0 
L 9.078125 0 
L 9.078125 54.6875 
L 18.109375 54.6875 
L 18.109375 46.1875 
Q 20.953125 51.171875 25.484375 53.578125 
Q 30.03125 56 36.53125 56 
Q 37.453125 56 38.578125 55.875 
Q 39.703125 55.765625 41.0625 55.515625 
z
" id="DejaVuSans-114"/>
      <path d="M 34.28125 27.484375 
Q 23.390625 27.484375 19.1875 25 
Q 14.984375 22.515625 14.984375 16.5 
Q 14.984375 11.71875 18.140625 8.90625 
Q 21.296875 6.109375 26.703125 6.109375 
Q 34.1875 6.109375 38.703125 11.40625 
Q 43.21875 16.703125 43.21875 25.484375 
L 43.21875 27.484375 
z
M 52.203125 31.203125 
L 52.203125 0 
L 43.21875 0 
L 43.21875 8.296875 
Q 40.140625 3.328125 35.546875 0.953125 
Q 30.953125 -1.421875 24.3125 -1.421875 
Q 15.921875 -1.421875 10.953125 3.296875 
Q 6 8.015625 6 15.921875 
Q 6 25.140625 12.171875 29.828125 
Q 18.359375 34.515625 30.609375 34.515625 
L 43.21875 34.515625 
L 43.21875 35.40625 
Q 43.21875 41.609375 39.140625 45 
Q 35.0625 48.390625 27.6875 48.390625 
Q 23 48.390625 18.546875 47.265625 
Q 14.109375 46.140625 10.015625 43.890625 
L 10.015625 52.203125 
Q 14.9375 54.109375 19.578125 55.046875 
Q 24.21875 56 28.609375 56 
Q 40.484375 56 46.34375 49.84375 
Q 52.203125 43.703125 52.203125 31.203125 
z
" id="DejaVuSans-97"/>
      <path d="M 45.40625 27.984375 
Q 45.40625 37.75 41.375 43.109375 
Q 37.359375 48.484375 30.078125 48.484375 
Q 22.859375 48.484375 18.828125 43.109375 
Q 14.796875 37.75 14.796875 27.984375 
Q 14.796875 18.265625 18.828125 12.890625 
Q 22.859375 7.515625 30.078125 7.515625 
Q 37.359375 7.515625 41.375 12.890625 
Q 45.40625 18.265625 45.40625 27.984375 
z
M 54.390625 6.78125 
Q 54.390625 -7.171875 48.1875 -13.984375 
Q 42 -20.796875 29.203125 -20.796875 
Q 24.46875 -20.796875 20.265625 -20.09375 
Q 16.0625 -19.390625 12.109375 -17.921875 
L 12.109375 -9.1875 
Q 16.0625 -11.328125 19.921875 -12.34375 
Q 23.78125 -13.375 27.78125 -13.375 
Q 36.625 -13.375 41.015625 -8.765625 
Q 45.40625 -4.15625 45.40625 5.171875 
L 45.40625 9.625 
Q 42.625 4.78125 38.28125 2.390625 
Q 33.9375 0 27.875 0 
Q 17.828125 0 11.671875 7.65625 
Q 5.515625 15.328125 5.515625 27.984375 
Q 5.515625 40.671875 11.671875 48.328125 
Q 17.828125 56 27.875 56 
Q 33.9375 56 38.28125 53.609375 
Q 42.625 51.21875 45.40625 46.390625 
L 45.40625 54.6875 
L 54.390625 54.6875 
z
" id="DejaVuSans-103"/>
      <path id="DejaVuSans-32"/>
      <path d="M 30.609375 48.390625 
Q 23.390625 48.390625 19.1875 42.75 
Q 14.984375 37.109375 14.984375 27.296875 
Q 14.984375 17.484375 19.15625 11.84375 
Q 23.34375 6.203125 30.609375 6.203125 
Q 37.796875 6.203125 41.984375 11.859375 
Q 46.1875 17.53125 46.1875 27.296875 
Q 46.1875 37.015625 41.984375 42.703125 
Q 37.796875 48.390625 30.609375 48.390625 
z
M 30.609375 56 
Q 42.328125 56 49.015625 48.375 
Q 55.71875 40.765625 55.71875 27.296875 
Q 55.71875 13.875 49.015625 6.21875 
Q 42.328125 -1.421875 30.609375 -1.421875 
Q 18.84375 -1.421875 12.171875 6.21875 
Q 5.515625 13.875 5.515625 27.296875 
Q 5.515625 40.765625 12.171875 48.375 
Q 18.84375 56 30.609375 56 
z
" id="DejaVuSans-111"/>
      <path d="M 37.109375 75.984375 
L 37.109375 68.5 
L 28.515625 68.5 
Q 23.6875 68.5 21.796875 66.546875 
Q 19.921875 64.59375 19.921875 59.515625 
L 19.921875 54.6875 
L 34.71875 54.6875 
L 34.71875 47.703125 
L 19.921875 47.703125 
L 19.921875 0 
L 10.890625 0 
L 10.890625 47.703125 
L 2.296875 47.703125 
L 2.296875 54.6875 
L 10.890625 54.6875 
L 10.890625 58.5 
Q 10.890625 67.625 15.140625 71.796875 
Q 19.390625 75.984375 28.609375 75.984375 
z
" id="DejaVuSans-102"/>
      <path d="M 19.671875 64.796875 
L 19.671875 37.40625 
L 32.078125 37.40625 
Q 38.96875 37.40625 42.71875 40.96875 
Q 46.484375 44.53125 46.484375 51.125 
Q 46.484375 57.671875 42.71875 61.234375 
Q 38.96875 64.796875 32.078125 64.796875 
z
M 9.8125 72.90625 
L 32.078125 72.90625 
Q 44.34375 72.90625 50.609375 67.359375 
Q 56.890625 61.8125 56.890625 51.125 
Q 56.890625 40.328125 50.609375 34.8125 
Q 44.34375 29.296875 32.078125 29.296875 
L 19.671875 29.296875 
L 19.671875 0 
L 9.8125 0 
z
" id="DejaVuSans-80"/>
      <path d="M 8.203125 72.90625 
L 55.078125 72.90625 
L 55.078125 68.703125 
L 28.609375 0 
L 18.3125 0 
L 43.21875 64.59375 
L 8.203125 64.59375 
z
" id="DejaVuSans-55"/>
      <path d="M 9.8125 72.90625 
L 55.90625 72.90625 
L 55.90625 64.59375 
L 19.671875 64.59375 
L 19.671875 43.015625 
L 54.390625 43.015625 
L 54.390625 34.71875 
L 19.671875 34.71875 
L 19.671875 8.296875 
L 56.78125 8.296875 
L 56.78125 0 
L 9.8125 0 
z
" id="DejaVuSans-69"/>
      <path d="M 18.109375 8.203125 
L 18.109375 -20.796875 
L 9.078125 -20.796875 
L 9.078125 54.6875 
L 18.109375 54.6875 
L 18.109375 46.390625 
Q 20.953125 51.265625 25.265625 53.625 
Q 29.59375 56 35.59375 56 
Q 45.5625 56 51.78125 48.09375 
Q 58.015625 40.1875 58.015625 27.296875 
Q 58.015625 14.40625 51.78125 6.484375 
Q 45.5625 -1.421875 35.59375 -1.421875 
Q 29.59375 -1.421875 25.265625 0.953125 
Q 20.953125 3.328125 18.109375 8.203125 
z
M 48.6875 27.296875 
Q 48.6875 37.203125 44.609375 42.84375 
Q 40.53125 48.484375 33.40625 48.484375 
Q 26.265625 48.484375 22.1875 42.84375 
Q 18.109375 37.203125 18.109375 27.296875 
Q 18.109375 17.390625 22.1875 11.75 
Q 26.265625 6.109375 33.40625 6.109375 
Q 40.53125 6.109375 44.609375 11.75 
Q 48.6875 17.390625 48.6875 27.296875 
z
" id="DejaVuSans-112"/>
      <path d="M 9.421875 54.6875 
L 18.40625 54.6875 
L 18.40625 0 
L 9.421875 0 
z
M 9.421875 75.984375 
L 18.40625 75.984375 
L 18.40625 64.59375 
L 9.421875 64.59375 
z
" id="DejaVuSans-105"/>
      <path d="M 44.28125 53.078125 
L 44.28125 44.578125 
Q 40.484375 46.53125 36.375 47.5 
Q 32.28125 48.484375 27.875 48.484375 
Q 21.1875 48.484375 17.84375 46.4375 
Q 14.5 44.390625 14.5 40.28125 
Q 14.5 37.15625 16.890625 35.375 
Q 19.28125 33.59375 26.515625 31.984375 
L 29.59375 31.296875 
Q 39.15625 29.25 43.1875 25.515625 
Q 47.21875 21.78125 47.21875 15.09375 
Q 47.21875 7.46875 41.1875 3.015625 
Q 35.15625 -1.421875 24.609375 -1.421875 
Q 20.21875 -1.421875 15.453125 -0.5625 
Q 10.6875 0.296875 5.421875 2 
L 5.421875 11.28125 
Q 10.40625 8.6875 15.234375 7.390625 
Q 20.0625 6.109375 24.8125 6.109375 
Q 31.15625 6.109375 34.5625 8.28125 
Q 37.984375 10.453125 37.984375 14.40625 
Q 37.984375 18.0625 35.515625 20.015625 
Q 33.0625 21.96875 24.703125 23.78125 
L 21.578125 24.515625 
Q 13.234375 26.265625 9.515625 29.90625 
Q 5.8125 33.546875 5.8125 39.890625 
Q 5.8125 47.609375 11.28125 51.796875 
Q 16.75 56 26.8125 56 
Q 31.78125 56 36.171875 55.265625 
Q 40.578125 54.546875 44.28125 53.078125 
z
" id="DejaVuSans-115"/>
      <path d="M 45.40625 46.390625 
L 45.40625 75.984375 
L 54.390625 75.984375 
L 54.390625 0 
L 45.40625 0 
L 45.40625 8.203125 
Q 42.578125 3.328125 38.25 0.953125 
Q 33.9375 -1.421875 27.875 -1.421875 
Q 17.96875 -1.421875 11.734375 6.484375 
Q 5.515625 14.40625 5.515625 27.296875 
Q 5.515625 40.1875 11.734375 48.09375 
Q 17.96875 56 27.875 56 
Q 33.9375 56 38.25 53.625 
Q 42.578125 51.265625 45.40625 46.390625 
z
M 14.796875 27.296875 
Q 14.796875 17.390625 18.875 11.75 
Q 22.953125 6.109375 30.078125 6.109375 
Q 37.203125 6.109375 41.296875 11.75 
Q 45.40625 17.390625 45.40625 27.296875 
Q 45.40625 37.203125 41.296875 42.84375 
Q 37.203125 48.484375 30.078125 48.484375 
Q 22.953125 48.484375 18.875 42.84375 
Q 14.796875 37.203125 14.796875 27.296875 
z
" id="DejaVuSans-100"/>
     </defs>
     <g transform="translate(158.363281 332.636562)scale(0.1 -0.1)">
      <use xlink:href="#DejaVuSans-65"/>
      <use x="62.533203" xlink:href="#DejaVuSans-118"/>
      <use x="121.712891" xlink:href="#DejaVuSans-101"/>
      <use x="183.236328" xlink:href="#DejaVuSans-114"/>
      <use x="224.349609" xlink:href="#DejaVuSans-97"/>
      <use x="285.628906" xlink:href="#DejaVuSans-103"/>
      <use x="349.105469" xlink:href="#DejaVuSans-101"/>
      <use x="410.628906" xlink:href="#DejaVuSans-32"/>
      <use x="442.416016" xlink:href="#DejaVuSans-111"/>
      <use x="503.597656" xlink:href="#DejaVuSans-102"/>
      <use x="538.802734" xlink:href="#DejaVuSans-32"/>
      <use x="570.589844" xlink:href="#DejaVuSans-80"/>
      <use x="627.267578" xlink:href="#DejaVuSans-101"/>
      <use x="688.791016" xlink:href="#DejaVuSans-114"/>
      <use x="729.904297" xlink:href="#DejaVuSans-32"/>
      <use x="761.691406" xlink:href="#DejaVuSans-55"/>
      <use x="825.314453" xlink:href="#DejaVuSans-53"/>
      <use x="888.9375" xlink:href="#DejaVuSans-48"/>
      <use x="952.560547" xlink:href="#DejaVuSans-48"/>
      <use x="1016.183594" xlink:href="#DejaVuSans-32"/>
      <use x="1047.970703" xlink:href="#DejaVuSans-69"/>
      <use x="1111.154297" xlink:href="#DejaVuSans-112"/>
      <use x="1174.630859" xlink:href="#DejaVuSans-105"/>
      <use x="1202.414062" xlink:href="#DejaVuSans-115"/>
      <use x="1254.513672" xlink:href="#DejaVuSans-111"/>
      <use x="1315.695312" xlink:href="#DejaVuSans-100"/>
      <use x="1379.171875" xlink:href="#DejaVuSans-101"/>
     </g>
    </g>
   </g>
   <g id="matplotlib.axis_2">
    <g id="ytick_1">
     <g id="line2d_8">
      <defs>
       <path d="M 0 0 
L -3.5 0 
" id="m7660d9c060" style="stroke:#000000;stroke-width:0.8;"/>
      </defs>
      <g>
       <use style="stroke:#000000;stroke-width:0.8;" x="63.245" xlink:href="#m7660d9c060" y="291.051197"/>
      </g>
     </g>
     <g id="text_9">
      <!-- 0 -->
      <g style="fill:#ff0000;" transform="translate(49.8825 294.850416)scale(0.1 -0.1)">
       <use xlink:href="#DejaVuSans-48"/>
      </g>
     </g>
    </g>
    <g id="ytick_2">
     <g id="line2d_9">
      <g>
       <use style="stroke:#000000;stroke-width:0.8;" x="63.245" xlink:href="#m7660d9c060" y="240.087979"/>
      </g>
     </g>
     <g id="text_10">
      <!-- 2000 -->
      <g style="fill:#ff0000;" transform="translate(30.795 243.887198)scale(0.1 -0.1)">
       <use xlink:href="#DejaVuSans-50"/>
       <use x="63.623047" xlink:href="#DejaVuSans-48"/>
       <use x="127.246094" xlink:href="#DejaVuSans-48"/>
       <use x="190.869141" xlink:href="#DejaVuSans-48"/>
      </g>
     </g>
    </g>
    <g id="ytick_3">
     <g id="line2d_10">
      <g>
       <use style="stroke:#000000;stroke-width:0.8;" x="63.245" xlink:href="#m7660d9c060" y="189.124762"/>
      </g>
     </g>
     <g id="text_11">
      <!-- 4000 -->
      <defs>
       <path d="M 37.796875 64.3125 
L 12.890625 25.390625 
L 37.796875 25.390625 
z
M 35.203125 72.90625 
L 47.609375 72.90625 
L 47.609375 25.390625 
L 58.015625 25.390625 
L 58.015625 17.1875 
L 47.609375 17.1875 
L 47.609375 0 
L 37.796875 0 
L 37.796875 17.1875 
L 4.890625 17.1875 
L 4.890625 26.703125 
z
" id="DejaVuSans-52"/>
      </defs>
      <g style="fill:#ff0000;" transform="translate(30.795 192.92398)scale(0.1 -0.1)">
       <use xlink:href="#DejaVuSans-52"/>
       <use x="63.623047" xlink:href="#DejaVuSans-48"/>
       <use x="127.246094" xlink:href="#DejaVuSans-48"/>
       <use x="190.869141" xlink:href="#DejaVuSans-48"/>
      </g>
     </g>
    </g>
    <g id="ytick_4">
     <g id="line2d_11">
      <g>
       <use style="stroke:#000000;stroke-width:0.8;" x="63.245" xlink:href="#m7660d9c060" y="138.161544"/>
      </g>
     </g>
     <g id="text_12">
      <!-- 6000 -->
      <defs>
       <path d="M 33.015625 40.375 
Q 26.375 40.375 22.484375 35.828125 
Q 18.609375 31.296875 18.609375 23.390625 
Q 18.609375 15.53125 22.484375 10.953125 
Q 26.375 6.390625 33.015625 6.390625 
Q 39.65625 6.390625 43.53125 10.953125 
Q 47.40625 15.53125 47.40625 23.390625 
Q 47.40625 31.296875 43.53125 35.828125 
Q 39.65625 40.375 33.015625 40.375 
z
M 52.59375 71.296875 
L 52.59375 62.3125 
Q 48.875 64.0625 45.09375 64.984375 
Q 41.3125 65.921875 37.59375 65.921875 
Q 27.828125 65.921875 22.671875 59.328125 
Q 17.53125 52.734375 16.796875 39.40625 
Q 19.671875 43.65625 24.015625 45.921875 
Q 28.375 48.1875 33.59375 48.1875 
Q 44.578125 48.1875 50.953125 41.515625 
Q 57.328125 34.859375 57.328125 23.390625 
Q 57.328125 12.15625 50.6875 5.359375 
Q 44.046875 -1.421875 33.015625 -1.421875 
Q 20.359375 -1.421875 13.671875 8.265625 
Q 6.984375 17.96875 6.984375 36.375 
Q 6.984375 53.65625 15.1875 63.9375 
Q 23.390625 74.21875 37.203125 74.21875 
Q 40.921875 74.21875 44.703125 73.484375 
Q 48.484375 72.75 52.59375 71.296875 
z
" id="DejaVuSans-54"/>
      </defs>
      <g style="fill:#ff0000;" transform="translate(30.795 141.960762)scale(0.1 -0.1)">
       <use xlink:href="#DejaVuSans-54"/>
       <use x="63.623047" xlink:href="#DejaVuSans-48"/>
       <use x="127.246094" xlink:href="#DejaVuSans-48"/>
       <use x="190.869141" xlink:href="#DejaVuSans-48"/>
      </g>
     </g>
    </g>
    <g id="ytick_5">
     <g id="line2d_12">
      <g>
       <use style="stroke:#000000;stroke-width:0.8;" x="63.245" xlink:href="#m7660d9c060" y="87.198326"/>
      </g>
     </g>
     <g id="text_13">
      <!-- 8000 -->
      <defs>
       <path d="M 31.78125 34.625 
Q 24.75 34.625 20.71875 30.859375 
Q 16.703125 27.09375 16.703125 20.515625 
Q 16.703125 13.921875 20.71875 10.15625 
Q 24.75 6.390625 31.78125 6.390625 
Q 38.8125 6.390625 42.859375 10.171875 
Q 46.921875 13.96875 46.921875 20.515625 
Q 46.921875 27.09375 42.890625 30.859375 
Q 38.875 34.625 31.78125 34.625 
z
M 21.921875 38.8125 
Q 15.578125 40.375 12.03125 44.71875 
Q 8.5 49.078125 8.5 55.328125 
Q 8.5 64.0625 14.71875 69.140625 
Q 20.953125 74.21875 31.78125 74.21875 
Q 42.671875 74.21875 48.875 69.140625 
Q 55.078125 64.0625 55.078125 55.328125 
Q 55.078125 49.078125 51.53125 44.71875 
Q 48 40.375 41.703125 38.8125 
Q 48.828125 37.15625 52.796875 32.3125 
Q 56.78125 27.484375 56.78125 20.515625 
Q 56.78125 9.90625 50.3125 4.234375 
Q 43.84375 -1.421875 31.78125 -1.421875 
Q 19.734375 -1.421875 13.25 4.234375 
Q 6.78125 9.90625 6.78125 20.515625 
Q 6.78125 27.484375 10.78125 32.3125 
Q 14.796875 37.15625 21.921875 38.8125 
z
M 18.3125 54.390625 
Q 18.3125 48.734375 21.84375 45.5625 
Q 25.390625 42.390625 31.78125 42.390625 
Q 38.140625 42.390625 41.71875 45.5625 
Q 45.3125 48.734375 45.3125 54.390625 
Q 45.3125 60.0625 41.71875 63.234375 
Q 38.140625 66.40625 31.78125 66.40625 
Q 25.390625 66.40625 21.84375 63.234375 
Q 18.3125 60.0625 18.3125 54.390625 
z
" id="DejaVuSans-56"/>
      </defs>
      <g style="fill:#ff0000;" transform="translate(30.795 90.997545)scale(0.1 -0.1)">
       <use xlink:href="#DejaVuSans-56"/>
       <use x="63.623047" xlink:href="#DejaVuSans-48"/>
       <use x="127.246094" xlink:href="#DejaVuSans-48"/>
       <use x="190.869141" xlink:href="#DejaVuSans-48"/>
      </g>
     </g>
    </g>
    <g id="ytick_6">
     <g id="line2d_13">
      <g>
       <use style="stroke:#000000;stroke-width:0.8;" x="63.245" xlink:href="#m7660d9c060" y="36.235108"/>
      </g>
     </g>
     <g id="text_14">
      <!-- 10000 -->
      <g style="fill:#ff0000;" transform="translate(24.4325 40.034327)scale(0.1 -0.1)">
       <use xlink:href="#DejaVuSans-49"/>
       <use x="63.623047" xlink:href="#DejaVuSans-48"/>
       <use x="127.246094" xlink:href="#DejaVuSans-48"/>
       <use x="190.869141" xlink:href="#DejaVuSans-48"/>
       <use x="254.492188" xlink:href="#DejaVuSans-48"/>
      </g>
     </g>
    </g>
    <g id="text_15">
     <!-- Demand -->
     <defs>
      <path d="M 19.671875 64.796875 
L 19.671875 8.109375 
L 31.59375 8.109375 
Q 46.6875 8.109375 53.6875 14.9375 
Q 60.6875 21.78125 60.6875 36.53125 
Q 60.6875 51.171875 53.6875 57.984375 
Q 46.6875 64.796875 31.59375 64.796875 
z
M 9.8125 72.90625 
L 30.078125 72.90625 
Q 51.265625 72.90625 61.171875 64.09375 
Q 71.09375 55.28125 71.09375 36.53125 
Q 71.09375 17.671875 61.125 8.828125 
Q 51.171875 0 30.078125 0 
L 9.8125 0 
z
" id="DejaVuSans-68"/>
      <path d="M 52 44.1875 
Q 55.375 50.25 60.0625 53.125 
Q 64.75 56 71.09375 56 
Q 79.640625 56 84.28125 50.015625 
Q 88.921875 44.046875 88.921875 33.015625 
L 88.921875 0 
L 79.890625 0 
L 79.890625 32.71875 
Q 79.890625 40.578125 77.09375 44.375 
Q 74.3125 48.1875 68.609375 48.1875 
Q 61.625 48.1875 57.5625 43.546875 
Q 53.515625 38.921875 53.515625 30.90625 
L 53.515625 0 
L 44.484375 0 
L 44.484375 32.71875 
Q 44.484375 40.625 41.703125 44.40625 
Q 38.921875 48.1875 33.109375 48.1875 
Q 26.21875 48.1875 22.15625 43.53125 
Q 18.109375 38.875 18.109375 30.90625 
L 18.109375 0 
L 9.078125 0 
L 9.078125 54.6875 
L 18.109375 54.6875 
L 18.109375 46.1875 
Q 21.1875 51.21875 25.484375 53.609375 
Q 29.78125 56 35.6875 56 
Q 41.65625 56 45.828125 52.96875 
Q 50 49.953125 52 44.1875 
z
" id="DejaVuSans-109"/>
      <path d="M 54.890625 33.015625 
L 54.890625 0 
L 45.90625 0 
L 45.90625 32.71875 
Q 45.90625 40.484375 42.875 44.328125 
Q 39.84375 48.1875 33.796875 48.1875 
Q 26.515625 48.1875 22.3125 43.546875 
Q 18.109375 38.921875 18.109375 30.90625 
L 18.109375 0 
L 9.078125 0 
L 9.078125 54.6875 
L 18.109375 54.6875 
L 18.109375 46.1875 
Q 21.34375 51.125 25.703125 53.5625 
Q 30.078125 56 35.796875 56 
Q 45.21875 56 50.046875 50.171875 
Q 54.890625 44.34375 54.890625 33.015625 
z
" id="DejaVuSans-110"/>
     </defs>
     <g style="fill:#ff0000;" transform="translate(18.352813 178.783906)rotate(-90)scale(0.1 -0.1)">
      <use xlink:href="#DejaVuSans-68"/>
      <use x="77.001953" xlink:href="#DejaVuSans-101"/>
      <use x="138.525391" xlink:href="#DejaVuSans-109"/>
      <use x="235.9375" xlink:href="#DejaVuSans-97"/>
      <use x="297.216797" xlink:href="#DejaVuSans-110"/>
      <use x="360.595703" xlink:href="#DejaVuSans-100"/>
     </g>
    </g>
   </g>
   <g id="line2d_14">
    <path clip-path="url(#p5a9dd7ec52)" d="M 78.440909 291.016364 
L 79.457358 24.287219 
L 80.473807 24.580997 
L 82.506704 24.258431 
L 83.523153 24.686395 
L 84.539602 24.341536 
L 85.55605 24.389525 
L 86.572499 24.590905 
L 88.605397 24.436291 
L 89.621846 24.467332 
L 90.638294 24.356751 
L 91.654743 24.365915 
L 92.671192 24.524321 
L 96.736987 24.48528 
L 97.753436 24.232116 
L 98.769884 24.502616 
L 99.786333 24.600755 
L 100.802782 24.563579 
L 101.819231 24.412424 
L 102.83568 24.510821 
L 103.852128 24.421545 
L 104.868577 24.511057 
L 106.901475 24.329647 
L 108.934372 24.591602 
L 109.950821 24.667273 
L 110.96727 24.47563 
L 111.983718 24.627927 
L 113.000167 24.495858 
L 114.016616 24.483893 
L 116.049514 24.691774 
L 117.065962 24.354096 
L 119.09886 24.476386 
L 126.214001 24.440401 
L 127.23045 24.694108 
L 128.246899 24.359591 
L 129.263348 24.341104 
L 130.279796 24.534723 
L 133.329143 24.35887 
L 135.36204 24.386126 
L 136.378489 24.372041 
L 137.394938 24.6091 
L 139.427835 24.258243 
L 140.444284 24.451166 
L 143.49363 24.459243 
L 149.592323 24.529254 
L 151.62522 24.708619 
L 152.641669 24.448288 
L 153.658118 24.362712 
L 154.674567 24.55266 
L 156.707464 24.444297 
L 157.723913 24.458466 
L 158.740362 24.590982 
L 161.789708 24.425899 
L 162.806157 24.516561 
L 163.822606 24.375073 
L 164.839054 24.529908 
L 165.855503 24.440257 
L 167.888401 24.4721 
L 168.904849 24.424238 
L 169.921298 24.504437 
L 172.970645 24.461267 
L 175.003542 24.603936 
L 176.019991 24.549669 
L 177.03644 24.374155 
L 179.069337 24.568125 
L 180.085786 24.236174 
L 182.118683 24.666936 
L 184.151581 24.631528 
L 186.184479 24.510828 
L 187.200927 24.572422 
L 188.217376 24.335724 
L 189.233825 24.429967 
L 190.250274 24.374472 
L 192.283171 24.523499 
L 193.29962 24.478081 
L 194.316069 24.651424 
L 195.332517 24.495705 
L 196.348966 24.508088 
L 197.365415 24.388012 
L 199.398313 24.542004 
L 201.43121 24.460565 
L 202.447659 24.345009 
L 204.480556 24.59814 
L 205.497005 24.315529 
L 206.513454 24.63679 
L 208.546351 24.143636 
L 209.5628 24.447389 
L 212.612147 24.522626 
L 213.628595 24.329635 
L 215.661493 24.573078 
L 216.677942 24.362693 
L 218.710839 24.626233 
L 219.727288 24.488889 
L 221.760185 24.697418 
L 224.809532 24.448177 
L 226.842429 24.488603 
L 228.875327 24.318437 
L 229.891776 24.523101 
L 230.908224 24.606739 
L 233.957571 24.363786 
L 234.974019 24.650513 
L 237.006917 24.485464 
L 239.039815 24.308294 
L 240.056263 24.532884 
L 241.072712 24.316754 
L 243.10561 24.631035 
L 244.122058 24.316776 
L 245.138507 24.518666 
L 247.171405 24.545906 
L 249.204302 24.43528 
L 252.253649 24.533708 
L 254.286546 24.549847 
L 269.533278 24.416083 
L 271.566175 24.659176 
L 273.599073 24.439192 
L 274.615521 24.605056 
L 276.648419 24.462023 
L 277.664868 24.284592 
L 278.681317 24.251561 
L 279.697765 24.598304 
L 283.76356 24.430178 
L 284.780009 24.537596 
L 286.812907 24.366077 
L 287.829355 24.483551 
L 288.845804 24.445815 
L 289.862253 24.292241 
L 290.878702 24.539673 
L 291.895151 24.646799 
L 292.911599 24.440947 
L 297.993843 24.540875 
L 300.026741 24.263504 
L 302.059638 24.530253 
L 304.092536 24.687495 
L 306.125433 24.502243 
L 307.141882 24.594069 
L 311.207677 24.383606 
L 313.240575 24.611208 
L 315.273472 24.492621 
L 316.289921 24.684599 
L 318.322818 24.301445 
L 319.339267 24.52725 
L 320.355716 24.442829 
L 321.372165 24.504725 
L 322.388614 24.336011 
L 323.405062 24.506373 
L 325.43796 24.405851 
L 326.454409 24.537687 
L 329.503755 24.420316 
L 330.520204 24.475932 
L 331.536652 24.386577 
L 332.553101 24.455807 
L 333.56955 24.686972 
L 334.585999 24.502721 
L 336.618896 24.605952 
L 338.651794 24.264762 
L 339.668243 24.545064 
L 341.70114 24.664932 
L 346.783384 24.44952 
L 349.83273 24.680964 
L 350.849179 24.480357 
L 351.865628 24.577969 
L 352.882077 24.439076 
L 354.914974 24.467243 
L 355.931423 24.51005 
L 356.947872 24.422684 
L 357.96432 24.522532 
L 358.980769 24.40153 
L 359.997218 24.569074 
L 362.030116 24.48143 
L 363.046564 24.652302 
L 365.079462 24.411262 
L 366.095911 24.545605 
L 368.128808 24.272631 
L 369.145257 24.488766 
L 372.194603 24.580425 
L 375.24395 24.535375 
L 378.293296 24.37455 
L 379.309745 24.487011 
L 380.326193 24.432773 
L 381.342642 24.518682 
L 382.359091 24.317722 
L 382.359091 24.317722 
" style="fill:none;stroke:#ff0000;stroke-linecap:square;stroke-width:1.5;"/>
   </g>
   <g id="patch_3">
    <path d="M 63.245 304.36 
L 63.245 10.8 
" style="fill:none;stroke:#000000;stroke-linecap:square;stroke-linejoin:miter;stroke-width:0.8;"/>
   </g>
   <g id="patch_4">
    <path d="M 397.555 304.36 
L 397.555 10.8 
" style="fill:none;stroke:#000000;stroke-linecap:square;stroke-linejoin:miter;stroke-width:0.8;"/>
   </g>
   <g id="patch_5">
    <path d="M 63.245 304.36 
L 397.555 304.36 
" style="fill:none;stroke:#000000;stroke-linecap:square;stroke-linejoin:miter;stroke-width:0.8;"/>
   </g>
   <g id="patch_6">
    <path d="M 63.245 10.8 
L 397.555 10.8 
" style="fill:none;stroke:#000000;stroke-linecap:square;stroke-linejoin:miter;stroke-width:0.8;"/>
   </g>
  </g>
  <g id="axes_2">
   <g id="matplotlib.axis_3">
    <g id="ytick_7">
     <g id="line2d_15">
      <defs>
       <path d="M 0 0 
L 3.5 0 
" id="maeed94b78b" style="stroke:#000000;stroke-width:0.8;"/>
      </defs>
      <g>
       <use style="stroke:#000000;stroke-width:0.8;" x="397.555" xlink:href="#maeed94b78b" y="291.039017"/>
      </g>
     </g>
     <g id="text_16">
      <!-- 0 -->
      <g style="fill:#0000ff;" transform="translate(404.555 294.838235)scale(0.1 -0.1)">
       <use xlink:href="#DejaVuSans-48"/>
      </g>
     </g>
    </g>
    <g id="ytick_8">
     <g id="line2d_16">
      <g>
       <use style="stroke:#000000;stroke-width:0.8;" x="397.555" xlink:href="#maeed94b78b" y="229.198969"/>
      </g>
     </g>
     <g id="text_17">
      <!-- 100 -->
      <g style="fill:#0000ff;" transform="translate(404.555 232.998187)scale(0.1 -0.1)">
       <use xlink:href="#DejaVuSans-49"/>
       <use x="63.623047" xlink:href="#DejaVuSans-48"/>
       <use x="127.246094" xlink:href="#DejaVuSans-48"/>
      </g>
     </g>
    </g>
    <g id="ytick_9">
     <g id="line2d_17">
      <g>
       <use style="stroke:#000000;stroke-width:0.8;" x="397.555" xlink:href="#maeed94b78b" y="167.358921"/>
      </g>
     </g>
     <g id="text_18">
      <!-- 200 -->
      <g style="fill:#0000ff;" transform="translate(404.555 171.158139)scale(0.1 -0.1)">
       <use xlink:href="#DejaVuSans-50"/>
       <use x="63.623047" xlink:href="#DejaVuSans-48"/>
       <use x="127.246094" xlink:href="#DejaVuSans-48"/>
      </g>
     </g>
    </g>
    <g id="ytick_10">
     <g id="line2d_18">
      <g>
       <use style="stroke:#000000;stroke-width:0.8;" x="397.555" xlink:href="#maeed94b78b" y="105.518873"/>
      </g>
     </g>
     <g id="text_19">
      <!-- 300 -->
      <g style="fill:#0000ff;" transform="translate(404.555 109.318091)scale(0.1 -0.1)">
       <use xlink:href="#DejaVuSans-51"/>
       <use x="63.623047" xlink:href="#DejaVuSans-48"/>
       <use x="127.246094" xlink:href="#DejaVuSans-48"/>
      </g>
     </g>
    </g>
    <g id="ytick_11">
     <g id="line2d_19">
      <g>
       <use style="stroke:#000000;stroke-width:0.8;" x="397.555" xlink:href="#maeed94b78b" y="43.678825"/>
      </g>
     </g>
     <g id="text_20">
      <!-- 400 -->
      <g style="fill:#0000ff;" transform="translate(404.555 47.478043)scale(0.1 -0.1)">
       <use xlink:href="#DejaVuSans-52"/>
       <use x="63.623047" xlink:href="#DejaVuSans-48"/>
       <use x="127.246094" xlink:href="#DejaVuSans-48"/>
      </g>
     </g>
    </g>
    <g id="text_21">
     <!-- Demand-Supply -->
     <defs>
      <path d="M 4.890625 31.390625 
L 31.203125 31.390625 
L 31.203125 23.390625 
L 4.890625 23.390625 
z
" id="DejaVuSans-45"/>
      <path d="M 53.515625 70.515625 
L 53.515625 60.890625 
Q 47.90625 63.578125 42.921875 64.890625 
Q 37.9375 66.21875 33.296875 66.21875 
Q 25.25 66.21875 20.875 63.09375 
Q 16.5 59.96875 16.5 54.203125 
Q 16.5 49.359375 19.40625 46.890625 
Q 22.3125 44.4375 30.421875 42.921875 
L 36.375 41.703125 
Q 47.40625 39.59375 52.65625 34.296875 
Q 57.90625 29 57.90625 20.125 
Q 57.90625 9.515625 50.796875 4.046875 
Q 43.703125 -1.421875 29.984375 -1.421875 
Q 24.8125 -1.421875 18.96875 -0.25 
Q 13.140625 0.921875 6.890625 3.21875 
L 6.890625 13.375 
Q 12.890625 10.015625 18.65625 8.296875 
Q 24.421875 6.59375 29.984375 6.59375 
Q 38.421875 6.59375 43.015625 9.90625 
Q 47.609375 13.234375 47.609375 19.390625 
Q 47.609375 24.75 44.3125 27.78125 
Q 41.015625 30.8125 33.5 32.328125 
L 27.484375 33.5 
Q 16.453125 35.6875 11.515625 40.375 
Q 6.59375 45.0625 6.59375 53.421875 
Q 6.59375 63.09375 13.40625 68.65625 
Q 20.21875 74.21875 32.171875 74.21875 
Q 37.3125 74.21875 42.625 73.28125 
Q 47.953125 72.359375 53.515625 70.515625 
z
" id="DejaVuSans-83"/>
      <path d="M 8.5 21.578125 
L 8.5 54.6875 
L 17.484375 54.6875 
L 17.484375 21.921875 
Q 17.484375 14.15625 20.5 10.265625 
Q 23.53125 6.390625 29.59375 6.390625 
Q 36.859375 6.390625 41.078125 11.03125 
Q 45.3125 15.671875 45.3125 23.6875 
L 45.3125 54.6875 
L 54.296875 54.6875 
L 54.296875 0 
L 45.3125 0 
L 45.3125 8.40625 
Q 42.046875 3.421875 37.71875 1 
Q 33.40625 -1.421875 27.6875 -1.421875 
Q 18.265625 -1.421875 13.375 4.4375 
Q 8.5 10.296875 8.5 21.578125 
z
M 31.109375 56 
z
" id="DejaVuSans-117"/>
      <path d="M 9.421875 75.984375 
L 18.40625 75.984375 
L 18.40625 0 
L 9.421875 0 
z
" id="DejaVuSans-108"/>
      <path d="M 32.171875 -5.078125 
Q 28.375 -14.84375 24.75 -17.8125 
Q 21.140625 -20.796875 15.09375 -20.796875 
L 7.90625 -20.796875 
L 7.90625 -13.28125 
L 13.1875 -13.28125 
Q 16.890625 -13.28125 18.9375 -11.515625 
Q 21 -9.765625 23.484375 -3.21875 
L 25.09375 0.875 
L 2.984375 54.6875 
L 12.5 54.6875 
L 29.59375 11.921875 
L 46.6875 54.6875 
L 56.203125 54.6875 
z
" id="DejaVuSans-121"/>
     </defs>
     <g style="fill:#0000ff;" transform="translate(435.240938 197.627656)rotate(-90)scale(0.1 -0.1)">
      <use xlink:href="#DejaVuSans-68"/>
      <use x="77.001953" xlink:href="#DejaVuSans-101"/>
      <use x="138.525391" xlink:href="#DejaVuSans-109"/>
      <use x="235.9375" xlink:href="#DejaVuSans-97"/>
      <use x="297.216797" xlink:href="#DejaVuSans-110"/>
      <use x="360.595703" xlink:href="#DejaVuSans-100"/>
      <use x="424.072266" xlink:href="#DejaVuSans-45"/>
      <use x="460.15625" xlink:href="#DejaVuSans-83"/>
      <use x="523.632812" xlink:href="#DejaVuSans-117"/>
      <use x="587.011719" xlink:href="#DejaVuSans-112"/>
      <use x="650.488281" xlink:href="#DejaVuSans-112"/>
      <use x="713.964844" xlink:href="#DejaVuSans-108"/>
      <use x="741.748047" xlink:href="#DejaVuSans-121"/>
     </g>
    </g>
   </g>
   <g id="line2d_20">
    <path clip-path="url(#p5a9dd7ec52)" d="M 78.440909 291.016364 
L 79.457358 59.203873 
L 80.473807 53.084113 
L 81.490255 38.821172 
L 82.506704 36.801327 
L 83.523153 56.788918 
L 84.539602 39.241591 
L 85.55605 42.458481 
L 86.572499 57.296982 
L 87.588948 48.272203 
L 88.605397 54.667735 
L 89.621846 41.264125 
L 90.638294 34.81701 
L 91.654743 45.221942 
L 92.671192 45.418994 
L 93.687641 53.278563 
L 94.704089 54.780217 
L 95.720538 50.655127 
L 96.736987 47.66815 
L 97.753436 28.840935 
L 98.769884 42.753721 
L 99.786333 59.519566 
L 100.802782 61.005063 
L 101.819231 35.87822 
L 102.83568 52.869852 
L 103.852128 54.852422 
L 104.868577 46.180731 
L 105.885026 34.798579 
L 106.901475 36.468526 
L 107.917923 54.564709 
L 108.934372 58.94499 
L 109.950821 71.646057 
L 110.96727 51.304353 
L 111.983718 52.962908 
L 113.000167 57.253678 
L 114.016616 56.643858 
L 115.033065 56.882739 
L 116.049514 63.682235 
L 117.065962 38.90003 
L 118.082411 43.953918 
L 119.09886 46.37111 
L 120.115309 48.327445 
L 121.131757 51.832633 
L 122.148206 43.13752 
L 123.164655 61.064724 
L 124.181104 46.671318 
L 125.197552 57.510852 
L 126.214001 57.761489 
L 127.23045 64.667779 
L 128.246899 37.758161 
L 129.263348 48.509726 
L 130.279796 54.967308 
L 131.296245 44.074437 
L 132.312694 36.869333 
L 133.329143 44.471788 
L 134.345591 44.217966 
L 135.36204 37.690156 
L 136.378489 41.731402 
L 137.394938 68.080311 
L 139.427835 29.766222 
L 140.444284 54.136361 
L 141.460733 47.849179 
L 142.477182 56.61198 
L 143.49363 55.075991 
L 144.510079 47.727658 
L 145.526528 52.683333 
L 147.559425 45.304075 
L 148.575874 53.455148 
L 149.592323 60.042253 
L 150.608772 68.838699 
L 151.62522 71.772271 
L 152.641669 48.860244 
L 153.658118 35.001083 
L 154.674567 55.988051 
L 156.707464 43.926682 
L 157.723913 46.580714 
L 158.740362 65.048045 
L 159.756811 56.054628 
L 160.773259 51.084922 
L 161.789708 49.066758 
L 162.806157 56.290443 
L 163.822606 36.749679 
L 164.839054 53.711157 
L 165.855503 46.612247 
L 166.871952 43.286267 
L 167.888401 47.133186 
L 168.904849 51.588443 
L 169.921298 50.186742 
L 170.937747 44.226356 
L 171.954196 51.834568 
L 172.970645 50.046931 
L 173.987093 58.703998 
L 175.003542 64.172851 
L 176.019991 55.133352 
L 177.03644 37.558172 
L 178.052888 44.965268 
L 179.069337 50.899163 
L 180.085786 27.780937 
L 181.102235 48.965019 
L 182.118683 63.827856 
L 184.151581 68.862371 
L 185.16803 59.654993 
L 186.184479 55.619501 
L 187.200927 56.625319 
L 188.217376 34.427473 
L 189.233825 52.993107 
L 190.250274 45.848641 
L 191.266722 42.409556 
L 192.283171 53.957011 
L 193.29962 48.544092 
L 194.316069 57.547387 
L 195.332517 48.4577 
L 196.348966 54.459768 
L 197.365415 37.621909 
L 198.381864 44.843302 
L 199.398313 53.815396 
L 200.414761 55.044488 
L 201.43121 54.601585 
L 202.447659 36.721205 
L 203.464108 48.028585 
L 204.480556 56.611851 
L 205.497005 46.006178 
L 206.513454 57.953677 
L 207.529903 38.398793 
L 208.546351 24.143636 
L 209.5628 36.51227 
L 210.579249 53.372007 
L 211.595698 44.411916 
L 212.612147 47.689332 
L 213.628595 34.236314 
L 214.645044 51.104939 
L 215.661493 57.987558 
L 216.677942 40.418195 
L 217.69439 59.227906 
L 218.710839 69.209997 
L 219.727288 49.278905 
L 220.743737 58.950551 
L 221.760185 74.784194 
L 222.776634 60.567438 
L 223.793083 40.456074 
L 224.809532 45.446889 
L 225.825981 46.459207 
L 226.842429 50.56674 
L 227.858878 33.698654 
L 228.875327 37.847768 
L 229.891776 51.315804 
L 230.908224 55.587675 
L 231.924673 57.60702 
L 232.941122 45.076059 
L 233.957571 40.861406 
L 234.974019 63.758453 
L 237.006917 45.392784 
L 238.023366 48.20974 
L 239.039815 25.523516 
L 240.056263 51.315252 
L 241.072712 36.794532 
L 242.089161 52.597958 
L 243.10561 62.282689 
L 244.122058 44.185972 
L 245.138507 53.021775 
L 246.154956 60.847098 
L 247.171405 51.595642 
L 248.187853 50.796522 
L 249.204302 44.400855 
L 250.220751 47.013957 
L 251.2372 38.288291 
L 252.253649 56.685287 
L 253.270097 66.875389 
L 254.286546 52.47765 
L 255.302995 53.47227 
L 256.319444 52.616952 
L 257.335892 61.776803 
L 258.352341 55.873223 
L 259.36879 56.839884 
L 260.385239 55.1657 
L 261.401687 47.987866 
L 262.418136 45.766656 
L 263.434585 50.55016 
L 264.451034 41.873855 
L 265.467483 57.775099 
L 266.483931 50.103188 
L 267.50038 40.837392 
L 268.516829 43.403053 
L 269.533278 42.966706 
L 270.549726 49.797315 
L 271.566175 61.92807 
L 273.599073 44.518161 
L 274.615521 56.762303 
L 275.63197 55.670431 
L 276.648419 45.381989 
L 277.664868 31.623846 
L 278.681317 39.233773 
L 279.697765 53.97427 
L 280.714214 61.957757 
L 281.730663 49.589055 
L 282.747112 45.611121 
L 284.780009 53.554708 
L 285.796458 42.898994 
L 286.812907 37.755954 
L 287.829355 39.776894 
L 288.845804 45.624209 
L 289.862253 41.188116 
L 290.878702 53.325867 
L 291.895151 60.330777 
L 292.911599 42.386192 
L 294.944497 41.179459 
L 295.960946 35.954415 
L 296.977394 39.754378 
L 297.993843 53.019025 
L 299.010292 43.099751 
L 300.026741 28.251295 
L 302.059638 55.853225 
L 303.076087 63.884521 
L 304.092536 62.683607 
L 305.108984 59.945893 
L 306.125433 54.934904 
L 307.141882 52.675293 
L 308.158331 56.075378 
L 309.17478 45.713986 
L 310.191228 37.042262 
L 311.207677 46.020499 
L 312.224126 56.797203 
L 313.240575 65.146301 
L 314.257023 56.48198 
L 315.273472 51.964598 
L 316.289921 60.35163 
L 317.30637 56.851727 
L 318.322818 26.043802 
L 319.339267 56.196967 
L 320.355716 51.242515 
L 321.372165 51.224305 
L 322.388614 39.738639 
L 323.405062 49.134621 
L 324.421511 44.554775 
L 325.43796 43.635483 
L 326.454409 54.356975 
L 327.470857 48.578826 
L 328.487306 31.25164 
L 329.503755 44.092492 
L 330.520204 52.046046 
L 331.536652 37.959969 
L 332.553101 56.60912 
L 333.56955 68.737846 
L 334.585999 47.880158 
L 335.602448 61.078308 
L 336.618896 62.035043 
L 337.635345 43.107064 
L 338.651794 33.264716 
L 339.668243 53.028479 
L 340.684691 68.850924 
L 341.70114 67.524191 
L 342.717589 58.424044 
L 344.750486 47.068176 
L 345.766935 40.913229 
L 346.783384 51.084978 
L 347.799833 52.577987 
L 348.816282 59.954254 
L 349.83273 73.664409 
L 350.849179 47.246012 
L 351.865628 49.729421 
L 352.882077 45.095322 
L 353.898525 44.676041 
L 354.914974 39.816118 
L 355.931423 55.837875 
L 356.947872 52.654209 
L 357.96432 46.816436 
L 358.980769 38.774287 
L 359.997218 57.769603 
L 361.013667 55.969147 
L 362.030116 51.206078 
L 363.046564 59.621309 
L 364.063013 57.67122 
L 365.079462 44.152864 
L 366.095911 54.930674 
L 367.112359 43.073145 
L 368.128808 28.192419 
L 369.145257 46.059941 
L 370.161706 51.578931 
L 371.178154 65.17307 
L 372.194603 67.401073 
L 373.211052 61.369583 
L 374.227501 64.17629 
L 375.24395 54.358064 
L 376.260398 52.66584 
L 377.276847 45.072636 
L 378.293296 41.45432 
L 379.309745 53.455845 
L 380.326193 56.259617 
L 381.342642 50.82567 
L 382.359091 32.964852 
L 382.359091 32.964852 
" style="fill:none;stroke:#0000ff;stroke-linecap:square;stroke-width:1.5;"/>
   </g>
   <g id="patch_7">
    <path d="M 63.245 304.36 
L 63.245 10.8 
" style="fill:none;stroke:#000000;stroke-linecap:square;stroke-linejoin:miter;stroke-width:0.8;"/>
   </g>
   <g id="patch_8">
    <path d="M 397.555 304.36 
L 397.555 10.8 
" style="fill:none;stroke:#000000;stroke-linecap:square;stroke-linejoin:miter;stroke-width:0.8;"/>
   </g>
   <g id="patch_9">
    <path d="M 63.245 304.36 
L 397.555 304.36 
" style="fill:none;stroke:#000000;stroke-linecap:square;stroke-linejoin:miter;stroke-width:0.8;"/>
   </g>
   <g id="patch_10">
    <path d="M 63.245 10.8 
L 397.555 10.8 
" style="fill:none;stroke:#000000;stroke-linecap:square;stroke-linejoin:miter;stroke-width:0.8;"/>
   </g>
  </g>
  <g id="axes_3">
   <g id="matplotlib.axis_4">
    <g id="ytick_12">
     <g id="line2d_21">
      <g>
       <use style="stroke:#000000;stroke-width:0.8;" x="397.555" xlink:href="#maeed94b78b" y="291.05151"/>
      </g>
     </g>
     <g id="text_22">
      <!-- 0 -->
      <g style="fill:#008000;" transform="translate(404.555 294.850729)scale(0.1 -0.1)">
       <use xlink:href="#DejaVuSans-48"/>
      </g>
     </g>
    </g>
    <g id="ytick_13">
     <g id="line2d_22">
      <g>
       <use style="stroke:#000000;stroke-width:0.8;" x="397.555" xlink:href="#maeed94b78b" y="238.214603"/>
      </g>
     </g>
     <g id="text_23">
      <!-- 2000 -->
      <g style="fill:#008000;" transform="translate(404.555 242.013822)scale(0.1 -0.1)">
       <use xlink:href="#DejaVuSans-50"/>
       <use x="63.623047" xlink:href="#DejaVuSans-48"/>
       <use x="127.246094" xlink:href="#DejaVuSans-48"/>
       <use x="190.869141" xlink:href="#DejaVuSans-48"/>
      </g>
     </g>
    </g>
    <g id="ytick_14">
     <g id="line2d_23">
      <g>
       <use style="stroke:#000000;stroke-width:0.8;" x="397.555" xlink:href="#maeed94b78b" y="185.377696"/>
      </g>
     </g>
     <g id="text_24">
      <!-- 4000 -->
      <g style="fill:#008000;" transform="translate(404.555 189.176915)scale(0.1 -0.1)">
       <use xlink:href="#DejaVuSans-52"/>
       <use x="63.623047" xlink:href="#DejaVuSans-48"/>
       <use x="127.246094" xlink:href="#DejaVuSans-48"/>
       <use x="190.869141" xlink:href="#DejaVuSans-48"/>
      </g>
     </g>
    </g>
    <g id="ytick_15">
     <g id="line2d_24">
      <g>
       <use style="stroke:#000000;stroke-width:0.8;" x="397.555" xlink:href="#maeed94b78b" y="132.540789"/>
      </g>
     </g>
     <g id="text_25">
      <!-- 6000 -->
      <g style="fill:#008000;" transform="translate(404.555 136.340007)scale(0.1 -0.1)">
       <use xlink:href="#DejaVuSans-54"/>
       <use x="63.623047" xlink:href="#DejaVuSans-48"/>
       <use x="127.246094" xlink:href="#DejaVuSans-48"/>
       <use x="190.869141" xlink:href="#DejaVuSans-48"/>
      </g>
     </g>
    </g>
    <g id="ytick_16">
     <g id="line2d_25">
      <g>
       <use style="stroke:#000000;stroke-width:0.8;" x="397.555" xlink:href="#maeed94b78b" y="79.703882"/>
      </g>
     </g>
     <g id="text_26">
      <!-- 8000 -->
      <g style="fill:#008000;" transform="translate(404.555 83.5031)scale(0.1 -0.1)">
       <use xlink:href="#DejaVuSans-56"/>
       <use x="63.623047" xlink:href="#DejaVuSans-48"/>
       <use x="127.246094" xlink:href="#DejaVuSans-48"/>
       <use x="190.869141" xlink:href="#DejaVuSans-48"/>
      </g>
     </g>
    </g>
    <g id="ytick_17">
     <g id="line2d_26">
      <g>
       <use style="stroke:#000000;stroke-width:0.8;" x="397.555" xlink:href="#maeed94b78b" y="26.866975"/>
      </g>
     </g>
     <g id="text_27">
      <!-- 10000 -->
      <g style="fill:#008000;" transform="translate(404.555 30.666193)scale(0.1 -0.1)">
       <use xlink:href="#DejaVuSans-49"/>
       <use x="63.623047" xlink:href="#DejaVuSans-48"/>
       <use x="127.246094" xlink:href="#DejaVuSans-48"/>
       <use x="190.869141" xlink:href="#DejaVuSans-48"/>
       <use x="254.492188" xlink:href="#DejaVuSans-48"/>
      </g>
     </g>
    </g>
    <g id="text_28">
     <!-- Supply -->
     <g style="fill:#008000;" transform="translate(447.965938 174.619844)rotate(-90)scale(0.1 -0.1)">
      <use xlink:href="#DejaVuSans-83"/>
      <use x="63.476562" xlink:href="#DejaVuSans-117"/>
      <use x="126.855469" xlink:href="#DejaVuSans-112"/>
      <use x="190.332031" xlink:href="#DejaVuSans-112"/>
      <use x="253.808594" xlink:href="#DejaVuSans-108"/>
      <use x="281.591797" xlink:href="#DejaVuSans-121"/>
     </g>
    </g>
   </g>
   <g id="line2d_27">
    <path clip-path="url(#p5a9dd7ec52)" d="M 78.440909 291.016364 
L 79.457358 24.383956 
L 80.473807 24.949976 
L 81.490255 25.381206 
L 82.506704 25.311161 
L 83.523153 24.900977 
L 84.539602 25.293072 
L 85.55605 25.205397 
L 86.572499 24.780272 
L 87.588948 25.055329 
L 88.605397 24.732297 
L 89.621846 25.337089 
L 90.638294 25.497867 
L 91.654743 25.062863 
L 92.671192 25.218674 
L 93.687641 24.900814 
L 94.704089 24.848911 
L 96.736987 25.082113 
L 97.753436 25.623952 
L 98.769884 25.310034 
L 99.786333 24.695533 
L 100.802782 24.59353 
L 101.819231 25.510251 
L 102.83568 24.886373 
L 103.852128 24.709118 
L 104.868577 25.172381 
L 105.885026 25.506655 
L 106.901475 25.399213 
L 107.917923 24.808217 
L 108.934372 24.71059 
L 109.950821 24.246446 
L 110.96727 24.916767 
L 111.983718 25.003809 
L 113.000167 24.68358 
L 114.016616 24.697227 
L 115.033065 24.835135 
L 116.049514 24.612067 
L 117.065962 25.320685 
L 119.09886 25.128302 
L 121.131757 24.945877 
L 122.148206 25.188245 
L 123.164655 24.590058 
L 124.181104 25.147323 
L 125.197552 24.666623 
L 127.23045 24.572384 
L 128.246899 25.375164 
L 129.263348 24.896684 
L 130.279796 24.821549 
L 131.296245 25.218066 
L 132.312694 25.382931 
L 133.329143 25.087606 
L 134.345591 25.143305 
L 135.36204 25.405579 
L 136.378489 25.218332 
L 137.394938 24.338465 
L 139.427835 25.61151 
L 140.444284 24.770418 
L 141.460733 25.073891 
L 142.477182 24.733326 
L 143.49363 24.738651 
L 144.510079 25.05421 
L 145.526528 24.890912 
L 146.542977 24.929317 
L 147.559425 25.139274 
L 150.608772 24.356339 
L 151.62522 24.283919 
L 152.641669 24.992834 
L 153.658118 25.496184 
L 154.674567 24.796539 
L 156.707464 25.199461 
L 157.723913 25.100769 
L 158.740362 24.449221 
L 159.756811 24.750408 
L 161.789708 24.960799 
L 162.806157 24.746194 
L 163.822606 25.434298 
L 164.839054 24.870221 
L 166.871952 25.277167 
L 168.904849 24.851349 
L 170.937747 25.196952 
L 171.954196 24.916935 
L 172.970645 24.955594 
L 173.987093 24.656785 
L 175.003542 24.50004 
L 176.019991 24.829951 
L 177.03644 25.398807 
L 178.052888 25.145954 
L 179.069337 25.029973 
L 180.085786 25.673443 
L 181.102235 24.979287 
L 182.118683 24.580095 
L 184.151581 24.328308 
L 185.16803 24.633843 
L 186.184479 24.768913 
L 187.200927 24.789803 
L 188.217376 25.492709 
L 189.233825 24.79728 
L 191.266722 25.308868 
L 192.283171 24.853073 
L 193.29962 25.037228 
L 194.316069 24.832319 
L 195.332517 25.059191 
L 196.348966 24.815617 
L 197.365415 25.410451 
L 198.381864 25.232119 
L 199.398313 24.878309 
L 201.43121 24.760288 
L 202.447659 25.404345 
L 204.480556 24.817042 
L 205.497005 24.977122 
L 206.513454 24.799789 
L 207.529903 25.365142 
L 208.546351 25.73289 
L 209.5628 25.519415 
L 210.579249 24.830673 
L 211.595698 25.143018 
L 212.612147 25.119927 
L 213.628595 25.494562 
L 214.645044 24.872946 
L 215.661493 24.732288 
L 216.677942 25.264742 
L 217.69439 24.567839 
L 218.710839 24.307967 
L 219.727288 25.017042 
L 220.743737 24.702898 
L 221.760185 24.143636 
L 222.776634 24.633119 
L 223.793083 25.276513 
L 224.809532 25.138539 
L 225.825981 25.125971 
L 226.842429 24.961728 
L 227.858878 25.545605 
L 228.875327 25.328669 
L 229.891776 24.965495 
L 231.924673 24.67687 
L 232.941122 25.177525 
L 233.957571 25.24694 
L 234.974019 24.566033 
L 235.990468 24.811793 
L 237.006917 25.179509 
L 238.023366 24.967072 
L 239.039815 25.844652 
L 240.056263 24.975661 
L 241.072712 25.371919 
L 242.089161 24.918223 
L 243.10561 24.608884 
L 244.122058 25.056174 
L 246.154956 24.608769 
L 247.171405 24.977182 
L 248.187853 24.906009 
L 249.204302 25.169856 
L 250.220751 25.057218 
L 251.2372 25.386525 
L 252.253649 24.747104 
L 253.270097 24.377188 
L 254.286546 24.943589 
L 256.319444 24.934411 
L 257.335892 24.576219 
L 258.352341 24.806613 
L 260.385239 24.768659 
L 261.401687 25.086104 
L 263.434585 25.021952 
L 264.451034 25.248464 
L 265.467483 24.696797 
L 266.483931 24.881579 
L 267.50038 25.303719 
L 268.516829 25.197594 
L 269.533278 25.211221 
L 270.549726 25.029252 
L 271.566175 24.653209 
L 272.582624 24.846581 
L 273.599073 25.1689 
L 274.615521 24.817784 
L 275.63197 24.79565 
L 277.664868 25.559469 
L 280.714214 24.538165 
L 281.730663 24.935641 
L 282.747112 25.147344 
L 283.76356 24.937047 
L 284.780009 24.884875 
L 285.796458 25.215697 
L 286.812907 25.381982 
L 287.829355 25.41744 
L 288.845804 25.128516 
L 289.862253 25.158808 
L 291.895151 24.708615 
L 292.911599 25.261799 
L 296.977394 25.324312 
L 297.993843 24.91116 
L 299.010292 25.136974 
L 300.026741 25.681683 
L 303.076087 24.502107 
L 304.092536 24.650292 
L 305.108984 24.653324 
L 307.141882 24.980993 
L 308.158331 24.765519 
L 310.191228 25.483611 
L 311.207677 25.047089 
L 313.240575 24.465993 
L 315.273472 24.906176 
L 317.30637 24.648584 
L 318.322818 25.815324 
L 319.339267 24.761269 
L 321.372165 24.950352 
L 322.388614 25.266109 
L 323.405062 25.041333 
L 324.421511 25.185359 
L 325.43796 25.172042 
L 326.454409 24.850695 
L 327.470857 25.02595 
L 328.487306 25.612172 
L 329.503755 25.167515 
L 330.520204 24.885395 
L 331.536652 25.394521 
L 332.553101 24.669592 
L 333.56955 24.391109 
L 334.585999 25.091137 
L 335.602448 24.570079 
L 336.618896 24.593458 
L 337.635345 25.18169 
L 338.651794 25.468811 
L 340.684691 24.312449 
L 341.70114 24.420107 
L 342.717589 24.754361 
L 344.750486 25.08079 
L 345.766935 25.386102 
L 346.783384 24.899069 
L 347.799833 24.900126 
L 348.816282 24.701727 
L 349.83273 24.174415 
L 350.849179 25.095043 
L 353.898525 25.143355 
L 354.914974 25.398856 
L 355.931423 24.758778 
L 356.947872 24.804208 
L 357.96432 25.15712 
L 358.980769 25.375236 
L 359.997218 24.737448 
L 362.030116 24.926979 
L 363.046564 24.744629 
L 364.063013 24.68463 
L 365.079462 25.155549 
L 366.095911 24.834396 
L 367.112359 25.179736 
L 368.128808 25.693661 
L 369.145257 25.15443 
L 370.161706 24.972898 
L 371.178154 24.538291 
L 372.194603 24.337753 
L 373.211052 24.59789 
L 374.227501 24.490661 
L 375.24395 24.848253 
L 376.260398 24.84528 
L 377.276847 25.126682 
L 378.293296 25.23277 
L 379.309745 24.836653 
L 380.326193 24.660643 
L 381.342642 24.981852 
L 382.359091 25.536528 
L 382.359091 25.536528 
" style="fill:none;stroke:#008000;stroke-linecap:square;stroke-width:1.5;"/>
   </g>
   <g id="patch_11">
    <path d="M 63.245 304.36 
L 63.245 10.8 
" style="fill:none;stroke:#000000;stroke-linecap:square;stroke-linejoin:miter;stroke-width:0.8;"/>
   </g>
   <g id="patch_12">
    <path d="M 397.555 304.36 
L 397.555 10.8 
" style="fill:none;stroke:#000000;stroke-linecap:square;stroke-linejoin:miter;stroke-width:0.8;"/>
   </g>
   <g id="patch_13">
    <path d="M 63.245 304.36 
L 397.555 304.36 
" style="fill:none;stroke:#000000;stroke-linecap:square;stroke-linejoin:miter;stroke-width:0.8;"/>
   </g>
   <g id="patch_14">
    <path d="M 63.245 10.8 
L 397.555 10.8 
" style="fill:none;stroke:#000000;stroke-linecap:square;stroke-linejoin:miter;stroke-width:0.8;"/>
   </g>
  </g>
 </g>
 <defs>
  <clipPath id="p5a9dd7ec52">
   <rect height="293.56" width="334.31" x="63.245" y="10.8"/>
  </clipPath>
 </defs>
</svg>
