<?xml version="1.0" encoding="utf-8" standalone="no"?>
<!DOCTYPE svg PUBLIC "-//W3C//DTD SVG 1.1//EN"
  "http://www.w3.org/Graphics/SVG/1.1/DTD/svg11.dtd">
<!-- Created with matplotlib (https://matplotlib.org/) -->
<svg height="345.6pt" version="1.1" viewBox="0 0 460.8 345.6" width="460.8pt" xmlns="http://www.w3.org/2000/svg" xmlns:xlink="http://www.w3.org/1999/xlink">
 <defs>
  <style type="text/css">
*{stroke-linecap:butt;stroke-linejoin:round;}
  </style>
 </defs>
 <g id="figure_1">
  <g id="patch_1">
   <path d="M 0 345.6 
L 460.8 345.6 
L 460.8 0 
L 0 0 
z
" style="fill:#ffffff;"/>
  </g>
  <g id="axes_1">
   <g id="patch_2">
    <path d="M 37.8875 304.36 
L 436.6325 304.36 
L 436.6325 21.36 
L 37.8875 21.36 
z
" style="fill:#ffffff;"/>
   </g>
   <g id="matplotlib.axis_1">
    <g id="xtick_1">
     <g id="line2d_1">
      <defs>
       <path d="M 0 0 
L 0 3.5 
" id="mce625f33db" style="stroke:#000000;stroke-width:0.8;"/>
      </defs>
      <g>
       <use style="stroke:#000000;stroke-width:0.8;" x="56.012273" xlink:href="#mce625f33db" y="304.36"/>
      </g>
     </g>
     <g id="text_1">
      <!-- 0 -->
      <defs>
       <path d="M 31.78125 66.40625 
Q 24.171875 66.40625 20.328125 58.90625 
Q 16.5 51.421875 16.5 36.375 
Q 16.5 21.390625 20.328125 13.890625 
Q 24.171875 6.390625 31.78125 6.390625 
Q 39.453125 6.390625 43.28125 13.890625 
Q 47.125 21.390625 47.125 36.375 
Q 47.125 51.421875 43.28125 58.90625 
Q 39.453125 66.40625 31.78125 66.40625 
z
M 31.78125 74.21875 
Q 44.046875 74.21875 50.515625 64.515625 
Q 56.984375 54.828125 56.984375 36.375 
Q 56.984375 17.96875 50.515625 8.265625 
Q 44.046875 -1.421875 31.78125 -1.421875 
Q 19.53125 -1.421875 13.0625 8.265625 
Q 6.59375 17.96875 6.59375 36.375 
Q 6.59375 54.828125 13.0625 64.515625 
Q 19.53125 74.21875 31.78125 74.21875 
z
" id="DejaVuSans-48"/>
      </defs>
      <g transform="translate(52.831023 318.958437)scale(0.1 -0.1)">
       <use xlink:href="#DejaVuSans-48"/>
      </g>
     </g>
    </g>
    <g id="xtick_2">
     <g id="line2d_2">
      <g>
       <use style="stroke:#000000;stroke-width:0.8;" x="116.935879" xlink:href="#mce625f33db" y="304.36"/>
      </g>
     </g>
     <g id="text_2">
      <!-- 20 -->
      <defs>
       <path d="M 19.1875 8.296875 
L 53.609375 8.296875 
L 53.609375 0 
L 7.328125 0 
L 7.328125 8.296875 
Q 12.9375 14.109375 22.625 23.890625 
Q 32.328125 33.6875 34.8125 36.53125 
Q 39.546875 41.84375 41.421875 45.53125 
Q 43.3125 49.21875 43.3125 52.78125 
Q 43.3125 58.59375 39.234375 62.25 
Q 35.15625 65.921875 28.609375 65.921875 
Q 23.96875 65.921875 18.8125 64.3125 
Q 13.671875 62.703125 7.8125 59.421875 
L 7.8125 69.390625 
Q 13.765625 71.78125 18.9375 73 
Q 24.125 74.21875 28.421875 74.21875 
Q 39.75 74.21875 46.484375 68.546875 
Q 53.21875 62.890625 53.21875 53.421875 
Q 53.21875 48.921875 51.53125 44.890625 
Q 49.859375 40.875 45.40625 35.40625 
Q 44.1875 33.984375 37.640625 27.21875 
Q 31.109375 20.453125 19.1875 8.296875 
z
" id="DejaVuSans-50"/>
      </defs>
      <g transform="translate(110.573379 318.958437)scale(0.1 -0.1)">
       <use xlink:href="#DejaVuSans-50"/>
       <use x="63.623047" xlink:href="#DejaVuSans-48"/>
      </g>
     </g>
    </g>
    <g id="xtick_3">
     <g id="line2d_3">
      <g>
       <use style="stroke:#000000;stroke-width:0.8;" x="177.859484" xlink:href="#mce625f33db" y="304.36"/>
      </g>
     </g>
     <g id="text_3">
      <!-- 40 -->
      <defs>
       <path d="M 37.796875 64.3125 
L 12.890625 25.390625 
L 37.796875 25.390625 
z
M 35.203125 72.90625 
L 47.609375 72.90625 
L 47.609375 25.390625 
L 58.015625 25.390625 
L 58.015625 17.1875 
L 47.609375 17.1875 
L 47.609375 0 
L 37.796875 0 
L 37.796875 17.1875 
L 4.890625 17.1875 
L 4.890625 26.703125 
z
" id="DejaVuSans-52"/>
      </defs>
      <g transform="translate(171.496984 318.958437)scale(0.1 -0.1)">
       <use xlink:href="#DejaVuSans-52"/>
       <use x="63.623047" xlink:href="#DejaVuSans-48"/>
      </g>
     </g>
    </g>
    <g id="xtick_4">
     <g id="line2d_4">
      <g>
       <use style="stroke:#000000;stroke-width:0.8;" x="238.78309" xlink:href="#mce625f33db" y="304.36"/>
      </g>
     </g>
     <g id="text_4">
      <!-- 60 -->
      <defs>
       <path d="M 33.015625 40.375 
Q 26.375 40.375 22.484375 35.828125 
Q 18.609375 31.296875 18.609375 23.390625 
Q 18.609375 15.53125 22.484375 10.953125 
Q 26.375 6.390625 33.015625 6.390625 
Q 39.65625 6.390625 43.53125 10.953125 
Q 47.40625 15.53125 47.40625 23.390625 
Q 47.40625 31.296875 43.53125 35.828125 
Q 39.65625 40.375 33.015625 40.375 
z
M 52.59375 71.296875 
L 52.59375 62.3125 
Q 48.875 64.0625 45.09375 64.984375 
Q 41.3125 65.921875 37.59375 65.921875 
Q 27.828125 65.921875 22.671875 59.328125 
Q 17.53125 52.734375 16.796875 39.40625 
Q 19.671875 43.65625 24.015625 45.921875 
Q 28.375 48.1875 33.59375 48.1875 
Q 44.578125 48.1875 50.953125 41.515625 
Q 57.328125 34.859375 57.328125 23.390625 
Q 57.328125 12.15625 50.6875 5.359375 
Q 44.046875 -1.421875 33.015625 -1.421875 
Q 20.359375 -1.421875 13.671875 8.265625 
Q 6.984375 17.96875 6.984375 36.375 
Q 6.984375 53.65625 15.1875 63.9375 
Q 23.390625 74.21875 37.203125 74.21875 
Q 40.921875 74.21875 44.703125 73.484375 
Q 48.484375 72.75 52.59375 71.296875 
z
" id="DejaVuSans-54"/>
      </defs>
      <g transform="translate(232.42059 318.958437)scale(0.1 -0.1)">
       <use xlink:href="#DejaVuSans-54"/>
       <use x="63.623047" xlink:href="#DejaVuSans-48"/>
      </g>
     </g>
    </g>
    <g id="xtick_5">
     <g id="line2d_5">
      <g>
       <use style="stroke:#000000;stroke-width:0.8;" x="299.706696" xlink:href="#mce625f33db" y="304.36"/>
      </g>
     </g>
     <g id="text_5">
      <!-- 80 -->
      <defs>
       <path d="M 31.78125 34.625 
Q 24.75 34.625 20.71875 30.859375 
Q 16.703125 27.09375 16.703125 20.515625 
Q 16.703125 13.921875 20.71875 10.15625 
Q 24.75 6.390625 31.78125 6.390625 
Q 38.8125 6.390625 42.859375 10.171875 
Q 46.921875 13.96875 46.921875 20.515625 
Q 46.921875 27.09375 42.890625 30.859375 
Q 38.875 34.625 31.78125 34.625 
z
M 21.921875 38.8125 
Q 15.578125 40.375 12.03125 44.71875 
Q 8.5 49.078125 8.5 55.328125 
Q 8.5 64.0625 14.71875 69.140625 
Q 20.953125 74.21875 31.78125 74.21875 
Q 42.671875 74.21875 48.875 69.140625 
Q 55.078125 64.0625 55.078125 55.328125 
Q 55.078125 49.078125 51.53125 44.71875 
Q 48 40.375 41.703125 38.8125 
Q 48.828125 37.15625 52.796875 32.3125 
Q 56.78125 27.484375 56.78125 20.515625 
Q 56.78125 9.90625 50.3125 4.234375 
Q 43.84375 -1.421875 31.78125 -1.421875 
Q 19.734375 -1.421875 13.25 4.234375 
Q 6.78125 9.90625 6.78125 20.515625 
Q 6.78125 27.484375 10.78125 32.3125 
Q 14.796875 37.15625 21.921875 38.8125 
z
M 18.3125 54.390625 
Q 18.3125 48.734375 21.84375 45.5625 
Q 25.390625 42.390625 31.78125 42.390625 
Q 38.140625 42.390625 41.71875 45.5625 
Q 45.3125 48.734375 45.3125 54.390625 
Q 45.3125 60.0625 41.71875 63.234375 
Q 38.140625 66.40625 31.78125 66.40625 
Q 25.390625 66.40625 21.84375 63.234375 
Q 18.3125 60.0625 18.3125 54.390625 
z
" id="DejaVuSans-56"/>
      </defs>
      <g transform="translate(293.344196 318.958437)scale(0.1 -0.1)">
       <use xlink:href="#DejaVuSans-56"/>
       <use x="63.623047" xlink:href="#DejaVuSans-48"/>
      </g>
     </g>
    </g>
    <g id="xtick_6">
     <g id="line2d_6">
      <g>
       <use style="stroke:#000000;stroke-width:0.8;" x="360.630302" xlink:href="#mce625f33db" y="304.36"/>
      </g>
     </g>
     <g id="text_6">
      <!-- 100 -->
      <defs>
       <path d="M 12.40625 8.296875 
L 28.515625 8.296875 
L 28.515625 63.921875 
L 10.984375 60.40625 
L 10.984375 69.390625 
L 28.421875 72.90625 
L 38.28125 72.90625 
L 38.28125 8.296875 
L 54.390625 8.296875 
L 54.390625 0 
L 12.40625 0 
z
" id="DejaVuSans-49"/>
      </defs>
      <g transform="translate(351.086552 318.958437)scale(0.1 -0.1)">
       <use xlink:href="#DejaVuSans-49"/>
       <use x="63.623047" xlink:href="#DejaVuSans-48"/>
       <use x="127.246094" xlink:href="#DejaVuSans-48"/>
      </g>
     </g>
    </g>
    <g id="xtick_7">
     <g id="line2d_7">
      <g>
       <use style="stroke:#000000;stroke-width:0.8;" x="421.553908" xlink:href="#mce625f33db" y="304.36"/>
      </g>
     </g>
     <g id="text_7">
      <!-- 120 -->
      <g transform="translate(412.010158 318.958437)scale(0.1 -0.1)">
       <use xlink:href="#DejaVuSans-49"/>
       <use x="63.623047" xlink:href="#DejaVuSans-50"/>
       <use x="127.246094" xlink:href="#DejaVuSans-48"/>
      </g>
     </g>
    </g>
    <g id="text_8">
     <!-- Average of Per 1250.0 Episode -->
     <defs>
      <path d="M 34.1875 63.1875 
L 20.796875 26.90625 
L 47.609375 26.90625 
z
M 28.609375 72.90625 
L 39.796875 72.90625 
L 67.578125 0 
L 57.328125 0 
L 50.6875 18.703125 
L 17.828125 18.703125 
L 11.1875 0 
L 0.78125 0 
z
" id="DejaVuSans-65"/>
      <path d="M 2.984375 54.6875 
L 12.5 54.6875 
L 29.59375 8.796875 
L 46.6875 54.6875 
L 56.203125 54.6875 
L 35.6875 0 
L 23.484375 0 
z
" id="DejaVuSans-118"/>
      <path d="M 56.203125 29.59375 
L 56.203125 25.203125 
L 14.890625 25.203125 
Q 15.484375 15.921875 20.484375 11.0625 
Q 25.484375 6.203125 34.421875 6.203125 
Q 39.59375 6.203125 44.453125 7.46875 
Q 49.3125 8.734375 54.109375 11.28125 
L 54.109375 2.78125 
Q 49.265625 0.734375 44.1875 -0.34375 
Q 39.109375 -1.421875 33.890625 -1.421875 
Q 20.796875 -1.421875 13.15625 6.1875 
Q 5.515625 13.8125 5.515625 26.8125 
Q 5.515625 40.234375 12.765625 48.109375 
Q 20.015625 56 32.328125 56 
Q 43.359375 56 49.78125 48.890625 
Q 56.203125 41.796875 56.203125 29.59375 
z
M 47.21875 32.234375 
Q 47.125 39.59375 43.09375 43.984375 
Q 39.0625 48.390625 32.421875 48.390625 
Q 24.90625 48.390625 20.390625 44.140625 
Q 15.875 39.890625 15.1875 32.171875 
z
" id="DejaVuSans-101"/>
      <path d="M 41.109375 46.296875 
Q 39.59375 47.171875 37.8125 47.578125 
Q 36.03125 48 33.890625 48 
Q 26.265625 48 22.1875 43.046875 
Q 18.109375 38.09375 18.109375 28.8125 
L 18.109375 0 
L 9.078125 0 
L 9.078125 54.6875 
L 18.109375 54.6875 
L 18.109375 46.1875 
Q 20.953125 51.171875 25.484375 53.578125 
Q 30.03125 56 36.53125 56 
Q 37.453125 56 38.578125 55.875 
Q 39.703125 55.765625 41.0625 55.515625 
z
" id="DejaVuSans-114"/>
      <path d="M 34.28125 27.484375 
Q 23.390625 27.484375 19.1875 25 
Q 14.984375 22.515625 14.984375 16.5 
Q 14.984375 11.71875 18.140625 8.90625 
Q 21.296875 6.109375 26.703125 6.109375 
Q 34.1875 6.109375 38.703125 11.40625 
Q 43.21875 16.703125 43.21875 25.484375 
L 43.21875 27.484375 
z
M 52.203125 31.203125 
L 52.203125 0 
L 43.21875 0 
L 43.21875 8.296875 
Q 40.140625 3.328125 35.546875 0.953125 
Q 30.953125 -1.421875 24.3125 -1.421875 
Q 15.921875 -1.421875 10.953125 3.296875 
Q 6 8.015625 6 15.921875 
Q 6 25.140625 12.171875 29.828125 
Q 18.359375 34.515625 30.609375 34.515625 
L 43.21875 34.515625 
L 43.21875 35.40625 
Q 43.21875 41.609375 39.140625 45 
Q 35.0625 48.390625 27.6875 48.390625 
Q 23 48.390625 18.546875 47.265625 
Q 14.109375 46.140625 10.015625 43.890625 
L 10.015625 52.203125 
Q 14.9375 54.109375 19.578125 55.046875 
Q 24.21875 56 28.609375 56 
Q 40.484375 56 46.34375 49.84375 
Q 52.203125 43.703125 52.203125 31.203125 
z
" id="DejaVuSans-97"/>
      <path d="M 45.40625 27.984375 
Q 45.40625 37.75 41.375 43.109375 
Q 37.359375 48.484375 30.078125 48.484375 
Q 22.859375 48.484375 18.828125 43.109375 
Q 14.796875 37.75 14.796875 27.984375 
Q 14.796875 18.265625 18.828125 12.890625 
Q 22.859375 7.515625 30.078125 7.515625 
Q 37.359375 7.515625 41.375 12.890625 
Q 45.40625 18.265625 45.40625 27.984375 
z
M 54.390625 6.78125 
Q 54.390625 -7.171875 48.1875 -13.984375 
Q 42 -20.796875 29.203125 -20.796875 
Q 24.46875 -20.796875 20.265625 -20.09375 
Q 16.0625 -19.390625 12.109375 -17.921875 
L 12.109375 -9.1875 
Q 16.0625 -11.328125 19.921875 -12.34375 
Q 23.78125 -13.375 27.78125 -13.375 
Q 36.625 -13.375 41.015625 -8.765625 
Q 45.40625 -4.15625 45.40625 5.171875 
L 45.40625 9.625 
Q 42.625 4.78125 38.28125 2.390625 
Q 33.9375 0 27.875 0 
Q 17.828125 0 11.671875 7.65625 
Q 5.515625 15.328125 5.515625 27.984375 
Q 5.515625 40.671875 11.671875 48.328125 
Q 17.828125 56 27.875 56 
Q 33.9375 56 38.28125 53.609375 
Q 42.625 51.21875 45.40625 46.390625 
L 45.40625 54.6875 
L 54.390625 54.6875 
z
" id="DejaVuSans-103"/>
      <path id="DejaVuSans-32"/>
      <path d="M 30.609375 48.390625 
Q 23.390625 48.390625 19.1875 42.75 
Q 14.984375 37.109375 14.984375 27.296875 
Q 14.984375 17.484375 19.15625 11.84375 
Q 23.34375 6.203125 30.609375 6.203125 
Q 37.796875 6.203125 41.984375 11.859375 
Q 46.1875 17.53125 46.1875 27.296875 
Q 46.1875 37.015625 41.984375 42.703125 
Q 37.796875 48.390625 30.609375 48.390625 
z
M 30.609375 56 
Q 42.328125 56 49.015625 48.375 
Q 55.71875 40.765625 55.71875 27.296875 
Q 55.71875 13.875 49.015625 6.21875 
Q 42.328125 -1.421875 30.609375 -1.421875 
Q 18.84375 -1.421875 12.171875 6.21875 
Q 5.515625 13.875 5.515625 27.296875 
Q 5.515625 40.765625 12.171875 48.375 
Q 18.84375 56 30.609375 56 
z
" id="DejaVuSans-111"/>
      <path d="M 37.109375 75.984375 
L 37.109375 68.5 
L 28.515625 68.5 
Q 23.6875 68.5 21.796875 66.546875 
Q 19.921875 64.59375 19.921875 59.515625 
L 19.921875 54.6875 
L 34.71875 54.6875 
L 34.71875 47.703125 
L 19.921875 47.703125 
L 19.921875 0 
L 10.890625 0 
L 10.890625 47.703125 
L 2.296875 47.703125 
L 2.296875 54.6875 
L 10.890625 54.6875 
L 10.890625 58.5 
Q 10.890625 67.625 15.140625 71.796875 
Q 19.390625 75.984375 28.609375 75.984375 
z
" id="DejaVuSans-102"/>
      <path d="M 19.671875 64.796875 
L 19.671875 37.40625 
L 32.078125 37.40625 
Q 38.96875 37.40625 42.71875 40.96875 
Q 46.484375 44.53125 46.484375 51.125 
Q 46.484375 57.671875 42.71875 61.234375 
Q 38.96875 64.796875 32.078125 64.796875 
z
M 9.8125 72.90625 
L 32.078125 72.90625 
Q 44.34375 72.90625 50.609375 67.359375 
Q 56.890625 61.8125 56.890625 51.125 
Q 56.890625 40.328125 50.609375 34.8125 
Q 44.34375 29.296875 32.078125 29.296875 
L 19.671875 29.296875 
L 19.671875 0 
L 9.8125 0 
z
" id="DejaVuSans-80"/>
      <path d="M 10.796875 72.90625 
L 49.515625 72.90625 
L 49.515625 64.59375 
L 19.828125 64.59375 
L 19.828125 46.734375 
Q 21.96875 47.46875 24.109375 47.828125 
Q 26.265625 48.1875 28.421875 48.1875 
Q 40.625 48.1875 47.75 41.5 
Q 54.890625 34.8125 54.890625 23.390625 
Q 54.890625 11.625 47.5625 5.09375 
Q 40.234375 -1.421875 26.90625 -1.421875 
Q 22.3125 -1.421875 17.546875 -0.640625 
Q 12.796875 0.140625 7.71875 1.703125 
L 7.71875 11.625 
Q 12.109375 9.234375 16.796875 8.0625 
Q 21.484375 6.890625 26.703125 6.890625 
Q 35.15625 6.890625 40.078125 11.328125 
Q 45.015625 15.765625 45.015625 23.390625 
Q 45.015625 31 40.078125 35.4375 
Q 35.15625 39.890625 26.703125 39.890625 
Q 22.75 39.890625 18.8125 39.015625 
Q 14.890625 38.140625 10.796875 36.28125 
z
" id="DejaVuSans-53"/>
      <path d="M 10.6875 12.40625 
L 21 12.40625 
L 21 0 
L 10.6875 0 
z
" id="DejaVuSans-46"/>
      <path d="M 9.8125 72.90625 
L 55.90625 72.90625 
L 55.90625 64.59375 
L 19.671875 64.59375 
L 19.671875 43.015625 
L 54.390625 43.015625 
L 54.390625 34.71875 
L 19.671875 34.71875 
L 19.671875 8.296875 
L 56.78125 8.296875 
L 56.78125 0 
L 9.8125 0 
z
" id="DejaVuSans-69"/>
      <path d="M 18.109375 8.203125 
L 18.109375 -20.796875 
L 9.078125 -20.796875 
L 9.078125 54.6875 
L 18.109375 54.6875 
L 18.109375 46.390625 
Q 20.953125 51.265625 25.265625 53.625 
Q 29.59375 56 35.59375 56 
Q 45.5625 56 51.78125 48.09375 
Q 58.015625 40.1875 58.015625 27.296875 
Q 58.015625 14.40625 51.78125 6.484375 
Q 45.5625 -1.421875 35.59375 -1.421875 
Q 29.59375 -1.421875 25.265625 0.953125 
Q 20.953125 3.328125 18.109375 8.203125 
z
M 48.6875 27.296875 
Q 48.6875 37.203125 44.609375 42.84375 
Q 40.53125 48.484375 33.40625 48.484375 
Q 26.265625 48.484375 22.1875 42.84375 
Q 18.109375 37.203125 18.109375 27.296875 
Q 18.109375 17.390625 22.1875 11.75 
Q 26.265625 6.109375 33.40625 6.109375 
Q 40.53125 6.109375 44.609375 11.75 
Q 48.6875 17.390625 48.6875 27.296875 
z
" id="DejaVuSans-112"/>
      <path d="M 9.421875 54.6875 
L 18.40625 54.6875 
L 18.40625 0 
L 9.421875 0 
z
M 9.421875 75.984375 
L 18.40625 75.984375 
L 18.40625 64.59375 
L 9.421875 64.59375 
z
" id="DejaVuSans-105"/>
      <path d="M 44.28125 53.078125 
L 44.28125 44.578125 
Q 40.484375 46.53125 36.375 47.5 
Q 32.28125 48.484375 27.875 48.484375 
Q 21.1875 48.484375 17.84375 46.4375 
Q 14.5 44.390625 14.5 40.28125 
Q 14.5 37.15625 16.890625 35.375 
Q 19.28125 33.59375 26.515625 31.984375 
L 29.59375 31.296875 
Q 39.15625 29.25 43.1875 25.515625 
Q 47.21875 21.78125 47.21875 15.09375 
Q 47.21875 7.46875 41.1875 3.015625 
Q 35.15625 -1.421875 24.609375 -1.421875 
Q 20.21875 -1.421875 15.453125 -0.5625 
Q 10.6875 0.296875 5.421875 2 
L 5.421875 11.28125 
Q 10.40625 8.6875 15.234375 7.390625 
Q 20.0625 6.109375 24.8125 6.109375 
Q 31.15625 6.109375 34.5625 8.28125 
Q 37.984375 10.453125 37.984375 14.40625 
Q 37.984375 18.0625 35.515625 20.015625 
Q 33.0625 21.96875 24.703125 23.78125 
L 21.578125 24.515625 
Q 13.234375 26.265625 9.515625 29.90625 
Q 5.8125 33.546875 5.8125 39.890625 
Q 5.8125 47.609375 11.28125 51.796875 
Q 16.75 56 26.8125 56 
Q 31.78125 56 36.171875 55.265625 
Q 40.578125 54.546875 44.28125 53.078125 
z
" id="DejaVuSans-115"/>
      <path d="M 45.40625 46.390625 
L 45.40625 75.984375 
L 54.390625 75.984375 
L 54.390625 0 
L 45.40625 0 
L 45.40625 8.203125 
Q 42.578125 3.328125 38.25 0.953125 
Q 33.9375 -1.421875 27.875 -1.421875 
Q 17.96875 -1.421875 11.734375 6.484375 
Q 5.515625 14.40625 5.515625 27.296875 
Q 5.515625 40.1875 11.734375 48.09375 
Q 17.96875 56 27.875 56 
Q 33.9375 56 38.25 53.625 
Q 42.578125 51.265625 45.40625 46.390625 
z
M 14.796875 27.296875 
Q 14.796875 17.390625 18.875 11.75 
Q 22.953125 6.109375 30.078125 6.109375 
Q 37.203125 6.109375 41.296875 11.75 
Q 45.40625 17.390625 45.40625 27.296875 
Q 45.40625 37.203125 41.296875 42.84375 
Q 37.203125 48.484375 30.078125 48.484375 
Q 22.953125 48.484375 18.875 42.84375 
Q 14.796875 37.203125 14.796875 27.296875 
z
" id="DejaVuSans-100"/>
     </defs>
     <g transform="translate(160.452969 332.636562)scale(0.1 -0.1)">
      <use xlink:href="#DejaVuSans-65"/>
      <use x="62.533203" xlink:href="#DejaVuSans-118"/>
      <use x="121.712891" xlink:href="#DejaVuSans-101"/>
      <use x="183.236328" xlink:href="#DejaVuSans-114"/>
      <use x="224.349609" xlink:href="#DejaVuSans-97"/>
      <use x="285.628906" xlink:href="#DejaVuSans-103"/>
      <use x="349.105469" xlink:href="#DejaVuSans-101"/>
      <use x="410.628906" xlink:href="#DejaVuSans-32"/>
      <use x="442.416016" xlink:href="#DejaVuSans-111"/>
      <use x="503.597656" xlink:href="#DejaVuSans-102"/>
      <use x="538.802734" xlink:href="#DejaVuSans-32"/>
      <use x="570.589844" xlink:href="#DejaVuSans-80"/>
      <use x="627.267578" xlink:href="#DejaVuSans-101"/>
      <use x="688.791016" xlink:href="#DejaVuSans-114"/>
      <use x="729.904297" xlink:href="#DejaVuSans-32"/>
      <use x="761.691406" xlink:href="#DejaVuSans-49"/>
      <use x="825.314453" xlink:href="#DejaVuSans-50"/>
      <use x="888.9375" xlink:href="#DejaVuSans-53"/>
      <use x="952.560547" xlink:href="#DejaVuSans-48"/>
      <use x="1016.183594" xlink:href="#DejaVuSans-46"/>
      <use x="1047.970703" xlink:href="#DejaVuSans-48"/>
      <use x="1111.59375" xlink:href="#DejaVuSans-32"/>
      <use x="1143.380859" xlink:href="#DejaVuSans-69"/>
      <use x="1206.564453" xlink:href="#DejaVuSans-112"/>
      <use x="1270.041016" xlink:href="#DejaVuSans-105"/>
      <use x="1297.824219" xlink:href="#DejaVuSans-115"/>
      <use x="1349.923828" xlink:href="#DejaVuSans-111"/>
      <use x="1411.105469" xlink:href="#DejaVuSans-100"/>
      <use x="1474.582031" xlink:href="#DejaVuSans-101"/>
     </g>
    </g>
   </g>
   <g id="matplotlib.axis_2">
    <g id="ytick_1">
     <g id="line2d_8">
      <defs>
       <path d="M 0 0 
L -3.5 0 
" id="mc853d49868" style="stroke:#000000;stroke-width:0.8;"/>
      </defs>
      <g>
       <use style="stroke:#000000;stroke-width:0.8;" x="37.8875" xlink:href="#mc853d49868" y="291.551897"/>
      </g>
     </g>
     <g id="text_9">
      <!-- 0 -->
      <g transform="translate(24.525 295.351116)scale(0.1 -0.1)">
       <use xlink:href="#DejaVuSans-48"/>
      </g>
     </g>
    </g>
    <g id="ytick_2">
     <g id="line2d_9">
      <g>
       <use style="stroke:#000000;stroke-width:0.8;" x="37.8875" xlink:href="#mc853d49868" y="255.899447"/>
      </g>
     </g>
     <g id="text_10">
      <!-- 1 -->
      <g transform="translate(24.525 259.698665)scale(0.1 -0.1)">
       <use xlink:href="#DejaVuSans-49"/>
      </g>
     </g>
    </g>
    <g id="ytick_3">
     <g id="line2d_10">
      <g>
       <use style="stroke:#000000;stroke-width:0.8;" x="37.8875" xlink:href="#mc853d49868" y="220.246996"/>
      </g>
     </g>
     <g id="text_11">
      <!-- 2 -->
      <g transform="translate(24.525 224.046215)scale(0.1 -0.1)">
       <use xlink:href="#DejaVuSans-50"/>
      </g>
     </g>
    </g>
    <g id="ytick_4">
     <g id="line2d_11">
      <g>
       <use style="stroke:#000000;stroke-width:0.8;" x="37.8875" xlink:href="#mc853d49868" y="184.594545"/>
      </g>
     </g>
     <g id="text_12">
      <!-- 3 -->
      <defs>
       <path d="M 40.578125 39.3125 
Q 47.65625 37.796875 51.625 33 
Q 55.609375 28.21875 55.609375 21.1875 
Q 55.609375 10.40625 48.1875 4.484375 
Q 40.765625 -1.421875 27.09375 -1.421875 
Q 22.515625 -1.421875 17.65625 -0.515625 
Q 12.796875 0.390625 7.625 2.203125 
L 7.625 11.71875 
Q 11.71875 9.328125 16.59375 8.109375 
Q 21.484375 6.890625 26.8125 6.890625 
Q 36.078125 6.890625 40.9375 10.546875 
Q 45.796875 14.203125 45.796875 21.1875 
Q 45.796875 27.640625 41.28125 31.265625 
Q 36.765625 34.90625 28.71875 34.90625 
L 20.21875 34.90625 
L 20.21875 43.015625 
L 29.109375 43.015625 
Q 36.375 43.015625 40.234375 45.921875 
Q 44.09375 48.828125 44.09375 54.296875 
Q 44.09375 59.90625 40.109375 62.90625 
Q 36.140625 65.921875 28.71875 65.921875 
Q 24.65625 65.921875 20.015625 65.03125 
Q 15.375 64.15625 9.8125 62.3125 
L 9.8125 71.09375 
Q 15.4375 72.65625 20.34375 73.4375 
Q 25.25 74.21875 29.59375 74.21875 
Q 40.828125 74.21875 47.359375 69.109375 
Q 53.90625 64.015625 53.90625 55.328125 
Q 53.90625 49.265625 50.4375 45.09375 
Q 46.96875 40.921875 40.578125 39.3125 
z
" id="DejaVuSans-51"/>
      </defs>
      <g transform="translate(24.525 188.393764)scale(0.1 -0.1)">
       <use xlink:href="#DejaVuSans-51"/>
      </g>
     </g>
    </g>
    <g id="ytick_5">
     <g id="line2d_12">
      <g>
       <use style="stroke:#000000;stroke-width:0.8;" x="37.8875" xlink:href="#mc853d49868" y="148.942094"/>
      </g>
     </g>
     <g id="text_13">
      <!-- 4 -->
      <g transform="translate(24.525 152.741313)scale(0.1 -0.1)">
       <use xlink:href="#DejaVuSans-52"/>
      </g>
     </g>
    </g>
    <g id="ytick_6">
     <g id="line2d_13">
      <g>
       <use style="stroke:#000000;stroke-width:0.8;" x="37.8875" xlink:href="#mc853d49868" y="113.289643"/>
      </g>
     </g>
     <g id="text_14">
      <!-- 5 -->
      <g transform="translate(24.525 117.088862)scale(0.1 -0.1)">
       <use xlink:href="#DejaVuSans-53"/>
      </g>
     </g>
    </g>
    <g id="ytick_7">
     <g id="line2d_14">
      <g>
       <use style="stroke:#000000;stroke-width:0.8;" x="37.8875" xlink:href="#mc853d49868" y="77.637192"/>
      </g>
     </g>
     <g id="text_15">
      <!-- 6 -->
      <g transform="translate(24.525 81.436411)scale(0.1 -0.1)">
       <use xlink:href="#DejaVuSans-54"/>
      </g>
     </g>
    </g>
    <g id="ytick_8">
     <g id="line2d_15">
      <g>
       <use style="stroke:#000000;stroke-width:0.8;" x="37.8875" xlink:href="#mc853d49868" y="41.984742"/>
      </g>
     </g>
     <g id="text_16">
      <!-- 7 -->
      <defs>
       <path d="M 8.203125 72.90625 
L 55.078125 72.90625 
L 55.078125 68.703125 
L 28.609375 0 
L 18.3125 0 
L 43.21875 64.59375 
L 8.203125 64.59375 
z
" id="DejaVuSans-55"/>
      </defs>
      <g transform="translate(24.525 45.78396)scale(0.1 -0.1)">
       <use xlink:href="#DejaVuSans-55"/>
      </g>
     </g>
    </g>
    <g id="text_17">
     <!-- Profit -->
     <defs>
      <path d="M 18.3125 70.21875 
L 18.3125 54.6875 
L 36.8125 54.6875 
L 36.8125 47.703125 
L 18.3125 47.703125 
L 18.3125 18.015625 
Q 18.3125 11.328125 20.140625 9.421875 
Q 21.96875 7.515625 27.59375 7.515625 
L 36.8125 7.515625 
L 36.8125 0 
L 27.59375 0 
Q 17.1875 0 13.234375 3.875 
Q 9.28125 7.765625 9.28125 18.015625 
L 9.28125 47.703125 
L 2.6875 47.703125 
L 2.6875 54.6875 
L 9.28125 54.6875 
L 9.28125 70.21875 
z
" id="DejaVuSans-116"/>
     </defs>
     <g transform="translate(18.445313 175.899062)rotate(-90)scale(0.1 -0.1)">
      <use xlink:href="#DejaVuSans-80"/>
      <use x="58.552734" xlink:href="#DejaVuSans-114"/>
      <use x="97.416016" xlink:href="#DejaVuSans-111"/>
      <use x="158.597656" xlink:href="#DejaVuSans-102"/>
      <use x="193.802734" xlink:href="#DejaVuSans-105"/>
      <use x="221.585938" xlink:href="#DejaVuSans-116"/>
     </g>
    </g>
    <g id="text_18">
     <!-- 1e6 -->
     <g transform="translate(37.8875 18.36)scale(0.1 -0.1)">
      <use xlink:href="#DejaVuSans-49"/>
      <use x="63.623047" xlink:href="#DejaVuSans-101"/>
      <use x="125.146484" xlink:href="#DejaVuSans-54"/>
     </g>
    </g>
   </g>
   <g id="line2d_16">
    <path clip-path="url(#p6355672023)" d="M 56.012273 291.496364 
L 59.058453 244.946006 
L 62.104633 227.692555 
L 65.150814 194.250399 
L 68.196994 167.14047 
L 71.243174 193.36394 
L 74.289354 222.539968 
L 77.335535 222.655767 
L 80.381715 233.147132 
L 83.427895 244.463178 
L 86.474076 262.358877 
L 89.520256 249.085925 
L 92.566436 216.892464 
L 95.612617 233.504553 
L 98.658797 231.369328 
L 101.704977 252.43299 
L 104.751157 272.959617 
L 107.797338 241.600035 
L 110.843518 179.424194 
L 113.889698 160.45968 
L 116.935879 218.025601 
L 119.982059 239.266912 
L 123.028239 223.956085 
L 126.074419 245.867339 
L 129.1206 218.961227 
L 132.16678 208.500935 
L 135.21296 216.79296 
L 138.259141 205.1727 
L 141.305321 236.891434 
L 144.351501 220.261704 
L 147.397681 245.705229 
L 150.443862 219.126706 
L 153.490042 221.831944 
L 156.536222 196.4936 
L 159.582403 171.619415 
L 162.628583 219.924549 
L 165.674763 227.915644 
L 168.720943 244.100534 
L 171.767124 229.179944 
L 174.813304 214.404772 
L 177.859484 164.925165 
L 180.905665 68.413811 
L 183.951845 175.896407 
L 186.998025 204.831143 
L 190.044206 223.127554 
L 193.090386 247.178151 
L 196.136566 242.006836 
L 199.182746 230.901646 
L 202.228927 249.861226 
L 205.275107 253.418874 
L 208.321287 261.475612 
L 211.367468 227.530435 
L 214.413648 192.137739 
L 217.459828 187.60567 
L 220.506008 110.59429 
L 223.552189 148.378445 
L 226.598369 227.309342 
L 229.644549 224.476614 
L 232.69073 224.885865 
L 235.73691 221.523873 
L 238.78309 211.517401 
L 241.82927 233.082847 
L 244.875451 257.421714 
L 247.921631 255.266052 
L 250.967811 251.734747 
L 254.013992 248.633481 
L 257.060172 231.315422 
L 260.106352 196.495681 
L 263.152532 137.144588 
L 266.198713 77.05547 
L 269.244893 103.096199 
L 272.291073 191.074744 
L 275.337254 230.953625 
L 278.383434 240.657799 
L 281.429614 231.114231 
L 284.475794 201.650799 
L 287.521975 182.063943 
L 290.568155 170.500459 
L 293.614335 193.19735 
L 296.660516 225.316542 
L 299.706696 235.827033 
L 302.752876 233.036718 
L 305.799057 190.144549 
L 308.845237 177.352931 
L 311.891417 181.355772 
L 314.937597 185.729939 
L 317.983778 192.29736 
L 321.029958 247.231864 
L 324.076138 255.400422 
L 327.122319 248.728615 
L 330.168499 243.406598 
L 333.214679 246.88508 
L 336.260859 243.060513 
L 339.30704 243.101676 
L 342.35322 251.389741 
L 345.3994 258.050186 
L 348.445581 258.84671 
L 351.491761 253.773371 
L 354.537941 241.213517 
L 357.584121 214.91295 
L 360.630302 177.436468 
L 363.676482 181.244305 
L 366.722662 224.869365 
L 369.768843 242.378095 
L 372.815023 220.858489 
L 375.861203 212.484549 
L 378.907383 223.97345 
L 381.953564 232.609853 
L 384.999744 215.595762 
L 388.045924 172.976831 
L 391.092105 148.888002 
L 394.138285 140.109065 
L 397.184465 169.130873 
L 400.230646 195.12565 
L 403.276826 212.015698 
L 406.323006 179.347512 
L 409.369186 84.337523 
L 412.415367 34.223636 
L 415.461547 164.245787 
L 418.507727 214.060539 
" style="fill:none;stroke:#0000ff;stroke-linecap:square;stroke-width:1.5;"/>
   </g>
   <g id="patch_3">
    <path d="M 37.8875 304.36 
L 37.8875 21.36 
" style="fill:none;stroke:#000000;stroke-linecap:square;stroke-linejoin:miter;stroke-width:0.8;"/>
   </g>
   <g id="patch_4">
    <path d="M 436.6325 304.36 
L 436.6325 21.36 
" style="fill:none;stroke:#000000;stroke-linecap:square;stroke-linejoin:miter;stroke-width:0.8;"/>
   </g>
   <g id="patch_5">
    <path d="M 37.8875 304.36 
L 436.6325 304.36 
" style="fill:none;stroke:#000000;stroke-linecap:square;stroke-linejoin:miter;stroke-width:0.8;"/>
   </g>
   <g id="patch_6">
    <path d="M 37.8875 21.36 
L 436.6325 21.36 
" style="fill:none;stroke:#000000;stroke-linecap:square;stroke-linejoin:miter;stroke-width:0.8;"/>
   </g>
  </g>
  <g id="axes_2">
   <g id="matplotlib.axis_3">
    <g id="ytick_9">
     <g id="line2d_17">
      <defs>
       <path d="M 0 0 
L 3.5 0 
" id="mc17888e064" style="stroke:#000000;stroke-width:0.8;"/>
      </defs>
      <g>
       <use style="stroke:#000000;stroke-width:0.8;" x="436.6325" xlink:href="#mc17888e064" y="291.49637"/>
      </g>
     </g>
     <g id="text_19">
      <!-- 0 -->
      <g style="fill:#ff0000;" transform="translate(443.6325 295.295589)scale(0.1 -0.1)">
       <use xlink:href="#DejaVuSans-48"/>
      </g>
     </g>
    </g>
    <g id="ytick_10">
     <g id="line2d_18">
      <g>
       <use style="stroke:#000000;stroke-width:0.8;" x="436.6325" xlink:href="#mc17888e064" y="255.851613"/>
      </g>
     </g>
     <g id="text_20">
      <!-- 1 -->
      <g style="fill:#ff0000;" transform="translate(443.6325 259.650832)scale(0.1 -0.1)">
       <use xlink:href="#DejaVuSans-49"/>
      </g>
     </g>
    </g>
    <g id="ytick_11">
     <g id="line2d_19">
      <g>
       <use style="stroke:#000000;stroke-width:0.8;" x="436.6325" xlink:href="#mc17888e064" y="220.206855"/>
      </g>
     </g>
     <g id="text_21">
      <!-- 2 -->
      <g style="fill:#ff0000;" transform="translate(443.6325 224.006074)scale(0.1 -0.1)">
       <use xlink:href="#DejaVuSans-50"/>
      </g>
     </g>
    </g>
    <g id="ytick_12">
     <g id="line2d_20">
      <g>
       <use style="stroke:#000000;stroke-width:0.8;" x="436.6325" xlink:href="#mc17888e064" y="184.562097"/>
      </g>
     </g>
     <g id="text_22">
      <!-- 3 -->
      <g style="fill:#ff0000;" transform="translate(443.6325 188.361316)scale(0.1 -0.1)">
       <use xlink:href="#DejaVuSans-51"/>
      </g>
     </g>
    </g>
    <g id="ytick_13">
     <g id="line2d_21">
      <g>
       <use style="stroke:#000000;stroke-width:0.8;" x="436.6325" xlink:href="#mc17888e064" y="148.91734"/>
      </g>
     </g>
     <g id="text_23">
      <!-- 4 -->
      <g style="fill:#ff0000;" transform="translate(443.6325 152.716559)scale(0.1 -0.1)">
       <use xlink:href="#DejaVuSans-52"/>
      </g>
     </g>
    </g>
    <g id="ytick_14">
     <g id="line2d_22">
      <g>
       <use style="stroke:#000000;stroke-width:0.8;" x="436.6325" xlink:href="#mc17888e064" y="113.272582"/>
      </g>
     </g>
     <g id="text_24">
      <!-- 5 -->
      <g style="fill:#ff0000;" transform="translate(443.6325 117.071801)scale(0.1 -0.1)">
       <use xlink:href="#DejaVuSans-53"/>
      </g>
     </g>
    </g>
    <g id="ytick_15">
     <g id="line2d_23">
      <g>
       <use style="stroke:#000000;stroke-width:0.8;" x="436.6325" xlink:href="#mc17888e064" y="77.627825"/>
      </g>
     </g>
     <g id="text_25">
      <!-- 6 -->
      <g style="fill:#ff0000;" transform="translate(443.6325 81.427043)scale(0.1 -0.1)">
       <use xlink:href="#DejaVuSans-54"/>
      </g>
     </g>
    </g>
    <g id="ytick_16">
     <g id="line2d_24">
      <g>
       <use style="stroke:#000000;stroke-width:0.8;" x="436.6325" xlink:href="#mc17888e064" y="41.983067"/>
      </g>
     </g>
     <g id="text_26">
      <!-- 7 -->
      <g style="fill:#ff0000;" transform="translate(443.6325 45.782286)scale(0.1 -0.1)">
       <use xlink:href="#DejaVuSans-55"/>
      </g>
     </g>
    </g>
    <g id="text_27">
     <!-- 1e6 -->
     <g style="fill:#ff0000;" transform="translate(417.754375 18.36)scale(0.1 -0.1)">
      <use xlink:href="#DejaVuSans-49"/>
      <use x="63.623047" xlink:href="#DejaVuSans-101"/>
      <use x="125.146484" xlink:href="#DejaVuSans-54"/>
     </g>
    </g>
   </g>
   <g id="line2d_25">
    <path clip-path="url(#p6355672023)" d="M 56.012273 287.708331 
L 59.058453 287.708331 
L 62.104633 287.708331 
L 65.150814 287.708331 
L 68.196994 287.708331 
L 71.243174 287.708331 
L 74.289354 287.708331 
L 77.335535 287.708331 
L 80.381715 287.708331 
L 83.427895 287.708331 
L 86.474076 287.708331 
L 89.520256 287.708331 
L 92.566436 287.708331 
L 95.612617 287.708331 
L 98.658797 287.708331 
L 101.704977 287.708331 
L 104.751157 287.708331 
L 107.797338 287.708331 
L 110.843518 287.708331 
L 113.889698 287.708331 
L 116.935879 287.708331 
L 119.982059 287.708331 
L 123.028239 287.708331 
L 126.074419 287.708331 
L 129.1206 287.708331 
L 132.16678 287.708331 
L 135.21296 287.708331 
L 138.259141 287.708331 
L 141.305321 287.708331 
L 144.351501 287.708331 
L 147.397681 287.708331 
L 150.443862 287.708331 
L 153.490042 287.708331 
L 156.536222 287.708331 
L 159.582403 287.708331 
L 162.628583 287.708331 
L 165.674763 287.708331 
L 168.720943 287.708331 
L 171.767124 287.708331 
L 174.813304 287.708331 
L 177.859484 287.708331 
L 180.905665 287.708331 
L 183.951845 287.708331 
L 186.998025 287.708331 
L 190.044206 287.708331 
L 193.090386 287.708331 
L 196.136566 287.708331 
L 199.182746 287.708331 
L 202.228927 287.708331 
L 205.275107 287.708331 
L 208.321287 287.708331 
L 211.367468 287.708331 
L 214.413648 287.708331 
L 217.459828 287.708331 
L 220.506008 287.708331 
L 223.552189 287.708331 
L 226.598369 287.708331 
L 229.644549 287.708331 
L 232.69073 287.708331 
L 235.73691 287.708331 
L 238.78309 287.708331 
L 241.82927 287.708331 
L 244.875451 287.708331 
L 247.921631 287.708331 
L 250.967811 287.708331 
L 254.013992 287.708331 
L 257.060172 287.708331 
L 260.106352 287.708331 
L 263.152532 287.708331 
L 266.198713 287.708331 
L 269.244893 287.708331 
L 272.291073 287.708331 
L 275.337254 287.708331 
L 278.383434 287.708331 
L 281.429614 287.708331 
L 284.475794 287.708331 
L 287.521975 287.708331 
L 290.568155 287.708331 
L 293.614335 287.708331 
L 296.660516 287.708331 
L 299.706696 287.708331 
L 302.752876 287.708331 
L 305.799057 287.708331 
L 308.845237 287.708331 
L 311.891417 287.708331 
L 314.937597 287.708331 
L 317.983778 287.708331 
L 321.029958 287.708331 
L 324.076138 287.708331 
L 327.122319 287.708331 
L 330.168499 287.708331 
L 333.214679 287.708331 
L 336.260859 287.708331 
L 339.30704 287.708331 
L 342.35322 287.708331 
L 345.3994 287.708331 
L 348.445581 287.708331 
L 351.491761 287.708331 
L 354.537941 287.708331 
L 357.584121 287.708331 
L 360.630302 287.708331 
L 363.676482 287.708331 
L 366.722662 287.708331 
L 369.768843 287.708331 
L 372.815023 287.708331 
L 375.861203 287.708331 
L 378.907383 287.708331 
L 381.953564 287.708331 
L 384.999744 287.708331 
L 388.045924 287.708331 
L 391.092105 287.708331 
L 394.138285 287.708331 
L 397.184465 287.708331 
L 400.230646 287.708331 
L 403.276826 287.708331 
L 406.323006 287.708331 
L 409.369186 287.708331 
L 412.415367 287.708331 
L 415.461547 287.708331 
L 418.507727 287.708331 
" style="fill:none;stroke:#008000;stroke-linecap:square;stroke-width:1.5;"/>
   </g>
   <g id="line2d_26">
    <path clip-path="url(#p6355672023)" d="M 56.012273 82.601587 
L 59.058453 82.601587 
L 62.104633 82.601587 
L 65.150814 82.601587 
L 68.196994 82.601587 
L 71.243174 82.601587 
L 74.289354 82.601587 
L 77.335535 82.601587 
L 80.381715 82.601587 
L 83.427895 82.601587 
L 86.474076 82.601587 
L 89.520256 82.601587 
L 92.566436 82.601587 
L 95.612617 82.601587 
L 98.658797 82.601587 
L 101.704977 82.601587 
L 104.751157 82.601587 
L 107.797338 82.601587 
L 110.843518 82.601587 
L 113.889698 82.601587 
L 116.935879 82.601587 
L 119.982059 82.601587 
L 123.028239 82.601587 
L 126.074419 82.601587 
L 129.1206 82.601587 
L 132.16678 82.601587 
L 135.21296 82.601587 
L 138.259141 82.601587 
L 141.305321 82.601587 
L 144.351501 82.601587 
L 147.397681 82.601587 
L 150.443862 82.601587 
L 153.490042 82.601587 
L 156.536222 82.601587 
L 159.582403 82.601587 
L 162.628583 82.601587 
L 165.674763 82.601587 
L 168.720943 82.601587 
L 171.767124 82.601587 
L 174.813304 82.601587 
L 177.859484 82.601587 
L 180.905665 82.601587 
L 183.951845 82.601587 
L 186.998025 82.601587 
L 190.044206 82.601587 
L 193.090386 82.601587 
L 196.136566 82.601587 
L 199.182746 82.601587 
L 202.228927 82.601587 
L 205.275107 82.601587 
L 208.321287 82.601587 
L 211.367468 82.601587 
L 214.413648 82.601587 
L 217.459828 82.601587 
L 220.506008 82.601587 
L 223.552189 82.601587 
L 226.598369 82.601587 
L 229.644549 82.601587 
L 232.69073 82.601587 
L 235.73691 82.601587 
L 238.78309 82.601587 
L 241.82927 82.601587 
L 244.875451 82.601587 
L 247.921631 82.601587 
L 250.967811 82.601587 
L 254.013992 82.601587 
L 257.060172 82.601587 
L 260.106352 82.601587 
L 263.152532 82.601587 
L 266.198713 82.601587 
L 269.244893 82.601587 
L 272.291073 82.601587 
L 275.337254 82.601587 
L 278.383434 82.601587 
L 281.429614 82.601587 
L 284.475794 82.601587 
L 287.521975 82.601587 
L 290.568155 82.601587 
L 293.614335 82.601587 
L 296.660516 82.601587 
L 299.706696 82.601587 
L 302.752876 82.601587 
L 305.799057 82.601587 
L 308.845237 82.601587 
L 311.891417 82.601587 
L 314.937597 82.601587 
L 317.983778 82.601587 
L 321.029958 82.601587 
L 324.076138 82.601587 
L 327.122319 82.601587 
L 330.168499 82.601587 
L 333.214679 82.601587 
L 336.260859 82.601587 
L 339.30704 82.601587 
L 342.35322 82.601587 
L 345.3994 82.601587 
L 348.445581 82.601587 
L 351.491761 82.601587 
L 354.537941 82.601587 
L 357.584121 82.601587 
L 360.630302 82.601587 
L 363.676482 82.601587 
L 366.722662 82.601587 
L 369.768843 82.601587 
L 372.815023 82.601587 
L 375.861203 82.601587 
L 378.907383 82.601587 
L 381.953564 82.601587 
L 384.999744 82.601587 
L 388.045924 82.601587 
L 391.092105 82.601587 
L 394.138285 82.601587 
L 397.184465 82.601587 
L 400.230646 82.601587 
L 403.276826 82.601587 
L 406.323006 82.601587 
L 409.369186 82.601587 
L 412.415367 82.601587 
L 415.461547 82.601587 
L 418.507727 82.601587 
" style="fill:none;stroke:#008000;stroke-linecap:square;stroke-width:1.5;"/>
   </g>
   <g id="line2d_27">
    <path clip-path="url(#p6355672023)" d="M 56.012273 291.496364 
L 59.058453 291.496364 
L 62.104633 291.496364 
L 65.150814 291.496364 
L 68.196994 291.496364 
L 71.243174 291.496364 
L 74.289354 291.496364 
L 77.335535 291.496364 
L 80.381715 291.496364 
L 83.427895 291.496364 
L 86.474076 291.496364 
L 89.520256 291.496364 
L 92.566436 291.496364 
L 95.612617 291.496364 
L 98.658797 291.496364 
L 101.704977 291.496364 
L 104.751157 291.496364 
L 107.797338 291.496364 
L 110.843518 291.496364 
L 113.889698 291.496364 
L 116.935879 291.496364 
L 119.982059 291.496364 
L 123.028239 291.496364 
L 126.074419 291.496364 
L 129.1206 291.496364 
L 132.16678 291.496364 
L 135.21296 291.496364 
L 138.259141 291.496364 
L 141.305321 291.496364 
L 144.351501 291.496364 
L 147.397681 291.496364 
L 150.443862 291.496364 
L 153.490042 291.496364 
L 156.536222 291.496364 
L 159.582403 291.496364 
L 162.628583 291.496364 
L 165.674763 291.496364 
L 168.720943 291.496364 
L 171.767124 291.496364 
L 174.813304 291.496364 
L 177.859484 291.496364 
L 180.905665 291.496364 
L 183.951845 291.496364 
L 186.998025 291.496364 
L 190.044206 291.496364 
L 193.090386 291.496364 
L 196.136566 291.496364 
L 199.182746 291.496364 
L 202.228927 291.496364 
L 205.275107 291.496364 
L 208.321287 291.496364 
L 211.367468 291.496364 
L 214.413648 291.496364 
L 217.459828 291.496364 
L 220.506008 291.496364 
L 223.552189 291.496364 
L 226.598369 291.496364 
L 229.644549 291.496364 
L 232.69073 291.496364 
L 235.73691 291.496364 
L 238.78309 291.496364 
L 241.82927 291.496364 
L 244.875451 291.496364 
L 247.921631 291.496364 
L 250.967811 291.496364 
L 254.013992 291.496364 
L 257.060172 291.496364 
L 260.106352 291.496364 
L 263.152532 291.496364 
L 266.198713 291.496364 
L 269.244893 291.496364 
L 272.291073 291.496364 
L 275.337254 291.496364 
L 278.383434 291.496364 
L 281.429614 291.496364 
L 284.475794 291.496364 
L 287.521975 291.496364 
L 290.568155 291.496364 
L 293.614335 291.496364 
L 296.660516 291.496364 
L 299.706696 291.496364 
L 302.752876 291.496364 
L 305.799057 291.496364 
L 308.845237 291.496364 
L 311.891417 291.496364 
L 314.937597 291.496364 
L 317.983778 291.496364 
L 321.029958 291.496364 
L 324.076138 291.496364 
L 327.122319 291.496364 
L 330.168499 291.496364 
L 333.214679 291.496364 
L 336.260859 291.496364 
L 339.30704 291.496364 
L 342.35322 291.496364 
L 345.3994 291.496364 
L 348.445581 291.496364 
L 351.491761 291.496364 
L 354.537941 291.496364 
L 357.584121 291.496364 
L 360.630302 291.496364 
L 363.676482 291.496364 
L 366.722662 291.496364 
L 369.768843 291.496364 
L 372.815023 291.496364 
L 375.861203 291.496364 
L 378.907383 291.496364 
L 381.953564 291.496364 
L 384.999744 291.496364 
L 388.045924 291.496364 
L 391.092105 291.496364 
L 394.138285 291.496364 
L 397.184465 291.496364 
L 400.230646 291.496364 
L 403.276826 291.496364 
L 406.323006 291.496364 
L 409.369186 291.496364 
L 412.415367 291.496364 
L 415.461547 291.496364 
L 418.507727 291.496364 
" style="fill:none;stroke:#008000;stroke-linecap:square;stroke-width:1.5;"/>
   </g>
   <g id="line2d_28">
    <path clip-path="url(#p6355672023)" d="M 56.012273 211.371862 
L 59.058453 211.371862 
L 62.104633 211.371862 
L 65.150814 211.371862 
L 68.196994 211.371862 
L 71.243174 211.371862 
L 74.289354 211.371862 
L 77.335535 211.371862 
L 80.381715 211.371862 
L 83.427895 211.371862 
L 86.474076 211.371862 
L 89.520256 211.371862 
L 92.566436 211.371862 
L 95.612617 211.371862 
L 98.658797 211.371862 
L 101.704977 211.371862 
L 104.751157 211.371862 
L 107.797338 211.371862 
L 110.843518 211.371862 
L 113.889698 211.371862 
L 116.935879 211.371862 
L 119.982059 211.371862 
L 123.028239 211.371862 
L 126.074419 211.371862 
L 129.1206 211.371862 
L 132.16678 211.371862 
L 135.21296 211.371862 
L 138.259141 211.371862 
L 141.305321 211.371862 
L 144.351501 211.371862 
L 147.397681 211.371862 
L 150.443862 211.371862 
L 153.490042 211.371862 
L 156.536222 211.371862 
L 159.582403 211.371862 
L 162.628583 211.371862 
L 165.674763 211.371862 
L 168.720943 211.371862 
L 171.767124 211.371862 
L 174.813304 211.371862 
L 177.859484 211.371862 
L 180.905665 211.371862 
L 183.951845 211.371862 
L 186.998025 211.371862 
L 190.044206 211.371862 
L 193.090386 211.371862 
L 196.136566 211.371862 
L 199.182746 211.371862 
L 202.228927 211.371862 
L 205.275107 211.371862 
L 208.321287 211.371862 
L 211.367468 211.371862 
L 214.413648 211.371862 
L 217.459828 211.371862 
L 220.506008 211.371862 
L 223.552189 211.371862 
L 226.598369 211.371862 
L 229.644549 211.371862 
L 232.69073 211.371862 
L 235.73691 211.371862 
L 238.78309 211.371862 
L 241.82927 211.371862 
L 244.875451 211.371862 
L 247.921631 211.371862 
L 250.967811 211.371862 
L 254.013992 211.371862 
L 257.060172 211.371862 
L 260.106352 211.371862 
L 263.152532 211.371862 
L 266.198713 211.371862 
L 269.244893 211.371862 
L 272.291073 211.371862 
L 275.337254 211.371862 
L 278.383434 211.371862 
L 281.429614 211.371862 
L 284.475794 211.371862 
L 287.521975 211.371862 
L 290.568155 211.371862 
L 293.614335 211.371862 
L 296.660516 211.371862 
L 299.706696 211.371862 
L 302.752876 211.371862 
L 305.799057 211.371862 
L 308.845237 211.371862 
L 311.891417 211.371862 
L 314.937597 211.371862 
L 317.983778 211.371862 
L 321.029958 211.371862 
L 324.076138 211.371862 
L 327.122319 211.371862 
L 330.168499 211.371862 
L 333.214679 211.371862 
L 336.260859 211.371862 
L 339.30704 211.371862 
L 342.35322 211.371862 
L 345.3994 211.371862 
L 348.445581 211.371862 
L 351.491761 211.371862 
L 354.537941 211.371862 
L 357.584121 211.371862 
L 360.630302 211.371862 
L 363.676482 211.371862 
L 366.722662 211.371862 
L 369.768843 211.371862 
L 372.815023 211.371862 
L 375.861203 211.371862 
L 378.907383 211.371862 
L 381.953564 211.371862 
L 384.999744 211.371862 
L 388.045924 211.371862 
L 391.092105 211.371862 
L 394.138285 211.371862 
L 397.184465 211.371862 
L 400.230646 211.371862 
L 403.276826 211.371862 
L 406.323006 211.371862 
L 409.369186 211.371862 
L 412.415367 211.371862 
L 415.461547 211.371862 
L 418.507727 211.371862 
" style="fill:none;stroke:#ff0000;stroke-linecap:square;stroke-width:1.5;"/>
   </g>
   <g id="line2d_29">
    <path clip-path="url(#p6355672023)" d="M 56.012273 34.223636 
L 59.058453 34.223636 
L 62.104633 34.223636 
L 65.150814 34.223636 
L 68.196994 34.223636 
L 71.243174 34.223636 
L 74.289354 34.223636 
L 77.335535 34.223636 
L 80.381715 34.223636 
L 83.427895 34.223636 
L 86.474076 34.223636 
L 89.520256 34.223636 
L 92.566436 34.223636 
L 95.612617 34.223636 
L 98.658797 34.223636 
L 101.704977 34.223636 
L 104.751157 34.223636 
L 107.797338 34.223636 
L 110.843518 34.223636 
L 113.889698 34.223636 
L 116.935879 34.223636 
L 119.982059 34.223636 
L 123.028239 34.223636 
L 126.074419 34.223636 
L 129.1206 34.223636 
L 132.16678 34.223636 
L 135.21296 34.223636 
L 138.259141 34.223636 
L 141.305321 34.223636 
L 144.351501 34.223636 
L 147.397681 34.223636 
L 150.443862 34.223636 
L 153.490042 34.223636 
L 156.536222 34.223636 
L 159.582403 34.223636 
L 162.628583 34.223636 
L 165.674763 34.223636 
L 168.720943 34.223636 
L 171.767124 34.223636 
L 174.813304 34.223636 
L 177.859484 34.223636 
L 180.905665 34.223636 
L 183.951845 34.223636 
L 186.998025 34.223636 
L 190.044206 34.223636 
L 193.090386 34.223636 
L 196.136566 34.223636 
L 199.182746 34.223636 
L 202.228927 34.223636 
L 205.275107 34.223636 
L 208.321287 34.223636 
L 211.367468 34.223636 
L 214.413648 34.223636 
L 217.459828 34.223636 
L 220.506008 34.223636 
L 223.552189 34.223636 
L 226.598369 34.223636 
L 229.644549 34.223636 
L 232.69073 34.223636 
L 235.73691 34.223636 
L 238.78309 34.223636 
L 241.82927 34.223636 
L 244.875451 34.223636 
L 247.921631 34.223636 
L 250.967811 34.223636 
L 254.013992 34.223636 
L 257.060172 34.223636 
L 260.106352 34.223636 
L 263.152532 34.223636 
L 266.198713 34.223636 
L 269.244893 34.223636 
L 272.291073 34.223636 
L 275.337254 34.223636 
L 278.383434 34.223636 
L 281.429614 34.223636 
L 284.475794 34.223636 
L 287.521975 34.223636 
L 290.568155 34.223636 
L 293.614335 34.223636 
L 296.660516 34.223636 
L 299.706696 34.223636 
L 302.752876 34.223636 
L 305.799057 34.223636 
L 308.845237 34.223636 
L 311.891417 34.223636 
L 314.937597 34.223636 
L 317.983778 34.223636 
L 321.029958 34.223636 
L 324.076138 34.223636 
L 327.122319 34.223636 
L 330.168499 34.223636 
L 333.214679 34.223636 
L 336.260859 34.223636 
L 339.30704 34.223636 
L 342.35322 34.223636 
L 345.3994 34.223636 
L 348.445581 34.223636 
L 351.491761 34.223636 
L 354.537941 34.223636 
L 357.584121 34.223636 
L 360.630302 34.223636 
L 363.676482 34.223636 
L 366.722662 34.223636 
L 369.768843 34.223636 
L 372.815023 34.223636 
L 375.861203 34.223636 
L 378.907383 34.223636 
L 381.953564 34.223636 
L 384.999744 34.223636 
L 388.045924 34.223636 
L 391.092105 34.223636 
L 394.138285 34.223636 
L 397.184465 34.223636 
L 400.230646 34.223636 
L 403.276826 34.223636 
L 406.323006 34.223636 
L 409.369186 34.223636 
L 412.415367 34.223636 
L 415.461547 34.223636 
L 418.507727 34.223636 
" style="fill:none;stroke:#ff0000;stroke-linecap:square;stroke-width:1.5;"/>
   </g>
   <g id="line2d_30">
    <path clip-path="url(#p6355672023)" d="M 56.012273 291.440849 
L 59.058453 291.440849 
L 62.104633 291.440849 
L 65.150814 291.440849 
L 68.196994 291.440849 
L 71.243174 291.440849 
L 74.289354 291.440849 
L 77.335535 291.440849 
L 80.381715 291.440849 
L 83.427895 291.440849 
L 86.474076 291.440849 
L 89.520256 291.440849 
L 92.566436 291.440849 
L 95.612617 291.440849 
L 98.658797 291.440849 
L 101.704977 291.440849 
L 104.751157 291.440849 
L 107.797338 291.440849 
L 110.843518 291.440849 
L 113.889698 291.440849 
L 116.935879 291.440849 
L 119.982059 291.440849 
L 123.028239 291.440849 
L 126.074419 291.440849 
L 129.1206 291.440849 
L 132.16678 291.440849 
L 135.21296 291.440849 
L 138.259141 291.440849 
L 141.305321 291.440849 
L 144.351501 291.440849 
L 147.397681 291.440849 
L 150.443862 291.440849 
L 153.490042 291.440849 
L 156.536222 291.440849 
L 159.582403 291.440849 
L 162.628583 291.440849 
L 165.674763 291.440849 
L 168.720943 291.440849 
L 171.767124 291.440849 
L 174.813304 291.440849 
L 177.859484 291.440849 
L 180.905665 291.440849 
L 183.951845 291.440849 
L 186.998025 291.440849 
L 190.044206 291.440849 
L 193.090386 291.440849 
L 196.136566 291.440849 
L 199.182746 291.440849 
L 202.228927 291.440849 
L 205.275107 291.440849 
L 208.321287 291.440849 
L 211.367468 291.440849 
L 214.413648 291.440849 
L 217.459828 291.440849 
L 220.506008 291.440849 
L 223.552189 291.440849 
L 226.598369 291.440849 
L 229.644549 291.440849 
L 232.69073 291.440849 
L 235.73691 291.440849 
L 238.78309 291.440849 
L 241.82927 291.440849 
L 244.875451 291.440849 
L 247.921631 291.440849 
L 250.967811 291.440849 
L 254.013992 291.440849 
L 257.060172 291.440849 
L 260.106352 291.440849 
L 263.152532 291.440849 
L 266.198713 291.440849 
L 269.244893 291.440849 
L 272.291073 291.440849 
L 275.337254 291.440849 
L 278.383434 291.440849 
L 281.429614 291.440849 
L 284.475794 291.440849 
L 287.521975 291.440849 
L 290.568155 291.440849 
L 293.614335 291.440849 
L 296.660516 291.440849 
L 299.706696 291.440849 
L 302.752876 291.440849 
L 305.799057 291.440849 
L 308.845237 291.440849 
L 311.891417 291.440849 
L 314.937597 291.440849 
L 317.983778 291.440849 
L 321.029958 291.440849 
L 324.076138 291.440849 
L 327.122319 291.440849 
L 330.168499 291.440849 
L 333.214679 291.440849 
L 336.260859 291.440849 
L 339.30704 291.440849 
L 342.35322 291.440849 
L 345.3994 291.440849 
L 348.445581 291.440849 
L 351.491761 291.440849 
L 354.537941 291.440849 
L 357.584121 291.440849 
L 360.630302 291.440849 
L 363.676482 291.440849 
L 366.722662 291.440849 
L 369.768843 291.440849 
L 372.815023 291.440849 
L 375.861203 291.440849 
L 378.907383 291.440849 
L 381.953564 291.440849 
L 384.999744 291.440849 
L 388.045924 291.440849 
L 391.092105 291.440849 
L 394.138285 291.440849 
L 397.184465 291.440849 
L 400.230646 291.440849 
L 403.276826 291.440849 
L 406.323006 291.440849 
L 409.369186 291.440849 
L 412.415367 291.440849 
L 415.461547 291.440849 
L 418.507727 291.440849 
" style="fill:none;stroke:#ff0000;stroke-linecap:square;stroke-width:1.5;"/>
   </g>
   <g id="patch_7">
    <path d="M 37.8875 304.36 
L 37.8875 21.36 
" style="fill:none;stroke:#000000;stroke-linecap:square;stroke-linejoin:miter;stroke-width:0.8;"/>
   </g>
   <g id="patch_8">
    <path d="M 436.6325 304.36 
L 436.6325 21.36 
" style="fill:none;stroke:#000000;stroke-linecap:square;stroke-linejoin:miter;stroke-width:0.8;"/>
   </g>
   <g id="patch_9">
    <path d="M 37.8875 304.36 
L 436.6325 304.36 
" style="fill:none;stroke:#000000;stroke-linecap:square;stroke-linejoin:miter;stroke-width:0.8;"/>
   </g>
   <g id="patch_10">
    <path d="M 37.8875 21.36 
L 436.6325 21.36 
" style="fill:none;stroke:#000000;stroke-linecap:square;stroke-linejoin:miter;stroke-width:0.8;"/>
   </g>
   <g id="legend_1">
    <g id="patch_11">
     <path d="M 290.98875 208.394375 
L 429.6325 208.394375 
Q 431.6325 208.394375 431.6325 206.394375 
L 431.6325 119.325625 
Q 431.6325 117.325625 429.6325 117.325625 
L 290.98875 117.325625 
Q 288.98875 117.325625 288.98875 119.325625 
L 288.98875 206.394375 
Q 288.98875 208.394375 290.98875 208.394375 
z
" style="fill:#ffffff;opacity:0.8;stroke:#cccccc;stroke-linejoin:miter;"/>
    </g>
    <g id="line2d_31">
     <path d="M 292.98875 125.424062 
L 312.98875 125.424062 
" style="fill:none;stroke:#008000;stroke-linecap:square;stroke-width:1.5;"/>
    </g>
    <g id="line2d_32"/>
    <g id="text_28">
     <!-- Mean Profit (Dataset) -->
     <defs>
      <path d="M 9.8125 72.90625 
L 24.515625 72.90625 
L 43.109375 23.296875 
L 61.8125 72.90625 
L 76.515625 72.90625 
L 76.515625 0 
L 66.890625 0 
L 66.890625 64.015625 
L 48.09375 14.015625 
L 38.1875 14.015625 
L 19.390625 64.015625 
L 19.390625 0 
L 9.8125 0 
z
" id="DejaVuSans-77"/>
      <path d="M 54.890625 33.015625 
L 54.890625 0 
L 45.90625 0 
L 45.90625 32.71875 
Q 45.90625 40.484375 42.875 44.328125 
Q 39.84375 48.1875 33.796875 48.1875 
Q 26.515625 48.1875 22.3125 43.546875 
Q 18.109375 38.921875 18.109375 30.90625 
L 18.109375 0 
L 9.078125 0 
L 9.078125 54.6875 
L 18.109375 54.6875 
L 18.109375 46.1875 
Q 21.34375 51.125 25.703125 53.5625 
Q 30.078125 56 35.796875 56 
Q 45.21875 56 50.046875 50.171875 
Q 54.890625 44.34375 54.890625 33.015625 
z
" id="DejaVuSans-110"/>
      <path d="M 31 75.875 
Q 24.46875 64.65625 21.28125 53.65625 
Q 18.109375 42.671875 18.109375 31.390625 
Q 18.109375 20.125 21.3125 9.0625 
Q 24.515625 -2 31 -13.1875 
L 23.1875 -13.1875 
Q 15.875 -1.703125 12.234375 9.375 
Q 8.59375 20.453125 8.59375 31.390625 
Q 8.59375 42.28125 12.203125 53.3125 
Q 15.828125 64.359375 23.1875 75.875 
z
" id="DejaVuSans-40"/>
      <path d="M 19.671875 64.796875 
L 19.671875 8.109375 
L 31.59375 8.109375 
Q 46.6875 8.109375 53.6875 14.9375 
Q 60.6875 21.78125 60.6875 36.53125 
Q 60.6875 51.171875 53.6875 57.984375 
Q 46.6875 64.796875 31.59375 64.796875 
z
M 9.8125 72.90625 
L 30.078125 72.90625 
Q 51.265625 72.90625 61.171875 64.09375 
Q 71.09375 55.28125 71.09375 36.53125 
Q 71.09375 17.671875 61.125 8.828125 
Q 51.171875 0 30.078125 0 
L 9.8125 0 
z
" id="DejaVuSans-68"/>
      <path d="M 8.015625 75.875 
L 15.828125 75.875 
Q 23.140625 64.359375 26.78125 53.3125 
Q 30.421875 42.28125 30.421875 31.390625 
Q 30.421875 20.453125 26.78125 9.375 
Q 23.140625 -1.703125 15.828125 -13.1875 
L 8.015625 -13.1875 
Q 14.5 -2 17.703125 9.0625 
Q 20.90625 20.125 20.90625 31.390625 
Q 20.90625 42.671875 17.703125 53.65625 
Q 14.5 64.65625 8.015625 75.875 
z
" id="DejaVuSans-41"/>
     </defs>
     <g transform="translate(320.98875 128.924062)scale(0.1 -0.1)">
      <use xlink:href="#DejaVuSans-77"/>
      <use x="86.279297" xlink:href="#DejaVuSans-101"/>
      <use x="147.802734" xlink:href="#DejaVuSans-97"/>
      <use x="209.082031" xlink:href="#DejaVuSans-110"/>
      <use x="272.460938" xlink:href="#DejaVuSans-32"/>
      <use x="304.248047" xlink:href="#DejaVuSans-80"/>
      <use x="362.800781" xlink:href="#DejaVuSans-114"/>
      <use x="401.664062" xlink:href="#DejaVuSans-111"/>
      <use x="462.845703" xlink:href="#DejaVuSans-102"/>
      <use x="498.050781" xlink:href="#DejaVuSans-105"/>
      <use x="525.833984" xlink:href="#DejaVuSans-116"/>
      <use x="565.042969" xlink:href="#DejaVuSans-32"/>
      <use x="596.830078" xlink:href="#DejaVuSans-40"/>
      <use x="635.84375" xlink:href="#DejaVuSans-68"/>
      <use x="712.845703" xlink:href="#DejaVuSans-97"/>
      <use x="774.125" xlink:href="#DejaVuSans-116"/>
      <use x="813.333984" xlink:href="#DejaVuSans-97"/>
      <use x="874.613281" xlink:href="#DejaVuSans-115"/>
      <use x="926.712891" xlink:href="#DejaVuSans-101"/>
      <use x="988.236328" xlink:href="#DejaVuSans-116"/>
      <use x="1027.445312" xlink:href="#DejaVuSans-41"/>
     </g>
    </g>
    <g id="line2d_33">
     <path d="M 292.98875 140.102187 
L 312.98875 140.102187 
" style="fill:none;stroke:#008000;stroke-linecap:square;stroke-width:1.5;"/>
    </g>
    <g id="line2d_34"/>
    <g id="text_29">
     <!-- Max Profit (Dataset) -->
     <defs>
      <path d="M 54.890625 54.6875 
L 35.109375 28.078125 
L 55.90625 0 
L 45.3125 0 
L 29.390625 21.484375 
L 13.484375 0 
L 2.875 0 
L 24.125 28.609375 
L 4.6875 54.6875 
L 15.28125 54.6875 
L 29.78125 35.203125 
L 44.28125 54.6875 
z
" id="DejaVuSans-120"/>
     </defs>
     <g transform="translate(320.98875 143.602187)scale(0.1 -0.1)">
      <use xlink:href="#DejaVuSans-77"/>
      <use x="86.279297" xlink:href="#DejaVuSans-97"/>
      <use x="147.558594" xlink:href="#DejaVuSans-120"/>
      <use x="206.738281" xlink:href="#DejaVuSans-32"/>
      <use x="238.525391" xlink:href="#DejaVuSans-80"/>
      <use x="297.078125" xlink:href="#DejaVuSans-114"/>
      <use x="335.941406" xlink:href="#DejaVuSans-111"/>
      <use x="397.123047" xlink:href="#DejaVuSans-102"/>
      <use x="432.328125" xlink:href="#DejaVuSans-105"/>
      <use x="460.111328" xlink:href="#DejaVuSans-116"/>
      <use x="499.320312" xlink:href="#DejaVuSans-32"/>
      <use x="531.107422" xlink:href="#DejaVuSans-40"/>
      <use x="570.121094" xlink:href="#DejaVuSans-68"/>
      <use x="647.123047" xlink:href="#DejaVuSans-97"/>
      <use x="708.402344" xlink:href="#DejaVuSans-116"/>
      <use x="747.611328" xlink:href="#DejaVuSans-97"/>
      <use x="808.890625" xlink:href="#DejaVuSans-115"/>
      <use x="860.990234" xlink:href="#DejaVuSans-101"/>
      <use x="922.513672" xlink:href="#DejaVuSans-116"/>
      <use x="961.722656" xlink:href="#DejaVuSans-41"/>
     </g>
    </g>
    <g id="line2d_35">
     <path d="M 292.98875 154.780312 
L 312.98875 154.780312 
" style="fill:none;stroke:#008000;stroke-linecap:square;stroke-width:1.5;"/>
    </g>
    <g id="line2d_36"/>
    <g id="text_30">
     <!-- Min Profit (Dataset) -->
     <g transform="translate(320.98875 158.280312)scale(0.1 -0.1)">
      <use xlink:href="#DejaVuSans-77"/>
      <use x="86.279297" xlink:href="#DejaVuSans-105"/>
      <use x="114.0625" xlink:href="#DejaVuSans-110"/>
      <use x="177.441406" xlink:href="#DejaVuSans-32"/>
      <use x="209.228516" xlink:href="#DejaVuSans-80"/>
      <use x="267.78125" xlink:href="#DejaVuSans-114"/>
      <use x="306.644531" xlink:href="#DejaVuSans-111"/>
      <use x="367.826172" xlink:href="#DejaVuSans-102"/>
      <use x="403.03125" xlink:href="#DejaVuSans-105"/>
      <use x="430.814453" xlink:href="#DejaVuSans-116"/>
      <use x="470.023438" xlink:href="#DejaVuSans-32"/>
      <use x="501.810547" xlink:href="#DejaVuSans-40"/>
      <use x="540.824219" xlink:href="#DejaVuSans-68"/>
      <use x="617.826172" xlink:href="#DejaVuSans-97"/>
      <use x="679.105469" xlink:href="#DejaVuSans-116"/>
      <use x="718.314453" xlink:href="#DejaVuSans-97"/>
      <use x="779.59375" xlink:href="#DejaVuSans-115"/>
      <use x="831.693359" xlink:href="#DejaVuSans-101"/>
      <use x="893.216797" xlink:href="#DejaVuSans-116"/>
      <use x="932.425781" xlink:href="#DejaVuSans-41"/>
     </g>
    </g>
    <g id="line2d_37">
     <path d="M 292.98875 169.458438 
L 312.98875 169.458438 
" style="fill:none;stroke:#ff0000;stroke-linecap:square;stroke-width:1.5;"/>
    </g>
    <g id="line2d_38"/>
    <g id="text_31">
     <!-- Mean Profit (Model) -->
     <defs>
      <path d="M 9.421875 75.984375 
L 18.40625 75.984375 
L 18.40625 0 
L 9.421875 0 
z
" id="DejaVuSans-108"/>
     </defs>
     <g transform="translate(320.98875 172.958438)scale(0.1 -0.1)">
      <use xlink:href="#DejaVuSans-77"/>
      <use x="86.279297" xlink:href="#DejaVuSans-101"/>
      <use x="147.802734" xlink:href="#DejaVuSans-97"/>
      <use x="209.082031" xlink:href="#DejaVuSans-110"/>
      <use x="272.460938" xlink:href="#DejaVuSans-32"/>
      <use x="304.248047" xlink:href="#DejaVuSans-80"/>
      <use x="362.800781" xlink:href="#DejaVuSans-114"/>
      <use x="401.664062" xlink:href="#DejaVuSans-111"/>
      <use x="462.845703" xlink:href="#DejaVuSans-102"/>
      <use x="498.050781" xlink:href="#DejaVuSans-105"/>
      <use x="525.833984" xlink:href="#DejaVuSans-116"/>
      <use x="565.042969" xlink:href="#DejaVuSans-32"/>
      <use x="596.830078" xlink:href="#DejaVuSans-40"/>
      <use x="635.84375" xlink:href="#DejaVuSans-77"/>
      <use x="722.123047" xlink:href="#DejaVuSans-111"/>
      <use x="783.304688" xlink:href="#DejaVuSans-100"/>
      <use x="846.78125" xlink:href="#DejaVuSans-101"/>
      <use x="908.304688" xlink:href="#DejaVuSans-108"/>
      <use x="936.087891" xlink:href="#DejaVuSans-41"/>
     </g>
    </g>
    <g id="line2d_39">
     <path d="M 292.98875 184.136562 
L 312.98875 184.136562 
" style="fill:none;stroke:#ff0000;stroke-linecap:square;stroke-width:1.5;"/>
    </g>
    <g id="line2d_40"/>
    <g id="text_32">
     <!-- Max Profit (Model) -->
     <g transform="translate(320.98875 187.636562)scale(0.1 -0.1)">
      <use xlink:href="#DejaVuSans-77"/>
      <use x="86.279297" xlink:href="#DejaVuSans-97"/>
      <use x="147.558594" xlink:href="#DejaVuSans-120"/>
      <use x="206.738281" xlink:href="#DejaVuSans-32"/>
      <use x="238.525391" xlink:href="#DejaVuSans-80"/>
      <use x="297.078125" xlink:href="#DejaVuSans-114"/>
      <use x="335.941406" xlink:href="#DejaVuSans-111"/>
      <use x="397.123047" xlink:href="#DejaVuSans-102"/>
      <use x="432.328125" xlink:href="#DejaVuSans-105"/>
      <use x="460.111328" xlink:href="#DejaVuSans-116"/>
      <use x="499.320312" xlink:href="#DejaVuSans-32"/>
      <use x="531.107422" xlink:href="#DejaVuSans-40"/>
      <use x="570.121094" xlink:href="#DejaVuSans-77"/>
      <use x="656.400391" xlink:href="#DejaVuSans-111"/>
      <use x="717.582031" xlink:href="#DejaVuSans-100"/>
      <use x="781.058594" xlink:href="#DejaVuSans-101"/>
      <use x="842.582031" xlink:href="#DejaVuSans-108"/>
      <use x="870.365234" xlink:href="#DejaVuSans-41"/>
     </g>
    </g>
    <g id="line2d_41">
     <path d="M 292.98875 198.814687 
L 312.98875 198.814687 
" style="fill:none;stroke:#ff0000;stroke-linecap:square;stroke-width:1.5;"/>
    </g>
    <g id="line2d_42"/>
    <g id="text_33">
     <!-- Min Profit (Model) -->
     <g transform="translate(320.98875 202.314687)scale(0.1 -0.1)">
      <use xlink:href="#DejaVuSans-77"/>
      <use x="86.279297" xlink:href="#DejaVuSans-105"/>
      <use x="114.0625" xlink:href="#DejaVuSans-110"/>
      <use x="177.441406" xlink:href="#DejaVuSans-32"/>
      <use x="209.228516" xlink:href="#DejaVuSans-80"/>
      <use x="267.78125" xlink:href="#DejaVuSans-114"/>
      <use x="306.644531" xlink:href="#DejaVuSans-111"/>
      <use x="367.826172" xlink:href="#DejaVuSans-102"/>
      <use x="403.03125" xlink:href="#DejaVuSans-105"/>
      <use x="430.814453" xlink:href="#DejaVuSans-116"/>
      <use x="470.023438" xlink:href="#DejaVuSans-32"/>
      <use x="501.810547" xlink:href="#DejaVuSans-40"/>
      <use x="540.824219" xlink:href="#DejaVuSans-77"/>
      <use x="627.103516" xlink:href="#DejaVuSans-111"/>
      <use x="688.285156" xlink:href="#DejaVuSans-100"/>
      <use x="751.761719" xlink:href="#DejaVuSans-101"/>
      <use x="813.285156" xlink:href="#DejaVuSans-108"/>
      <use x="841.068359" xlink:href="#DejaVuSans-41"/>
     </g>
    </g>
   </g>
  </g>
  <g id="text_34">
   <!-- Profits Accumulated -->
   <defs>
    <path d="M 48.78125 52.59375 
L 48.78125 44.1875 
Q 44.96875 46.296875 41.140625 47.34375 
Q 37.3125 48.390625 33.40625 48.390625 
Q 24.65625 48.390625 19.8125 42.84375 
Q 14.984375 37.3125 14.984375 27.296875 
Q 14.984375 17.28125 19.8125 11.734375 
Q 24.65625 6.203125 33.40625 6.203125 
Q 37.3125 6.203125 41.140625 7.25 
Q 44.96875 8.296875 48.78125 10.40625 
L 48.78125 2.09375 
Q 45.015625 0.34375 40.984375 -0.53125 
Q 36.96875 -1.421875 32.421875 -1.421875 
Q 20.0625 -1.421875 12.78125 6.34375 
Q 5.515625 14.109375 5.515625 27.296875 
Q 5.515625 40.671875 12.859375 48.328125 
Q 20.21875 56 33.015625 56 
Q 37.15625 56 41.109375 55.140625 
Q 45.0625 54.296875 48.78125 52.59375 
z
" id="DejaVuSans-99"/>
    <path d="M 8.5 21.578125 
L 8.5 54.6875 
L 17.484375 54.6875 
L 17.484375 21.921875 
Q 17.484375 14.15625 20.5 10.265625 
Q 23.53125 6.390625 29.59375 6.390625 
Q 36.859375 6.390625 41.078125 11.03125 
Q 45.3125 15.671875 45.3125 23.6875 
L 45.3125 54.6875 
L 54.296875 54.6875 
L 54.296875 0 
L 45.3125 0 
L 45.3125 8.40625 
Q 42.046875 3.421875 37.71875 1 
Q 33.40625 -1.421875 27.6875 -1.421875 
Q 18.265625 -1.421875 13.375 4.4375 
Q 8.5 10.296875 8.5 21.578125 
z
M 31.109375 56 
z
" id="DejaVuSans-117"/>
    <path d="M 52 44.1875 
Q 55.375 50.25 60.0625 53.125 
Q 64.75 56 71.09375 56 
Q 79.640625 56 84.28125 50.015625 
Q 88.921875 44.046875 88.921875 33.015625 
L 88.921875 0 
L 79.890625 0 
L 79.890625 32.71875 
Q 79.890625 40.578125 77.09375 44.375 
Q 74.3125 48.1875 68.609375 48.1875 
Q 61.625 48.1875 57.5625 43.546875 
Q 53.515625 38.921875 53.515625 30.90625 
L 53.515625 0 
L 44.484375 0 
L 44.484375 32.71875 
Q 44.484375 40.625 41.703125 44.40625 
Q 38.921875 48.1875 33.109375 48.1875 
Q 26.21875 48.1875 22.15625 43.53125 
Q 18.109375 38.875 18.109375 30.90625 
L 18.109375 0 
L 9.078125 0 
L 9.078125 54.6875 
L 18.109375 54.6875 
L 18.109375 46.1875 
Q 21.1875 51.21875 25.484375 53.609375 
Q 29.78125 56 35.6875 56 
Q 41.65625 56 45.828125 52.96875 
Q 50 49.953125 52 44.1875 
z
" id="DejaVuSans-109"/>
   </defs>
   <g transform="translate(160.489688 17.549812)scale(0.14 -0.14)">
    <use xlink:href="#DejaVuSans-80"/>
    <use x="58.552734" xlink:href="#DejaVuSans-114"/>
    <use x="97.416016" xlink:href="#DejaVuSans-111"/>
    <use x="158.597656" xlink:href="#DejaVuSans-102"/>
    <use x="193.802734" xlink:href="#DejaVuSans-105"/>
    <use x="221.585938" xlink:href="#DejaVuSans-116"/>
    <use x="260.794922" xlink:href="#DejaVuSans-115"/>
    <use x="312.894531" xlink:href="#DejaVuSans-32"/>
    <use x="344.681641" xlink:href="#DejaVuSans-65"/>
    <use x="411.339844" xlink:href="#DejaVuSans-99"/>
    <use x="466.320312" xlink:href="#DejaVuSans-99"/>
    <use x="521.300781" xlink:href="#DejaVuSans-117"/>
    <use x="584.679688" xlink:href="#DejaVuSans-109"/>
    <use x="682.091797" xlink:href="#DejaVuSans-117"/>
    <use x="745.470703" xlink:href="#DejaVuSans-108"/>
    <use x="773.253906" xlink:href="#DejaVuSans-97"/>
    <use x="834.533203" xlink:href="#DejaVuSans-116"/>
    <use x="873.742188" xlink:href="#DejaVuSans-101"/>
    <use x="935.265625" xlink:href="#DejaVuSans-100"/>
   </g>
  </g>
 </g>
 <defs>
  <clipPath id="p6355672023">
   <rect height="283" width="398.745" x="37.8875" y="21.36"/>
  </clipPath>
 </defs>
</svg>
