<?xml version="1.0" encoding="utf-8" standalone="no"?>
<!DOCTYPE svg PUBLIC "-//W3C//DTD SVG 1.1//EN"
  "http://www.w3.org/Graphics/SVG/1.1/DTD/svg11.dtd">
<!-- Created with matplotlib (https://matplotlib.org/) -->
<svg height="345.6pt" version="1.1" viewBox="0 0 460.8 345.6" width="460.8pt" xmlns="http://www.w3.org/2000/svg" xmlns:xlink="http://www.w3.org/1999/xlink">
 <defs>
  <style type="text/css">
*{stroke-linecap:butt;stroke-linejoin:round;}
  </style>
 </defs>
 <g id="figure_1">
  <g id="patch_1">
   <path d="M 0 345.6 
L 460.8 345.6 
L 460.8 0 
L 0 0 
z
" style="fill:#ffffff;"/>
  </g>
  <g id="axes_1">
   <g id="patch_2">
    <path d="M 50.6 304.36 
L 391.1875 304.36 
L 391.1875 10.8 
L 50.6 10.8 
z
" style="fill:#ffffff;"/>
   </g>
   <g id="matplotlib.axis_1">
    <g id="xtick_1">
     <g id="line2d_1">
      <defs>
       <path d="M 0 0 
L 0 3.5 
" id="mebdd8f92e8" style="stroke:#000000;stroke-width:0.8;"/>
      </defs>
      <g>
       <use style="stroke:#000000;stroke-width:0.8;" x="66.08125" xlink:href="#mebdd8f92e8" y="304.36"/>
      </g>
     </g>
     <g id="text_1">
      <!-- 0 -->
      <defs>
       <path d="M 31.78125 66.40625 
Q 24.171875 66.40625 20.328125 58.90625 
Q 16.5 51.421875 16.5 36.375 
Q 16.5 21.390625 20.328125 13.890625 
Q 24.171875 6.390625 31.78125 6.390625 
Q 39.453125 6.390625 43.28125 13.890625 
Q 47.125 21.390625 47.125 36.375 
Q 47.125 51.421875 43.28125 58.90625 
Q 39.453125 66.40625 31.78125 66.40625 
z
M 31.78125 74.21875 
Q 44.046875 74.21875 50.515625 64.515625 
Q 56.984375 54.828125 56.984375 36.375 
Q 56.984375 17.96875 50.515625 8.265625 
Q 44.046875 -1.421875 31.78125 -1.421875 
Q 19.53125 -1.421875 13.0625 8.265625 
Q 6.59375 17.96875 6.59375 36.375 
Q 6.59375 54.828125 13.0625 64.515625 
Q 19.53125 74.21875 31.78125 74.21875 
z
" id="DejaVuSans-48"/>
      </defs>
      <g transform="translate(62.9 318.958437)scale(0.1 -0.1)">
       <use xlink:href="#DejaVuSans-48"/>
      </g>
     </g>
    </g>
    <g id="xtick_2">
     <g id="line2d_2">
      <g>
       <use style="stroke:#000000;stroke-width:0.8;" x="117.858006" xlink:href="#mebdd8f92e8" y="304.36"/>
      </g>
     </g>
     <g id="text_2">
      <!-- 50 -->
      <defs>
       <path d="M 10.796875 72.90625 
L 49.515625 72.90625 
L 49.515625 64.59375 
L 19.828125 64.59375 
L 19.828125 46.734375 
Q 21.96875 47.46875 24.109375 47.828125 
Q 26.265625 48.1875 28.421875 48.1875 
Q 40.625 48.1875 47.75 41.5 
Q 54.890625 34.8125 54.890625 23.390625 
Q 54.890625 11.625 47.5625 5.09375 
Q 40.234375 -1.421875 26.90625 -1.421875 
Q 22.3125 -1.421875 17.546875 -0.640625 
Q 12.796875 0.140625 7.71875 1.703125 
L 7.71875 11.625 
Q 12.109375 9.234375 16.796875 8.0625 
Q 21.484375 6.890625 26.703125 6.890625 
Q 35.15625 6.890625 40.078125 11.328125 
Q 45.015625 15.765625 45.015625 23.390625 
Q 45.015625 31 40.078125 35.4375 
Q 35.15625 39.890625 26.703125 39.890625 
Q 22.75 39.890625 18.8125 39.015625 
Q 14.890625 38.140625 10.796875 36.28125 
z
" id="DejaVuSans-53"/>
      </defs>
      <g transform="translate(111.495506 318.958437)scale(0.1 -0.1)">
       <use xlink:href="#DejaVuSans-53"/>
       <use x="63.623047" xlink:href="#DejaVuSans-48"/>
      </g>
     </g>
    </g>
    <g id="xtick_3">
     <g id="line2d_3">
      <g>
       <use style="stroke:#000000;stroke-width:0.8;" x="169.634762" xlink:href="#mebdd8f92e8" y="304.36"/>
      </g>
     </g>
     <g id="text_3">
      <!-- 100 -->
      <defs>
       <path d="M 12.40625 8.296875 
L 28.515625 8.296875 
L 28.515625 63.921875 
L 10.984375 60.40625 
L 10.984375 69.390625 
L 28.421875 72.90625 
L 38.28125 72.90625 
L 38.28125 8.296875 
L 54.390625 8.296875 
L 54.390625 0 
L 12.40625 0 
z
" id="DejaVuSans-49"/>
      </defs>
      <g transform="translate(160.091012 318.958437)scale(0.1 -0.1)">
       <use xlink:href="#DejaVuSans-49"/>
       <use x="63.623047" xlink:href="#DejaVuSans-48"/>
       <use x="127.246094" xlink:href="#DejaVuSans-48"/>
      </g>
     </g>
    </g>
    <g id="xtick_4">
     <g id="line2d_4">
      <g>
       <use style="stroke:#000000;stroke-width:0.8;" x="221.411518" xlink:href="#mebdd8f92e8" y="304.36"/>
      </g>
     </g>
     <g id="text_4">
      <!-- 150 -->
      <g transform="translate(211.867768 318.958437)scale(0.1 -0.1)">
       <use xlink:href="#DejaVuSans-49"/>
       <use x="63.623047" xlink:href="#DejaVuSans-53"/>
       <use x="127.246094" xlink:href="#DejaVuSans-48"/>
      </g>
     </g>
    </g>
    <g id="xtick_5">
     <g id="line2d_5">
      <g>
       <use style="stroke:#000000;stroke-width:0.8;" x="273.188273" xlink:href="#mebdd8f92e8" y="304.36"/>
      </g>
     </g>
     <g id="text_5">
      <!-- 200 -->
      <defs>
       <path d="M 19.1875 8.296875 
L 53.609375 8.296875 
L 53.609375 0 
L 7.328125 0 
L 7.328125 8.296875 
Q 12.9375 14.109375 22.625 23.890625 
Q 32.328125 33.6875 34.8125 36.53125 
Q 39.546875 41.84375 41.421875 45.53125 
Q 43.3125 49.21875 43.3125 52.78125 
Q 43.3125 58.59375 39.234375 62.25 
Q 35.15625 65.921875 28.609375 65.921875 
Q 23.96875 65.921875 18.8125 64.3125 
Q 13.671875 62.703125 7.8125 59.421875 
L 7.8125 69.390625 
Q 13.765625 71.78125 18.9375 73 
Q 24.125 74.21875 28.421875 74.21875 
Q 39.75 74.21875 46.484375 68.546875 
Q 53.21875 62.890625 53.21875 53.421875 
Q 53.21875 48.921875 51.53125 44.890625 
Q 49.859375 40.875 45.40625 35.40625 
Q 44.1875 33.984375 37.640625 27.21875 
Q 31.109375 20.453125 19.1875 8.296875 
z
" id="DejaVuSans-50"/>
      </defs>
      <g transform="translate(263.644523 318.958437)scale(0.1 -0.1)">
       <use xlink:href="#DejaVuSans-50"/>
       <use x="63.623047" xlink:href="#DejaVuSans-48"/>
       <use x="127.246094" xlink:href="#DejaVuSans-48"/>
      </g>
     </g>
    </g>
    <g id="xtick_6">
     <g id="line2d_6">
      <g>
       <use style="stroke:#000000;stroke-width:0.8;" x="324.965029" xlink:href="#mebdd8f92e8" y="304.36"/>
      </g>
     </g>
     <g id="text_6">
      <!-- 250 -->
      <g transform="translate(315.421279 318.958437)scale(0.1 -0.1)">
       <use xlink:href="#DejaVuSans-50"/>
       <use x="63.623047" xlink:href="#DejaVuSans-53"/>
       <use x="127.246094" xlink:href="#DejaVuSans-48"/>
      </g>
     </g>
    </g>
    <g id="xtick_7">
     <g id="line2d_7">
      <g>
       <use style="stroke:#000000;stroke-width:0.8;" x="376.741785" xlink:href="#mebdd8f92e8" y="304.36"/>
      </g>
     </g>
     <g id="text_7">
      <!-- 300 -->
      <defs>
       <path d="M 40.578125 39.3125 
Q 47.65625 37.796875 51.625 33 
Q 55.609375 28.21875 55.609375 21.1875 
Q 55.609375 10.40625 48.1875 4.484375 
Q 40.765625 -1.421875 27.09375 -1.421875 
Q 22.515625 -1.421875 17.65625 -0.515625 
Q 12.796875 0.390625 7.625 2.203125 
L 7.625 11.71875 
Q 11.71875 9.328125 16.59375 8.109375 
Q 21.484375 6.890625 26.8125 6.890625 
Q 36.078125 6.890625 40.9375 10.546875 
Q 45.796875 14.203125 45.796875 21.1875 
Q 45.796875 27.640625 41.28125 31.265625 
Q 36.765625 34.90625 28.71875 34.90625 
L 20.21875 34.90625 
L 20.21875 43.015625 
L 29.109375 43.015625 
Q 36.375 43.015625 40.234375 45.921875 
Q 44.09375 48.828125 44.09375 54.296875 
Q 44.09375 59.90625 40.109375 62.90625 
Q 36.140625 65.921875 28.71875 65.921875 
Q 24.65625 65.921875 20.015625 65.03125 
Q 15.375 64.15625 9.8125 62.3125 
L 9.8125 71.09375 
Q 15.4375 72.65625 20.34375 73.4375 
Q 25.25 74.21875 29.59375 74.21875 
Q 40.828125 74.21875 47.359375 69.109375 
Q 53.90625 64.015625 53.90625 55.328125 
Q 53.90625 49.265625 50.4375 45.09375 
Q 46.96875 40.921875 40.578125 39.3125 
z
" id="DejaVuSans-51"/>
      </defs>
      <g transform="translate(367.198035 318.958437)scale(0.1 -0.1)">
       <use xlink:href="#DejaVuSans-51"/>
       <use x="63.623047" xlink:href="#DejaVuSans-48"/>
       <use x="127.246094" xlink:href="#DejaVuSans-48"/>
      </g>
     </g>
    </g>
    <g id="text_8">
     <!-- Average of Per 7500.0 Episode -->
     <defs>
      <path d="M 34.1875 63.1875 
L 20.796875 26.90625 
L 47.609375 26.90625 
z
M 28.609375 72.90625 
L 39.796875 72.90625 
L 67.578125 0 
L 57.328125 0 
L 50.6875 18.703125 
L 17.828125 18.703125 
L 11.1875 0 
L 0.78125 0 
z
" id="DejaVuSans-65"/>
      <path d="M 2.984375 54.6875 
L 12.5 54.6875 
L 29.59375 8.796875 
L 46.6875 54.6875 
L 56.203125 54.6875 
L 35.6875 0 
L 23.484375 0 
z
" id="DejaVuSans-118"/>
      <path d="M 56.203125 29.59375 
L 56.203125 25.203125 
L 14.890625 25.203125 
Q 15.484375 15.921875 20.484375 11.0625 
Q 25.484375 6.203125 34.421875 6.203125 
Q 39.59375 6.203125 44.453125 7.46875 
Q 49.3125 8.734375 54.109375 11.28125 
L 54.109375 2.78125 
Q 49.265625 0.734375 44.1875 -0.34375 
Q 39.109375 -1.421875 33.890625 -1.421875 
Q 20.796875 -1.421875 13.15625 6.1875 
Q 5.515625 13.8125 5.515625 26.8125 
Q 5.515625 40.234375 12.765625 48.109375 
Q 20.015625 56 32.328125 56 
Q 43.359375 56 49.78125 48.890625 
Q 56.203125 41.796875 56.203125 29.59375 
z
M 47.21875 32.234375 
Q 47.125 39.59375 43.09375 43.984375 
Q 39.0625 48.390625 32.421875 48.390625 
Q 24.90625 48.390625 20.390625 44.140625 
Q 15.875 39.890625 15.1875 32.171875 
z
" id="DejaVuSans-101"/>
      <path d="M 41.109375 46.296875 
Q 39.59375 47.171875 37.8125 47.578125 
Q 36.03125 48 33.890625 48 
Q 26.265625 48 22.1875 43.046875 
Q 18.109375 38.09375 18.109375 28.8125 
L 18.109375 0 
L 9.078125 0 
L 9.078125 54.6875 
L 18.109375 54.6875 
L 18.109375 46.1875 
Q 20.953125 51.171875 25.484375 53.578125 
Q 30.03125 56 36.53125 56 
Q 37.453125 56 38.578125 55.875 
Q 39.703125 55.765625 41.0625 55.515625 
z
" id="DejaVuSans-114"/>
      <path d="M 34.28125 27.484375 
Q 23.390625 27.484375 19.1875 25 
Q 14.984375 22.515625 14.984375 16.5 
Q 14.984375 11.71875 18.140625 8.90625 
Q 21.296875 6.109375 26.703125 6.109375 
Q 34.1875 6.109375 38.703125 11.40625 
Q 43.21875 16.703125 43.21875 25.484375 
L 43.21875 27.484375 
z
M 52.203125 31.203125 
L 52.203125 0 
L 43.21875 0 
L 43.21875 8.296875 
Q 40.140625 3.328125 35.546875 0.953125 
Q 30.953125 -1.421875 24.3125 -1.421875 
Q 15.921875 -1.421875 10.953125 3.296875 
Q 6 8.015625 6 15.921875 
Q 6 25.140625 12.171875 29.828125 
Q 18.359375 34.515625 30.609375 34.515625 
L 43.21875 34.515625 
L 43.21875 35.40625 
Q 43.21875 41.609375 39.140625 45 
Q 35.0625 48.390625 27.6875 48.390625 
Q 23 48.390625 18.546875 47.265625 
Q 14.109375 46.140625 10.015625 43.890625 
L 10.015625 52.203125 
Q 14.9375 54.109375 19.578125 55.046875 
Q 24.21875 56 28.609375 56 
Q 40.484375 56 46.34375 49.84375 
Q 52.203125 43.703125 52.203125 31.203125 
z
" id="DejaVuSans-97"/>
      <path d="M 45.40625 27.984375 
Q 45.40625 37.75 41.375 43.109375 
Q 37.359375 48.484375 30.078125 48.484375 
Q 22.859375 48.484375 18.828125 43.109375 
Q 14.796875 37.75 14.796875 27.984375 
Q 14.796875 18.265625 18.828125 12.890625 
Q 22.859375 7.515625 30.078125 7.515625 
Q 37.359375 7.515625 41.375 12.890625 
Q 45.40625 18.265625 45.40625 27.984375 
z
M 54.390625 6.78125 
Q 54.390625 -7.171875 48.1875 -13.984375 
Q 42 -20.796875 29.203125 -20.796875 
Q 24.46875 -20.796875 20.265625 -20.09375 
Q 16.0625 -19.390625 12.109375 -17.921875 
L 12.109375 -9.1875 
Q 16.0625 -11.328125 19.921875 -12.34375 
Q 23.78125 -13.375 27.78125 -13.375 
Q 36.625 -13.375 41.015625 -8.765625 
Q 45.40625 -4.15625 45.40625 5.171875 
L 45.40625 9.625 
Q 42.625 4.78125 38.28125 2.390625 
Q 33.9375 0 27.875 0 
Q 17.828125 0 11.671875 7.65625 
Q 5.515625 15.328125 5.515625 27.984375 
Q 5.515625 40.671875 11.671875 48.328125 
Q 17.828125 56 27.875 56 
Q 33.9375 56 38.28125 53.609375 
Q 42.625 51.21875 45.40625 46.390625 
L 45.40625 54.6875 
L 54.390625 54.6875 
z
" id="DejaVuSans-103"/>
      <path id="DejaVuSans-32"/>
      <path d="M 30.609375 48.390625 
Q 23.390625 48.390625 19.1875 42.75 
Q 14.984375 37.109375 14.984375 27.296875 
Q 14.984375 17.484375 19.15625 11.84375 
Q 23.34375 6.203125 30.609375 6.203125 
Q 37.796875 6.203125 41.984375 11.859375 
Q 46.1875 17.53125 46.1875 27.296875 
Q 46.1875 37.015625 41.984375 42.703125 
Q 37.796875 48.390625 30.609375 48.390625 
z
M 30.609375 56 
Q 42.328125 56 49.015625 48.375 
Q 55.71875 40.765625 55.71875 27.296875 
Q 55.71875 13.875 49.015625 6.21875 
Q 42.328125 -1.421875 30.609375 -1.421875 
Q 18.84375 -1.421875 12.171875 6.21875 
Q 5.515625 13.875 5.515625 27.296875 
Q 5.515625 40.765625 12.171875 48.375 
Q 18.84375 56 30.609375 56 
z
" id="DejaVuSans-111"/>
      <path d="M 37.109375 75.984375 
L 37.109375 68.5 
L 28.515625 68.5 
Q 23.6875 68.5 21.796875 66.546875 
Q 19.921875 64.59375 19.921875 59.515625 
L 19.921875 54.6875 
L 34.71875 54.6875 
L 34.71875 47.703125 
L 19.921875 47.703125 
L 19.921875 0 
L 10.890625 0 
L 10.890625 47.703125 
L 2.296875 47.703125 
L 2.296875 54.6875 
L 10.890625 54.6875 
L 10.890625 58.5 
Q 10.890625 67.625 15.140625 71.796875 
Q 19.390625 75.984375 28.609375 75.984375 
z
" id="DejaVuSans-102"/>
      <path d="M 19.671875 64.796875 
L 19.671875 37.40625 
L 32.078125 37.40625 
Q 38.96875 37.40625 42.71875 40.96875 
Q 46.484375 44.53125 46.484375 51.125 
Q 46.484375 57.671875 42.71875 61.234375 
Q 38.96875 64.796875 32.078125 64.796875 
z
M 9.8125 72.90625 
L 32.078125 72.90625 
Q 44.34375 72.90625 50.609375 67.359375 
Q 56.890625 61.8125 56.890625 51.125 
Q 56.890625 40.328125 50.609375 34.8125 
Q 44.34375 29.296875 32.078125 29.296875 
L 19.671875 29.296875 
L 19.671875 0 
L 9.8125 0 
z
" id="DejaVuSans-80"/>
      <path d="M 8.203125 72.90625 
L 55.078125 72.90625 
L 55.078125 68.703125 
L 28.609375 0 
L 18.3125 0 
L 43.21875 64.59375 
L 8.203125 64.59375 
z
" id="DejaVuSans-55"/>
      <path d="M 10.6875 12.40625 
L 21 12.40625 
L 21 0 
L 10.6875 0 
z
" id="DejaVuSans-46"/>
      <path d="M 9.8125 72.90625 
L 55.90625 72.90625 
L 55.90625 64.59375 
L 19.671875 64.59375 
L 19.671875 43.015625 
L 54.390625 43.015625 
L 54.390625 34.71875 
L 19.671875 34.71875 
L 19.671875 8.296875 
L 56.78125 8.296875 
L 56.78125 0 
L 9.8125 0 
z
" id="DejaVuSans-69"/>
      <path d="M 18.109375 8.203125 
L 18.109375 -20.796875 
L 9.078125 -20.796875 
L 9.078125 54.6875 
L 18.109375 54.6875 
L 18.109375 46.390625 
Q 20.953125 51.265625 25.265625 53.625 
Q 29.59375 56 35.59375 56 
Q 45.5625 56 51.78125 48.09375 
Q 58.015625 40.1875 58.015625 27.296875 
Q 58.015625 14.40625 51.78125 6.484375 
Q 45.5625 -1.421875 35.59375 -1.421875 
Q 29.59375 -1.421875 25.265625 0.953125 
Q 20.953125 3.328125 18.109375 8.203125 
z
M 48.6875 27.296875 
Q 48.6875 37.203125 44.609375 42.84375 
Q 40.53125 48.484375 33.40625 48.484375 
Q 26.265625 48.484375 22.1875 42.84375 
Q 18.109375 37.203125 18.109375 27.296875 
Q 18.109375 17.390625 22.1875 11.75 
Q 26.265625 6.109375 33.40625 6.109375 
Q 40.53125 6.109375 44.609375 11.75 
Q 48.6875 17.390625 48.6875 27.296875 
z
" id="DejaVuSans-112"/>
      <path d="M 9.421875 54.6875 
L 18.40625 54.6875 
L 18.40625 0 
L 9.421875 0 
z
M 9.421875 75.984375 
L 18.40625 75.984375 
L 18.40625 64.59375 
L 9.421875 64.59375 
z
" id="DejaVuSans-105"/>
      <path d="M 44.28125 53.078125 
L 44.28125 44.578125 
Q 40.484375 46.53125 36.375 47.5 
Q 32.28125 48.484375 27.875 48.484375 
Q 21.1875 48.484375 17.84375 46.4375 
Q 14.5 44.390625 14.5 40.28125 
Q 14.5 37.15625 16.890625 35.375 
Q 19.28125 33.59375 26.515625 31.984375 
L 29.59375 31.296875 
Q 39.15625 29.25 43.1875 25.515625 
Q 47.21875 21.78125 47.21875 15.09375 
Q 47.21875 7.46875 41.1875 3.015625 
Q 35.15625 -1.421875 24.609375 -1.421875 
Q 20.21875 -1.421875 15.453125 -0.5625 
Q 10.6875 0.296875 5.421875 2 
L 5.421875 11.28125 
Q 10.40625 8.6875 15.234375 7.390625 
Q 20.0625 6.109375 24.8125 6.109375 
Q 31.15625 6.109375 34.5625 8.28125 
Q 37.984375 10.453125 37.984375 14.40625 
Q 37.984375 18.0625 35.515625 20.015625 
Q 33.0625 21.96875 24.703125 23.78125 
L 21.578125 24.515625 
Q 13.234375 26.265625 9.515625 29.90625 
Q 5.8125 33.546875 5.8125 39.890625 
Q 5.8125 47.609375 11.28125 51.796875 
Q 16.75 56 26.8125 56 
Q 31.78125 56 36.171875 55.265625 
Q 40.578125 54.546875 44.28125 53.078125 
z
" id="DejaVuSans-115"/>
      <path d="M 45.40625 46.390625 
L 45.40625 75.984375 
L 54.390625 75.984375 
L 54.390625 0 
L 45.40625 0 
L 45.40625 8.203125 
Q 42.578125 3.328125 38.25 0.953125 
Q 33.9375 -1.421875 27.875 -1.421875 
Q 17.96875 -1.421875 11.734375 6.484375 
Q 5.515625 14.40625 5.515625 27.296875 
Q 5.515625 40.1875 11.734375 48.09375 
Q 17.96875 56 27.875 56 
Q 33.9375 56 38.25 53.625 
Q 42.578125 51.265625 45.40625 46.390625 
z
M 14.796875 27.296875 
Q 14.796875 17.390625 18.875 11.75 
Q 22.953125 6.109375 30.078125 6.109375 
Q 37.203125 6.109375 41.296875 11.75 
Q 45.40625 17.390625 45.40625 27.296875 
Q 45.40625 37.203125 41.296875 42.84375 
Q 37.203125 48.484375 30.078125 48.484375 
Q 22.953125 48.484375 18.875 42.84375 
Q 14.796875 37.203125 14.796875 27.296875 
z
" id="DejaVuSans-100"/>
     </defs>
     <g transform="translate(144.086719 332.636562)scale(0.1 -0.1)">
      <use xlink:href="#DejaVuSans-65"/>
      <use x="62.533203" xlink:href="#DejaVuSans-118"/>
      <use x="121.712891" xlink:href="#DejaVuSans-101"/>
      <use x="183.236328" xlink:href="#DejaVuSans-114"/>
      <use x="224.349609" xlink:href="#DejaVuSans-97"/>
      <use x="285.628906" xlink:href="#DejaVuSans-103"/>
      <use x="349.105469" xlink:href="#DejaVuSans-101"/>
      <use x="410.628906" xlink:href="#DejaVuSans-32"/>
      <use x="442.416016" xlink:href="#DejaVuSans-111"/>
      <use x="503.597656" xlink:href="#DejaVuSans-102"/>
      <use x="538.802734" xlink:href="#DejaVuSans-32"/>
      <use x="570.589844" xlink:href="#DejaVuSans-80"/>
      <use x="627.267578" xlink:href="#DejaVuSans-101"/>
      <use x="688.791016" xlink:href="#DejaVuSans-114"/>
      <use x="729.904297" xlink:href="#DejaVuSans-32"/>
      <use x="761.691406" xlink:href="#DejaVuSans-55"/>
      <use x="825.314453" xlink:href="#DejaVuSans-53"/>
      <use x="888.9375" xlink:href="#DejaVuSans-48"/>
      <use x="952.560547" xlink:href="#DejaVuSans-48"/>
      <use x="1016.183594" xlink:href="#DejaVuSans-46"/>
      <use x="1047.970703" xlink:href="#DejaVuSans-48"/>
      <use x="1111.59375" xlink:href="#DejaVuSans-32"/>
      <use x="1143.380859" xlink:href="#DejaVuSans-69"/>
      <use x="1206.564453" xlink:href="#DejaVuSans-112"/>
      <use x="1270.041016" xlink:href="#DejaVuSans-105"/>
      <use x="1297.824219" xlink:href="#DejaVuSans-115"/>
      <use x="1349.923828" xlink:href="#DejaVuSans-111"/>
      <use x="1411.105469" xlink:href="#DejaVuSans-100"/>
      <use x="1474.582031" xlink:href="#DejaVuSans-101"/>
     </g>
    </g>
   </g>
   <g id="matplotlib.axis_2">
    <g id="ytick_1">
     <g id="line2d_8">
      <defs>
       <path d="M 0 0 
L -3.5 0 
" id="mbfa2b3c93d" style="stroke:#000000;stroke-width:0.8;"/>
      </defs>
      <g>
       <use style="stroke:#000000;stroke-width:0.8;" x="50.6" xlink:href="#mbfa2b3c93d" y="291.095887"/>
      </g>
     </g>
     <g id="text_9">
      <!-- 0 -->
      <g style="fill:#0000ff;" transform="translate(37.2375 294.895105)scale(0.1 -0.1)">
       <use xlink:href="#DejaVuSans-48"/>
      </g>
     </g>
    </g>
    <g id="ytick_2">
     <g id="line2d_9">
      <g>
       <use style="stroke:#000000;stroke-width:0.8;" x="50.6" xlink:href="#mbfa2b3c93d" y="258.221681"/>
      </g>
     </g>
     <g id="text_10">
      <!-- 50 -->
      <g style="fill:#0000ff;" transform="translate(30.875 262.0209)scale(0.1 -0.1)">
       <use xlink:href="#DejaVuSans-53"/>
       <use x="63.623047" xlink:href="#DejaVuSans-48"/>
      </g>
     </g>
    </g>
    <g id="ytick_3">
     <g id="line2d_10">
      <g>
       <use style="stroke:#000000;stroke-width:0.8;" x="50.6" xlink:href="#mbfa2b3c93d" y="225.347475"/>
      </g>
     </g>
     <g id="text_11">
      <!-- 100 -->
      <g style="fill:#0000ff;" transform="translate(24.5125 229.146694)scale(0.1 -0.1)">
       <use xlink:href="#DejaVuSans-49"/>
       <use x="63.623047" xlink:href="#DejaVuSans-48"/>
       <use x="127.246094" xlink:href="#DejaVuSans-48"/>
      </g>
     </g>
    </g>
    <g id="ytick_4">
     <g id="line2d_11">
      <g>
       <use style="stroke:#000000;stroke-width:0.8;" x="50.6" xlink:href="#mbfa2b3c93d" y="192.47327"/>
      </g>
     </g>
     <g id="text_12">
      <!-- 150 -->
      <g style="fill:#0000ff;" transform="translate(24.5125 196.272489)scale(0.1 -0.1)">
       <use xlink:href="#DejaVuSans-49"/>
       <use x="63.623047" xlink:href="#DejaVuSans-53"/>
       <use x="127.246094" xlink:href="#DejaVuSans-48"/>
      </g>
     </g>
    </g>
    <g id="ytick_5">
     <g id="line2d_12">
      <g>
       <use style="stroke:#000000;stroke-width:0.8;" x="50.6" xlink:href="#mbfa2b3c93d" y="159.599064"/>
      </g>
     </g>
     <g id="text_13">
      <!-- 200 -->
      <g style="fill:#0000ff;" transform="translate(24.5125 163.398283)scale(0.1 -0.1)">
       <use xlink:href="#DejaVuSans-50"/>
       <use x="63.623047" xlink:href="#DejaVuSans-48"/>
       <use x="127.246094" xlink:href="#DejaVuSans-48"/>
      </g>
     </g>
    </g>
    <g id="ytick_6">
     <g id="line2d_13">
      <g>
       <use style="stroke:#000000;stroke-width:0.8;" x="50.6" xlink:href="#mbfa2b3c93d" y="126.724859"/>
      </g>
     </g>
     <g id="text_14">
      <!-- 250 -->
      <g style="fill:#0000ff;" transform="translate(24.5125 130.524077)scale(0.1 -0.1)">
       <use xlink:href="#DejaVuSans-50"/>
       <use x="63.623047" xlink:href="#DejaVuSans-53"/>
       <use x="127.246094" xlink:href="#DejaVuSans-48"/>
      </g>
     </g>
    </g>
    <g id="ytick_7">
     <g id="line2d_14">
      <g>
       <use style="stroke:#000000;stroke-width:0.8;" x="50.6" xlink:href="#mbfa2b3c93d" y="93.850653"/>
      </g>
     </g>
     <g id="text_15">
      <!-- 300 -->
      <g style="fill:#0000ff;" transform="translate(24.5125 97.649872)scale(0.1 -0.1)">
       <use xlink:href="#DejaVuSans-51"/>
       <use x="63.623047" xlink:href="#DejaVuSans-48"/>
       <use x="127.246094" xlink:href="#DejaVuSans-48"/>
      </g>
     </g>
    </g>
    <g id="ytick_8">
     <g id="line2d_15">
      <g>
       <use style="stroke:#000000;stroke-width:0.8;" x="50.6" xlink:href="#mbfa2b3c93d" y="60.976448"/>
      </g>
     </g>
     <g id="text_16">
      <!-- 350 -->
      <g style="fill:#0000ff;" transform="translate(24.5125 64.775666)scale(0.1 -0.1)">
       <use xlink:href="#DejaVuSans-51"/>
       <use x="63.623047" xlink:href="#DejaVuSans-53"/>
       <use x="127.246094" xlink:href="#DejaVuSans-48"/>
      </g>
     </g>
    </g>
    <g id="ytick_9">
     <g id="line2d_16">
      <g>
       <use style="stroke:#000000;stroke-width:0.8;" x="50.6" xlink:href="#mbfa2b3c93d" y="28.102242"/>
      </g>
     </g>
     <g id="text_17">
      <!-- 400 -->
      <defs>
       <path d="M 37.796875 64.3125 
L 12.890625 25.390625 
L 37.796875 25.390625 
z
M 35.203125 72.90625 
L 47.609375 72.90625 
L 47.609375 25.390625 
L 58.015625 25.390625 
L 58.015625 17.1875 
L 47.609375 17.1875 
L 47.609375 0 
L 37.796875 0 
L 37.796875 17.1875 
L 4.890625 17.1875 
L 4.890625 26.703125 
z
" id="DejaVuSans-52"/>
      </defs>
      <g style="fill:#0000ff;" transform="translate(24.5125 31.901461)scale(0.1 -0.1)">
       <use xlink:href="#DejaVuSans-52"/>
       <use x="63.623047" xlink:href="#DejaVuSans-48"/>
       <use x="127.246094" xlink:href="#DejaVuSans-48"/>
      </g>
     </g>
    </g>
    <g id="text_18">
     <!-- Demand-Supply -->
     <defs>
      <path d="M 19.671875 64.796875 
L 19.671875 8.109375 
L 31.59375 8.109375 
Q 46.6875 8.109375 53.6875 14.9375 
Q 60.6875 21.78125 60.6875 36.53125 
Q 60.6875 51.171875 53.6875 57.984375 
Q 46.6875 64.796875 31.59375 64.796875 
z
M 9.8125 72.90625 
L 30.078125 72.90625 
Q 51.265625 72.90625 61.171875 64.09375 
Q 71.09375 55.28125 71.09375 36.53125 
Q 71.09375 17.671875 61.125 8.828125 
Q 51.171875 0 30.078125 0 
L 9.8125 0 
z
" id="DejaVuSans-68"/>
      <path d="M 52 44.1875 
Q 55.375 50.25 60.0625 53.125 
Q 64.75 56 71.09375 56 
Q 79.640625 56 84.28125 50.015625 
Q 88.921875 44.046875 88.921875 33.015625 
L 88.921875 0 
L 79.890625 0 
L 79.890625 32.71875 
Q 79.890625 40.578125 77.09375 44.375 
Q 74.3125 48.1875 68.609375 48.1875 
Q 61.625 48.1875 57.5625 43.546875 
Q 53.515625 38.921875 53.515625 30.90625 
L 53.515625 0 
L 44.484375 0 
L 44.484375 32.71875 
Q 44.484375 40.625 41.703125 44.40625 
Q 38.921875 48.1875 33.109375 48.1875 
Q 26.21875 48.1875 22.15625 43.53125 
Q 18.109375 38.875 18.109375 30.90625 
L 18.109375 0 
L 9.078125 0 
L 9.078125 54.6875 
L 18.109375 54.6875 
L 18.109375 46.1875 
Q 21.1875 51.21875 25.484375 53.609375 
Q 29.78125 56 35.6875 56 
Q 41.65625 56 45.828125 52.96875 
Q 50 49.953125 52 44.1875 
z
" id="DejaVuSans-109"/>
      <path d="M 54.890625 33.015625 
L 54.890625 0 
L 45.90625 0 
L 45.90625 32.71875 
Q 45.90625 40.484375 42.875 44.328125 
Q 39.84375 48.1875 33.796875 48.1875 
Q 26.515625 48.1875 22.3125 43.546875 
Q 18.109375 38.921875 18.109375 30.90625 
L 18.109375 0 
L 9.078125 0 
L 9.078125 54.6875 
L 18.109375 54.6875 
L 18.109375 46.1875 
Q 21.34375 51.125 25.703125 53.5625 
Q 30.078125 56 35.796875 56 
Q 45.21875 56 50.046875 50.171875 
Q 54.890625 44.34375 54.890625 33.015625 
z
" id="DejaVuSans-110"/>
      <path d="M 4.890625 31.390625 
L 31.203125 31.390625 
L 31.203125 23.390625 
L 4.890625 23.390625 
z
" id="DejaVuSans-45"/>
      <path d="M 53.515625 70.515625 
L 53.515625 60.890625 
Q 47.90625 63.578125 42.921875 64.890625 
Q 37.9375 66.21875 33.296875 66.21875 
Q 25.25 66.21875 20.875 63.09375 
Q 16.5 59.96875 16.5 54.203125 
Q 16.5 49.359375 19.40625 46.890625 
Q 22.3125 44.4375 30.421875 42.921875 
L 36.375 41.703125 
Q 47.40625 39.59375 52.65625 34.296875 
Q 57.90625 29 57.90625 20.125 
Q 57.90625 9.515625 50.796875 4.046875 
Q 43.703125 -1.421875 29.984375 -1.421875 
Q 24.8125 -1.421875 18.96875 -0.25 
Q 13.140625 0.921875 6.890625 3.21875 
L 6.890625 13.375 
Q 12.890625 10.015625 18.65625 8.296875 
Q 24.421875 6.59375 29.984375 6.59375 
Q 38.421875 6.59375 43.015625 9.90625 
Q 47.609375 13.234375 47.609375 19.390625 
Q 47.609375 24.75 44.3125 27.78125 
Q 41.015625 30.8125 33.5 32.328125 
L 27.484375 33.5 
Q 16.453125 35.6875 11.515625 40.375 
Q 6.59375 45.0625 6.59375 53.421875 
Q 6.59375 63.09375 13.40625 68.65625 
Q 20.21875 74.21875 32.171875 74.21875 
Q 37.3125 74.21875 42.625 73.28125 
Q 47.953125 72.359375 53.515625 70.515625 
z
" id="DejaVuSans-83"/>
      <path d="M 8.5 21.578125 
L 8.5 54.6875 
L 17.484375 54.6875 
L 17.484375 21.921875 
Q 17.484375 14.15625 20.5 10.265625 
Q 23.53125 6.390625 29.59375 6.390625 
Q 36.859375 6.390625 41.078125 11.03125 
Q 45.3125 15.671875 45.3125 23.6875 
L 45.3125 54.6875 
L 54.296875 54.6875 
L 54.296875 0 
L 45.3125 0 
L 45.3125 8.40625 
Q 42.046875 3.421875 37.71875 1 
Q 33.40625 -1.421875 27.6875 -1.421875 
Q 18.265625 -1.421875 13.375 4.4375 
Q 8.5 10.296875 8.5 21.578125 
z
M 31.109375 56 
z
" id="DejaVuSans-117"/>
      <path d="M 9.421875 75.984375 
L 18.40625 75.984375 
L 18.40625 0 
L 9.421875 0 
z
" id="DejaVuSans-108"/>
      <path d="M 32.171875 -5.078125 
Q 28.375 -14.84375 24.75 -17.8125 
Q 21.140625 -20.796875 15.09375 -20.796875 
L 7.90625 -20.796875 
L 7.90625 -13.28125 
L 13.1875 -13.28125 
Q 16.890625 -13.28125 18.9375 -11.515625 
Q 21 -9.765625 23.484375 -3.21875 
L 25.09375 0.875 
L 2.984375 54.6875 
L 12.5 54.6875 
L 29.59375 11.921875 
L 46.6875 54.6875 
L 56.203125 54.6875 
z
" id="DejaVuSans-121"/>
     </defs>
     <g transform="translate(18.432813 197.627656)rotate(-90)scale(0.1 -0.1)">
      <use xlink:href="#DejaVuSans-68"/>
      <use x="77.001953" xlink:href="#DejaVuSans-101"/>
      <use x="138.525391" xlink:href="#DejaVuSans-109"/>
      <use x="235.9375" xlink:href="#DejaVuSans-97"/>
      <use x="297.216797" xlink:href="#DejaVuSans-110"/>
      <use x="360.595703" xlink:href="#DejaVuSans-100"/>
      <use x="424.072266" xlink:href="#DejaVuSans-45"/>
      <use x="460.15625" xlink:href="#DejaVuSans-83"/>
      <use x="523.632812" xlink:href="#DejaVuSans-117"/>
      <use x="587.011719" xlink:href="#DejaVuSans-112"/>
      <use x="650.488281" xlink:href="#DejaVuSans-112"/>
      <use x="713.964844" xlink:href="#DejaVuSans-108"/>
      <use x="741.748047" xlink:href="#DejaVuSans-121"/>
     </g>
    </g>
   </g>
   <g id="line2d_17">
    <path clip-path="url(#p1f6ceba3ec)" d="M 66.08125 291.016364 
L 67.116785 24.713796 
L 68.15232 29.130424 
L 69.187855 26.495197 
L 70.22339 25.56929 
L 71.258926 29.721931 
L 72.294461 27.303007 
L 73.329996 26.854479 
L 74.365531 28.601588 
L 75.401066 27.552502 
L 76.436601 28.305283 
L 77.472136 27.00101 
L 78.507671 27.346864 
L 80.578742 26.720383 
L 81.614277 26.85113 
L 82.649812 25.980901 
L 83.685347 25.619583 
L 84.720882 27.85544 
L 85.756417 27.501732 
L 86.791952 26.093976 
L 87.827487 26.201022 
L 88.863023 27.748 
L 89.898558 24.92875 
L 90.934093 27.787187 
L 91.969628 28.01604 
L 93.005163 26.971815 
L 94.040698 27.30067 
L 95.076233 28.316526 
L 96.111768 27.60436 
L 97.147304 29.141683 
L 98.182839 29.201424 
L 100.253909 26.672014 
L 101.289444 27.651049 
L 102.324979 27.836139 
L 103.360514 28.432359 
L 104.396049 26.447841 
L 105.431584 28.752409 
L 106.46712 27.717922 
L 107.502655 28.029337 
L 108.53819 26.636439 
L 109.573725 28.371758 
L 110.60926 28.347364 
L 111.644795 27.821603 
L 112.68033 26.324566 
L 113.715865 29.130877 
L 114.751401 27.298498 
L 115.786936 26.518369 
L 116.822471 28.35295 
L 117.858006 24.859871 
L 118.893541 27.276163 
L 119.929076 28.637057 
L 120.964611 28.63306 
L 122.000146 28.074586 
L 123.035681 28.226367 
L 124.071217 28.647996 
L 125.106752 26.74129 
L 126.142287 28.529533 
L 127.177822 26.008679 
L 128.213357 27.0673 
L 129.248892 26.006274 
L 130.284427 28.337152 
L 131.319962 26.052743 
L 132.355497 28.43492 
L 133.391033 27.567336 
L 134.426568 28.43012 
L 135.462103 28.22466 
L 136.497638 25.576005 
L 137.533173 26.730695 
L 138.568708 28.281852 
L 139.604243 27.615428 
L 140.639778 26.328868 
L 141.675314 29.138254 
L 142.710849 28.018155 
L 143.746384 25.380921 
L 144.781919 27.912145 
L 145.817454 27.031155 
L 146.852989 26.477048 
L 147.888524 27.474328 
L 148.924059 28.848124 
L 149.959594 28.535946 
L 150.99513 26.356529 
L 152.030665 27.977384 
L 153.0662 25.846771 
L 154.101735 27.813678 
L 155.13727 29.119804 
L 156.172805 27.510727 
L 157.20834 26.832876 
L 158.243875 28.427746 
L 159.279411 26.430876 
L 160.314946 27.7666 
L 162.386016 26.168162 
L 163.421551 27.283749 
L 164.457086 27.673097 
L 166.528156 27.755862 
L 167.563691 27.120519 
L 168.599227 27.23823 
L 169.634762 25.706795 
L 170.670297 28.058868 
L 171.705832 26.169406 
L 172.741367 26.648187 
L 173.776902 26.763924 
L 174.812437 25.048358 
L 175.847972 27.85448 
L 177.919043 27.0869 
L 178.954578 27.397532 
L 179.990113 25.99075 
L 181.025648 28.00096 
L 182.061183 28.714306 
L 183.096718 27.260681 
L 184.132253 27.701905 
L 185.167788 28.442513 
L 186.203324 27.088756 
L 187.238859 25.508057 
L 188.274394 27.601932 
L 189.309929 27.633749 
L 190.345464 26.654498 
L 191.380999 26.917092 
L 192.416534 28.776403 
L 193.452069 27.908446 
L 195.52314 28.852978 
L 196.558675 26.600528 
L 197.59421 27.151198 
L 198.629745 28.158345 
L 199.66528 24.143636 
L 200.700815 29.812864 
L 201.73635 27.244233 
L 202.771885 29.080415 
L 203.807421 26.045187 
L 204.842956 26.345965 
L 205.878491 27.72824 
L 206.914026 28.224208 
L 207.949561 27.242319 
L 208.985096 28.323169 
L 210.020631 26.421488 
L 211.056166 25.888975 
L 212.091702 30.074178 
L 213.127237 27.333282 
L 214.162772 28.074214 
L 215.198307 26.124366 
L 216.233842 26.661917 
L 217.269377 26.301503 
L 218.304912 29.05407 
L 219.340447 28.029438 
L 220.375982 26.661769 
L 221.411518 26.571331 
L 222.447053 27.599149 
L 223.482588 28.075143 
L 224.518123 26.921552 
L 225.553658 28.642786 
L 226.589193 25.504759 
L 227.624728 27.307959 
L 228.660263 28.491839 
L 229.695798 27.613331 
L 230.731334 25.825843 
L 231.766869 28.599399 
L 232.802404 25.616819 
L 233.837939 27.309171 
L 234.873474 27.838697 
L 235.909009 25.309011 
L 236.944544 27.993483 
L 237.980079 28.610038 
L 239.015615 27.753879 
L 240.05115 28.981683 
L 241.086685 28.730487 
L 242.12222 26.563715 
L 243.157755 27.55422 
L 244.19329 27.886184 
L 245.228825 27.57414 
L 246.26436 28.840398 
L 247.299895 28.084955 
L 248.335431 27.508973 
L 249.370966 26.426455 
L 250.406501 27.706979 
L 251.442036 28.1042 
L 252.477571 26.600146 
L 253.513106 25.979051 
L 254.548641 27.558528 
L 255.584176 27.658144 
L 257.655247 27.002413 
L 258.690782 27.509465 
L 259.726317 27.597879 
L 260.761852 28.415837 
L 261.797387 28.581324 
L 262.832922 27.209804 
L 263.868457 28.545047 
L 264.903992 25.537314 
L 265.939528 29.287984 
L 266.975063 27.213624 
L 268.010598 28.53864 
L 269.046133 27.471898 
L 270.081668 27.870003 
L 271.117203 27.238459 
L 272.152738 27.088568 
L 273.188273 25.584988 
L 274.223809 27.706378 
L 275.259344 25.359656 
L 276.294879 26.600972 
L 277.330414 28.560811 
L 278.365949 27.920536 
L 279.401484 29.058871 
L 280.437019 27.948732 
L 281.472554 25.425338 
L 282.508089 26.38106 
L 283.543625 26.041964 
L 284.57916 27.664369 
L 285.614695 28.520554 
L 286.65023 27.265653 
L 287.685765 27.372782 
L 288.7213 26.605887 
L 289.756835 26.915919 
L 290.79237 29.461369 
L 291.827906 27.609269 
L 292.863441 29.130664 
L 293.898976 27.488794 
L 294.934511 28.180581 
L 295.970046 27.601725 
L 297.005581 26.184908 
L 298.041116 28.867634 
L 299.076651 25.182106 
L 300.112186 26.608093 
L 301.147722 28.677343 
L 302.183257 29.138649 
L 303.218792 26.571999 
L 304.254327 28.680288 
L 305.289862 27.523128 
L 306.325397 28.950892 
L 307.360932 27.768792 
L 308.396467 28.573125 
L 309.432003 26.254908 
L 310.467538 26.234348 
L 312.538608 27.62616 
L 313.574143 28.425628 
L 314.609678 26.484682 
L 315.645213 27.310583 
L 317.716283 26.045363 
L 318.751819 26.403261 
L 319.787354 28.399451 
L 320.822889 27.558087 
L 321.858424 27.252842 
L 322.893959 28.24693 
L 323.929494 27.008316 
L 324.965029 27.674107 
L 326.000564 29.214202 
L 327.036099 26.966222 
L 328.071635 27.322401 
L 329.10717 26.120775 
L 330.142705 28.763165 
L 331.17824 29.555802 
L 332.213775 28.068851 
L 333.24931 27.824337 
L 334.284845 26.026027 
L 335.32038 26.536845 
L 336.355916 26.637672 
L 337.391451 27.79638 
L 338.426986 29.499769 
L 339.462521 24.93146 
L 340.498056 28.895888 
L 341.533591 26.798876 
L 342.569126 28.504528 
L 343.604661 27.686552 
L 344.640196 26.626545 
L 345.675732 27.019659 
L 346.711267 27.211752 
L 347.746802 28.726029 
L 348.782337 27.633794 
L 349.817872 26.36628 
L 351.888942 27.799987 
L 352.924477 24.747935 
L 353.960013 27.217828 
L 354.995548 28.995698 
L 356.031083 26.850854 
L 357.066618 27.228071 
L 358.102153 26.954605 
L 360.173223 27.665506 
L 361.208758 27.852413 
L 362.244293 27.617047 
L 363.279829 24.250645 
L 364.315364 26.71228 
L 365.350899 28.376811 
L 366.386434 28.795074 
L 367.421969 27.411672 
L 368.457504 26.43063 
L 369.493039 27.048518 
L 370.528574 25.948312 
L 371.56411 28.990833 
L 372.599645 28.547412 
L 373.63518 27.603274 
L 374.670715 28.029538 
L 375.70625 27.546143 
L 375.70625 27.546143 
" style="fill:none;stroke:#0000ff;stroke-linecap:square;stroke-width:1.5;"/>
   </g>
   <g id="patch_3">
    <path d="M 50.6 304.36 
L 50.6 10.8 
" style="fill:none;stroke:#000000;stroke-linecap:square;stroke-linejoin:miter;stroke-width:0.8;"/>
   </g>
   <g id="patch_4">
    <path d="M 391.1875 304.36 
L 391.1875 10.8 
" style="fill:none;stroke:#000000;stroke-linecap:square;stroke-linejoin:miter;stroke-width:0.8;"/>
   </g>
   <g id="patch_5">
    <path d="M 50.6 304.36 
L 391.1875 304.36 
" style="fill:none;stroke:#000000;stroke-linecap:square;stroke-linejoin:miter;stroke-width:0.8;"/>
   </g>
   <g id="patch_6">
    <path d="M 50.6 10.8 
L 391.1875 10.8 
" style="fill:none;stroke:#000000;stroke-linecap:square;stroke-linejoin:miter;stroke-width:0.8;"/>
   </g>
  </g>
  <g id="axes_2">
   <g id="matplotlib.axis_3">
    <g id="ytick_10">
     <g id="line2d_18">
      <defs>
       <path d="M 0 0 
L 3.5 0 
" id="m81d1608eca" style="stroke:#000000;stroke-width:0.8;"/>
      </defs>
      <g>
       <use style="stroke:#000000;stroke-width:0.8;" x="391.1875" xlink:href="#m81d1608eca" y="291.142964"/>
      </g>
     </g>
     <g id="text_19">
      <!-- 0 -->
      <g style="fill:#008000;" transform="translate(398.1875 294.942183)scale(0.1 -0.1)">
       <use xlink:href="#DejaVuSans-48"/>
      </g>
     </g>
    </g>
    <g id="ytick_11">
     <g id="line2d_19">
      <g>
       <use style="stroke:#000000;stroke-width:0.8;" x="391.1875" xlink:href="#m81d1608eca" y="247.124921"/>
      </g>
     </g>
     <g id="text_20">
      <!-- 50 -->
      <g style="fill:#008000;" transform="translate(398.1875 250.924139)scale(0.1 -0.1)">
       <use xlink:href="#DejaVuSans-53"/>
       <use x="63.623047" xlink:href="#DejaVuSans-48"/>
      </g>
     </g>
    </g>
    <g id="ytick_12">
     <g id="line2d_20">
      <g>
       <use style="stroke:#000000;stroke-width:0.8;" x="391.1875" xlink:href="#m81d1608eca" y="203.106877"/>
      </g>
     </g>
     <g id="text_21">
      <!-- 100 -->
      <g style="fill:#008000;" transform="translate(398.1875 206.906096)scale(0.1 -0.1)">
       <use xlink:href="#DejaVuSans-49"/>
       <use x="63.623047" xlink:href="#DejaVuSans-48"/>
       <use x="127.246094" xlink:href="#DejaVuSans-48"/>
      </g>
     </g>
    </g>
    <g id="ytick_13">
     <g id="line2d_21">
      <g>
       <use style="stroke:#000000;stroke-width:0.8;" x="391.1875" xlink:href="#m81d1608eca" y="159.088833"/>
      </g>
     </g>
     <g id="text_22">
      <!-- 150 -->
      <g style="fill:#008000;" transform="translate(398.1875 162.888052)scale(0.1 -0.1)">
       <use xlink:href="#DejaVuSans-49"/>
       <use x="63.623047" xlink:href="#DejaVuSans-53"/>
       <use x="127.246094" xlink:href="#DejaVuSans-48"/>
      </g>
     </g>
    </g>
    <g id="ytick_14">
     <g id="line2d_22">
      <g>
       <use style="stroke:#000000;stroke-width:0.8;" x="391.1875" xlink:href="#m81d1608eca" y="115.07079"/>
      </g>
     </g>
     <g id="text_23">
      <!-- 200 -->
      <g style="fill:#008000;" transform="translate(398.1875 118.870009)scale(0.1 -0.1)">
       <use xlink:href="#DejaVuSans-50"/>
       <use x="63.623047" xlink:href="#DejaVuSans-48"/>
       <use x="127.246094" xlink:href="#DejaVuSans-48"/>
      </g>
     </g>
    </g>
    <g id="ytick_15">
     <g id="line2d_23">
      <g>
       <use style="stroke:#000000;stroke-width:0.8;" x="391.1875" xlink:href="#m81d1608eca" y="71.052746"/>
      </g>
     </g>
     <g id="text_24">
      <!-- 250 -->
      <g style="fill:#008000;" transform="translate(398.1875 74.851965)scale(0.1 -0.1)">
       <use xlink:href="#DejaVuSans-50"/>
       <use x="63.623047" xlink:href="#DejaVuSans-53"/>
       <use x="127.246094" xlink:href="#DejaVuSans-48"/>
      </g>
     </g>
    </g>
    <g id="ytick_16">
     <g id="line2d_24">
      <g>
       <use style="stroke:#000000;stroke-width:0.8;" x="391.1875" xlink:href="#m81d1608eca" y="27.034703"/>
      </g>
     </g>
     <g id="text_25">
      <!-- 300 -->
      <g style="fill:#008000;" transform="translate(398.1875 30.833921)scale(0.1 -0.1)">
       <use xlink:href="#DejaVuSans-51"/>
       <use x="63.623047" xlink:href="#DejaVuSans-48"/>
       <use x="127.246094" xlink:href="#DejaVuSans-48"/>
      </g>
     </g>
    </g>
    <g id="text_26">
     <!-- Model Price -->
     <defs>
      <path d="M 9.8125 72.90625 
L 24.515625 72.90625 
L 43.109375 23.296875 
L 61.8125 72.90625 
L 76.515625 72.90625 
L 76.515625 0 
L 66.890625 0 
L 66.890625 64.015625 
L 48.09375 14.015625 
L 38.1875 14.015625 
L 19.390625 64.015625 
L 19.390625 0 
L 9.8125 0 
z
" id="DejaVuSans-77"/>
      <path d="M 48.78125 52.59375 
L 48.78125 44.1875 
Q 44.96875 46.296875 41.140625 47.34375 
Q 37.3125 48.390625 33.40625 48.390625 
Q 24.65625 48.390625 19.8125 42.84375 
Q 14.984375 37.3125 14.984375 27.296875 
Q 14.984375 17.28125 19.8125 11.734375 
Q 24.65625 6.203125 33.40625 6.203125 
Q 37.3125 6.203125 41.140625 7.25 
Q 44.96875 8.296875 48.78125 10.40625 
L 48.78125 2.09375 
Q 45.015625 0.34375 40.984375 -0.53125 
Q 36.96875 -1.421875 32.421875 -1.421875 
Q 20.0625 -1.421875 12.78125 6.34375 
Q 5.515625 14.109375 5.515625 27.296875 
Q 5.515625 40.671875 12.859375 48.328125 
Q 20.21875 56 33.015625 56 
Q 37.15625 56 41.109375 55.140625 
Q 45.0625 54.296875 48.78125 52.59375 
z
" id="DejaVuSans-99"/>
     </defs>
     <g style="fill:#008000;" transform="translate(428.873437 186.38)rotate(-90)scale(0.1 -0.1)">
      <use xlink:href="#DejaVuSans-77"/>
      <use x="86.279297" xlink:href="#DejaVuSans-111"/>
      <use x="147.460938" xlink:href="#DejaVuSans-100"/>
      <use x="210.9375" xlink:href="#DejaVuSans-101"/>
      <use x="272.460938" xlink:href="#DejaVuSans-108"/>
      <use x="300.244141" xlink:href="#DejaVuSans-32"/>
      <use x="332.03125" xlink:href="#DejaVuSans-80"/>
      <use x="390.583984" xlink:href="#DejaVuSans-114"/>
      <use x="431.697266" xlink:href="#DejaVuSans-105"/>
      <use x="459.480469" xlink:href="#DejaVuSans-99"/>
      <use x="514.460938" xlink:href="#DejaVuSans-101"/>
     </g>
    </g>
   </g>
   <g id="line2d_25">
    <path clip-path="url(#p1f6ceba3ec)" d="M 66.08125 291.016364 
L 67.116785 32.111947 
L 68.15232 65.642644 
L 69.187855 142.150809 
L 70.22339 106.517762 
L 71.258926 58.092959 
L 73.329996 122.101499 
L 74.365531 168.96877 
L 75.401066 112.11245 
L 76.436601 83.375167 
L 77.472136 102.333658 
L 78.507671 101.139497 
L 79.543207 24.40448 
L 80.578742 102.57318 
L 81.614277 58.963925 
L 82.649812 53.007916 
L 83.685347 85.459262 
L 84.720882 178.955305 
L 85.756417 82.742372 
L 86.791952 62.618519 
L 87.827487 148.030273 
L 88.863023 95.159136 
L 89.898558 153.61735 
L 90.934093 62.293791 
L 93.005163 186.036158 
L 94.040698 77.677391 
L 95.076233 29.507409 
L 96.111768 112.45189 
L 97.147304 88.014458 
L 98.182839 119.925453 
L 99.218374 120.785075 
L 100.253909 126.437221 
L 101.289444 100.935367 
L 102.324979 80.7475 
L 103.360514 72.962163 
L 104.396049 144.675032 
L 105.431584 87.230418 
L 106.46712 123.150133 
L 107.502655 154.183741 
L 108.53819 128.326283 
L 109.573725 83.959078 
L 110.60926 180.237414 
L 111.644795 163.273808 
L 112.68033 154.477462 
L 113.715865 114.006238 
L 114.751401 61.023259 
L 115.786936 42.526224 
L 116.822471 104.553657 
L 117.858006 93.700726 
L 118.893541 80.572071 
L 119.929076 44.15308 
L 120.964611 127.263152 
L 123.035681 66.120748 
L 124.071217 124.454227 
L 125.106752 91.17375 
L 126.142287 129.146229 
L 127.177822 157.552659 
L 128.213357 50.270995 
L 129.248892 112.747512 
L 130.284427 59.9082 
L 131.319962 85.642233 
L 132.355497 91.992036 
L 133.391033 51.728155 
L 134.426568 121.474429 
L 135.462103 88.434993 
L 136.497638 96.736629 
L 137.533173 132.136306 
L 138.568708 86.243374 
L 139.604243 75.495472 
L 140.639778 129.879408 
L 141.675314 121.837267 
L 142.710849 166.196752 
L 143.746384 90.191055 
L 144.781919 148.464402 
L 145.817454 145.759446 
L 146.852989 137.704959 
L 147.888524 169.554301 
L 148.924059 126.736046 
L 149.959594 100.360995 
L 150.99513 139.296952 
L 152.030665 63.772499 
L 153.0662 141.398547 
L 154.101735 133.34788 
L 155.13727 86.222304 
L 156.172805 70.023976 
L 157.20834 108.800646 
L 158.243875 118.903836 
L 159.279411 120.706648 
L 160.314946 107.264477 
L 161.350481 106.387888 
L 162.386016 119.18892 
L 163.421551 63.029808 
L 164.457086 131.26022 
L 165.492621 87.192497 
L 166.528156 111.749898 
L 167.563691 154.260432 
L 168.599227 135.396386 
L 169.634762 144.200176 
L 170.670297 93.304234 
L 171.705832 116.330801 
L 172.741367 120.348427 
L 173.776902 138.723778 
L 174.812437 110.932112 
L 175.847972 100.682496 
L 176.883508 116.054878 
L 177.919043 99.23785 
L 178.954578 73.462588 
L 179.990113 114.704119 
L 181.025648 110.313261 
L 182.061183 140.83136 
L 183.096718 139.500425 
L 184.132253 138.622546 
L 185.167788 143.432013 
L 186.203324 133.479352 
L 187.238859 153.572236 
L 188.274394 84.404027 
L 189.309929 80.469119 
L 190.345464 64.759136 
L 191.380999 135.318433 
L 192.416534 124.279301 
L 193.452069 79.931629 
L 194.487605 123.640439 
L 195.52314 62.379746 
L 196.558675 96.300047 
L 197.59421 119.282631 
L 198.629745 138.405178 
L 199.66528 135.144224 
L 200.700815 132.922192 
L 201.73635 95.053348 
L 202.771885 133.27371 
L 203.807421 130.717756 
L 204.842956 123.307043 
L 205.878491 78.903659 
L 206.914026 111.621564 
L 207.949561 79.112263 
L 208.985096 102.305314 
L 210.020631 117.947869 
L 211.056166 91.05051 
L 212.091702 132.034841 
L 213.127237 166.166231 
L 214.162772 144.715068 
L 215.198307 111.963477 
L 216.233842 117.613442 
L 217.269377 120.407378 
L 218.304912 116.855404 
L 219.340447 67.81246 
L 220.375982 161.100578 
L 221.411518 163.783722 
L 222.447053 99.332269 
L 223.482588 120.90674 
L 224.518123 132.031089 
L 225.553658 103.468171 
L 226.589193 151.13147 
L 227.624728 147.966542 
L 228.660263 85.324673 
L 229.695798 136.246622 
L 230.731334 145.178183 
L 231.766869 158.054606 
L 232.802404 114.410901 
L 233.837939 92.377079 
L 234.873474 134.90897 
L 235.909009 124.50961 
L 236.944544 122.877104 
L 237.980079 114.897706 
L 239.015615 90.318365 
L 240.05115 78.416539 
L 241.086685 161.788817 
L 242.12222 127.81408 
L 243.157755 116.36642 
L 244.19329 43.432407 
L 245.228825 112.526651 
L 246.26436 142.347276 
L 247.299895 24.143636 
L 248.335431 70.493962 
L 249.370966 102.478473 
L 250.406501 95.849386 
L 251.442036 99.930469 
L 252.477571 143.084679 
L 253.513106 136.969105 
L 254.548641 100.398893 
L 255.584176 176.717532 
L 256.619712 138.581271 
L 257.655247 115.270081 
L 258.690782 87.777588 
L 259.726317 135.12875 
L 261.797387 106.73211 
L 262.832922 164.568139 
L 263.868457 122.067155 
L 264.903992 122.438802 
L 265.939528 105.606172 
L 266.975063 95.200151 
L 268.010598 78.995247 
L 269.046133 58.730903 
L 270.081668 98.083621 
L 272.152738 164.723233 
L 273.188273 121.992824 
L 274.223809 114.748817 
L 275.259344 117.984185 
L 276.294879 86.069856 
L 277.330414 90.941639 
L 278.365949 171.154045 
L 279.401484 138.959659 
L 280.437019 87.111731 
L 281.472554 66.77029 
L 282.508089 109.241011 
L 283.543625 116.889457 
L 284.57916 95.221251 
L 285.614695 111.718563 
L 286.65023 147.040946 
L 287.685765 106.707047 
L 288.7213 81.17834 
L 289.756835 51.936718 
L 290.79237 131.585877 
L 291.827906 112.977143 
L 292.863441 64.686776 
L 293.898976 124.977967 
L 294.934511 106.942595 
L 295.970046 129.672271 
L 297.005581 149.420409 
L 298.041116 136.257425 
L 299.076651 134.044498 
L 300.112186 104.861046 
L 301.147722 61.81659 
L 302.183257 42.788961 
L 303.218792 115.858422 
L 304.254327 83.964322 
L 305.289862 118.203607 
L 306.325397 65.289326 
L 307.360932 28.738885 
L 308.396467 75.055817 
L 309.432003 81.747701 
L 310.467538 167.301276 
L 311.503073 123.527193 
L 312.538608 154.569761 
L 313.574143 153.015665 
L 314.609678 128.719117 
L 315.645213 92.105152 
L 316.680748 73.764912 
L 317.716283 114.07673 
L 318.751819 107.733231 
L 319.787354 75.249624 
L 320.822889 121.396744 
L 321.858424 76.07939 
L 323.929494 128.110253 
L 324.965029 148.799631 
L 326.000564 140.747161 
L 327.036099 62.981066 
L 328.071635 39.971293 
L 329.10717 61.569401 
L 330.142705 72.344766 
L 331.17824 113.211908 
L 332.213775 108.811068 
L 333.24931 118.621628 
L 334.284845 113.182376 
L 335.32038 109.335977 
L 336.355916 107.326818 
L 337.391451 100.008544 
L 338.426986 61.959549 
L 339.462521 104.739836 
L 340.498056 124.078409 
L 341.533591 162.291143 
L 342.569126 91.007185 
L 343.604661 34.542165 
L 344.640196 55.430996 
L 345.675732 133.114835 
L 346.711267 132.068129 
L 347.746802 130.237505 
L 348.782337 128.064089 
L 349.817872 138.200201 
L 350.853407 131.141686 
L 351.888942 143.30243 
L 352.924477 149.660967 
L 353.960013 146.964749 
L 354.995548 125.92482 
L 356.031083 32.023853 
L 357.066618 65.517269 
L 358.102153 163.631068 
L 359.137688 153.644019 
L 360.173223 124.163284 
L 361.208758 151.071848 
L 362.244293 131.558766 
L 363.279829 104.475289 
L 364.315364 93.726128 
L 365.350899 158.126809 
L 366.386434 146.821916 
L 367.421969 152.386648 
L 368.457504 63.938422 
L 369.493039 97.460089 
L 370.528574 170.103384 
L 371.56411 151.72863 
L 372.599645 151.628851 
L 373.63518 141.605223 
L 374.670715 109.313777 
L 375.70625 112.88119 
L 375.70625 112.88119 
" style="fill:none;stroke:#008000;stroke-linecap:square;stroke-width:1.5;"/>
   </g>
   <g id="patch_7">
    <path d="M 50.6 304.36 
L 50.6 10.8 
" style="fill:none;stroke:#000000;stroke-linecap:square;stroke-linejoin:miter;stroke-width:0.8;"/>
   </g>
   <g id="patch_8">
    <path d="M 391.1875 304.36 
L 391.1875 10.8 
" style="fill:none;stroke:#000000;stroke-linecap:square;stroke-linejoin:miter;stroke-width:0.8;"/>
   </g>
   <g id="patch_9">
    <path d="M 50.6 304.36 
L 391.1875 304.36 
" style="fill:none;stroke:#000000;stroke-linecap:square;stroke-linejoin:miter;stroke-width:0.8;"/>
   </g>
   <g id="patch_10">
    <path d="M 50.6 10.8 
L 391.1875 10.8 
" style="fill:none;stroke:#000000;stroke-linecap:square;stroke-linejoin:miter;stroke-width:0.8;"/>
   </g>
  </g>
  <g id="axes_3">
   <g id="matplotlib.axis_4">
    <g id="ytick_17">
     <g id="line2d_26">
      <g>
       <use style="stroke:#000000;stroke-width:0.8;" x="391.1875" xlink:href="#m81d1608eca" y="291.259179"/>
      </g>
     </g>
     <g id="text_27">
      <!-- 0 -->
      <g style="fill:#bf00bf;" transform="translate(398.1875 295.058398)scale(0.1 -0.1)">
       <use xlink:href="#DejaVuSans-48"/>
      </g>
     </g>
    </g>
    <g id="ytick_18">
     <g id="line2d_27">
      <g>
       <use style="stroke:#000000;stroke-width:0.8;" x="391.1875" xlink:href="#m81d1608eca" y="254.031823"/>
      </g>
     </g>
     <g id="text_28">
      <!-- 20000 -->
      <g style="fill:#bf00bf;" transform="translate(398.1875 257.831042)scale(0.1 -0.1)">
       <use xlink:href="#DejaVuSans-50"/>
       <use x="63.623047" xlink:href="#DejaVuSans-48"/>
       <use x="127.246094" xlink:href="#DejaVuSans-48"/>
       <use x="190.869141" xlink:href="#DejaVuSans-48"/>
       <use x="254.492188" xlink:href="#DejaVuSans-48"/>
      </g>
     </g>
    </g>
    <g id="ytick_19">
     <g id="line2d_28">
      <g>
       <use style="stroke:#000000;stroke-width:0.8;" x="391.1875" xlink:href="#m81d1608eca" y="216.804466"/>
      </g>
     </g>
     <g id="text_29">
      <!-- 40000 -->
      <g style="fill:#bf00bf;" transform="translate(398.1875 220.603685)scale(0.1 -0.1)">
       <use xlink:href="#DejaVuSans-52"/>
       <use x="63.623047" xlink:href="#DejaVuSans-48"/>
       <use x="127.246094" xlink:href="#DejaVuSans-48"/>
       <use x="190.869141" xlink:href="#DejaVuSans-48"/>
       <use x="254.492188" xlink:href="#DejaVuSans-48"/>
      </g>
     </g>
    </g>
    <g id="ytick_20">
     <g id="line2d_29">
      <g>
       <use style="stroke:#000000;stroke-width:0.8;" x="391.1875" xlink:href="#m81d1608eca" y="179.57711"/>
      </g>
     </g>
     <g id="text_30">
      <!-- 60000 -->
      <defs>
       <path d="M 33.015625 40.375 
Q 26.375 40.375 22.484375 35.828125 
Q 18.609375 31.296875 18.609375 23.390625 
Q 18.609375 15.53125 22.484375 10.953125 
Q 26.375 6.390625 33.015625 6.390625 
Q 39.65625 6.390625 43.53125 10.953125 
Q 47.40625 15.53125 47.40625 23.390625 
Q 47.40625 31.296875 43.53125 35.828125 
Q 39.65625 40.375 33.015625 40.375 
z
M 52.59375 71.296875 
L 52.59375 62.3125 
Q 48.875 64.0625 45.09375 64.984375 
Q 41.3125 65.921875 37.59375 65.921875 
Q 27.828125 65.921875 22.671875 59.328125 
Q 17.53125 52.734375 16.796875 39.40625 
Q 19.671875 43.65625 24.015625 45.921875 
Q 28.375 48.1875 33.59375 48.1875 
Q 44.578125 48.1875 50.953125 41.515625 
Q 57.328125 34.859375 57.328125 23.390625 
Q 57.328125 12.15625 50.6875 5.359375 
Q 44.046875 -1.421875 33.015625 -1.421875 
Q 20.359375 -1.421875 13.671875 8.265625 
Q 6.984375 17.96875 6.984375 36.375 
Q 6.984375 53.65625 15.1875 63.9375 
Q 23.390625 74.21875 37.203125 74.21875 
Q 40.921875 74.21875 44.703125 73.484375 
Q 48.484375 72.75 52.59375 71.296875 
z
" id="DejaVuSans-54"/>
      </defs>
      <g style="fill:#bf00bf;" transform="translate(398.1875 183.376329)scale(0.1 -0.1)">
       <use xlink:href="#DejaVuSans-54"/>
       <use x="63.623047" xlink:href="#DejaVuSans-48"/>
       <use x="127.246094" xlink:href="#DejaVuSans-48"/>
       <use x="190.869141" xlink:href="#DejaVuSans-48"/>
       <use x="254.492188" xlink:href="#DejaVuSans-48"/>
      </g>
     </g>
    </g>
    <g id="ytick_21">
     <g id="line2d_30">
      <g>
       <use style="stroke:#000000;stroke-width:0.8;" x="391.1875" xlink:href="#m81d1608eca" y="142.349754"/>
      </g>
     </g>
     <g id="text_31">
      <!-- 80000 -->
      <defs>
       <path d="M 31.78125 34.625 
Q 24.75 34.625 20.71875 30.859375 
Q 16.703125 27.09375 16.703125 20.515625 
Q 16.703125 13.921875 20.71875 10.15625 
Q 24.75 6.390625 31.78125 6.390625 
Q 38.8125 6.390625 42.859375 10.171875 
Q 46.921875 13.96875 46.921875 20.515625 
Q 46.921875 27.09375 42.890625 30.859375 
Q 38.875 34.625 31.78125 34.625 
z
M 21.921875 38.8125 
Q 15.578125 40.375 12.03125 44.71875 
Q 8.5 49.078125 8.5 55.328125 
Q 8.5 64.0625 14.71875 69.140625 
Q 20.953125 74.21875 31.78125 74.21875 
Q 42.671875 74.21875 48.875 69.140625 
Q 55.078125 64.0625 55.078125 55.328125 
Q 55.078125 49.078125 51.53125 44.71875 
Q 48 40.375 41.703125 38.8125 
Q 48.828125 37.15625 52.796875 32.3125 
Q 56.78125 27.484375 56.78125 20.515625 
Q 56.78125 9.90625 50.3125 4.234375 
Q 43.84375 -1.421875 31.78125 -1.421875 
Q 19.734375 -1.421875 13.25 4.234375 
Q 6.78125 9.90625 6.78125 20.515625 
Q 6.78125 27.484375 10.78125 32.3125 
Q 14.796875 37.15625 21.921875 38.8125 
z
M 18.3125 54.390625 
Q 18.3125 48.734375 21.84375 45.5625 
Q 25.390625 42.390625 31.78125 42.390625 
Q 38.140625 42.390625 41.71875 45.5625 
Q 45.3125 48.734375 45.3125 54.390625 
Q 45.3125 60.0625 41.71875 63.234375 
Q 38.140625 66.40625 31.78125 66.40625 
Q 25.390625 66.40625 21.84375 63.234375 
Q 18.3125 60.0625 18.3125 54.390625 
z
" id="DejaVuSans-56"/>
      </defs>
      <g style="fill:#bf00bf;" transform="translate(398.1875 146.148973)scale(0.1 -0.1)">
       <use xlink:href="#DejaVuSans-56"/>
       <use x="63.623047" xlink:href="#DejaVuSans-48"/>
       <use x="127.246094" xlink:href="#DejaVuSans-48"/>
       <use x="190.869141" xlink:href="#DejaVuSans-48"/>
       <use x="254.492188" xlink:href="#DejaVuSans-48"/>
      </g>
     </g>
    </g>
    <g id="ytick_22">
     <g id="line2d_31">
      <g>
       <use style="stroke:#000000;stroke-width:0.8;" x="391.1875" xlink:href="#m81d1608eca" y="105.122398"/>
      </g>
     </g>
     <g id="text_32">
      <!-- 100000 -->
      <g style="fill:#bf00bf;" transform="translate(398.1875 108.921616)scale(0.1 -0.1)">
       <use xlink:href="#DejaVuSans-49"/>
       <use x="63.623047" xlink:href="#DejaVuSans-48"/>
       <use x="127.246094" xlink:href="#DejaVuSans-48"/>
       <use x="190.869141" xlink:href="#DejaVuSans-48"/>
       <use x="254.492188" xlink:href="#DejaVuSans-48"/>
       <use x="318.115234" xlink:href="#DejaVuSans-48"/>
      </g>
     </g>
    </g>
    <g id="ytick_23">
     <g id="line2d_32">
      <g>
       <use style="stroke:#000000;stroke-width:0.8;" x="391.1875" xlink:href="#m81d1608eca" y="67.895041"/>
      </g>
     </g>
     <g id="text_33">
      <!-- 120000 -->
      <g style="fill:#bf00bf;" transform="translate(398.1875 71.69426)scale(0.1 -0.1)">
       <use xlink:href="#DejaVuSans-49"/>
       <use x="63.623047" xlink:href="#DejaVuSans-50"/>
       <use x="127.246094" xlink:href="#DejaVuSans-48"/>
       <use x="190.869141" xlink:href="#DejaVuSans-48"/>
       <use x="254.492188" xlink:href="#DejaVuSans-48"/>
       <use x="318.115234" xlink:href="#DejaVuSans-48"/>
      </g>
     </g>
    </g>
    <g id="ytick_24">
     <g id="line2d_33">
      <g>
       <use style="stroke:#000000;stroke-width:0.8;" x="391.1875" xlink:href="#m81d1608eca" y="30.667685"/>
      </g>
     </g>
     <g id="text_34">
      <!-- 140000 -->
      <g style="fill:#bf00bf;" transform="translate(398.1875 34.466904)scale(0.1 -0.1)">
       <use xlink:href="#DejaVuSans-49"/>
       <use x="63.623047" xlink:href="#DejaVuSans-52"/>
       <use x="127.246094" xlink:href="#DejaVuSans-48"/>
       <use x="190.869141" xlink:href="#DejaVuSans-48"/>
       <use x="254.492188" xlink:href="#DejaVuSans-48"/>
       <use x="318.115234" xlink:href="#DejaVuSans-48"/>
      </g>
     </g>
    </g>
    <g id="text_35">
     <!-- Profit -->
     <defs>
      <path d="M 18.3125 70.21875 
L 18.3125 54.6875 
L 36.8125 54.6875 
L 36.8125 47.703125 
L 18.3125 47.703125 
L 18.3125 18.015625 
Q 18.3125 11.328125 20.140625 9.421875 
Q 21.96875 7.515625 27.59375 7.515625 
L 36.8125 7.515625 
L 36.8125 0 
L 27.59375 0 
Q 17.1875 0 13.234375 3.875 
Q 9.28125 7.765625 9.28125 18.015625 
L 9.28125 47.703125 
L 2.6875 47.703125 
L 2.6875 54.6875 
L 9.28125 54.6875 
L 9.28125 70.21875 
z
" id="DejaVuSans-116"/>
     </defs>
     <g style="fill:#bf00bf;" transform="translate(447.960938 170.619062)rotate(-90)scale(0.1 -0.1)">
      <use xlink:href="#DejaVuSans-80"/>
      <use x="58.552734" xlink:href="#DejaVuSans-114"/>
      <use x="97.416016" xlink:href="#DejaVuSans-111"/>
      <use x="158.597656" xlink:href="#DejaVuSans-102"/>
      <use x="193.802734" xlink:href="#DejaVuSans-105"/>
      <use x="221.585938" xlink:href="#DejaVuSans-116"/>
     </g>
    </g>
   </g>
   <g id="line2d_34">
    <path clip-path="url(#p1f6ceba3ec)" d="M 66.08125 291.016364 
L 67.116785 27.371465 
L 68.15232 69.031087 
L 69.187855 138.069453 
L 70.22339 92.343243 
L 71.258926 70.884964 
L 72.294461 89.176926 
L 73.329996 117.256945 
L 74.365531 165.145302 
L 75.401066 101.688456 
L 76.436601 82.42082 
L 77.472136 93.556204 
L 78.507671 96.735094 
L 79.543207 27.861136 
L 80.578742 100.644046 
L 81.614277 60.298537 
L 82.649812 54.497906 
L 83.685347 76.317994 
L 84.720882 178.643561 
L 85.756417 77.198372 
L 86.791952 56.881902 
L 87.827487 140.77479 
L 88.863023 100.736206 
L 89.898558 144.881696 
L 90.934093 62.939267 
L 91.969628 131.021702 
L 93.005163 182.060943 
L 94.040698 74.952767 
L 95.076233 36.444745 
L 96.111768 114.848636 
L 97.147304 98.47024 
L 98.182839 120.195733 
L 99.218374 121.830814 
L 100.253909 117.784232 
L 102.324979 82.268589 
L 103.360514 70.031342 
L 104.396049 140.040738 
L 105.431584 85.199983 
L 107.502655 149.525449 
L 108.53819 124.759072 
L 109.573725 91.559753 
L 110.60926 179.302795 
L 111.644795 157.698437 
L 112.68033 152.614605 
L 113.715865 116.420392 
L 114.751401 59.559874 
L 115.786936 40.804952 
L 116.822471 101.730237 
L 117.858006 85.576841 
L 118.893541 80.307386 
L 119.929076 51.057693 
L 120.964611 127.220583 
L 122.000146 100.389935 
L 123.035681 67.840946 
L 124.071217 123.981189 
L 125.106752 91.310315 
L 126.142287 130.024358 
L 127.177822 149.58025 
L 128.213357 56.322852 
L 129.248892 108.516122 
L 130.284427 66.048577 
L 131.319962 81.997294 
L 132.355497 93.206678 
L 133.391033 47.132554 
L 134.426568 124.796943 
L 135.462103 97.196172 
L 136.497638 84.891164 
L 137.533173 126.916716 
L 138.568708 83.469291 
L 139.604243 74.496412 
L 140.639778 123.731661 
L 141.675314 123.128518 
L 142.710849 164.466042 
L 143.746384 85.705614 
L 144.781919 148.306538 
L 145.817454 139.5432 
L 146.852989 139.295153 
L 147.888524 168.495847 
L 148.924059 125.730594 
L 149.959594 99.745871 
L 150.99513 136.742193 
L 152.030665 66.699917 
L 153.0662 131.646481 
L 154.101735 134.8488 
L 155.13727 92.196087 
L 156.172805 68.387109 
L 157.20834 96.306044 
L 158.243875 114.032827 
L 159.279411 108.986453 
L 160.314946 109.059204 
L 161.350481 99.976552 
L 162.386016 105.066433 
L 163.421551 62.065181 
L 164.457086 123.192364 
L 165.492621 81.187335 
L 166.528156 106.918058 
L 167.563691 149.276949 
L 168.599227 137.85786 
L 169.634762 138.273612 
L 170.670297 95.06047 
L 171.705832 117.669339 
L 172.741367 115.138856 
L 173.776902 137.277517 
L 174.812437 103.618994 
L 175.847972 101.296861 
L 176.883508 111.318184 
L 177.919043 97.048538 
L 178.954578 70.141387 
L 179.990113 104.766852 
L 181.025648 106.851577 
L 182.061183 139.677033 
L 183.096718 132.15859 
L 184.132253 134.016548 
L 185.167788 137.601065 
L 186.203324 129.273126 
L 187.238859 141.85099 
L 188.274394 75.998709 
L 189.309929 75.51236 
L 190.345464 66.621349 
L 191.380999 134.849345 
L 192.416534 128.757761 
L 193.452069 86.156603 
L 194.487605 126.303083 
L 195.52314 73.519143 
L 196.558675 89.213937 
L 198.629745 139.106878 
L 199.66528 124.516584 
L 200.700815 137.43058 
L 201.73635 88.194877 
L 202.771885 134.819439 
L 203.807421 119.541043 
L 204.842956 113.125927 
L 205.878491 81.696493 
L 206.914026 109.535453 
L 207.949561 74.936965 
L 208.985096 99.556692 
L 210.020631 103.400407 
L 211.056166 79.840684 
L 212.091702 132.901669 
L 213.127237 162.960156 
L 214.162772 141.955583 
L 215.198307 99.063127 
L 217.269377 118.257524 
L 218.304912 118.817931 
L 219.340447 72.044529 
L 220.375982 156.735232 
L 221.411518 155.266907 
L 222.447053 97.116629 
L 223.482588 118.998002 
L 224.518123 128.362102 
L 225.553658 105.468497 
L 226.589193 145.897455 
L 227.624728 143.540436 
L 228.660263 86.592846 
L 229.695798 139.345017 
L 230.731334 139.657651 
L 231.766869 158.236076 
L 232.802404 101.378854 
L 233.837939 86.006685 
L 234.873474 135.504586 
L 235.909009 112.834093 
L 236.944544 118.123943 
L 237.980079 121.226952 
L 239.015615 85.057342 
L 240.05115 79.616753 
L 241.086685 160.582604 
L 242.12222 123.058559 
L 243.157755 113.90345 
L 244.19329 46.136179 
L 245.228825 110.076743 
L 246.26436 143.855746 
L 247.299895 24.143636 
L 248.335431 71.607728 
L 249.370966 99.129583 
L 250.406501 97.262074 
L 251.442036 104.506173 
L 252.477571 135.194531 
L 253.513106 130.777938 
L 254.548641 101.710249 
L 255.584176 172.747605 
L 256.619712 130.005162 
L 257.655247 106.338962 
L 258.690782 88.789944 
L 259.726317 132.049503 
L 260.761852 122.994628 
L 261.797387 110.435281 
L 262.832922 159.254561 
L 263.868457 121.615277 
L 264.903992 108.844433 
L 265.939528 108.4789 
L 266.975063 87.514808 
L 268.010598 75.465851 
L 269.046133 58.310667 
L 270.081668 93.874718 
L 271.117203 122.886748 
L 272.152738 157.742878 
L 273.188273 113.3651 
L 274.223809 109.831818 
L 275.259344 108.550881 
L 276.294879 80.589592 
L 277.330414 91.008105 
L 278.365949 168.624796 
L 279.401484 142.747878 
L 280.437019 78.501436 
L 281.472554 53.794752 
L 282.508089 102.437596 
L 283.543625 110.101811 
L 284.57916 88.883743 
L 285.614695 110.368894 
L 286.65023 142.277606 
L 287.685765 106.340606 
L 288.7213 82.325267 
L 289.756835 53.826561 
L 290.79237 130.97312 
L 291.827906 111.118561 
L 292.863441 72.503951 
L 293.898976 123.21752 
L 294.934511 107.978736 
L 295.970046 129.062076 
L 297.005581 142.051504 
L 298.041116 135.258238 
L 299.076651 118.203082 
L 301.147722 69.08449 
L 302.183257 53.060979 
L 303.218792 108.663729 
L 304.254327 87.585806 
L 305.289862 112.770189 
L 306.325397 73.239982 
L 307.360932 29.217924 
L 308.396467 73.432586 
L 309.432003 75.961158 
L 310.467538 159.444477 
L 311.503073 115.641028 
L 312.538608 151.371484 
L 313.574143 147.693016 
L 314.609678 122.845625 
L 315.645213 93.226697 
L 316.680748 73.931393 
L 317.716283 107.479168 
L 318.751819 103.183002 
L 319.787354 77.189258 
L 320.822889 119.828373 
L 321.858424 72.961846 
L 322.893959 102.138798 
L 324.965029 144.231723 
L 326.000564 138.858964 
L 327.036099 61.781169 
L 328.071635 41.174082 
L 329.10717 43.544381 
L 331.17824 111.716773 
L 332.213775 104.280187 
L 333.24931 114.971775 
L 334.284845 102.005723 
L 335.32038 102.026808 
L 336.355916 103.110898 
L 337.391451 95.206166 
L 338.426986 67.187778 
L 339.462521 98.328432 
L 340.498056 125.299709 
L 341.533591 158.202431 
L 342.569126 91.511866 
L 343.604661 33.60185 
L 344.640196 56.727741 
L 345.675732 132.67651 
L 346.711267 127.612151 
L 347.746802 130.446332 
L 348.782337 127.096353 
L 349.817872 134.468054 
L 350.853407 128.529784 
L 351.888942 142.485107 
L 352.924477 142.472849 
L 353.960013 143.251892 
L 354.995548 131.089937 
L 356.031083 31.978353 
L 357.066618 70.825629 
L 358.102153 159.810505 
L 359.137688 148.217649 
L 360.173223 119.611274 
L 361.208758 151.432236 
L 362.244293 121.813551 
L 363.279829 88.885065 
L 364.315364 83.862092 
L 365.350899 156.132411 
L 366.386434 146.473151 
L 367.421969 144.550817 
L 368.457504 59.116588 
L 369.493039 90.206593 
L 370.528574 161.335019 
L 371.56411 151.87907 
L 372.599645 151.556956 
L 373.63518 137.455872 
L 374.670715 105.391201 
L 375.70625 108.097692 
L 375.70625 108.097692 
" style="fill:none;stroke:#ff0000;stroke-linecap:square;stroke-width:1.5;"/>
   </g>
   <g id="line2d_35">
    <path clip-path="url(#p1f6ceba3ec)" d="M 66.08125 93.447899 
L 375.70625 93.447899 
L 375.70625 93.447899 
" style="fill:none;stroke:#bf00bf;stroke-linecap:square;stroke-width:1.5;"/>
   </g>
   <g id="patch_11">
    <path d="M 50.6 304.36 
L 50.6 10.8 
" style="fill:none;stroke:#000000;stroke-linecap:square;stroke-linejoin:miter;stroke-width:0.8;"/>
   </g>
   <g id="patch_12">
    <path d="M 391.1875 304.36 
L 391.1875 10.8 
" style="fill:none;stroke:#000000;stroke-linecap:square;stroke-linejoin:miter;stroke-width:0.8;"/>
   </g>
   <g id="patch_13">
    <path d="M 50.6 304.36 
L 391.1875 304.36 
" style="fill:none;stroke:#000000;stroke-linecap:square;stroke-linejoin:miter;stroke-width:0.8;"/>
   </g>
   <g id="patch_14">
    <path d="M 50.6 10.8 
L 391.1875 10.8 
" style="fill:none;stroke:#000000;stroke-linecap:square;stroke-linejoin:miter;stroke-width:0.8;"/>
   </g>
   <g id="legend_1">
    <g id="patch_15">
     <path d="M 245.54375 299.36 
L 384.1875 299.36 
Q 386.1875 299.36 386.1875 297.36 
L 386.1875 269.00375 
Q 386.1875 267.00375 384.1875 267.00375 
L 245.54375 267.00375 
Q 243.54375 267.00375 243.54375 269.00375 
L 243.54375 297.36 
Q 243.54375 299.36 245.54375 299.36 
z
" style="fill:#ffffff;opacity:0.8;stroke:#cccccc;stroke-linejoin:miter;"/>
    </g>
    <g id="line2d_36">
     <path d="M 247.54375 275.102187 
L 267.54375 275.102187 
" style="fill:none;stroke:#ff0000;stroke-linecap:square;stroke-width:1.5;"/>
    </g>
    <g id="line2d_37"/>
    <g id="text_36">
     <!-- Model Profit -->
     <g transform="translate(275.54375 278.602187)scale(0.1 -0.1)">
      <use xlink:href="#DejaVuSans-77"/>
      <use x="86.279297" xlink:href="#DejaVuSans-111"/>
      <use x="147.460938" xlink:href="#DejaVuSans-100"/>
      <use x="210.9375" xlink:href="#DejaVuSans-101"/>
      <use x="272.460938" xlink:href="#DejaVuSans-108"/>
      <use x="300.244141" xlink:href="#DejaVuSans-32"/>
      <use x="332.03125" xlink:href="#DejaVuSans-80"/>
      <use x="390.583984" xlink:href="#DejaVuSans-114"/>
      <use x="429.447266" xlink:href="#DejaVuSans-111"/>
      <use x="490.628906" xlink:href="#DejaVuSans-102"/>
      <use x="525.833984" xlink:href="#DejaVuSans-105"/>
      <use x="553.617188" xlink:href="#DejaVuSans-116"/>
     </g>
    </g>
    <g id="line2d_38">
     <path d="M 247.54375 289.780312 
L 267.54375 289.780312 
" style="fill:none;stroke:#bf00bf;stroke-linecap:square;stroke-width:1.5;"/>
    </g>
    <g id="line2d_39"/>
    <g id="text_37">
     <!-- Mean Profit (Dataset) -->
     <defs>
      <path d="M 31 75.875 
Q 24.46875 64.65625 21.28125 53.65625 
Q 18.109375 42.671875 18.109375 31.390625 
Q 18.109375 20.125 21.3125 9.0625 
Q 24.515625 -2 31 -13.1875 
L 23.1875 -13.1875 
Q 15.875 -1.703125 12.234375 9.375 
Q 8.59375 20.453125 8.59375 31.390625 
Q 8.59375 42.28125 12.203125 53.3125 
Q 15.828125 64.359375 23.1875 75.875 
z
" id="DejaVuSans-40"/>
      <path d="M 8.015625 75.875 
L 15.828125 75.875 
Q 23.140625 64.359375 26.78125 53.3125 
Q 30.421875 42.28125 30.421875 31.390625 
Q 30.421875 20.453125 26.78125 9.375 
Q 23.140625 -1.703125 15.828125 -13.1875 
L 8.015625 -13.1875 
Q 14.5 -2 17.703125 9.0625 
Q 20.90625 20.125 20.90625 31.390625 
Q 20.90625 42.671875 17.703125 53.65625 
Q 14.5 64.65625 8.015625 75.875 
z
" id="DejaVuSans-41"/>
     </defs>
     <g transform="translate(275.54375 293.280312)scale(0.1 -0.1)">
      <use xlink:href="#DejaVuSans-77"/>
      <use x="86.279297" xlink:href="#DejaVuSans-101"/>
      <use x="147.802734" xlink:href="#DejaVuSans-97"/>
      <use x="209.082031" xlink:href="#DejaVuSans-110"/>
      <use x="272.460938" xlink:href="#DejaVuSans-32"/>
      <use x="304.248047" xlink:href="#DejaVuSans-80"/>
      <use x="362.800781" xlink:href="#DejaVuSans-114"/>
      <use x="401.664062" xlink:href="#DejaVuSans-111"/>
      <use x="462.845703" xlink:href="#DejaVuSans-102"/>
      <use x="498.050781" xlink:href="#DejaVuSans-105"/>
      <use x="525.833984" xlink:href="#DejaVuSans-116"/>
      <use x="565.042969" xlink:href="#DejaVuSans-32"/>
      <use x="596.830078" xlink:href="#DejaVuSans-40"/>
      <use x="635.84375" xlink:href="#DejaVuSans-68"/>
      <use x="712.845703" xlink:href="#DejaVuSans-97"/>
      <use x="774.125" xlink:href="#DejaVuSans-116"/>
      <use x="813.333984" xlink:href="#DejaVuSans-97"/>
      <use x="874.613281" xlink:href="#DejaVuSans-115"/>
      <use x="926.712891" xlink:href="#DejaVuSans-101"/>
      <use x="988.236328" xlink:href="#DejaVuSans-116"/>
      <use x="1027.445312" xlink:href="#DejaVuSans-41"/>
     </g>
    </g>
   </g>
  </g>
  <g id="text_38">
   <!-- A3C price vs Exchange vs Profits -->
   <defs>
    <path d="M 64.40625 67.28125 
L 64.40625 56.890625 
Q 59.421875 61.53125 53.78125 63.8125 
Q 48.140625 66.109375 41.796875 66.109375 
Q 29.296875 66.109375 22.65625 58.46875 
Q 16.015625 50.828125 16.015625 36.375 
Q 16.015625 21.96875 22.65625 14.328125 
Q 29.296875 6.6875 41.796875 6.6875 
Q 48.140625 6.6875 53.78125 8.984375 
Q 59.421875 11.28125 64.40625 15.921875 
L 64.40625 5.609375 
Q 59.234375 2.09375 53.4375 0.328125 
Q 47.65625 -1.421875 41.21875 -1.421875 
Q 24.65625 -1.421875 15.125 8.703125 
Q 5.609375 18.84375 5.609375 36.375 
Q 5.609375 53.953125 15.125 64.078125 
Q 24.65625 74.21875 41.21875 74.21875 
Q 47.75 74.21875 53.53125 72.484375 
Q 59.328125 70.75 64.40625 67.28125 
z
" id="DejaVuSans-67"/>
    <path d="M 54.890625 54.6875 
L 35.109375 28.078125 
L 55.90625 0 
L 45.3125 0 
L 29.390625 21.484375 
L 13.484375 0 
L 2.875 0 
L 24.125 28.609375 
L 4.6875 54.6875 
L 15.28125 54.6875 
L 29.78125 35.203125 
L 44.28125 54.6875 
z
" id="DejaVuSans-120"/>
    <path d="M 54.890625 33.015625 
L 54.890625 0 
L 45.90625 0 
L 45.90625 32.71875 
Q 45.90625 40.484375 42.875 44.328125 
Q 39.84375 48.1875 33.796875 48.1875 
Q 26.515625 48.1875 22.3125 43.546875 
Q 18.109375 38.921875 18.109375 30.90625 
L 18.109375 0 
L 9.078125 0 
L 9.078125 75.984375 
L 18.109375 75.984375 
L 18.109375 46.1875 
Q 21.34375 51.125 25.703125 53.5625 
Q 30.078125 56 35.796875 56 
Q 45.21875 56 50.046875 50.171875 
Q 54.890625 44.34375 54.890625 33.015625 
z
" id="DejaVuSans-104"/>
   </defs>
   <g transform="translate(116.0375 17.549812)scale(0.14 -0.14)">
    <use xlink:href="#DejaVuSans-65"/>
    <use x="68.408203" xlink:href="#DejaVuSans-51"/>
    <use x="132.03125" xlink:href="#DejaVuSans-67"/>
    <use x="201.855469" xlink:href="#DejaVuSans-32"/>
    <use x="233.642578" xlink:href="#DejaVuSans-112"/>
    <use x="297.119141" xlink:href="#DejaVuSans-114"/>
    <use x="338.232422" xlink:href="#DejaVuSans-105"/>
    <use x="366.015625" xlink:href="#DejaVuSans-99"/>
    <use x="420.996094" xlink:href="#DejaVuSans-101"/>
    <use x="482.519531" xlink:href="#DejaVuSans-32"/>
    <use x="514.306641" xlink:href="#DejaVuSans-118"/>
    <use x="573.486328" xlink:href="#DejaVuSans-115"/>
    <use x="625.585938" xlink:href="#DejaVuSans-32"/>
    <use x="657.373047" xlink:href="#DejaVuSans-69"/>
    <use x="720.556641" xlink:href="#DejaVuSans-120"/>
    <use x="777.986328" xlink:href="#DejaVuSans-99"/>
    <use x="832.966797" xlink:href="#DejaVuSans-104"/>
    <use x="896.345703" xlink:href="#DejaVuSans-97"/>
    <use x="957.625" xlink:href="#DejaVuSans-110"/>
    <use x="1021.003906" xlink:href="#DejaVuSans-103"/>
    <use x="1084.480469" xlink:href="#DejaVuSans-101"/>
    <use x="1146.003906" xlink:href="#DejaVuSans-32"/>
    <use x="1177.791016" xlink:href="#DejaVuSans-118"/>
    <use x="1236.970703" xlink:href="#DejaVuSans-115"/>
    <use x="1289.070312" xlink:href="#DejaVuSans-32"/>
    <use x="1320.857422" xlink:href="#DejaVuSans-80"/>
    <use x="1379.410156" xlink:href="#DejaVuSans-114"/>
    <use x="1418.273438" xlink:href="#DejaVuSans-111"/>
    <use x="1479.455078" xlink:href="#DejaVuSans-102"/>
    <use x="1514.660156" xlink:href="#DejaVuSans-105"/>
    <use x="1542.443359" xlink:href="#DejaVuSans-116"/>
    <use x="1581.652344" xlink:href="#DejaVuSans-115"/>
   </g>
  </g>
 </g>
 <defs>
  <clipPath id="p1f6ceba3ec">
   <rect height="293.56" width="340.5875" x="50.6" y="10.8"/>
  </clipPath>
 </defs>
</svg>
