<?xml version="1.0" encoding="utf-8" standalone="no"?>
<!DOCTYPE svg PUBLIC "-//W3C//DTD SVG 1.1//EN"
  "http://www.w3.org/Graphics/SVG/1.1/DTD/svg11.dtd">
<!-- Created with matplotlib (https://matplotlib.org/) -->
<svg height="345.6pt" version="1.1" viewBox="0 0 460.8 345.6" width="460.8pt" xmlns="http://www.w3.org/2000/svg" xmlns:xlink="http://www.w3.org/1999/xlink">
 <defs>
  <style type="text/css">
*{stroke-linecap:butt;stroke-linejoin:round;}
  </style>
 </defs>
 <g id="figure_1">
  <g id="patch_1">
   <path d="M 0 345.6 
L 460.8 345.6 
L 460.8 0 
L 0 0 
z
" style="fill:#ffffff;"/>
  </g>
  <g id="axes_1">
   <g id="patch_2">
    <path d="M 50.6 304.36 
L 410.2 304.36 
L 410.2 10.8 
L 50.6 10.8 
z
" style="fill:#ffffff;"/>
   </g>
   <g id="matplotlib.axis_1">
    <g id="xtick_1">
     <g id="line2d_1">
      <defs>
       <path d="M 0 0 
L 0 3.5 
" id="mf08ab3593f" style="stroke:#000000;stroke-width:0.8;"/>
      </defs>
      <g>
       <use style="stroke:#000000;stroke-width:0.8;" x="66.945455" xlink:href="#mf08ab3593f" y="304.36"/>
      </g>
     </g>
     <g id="text_1">
      <!-- 0 -->
      <defs>
       <path d="M 31.78125 66.40625 
Q 24.171875 66.40625 20.328125 58.90625 
Q 16.5 51.421875 16.5 36.375 
Q 16.5 21.390625 20.328125 13.890625 
Q 24.171875 6.390625 31.78125 6.390625 
Q 39.453125 6.390625 43.28125 13.890625 
Q 47.125 21.390625 47.125 36.375 
Q 47.125 51.421875 43.28125 58.90625 
Q 39.453125 66.40625 31.78125 66.40625 
z
M 31.78125 74.21875 
Q 44.046875 74.21875 50.515625 64.515625 
Q 56.984375 54.828125 56.984375 36.375 
Q 56.984375 17.96875 50.515625 8.265625 
Q 44.046875 -1.421875 31.78125 -1.421875 
Q 19.53125 -1.421875 13.0625 8.265625 
Q 6.59375 17.96875 6.59375 36.375 
Q 6.59375 54.828125 13.0625 64.515625 
Q 19.53125 74.21875 31.78125 74.21875 
z
" id="DejaVuSans-48"/>
      </defs>
      <g transform="translate(63.764205 318.958437)scale(0.1 -0.1)">
       <use xlink:href="#DejaVuSans-48"/>
      </g>
     </g>
    </g>
    <g id="xtick_2">
     <g id="line2d_2">
      <g>
       <use style="stroke:#000000;stroke-width:0.8;" x="121.612527" xlink:href="#mf08ab3593f" y="304.36"/>
      </g>
     </g>
     <g id="text_2">
      <!-- 50 -->
      <defs>
       <path d="M 10.796875 72.90625 
L 49.515625 72.90625 
L 49.515625 64.59375 
L 19.828125 64.59375 
L 19.828125 46.734375 
Q 21.96875 47.46875 24.109375 47.828125 
Q 26.265625 48.1875 28.421875 48.1875 
Q 40.625 48.1875 47.75 41.5 
Q 54.890625 34.8125 54.890625 23.390625 
Q 54.890625 11.625 47.5625 5.09375 
Q 40.234375 -1.421875 26.90625 -1.421875 
Q 22.3125 -1.421875 17.546875 -0.640625 
Q 12.796875 0.140625 7.71875 1.703125 
L 7.71875 11.625 
Q 12.109375 9.234375 16.796875 8.0625 
Q 21.484375 6.890625 26.703125 6.890625 
Q 35.15625 6.890625 40.078125 11.328125 
Q 45.015625 15.765625 45.015625 23.390625 
Q 45.015625 31 40.078125 35.4375 
Q 35.15625 39.890625 26.703125 39.890625 
Q 22.75 39.890625 18.8125 39.015625 
Q 14.890625 38.140625 10.796875 36.28125 
z
" id="DejaVuSans-53"/>
      </defs>
      <g transform="translate(115.250027 318.958437)scale(0.1 -0.1)">
       <use xlink:href="#DejaVuSans-53"/>
       <use x="63.623047" xlink:href="#DejaVuSans-48"/>
      </g>
     </g>
    </g>
    <g id="xtick_3">
     <g id="line2d_3">
      <g>
       <use style="stroke:#000000;stroke-width:0.8;" x="176.279599" xlink:href="#mf08ab3593f" y="304.36"/>
      </g>
     </g>
     <g id="text_3">
      <!-- 100 -->
      <defs>
       <path d="M 12.40625 8.296875 
L 28.515625 8.296875 
L 28.515625 63.921875 
L 10.984375 60.40625 
L 10.984375 69.390625 
L 28.421875 72.90625 
L 38.28125 72.90625 
L 38.28125 8.296875 
L 54.390625 8.296875 
L 54.390625 0 
L 12.40625 0 
z
" id="DejaVuSans-49"/>
      </defs>
      <g transform="translate(166.735849 318.958437)scale(0.1 -0.1)">
       <use xlink:href="#DejaVuSans-49"/>
       <use x="63.623047" xlink:href="#DejaVuSans-48"/>
       <use x="127.246094" xlink:href="#DejaVuSans-48"/>
      </g>
     </g>
    </g>
    <g id="xtick_4">
     <g id="line2d_4">
      <g>
       <use style="stroke:#000000;stroke-width:0.8;" x="230.946671" xlink:href="#mf08ab3593f" y="304.36"/>
      </g>
     </g>
     <g id="text_4">
      <!-- 150 -->
      <g transform="translate(221.402921 318.958437)scale(0.1 -0.1)">
       <use xlink:href="#DejaVuSans-49"/>
       <use x="63.623047" xlink:href="#DejaVuSans-53"/>
       <use x="127.246094" xlink:href="#DejaVuSans-48"/>
      </g>
     </g>
    </g>
    <g id="xtick_5">
     <g id="line2d_5">
      <g>
       <use style="stroke:#000000;stroke-width:0.8;" x="285.613743" xlink:href="#mf08ab3593f" y="304.36"/>
      </g>
     </g>
     <g id="text_5">
      <!-- 200 -->
      <defs>
       <path d="M 19.1875 8.296875 
L 53.609375 8.296875 
L 53.609375 0 
L 7.328125 0 
L 7.328125 8.296875 
Q 12.9375 14.109375 22.625 23.890625 
Q 32.328125 33.6875 34.8125 36.53125 
Q 39.546875 41.84375 41.421875 45.53125 
Q 43.3125 49.21875 43.3125 52.78125 
Q 43.3125 58.59375 39.234375 62.25 
Q 35.15625 65.921875 28.609375 65.921875 
Q 23.96875 65.921875 18.8125 64.3125 
Q 13.671875 62.703125 7.8125 59.421875 
L 7.8125 69.390625 
Q 13.765625 71.78125 18.9375 73 
Q 24.125 74.21875 28.421875 74.21875 
Q 39.75 74.21875 46.484375 68.546875 
Q 53.21875 62.890625 53.21875 53.421875 
Q 53.21875 48.921875 51.53125 44.890625 
Q 49.859375 40.875 45.40625 35.40625 
Q 44.1875 33.984375 37.640625 27.21875 
Q 31.109375 20.453125 19.1875 8.296875 
z
" id="DejaVuSans-50"/>
      </defs>
      <g transform="translate(276.069993 318.958437)scale(0.1 -0.1)">
       <use xlink:href="#DejaVuSans-50"/>
       <use x="63.623047" xlink:href="#DejaVuSans-48"/>
       <use x="127.246094" xlink:href="#DejaVuSans-48"/>
      </g>
     </g>
    </g>
    <g id="xtick_6">
     <g id="line2d_6">
      <g>
       <use style="stroke:#000000;stroke-width:0.8;" x="340.280815" xlink:href="#mf08ab3593f" y="304.36"/>
      </g>
     </g>
     <g id="text_6">
      <!-- 250 -->
      <g transform="translate(330.737065 318.958437)scale(0.1 -0.1)">
       <use xlink:href="#DejaVuSans-50"/>
       <use x="63.623047" xlink:href="#DejaVuSans-53"/>
       <use x="127.246094" xlink:href="#DejaVuSans-48"/>
      </g>
     </g>
    </g>
    <g id="xtick_7">
     <g id="line2d_7">
      <g>
       <use style="stroke:#000000;stroke-width:0.8;" x="394.947887" xlink:href="#mf08ab3593f" y="304.36"/>
      </g>
     </g>
     <g id="text_7">
      <!-- 300 -->
      <defs>
       <path d="M 40.578125 39.3125 
Q 47.65625 37.796875 51.625 33 
Q 55.609375 28.21875 55.609375 21.1875 
Q 55.609375 10.40625 48.1875 4.484375 
Q 40.765625 -1.421875 27.09375 -1.421875 
Q 22.515625 -1.421875 17.65625 -0.515625 
Q 12.796875 0.390625 7.625 2.203125 
L 7.625 11.71875 
Q 11.71875 9.328125 16.59375 8.109375 
Q 21.484375 6.890625 26.8125 6.890625 
Q 36.078125 6.890625 40.9375 10.546875 
Q 45.796875 14.203125 45.796875 21.1875 
Q 45.796875 27.640625 41.28125 31.265625 
Q 36.765625 34.90625 28.71875 34.90625 
L 20.21875 34.90625 
L 20.21875 43.015625 
L 29.109375 43.015625 
Q 36.375 43.015625 40.234375 45.921875 
Q 44.09375 48.828125 44.09375 54.296875 
Q 44.09375 59.90625 40.109375 62.90625 
Q 36.140625 65.921875 28.71875 65.921875 
Q 24.65625 65.921875 20.015625 65.03125 
Q 15.375 64.15625 9.8125 62.3125 
L 9.8125 71.09375 
Q 15.4375 72.65625 20.34375 73.4375 
Q 25.25 74.21875 29.59375 74.21875 
Q 40.828125 74.21875 47.359375 69.109375 
Q 53.90625 64.015625 53.90625 55.328125 
Q 53.90625 49.265625 50.4375 45.09375 
Q 46.96875 40.921875 40.578125 39.3125 
z
" id="DejaVuSans-51"/>
      </defs>
      <g transform="translate(385.404137 318.958437)scale(0.1 -0.1)">
       <use xlink:href="#DejaVuSans-51"/>
       <use x="63.623047" xlink:href="#DejaVuSans-48"/>
       <use x="127.246094" xlink:href="#DejaVuSans-48"/>
      </g>
     </g>
    </g>
    <g id="text_8">
     <!-- Average of Per 7500.0 Episode -->
     <defs>
      <path d="M 34.1875 63.1875 
L 20.796875 26.90625 
L 47.609375 26.90625 
z
M 28.609375 72.90625 
L 39.796875 72.90625 
L 67.578125 0 
L 57.328125 0 
L 50.6875 18.703125 
L 17.828125 18.703125 
L 11.1875 0 
L 0.78125 0 
z
" id="DejaVuSans-65"/>
      <path d="M 2.984375 54.6875 
L 12.5 54.6875 
L 29.59375 8.796875 
L 46.6875 54.6875 
L 56.203125 54.6875 
L 35.6875 0 
L 23.484375 0 
z
" id="DejaVuSans-118"/>
      <path d="M 56.203125 29.59375 
L 56.203125 25.203125 
L 14.890625 25.203125 
Q 15.484375 15.921875 20.484375 11.0625 
Q 25.484375 6.203125 34.421875 6.203125 
Q 39.59375 6.203125 44.453125 7.46875 
Q 49.3125 8.734375 54.109375 11.28125 
L 54.109375 2.78125 
Q 49.265625 0.734375 44.1875 -0.34375 
Q 39.109375 -1.421875 33.890625 -1.421875 
Q 20.796875 -1.421875 13.15625 6.1875 
Q 5.515625 13.8125 5.515625 26.8125 
Q 5.515625 40.234375 12.765625 48.109375 
Q 20.015625 56 32.328125 56 
Q 43.359375 56 49.78125 48.890625 
Q 56.203125 41.796875 56.203125 29.59375 
z
M 47.21875 32.234375 
Q 47.125 39.59375 43.09375 43.984375 
Q 39.0625 48.390625 32.421875 48.390625 
Q 24.90625 48.390625 20.390625 44.140625 
Q 15.875 39.890625 15.1875 32.171875 
z
" id="DejaVuSans-101"/>
      <path d="M 41.109375 46.296875 
Q 39.59375 47.171875 37.8125 47.578125 
Q 36.03125 48 33.890625 48 
Q 26.265625 48 22.1875 43.046875 
Q 18.109375 38.09375 18.109375 28.8125 
L 18.109375 0 
L 9.078125 0 
L 9.078125 54.6875 
L 18.109375 54.6875 
L 18.109375 46.1875 
Q 20.953125 51.171875 25.484375 53.578125 
Q 30.03125 56 36.53125 56 
Q 37.453125 56 38.578125 55.875 
Q 39.703125 55.765625 41.0625 55.515625 
z
" id="DejaVuSans-114"/>
      <path d="M 34.28125 27.484375 
Q 23.390625 27.484375 19.1875 25 
Q 14.984375 22.515625 14.984375 16.5 
Q 14.984375 11.71875 18.140625 8.90625 
Q 21.296875 6.109375 26.703125 6.109375 
Q 34.1875 6.109375 38.703125 11.40625 
Q 43.21875 16.703125 43.21875 25.484375 
L 43.21875 27.484375 
z
M 52.203125 31.203125 
L 52.203125 0 
L 43.21875 0 
L 43.21875 8.296875 
Q 40.140625 3.328125 35.546875 0.953125 
Q 30.953125 -1.421875 24.3125 -1.421875 
Q 15.921875 -1.421875 10.953125 3.296875 
Q 6 8.015625 6 15.921875 
Q 6 25.140625 12.171875 29.828125 
Q 18.359375 34.515625 30.609375 34.515625 
L 43.21875 34.515625 
L 43.21875 35.40625 
Q 43.21875 41.609375 39.140625 45 
Q 35.0625 48.390625 27.6875 48.390625 
Q 23 48.390625 18.546875 47.265625 
Q 14.109375 46.140625 10.015625 43.890625 
L 10.015625 52.203125 
Q 14.9375 54.109375 19.578125 55.046875 
Q 24.21875 56 28.609375 56 
Q 40.484375 56 46.34375 49.84375 
Q 52.203125 43.703125 52.203125 31.203125 
z
" id="DejaVuSans-97"/>
      <path d="M 45.40625 27.984375 
Q 45.40625 37.75 41.375 43.109375 
Q 37.359375 48.484375 30.078125 48.484375 
Q 22.859375 48.484375 18.828125 43.109375 
Q 14.796875 37.75 14.796875 27.984375 
Q 14.796875 18.265625 18.828125 12.890625 
Q 22.859375 7.515625 30.078125 7.515625 
Q 37.359375 7.515625 41.375 12.890625 
Q 45.40625 18.265625 45.40625 27.984375 
z
M 54.390625 6.78125 
Q 54.390625 -7.171875 48.1875 -13.984375 
Q 42 -20.796875 29.203125 -20.796875 
Q 24.46875 -20.796875 20.265625 -20.09375 
Q 16.0625 -19.390625 12.109375 -17.921875 
L 12.109375 -9.1875 
Q 16.0625 -11.328125 19.921875 -12.34375 
Q 23.78125 -13.375 27.78125 -13.375 
Q 36.625 -13.375 41.015625 -8.765625 
Q 45.40625 -4.15625 45.40625 5.171875 
L 45.40625 9.625 
Q 42.625 4.78125 38.28125 2.390625 
Q 33.9375 0 27.875 0 
Q 17.828125 0 11.671875 7.65625 
Q 5.515625 15.328125 5.515625 27.984375 
Q 5.515625 40.671875 11.671875 48.328125 
Q 17.828125 56 27.875 56 
Q 33.9375 56 38.28125 53.609375 
Q 42.625 51.21875 45.40625 46.390625 
L 45.40625 54.6875 
L 54.390625 54.6875 
z
" id="DejaVuSans-103"/>
      <path id="DejaVuSans-32"/>
      <path d="M 30.609375 48.390625 
Q 23.390625 48.390625 19.1875 42.75 
Q 14.984375 37.109375 14.984375 27.296875 
Q 14.984375 17.484375 19.15625 11.84375 
Q 23.34375 6.203125 30.609375 6.203125 
Q 37.796875 6.203125 41.984375 11.859375 
Q 46.1875 17.53125 46.1875 27.296875 
Q 46.1875 37.015625 41.984375 42.703125 
Q 37.796875 48.390625 30.609375 48.390625 
z
M 30.609375 56 
Q 42.328125 56 49.015625 48.375 
Q 55.71875 40.765625 55.71875 27.296875 
Q 55.71875 13.875 49.015625 6.21875 
Q 42.328125 -1.421875 30.609375 -1.421875 
Q 18.84375 -1.421875 12.171875 6.21875 
Q 5.515625 13.875 5.515625 27.296875 
Q 5.515625 40.765625 12.171875 48.375 
Q 18.84375 56 30.609375 56 
z
" id="DejaVuSans-111"/>
      <path d="M 37.109375 75.984375 
L 37.109375 68.5 
L 28.515625 68.5 
Q 23.6875 68.5 21.796875 66.546875 
Q 19.921875 64.59375 19.921875 59.515625 
L 19.921875 54.6875 
L 34.71875 54.6875 
L 34.71875 47.703125 
L 19.921875 47.703125 
L 19.921875 0 
L 10.890625 0 
L 10.890625 47.703125 
L 2.296875 47.703125 
L 2.296875 54.6875 
L 10.890625 54.6875 
L 10.890625 58.5 
Q 10.890625 67.625 15.140625 71.796875 
Q 19.390625 75.984375 28.609375 75.984375 
z
" id="DejaVuSans-102"/>
      <path d="M 19.671875 64.796875 
L 19.671875 37.40625 
L 32.078125 37.40625 
Q 38.96875 37.40625 42.71875 40.96875 
Q 46.484375 44.53125 46.484375 51.125 
Q 46.484375 57.671875 42.71875 61.234375 
Q 38.96875 64.796875 32.078125 64.796875 
z
M 9.8125 72.90625 
L 32.078125 72.90625 
Q 44.34375 72.90625 50.609375 67.359375 
Q 56.890625 61.8125 56.890625 51.125 
Q 56.890625 40.328125 50.609375 34.8125 
Q 44.34375 29.296875 32.078125 29.296875 
L 19.671875 29.296875 
L 19.671875 0 
L 9.8125 0 
z
" id="DejaVuSans-80"/>
      <path d="M 8.203125 72.90625 
L 55.078125 72.90625 
L 55.078125 68.703125 
L 28.609375 0 
L 18.3125 0 
L 43.21875 64.59375 
L 8.203125 64.59375 
z
" id="DejaVuSans-55"/>
      <path d="M 10.6875 12.40625 
L 21 12.40625 
L 21 0 
L 10.6875 0 
z
" id="DejaVuSans-46"/>
      <path d="M 9.8125 72.90625 
L 55.90625 72.90625 
L 55.90625 64.59375 
L 19.671875 64.59375 
L 19.671875 43.015625 
L 54.390625 43.015625 
L 54.390625 34.71875 
L 19.671875 34.71875 
L 19.671875 8.296875 
L 56.78125 8.296875 
L 56.78125 0 
L 9.8125 0 
z
" id="DejaVuSans-69"/>
      <path d="M 18.109375 8.203125 
L 18.109375 -20.796875 
L 9.078125 -20.796875 
L 9.078125 54.6875 
L 18.109375 54.6875 
L 18.109375 46.390625 
Q 20.953125 51.265625 25.265625 53.625 
Q 29.59375 56 35.59375 56 
Q 45.5625 56 51.78125 48.09375 
Q 58.015625 40.1875 58.015625 27.296875 
Q 58.015625 14.40625 51.78125 6.484375 
Q 45.5625 -1.421875 35.59375 -1.421875 
Q 29.59375 -1.421875 25.265625 0.953125 
Q 20.953125 3.328125 18.109375 8.203125 
z
M 48.6875 27.296875 
Q 48.6875 37.203125 44.609375 42.84375 
Q 40.53125 48.484375 33.40625 48.484375 
Q 26.265625 48.484375 22.1875 42.84375 
Q 18.109375 37.203125 18.109375 27.296875 
Q 18.109375 17.390625 22.1875 11.75 
Q 26.265625 6.109375 33.40625 6.109375 
Q 40.53125 6.109375 44.609375 11.75 
Q 48.6875 17.390625 48.6875 27.296875 
z
" id="DejaVuSans-112"/>
      <path d="M 9.421875 54.6875 
L 18.40625 54.6875 
L 18.40625 0 
L 9.421875 0 
z
M 9.421875 75.984375 
L 18.40625 75.984375 
L 18.40625 64.59375 
L 9.421875 64.59375 
z
" id="DejaVuSans-105"/>
      <path d="M 44.28125 53.078125 
L 44.28125 44.578125 
Q 40.484375 46.53125 36.375 47.5 
Q 32.28125 48.484375 27.875 48.484375 
Q 21.1875 48.484375 17.84375 46.4375 
Q 14.5 44.390625 14.5 40.28125 
Q 14.5 37.15625 16.890625 35.375 
Q 19.28125 33.59375 26.515625 31.984375 
L 29.59375 31.296875 
Q 39.15625 29.25 43.1875 25.515625 
Q 47.21875 21.78125 47.21875 15.09375 
Q 47.21875 7.46875 41.1875 3.015625 
Q 35.15625 -1.421875 24.609375 -1.421875 
Q 20.21875 -1.421875 15.453125 -0.5625 
Q 10.6875 0.296875 5.421875 2 
L 5.421875 11.28125 
Q 10.40625 8.6875 15.234375 7.390625 
Q 20.0625 6.109375 24.8125 6.109375 
Q 31.15625 6.109375 34.5625 8.28125 
Q 37.984375 10.453125 37.984375 14.40625 
Q 37.984375 18.0625 35.515625 20.015625 
Q 33.0625 21.96875 24.703125 23.78125 
L 21.578125 24.515625 
Q 13.234375 26.265625 9.515625 29.90625 
Q 5.8125 33.546875 5.8125 39.890625 
Q 5.8125 47.609375 11.28125 51.796875 
Q 16.75 56 26.8125 56 
Q 31.78125 56 36.171875 55.265625 
Q 40.578125 54.546875 44.28125 53.078125 
z
" id="DejaVuSans-115"/>
      <path d="M 45.40625 46.390625 
L 45.40625 75.984375 
L 54.390625 75.984375 
L 54.390625 0 
L 45.40625 0 
L 45.40625 8.203125 
Q 42.578125 3.328125 38.25 0.953125 
Q 33.9375 -1.421875 27.875 -1.421875 
Q 17.96875 -1.421875 11.734375 6.484375 
Q 5.515625 14.40625 5.515625 27.296875 
Q 5.515625 40.1875 11.734375 48.09375 
Q 17.96875 56 27.875 56 
Q 33.9375 56 38.25 53.625 
Q 42.578125 51.265625 45.40625 46.390625 
z
M 14.796875 27.296875 
Q 14.796875 17.390625 18.875 11.75 
Q 22.953125 6.109375 30.078125 6.109375 
Q 37.203125 6.109375 41.296875 11.75 
Q 45.40625 17.390625 45.40625 27.296875 
Q 45.40625 37.203125 41.296875 42.84375 
Q 37.203125 48.484375 30.078125 48.484375 
Q 22.953125 48.484375 18.875 42.84375 
Q 14.796875 37.203125 14.796875 27.296875 
z
" id="DejaVuSans-100"/>
     </defs>
     <g transform="translate(153.592969 332.636562)scale(0.1 -0.1)">
      <use xlink:href="#DejaVuSans-65"/>
      <use x="62.533203" xlink:href="#DejaVuSans-118"/>
      <use x="121.712891" xlink:href="#DejaVuSans-101"/>
      <use x="183.236328" xlink:href="#DejaVuSans-114"/>
      <use x="224.349609" xlink:href="#DejaVuSans-97"/>
      <use x="285.628906" xlink:href="#DejaVuSans-103"/>
      <use x="349.105469" xlink:href="#DejaVuSans-101"/>
      <use x="410.628906" xlink:href="#DejaVuSans-32"/>
      <use x="442.416016" xlink:href="#DejaVuSans-111"/>
      <use x="503.597656" xlink:href="#DejaVuSans-102"/>
      <use x="538.802734" xlink:href="#DejaVuSans-32"/>
      <use x="570.589844" xlink:href="#DejaVuSans-80"/>
      <use x="627.267578" xlink:href="#DejaVuSans-101"/>
      <use x="688.791016" xlink:href="#DejaVuSans-114"/>
      <use x="729.904297" xlink:href="#DejaVuSans-32"/>
      <use x="761.691406" xlink:href="#DejaVuSans-55"/>
      <use x="825.314453" xlink:href="#DejaVuSans-53"/>
      <use x="888.9375" xlink:href="#DejaVuSans-48"/>
      <use x="952.560547" xlink:href="#DejaVuSans-48"/>
      <use x="1016.183594" xlink:href="#DejaVuSans-46"/>
      <use x="1047.970703" xlink:href="#DejaVuSans-48"/>
      <use x="1111.59375" xlink:href="#DejaVuSans-32"/>
      <use x="1143.380859" xlink:href="#DejaVuSans-69"/>
      <use x="1206.564453" xlink:href="#DejaVuSans-112"/>
      <use x="1270.041016" xlink:href="#DejaVuSans-105"/>
      <use x="1297.824219" xlink:href="#DejaVuSans-115"/>
      <use x="1349.923828" xlink:href="#DejaVuSans-111"/>
      <use x="1411.105469" xlink:href="#DejaVuSans-100"/>
      <use x="1474.582031" xlink:href="#DejaVuSans-101"/>
     </g>
    </g>
   </g>
   <g id="matplotlib.axis_2">
    <g id="ytick_1">
     <g id="line2d_8">
      <defs>
       <path d="M 0 0 
L -3.5 0 
" id="m93d8335c57" style="stroke:#000000;stroke-width:0.8;"/>
      </defs>
      <g>
       <use style="stroke:#000000;stroke-width:0.8;" x="50.6" xlink:href="#m93d8335c57" y="291.142964"/>
      </g>
     </g>
     <g id="text_9">
      <!-- 0 -->
      <g style="fill:#ff0000;" transform="translate(37.2375 294.942183)scale(0.1 -0.1)">
       <use xlink:href="#DejaVuSans-48"/>
      </g>
     </g>
    </g>
    <g id="ytick_2">
     <g id="line2d_9">
      <g>
       <use style="stroke:#000000;stroke-width:0.8;" x="50.6" xlink:href="#m93d8335c57" y="247.124921"/>
      </g>
     </g>
     <g id="text_10">
      <!-- 50 -->
      <g style="fill:#ff0000;" transform="translate(30.875 250.924139)scale(0.1 -0.1)">
       <use xlink:href="#DejaVuSans-53"/>
       <use x="63.623047" xlink:href="#DejaVuSans-48"/>
      </g>
     </g>
    </g>
    <g id="ytick_3">
     <g id="line2d_10">
      <g>
       <use style="stroke:#000000;stroke-width:0.8;" x="50.6" xlink:href="#m93d8335c57" y="203.106877"/>
      </g>
     </g>
     <g id="text_11">
      <!-- 100 -->
      <g style="fill:#ff0000;" transform="translate(24.5125 206.906096)scale(0.1 -0.1)">
       <use xlink:href="#DejaVuSans-49"/>
       <use x="63.623047" xlink:href="#DejaVuSans-48"/>
       <use x="127.246094" xlink:href="#DejaVuSans-48"/>
      </g>
     </g>
    </g>
    <g id="ytick_4">
     <g id="line2d_11">
      <g>
       <use style="stroke:#000000;stroke-width:0.8;" x="50.6" xlink:href="#m93d8335c57" y="159.088833"/>
      </g>
     </g>
     <g id="text_12">
      <!-- 150 -->
      <g style="fill:#ff0000;" transform="translate(24.5125 162.888052)scale(0.1 -0.1)">
       <use xlink:href="#DejaVuSans-49"/>
       <use x="63.623047" xlink:href="#DejaVuSans-53"/>
       <use x="127.246094" xlink:href="#DejaVuSans-48"/>
      </g>
     </g>
    </g>
    <g id="ytick_5">
     <g id="line2d_12">
      <g>
       <use style="stroke:#000000;stroke-width:0.8;" x="50.6" xlink:href="#m93d8335c57" y="115.07079"/>
      </g>
     </g>
     <g id="text_13">
      <!-- 200 -->
      <g style="fill:#ff0000;" transform="translate(24.5125 118.870009)scale(0.1 -0.1)">
       <use xlink:href="#DejaVuSans-50"/>
       <use x="63.623047" xlink:href="#DejaVuSans-48"/>
       <use x="127.246094" xlink:href="#DejaVuSans-48"/>
      </g>
     </g>
    </g>
    <g id="ytick_6">
     <g id="line2d_13">
      <g>
       <use style="stroke:#000000;stroke-width:0.8;" x="50.6" xlink:href="#m93d8335c57" y="71.052746"/>
      </g>
     </g>
     <g id="text_14">
      <!-- 250 -->
      <g style="fill:#ff0000;" transform="translate(24.5125 74.851965)scale(0.1 -0.1)">
       <use xlink:href="#DejaVuSans-50"/>
       <use x="63.623047" xlink:href="#DejaVuSans-53"/>
       <use x="127.246094" xlink:href="#DejaVuSans-48"/>
      </g>
     </g>
    </g>
    <g id="ytick_7">
     <g id="line2d_14">
      <g>
       <use style="stroke:#000000;stroke-width:0.8;" x="50.6" xlink:href="#m93d8335c57" y="27.034703"/>
      </g>
     </g>
     <g id="text_15">
      <!-- 300 -->
      <g style="fill:#ff0000;" transform="translate(24.5125 30.833921)scale(0.1 -0.1)">
       <use xlink:href="#DejaVuSans-51"/>
       <use x="63.623047" xlink:href="#DejaVuSans-48"/>
       <use x="127.246094" xlink:href="#DejaVuSans-48"/>
      </g>
     </g>
    </g>
    <g id="text_16">
     <!-- Model Price -->
     <defs>
      <path d="M 9.8125 72.90625 
L 24.515625 72.90625 
L 43.109375 23.296875 
L 61.8125 72.90625 
L 76.515625 72.90625 
L 76.515625 0 
L 66.890625 0 
L 66.890625 64.015625 
L 48.09375 14.015625 
L 38.1875 14.015625 
L 19.390625 64.015625 
L 19.390625 0 
L 9.8125 0 
z
" id="DejaVuSans-77"/>
      <path d="M 9.421875 75.984375 
L 18.40625 75.984375 
L 18.40625 0 
L 9.421875 0 
z
" id="DejaVuSans-108"/>
      <path d="M 48.78125 52.59375 
L 48.78125 44.1875 
Q 44.96875 46.296875 41.140625 47.34375 
Q 37.3125 48.390625 33.40625 48.390625 
Q 24.65625 48.390625 19.8125 42.84375 
Q 14.984375 37.3125 14.984375 27.296875 
Q 14.984375 17.28125 19.8125 11.734375 
Q 24.65625 6.203125 33.40625 6.203125 
Q 37.3125 6.203125 41.140625 7.25 
Q 44.96875 8.296875 48.78125 10.40625 
L 48.78125 2.09375 
Q 45.015625 0.34375 40.984375 -0.53125 
Q 36.96875 -1.421875 32.421875 -1.421875 
Q 20.0625 -1.421875 12.78125 6.34375 
Q 5.515625 14.109375 5.515625 27.296875 
Q 5.515625 40.671875 12.859375 48.328125 
Q 20.21875 56 33.015625 56 
Q 37.15625 56 41.109375 55.140625 
Q 45.0625 54.296875 48.78125 52.59375 
z
" id="DejaVuSans-99"/>
     </defs>
     <g style="fill:#ff0000;" transform="translate(18.432813 186.38)rotate(-90)scale(0.1 -0.1)">
      <use xlink:href="#DejaVuSans-77"/>
      <use x="86.279297" xlink:href="#DejaVuSans-111"/>
      <use x="147.460938" xlink:href="#DejaVuSans-100"/>
      <use x="210.9375" xlink:href="#DejaVuSans-101"/>
      <use x="272.460938" xlink:href="#DejaVuSans-108"/>
      <use x="300.244141" xlink:href="#DejaVuSans-32"/>
      <use x="332.03125" xlink:href="#DejaVuSans-80"/>
      <use x="390.583984" xlink:href="#DejaVuSans-114"/>
      <use x="431.697266" xlink:href="#DejaVuSans-105"/>
      <use x="459.480469" xlink:href="#DejaVuSans-99"/>
      <use x="514.460938" xlink:href="#DejaVuSans-101"/>
     </g>
    </g>
   </g>
   <g id="line2d_15">
    <path clip-path="url(#p55639598eb)" d="M 66.945455 291.016364 
L 68.038796 32.111947 
L 69.132137 65.642644 
L 70.225479 142.150809 
L 71.31882 106.517762 
L 72.412162 58.092959 
L 74.598845 122.101499 
L 75.692186 168.96877 
L 76.785528 112.11245 
L 77.878869 83.375167 
L 78.97221 102.333658 
L 80.065552 101.139497 
L 81.158893 24.40448 
L 82.252235 102.57318 
L 83.345576 58.963925 
L 84.438918 53.007916 
L 85.532259 85.459262 
L 86.6256 178.955305 
L 87.718942 82.742372 
L 88.812283 62.618519 
L 89.905625 148.030273 
L 90.998966 95.159136 
L 92.092308 153.61735 
L 93.185649 62.293791 
L 95.372332 186.036158 
L 96.465673 77.677391 
L 97.559015 29.507409 
L 98.652356 112.45189 
L 99.745698 88.014458 
L 100.839039 119.925453 
L 101.932381 120.785075 
L 103.025722 126.437221 
L 104.119064 100.935367 
L 105.212405 80.7475 
L 106.305746 72.962163 
L 107.399088 144.675032 
L 108.492429 87.230418 
L 109.585771 123.150133 
L 110.679112 154.183741 
L 111.772454 128.326283 
L 112.865795 83.959078 
L 113.959137 180.237414 
L 115.052478 163.273808 
L 116.145819 154.477462 
L 117.239161 114.006238 
L 118.332502 61.023259 
L 119.425844 42.526224 
L 120.519185 104.553657 
L 121.612527 93.700726 
L 122.705868 80.572071 
L 123.799209 44.15308 
L 124.892551 127.263152 
L 127.079234 66.120748 
L 128.172575 124.454227 
L 129.265917 91.17375 
L 130.359258 129.146229 
L 131.4526 157.552659 
L 132.545941 50.270995 
L 133.639282 112.747512 
L 134.732624 59.9082 
L 135.825965 85.642233 
L 136.919307 91.992036 
L 138.012648 51.728155 
L 139.10599 121.474429 
L 140.199331 88.434993 
L 141.292673 96.736629 
L 142.386014 132.136306 
L 143.479355 86.243374 
L 144.572697 75.495472 
L 145.666038 129.879408 
L 146.75938 121.837267 
L 147.852721 166.196752 
L 148.946063 90.191055 
L 150.039404 148.464402 
L 151.132746 145.759446 
L 152.226087 137.704959 
L 153.319428 169.554301 
L 154.41277 126.736046 
L 155.506111 100.360995 
L 156.599453 139.296952 
L 157.692794 63.772499 
L 158.786136 141.398547 
L 159.879477 133.34788 
L 160.972818 86.222304 
L 162.06616 70.023976 
L 163.159501 108.800646 
L 164.252843 118.903836 
L 165.346184 120.706648 
L 166.439526 107.264477 
L 167.532867 106.387888 
L 168.626209 119.18892 
L 169.71955 63.029808 
L 170.812891 131.26022 
L 171.906233 87.192497 
L 172.999574 111.749898 
L 174.092916 154.260432 
L 175.186257 135.396386 
L 176.279599 144.200176 
L 177.37294 93.304234 
L 178.466282 116.330801 
L 179.559623 120.348427 
L 180.652964 138.723778 
L 181.746306 110.932112 
L 182.839647 100.682496 
L 183.932989 116.054878 
L 185.02633 99.23785 
L 186.119672 73.462588 
L 187.213013 114.704119 
L 188.306355 110.313261 
L 189.399696 140.83136 
L 190.493037 139.500425 
L 191.586379 138.622546 
L 192.67972 143.432013 
L 193.773062 133.479352 
L 194.866403 153.572236 
L 195.959745 84.404027 
L 197.053086 80.469119 
L 198.146427 64.759136 
L 199.239769 135.318433 
L 200.33311 124.279301 
L 201.426452 79.931629 
L 202.519793 123.640439 
L 203.613135 62.379746 
L 204.706476 96.300047 
L 205.799818 119.282631 
L 206.893159 138.405178 
L 207.9865 135.144224 
L 209.079842 132.922192 
L 210.173183 95.053348 
L 211.266525 133.27371 
L 212.359866 130.717756 
L 213.453208 123.307043 
L 214.546549 78.903659 
L 215.639891 111.621564 
L 216.733232 79.112263 
L 217.826573 102.305314 
L 218.919915 117.947869 
L 220.013256 91.05051 
L 221.106598 132.034841 
L 222.199939 166.166231 
L 223.293281 144.715068 
L 224.386622 111.963477 
L 225.479964 117.613442 
L 226.573305 120.407378 
L 227.666646 116.855404 
L 228.759988 67.81246 
L 229.853329 161.100578 
L 230.946671 163.783722 
L 232.040012 99.332269 
L 233.133354 120.90674 
L 234.226695 132.031089 
L 235.320036 103.468171 
L 236.413378 151.13147 
L 237.506719 147.966542 
L 238.600061 85.324673 
L 239.693402 136.246622 
L 240.786744 145.178183 
L 241.880085 158.054606 
L 242.973427 114.410901 
L 244.066768 92.377079 
L 245.160109 134.90897 
L 246.253451 124.50961 
L 247.346792 122.877104 
L 248.440134 114.897706 
L 249.533475 90.318365 
L 250.626817 78.416539 
L 251.720158 161.788817 
L 252.8135 127.81408 
L 253.906841 116.36642 
L 255.000182 43.432407 
L 256.093524 112.526651 
L 257.186865 142.347276 
L 258.280207 24.143636 
L 259.373548 70.493962 
L 260.46689 102.478473 
L 261.560231 95.849386 
L 262.653573 99.930469 
L 263.746914 143.084679 
L 264.840255 136.969105 
L 265.933597 100.398893 
L 267.026938 176.717532 
L 268.12028 138.581271 
L 269.213621 115.270081 
L 270.306963 87.777588 
L 271.400304 135.12875 
L 273.586987 106.73211 
L 274.680328 164.568139 
L 275.77367 122.067155 
L 276.867011 122.438802 
L 277.960353 105.606172 
L 279.053694 95.200151 
L 280.147036 78.995247 
L 281.240377 58.730903 
L 282.333718 98.083621 
L 284.520401 164.723233 
L 285.613743 121.992824 
L 286.707084 114.748817 
L 287.800426 117.984185 
L 288.893767 86.069856 
L 289.987109 90.941639 
L 291.08045 171.154045 
L 292.173791 138.959659 
L 293.267133 87.111731 
L 294.360474 66.77029 
L 295.453816 109.241011 
L 296.547157 116.889457 
L 297.640499 95.221251 
L 298.73384 111.718563 
L 299.827182 147.040946 
L 300.920523 106.707047 
L 302.013864 81.17834 
L 303.107206 51.936718 
L 304.200547 131.585877 
L 305.293889 112.977143 
L 306.38723 64.686776 
L 307.480572 124.977967 
L 308.573913 106.942595 
L 309.667254 129.672271 
L 310.760596 149.420409 
L 311.853937 136.257425 
L 312.947279 134.044498 
L 314.04062 104.861046 
L 315.133962 61.81659 
L 316.227303 42.788961 
L 317.320645 115.858422 
L 318.413986 83.964322 
L 319.507327 118.203607 
L 320.600669 65.289326 
L 321.69401 28.738885 
L 322.787352 75.055817 
L 323.880693 81.747701 
L 324.974035 167.301276 
L 326.067376 123.527193 
L 327.160718 154.569761 
L 328.254059 153.015665 
L 329.3474 128.719117 
L 330.440742 92.105152 
L 331.534083 73.764912 
L 332.627425 114.07673 
L 333.720766 107.733231 
L 334.814108 75.249624 
L 335.907449 121.396744 
L 337.000791 76.07939 
L 339.187473 128.110253 
L 340.280815 148.799631 
L 341.374156 140.747161 
L 342.467498 62.981066 
L 343.560839 39.971293 
L 344.654181 61.569401 
L 345.747522 72.344766 
L 346.840863 113.211908 
L 347.934205 108.811068 
L 349.027546 118.621628 
L 350.120888 113.182376 
L 351.214229 109.335977 
L 352.307571 107.326818 
L 353.400912 100.008544 
L 354.494254 61.959549 
L 355.587595 104.739836 
L 356.680936 124.078409 
L 357.774278 162.291143 
L 358.867619 91.007185 
L 359.960961 34.542165 
L 361.054302 55.430996 
L 362.147644 133.114835 
L 363.240985 132.068129 
L 364.334327 130.237505 
L 365.427668 128.064089 
L 366.521009 138.200201 
L 367.614351 131.141686 
L 368.707692 143.30243 
L 369.801034 149.660967 
L 370.894375 146.964749 
L 371.987717 125.92482 
L 373.081058 32.023853 
L 374.1744 65.517269 
L 375.267741 163.631068 
L 376.361082 153.644019 
L 377.454424 124.163284 
L 378.547765 151.071848 
L 379.641107 131.558766 
L 380.734448 104.475289 
L 381.82779 93.726128 
L 382.921131 158.126809 
L 384.014472 146.821916 
L 385.107814 152.386648 
L 386.201155 63.938422 
L 387.294497 97.460089 
L 388.387838 170.103384 
L 389.48118 151.72863 
L 390.574521 151.628851 
L 391.667863 141.605223 
L 392.761204 109.313777 
L 393.854545 112.88119 
L 393.854545 112.88119 
" style="fill:none;stroke:#ff0000;stroke-linecap:square;stroke-width:1.5;"/>
   </g>
   <g id="patch_3">
    <path d="M 50.6 304.36 
L 50.6 10.8 
" style="fill:none;stroke:#000000;stroke-linecap:square;stroke-linejoin:miter;stroke-width:0.8;"/>
   </g>
   <g id="patch_4">
    <path d="M 410.2 304.36 
L 410.2 10.8 
" style="fill:none;stroke:#000000;stroke-linecap:square;stroke-linejoin:miter;stroke-width:0.8;"/>
   </g>
   <g id="patch_5">
    <path d="M 50.6 304.36 
L 410.2 304.36 
" style="fill:none;stroke:#000000;stroke-linecap:square;stroke-linejoin:miter;stroke-width:0.8;"/>
   </g>
   <g id="patch_6">
    <path d="M 50.6 10.8 
L 410.2 10.8 
" style="fill:none;stroke:#000000;stroke-linecap:square;stroke-linejoin:miter;stroke-width:0.8;"/>
   </g>
  </g>
  <g id="axes_2">
   <g id="matplotlib.axis_3">
    <g id="ytick_8">
     <g id="line2d_16">
      <defs>
       <path d="M 0 0 
L 3.5 0 
" id="m41f4f5bb1b" style="stroke:#000000;stroke-width:0.8;"/>
      </defs>
      <g>
       <use style="stroke:#000000;stroke-width:0.8;" x="410.2" xlink:href="#m41f4f5bb1b" y="291.095887"/>
      </g>
     </g>
     <g id="text_17">
      <!-- 0 -->
      <g style="fill:#0000ff;" transform="translate(417.2 294.895105)scale(0.1 -0.1)">
       <use xlink:href="#DejaVuSans-48"/>
      </g>
     </g>
    </g>
    <g id="ytick_9">
     <g id="line2d_17">
      <g>
       <use style="stroke:#000000;stroke-width:0.8;" x="410.2" xlink:href="#m41f4f5bb1b" y="258.221681"/>
      </g>
     </g>
     <g id="text_18">
      <!-- 50 -->
      <g style="fill:#0000ff;" transform="translate(417.2 262.0209)scale(0.1 -0.1)">
       <use xlink:href="#DejaVuSans-53"/>
       <use x="63.623047" xlink:href="#DejaVuSans-48"/>
      </g>
     </g>
    </g>
    <g id="ytick_10">
     <g id="line2d_18">
      <g>
       <use style="stroke:#000000;stroke-width:0.8;" x="410.2" xlink:href="#m41f4f5bb1b" y="225.347475"/>
      </g>
     </g>
     <g id="text_19">
      <!-- 100 -->
      <g style="fill:#0000ff;" transform="translate(417.2 229.146694)scale(0.1 -0.1)">
       <use xlink:href="#DejaVuSans-49"/>
       <use x="63.623047" xlink:href="#DejaVuSans-48"/>
       <use x="127.246094" xlink:href="#DejaVuSans-48"/>
      </g>
     </g>
    </g>
    <g id="ytick_11">
     <g id="line2d_19">
      <g>
       <use style="stroke:#000000;stroke-width:0.8;" x="410.2" xlink:href="#m41f4f5bb1b" y="192.47327"/>
      </g>
     </g>
     <g id="text_20">
      <!-- 150 -->
      <g style="fill:#0000ff;" transform="translate(417.2 196.272489)scale(0.1 -0.1)">
       <use xlink:href="#DejaVuSans-49"/>
       <use x="63.623047" xlink:href="#DejaVuSans-53"/>
       <use x="127.246094" xlink:href="#DejaVuSans-48"/>
      </g>
     </g>
    </g>
    <g id="ytick_12">
     <g id="line2d_20">
      <g>
       <use style="stroke:#000000;stroke-width:0.8;" x="410.2" xlink:href="#m41f4f5bb1b" y="159.599064"/>
      </g>
     </g>
     <g id="text_21">
      <!-- 200 -->
      <g style="fill:#0000ff;" transform="translate(417.2 163.398283)scale(0.1 -0.1)">
       <use xlink:href="#DejaVuSans-50"/>
       <use x="63.623047" xlink:href="#DejaVuSans-48"/>
       <use x="127.246094" xlink:href="#DejaVuSans-48"/>
      </g>
     </g>
    </g>
    <g id="ytick_13">
     <g id="line2d_21">
      <g>
       <use style="stroke:#000000;stroke-width:0.8;" x="410.2" xlink:href="#m41f4f5bb1b" y="126.724859"/>
      </g>
     </g>
     <g id="text_22">
      <!-- 250 -->
      <g style="fill:#0000ff;" transform="translate(417.2 130.524077)scale(0.1 -0.1)">
       <use xlink:href="#DejaVuSans-50"/>
       <use x="63.623047" xlink:href="#DejaVuSans-53"/>
       <use x="127.246094" xlink:href="#DejaVuSans-48"/>
      </g>
     </g>
    </g>
    <g id="ytick_14">
     <g id="line2d_22">
      <g>
       <use style="stroke:#000000;stroke-width:0.8;" x="410.2" xlink:href="#m41f4f5bb1b" y="93.850653"/>
      </g>
     </g>
     <g id="text_23">
      <!-- 300 -->
      <g style="fill:#0000ff;" transform="translate(417.2 97.649872)scale(0.1 -0.1)">
       <use xlink:href="#DejaVuSans-51"/>
       <use x="63.623047" xlink:href="#DejaVuSans-48"/>
       <use x="127.246094" xlink:href="#DejaVuSans-48"/>
      </g>
     </g>
    </g>
    <g id="ytick_15">
     <g id="line2d_23">
      <g>
       <use style="stroke:#000000;stroke-width:0.8;" x="410.2" xlink:href="#m41f4f5bb1b" y="60.976448"/>
      </g>
     </g>
     <g id="text_24">
      <!-- 350 -->
      <g style="fill:#0000ff;" transform="translate(417.2 64.775666)scale(0.1 -0.1)">
       <use xlink:href="#DejaVuSans-51"/>
       <use x="63.623047" xlink:href="#DejaVuSans-53"/>
       <use x="127.246094" xlink:href="#DejaVuSans-48"/>
      </g>
     </g>
    </g>
    <g id="ytick_16">
     <g id="line2d_24">
      <g>
       <use style="stroke:#000000;stroke-width:0.8;" x="410.2" xlink:href="#m41f4f5bb1b" y="28.102242"/>
      </g>
     </g>
     <g id="text_25">
      <!-- 400 -->
      <defs>
       <path d="M 37.796875 64.3125 
L 12.890625 25.390625 
L 37.796875 25.390625 
z
M 35.203125 72.90625 
L 47.609375 72.90625 
L 47.609375 25.390625 
L 58.015625 25.390625 
L 58.015625 17.1875 
L 47.609375 17.1875 
L 47.609375 0 
L 37.796875 0 
L 37.796875 17.1875 
L 4.890625 17.1875 
L 4.890625 26.703125 
z
" id="DejaVuSans-52"/>
      </defs>
      <g style="fill:#0000ff;" transform="translate(417.2 31.901461)scale(0.1 -0.1)">
       <use xlink:href="#DejaVuSans-52"/>
       <use x="63.623047" xlink:href="#DejaVuSans-48"/>
       <use x="127.246094" xlink:href="#DejaVuSans-48"/>
      </g>
     </g>
    </g>
    <g id="text_26">
     <!-- Demand-Supply -->
     <defs>
      <path d="M 19.671875 64.796875 
L 19.671875 8.109375 
L 31.59375 8.109375 
Q 46.6875 8.109375 53.6875 14.9375 
Q 60.6875 21.78125 60.6875 36.53125 
Q 60.6875 51.171875 53.6875 57.984375 
Q 46.6875 64.796875 31.59375 64.796875 
z
M 9.8125 72.90625 
L 30.078125 72.90625 
Q 51.265625 72.90625 61.171875 64.09375 
Q 71.09375 55.28125 71.09375 36.53125 
Q 71.09375 17.671875 61.125 8.828125 
Q 51.171875 0 30.078125 0 
L 9.8125 0 
z
" id="DejaVuSans-68"/>
      <path d="M 52 44.1875 
Q 55.375 50.25 60.0625 53.125 
Q 64.75 56 71.09375 56 
Q 79.640625 56 84.28125 50.015625 
Q 88.921875 44.046875 88.921875 33.015625 
L 88.921875 0 
L 79.890625 0 
L 79.890625 32.71875 
Q 79.890625 40.578125 77.09375 44.375 
Q 74.3125 48.1875 68.609375 48.1875 
Q 61.625 48.1875 57.5625 43.546875 
Q 53.515625 38.921875 53.515625 30.90625 
L 53.515625 0 
L 44.484375 0 
L 44.484375 32.71875 
Q 44.484375 40.625 41.703125 44.40625 
Q 38.921875 48.1875 33.109375 48.1875 
Q 26.21875 48.1875 22.15625 43.53125 
Q 18.109375 38.875 18.109375 30.90625 
L 18.109375 0 
L 9.078125 0 
L 9.078125 54.6875 
L 18.109375 54.6875 
L 18.109375 46.1875 
Q 21.1875 51.21875 25.484375 53.609375 
Q 29.78125 56 35.6875 56 
Q 41.65625 56 45.828125 52.96875 
Q 50 49.953125 52 44.1875 
z
" id="DejaVuSans-109"/>
      <path d="M 54.890625 33.015625 
L 54.890625 0 
L 45.90625 0 
L 45.90625 32.71875 
Q 45.90625 40.484375 42.875 44.328125 
Q 39.84375 48.1875 33.796875 48.1875 
Q 26.515625 48.1875 22.3125 43.546875 
Q 18.109375 38.921875 18.109375 30.90625 
L 18.109375 0 
L 9.078125 0 
L 9.078125 54.6875 
L 18.109375 54.6875 
L 18.109375 46.1875 
Q 21.34375 51.125 25.703125 53.5625 
Q 30.078125 56 35.796875 56 
Q 45.21875 56 50.046875 50.171875 
Q 54.890625 44.34375 54.890625 33.015625 
z
" id="DejaVuSans-110"/>
      <path d="M 4.890625 31.390625 
L 31.203125 31.390625 
L 31.203125 23.390625 
L 4.890625 23.390625 
z
" id="DejaVuSans-45"/>
      <path d="M 53.515625 70.515625 
L 53.515625 60.890625 
Q 47.90625 63.578125 42.921875 64.890625 
Q 37.9375 66.21875 33.296875 66.21875 
Q 25.25 66.21875 20.875 63.09375 
Q 16.5 59.96875 16.5 54.203125 
Q 16.5 49.359375 19.40625 46.890625 
Q 22.3125 44.4375 30.421875 42.921875 
L 36.375 41.703125 
Q 47.40625 39.59375 52.65625 34.296875 
Q 57.90625 29 57.90625 20.125 
Q 57.90625 9.515625 50.796875 4.046875 
Q 43.703125 -1.421875 29.984375 -1.421875 
Q 24.8125 -1.421875 18.96875 -0.25 
Q 13.140625 0.921875 6.890625 3.21875 
L 6.890625 13.375 
Q 12.890625 10.015625 18.65625 8.296875 
Q 24.421875 6.59375 29.984375 6.59375 
Q 38.421875 6.59375 43.015625 9.90625 
Q 47.609375 13.234375 47.609375 19.390625 
Q 47.609375 24.75 44.3125 27.78125 
Q 41.015625 30.8125 33.5 32.328125 
L 27.484375 33.5 
Q 16.453125 35.6875 11.515625 40.375 
Q 6.59375 45.0625 6.59375 53.421875 
Q 6.59375 63.09375 13.40625 68.65625 
Q 20.21875 74.21875 32.171875 74.21875 
Q 37.3125 74.21875 42.625 73.28125 
Q 47.953125 72.359375 53.515625 70.515625 
z
" id="DejaVuSans-83"/>
      <path d="M 8.5 21.578125 
L 8.5 54.6875 
L 17.484375 54.6875 
L 17.484375 21.921875 
Q 17.484375 14.15625 20.5 10.265625 
Q 23.53125 6.390625 29.59375 6.390625 
Q 36.859375 6.390625 41.078125 11.03125 
Q 45.3125 15.671875 45.3125 23.6875 
L 45.3125 54.6875 
L 54.296875 54.6875 
L 54.296875 0 
L 45.3125 0 
L 45.3125 8.40625 
Q 42.046875 3.421875 37.71875 1 
Q 33.40625 -1.421875 27.6875 -1.421875 
Q 18.265625 -1.421875 13.375 4.4375 
Q 8.5 10.296875 8.5 21.578125 
z
M 31.109375 56 
z
" id="DejaVuSans-117"/>
      <path d="M 32.171875 -5.078125 
Q 28.375 -14.84375 24.75 -17.8125 
Q 21.140625 -20.796875 15.09375 -20.796875 
L 7.90625 -20.796875 
L 7.90625 -13.28125 
L 13.1875 -13.28125 
Q 16.890625 -13.28125 18.9375 -11.515625 
Q 21 -9.765625 23.484375 -3.21875 
L 25.09375 0.875 
L 2.984375 54.6875 
L 12.5 54.6875 
L 29.59375 11.921875 
L 46.6875 54.6875 
L 56.203125 54.6875 
z
" id="DejaVuSans-121"/>
     </defs>
     <g style="fill:#0000ff;" transform="translate(447.885938 197.627656)rotate(-90)scale(0.1 -0.1)">
      <use xlink:href="#DejaVuSans-68"/>
      <use x="77.001953" xlink:href="#DejaVuSans-101"/>
      <use x="138.525391" xlink:href="#DejaVuSans-109"/>
      <use x="235.9375" xlink:href="#DejaVuSans-97"/>
      <use x="297.216797" xlink:href="#DejaVuSans-110"/>
      <use x="360.595703" xlink:href="#DejaVuSans-100"/>
      <use x="424.072266" xlink:href="#DejaVuSans-45"/>
      <use x="460.15625" xlink:href="#DejaVuSans-83"/>
      <use x="523.632812" xlink:href="#DejaVuSans-117"/>
      <use x="587.011719" xlink:href="#DejaVuSans-112"/>
      <use x="650.488281" xlink:href="#DejaVuSans-112"/>
      <use x="713.964844" xlink:href="#DejaVuSans-108"/>
      <use x="741.748047" xlink:href="#DejaVuSans-121"/>
     </g>
    </g>
   </g>
   <g id="line2d_25">
    <path clip-path="url(#p55639598eb)" d="M 66.945455 291.016364 
L 68.038796 24.713796 
L 69.132137 29.130424 
L 70.225479 26.495197 
L 71.31882 25.56929 
L 72.412162 29.721931 
L 73.505503 27.303007 
L 74.598845 26.854479 
L 75.692186 28.601588 
L 76.785528 27.552502 
L 77.878869 28.305283 
L 78.97221 27.00101 
L 80.065552 27.346864 
L 82.252235 26.720383 
L 83.345576 26.85113 
L 84.438918 25.980901 
L 85.532259 25.619583 
L 86.6256 27.85544 
L 87.718942 27.501732 
L 88.812283 26.093976 
L 89.905625 26.201022 
L 90.998966 27.748 
L 92.092308 24.92875 
L 93.185649 27.787187 
L 94.278991 28.01604 
L 95.372332 26.971815 
L 96.465673 27.30067 
L 97.559015 28.316526 
L 98.652356 27.60436 
L 99.745698 29.141683 
L 100.839039 29.201424 
L 103.025722 26.672014 
L 104.119064 27.651049 
L 105.212405 27.836139 
L 106.305746 28.432359 
L 107.399088 26.447841 
L 108.492429 28.752409 
L 109.585771 27.717922 
L 110.679112 28.029337 
L 111.772454 26.636439 
L 112.865795 28.371758 
L 113.959137 28.347364 
L 115.052478 27.821603 
L 116.145819 26.324566 
L 117.239161 29.130877 
L 118.332502 27.298498 
L 119.425844 26.518369 
L 120.519185 28.35295 
L 121.612527 24.859871 
L 122.705868 27.276163 
L 123.799209 28.637057 
L 124.892551 28.63306 
L 125.985892 28.074586 
L 127.079234 28.226367 
L 128.172575 28.647996 
L 129.265917 26.74129 
L 130.359258 28.529533 
L 131.4526 26.008679 
L 132.545941 27.0673 
L 133.639282 26.006274 
L 134.732624 28.337152 
L 135.825965 26.052743 
L 136.919307 28.43492 
L 138.012648 27.567336 
L 139.10599 28.43012 
L 140.199331 28.22466 
L 141.292673 25.576005 
L 142.386014 26.730695 
L 143.479355 28.281852 
L 144.572697 27.615428 
L 145.666038 26.328868 
L 146.75938 29.138254 
L 147.852721 28.018155 
L 148.946063 25.380921 
L 150.039404 27.912145 
L 151.132746 27.031155 
L 152.226087 26.477048 
L 153.319428 27.474328 
L 154.41277 28.848124 
L 155.506111 28.535946 
L 156.599453 26.356529 
L 157.692794 27.977384 
L 158.786136 25.846771 
L 159.879477 27.813678 
L 160.972818 29.119804 
L 162.06616 27.510727 
L 163.159501 26.832876 
L 164.252843 28.427746 
L 165.346184 26.430876 
L 166.439526 27.7666 
L 168.626209 26.168162 
L 169.71955 27.283749 
L 170.812891 27.673097 
L 172.999574 27.755862 
L 174.092916 27.120519 
L 175.186257 27.23823 
L 176.279599 25.706795 
L 177.37294 28.058868 
L 178.466282 26.169406 
L 179.559623 26.648187 
L 180.652964 26.763924 
L 181.746306 25.048358 
L 182.839647 27.85448 
L 185.02633 27.0869 
L 186.119672 27.397532 
L 187.213013 25.99075 
L 188.306355 28.00096 
L 189.399696 28.714306 
L 190.493037 27.260681 
L 191.586379 27.701905 
L 192.67972 28.442513 
L 193.773062 27.088756 
L 194.866403 25.508057 
L 195.959745 27.601932 
L 197.053086 27.633749 
L 198.146427 26.654498 
L 199.239769 26.917092 
L 200.33311 28.776403 
L 201.426452 27.908446 
L 203.613135 28.852978 
L 204.706476 26.600528 
L 205.799818 27.151198 
L 206.893159 28.158345 
L 207.9865 24.143636 
L 209.079842 29.812864 
L 210.173183 27.244233 
L 211.266525 29.080415 
L 212.359866 26.045187 
L 213.453208 26.345965 
L 214.546549 27.72824 
L 215.639891 28.224208 
L 216.733232 27.242319 
L 217.826573 28.323169 
L 218.919915 26.421488 
L 220.013256 25.888975 
L 221.106598 30.074178 
L 222.199939 27.333282 
L 223.293281 28.074214 
L 224.386622 26.124366 
L 225.479964 26.661917 
L 226.573305 26.301503 
L 227.666646 29.05407 
L 228.759988 28.029438 
L 229.853329 26.661769 
L 230.946671 26.571331 
L 232.040012 27.599149 
L 233.133354 28.075143 
L 234.226695 26.921552 
L 235.320036 28.642786 
L 236.413378 25.504759 
L 237.506719 27.307959 
L 238.600061 28.491839 
L 239.693402 27.613331 
L 240.786744 25.825843 
L 241.880085 28.599399 
L 242.973427 25.616819 
L 244.066768 27.309171 
L 245.160109 27.838697 
L 246.253451 25.309011 
L 247.346792 27.993483 
L 248.440134 28.610038 
L 249.533475 27.753879 
L 250.626817 28.981683 
L 251.720158 28.730487 
L 252.8135 26.563715 
L 253.906841 27.55422 
L 255.000182 27.886184 
L 256.093524 27.57414 
L 257.186865 28.840398 
L 258.280207 28.084955 
L 259.373548 27.508973 
L 260.46689 26.426455 
L 261.560231 27.706979 
L 262.653573 28.1042 
L 263.746914 26.600146 
L 264.840255 25.979051 
L 265.933597 27.558528 
L 267.026938 27.658144 
L 269.213621 27.002413 
L 270.306963 27.509465 
L 271.400304 27.597879 
L 272.493645 28.415837 
L 273.586987 28.581324 
L 274.680328 27.209804 
L 275.77367 28.545047 
L 276.867011 25.537314 
L 277.960353 29.287984 
L 279.053694 27.213624 
L 280.147036 28.53864 
L 281.240377 27.471898 
L 282.333718 27.870003 
L 283.42706 27.238459 
L 284.520401 27.088568 
L 285.613743 25.584988 
L 286.707084 27.706378 
L 287.800426 25.359656 
L 288.893767 26.600972 
L 289.987109 28.560811 
L 291.08045 27.920536 
L 292.173791 29.058871 
L 293.267133 27.948732 
L 294.360474 25.425338 
L 295.453816 26.38106 
L 296.547157 26.041964 
L 297.640499 27.664369 
L 298.73384 28.520554 
L 299.827182 27.265653 
L 300.920523 27.372782 
L 302.013864 26.605887 
L 303.107206 26.915919 
L 304.200547 29.461369 
L 305.293889 27.609269 
L 306.38723 29.130664 
L 307.480572 27.488794 
L 308.573913 28.180581 
L 309.667254 27.601725 
L 310.760596 26.184908 
L 311.853937 28.867634 
L 312.947279 25.182106 
L 314.04062 26.608093 
L 315.133962 28.677343 
L 316.227303 29.138649 
L 317.320645 26.571999 
L 318.413986 28.680288 
L 319.507327 27.523128 
L 320.600669 28.950892 
L 321.69401 27.768792 
L 322.787352 28.573125 
L 323.880693 26.254908 
L 324.974035 26.234348 
L 327.160718 27.62616 
L 328.254059 28.425628 
L 329.3474 26.484682 
L 330.440742 27.310583 
L 332.627425 26.045363 
L 333.720766 26.403261 
L 334.814108 28.399451 
L 335.907449 27.558087 
L 337.000791 27.252842 
L 338.094132 28.24693 
L 339.187473 27.008316 
L 340.280815 27.674107 
L 341.374156 29.214202 
L 342.467498 26.966222 
L 343.560839 27.322401 
L 344.654181 26.120775 
L 345.747522 28.763165 
L 346.840863 29.555802 
L 347.934205 28.068851 
L 349.027546 27.824337 
L 350.120888 26.026027 
L 351.214229 26.536845 
L 352.307571 26.637672 
L 353.400912 27.79638 
L 354.494254 29.499769 
L 355.587595 24.93146 
L 356.680936 28.895888 
L 357.774278 26.798876 
L 358.867619 28.504528 
L 359.960961 27.686552 
L 361.054302 26.626545 
L 362.147644 27.019659 
L 363.240985 27.211752 
L 364.334327 28.726029 
L 365.427668 27.633794 
L 366.521009 26.36628 
L 368.707692 27.799987 
L 369.801034 24.747935 
L 370.894375 27.217828 
L 371.987717 28.995698 
L 373.081058 26.850854 
L 374.1744 27.228071 
L 375.267741 26.954605 
L 377.454424 27.665506 
L 378.547765 27.852413 
L 379.641107 27.617047 
L 380.734448 24.250645 
L 381.82779 26.71228 
L 382.921131 28.376811 
L 384.014472 28.795074 
L 385.107814 27.411672 
L 386.201155 26.43063 
L 387.294497 27.048518 
L 388.387838 25.948312 
L 389.48118 28.990833 
L 390.574521 28.547412 
L 391.667863 27.603274 
L 392.761204 28.029538 
L 393.854545 27.546143 
L 393.854545 27.546143 
" style="fill:none;stroke:#0000ff;stroke-linecap:square;stroke-width:1.5;"/>
   </g>
   <g id="patch_7">
    <path d="M 50.6 304.36 
L 50.6 10.8 
" style="fill:none;stroke:#000000;stroke-linecap:square;stroke-linejoin:miter;stroke-width:0.8;"/>
   </g>
   <g id="patch_8">
    <path d="M 410.2 304.36 
L 410.2 10.8 
" style="fill:none;stroke:#000000;stroke-linecap:square;stroke-linejoin:miter;stroke-width:0.8;"/>
   </g>
   <g id="patch_9">
    <path d="M 50.6 304.36 
L 410.2 304.36 
" style="fill:none;stroke:#000000;stroke-linecap:square;stroke-linejoin:miter;stroke-width:0.8;"/>
   </g>
   <g id="patch_10">
    <path d="M 50.6 10.8 
L 410.2 10.8 
" style="fill:none;stroke:#000000;stroke-linecap:square;stroke-linejoin:miter;stroke-width:0.8;"/>
   </g>
  </g>
 </g>
 <defs>
  <clipPath id="p55639598eb">
   <rect height="293.56" width="359.6" x="50.6" y="10.8"/>
  </clipPath>
 </defs>
</svg>
