<?xml version="1.0" encoding="utf-8" standalone="no"?>
<!DOCTYPE svg PUBLIC "-//W3C//DTD SVG 1.1//EN"
  "http://www.w3.org/Graphics/SVG/1.1/DTD/svg11.dtd">
<!-- Created with matplotlib (https://matplotlib.org/) -->
<svg height="345.6pt" version="1.1" viewBox="0 0 460.8 345.6" width="460.8pt" xmlns="http://www.w3.org/2000/svg" xmlns:xlink="http://www.w3.org/1999/xlink">
 <defs>
  <style type="text/css">
*{stroke-linecap:butt;stroke-linejoin:round;}
  </style>
 </defs>
 <g id="figure_1">
  <g id="patch_1">
   <path d="M 0 345.6 
L 460.8 345.6 
L 460.8 0 
L 0 0 
z
" style="fill:#ffffff;"/>
  </g>
  <g id="axes_1">
   <g id="patch_2">
    <path d="M 69.6125 304.36 
L 436.6325 304.36 
L 436.6325 21.36 
L 69.6125 21.36 
z
" style="fill:#ffffff;"/>
   </g>
   <g id="matplotlib.axis_1">
    <g id="xtick_1">
     <g id="line2d_1">
      <defs>
       <path d="M 0 0 
L 0 3.5 
" id="m18ae6732bf" style="stroke:#000000;stroke-width:0.8;"/>
      </defs>
      <g>
       <use style="stroke:#000000;stroke-width:0.8;" x="86.295227" xlink:href="#m18ae6732bf" y="304.36"/>
      </g>
     </g>
     <g id="text_1">
      <!-- 0 -->
      <defs>
       <path d="M 31.78125 66.40625 
Q 24.171875 66.40625 20.328125 58.90625 
Q 16.5 51.421875 16.5 36.375 
Q 16.5 21.390625 20.328125 13.890625 
Q 24.171875 6.390625 31.78125 6.390625 
Q 39.453125 6.390625 43.28125 13.890625 
Q 47.125 21.390625 47.125 36.375 
Q 47.125 51.421875 43.28125 58.90625 
Q 39.453125 66.40625 31.78125 66.40625 
z
M 31.78125 74.21875 
Q 44.046875 74.21875 50.515625 64.515625 
Q 56.984375 54.828125 56.984375 36.375 
Q 56.984375 17.96875 50.515625 8.265625 
Q 44.046875 -1.421875 31.78125 -1.421875 
Q 19.53125 -1.421875 13.0625 8.265625 
Q 6.59375 17.96875 6.59375 36.375 
Q 6.59375 54.828125 13.0625 64.515625 
Q 19.53125 74.21875 31.78125 74.21875 
z
" id="DejaVuSans-48"/>
      </defs>
      <g transform="translate(83.113977 318.958437)scale(0.1 -0.1)">
       <use xlink:href="#DejaVuSans-48"/>
      </g>
     </g>
    </g>
    <g id="xtick_2">
     <g id="line2d_2">
      <g>
       <use style="stroke:#000000;stroke-width:0.8;" x="142.090302" xlink:href="#m18ae6732bf" y="304.36"/>
      </g>
     </g>
     <g id="text_2">
      <!-- 50 -->
      <defs>
       <path d="M 10.796875 72.90625 
L 49.515625 72.90625 
L 49.515625 64.59375 
L 19.828125 64.59375 
L 19.828125 46.734375 
Q 21.96875 47.46875 24.109375 47.828125 
Q 26.265625 48.1875 28.421875 48.1875 
Q 40.625 48.1875 47.75 41.5 
Q 54.890625 34.8125 54.890625 23.390625 
Q 54.890625 11.625 47.5625 5.09375 
Q 40.234375 -1.421875 26.90625 -1.421875 
Q 22.3125 -1.421875 17.546875 -0.640625 
Q 12.796875 0.140625 7.71875 1.703125 
L 7.71875 11.625 
Q 12.109375 9.234375 16.796875 8.0625 
Q 21.484375 6.890625 26.703125 6.890625 
Q 35.15625 6.890625 40.078125 11.328125 
Q 45.015625 15.765625 45.015625 23.390625 
Q 45.015625 31 40.078125 35.4375 
Q 35.15625 39.890625 26.703125 39.890625 
Q 22.75 39.890625 18.8125 39.015625 
Q 14.890625 38.140625 10.796875 36.28125 
z
" id="DejaVuSans-53"/>
      </defs>
      <g transform="translate(135.727802 318.958437)scale(0.1 -0.1)">
       <use xlink:href="#DejaVuSans-53"/>
       <use x="63.623047" xlink:href="#DejaVuSans-48"/>
      </g>
     </g>
    </g>
    <g id="xtick_3">
     <g id="line2d_3">
      <g>
       <use style="stroke:#000000;stroke-width:0.8;" x="197.885376" xlink:href="#m18ae6732bf" y="304.36"/>
      </g>
     </g>
     <g id="text_3">
      <!-- 100 -->
      <defs>
       <path d="M 12.40625 8.296875 
L 28.515625 8.296875 
L 28.515625 63.921875 
L 10.984375 60.40625 
L 10.984375 69.390625 
L 28.421875 72.90625 
L 38.28125 72.90625 
L 38.28125 8.296875 
L 54.390625 8.296875 
L 54.390625 0 
L 12.40625 0 
z
" id="DejaVuSans-49"/>
      </defs>
      <g transform="translate(188.341626 318.958437)scale(0.1 -0.1)">
       <use xlink:href="#DejaVuSans-49"/>
       <use x="63.623047" xlink:href="#DejaVuSans-48"/>
       <use x="127.246094" xlink:href="#DejaVuSans-48"/>
      </g>
     </g>
    </g>
    <g id="xtick_4">
     <g id="line2d_4">
      <g>
       <use style="stroke:#000000;stroke-width:0.8;" x="253.680451" xlink:href="#m18ae6732bf" y="304.36"/>
      </g>
     </g>
     <g id="text_4">
      <!-- 150 -->
      <g transform="translate(244.136701 318.958437)scale(0.1 -0.1)">
       <use xlink:href="#DejaVuSans-49"/>
       <use x="63.623047" xlink:href="#DejaVuSans-53"/>
       <use x="127.246094" xlink:href="#DejaVuSans-48"/>
      </g>
     </g>
    </g>
    <g id="xtick_5">
     <g id="line2d_5">
      <g>
       <use style="stroke:#000000;stroke-width:0.8;" x="309.475525" xlink:href="#m18ae6732bf" y="304.36"/>
      </g>
     </g>
     <g id="text_5">
      <!-- 200 -->
      <defs>
       <path d="M 19.1875 8.296875 
L 53.609375 8.296875 
L 53.609375 0 
L 7.328125 0 
L 7.328125 8.296875 
Q 12.9375 14.109375 22.625 23.890625 
Q 32.328125 33.6875 34.8125 36.53125 
Q 39.546875 41.84375 41.421875 45.53125 
Q 43.3125 49.21875 43.3125 52.78125 
Q 43.3125 58.59375 39.234375 62.25 
Q 35.15625 65.921875 28.609375 65.921875 
Q 23.96875 65.921875 18.8125 64.3125 
Q 13.671875 62.703125 7.8125 59.421875 
L 7.8125 69.390625 
Q 13.765625 71.78125 18.9375 73 
Q 24.125 74.21875 28.421875 74.21875 
Q 39.75 74.21875 46.484375 68.546875 
Q 53.21875 62.890625 53.21875 53.421875 
Q 53.21875 48.921875 51.53125 44.890625 
Q 49.859375 40.875 45.40625 35.40625 
Q 44.1875 33.984375 37.640625 27.21875 
Q 31.109375 20.453125 19.1875 8.296875 
z
" id="DejaVuSans-50"/>
      </defs>
      <g transform="translate(299.931775 318.958437)scale(0.1 -0.1)">
       <use xlink:href="#DejaVuSans-50"/>
       <use x="63.623047" xlink:href="#DejaVuSans-48"/>
       <use x="127.246094" xlink:href="#DejaVuSans-48"/>
      </g>
     </g>
    </g>
    <g id="xtick_6">
     <g id="line2d_6">
      <g>
       <use style="stroke:#000000;stroke-width:0.8;" x="365.2706" xlink:href="#m18ae6732bf" y="304.36"/>
      </g>
     </g>
     <g id="text_6">
      <!-- 250 -->
      <g transform="translate(355.72685 318.958437)scale(0.1 -0.1)">
       <use xlink:href="#DejaVuSans-50"/>
       <use x="63.623047" xlink:href="#DejaVuSans-53"/>
       <use x="127.246094" xlink:href="#DejaVuSans-48"/>
      </g>
     </g>
    </g>
    <g id="xtick_7">
     <g id="line2d_7">
      <g>
       <use style="stroke:#000000;stroke-width:0.8;" x="421.065674" xlink:href="#m18ae6732bf" y="304.36"/>
      </g>
     </g>
     <g id="text_7">
      <!-- 300 -->
      <defs>
       <path d="M 40.578125 39.3125 
Q 47.65625 37.796875 51.625 33 
Q 55.609375 28.21875 55.609375 21.1875 
Q 55.609375 10.40625 48.1875 4.484375 
Q 40.765625 -1.421875 27.09375 -1.421875 
Q 22.515625 -1.421875 17.65625 -0.515625 
Q 12.796875 0.390625 7.625 2.203125 
L 7.625 11.71875 
Q 11.71875 9.328125 16.59375 8.109375 
Q 21.484375 6.890625 26.8125 6.890625 
Q 36.078125 6.890625 40.9375 10.546875 
Q 45.796875 14.203125 45.796875 21.1875 
Q 45.796875 27.640625 41.28125 31.265625 
Q 36.765625 34.90625 28.71875 34.90625 
L 20.21875 34.90625 
L 20.21875 43.015625 
L 29.109375 43.015625 
Q 36.375 43.015625 40.234375 45.921875 
Q 44.09375 48.828125 44.09375 54.296875 
Q 44.09375 59.90625 40.109375 62.90625 
Q 36.140625 65.921875 28.71875 65.921875 
Q 24.65625 65.921875 20.015625 65.03125 
Q 15.375 64.15625 9.8125 62.3125 
L 9.8125 71.09375 
Q 15.4375 72.65625 20.34375 73.4375 
Q 25.25 74.21875 29.59375 74.21875 
Q 40.828125 74.21875 47.359375 69.109375 
Q 53.90625 64.015625 53.90625 55.328125 
Q 53.90625 49.265625 50.4375 45.09375 
Q 46.96875 40.921875 40.578125 39.3125 
z
" id="DejaVuSans-51"/>
      </defs>
      <g transform="translate(411.521924 318.958437)scale(0.1 -0.1)">
       <use xlink:href="#DejaVuSans-51"/>
       <use x="63.623047" xlink:href="#DejaVuSans-48"/>
       <use x="127.246094" xlink:href="#DejaVuSans-48"/>
      </g>
     </g>
    </g>
    <g id="text_8">
     <!-- Average of Per 7500.0 Episode -->
     <defs>
      <path d="M 34.1875 63.1875 
L 20.796875 26.90625 
L 47.609375 26.90625 
z
M 28.609375 72.90625 
L 39.796875 72.90625 
L 67.578125 0 
L 57.328125 0 
L 50.6875 18.703125 
L 17.828125 18.703125 
L 11.1875 0 
L 0.78125 0 
z
" id="DejaVuSans-65"/>
      <path d="M 2.984375 54.6875 
L 12.5 54.6875 
L 29.59375 8.796875 
L 46.6875 54.6875 
L 56.203125 54.6875 
L 35.6875 0 
L 23.484375 0 
z
" id="DejaVuSans-118"/>
      <path d="M 56.203125 29.59375 
L 56.203125 25.203125 
L 14.890625 25.203125 
Q 15.484375 15.921875 20.484375 11.0625 
Q 25.484375 6.203125 34.421875 6.203125 
Q 39.59375 6.203125 44.453125 7.46875 
Q 49.3125 8.734375 54.109375 11.28125 
L 54.109375 2.78125 
Q 49.265625 0.734375 44.1875 -0.34375 
Q 39.109375 -1.421875 33.890625 -1.421875 
Q 20.796875 -1.421875 13.15625 6.1875 
Q 5.515625 13.8125 5.515625 26.8125 
Q 5.515625 40.234375 12.765625 48.109375 
Q 20.015625 56 32.328125 56 
Q 43.359375 56 49.78125 48.890625 
Q 56.203125 41.796875 56.203125 29.59375 
z
M 47.21875 32.234375 
Q 47.125 39.59375 43.09375 43.984375 
Q 39.0625 48.390625 32.421875 48.390625 
Q 24.90625 48.390625 20.390625 44.140625 
Q 15.875 39.890625 15.1875 32.171875 
z
" id="DejaVuSans-101"/>
      <path d="M 41.109375 46.296875 
Q 39.59375 47.171875 37.8125 47.578125 
Q 36.03125 48 33.890625 48 
Q 26.265625 48 22.1875 43.046875 
Q 18.109375 38.09375 18.109375 28.8125 
L 18.109375 0 
L 9.078125 0 
L 9.078125 54.6875 
L 18.109375 54.6875 
L 18.109375 46.1875 
Q 20.953125 51.171875 25.484375 53.578125 
Q 30.03125 56 36.53125 56 
Q 37.453125 56 38.578125 55.875 
Q 39.703125 55.765625 41.0625 55.515625 
z
" id="DejaVuSans-114"/>
      <path d="M 34.28125 27.484375 
Q 23.390625 27.484375 19.1875 25 
Q 14.984375 22.515625 14.984375 16.5 
Q 14.984375 11.71875 18.140625 8.90625 
Q 21.296875 6.109375 26.703125 6.109375 
Q 34.1875 6.109375 38.703125 11.40625 
Q 43.21875 16.703125 43.21875 25.484375 
L 43.21875 27.484375 
z
M 52.203125 31.203125 
L 52.203125 0 
L 43.21875 0 
L 43.21875 8.296875 
Q 40.140625 3.328125 35.546875 0.953125 
Q 30.953125 -1.421875 24.3125 -1.421875 
Q 15.921875 -1.421875 10.953125 3.296875 
Q 6 8.015625 6 15.921875 
Q 6 25.140625 12.171875 29.828125 
Q 18.359375 34.515625 30.609375 34.515625 
L 43.21875 34.515625 
L 43.21875 35.40625 
Q 43.21875 41.609375 39.140625 45 
Q 35.0625 48.390625 27.6875 48.390625 
Q 23 48.390625 18.546875 47.265625 
Q 14.109375 46.140625 10.015625 43.890625 
L 10.015625 52.203125 
Q 14.9375 54.109375 19.578125 55.046875 
Q 24.21875 56 28.609375 56 
Q 40.484375 56 46.34375 49.84375 
Q 52.203125 43.703125 52.203125 31.203125 
z
" id="DejaVuSans-97"/>
      <path d="M 45.40625 27.984375 
Q 45.40625 37.75 41.375 43.109375 
Q 37.359375 48.484375 30.078125 48.484375 
Q 22.859375 48.484375 18.828125 43.109375 
Q 14.796875 37.75 14.796875 27.984375 
Q 14.796875 18.265625 18.828125 12.890625 
Q 22.859375 7.515625 30.078125 7.515625 
Q 37.359375 7.515625 41.375 12.890625 
Q 45.40625 18.265625 45.40625 27.984375 
z
M 54.390625 6.78125 
Q 54.390625 -7.171875 48.1875 -13.984375 
Q 42 -20.796875 29.203125 -20.796875 
Q 24.46875 -20.796875 20.265625 -20.09375 
Q 16.0625 -19.390625 12.109375 -17.921875 
L 12.109375 -9.1875 
Q 16.0625 -11.328125 19.921875 -12.34375 
Q 23.78125 -13.375 27.78125 -13.375 
Q 36.625 -13.375 41.015625 -8.765625 
Q 45.40625 -4.15625 45.40625 5.171875 
L 45.40625 9.625 
Q 42.625 4.78125 38.28125 2.390625 
Q 33.9375 0 27.875 0 
Q 17.828125 0 11.671875 7.65625 
Q 5.515625 15.328125 5.515625 27.984375 
Q 5.515625 40.671875 11.671875 48.328125 
Q 17.828125 56 27.875 56 
Q 33.9375 56 38.28125 53.609375 
Q 42.625 51.21875 45.40625 46.390625 
L 45.40625 54.6875 
L 54.390625 54.6875 
z
" id="DejaVuSans-103"/>
      <path id="DejaVuSans-32"/>
      <path d="M 30.609375 48.390625 
Q 23.390625 48.390625 19.1875 42.75 
Q 14.984375 37.109375 14.984375 27.296875 
Q 14.984375 17.484375 19.15625 11.84375 
Q 23.34375 6.203125 30.609375 6.203125 
Q 37.796875 6.203125 41.984375 11.859375 
Q 46.1875 17.53125 46.1875 27.296875 
Q 46.1875 37.015625 41.984375 42.703125 
Q 37.796875 48.390625 30.609375 48.390625 
z
M 30.609375 56 
Q 42.328125 56 49.015625 48.375 
Q 55.71875 40.765625 55.71875 27.296875 
Q 55.71875 13.875 49.015625 6.21875 
Q 42.328125 -1.421875 30.609375 -1.421875 
Q 18.84375 -1.421875 12.171875 6.21875 
Q 5.515625 13.875 5.515625 27.296875 
Q 5.515625 40.765625 12.171875 48.375 
Q 18.84375 56 30.609375 56 
z
" id="DejaVuSans-111"/>
      <path d="M 37.109375 75.984375 
L 37.109375 68.5 
L 28.515625 68.5 
Q 23.6875 68.5 21.796875 66.546875 
Q 19.921875 64.59375 19.921875 59.515625 
L 19.921875 54.6875 
L 34.71875 54.6875 
L 34.71875 47.703125 
L 19.921875 47.703125 
L 19.921875 0 
L 10.890625 0 
L 10.890625 47.703125 
L 2.296875 47.703125 
L 2.296875 54.6875 
L 10.890625 54.6875 
L 10.890625 58.5 
Q 10.890625 67.625 15.140625 71.796875 
Q 19.390625 75.984375 28.609375 75.984375 
z
" id="DejaVuSans-102"/>
      <path d="M 19.671875 64.796875 
L 19.671875 37.40625 
L 32.078125 37.40625 
Q 38.96875 37.40625 42.71875 40.96875 
Q 46.484375 44.53125 46.484375 51.125 
Q 46.484375 57.671875 42.71875 61.234375 
Q 38.96875 64.796875 32.078125 64.796875 
z
M 9.8125 72.90625 
L 32.078125 72.90625 
Q 44.34375 72.90625 50.609375 67.359375 
Q 56.890625 61.8125 56.890625 51.125 
Q 56.890625 40.328125 50.609375 34.8125 
Q 44.34375 29.296875 32.078125 29.296875 
L 19.671875 29.296875 
L 19.671875 0 
L 9.8125 0 
z
" id="DejaVuSans-80"/>
      <path d="M 8.203125 72.90625 
L 55.078125 72.90625 
L 55.078125 68.703125 
L 28.609375 0 
L 18.3125 0 
L 43.21875 64.59375 
L 8.203125 64.59375 
z
" id="DejaVuSans-55"/>
      <path d="M 10.6875 12.40625 
L 21 12.40625 
L 21 0 
L 10.6875 0 
z
" id="DejaVuSans-46"/>
      <path d="M 9.8125 72.90625 
L 55.90625 72.90625 
L 55.90625 64.59375 
L 19.671875 64.59375 
L 19.671875 43.015625 
L 54.390625 43.015625 
L 54.390625 34.71875 
L 19.671875 34.71875 
L 19.671875 8.296875 
L 56.78125 8.296875 
L 56.78125 0 
L 9.8125 0 
z
" id="DejaVuSans-69"/>
      <path d="M 18.109375 8.203125 
L 18.109375 -20.796875 
L 9.078125 -20.796875 
L 9.078125 54.6875 
L 18.109375 54.6875 
L 18.109375 46.390625 
Q 20.953125 51.265625 25.265625 53.625 
Q 29.59375 56 35.59375 56 
Q 45.5625 56 51.78125 48.09375 
Q 58.015625 40.1875 58.015625 27.296875 
Q 58.015625 14.40625 51.78125 6.484375 
Q 45.5625 -1.421875 35.59375 -1.421875 
Q 29.59375 -1.421875 25.265625 0.953125 
Q 20.953125 3.328125 18.109375 8.203125 
z
M 48.6875 27.296875 
Q 48.6875 37.203125 44.609375 42.84375 
Q 40.53125 48.484375 33.40625 48.484375 
Q 26.265625 48.484375 22.1875 42.84375 
Q 18.109375 37.203125 18.109375 27.296875 
Q 18.109375 17.390625 22.1875 11.75 
Q 26.265625 6.109375 33.40625 6.109375 
Q 40.53125 6.109375 44.609375 11.75 
Q 48.6875 17.390625 48.6875 27.296875 
z
" id="DejaVuSans-112"/>
      <path d="M 9.421875 54.6875 
L 18.40625 54.6875 
L 18.40625 0 
L 9.421875 0 
z
M 9.421875 75.984375 
L 18.40625 75.984375 
L 18.40625 64.59375 
L 9.421875 64.59375 
z
" id="DejaVuSans-105"/>
      <path d="M 44.28125 53.078125 
L 44.28125 44.578125 
Q 40.484375 46.53125 36.375 47.5 
Q 32.28125 48.484375 27.875 48.484375 
Q 21.1875 48.484375 17.84375 46.4375 
Q 14.5 44.390625 14.5 40.28125 
Q 14.5 37.15625 16.890625 35.375 
Q 19.28125 33.59375 26.515625 31.984375 
L 29.59375 31.296875 
Q 39.15625 29.25 43.1875 25.515625 
Q 47.21875 21.78125 47.21875 15.09375 
Q 47.21875 7.46875 41.1875 3.015625 
Q 35.15625 -1.421875 24.609375 -1.421875 
Q 20.21875 -1.421875 15.453125 -0.5625 
Q 10.6875 0.296875 5.421875 2 
L 5.421875 11.28125 
Q 10.40625 8.6875 15.234375 7.390625 
Q 20.0625 6.109375 24.8125 6.109375 
Q 31.15625 6.109375 34.5625 8.28125 
Q 37.984375 10.453125 37.984375 14.40625 
Q 37.984375 18.0625 35.515625 20.015625 
Q 33.0625 21.96875 24.703125 23.78125 
L 21.578125 24.515625 
Q 13.234375 26.265625 9.515625 29.90625 
Q 5.8125 33.546875 5.8125 39.890625 
Q 5.8125 47.609375 11.28125 51.796875 
Q 16.75 56 26.8125 56 
Q 31.78125 56 36.171875 55.265625 
Q 40.578125 54.546875 44.28125 53.078125 
z
" id="DejaVuSans-115"/>
      <path d="M 45.40625 46.390625 
L 45.40625 75.984375 
L 54.390625 75.984375 
L 54.390625 0 
L 45.40625 0 
L 45.40625 8.203125 
Q 42.578125 3.328125 38.25 0.953125 
Q 33.9375 -1.421875 27.875 -1.421875 
Q 17.96875 -1.421875 11.734375 6.484375 
Q 5.515625 14.40625 5.515625 27.296875 
Q 5.515625 40.1875 11.734375 48.09375 
Q 17.96875 56 27.875 56 
Q 33.9375 56 38.25 53.625 
Q 42.578125 51.265625 45.40625 46.390625 
z
M 14.796875 27.296875 
Q 14.796875 17.390625 18.875 11.75 
Q 22.953125 6.109375 30.078125 6.109375 
Q 37.203125 6.109375 41.296875 11.75 
Q 45.40625 17.390625 45.40625 27.296875 
Q 45.40625 37.203125 41.296875 42.84375 
Q 37.203125 48.484375 30.078125 48.484375 
Q 22.953125 48.484375 18.875 42.84375 
Q 14.796875 37.203125 14.796875 27.296875 
z
" id="DejaVuSans-100"/>
     </defs>
     <g transform="translate(176.315469 332.636562)scale(0.1 -0.1)">
      <use xlink:href="#DejaVuSans-65"/>
      <use x="62.533203" xlink:href="#DejaVuSans-118"/>
      <use x="121.712891" xlink:href="#DejaVuSans-101"/>
      <use x="183.236328" xlink:href="#DejaVuSans-114"/>
      <use x="224.349609" xlink:href="#DejaVuSans-97"/>
      <use x="285.628906" xlink:href="#DejaVuSans-103"/>
      <use x="349.105469" xlink:href="#DejaVuSans-101"/>
      <use x="410.628906" xlink:href="#DejaVuSans-32"/>
      <use x="442.416016" xlink:href="#DejaVuSans-111"/>
      <use x="503.597656" xlink:href="#DejaVuSans-102"/>
      <use x="538.802734" xlink:href="#DejaVuSans-32"/>
      <use x="570.589844" xlink:href="#DejaVuSans-80"/>
      <use x="627.267578" xlink:href="#DejaVuSans-101"/>
      <use x="688.791016" xlink:href="#DejaVuSans-114"/>
      <use x="729.904297" xlink:href="#DejaVuSans-32"/>
      <use x="761.691406" xlink:href="#DejaVuSans-55"/>
      <use x="825.314453" xlink:href="#DejaVuSans-53"/>
      <use x="888.9375" xlink:href="#DejaVuSans-48"/>
      <use x="952.560547" xlink:href="#DejaVuSans-48"/>
      <use x="1016.183594" xlink:href="#DejaVuSans-46"/>
      <use x="1047.970703" xlink:href="#DejaVuSans-48"/>
      <use x="1111.59375" xlink:href="#DejaVuSans-32"/>
      <use x="1143.380859" xlink:href="#DejaVuSans-69"/>
      <use x="1206.564453" xlink:href="#DejaVuSans-112"/>
      <use x="1270.041016" xlink:href="#DejaVuSans-105"/>
      <use x="1297.824219" xlink:href="#DejaVuSans-115"/>
      <use x="1349.923828" xlink:href="#DejaVuSans-111"/>
      <use x="1411.105469" xlink:href="#DejaVuSans-100"/>
      <use x="1474.582031" xlink:href="#DejaVuSans-101"/>
     </g>
    </g>
   </g>
   <g id="matplotlib.axis_2">
    <g id="ytick_1">
     <g id="line2d_8">
      <defs>
       <path d="M 0 0 
L -3.5 0 
" id="m021110e9b6" style="stroke:#000000;stroke-width:0.8;"/>
      </defs>
      <g>
       <use style="stroke:#000000;stroke-width:0.8;" x="69.6125" xlink:href="#m021110e9b6" y="291.730444"/>
      </g>
     </g>
     <g id="text_9">
      <!-- 0 -->
      <g transform="translate(56.25 295.529663)scale(0.1 -0.1)">
       <use xlink:href="#DejaVuSans-48"/>
      </g>
     </g>
    </g>
    <g id="ytick_2">
     <g id="line2d_9">
      <g>
       <use style="stroke:#000000;stroke-width:0.8;" x="69.6125" xlink:href="#m021110e9b6" y="255.842238"/>
      </g>
     </g>
     <g id="text_10">
      <!-- 20000 -->
      <g transform="translate(30.8 259.641457)scale(0.1 -0.1)">
       <use xlink:href="#DejaVuSans-50"/>
       <use x="63.623047" xlink:href="#DejaVuSans-48"/>
       <use x="127.246094" xlink:href="#DejaVuSans-48"/>
       <use x="190.869141" xlink:href="#DejaVuSans-48"/>
       <use x="254.492188" xlink:href="#DejaVuSans-48"/>
      </g>
     </g>
    </g>
    <g id="ytick_3">
     <g id="line2d_10">
      <g>
       <use style="stroke:#000000;stroke-width:0.8;" x="69.6125" xlink:href="#m021110e9b6" y="219.954032"/>
      </g>
     </g>
     <g id="text_11">
      <!-- 40000 -->
      <defs>
       <path d="M 37.796875 64.3125 
L 12.890625 25.390625 
L 37.796875 25.390625 
z
M 35.203125 72.90625 
L 47.609375 72.90625 
L 47.609375 25.390625 
L 58.015625 25.390625 
L 58.015625 17.1875 
L 47.609375 17.1875 
L 47.609375 0 
L 37.796875 0 
L 37.796875 17.1875 
L 4.890625 17.1875 
L 4.890625 26.703125 
z
" id="DejaVuSans-52"/>
      </defs>
      <g transform="translate(30.8 223.753251)scale(0.1 -0.1)">
       <use xlink:href="#DejaVuSans-52"/>
       <use x="63.623047" xlink:href="#DejaVuSans-48"/>
       <use x="127.246094" xlink:href="#DejaVuSans-48"/>
       <use x="190.869141" xlink:href="#DejaVuSans-48"/>
       <use x="254.492188" xlink:href="#DejaVuSans-48"/>
      </g>
     </g>
    </g>
    <g id="ytick_4">
     <g id="line2d_11">
      <g>
       <use style="stroke:#000000;stroke-width:0.8;" x="69.6125" xlink:href="#m021110e9b6" y="184.065826"/>
      </g>
     </g>
     <g id="text_12">
      <!-- 60000 -->
      <defs>
       <path d="M 33.015625 40.375 
Q 26.375 40.375 22.484375 35.828125 
Q 18.609375 31.296875 18.609375 23.390625 
Q 18.609375 15.53125 22.484375 10.953125 
Q 26.375 6.390625 33.015625 6.390625 
Q 39.65625 6.390625 43.53125 10.953125 
Q 47.40625 15.53125 47.40625 23.390625 
Q 47.40625 31.296875 43.53125 35.828125 
Q 39.65625 40.375 33.015625 40.375 
z
M 52.59375 71.296875 
L 52.59375 62.3125 
Q 48.875 64.0625 45.09375 64.984375 
Q 41.3125 65.921875 37.59375 65.921875 
Q 27.828125 65.921875 22.671875 59.328125 
Q 17.53125 52.734375 16.796875 39.40625 
Q 19.671875 43.65625 24.015625 45.921875 
Q 28.375 48.1875 33.59375 48.1875 
Q 44.578125 48.1875 50.953125 41.515625 
Q 57.328125 34.859375 57.328125 23.390625 
Q 57.328125 12.15625 50.6875 5.359375 
Q 44.046875 -1.421875 33.015625 -1.421875 
Q 20.359375 -1.421875 13.671875 8.265625 
Q 6.984375 17.96875 6.984375 36.375 
Q 6.984375 53.65625 15.1875 63.9375 
Q 23.390625 74.21875 37.203125 74.21875 
Q 40.921875 74.21875 44.703125 73.484375 
Q 48.484375 72.75 52.59375 71.296875 
z
" id="DejaVuSans-54"/>
      </defs>
      <g transform="translate(30.8 187.865044)scale(0.1 -0.1)">
       <use xlink:href="#DejaVuSans-54"/>
       <use x="63.623047" xlink:href="#DejaVuSans-48"/>
       <use x="127.246094" xlink:href="#DejaVuSans-48"/>
       <use x="190.869141" xlink:href="#DejaVuSans-48"/>
       <use x="254.492188" xlink:href="#DejaVuSans-48"/>
      </g>
     </g>
    </g>
    <g id="ytick_5">
     <g id="line2d_12">
      <g>
       <use style="stroke:#000000;stroke-width:0.8;" x="69.6125" xlink:href="#m021110e9b6" y="148.177619"/>
      </g>
     </g>
     <g id="text_13">
      <!-- 80000 -->
      <defs>
       <path d="M 31.78125 34.625 
Q 24.75 34.625 20.71875 30.859375 
Q 16.703125 27.09375 16.703125 20.515625 
Q 16.703125 13.921875 20.71875 10.15625 
Q 24.75 6.390625 31.78125 6.390625 
Q 38.8125 6.390625 42.859375 10.171875 
Q 46.921875 13.96875 46.921875 20.515625 
Q 46.921875 27.09375 42.890625 30.859375 
Q 38.875 34.625 31.78125 34.625 
z
M 21.921875 38.8125 
Q 15.578125 40.375 12.03125 44.71875 
Q 8.5 49.078125 8.5 55.328125 
Q 8.5 64.0625 14.71875 69.140625 
Q 20.953125 74.21875 31.78125 74.21875 
Q 42.671875 74.21875 48.875 69.140625 
Q 55.078125 64.0625 55.078125 55.328125 
Q 55.078125 49.078125 51.53125 44.71875 
Q 48 40.375 41.703125 38.8125 
Q 48.828125 37.15625 52.796875 32.3125 
Q 56.78125 27.484375 56.78125 20.515625 
Q 56.78125 9.90625 50.3125 4.234375 
Q 43.84375 -1.421875 31.78125 -1.421875 
Q 19.734375 -1.421875 13.25 4.234375 
Q 6.78125 9.90625 6.78125 20.515625 
Q 6.78125 27.484375 10.78125 32.3125 
Q 14.796875 37.15625 21.921875 38.8125 
z
M 18.3125 54.390625 
Q 18.3125 48.734375 21.84375 45.5625 
Q 25.390625 42.390625 31.78125 42.390625 
Q 38.140625 42.390625 41.71875 45.5625 
Q 45.3125 48.734375 45.3125 54.390625 
Q 45.3125 60.0625 41.71875 63.234375 
Q 38.140625 66.40625 31.78125 66.40625 
Q 25.390625 66.40625 21.84375 63.234375 
Q 18.3125 60.0625 18.3125 54.390625 
z
" id="DejaVuSans-56"/>
      </defs>
      <g transform="translate(30.8 151.976838)scale(0.1 -0.1)">
       <use xlink:href="#DejaVuSans-56"/>
       <use x="63.623047" xlink:href="#DejaVuSans-48"/>
       <use x="127.246094" xlink:href="#DejaVuSans-48"/>
       <use x="190.869141" xlink:href="#DejaVuSans-48"/>
       <use x="254.492188" xlink:href="#DejaVuSans-48"/>
      </g>
     </g>
    </g>
    <g id="ytick_6">
     <g id="line2d_13">
      <g>
       <use style="stroke:#000000;stroke-width:0.8;" x="69.6125" xlink:href="#m021110e9b6" y="112.289413"/>
      </g>
     </g>
     <g id="text_14">
      <!-- 100000 -->
      <g transform="translate(24.4375 116.088632)scale(0.1 -0.1)">
       <use xlink:href="#DejaVuSans-49"/>
       <use x="63.623047" xlink:href="#DejaVuSans-48"/>
       <use x="127.246094" xlink:href="#DejaVuSans-48"/>
       <use x="190.869141" xlink:href="#DejaVuSans-48"/>
       <use x="254.492188" xlink:href="#DejaVuSans-48"/>
       <use x="318.115234" xlink:href="#DejaVuSans-48"/>
      </g>
     </g>
    </g>
    <g id="ytick_7">
     <g id="line2d_14">
      <g>
       <use style="stroke:#000000;stroke-width:0.8;" x="69.6125" xlink:href="#m021110e9b6" y="76.401207"/>
      </g>
     </g>
     <g id="text_15">
      <!-- 120000 -->
      <g transform="translate(24.4375 80.200426)scale(0.1 -0.1)">
       <use xlink:href="#DejaVuSans-49"/>
       <use x="63.623047" xlink:href="#DejaVuSans-50"/>
       <use x="127.246094" xlink:href="#DejaVuSans-48"/>
       <use x="190.869141" xlink:href="#DejaVuSans-48"/>
       <use x="254.492188" xlink:href="#DejaVuSans-48"/>
       <use x="318.115234" xlink:href="#DejaVuSans-48"/>
      </g>
     </g>
    </g>
    <g id="ytick_8">
     <g id="line2d_15">
      <g>
       <use style="stroke:#000000;stroke-width:0.8;" x="69.6125" xlink:href="#m021110e9b6" y="40.513001"/>
      </g>
     </g>
     <g id="text_16">
      <!-- 140000 -->
      <g transform="translate(24.4375 44.312219)scale(0.1 -0.1)">
       <use xlink:href="#DejaVuSans-49"/>
       <use x="63.623047" xlink:href="#DejaVuSans-52"/>
       <use x="127.246094" xlink:href="#DejaVuSans-48"/>
       <use x="190.869141" xlink:href="#DejaVuSans-48"/>
       <use x="254.492188" xlink:href="#DejaVuSans-48"/>
       <use x="318.115234" xlink:href="#DejaVuSans-48"/>
      </g>
     </g>
    </g>
    <g id="text_17">
     <!-- Profit -->
     <defs>
      <path d="M 18.3125 70.21875 
L 18.3125 54.6875 
L 36.8125 54.6875 
L 36.8125 47.703125 
L 18.3125 47.703125 
L 18.3125 18.015625 
Q 18.3125 11.328125 20.140625 9.421875 
Q 21.96875 7.515625 27.59375 7.515625 
L 36.8125 7.515625 
L 36.8125 0 
L 27.59375 0 
Q 17.1875 0 13.234375 3.875 
Q 9.28125 7.765625 9.28125 18.015625 
L 9.28125 47.703125 
L 2.6875 47.703125 
L 2.6875 54.6875 
L 9.28125 54.6875 
L 9.28125 70.21875 
z
" id="DejaVuSans-116"/>
     </defs>
     <g transform="translate(18.357813 175.899062)rotate(-90)scale(0.1 -0.1)">
      <use xlink:href="#DejaVuSans-80"/>
      <use x="58.552734" xlink:href="#DejaVuSans-114"/>
      <use x="97.416016" xlink:href="#DejaVuSans-111"/>
      <use x="158.597656" xlink:href="#DejaVuSans-102"/>
      <use x="193.802734" xlink:href="#DejaVuSans-105"/>
      <use x="221.585938" xlink:href="#DejaVuSans-116"/>
     </g>
    </g>
   </g>
   <g id="line2d_16">
    <path clip-path="url(#pab64828a09)" d="M 86.295227 291.496364 
L 87.411129 37.335353 
L 88.52703 77.496386 
L 89.642932 144.051291 
L 90.758833 99.969953 
L 91.874735 79.283575 
L 92.990636 96.917535 
L 94.106538 123.987454 
L 95.222439 170.153161 
L 96.338341 108.978998 
L 97.454242 90.404462 
L 98.570144 101.139281 
L 99.686045 104.20382 
L 100.801947 37.807409 
L 101.917848 107.972158 
L 103.03375 69.077966 
L 104.149651 63.485996 
L 105.265553 84.521167 
L 106.381454 183.165858 
L 107.497356 85.369876 
L 108.613257 65.784234 
L 109.729159 146.65931 
L 110.84506 108.061003 
L 111.960962 150.618482 
L 113.076863 71.623702 
L 114.192765 137.257062 
L 115.308666 186.46031 
L 116.424567 83.205051 
L 117.540469 46.082247 
L 118.65637 121.665778 
L 119.772272 105.876548 
L 120.888173 126.820527 
L 122.004075 128.396791 
L 123.119976 124.495774 
L 125.351779 90.257706 
L 126.467681 78.46066 
L 127.583582 145.951664 
L 128.699484 93.083652 
L 130.931287 155.095189 
L 132.047188 131.219713 
L 133.16309 99.214647 
L 134.278991 183.801379 
L 135.394893 162.974177 
L 136.510794 158.073221 
L 137.626696 123.180993 
L 138.742597 68.365874 
L 139.858499 50.285608 
L 140.9744 109.019276 
L 142.090302 93.446953 
L 143.206203 88.367052 
L 144.322105 60.169535 
L 145.438006 133.592678 
L 146.553908 107.727187 
L 147.669809 76.349057 
L 148.785711 130.469812 
L 149.901612 98.974182 
L 151.017514 136.295595 
L 152.133415 155.148019 
L 153.249317 65.245295 
L 154.365218 115.561057 
L 155.48112 74.621164 
L 156.597021 89.99617 
L 157.712923 100.802328 
L 158.828824 56.385592 
L 159.944726 131.256222 
L 161.060627 104.648312 
L 162.176529 92.785941 
L 163.29243 133.299742 
L 164.408332 91.415217 
L 165.524233 82.765112 
L 166.640135 130.22926 
L 167.756036 129.647813 
L 168.871938 169.498336 
L 169.987839 93.571094 
L 171.10374 153.920125 
L 172.219642 145.472024 
L 173.335543 145.232899 
L 174.451445 173.38318 
L 175.567346 132.156288 
L 176.683248 107.106292 
L 177.799149 142.771774 
L 178.915051 75.249074 
L 180.030952 137.859367 
L 181.146854 140.946491 
L 182.262755 99.828091 
L 183.378657 76.875574 
L 184.494558 103.790203 
L 185.61046 120.879314 
L 186.726361 116.01447 
L 187.842263 116.084604 
L 188.958164 107.328675 
L 190.074066 112.235462 
L 191.189967 70.781059 
L 192.305869 129.709363 
L 193.42177 89.215347 
L 194.537672 114.02048 
L 195.653573 154.855628 
L 196.769475 143.847309 
L 197.885376 144.248105 
L 199.001278 102.589435 
L 200.117179 124.385013 
L 201.233081 121.945558 
L 202.348982 143.287842 
L 203.464884 110.84009 
L 204.580785 108.601489 
L 205.696687 118.262323 
L 206.812588 104.505988 
L 207.92849 78.566747 
L 209.044391 111.946657 
L 210.160293 113.95639 
L 211.276194 145.601042 
L 212.392096 138.353054 
L 213.507997 140.144178 
L 214.623899 143.599752 
L 215.7398 135.571387 
L 216.855702 147.696797 
L 217.971603 84.213368 
L 219.087505 83.744514 
L 220.203406 75.173332 
L 221.319308 140.947017 
L 222.435209 135.07456 
L 223.551111 94.00586 
L 224.667012 132.708182 
L 225.782913 81.822997 
L 226.898815 96.953215 
L 229.130618 145.051397 
L 230.246519 130.985948 
L 231.362421 143.435399 
L 232.478322 95.970813 
L 233.594224 140.918186 
L 234.710125 126.189388 
L 235.826027 120.005038 
L 236.941928 89.706189 
L 238.05783 116.543722 
L 239.173731 83.189817 
L 240.289633 106.923918 
L 241.405534 110.629367 
L 242.521436 87.917139 
L 243.637337 139.069403 
L 244.753239 168.04662 
L 245.86914 147.797628 
L 246.985042 106.448108 
L 249.216845 124.95204 
L 250.332746 125.492288 
L 251.448648 80.401428 
L 252.564549 162.04562 
L 253.680451 160.630114 
L 254.796352 104.57163 
L 255.912254 125.665881 
L 257.028155 134.693134 
L 258.144057 112.623063 
L 259.259958 151.597702 
L 260.37586 149.32547 
L 261.491761 94.426411 
L 262.607663 145.280969 
L 263.723564 145.582357 
L 264.839466 163.492475 
L 265.955367 108.680533 
L 267.071269 93.861335 
L 268.18717 141.578688 
L 269.303072 119.723702 
L 270.418973 124.823264 
L 271.534875 127.814651 
L 272.650776 92.946142 
L 273.766678 87.701262 
L 274.882579 165.754594 
L 275.998481 129.580371 
L 277.114382 120.754592 
L 278.230284 55.425059 
L 279.346185 117.065539 
L 280.462087 149.629438 
L 281.577988 34.223636 
L 282.693889 79.98034 
L 283.809791 106.512173 
L 284.925692 104.711843 
L 286.041594 111.695355 
L 287.157495 141.279786 
L 288.273397 137.022068 
L 289.389298 109.000007 
L 290.5052 177.481993 
L 291.621101 136.277089 
L 292.737003 113.462215 
L 293.852904 96.544473 
L 294.968806 138.247892 
L 296.084707 129.51874 
L 297.200609 117.41118 
L 298.31651 164.474323 
L 299.432412 128.189007 
L 300.548313 115.877559 
L 301.664215 115.525174 
L 302.780116 95.315208 
L 303.896018 83.699678 
L 305.011919 67.161604 
L 306.127821 101.446337 
L 307.243722 129.414741 
L 308.359624 163.017018 
L 309.475525 120.235607 
L 310.591427 116.829425 
L 311.707328 115.594566 
L 312.82323 88.639107 
L 313.939131 98.682843 
L 315.055033 173.50749 
L 316.170934 148.561422 
L 317.286836 86.626066 
L 318.402737 62.808137 
L 319.518639 109.70119 
L 320.63454 117.089706 
L 321.750442 96.634899 
L 322.866343 117.347181 
L 323.982245 148.108067 
L 325.098146 113.4638 
L 326.214048 90.312345 
L 327.329949 62.838801 
L 328.445851 137.210229 
L 329.561752 118.069881 
L 330.677654 80.844324 
L 331.793555 129.733614 
L 332.909457 115.043003 
L 334.025358 135.367929 
L 335.14126 147.890098 
L 336.257161 141.341201 
L 337.373062 124.899556 
L 338.488964 102.356443 
L 339.604865 77.547868 
L 340.720767 62.100759 
L 341.836668 115.703355 
L 342.95257 95.383651 
L 344.068471 119.662096 
L 345.184373 81.553878 
L 346.300274 39.115391 
L 347.416176 81.739554 
L 348.532077 84.177167 
L 349.647979 164.657408 
L 350.76388 122.429665 
L 351.879782 156.874818 
L 352.995683 153.328672 
L 354.111585 129.375097 
L 355.227486 100.821627 
L 356.343388 82.220417 
L 357.459289 114.561405 
L 358.575191 110.419782 
L 359.691092 85.36109 
L 360.806994 126.466382 
L 361.922895 81.285747 
L 363.038797 109.413141 
L 365.2706 149.99189 
L 366.386501 144.812401 
L 367.502403 70.507264 
L 368.618304 50.641459 
L 369.734206 52.926493 
L 371.966009 118.646575 
L 373.08191 111.477498 
L 374.197812 121.784487 
L 375.313713 109.284852 
L 376.429615 109.305179 
L 377.545516 110.350272 
L 378.661418 102.72989 
L 379.777319 75.719386 
L 380.893221 105.739842 
L 382.009122 131.740902 
L 383.125024 163.460041 
L 384.240925 99.168483 
L 385.356827 43.341617 
L 386.472728 65.635619 
L 387.58863 138.852343 
L 388.704531 133.97016 
L 389.820433 136.70239 
L 390.936334 133.472917 
L 392.052235 140.579441 
L 393.168137 134.854784 
L 394.284038 148.308103 
L 395.39994 148.296286 
L 396.515841 149.047306 
L 397.631743 137.322843 
L 398.747644 41.776521 
L 399.863546 79.226375 
L 400.979447 165.010269 
L 402.095349 153.834433 
L 403.21125 126.257093 
L 404.327152 156.933385 
L 405.443053 128.380149 
L 406.558955 96.636173 
L 407.674856 91.793888 
L 408.790758 161.464484 
L 409.906659 152.152689 
L 411.022561 150.299505 
L 412.138462 67.938534 
L 413.254364 97.910162 
L 414.370265 166.479943 
L 415.486167 157.364145 
L 416.602068 157.053619 
L 417.71797 143.459782 
L 418.833871 112.548547 
L 419.949773 115.15768 
L 419.949773 115.15768 
" style="fill:none;stroke:#0000ff;stroke-linecap:square;stroke-width:1.5;"/>
   </g>
   <g id="patch_3">
    <path d="M 69.6125 304.36 
L 69.6125 21.36 
" style="fill:none;stroke:#000000;stroke-linecap:square;stroke-linejoin:miter;stroke-width:0.8;"/>
   </g>
   <g id="patch_4">
    <path d="M 436.6325 304.36 
L 436.6325 21.36 
" style="fill:none;stroke:#000000;stroke-linecap:square;stroke-linejoin:miter;stroke-width:0.8;"/>
   </g>
   <g id="patch_5">
    <path d="M 69.6125 304.36 
L 436.6325 304.36 
" style="fill:none;stroke:#000000;stroke-linecap:square;stroke-linejoin:miter;stroke-width:0.8;"/>
   </g>
   <g id="patch_6">
    <path d="M 69.6125 21.36 
L 436.6325 21.36 
" style="fill:none;stroke:#000000;stroke-linecap:square;stroke-linejoin:miter;stroke-width:0.8;"/>
   </g>
  </g>
  <g id="axes_2">
   <g id="matplotlib.axis_3">
    <g id="ytick_9">
     <g id="line2d_17">
      <defs>
       <path d="M 0 0 
L 3.5 0 
" id="m0ba75554da" style="stroke:#000000;stroke-width:0.8;"/>
      </defs>
      <g>
       <use style="stroke:#000000;stroke-width:0.8;" x="436.6325" xlink:href="#m0ba75554da" y="291.496372"/>
      </g>
     </g>
     <g id="text_18">
      <!-- 0 -->
      <g style="fill:#ff0000;" transform="translate(443.6325 295.295591)scale(0.1 -0.1)">
       <use xlink:href="#DejaVuSans-48"/>
      </g>
     </g>
    </g>
    <g id="ytick_10">
     <g id="line2d_18">
      <g>
       <use style="stroke:#000000;stroke-width:0.8;" x="436.6325" xlink:href="#m0ba75554da" y="247.596643"/>
      </g>
     </g>
     <g id="text_19">
      <!-- 1 -->
      <g style="fill:#ff0000;" transform="translate(443.6325 251.395862)scale(0.1 -0.1)">
       <use xlink:href="#DejaVuSans-49"/>
      </g>
     </g>
    </g>
    <g id="ytick_11">
     <g id="line2d_19">
      <g>
       <use style="stroke:#000000;stroke-width:0.8;" x="436.6325" xlink:href="#m0ba75554da" y="203.696915"/>
      </g>
     </g>
     <g id="text_20">
      <!-- 2 -->
      <g style="fill:#ff0000;" transform="translate(443.6325 207.496133)scale(0.1 -0.1)">
       <use xlink:href="#DejaVuSans-50"/>
      </g>
     </g>
    </g>
    <g id="ytick_12">
     <g id="line2d_20">
      <g>
       <use style="stroke:#000000;stroke-width:0.8;" x="436.6325" xlink:href="#m0ba75554da" y="159.797186"/>
      </g>
     </g>
     <g id="text_21">
      <!-- 3 -->
      <g style="fill:#ff0000;" transform="translate(443.6325 163.596405)scale(0.1 -0.1)">
       <use xlink:href="#DejaVuSans-51"/>
      </g>
     </g>
    </g>
    <g id="ytick_13">
     <g id="line2d_21">
      <g>
       <use style="stroke:#000000;stroke-width:0.8;" x="436.6325" xlink:href="#m0ba75554da" y="115.897457"/>
      </g>
     </g>
     <g id="text_22">
      <!-- 4 -->
      <g style="fill:#ff0000;" transform="translate(443.6325 119.696676)scale(0.1 -0.1)">
       <use xlink:href="#DejaVuSans-52"/>
      </g>
     </g>
    </g>
    <g id="ytick_14">
     <g id="line2d_22">
      <g>
       <use style="stroke:#000000;stroke-width:0.8;" x="436.6325" xlink:href="#m0ba75554da" y="71.997729"/>
      </g>
     </g>
     <g id="text_23">
      <!-- 5 -->
      <g style="fill:#ff0000;" transform="translate(443.6325 75.796947)scale(0.1 -0.1)">
       <use xlink:href="#DejaVuSans-53"/>
      </g>
     </g>
    </g>
    <g id="ytick_15">
     <g id="line2d_23">
      <g>
       <use style="stroke:#000000;stroke-width:0.8;" x="436.6325" xlink:href="#m0ba75554da" y="28.098"/>
      </g>
     </g>
     <g id="text_24">
      <!-- 6 -->
      <g style="fill:#ff0000;" transform="translate(443.6325 31.897219)scale(0.1 -0.1)">
       <use xlink:href="#DejaVuSans-54"/>
      </g>
     </g>
    </g>
    <g id="text_25">
     <!-- 1e6 -->
     <g style="fill:#ff0000;" transform="translate(417.754375 18.36)scale(0.1 -0.1)">
      <use xlink:href="#DejaVuSans-49"/>
      <use x="63.623047" xlink:href="#DejaVuSans-101"/>
      <use x="125.146484" xlink:href="#DejaVuSans-54"/>
     </g>
    </g>
   </g>
   <g id="line2d_24">
    <path clip-path="url(#pab64828a09)" d="M 86.295227 286.83106 
L 419.949773 286.83106 
L 419.949773 286.83106 
" style="fill:none;stroke:#008000;stroke-linecap:square;stroke-width:1.5;"/>
   </g>
   <g id="line2d_25">
    <path clip-path="url(#pab64828a09)" d="M 86.295227 34.223636 
L 419.949773 34.223636 
L 419.949773 34.223636 
" style="fill:none;stroke:#008000;stroke-linecap:square;stroke-width:1.5;"/>
   </g>
   <g id="line2d_26">
    <path clip-path="url(#pab64828a09)" d="M 86.295227 291.496364 
L 419.949773 291.496364 
L 419.949773 291.496364 
" style="fill:none;stroke:#008000;stroke-linecap:square;stroke-width:1.5;"/>
   </g>
   <g id="line2d_27">
    <path clip-path="url(#pab64828a09)" d="M 86.295227 287.1915 
L 419.949773 287.1915 
L 419.949773 287.1915 
" style="fill:none;stroke:#ff0000;stroke-linecap:square;stroke-width:1.5;"/>
   </g>
   <g id="line2d_28">
    <path clip-path="url(#pab64828a09)" d="M 86.295227 285.196542 
L 419.949773 285.196542 
L 419.949773 285.196542 
" style="fill:none;stroke:#ff0000;stroke-linecap:square;stroke-width:1.5;"/>
   </g>
   <g id="line2d_29">
    <path clip-path="url(#pab64828a09)" d="M 86.295227 291.490645 
L 419.949773 291.490645 
L 419.949773 291.490645 
" style="fill:none;stroke:#ff0000;stroke-linecap:square;stroke-width:1.5;"/>
   </g>
   <g id="patch_7">
    <path d="M 69.6125 304.36 
L 69.6125 21.36 
" style="fill:none;stroke:#000000;stroke-linecap:square;stroke-linejoin:miter;stroke-width:0.8;"/>
   </g>
   <g id="patch_8">
    <path d="M 436.6325 304.36 
L 436.6325 21.36 
" style="fill:none;stroke:#000000;stroke-linecap:square;stroke-linejoin:miter;stroke-width:0.8;"/>
   </g>
   <g id="patch_9">
    <path d="M 69.6125 304.36 
L 436.6325 304.36 
" style="fill:none;stroke:#000000;stroke-linecap:square;stroke-linejoin:miter;stroke-width:0.8;"/>
   </g>
   <g id="patch_10">
    <path d="M 69.6125 21.36 
L 436.6325 21.36 
" style="fill:none;stroke:#000000;stroke-linecap:square;stroke-linejoin:miter;stroke-width:0.8;"/>
   </g>
   <g id="legend_1">
    <g id="patch_11">
     <path d="M 290.98875 208.394375 
L 429.6325 208.394375 
Q 431.6325 208.394375 431.6325 206.394375 
L 431.6325 119.325625 
Q 431.6325 117.325625 429.6325 117.325625 
L 290.98875 117.325625 
Q 288.98875 117.325625 288.98875 119.325625 
L 288.98875 206.394375 
Q 288.98875 208.394375 290.98875 208.394375 
z
" style="fill:#ffffff;opacity:0.8;stroke:#cccccc;stroke-linejoin:miter;"/>
    </g>
    <g id="line2d_30">
     <path d="M 292.98875 125.424062 
L 312.98875 125.424062 
" style="fill:none;stroke:#008000;stroke-linecap:square;stroke-width:1.5;"/>
    </g>
    <g id="line2d_31"/>
    <g id="text_26">
     <!-- Mean Profit (Dataset) -->
     <defs>
      <path d="M 9.8125 72.90625 
L 24.515625 72.90625 
L 43.109375 23.296875 
L 61.8125 72.90625 
L 76.515625 72.90625 
L 76.515625 0 
L 66.890625 0 
L 66.890625 64.015625 
L 48.09375 14.015625 
L 38.1875 14.015625 
L 19.390625 64.015625 
L 19.390625 0 
L 9.8125 0 
z
" id="DejaVuSans-77"/>
      <path d="M 54.890625 33.015625 
L 54.890625 0 
L 45.90625 0 
L 45.90625 32.71875 
Q 45.90625 40.484375 42.875 44.328125 
Q 39.84375 48.1875 33.796875 48.1875 
Q 26.515625 48.1875 22.3125 43.546875 
Q 18.109375 38.921875 18.109375 30.90625 
L 18.109375 0 
L 9.078125 0 
L 9.078125 54.6875 
L 18.109375 54.6875 
L 18.109375 46.1875 
Q 21.34375 51.125 25.703125 53.5625 
Q 30.078125 56 35.796875 56 
Q 45.21875 56 50.046875 50.171875 
Q 54.890625 44.34375 54.890625 33.015625 
z
" id="DejaVuSans-110"/>
      <path d="M 31 75.875 
Q 24.46875 64.65625 21.28125 53.65625 
Q 18.109375 42.671875 18.109375 31.390625 
Q 18.109375 20.125 21.3125 9.0625 
Q 24.515625 -2 31 -13.1875 
L 23.1875 -13.1875 
Q 15.875 -1.703125 12.234375 9.375 
Q 8.59375 20.453125 8.59375 31.390625 
Q 8.59375 42.28125 12.203125 53.3125 
Q 15.828125 64.359375 23.1875 75.875 
z
" id="DejaVuSans-40"/>
      <path d="M 19.671875 64.796875 
L 19.671875 8.109375 
L 31.59375 8.109375 
Q 46.6875 8.109375 53.6875 14.9375 
Q 60.6875 21.78125 60.6875 36.53125 
Q 60.6875 51.171875 53.6875 57.984375 
Q 46.6875 64.796875 31.59375 64.796875 
z
M 9.8125 72.90625 
L 30.078125 72.90625 
Q 51.265625 72.90625 61.171875 64.09375 
Q 71.09375 55.28125 71.09375 36.53125 
Q 71.09375 17.671875 61.125 8.828125 
Q 51.171875 0 30.078125 0 
L 9.8125 0 
z
" id="DejaVuSans-68"/>
      <path d="M 8.015625 75.875 
L 15.828125 75.875 
Q 23.140625 64.359375 26.78125 53.3125 
Q 30.421875 42.28125 30.421875 31.390625 
Q 30.421875 20.453125 26.78125 9.375 
Q 23.140625 -1.703125 15.828125 -13.1875 
L 8.015625 -13.1875 
Q 14.5 -2 17.703125 9.0625 
Q 20.90625 20.125 20.90625 31.390625 
Q 20.90625 42.671875 17.703125 53.65625 
Q 14.5 64.65625 8.015625 75.875 
z
" id="DejaVuSans-41"/>
     </defs>
     <g transform="translate(320.98875 128.924062)scale(0.1 -0.1)">
      <use xlink:href="#DejaVuSans-77"/>
      <use x="86.279297" xlink:href="#DejaVuSans-101"/>
      <use x="147.802734" xlink:href="#DejaVuSans-97"/>
      <use x="209.082031" xlink:href="#DejaVuSans-110"/>
      <use x="272.460938" xlink:href="#DejaVuSans-32"/>
      <use x="304.248047" xlink:href="#DejaVuSans-80"/>
      <use x="362.800781" xlink:href="#DejaVuSans-114"/>
      <use x="401.664062" xlink:href="#DejaVuSans-111"/>
      <use x="462.845703" xlink:href="#DejaVuSans-102"/>
      <use x="498.050781" xlink:href="#DejaVuSans-105"/>
      <use x="525.833984" xlink:href="#DejaVuSans-116"/>
      <use x="565.042969" xlink:href="#DejaVuSans-32"/>
      <use x="596.830078" xlink:href="#DejaVuSans-40"/>
      <use x="635.84375" xlink:href="#DejaVuSans-68"/>
      <use x="712.845703" xlink:href="#DejaVuSans-97"/>
      <use x="774.125" xlink:href="#DejaVuSans-116"/>
      <use x="813.333984" xlink:href="#DejaVuSans-97"/>
      <use x="874.613281" xlink:href="#DejaVuSans-115"/>
      <use x="926.712891" xlink:href="#DejaVuSans-101"/>
      <use x="988.236328" xlink:href="#DejaVuSans-116"/>
      <use x="1027.445312" xlink:href="#DejaVuSans-41"/>
     </g>
    </g>
    <g id="line2d_32">
     <path d="M 292.98875 140.102187 
L 312.98875 140.102187 
" style="fill:none;stroke:#008000;stroke-linecap:square;stroke-width:1.5;"/>
    </g>
    <g id="line2d_33"/>
    <g id="text_27">
     <!-- Max Profit (Dataset) -->
     <defs>
      <path d="M 54.890625 54.6875 
L 35.109375 28.078125 
L 55.90625 0 
L 45.3125 0 
L 29.390625 21.484375 
L 13.484375 0 
L 2.875 0 
L 24.125 28.609375 
L 4.6875 54.6875 
L 15.28125 54.6875 
L 29.78125 35.203125 
L 44.28125 54.6875 
z
" id="DejaVuSans-120"/>
     </defs>
     <g transform="translate(320.98875 143.602187)scale(0.1 -0.1)">
      <use xlink:href="#DejaVuSans-77"/>
      <use x="86.279297" xlink:href="#DejaVuSans-97"/>
      <use x="147.558594" xlink:href="#DejaVuSans-120"/>
      <use x="206.738281" xlink:href="#DejaVuSans-32"/>
      <use x="238.525391" xlink:href="#DejaVuSans-80"/>
      <use x="297.078125" xlink:href="#DejaVuSans-114"/>
      <use x="335.941406" xlink:href="#DejaVuSans-111"/>
      <use x="397.123047" xlink:href="#DejaVuSans-102"/>
      <use x="432.328125" xlink:href="#DejaVuSans-105"/>
      <use x="460.111328" xlink:href="#DejaVuSans-116"/>
      <use x="499.320312" xlink:href="#DejaVuSans-32"/>
      <use x="531.107422" xlink:href="#DejaVuSans-40"/>
      <use x="570.121094" xlink:href="#DejaVuSans-68"/>
      <use x="647.123047" xlink:href="#DejaVuSans-97"/>
      <use x="708.402344" xlink:href="#DejaVuSans-116"/>
      <use x="747.611328" xlink:href="#DejaVuSans-97"/>
      <use x="808.890625" xlink:href="#DejaVuSans-115"/>
      <use x="860.990234" xlink:href="#DejaVuSans-101"/>
      <use x="922.513672" xlink:href="#DejaVuSans-116"/>
      <use x="961.722656" xlink:href="#DejaVuSans-41"/>
     </g>
    </g>
    <g id="line2d_34">
     <path d="M 292.98875 154.780312 
L 312.98875 154.780312 
" style="fill:none;stroke:#008000;stroke-linecap:square;stroke-width:1.5;"/>
    </g>
    <g id="line2d_35"/>
    <g id="text_28">
     <!-- Min Profit (Dataset) -->
     <g transform="translate(320.98875 158.280312)scale(0.1 -0.1)">
      <use xlink:href="#DejaVuSans-77"/>
      <use x="86.279297" xlink:href="#DejaVuSans-105"/>
      <use x="114.0625" xlink:href="#DejaVuSans-110"/>
      <use x="177.441406" xlink:href="#DejaVuSans-32"/>
      <use x="209.228516" xlink:href="#DejaVuSans-80"/>
      <use x="267.78125" xlink:href="#DejaVuSans-114"/>
      <use x="306.644531" xlink:href="#DejaVuSans-111"/>
      <use x="367.826172" xlink:href="#DejaVuSans-102"/>
      <use x="403.03125" xlink:href="#DejaVuSans-105"/>
      <use x="430.814453" xlink:href="#DejaVuSans-116"/>
      <use x="470.023438" xlink:href="#DejaVuSans-32"/>
      <use x="501.810547" xlink:href="#DejaVuSans-40"/>
      <use x="540.824219" xlink:href="#DejaVuSans-68"/>
      <use x="617.826172" xlink:href="#DejaVuSans-97"/>
      <use x="679.105469" xlink:href="#DejaVuSans-116"/>
      <use x="718.314453" xlink:href="#DejaVuSans-97"/>
      <use x="779.59375" xlink:href="#DejaVuSans-115"/>
      <use x="831.693359" xlink:href="#DejaVuSans-101"/>
      <use x="893.216797" xlink:href="#DejaVuSans-116"/>
      <use x="932.425781" xlink:href="#DejaVuSans-41"/>
     </g>
    </g>
    <g id="line2d_36">
     <path d="M 292.98875 169.458438 
L 312.98875 169.458438 
" style="fill:none;stroke:#ff0000;stroke-linecap:square;stroke-width:1.5;"/>
    </g>
    <g id="line2d_37"/>
    <g id="text_29">
     <!-- Mean Profit (Model) -->
     <defs>
      <path d="M 9.421875 75.984375 
L 18.40625 75.984375 
L 18.40625 0 
L 9.421875 0 
z
" id="DejaVuSans-108"/>
     </defs>
     <g transform="translate(320.98875 172.958438)scale(0.1 -0.1)">
      <use xlink:href="#DejaVuSans-77"/>
      <use x="86.279297" xlink:href="#DejaVuSans-101"/>
      <use x="147.802734" xlink:href="#DejaVuSans-97"/>
      <use x="209.082031" xlink:href="#DejaVuSans-110"/>
      <use x="272.460938" xlink:href="#DejaVuSans-32"/>
      <use x="304.248047" xlink:href="#DejaVuSans-80"/>
      <use x="362.800781" xlink:href="#DejaVuSans-114"/>
      <use x="401.664062" xlink:href="#DejaVuSans-111"/>
      <use x="462.845703" xlink:href="#DejaVuSans-102"/>
      <use x="498.050781" xlink:href="#DejaVuSans-105"/>
      <use x="525.833984" xlink:href="#DejaVuSans-116"/>
      <use x="565.042969" xlink:href="#DejaVuSans-32"/>
      <use x="596.830078" xlink:href="#DejaVuSans-40"/>
      <use x="635.84375" xlink:href="#DejaVuSans-77"/>
      <use x="722.123047" xlink:href="#DejaVuSans-111"/>
      <use x="783.304688" xlink:href="#DejaVuSans-100"/>
      <use x="846.78125" xlink:href="#DejaVuSans-101"/>
      <use x="908.304688" xlink:href="#DejaVuSans-108"/>
      <use x="936.087891" xlink:href="#DejaVuSans-41"/>
     </g>
    </g>
    <g id="line2d_38">
     <path d="M 292.98875 184.136562 
L 312.98875 184.136562 
" style="fill:none;stroke:#ff0000;stroke-linecap:square;stroke-width:1.5;"/>
    </g>
    <g id="line2d_39"/>
    <g id="text_30">
     <!-- Max Profit (Model) -->
     <g transform="translate(320.98875 187.636562)scale(0.1 -0.1)">
      <use xlink:href="#DejaVuSans-77"/>
      <use x="86.279297" xlink:href="#DejaVuSans-97"/>
      <use x="147.558594" xlink:href="#DejaVuSans-120"/>
      <use x="206.738281" xlink:href="#DejaVuSans-32"/>
      <use x="238.525391" xlink:href="#DejaVuSans-80"/>
      <use x="297.078125" xlink:href="#DejaVuSans-114"/>
      <use x="335.941406" xlink:href="#DejaVuSans-111"/>
      <use x="397.123047" xlink:href="#DejaVuSans-102"/>
      <use x="432.328125" xlink:href="#DejaVuSans-105"/>
      <use x="460.111328" xlink:href="#DejaVuSans-116"/>
      <use x="499.320312" xlink:href="#DejaVuSans-32"/>
      <use x="531.107422" xlink:href="#DejaVuSans-40"/>
      <use x="570.121094" xlink:href="#DejaVuSans-77"/>
      <use x="656.400391" xlink:href="#DejaVuSans-111"/>
      <use x="717.582031" xlink:href="#DejaVuSans-100"/>
      <use x="781.058594" xlink:href="#DejaVuSans-101"/>
      <use x="842.582031" xlink:href="#DejaVuSans-108"/>
      <use x="870.365234" xlink:href="#DejaVuSans-41"/>
     </g>
    </g>
    <g id="line2d_40">
     <path d="M 292.98875 198.814687 
L 312.98875 198.814687 
" style="fill:none;stroke:#ff0000;stroke-linecap:square;stroke-width:1.5;"/>
    </g>
    <g id="line2d_41"/>
    <g id="text_31">
     <!-- Min Profit (Model) -->
     <g transform="translate(320.98875 202.314687)scale(0.1 -0.1)">
      <use xlink:href="#DejaVuSans-77"/>
      <use x="86.279297" xlink:href="#DejaVuSans-105"/>
      <use x="114.0625" xlink:href="#DejaVuSans-110"/>
      <use x="177.441406" xlink:href="#DejaVuSans-32"/>
      <use x="209.228516" xlink:href="#DejaVuSans-80"/>
      <use x="267.78125" xlink:href="#DejaVuSans-114"/>
      <use x="306.644531" xlink:href="#DejaVuSans-111"/>
      <use x="367.826172" xlink:href="#DejaVuSans-102"/>
      <use x="403.03125" xlink:href="#DejaVuSans-105"/>
      <use x="430.814453" xlink:href="#DejaVuSans-116"/>
      <use x="470.023438" xlink:href="#DejaVuSans-32"/>
      <use x="501.810547" xlink:href="#DejaVuSans-40"/>
      <use x="540.824219" xlink:href="#DejaVuSans-77"/>
      <use x="627.103516" xlink:href="#DejaVuSans-111"/>
      <use x="688.285156" xlink:href="#DejaVuSans-100"/>
      <use x="751.761719" xlink:href="#DejaVuSans-101"/>
      <use x="813.285156" xlink:href="#DejaVuSans-108"/>
      <use x="841.068359" xlink:href="#DejaVuSans-41"/>
     </g>
    </g>
   </g>
  </g>
  <g id="text_32">
   <!-- Profits Accumulated -->
   <defs>
    <path d="M 48.78125 52.59375 
L 48.78125 44.1875 
Q 44.96875 46.296875 41.140625 47.34375 
Q 37.3125 48.390625 33.40625 48.390625 
Q 24.65625 48.390625 19.8125 42.84375 
Q 14.984375 37.3125 14.984375 27.296875 
Q 14.984375 17.28125 19.8125 11.734375 
Q 24.65625 6.203125 33.40625 6.203125 
Q 37.3125 6.203125 41.140625 7.25 
Q 44.96875 8.296875 48.78125 10.40625 
L 48.78125 2.09375 
Q 45.015625 0.34375 40.984375 -0.53125 
Q 36.96875 -1.421875 32.421875 -1.421875 
Q 20.0625 -1.421875 12.78125 6.34375 
Q 5.515625 14.109375 5.515625 27.296875 
Q 5.515625 40.671875 12.859375 48.328125 
Q 20.21875 56 33.015625 56 
Q 37.15625 56 41.109375 55.140625 
Q 45.0625 54.296875 48.78125 52.59375 
z
" id="DejaVuSans-99"/>
    <path d="M 8.5 21.578125 
L 8.5 54.6875 
L 17.484375 54.6875 
L 17.484375 21.921875 
Q 17.484375 14.15625 20.5 10.265625 
Q 23.53125 6.390625 29.59375 6.390625 
Q 36.859375 6.390625 41.078125 11.03125 
Q 45.3125 15.671875 45.3125 23.6875 
L 45.3125 54.6875 
L 54.296875 54.6875 
L 54.296875 0 
L 45.3125 0 
L 45.3125 8.40625 
Q 42.046875 3.421875 37.71875 1 
Q 33.40625 -1.421875 27.6875 -1.421875 
Q 18.265625 -1.421875 13.375 4.4375 
Q 8.5 10.296875 8.5 21.578125 
z
M 31.109375 56 
z
" id="DejaVuSans-117"/>
    <path d="M 52 44.1875 
Q 55.375 50.25 60.0625 53.125 
Q 64.75 56 71.09375 56 
Q 79.640625 56 84.28125 50.015625 
Q 88.921875 44.046875 88.921875 33.015625 
L 88.921875 0 
L 79.890625 0 
L 79.890625 32.71875 
Q 79.890625 40.578125 77.09375 44.375 
Q 74.3125 48.1875 68.609375 48.1875 
Q 61.625 48.1875 57.5625 43.546875 
Q 53.515625 38.921875 53.515625 30.90625 
L 53.515625 0 
L 44.484375 0 
L 44.484375 32.71875 
Q 44.484375 40.625 41.703125 44.40625 
Q 38.921875 48.1875 33.109375 48.1875 
Q 26.21875 48.1875 22.15625 43.53125 
Q 18.109375 38.875 18.109375 30.90625 
L 18.109375 0 
L 9.078125 0 
L 9.078125 54.6875 
L 18.109375 54.6875 
L 18.109375 46.1875 
Q 21.1875 51.21875 25.484375 53.609375 
Q 29.78125 56 35.6875 56 
Q 41.65625 56 45.828125 52.96875 
Q 50 49.953125 52 44.1875 
z
" id="DejaVuSans-109"/>
   </defs>
   <g transform="translate(160.489688 17.549812)scale(0.14 -0.14)">
    <use xlink:href="#DejaVuSans-80"/>
    <use x="58.552734" xlink:href="#DejaVuSans-114"/>
    <use x="97.416016" xlink:href="#DejaVuSans-111"/>
    <use x="158.597656" xlink:href="#DejaVuSans-102"/>
    <use x="193.802734" xlink:href="#DejaVuSans-105"/>
    <use x="221.585938" xlink:href="#DejaVuSans-116"/>
    <use x="260.794922" xlink:href="#DejaVuSans-115"/>
    <use x="312.894531" xlink:href="#DejaVuSans-32"/>
    <use x="344.681641" xlink:href="#DejaVuSans-65"/>
    <use x="411.339844" xlink:href="#DejaVuSans-99"/>
    <use x="466.320312" xlink:href="#DejaVuSans-99"/>
    <use x="521.300781" xlink:href="#DejaVuSans-117"/>
    <use x="584.679688" xlink:href="#DejaVuSans-109"/>
    <use x="682.091797" xlink:href="#DejaVuSans-117"/>
    <use x="745.470703" xlink:href="#DejaVuSans-108"/>
    <use x="773.253906" xlink:href="#DejaVuSans-97"/>
    <use x="834.533203" xlink:href="#DejaVuSans-116"/>
    <use x="873.742188" xlink:href="#DejaVuSans-101"/>
    <use x="935.265625" xlink:href="#DejaVuSans-100"/>
   </g>
  </g>
 </g>
 <defs>
  <clipPath id="pab64828a09">
   <rect height="283" width="367.02" x="69.6125" y="21.36"/>
  </clipPath>
 </defs>
</svg>
