<?xml version="1.0" encoding="utf-8" standalone="no"?>
<!DOCTYPE svg PUBLIC "-//W3C//DTD SVG 1.1//EN"
  "http://www.w3.org/Graphics/SVG/1.1/DTD/svg11.dtd">
<!-- Created with matplotlib (https://matplotlib.org/) -->
<svg height="345.6pt" version="1.1" viewBox="0 0 460.8 345.6" width="460.8pt" xmlns="http://www.w3.org/2000/svg" xmlns:xlink="http://www.w3.org/1999/xlink">
 <metadata>
  <rdf:RDF xmlns:cc="http://creativecommons.org/ns#" xmlns:dc="http://purl.org/dc/elements/1.1/" xmlns:rdf="http://www.w3.org/1999/02/22-rdf-syntax-ns#">
   <cc:Work>
    <dc:type rdf:resource="http://purl.org/dc/dcmitype/StillImage"/>
    <dc:date>2021-05-07T00:07:32.528712</dc:date>
    <dc:format>image/svg+xml</dc:format>
    <dc:creator>
     <cc:Agent>
      <dc:title>Matplotlib v3.3.4, https://matplotlib.org/</dc:title>
     </cc:Agent>
    </dc:creator>
   </cc:Work>
  </rdf:RDF>
 </metadata>
 <defs>
  <style type="text/css">*{stroke-linecap:butt;stroke-linejoin:round;}</style>
 </defs>
 <g id="figure_1">
  <g id="patch_1">
   <path d="M 0 345.6 
L 460.8 345.6 
L 460.8 0 
L 0 0 
z
" style="fill:#ffffff;"/>
  </g>
  <g id="axes_1">
   <g id="patch_2">
    <path d="M 57.6 307.584 
L 414.72 307.584 
L 414.72 41.472 
L 57.6 41.472 
z
" style="fill:#ffffff;"/>
   </g>
   <g id="matplotlib.axis_1">
    <g id="xtick_1">
     <g id="line2d_1">
      <defs>
       <path d="M 0 0 
L 0 3.5 
" id="m631aabfdc4" style="stroke:#000000;stroke-width:0.8;"/>
      </defs>
      <g>
       <use style="stroke:#000000;stroke-width:0.8;" x="73.832727" xlink:href="#m631aabfdc4" y="307.584"/>
      </g>
     </g>
     <g id="text_1">
      <!-- 0 -->
      <g transform="translate(70.651477 322.182437)scale(0.1 -0.1)">
       <defs>
        <path d="M 31.78125 66.40625 
Q 24.171875 66.40625 20.328125 58.90625 
Q 16.5 51.421875 16.5 36.375 
Q 16.5 21.390625 20.328125 13.890625 
Q 24.171875 6.390625 31.78125 6.390625 
Q 39.453125 6.390625 43.28125 13.890625 
Q 47.125 21.390625 47.125 36.375 
Q 47.125 51.421875 43.28125 58.90625 
Q 39.453125 66.40625 31.78125 66.40625 
z
M 31.78125 74.21875 
Q 44.046875 74.21875 50.515625 64.515625 
Q 56.984375 54.828125 56.984375 36.375 
Q 56.984375 17.96875 50.515625 8.265625 
Q 44.046875 -1.421875 31.78125 -1.421875 
Q 19.53125 -1.421875 13.0625 8.265625 
Q 6.59375 17.96875 6.59375 36.375 
Q 6.59375 54.828125 13.0625 64.515625 
Q 19.53125 74.21875 31.78125 74.21875 
z
" id="DejaVuSans-48"/>
       </defs>
       <use xlink:href="#DejaVuSans-48"/>
      </g>
     </g>
    </g>
    <g id="xtick_2">
     <g id="line2d_2">
      <g>
       <use style="stroke:#000000;stroke-width:0.8;" x="114.465336" xlink:href="#m631aabfdc4" y="307.584"/>
      </g>
     </g>
     <g id="text_2">
      <!-- 100 -->
      <g transform="translate(104.921586 322.182437)scale(0.1 -0.1)">
       <defs>
        <path d="M 12.40625 8.296875 
L 28.515625 8.296875 
L 28.515625 63.921875 
L 10.984375 60.40625 
L 10.984375 69.390625 
L 28.421875 72.90625 
L 38.28125 72.90625 
L 38.28125 8.296875 
L 54.390625 8.296875 
L 54.390625 0 
L 12.40625 0 
z
" id="DejaVuSans-49"/>
       </defs>
       <use xlink:href="#DejaVuSans-49"/>
       <use x="63.623047" xlink:href="#DejaVuSans-48"/>
       <use x="127.246094" xlink:href="#DejaVuSans-48"/>
      </g>
     </g>
    </g>
    <g id="xtick_3">
     <g id="line2d_3">
      <g>
       <use style="stroke:#000000;stroke-width:0.8;" x="155.097945" xlink:href="#m631aabfdc4" y="307.584"/>
      </g>
     </g>
     <g id="text_3">
      <!-- 200 -->
      <g transform="translate(145.554195 322.182437)scale(0.1 -0.1)">
       <defs>
        <path d="M 19.1875 8.296875 
L 53.609375 8.296875 
L 53.609375 0 
L 7.328125 0 
L 7.328125 8.296875 
Q 12.9375 14.109375 22.625 23.890625 
Q 32.328125 33.6875 34.8125 36.53125 
Q 39.546875 41.84375 41.421875 45.53125 
Q 43.3125 49.21875 43.3125 52.78125 
Q 43.3125 58.59375 39.234375 62.25 
Q 35.15625 65.921875 28.609375 65.921875 
Q 23.96875 65.921875 18.8125 64.3125 
Q 13.671875 62.703125 7.8125 59.421875 
L 7.8125 69.390625 
Q 13.765625 71.78125 18.9375 73 
Q 24.125 74.21875 28.421875 74.21875 
Q 39.75 74.21875 46.484375 68.546875 
Q 53.21875 62.890625 53.21875 53.421875 
Q 53.21875 48.921875 51.53125 44.890625 
Q 49.859375 40.875 45.40625 35.40625 
Q 44.1875 33.984375 37.640625 27.21875 
Q 31.109375 20.453125 19.1875 8.296875 
z
" id="DejaVuSans-50"/>
       </defs>
       <use xlink:href="#DejaVuSans-50"/>
       <use x="63.623047" xlink:href="#DejaVuSans-48"/>
       <use x="127.246094" xlink:href="#DejaVuSans-48"/>
      </g>
     </g>
    </g>
    <g id="xtick_4">
     <g id="line2d_4">
      <g>
       <use style="stroke:#000000;stroke-width:0.8;" x="195.730554" xlink:href="#m631aabfdc4" y="307.584"/>
      </g>
     </g>
     <g id="text_4">
      <!-- 300 -->
      <g transform="translate(186.186804 322.182437)scale(0.1 -0.1)">
       <defs>
        <path d="M 40.578125 39.3125 
Q 47.65625 37.796875 51.625 33 
Q 55.609375 28.21875 55.609375 21.1875 
Q 55.609375 10.40625 48.1875 4.484375 
Q 40.765625 -1.421875 27.09375 -1.421875 
Q 22.515625 -1.421875 17.65625 -0.515625 
Q 12.796875 0.390625 7.625 2.203125 
L 7.625 11.71875 
Q 11.71875 9.328125 16.59375 8.109375 
Q 21.484375 6.890625 26.8125 6.890625 
Q 36.078125 6.890625 40.9375 10.546875 
Q 45.796875 14.203125 45.796875 21.1875 
Q 45.796875 27.640625 41.28125 31.265625 
Q 36.765625 34.90625 28.71875 34.90625 
L 20.21875 34.90625 
L 20.21875 43.015625 
L 29.109375 43.015625 
Q 36.375 43.015625 40.234375 45.921875 
Q 44.09375 48.828125 44.09375 54.296875 
Q 44.09375 59.90625 40.109375 62.90625 
Q 36.140625 65.921875 28.71875 65.921875 
Q 24.65625 65.921875 20.015625 65.03125 
Q 15.375 64.15625 9.8125 62.3125 
L 9.8125 71.09375 
Q 15.4375 72.65625 20.34375 73.4375 
Q 25.25 74.21875 29.59375 74.21875 
Q 40.828125 74.21875 47.359375 69.109375 
Q 53.90625 64.015625 53.90625 55.328125 
Q 53.90625 49.265625 50.4375 45.09375 
Q 46.96875 40.921875 40.578125 39.3125 
z
" id="DejaVuSans-51"/>
       </defs>
       <use xlink:href="#DejaVuSans-51"/>
       <use x="63.623047" xlink:href="#DejaVuSans-48"/>
       <use x="127.246094" xlink:href="#DejaVuSans-48"/>
      </g>
     </g>
    </g>
    <g id="xtick_5">
     <g id="line2d_5">
      <g>
       <use style="stroke:#000000;stroke-width:0.8;" x="236.363163" xlink:href="#m631aabfdc4" y="307.584"/>
      </g>
     </g>
     <g id="text_5">
      <!-- 400 -->
      <g transform="translate(226.819413 322.182437)scale(0.1 -0.1)">
       <defs>
        <path d="M 37.796875 64.3125 
L 12.890625 25.390625 
L 37.796875 25.390625 
z
M 35.203125 72.90625 
L 47.609375 72.90625 
L 47.609375 25.390625 
L 58.015625 25.390625 
L 58.015625 17.1875 
L 47.609375 17.1875 
L 47.609375 0 
L 37.796875 0 
L 37.796875 17.1875 
L 4.890625 17.1875 
L 4.890625 26.703125 
z
" id="DejaVuSans-52"/>
       </defs>
       <use xlink:href="#DejaVuSans-52"/>
       <use x="63.623047" xlink:href="#DejaVuSans-48"/>
       <use x="127.246094" xlink:href="#DejaVuSans-48"/>
      </g>
     </g>
    </g>
    <g id="xtick_6">
     <g id="line2d_6">
      <g>
       <use style="stroke:#000000;stroke-width:0.8;" x="276.995772" xlink:href="#m631aabfdc4" y="307.584"/>
      </g>
     </g>
     <g id="text_6">
      <!-- 500 -->
      <g transform="translate(267.452022 322.182437)scale(0.1 -0.1)">
       <defs>
        <path d="M 10.796875 72.90625 
L 49.515625 72.90625 
L 49.515625 64.59375 
L 19.828125 64.59375 
L 19.828125 46.734375 
Q 21.96875 47.46875 24.109375 47.828125 
Q 26.265625 48.1875 28.421875 48.1875 
Q 40.625 48.1875 47.75 41.5 
Q 54.890625 34.8125 54.890625 23.390625 
Q 54.890625 11.625 47.5625 5.09375 
Q 40.234375 -1.421875 26.90625 -1.421875 
Q 22.3125 -1.421875 17.546875 -0.640625 
Q 12.796875 0.140625 7.71875 1.703125 
L 7.71875 11.625 
Q 12.109375 9.234375 16.796875 8.0625 
Q 21.484375 6.890625 26.703125 6.890625 
Q 35.15625 6.890625 40.078125 11.328125 
Q 45.015625 15.765625 45.015625 23.390625 
Q 45.015625 31 40.078125 35.4375 
Q 35.15625 39.890625 26.703125 39.890625 
Q 22.75 39.890625 18.8125 39.015625 
Q 14.890625 38.140625 10.796875 36.28125 
z
" id="DejaVuSans-53"/>
       </defs>
       <use xlink:href="#DejaVuSans-53"/>
       <use x="63.623047" xlink:href="#DejaVuSans-48"/>
       <use x="127.246094" xlink:href="#DejaVuSans-48"/>
      </g>
     </g>
    </g>
    <g id="xtick_7">
     <g id="line2d_7">
      <g>
       <use style="stroke:#000000;stroke-width:0.8;" x="317.628381" xlink:href="#m631aabfdc4" y="307.584"/>
      </g>
     </g>
     <g id="text_7">
      <!-- 600 -->
      <g transform="translate(308.084631 322.182437)scale(0.1 -0.1)">
       <defs>
        <path d="M 33.015625 40.375 
Q 26.375 40.375 22.484375 35.828125 
Q 18.609375 31.296875 18.609375 23.390625 
Q 18.609375 15.53125 22.484375 10.953125 
Q 26.375 6.390625 33.015625 6.390625 
Q 39.65625 6.390625 43.53125 10.953125 
Q 47.40625 15.53125 47.40625 23.390625 
Q 47.40625 31.296875 43.53125 35.828125 
Q 39.65625 40.375 33.015625 40.375 
z
M 52.59375 71.296875 
L 52.59375 62.3125 
Q 48.875 64.0625 45.09375 64.984375 
Q 41.3125 65.921875 37.59375 65.921875 
Q 27.828125 65.921875 22.671875 59.328125 
Q 17.53125 52.734375 16.796875 39.40625 
Q 19.671875 43.65625 24.015625 45.921875 
Q 28.375 48.1875 33.59375 48.1875 
Q 44.578125 48.1875 50.953125 41.515625 
Q 57.328125 34.859375 57.328125 23.390625 
Q 57.328125 12.15625 50.6875 5.359375 
Q 44.046875 -1.421875 33.015625 -1.421875 
Q 20.359375 -1.421875 13.671875 8.265625 
Q 6.984375 17.96875 6.984375 36.375 
Q 6.984375 53.65625 15.1875 63.9375 
Q 23.390625 74.21875 37.203125 74.21875 
Q 40.921875 74.21875 44.703125 73.484375 
Q 48.484375 72.75 52.59375 71.296875 
z
" id="DejaVuSans-54"/>
       </defs>
       <use xlink:href="#DejaVuSans-54"/>
       <use x="63.623047" xlink:href="#DejaVuSans-48"/>
       <use x="127.246094" xlink:href="#DejaVuSans-48"/>
      </g>
     </g>
    </g>
    <g id="xtick_8">
     <g id="line2d_8">
      <g>
       <use style="stroke:#000000;stroke-width:0.8;" x="358.26099" xlink:href="#m631aabfdc4" y="307.584"/>
      </g>
     </g>
     <g id="text_8">
      <!-- 700 -->
      <g transform="translate(348.71724 322.182437)scale(0.1 -0.1)">
       <defs>
        <path d="M 8.203125 72.90625 
L 55.078125 72.90625 
L 55.078125 68.703125 
L 28.609375 0 
L 18.3125 0 
L 43.21875 64.59375 
L 8.203125 64.59375 
z
" id="DejaVuSans-55"/>
       </defs>
       <use xlink:href="#DejaVuSans-55"/>
       <use x="63.623047" xlink:href="#DejaVuSans-48"/>
       <use x="127.246094" xlink:href="#DejaVuSans-48"/>
      </g>
     </g>
    </g>
    <g id="xtick_9">
     <g id="line2d_9">
      <g>
       <use style="stroke:#000000;stroke-width:0.8;" x="398.893599" xlink:href="#m631aabfdc4" y="307.584"/>
      </g>
     </g>
     <g id="text_9">
      <!-- 800 -->
      <g transform="translate(389.349849 322.182437)scale(0.1 -0.1)">
       <defs>
        <path d="M 31.78125 34.625 
Q 24.75 34.625 20.71875 30.859375 
Q 16.703125 27.09375 16.703125 20.515625 
Q 16.703125 13.921875 20.71875 10.15625 
Q 24.75 6.390625 31.78125 6.390625 
Q 38.8125 6.390625 42.859375 10.171875 
Q 46.921875 13.96875 46.921875 20.515625 
Q 46.921875 27.09375 42.890625 30.859375 
Q 38.875 34.625 31.78125 34.625 
z
M 21.921875 38.8125 
Q 15.578125 40.375 12.03125 44.71875 
Q 8.5 49.078125 8.5 55.328125 
Q 8.5 64.0625 14.71875 69.140625 
Q 20.953125 74.21875 31.78125 74.21875 
Q 42.671875 74.21875 48.875 69.140625 
Q 55.078125 64.0625 55.078125 55.328125 
Q 55.078125 49.078125 51.53125 44.71875 
Q 48 40.375 41.703125 38.8125 
Q 48.828125 37.15625 52.796875 32.3125 
Q 56.78125 27.484375 56.78125 20.515625 
Q 56.78125 9.90625 50.3125 4.234375 
Q 43.84375 -1.421875 31.78125 -1.421875 
Q 19.734375 -1.421875 13.25 4.234375 
Q 6.78125 9.90625 6.78125 20.515625 
Q 6.78125 27.484375 10.78125 32.3125 
Q 14.796875 37.15625 21.921875 38.8125 
z
M 18.3125 54.390625 
Q 18.3125 48.734375 21.84375 45.5625 
Q 25.390625 42.390625 31.78125 42.390625 
Q 38.140625 42.390625 41.71875 45.5625 
Q 45.3125 48.734375 45.3125 54.390625 
Q 45.3125 60.0625 41.71875 63.234375 
Q 38.140625 66.40625 31.78125 66.40625 
Q 25.390625 66.40625 21.84375 63.234375 
Q 18.3125 60.0625 18.3125 54.390625 
z
" id="DejaVuSans-56"/>
       </defs>
       <use xlink:href="#DejaVuSans-56"/>
       <use x="63.623047" xlink:href="#DejaVuSans-48"/>
       <use x="127.246094" xlink:href="#DejaVuSans-48"/>
      </g>
     </g>
    </g>
   </g>
   <g id="matplotlib.axis_2">
    <g id="ytick_1">
     <g id="line2d_10">
      <defs>
       <path d="M 0 0 
L -3.5 0 
" id="mfc39aabea1" style="stroke:#000000;stroke-width:0.8;"/>
      </defs>
      <g>
       <use style="stroke:#000000;stroke-width:0.8;" x="57.6" xlink:href="#mfc39aabea1" y="274.798028"/>
      </g>
     </g>
     <g id="text_10">
      <!-- 0.10 -->
      <g transform="translate(28.334375 278.597247)scale(0.1 -0.1)">
       <defs>
        <path d="M 10.6875 12.40625 
L 21 12.40625 
L 21 0 
L 10.6875 0 
z
" id="DejaVuSans-46"/>
       </defs>
       <use xlink:href="#DejaVuSans-48"/>
       <use x="63.623047" xlink:href="#DejaVuSans-46"/>
       <use x="95.410156" xlink:href="#DejaVuSans-49"/>
       <use x="159.033203" xlink:href="#DejaVuSans-48"/>
      </g>
     </g>
    </g>
    <g id="ytick_2">
     <g id="line2d_11">
      <g>
       <use style="stroke:#000000;stroke-width:0.8;" x="57.6" xlink:href="#mfc39aabea1" y="237.712543"/>
      </g>
     </g>
     <g id="text_11">
      <!-- 0.15 -->
      <g transform="translate(28.334375 241.511762)scale(0.1 -0.1)">
       <use xlink:href="#DejaVuSans-48"/>
       <use x="63.623047" xlink:href="#DejaVuSans-46"/>
       <use x="95.410156" xlink:href="#DejaVuSans-49"/>
       <use x="159.033203" xlink:href="#DejaVuSans-53"/>
      </g>
     </g>
    </g>
    <g id="ytick_3">
     <g id="line2d_12">
      <g>
       <use style="stroke:#000000;stroke-width:0.8;" x="57.6" xlink:href="#mfc39aabea1" y="200.627057"/>
      </g>
     </g>
     <g id="text_12">
      <!-- 0.20 -->
      <g transform="translate(28.334375 204.426276)scale(0.1 -0.1)">
       <use xlink:href="#DejaVuSans-48"/>
       <use x="63.623047" xlink:href="#DejaVuSans-46"/>
       <use x="95.410156" xlink:href="#DejaVuSans-50"/>
       <use x="159.033203" xlink:href="#DejaVuSans-48"/>
      </g>
     </g>
    </g>
    <g id="ytick_4">
     <g id="line2d_13">
      <g>
       <use style="stroke:#000000;stroke-width:0.8;" x="57.6" xlink:href="#mfc39aabea1" y="163.541572"/>
      </g>
     </g>
     <g id="text_13">
      <!-- 0.25 -->
      <g transform="translate(28.334375 167.340791)scale(0.1 -0.1)">
       <use xlink:href="#DejaVuSans-48"/>
       <use x="63.623047" xlink:href="#DejaVuSans-46"/>
       <use x="95.410156" xlink:href="#DejaVuSans-50"/>
       <use x="159.033203" xlink:href="#DejaVuSans-53"/>
      </g>
     </g>
    </g>
    <g id="ytick_5">
     <g id="line2d_14">
      <g>
       <use style="stroke:#000000;stroke-width:0.8;" x="57.6" xlink:href="#mfc39aabea1" y="126.456086"/>
      </g>
     </g>
     <g id="text_14">
      <!-- 0.30 -->
      <g transform="translate(28.334375 130.255305)scale(0.1 -0.1)">
       <use xlink:href="#DejaVuSans-48"/>
       <use x="63.623047" xlink:href="#DejaVuSans-46"/>
       <use x="95.410156" xlink:href="#DejaVuSans-51"/>
       <use x="159.033203" xlink:href="#DejaVuSans-48"/>
      </g>
     </g>
    </g>
    <g id="ytick_6">
     <g id="line2d_15">
      <g>
       <use style="stroke:#000000;stroke-width:0.8;" x="57.6" xlink:href="#mfc39aabea1" y="89.370601"/>
      </g>
     </g>
     <g id="text_15">
      <!-- 0.35 -->
      <g transform="translate(28.334375 93.16982)scale(0.1 -0.1)">
       <use xlink:href="#DejaVuSans-48"/>
       <use x="63.623047" xlink:href="#DejaVuSans-46"/>
       <use x="95.410156" xlink:href="#DejaVuSans-51"/>
       <use x="159.033203" xlink:href="#DejaVuSans-53"/>
      </g>
     </g>
    </g>
    <g id="ytick_7">
     <g id="line2d_16">
      <g>
       <use style="stroke:#000000;stroke-width:0.8;" x="57.6" xlink:href="#mfc39aabea1" y="52.285116"/>
      </g>
     </g>
     <g id="text_16">
      <!-- 0.40 -->
      <g transform="translate(28.334375 56.084334)scale(0.1 -0.1)">
       <use xlink:href="#DejaVuSans-48"/>
       <use x="63.623047" xlink:href="#DejaVuSans-46"/>
       <use x="95.410156" xlink:href="#DejaVuSans-52"/>
       <use x="159.033203" xlink:href="#DejaVuSans-48"/>
      </g>
     </g>
    </g>
   </g>
   <g id="line2d_17">
    <path clip-path="url(#p778161d880)" d="M 73.832727 61.254015 
L 74.239053 53.568 
L 75.051706 57.819701 
L 75.458032 73.294806 
L 75.864358 56.118083 
L 76.270684 62.228522 
L 76.67701 59.771654 
L 77.083336 72.814361 
L 77.489662 76.288066 
L 77.895988 74.178706 
L 78.302314 85.075845 
L 78.70864 90.19301 
L 79.114966 86.818488 
L 79.521293 84.875068 
L 79.927619 90.467041 
L 80.333945 90.11571 
L 80.740271 74.451654 
L 81.146597 75.134401 
L 81.552923 92.761285 
L 81.959249 94.968481 
L 82.365575 91.271408 
L 82.771901 96.176921 
L 83.178227 96.330902 
L 83.99088 102.457367 
L 84.397206 109.308953 
L 84.803532 99.737785 
L 85.209858 99.432365 
L 85.616184 120.015263 
L 86.02251 105.01028 
L 86.428836 119.713799 
L 86.835162 100.128728 
L 87.241488 118.195473 
L 87.647814 108.718979 
L 88.05414 123.192809 
L 88.460466 123.963046 
L 88.866793 126.780928 
L 89.679445 140.476187 
L 90.085771 134.656889 
L 90.492097 124.378017 
L 90.898423 135.21848 
L 91.304749 123.5916 
L 91.711075 136.738685 
L 92.117401 129.715765 
L 92.523727 136.064514 
L 92.930053 139.063809 
L 93.33638 139.391157 
L 93.742706 137.310798 
L 94.149032 145.000372 
L 94.555358 145.407894 
L 94.961684 158.425379 
L 95.36801 134.42952 
L 95.774336 143.493209 
L 96.180662 137.863171 
L 96.586988 144.45768 
L 96.993314 152.96442 
L 97.39964 154.743338 
L 97.805967 161.575693 
L 98.212293 164.34742 
L 98.618619 165.473277 
L 99.024945 167.586185 
L 99.431271 170.677104 
L 99.837597 160.220013 
L 100.243923 163.685219 
L 100.650249 173.897169 
L 101.462901 169.179578 
L 101.869227 177.186344 
L 102.275554 191.444642 
L 102.68188 176.101712 
L 103.088206 177.475318 
L 103.494532 181.721338 
L 103.900858 180.955445 
L 104.307184 189.25377 
L 104.71351 184.835953 
L 105.119836 191.063778 
L 105.526162 194.688425 
L 105.932488 193.645737 
L 106.338814 187.795813 
L 106.745141 206.724109 
L 107.151467 189.590767 
L 107.557793 201.946129 
L 107.964119 192.834186 
L 108.370445 201.754007 
L 108.776771 196.141708 
L 109.183097 206.89646 
L 109.589423 207.98643 
L 109.995749 197.486755 
L 110.402075 202.852598 
L 110.808401 203.45264 
L 111.214728 193.123602 
L 111.621054 207.850884 
L 112.02738 218.030108 
L 112.433706 208.918772 
L 112.840032 210.615725 
L 113.246358 220.772446 
L 113.652684 211.207534 
L 114.05901 232.848273 
L 114.871662 229.047485 
L 115.277988 239.379783 
L 115.684314 220.882329 
L 116.090641 231.038187 
L 116.496967 228.307818 
L 117.309619 227.475312 
L 117.715945 228.757704 
L 118.122271 225.737487 
L 118.528597 225.990044 
L 118.934923 245.464172 
L 119.341249 238.557169 
L 119.747575 229.046744 
L 120.153901 233.7269 
L 120.560228 232.865813 
L 120.966554 233.670091 
L 121.37288 236.751991 
L 121.779206 243.115097 
L 122.185532 239.666492 
L 122.591858 244.936511 
L 122.998184 248.491108 
L 123.40451 243.811427 
L 123.810836 251.604662 
L 124.217162 248.298057 
L 124.623488 239.311966 
L 125.029815 251.744794 
L 125.436141 252.680043 
L 125.842467 247.106018 
L 126.248793 256.750159 
L 126.655119 256.711001 
L 127.061445 259.843537 
L 127.467771 239.568999 
L 127.874097 254.046974 
L 128.686749 256.274108 
L 129.093075 253.573116 
L 129.499402 258.858044 
L 129.905728 268.426101 
L 130.312054 262.512018 
L 130.71838 262.527497 
L 131.124706 264.672612 
L 131.531032 264.834645 
L 131.937358 256.3351 
L 132.75001 266.306877 
L 133.156336 268.002896 
L 133.562662 257.082895 
L 133.968989 266.777784 
L 134.375315 263.807993 
L 134.781641 277.521947 
L 135.187967 268.114823 
L 135.594293 274.987398 
L 136.000619 272.985422 
L 136.406945 272.667109 
L 136.813271 270.174454 
L 137.219597 273.938736 
L 137.625923 261.55225 
L 138.438575 278.932231 
L 138.844902 280.211787 
L 139.251228 271.043294 
L 139.657554 277.197904 
L 140.470206 271.328655 
L 140.876532 282.51636 
L 141.282858 275.363105 
L 141.689184 280.7402 
L 142.09551 283.186573 
L 142.501836 284.006358 
L 142.908162 271.730396 
L 143.314489 277.922622 
L 143.720815 279.223819 
L 144.533467 273.631619 
L 144.939793 276.109304 
L 145.346119 289.764736 
L 146.158771 272.720475 
L 146.565097 283.596587 
L 146.971423 277.210752 
L 147.377749 277.42892 
L 147.784076 281.280482 
L 148.596728 279.963066 
L 149.003054 274.650047 
L 149.40938 287.122421 
L 149.815706 286.495051 
L 150.222032 286.542167 
L 151.44101 277.521417 
L 151.847336 278.996749 
L 152.253663 277.589007 
L 152.659989 285.691392 
L 153.066315 285.163007 
L 153.472641 278.902539 
L 153.878967 278.606679 
L 154.285293 287.731592 
L 154.691619 276.974133 
L 155.097945 287.910027 
L 155.504271 281.050759 
L 155.910597 280.843064 
L 156.316923 283.783422 
L 156.72325 284.783011 
L 157.129576 281.510857 
L 157.535902 280.715945 
L 157.942228 273.777537 
L 158.348554 282.130523 
L 158.75488 277.50323 
L 159.567532 286.347508 
L 160.380184 279.290371 
L 160.78651 281.996834 
L 161.192837 276.70377 
L 161.599163 282.633476 
L 162.005489 278.651037 
L 162.411815 293.459416 
L 163.224467 278.785307 
L 164.037119 280.203995 
L 164.443445 281.640346 
L 164.849771 279.918961 
L 165.256097 290.73034 
L 166.06875 274.012753 
L 166.475076 273.447354 
L 166.881402 279.203671 
L 167.287728 291.275966 
L 167.694054 281.987434 
L 168.10038 286.355897 
L 168.506706 286.271313 
L 168.913032 285.374245 
L 169.319358 286.024763 
L 169.725684 284.510273 
L 170.13201 280.402219 
L 170.538337 283.823348 
L 170.944663 291.619776 
L 171.350989 282.564658 
L 171.757315 286.544339 
L 172.163641 281.494195 
L 172.569967 278.081096 
L 172.976293 285.452247 
L 173.382619 286.890034 
L 173.788945 280.598415 
L 174.195271 282.862834 
L 174.601597 275.799452 
L 175.007924 289.715851 
L 175.41425 283.070944 
L 175.820576 287.696241 
L 176.226902 280.122131 
L 176.633228 288.615475 
L 177.039554 277.631846 
L 177.44588 282.061744 
L 177.852206 285.148286 
L 178.258532 283.114893 
L 178.664858 285.011314 
L 179.071184 282.11458 
L 179.477511 282.652104 
L 179.883837 280.895623 
L 180.290163 273.920582 
L 180.696489 277.760092 
L 181.102815 285.53205 
L 181.509141 282.464994 
L 181.915467 281.643496 
L 182.321793 285.168749 
L 182.728119 282.786777 
L 183.134445 275.449618 
L 183.540771 282.860618 
L 183.947098 276.189058 
L 184.353424 285.266529 
L 185.166076 278.68357 
L 185.572402 290.313434 
L 185.978728 282.645125 
L 186.79138 278.125454 
L 187.604032 287.780764 
L 188.010358 280.525237 
L 188.416684 276.539151 
L 188.823011 273.900793 
L 189.229337 283.268051 
L 189.635663 282.076919 
L 190.041989 284.310098 
L 190.448315 280.161195 
L 190.854641 289.149447 
L 191.260967 283.707735 
L 191.667293 290.232664 
L 192.073619 285.640794 
L 192.479945 266.726075 
L 192.886271 273.54105 
L 193.292598 292.069275 
L 193.698924 286.845377 
L 194.10525 290.044194 
L 194.511576 286.76643 
L 194.917902 284.769848 
L 195.730554 278.658337 
L 196.13688 275.275107 
L 196.543206 287.281431 
L 196.949532 289.447766 
L 197.355858 287.200085 
L 197.762185 282.721729 
L 198.168511 282.278873 
L 198.574837 281.582498 
L 198.981163 281.978293 
L 199.387489 282.603325 
L 199.793815 282.275971 
L 200.200141 284.198442 
L 200.606467 289.668122 
L 201.012793 286.386164 
L 201.419119 285.652836 
L 201.825445 274.05804 
L 202.231772 286.248424 
L 202.638098 283.611475 
L 203.044424 285.923093 
L 203.45075 281.701487 
L 203.857076 276.005766 
L 204.263402 282.78156 
L 204.669728 275.118009 
L 205.076054 282.475046 
L 205.48238 281.385744 
L 205.888706 279.596244 
L 206.295032 279.606589 
L 206.701359 276.871987 
L 207.107685 283.090479 
L 207.514011 277.779472 
L 207.920337 285.421654 
L 208.732989 273.183695 
L 209.139315 279.711006 
L 209.545641 278.273434 
L 210.358293 282.788523 
L 210.764619 280.370455 
L 211.170946 275.750341 
L 211.577272 286.070249 
L 211.983598 288.555052 
L 212.389924 284.949128 
L 212.79625 285.51288 
L 213.202576 280.023765 
L 213.608902 285.46357 
L 214.015228 283.969432 
L 214.421554 279.28411 
L 214.82788 285.433784 
L 215.234206 283.072049 
L 215.640532 284.223094 
L 216.046859 277.687384 
L 216.453185 280.503204 
L 216.859511 270.759144 
L 217.265837 283.917928 
L 217.672163 278.352608 
L 218.078489 282.8442 
L 218.484815 285.594689 
L 218.891141 286.56761 
L 219.297467 272.475268 
L 219.703793 284.126895 
L 220.110119 272.021597 
L 220.516446 274.386245 
L 220.922772 274.417816 
L 221.329098 283.34791 
L 221.735424 279.627384 
L 222.14175 290.651415 
L 222.548076 270.547603 
L 222.954402 294.916942 
L 223.767054 278.195383 
L 224.579706 284.287474 
L 224.986033 281.057705 
L 225.392359 282.295329 
L 225.798685 285.1926 
L 226.205011 284.013139 
L 226.611337 272.9937 
L 227.017663 282.658498 
L 227.423989 286.50496 
L 227.830315 276.389055 
L 228.642967 283.482196 
L 229.049293 282.299424 
L 229.45562 287.895476 
L 230.268272 277.584945 
L 231.080924 290.365441 
L 231.48725 280.215495 
L 231.893576 286.03092 
L 232.299902 278.993206 
L 232.706228 285.721465 
L 233.112554 277.477848 
L 233.51888 293.849287 
L 233.925207 280.649791 
L 234.331533 284.846651 
L 234.737859 275.540098 
L 235.144185 275.058288 
L 235.550511 282.718087 
L 235.956837 273.127666 
L 236.363163 288.190049 
L 236.769489 281.714076 
L 237.175815 273.395353 
L 237.582141 278.472956 
L 237.988467 264.103582 
L 238.394793 282.459059 
L 238.80112 285.657312 
L 239.207446 290.249171 
L 239.613772 290.616639 
L 240.020098 282.282045 
L 240.426424 280.556471 
L 240.83275 274.692383 
L 241.239076 281.537758 
L 242.051728 284.873447 
L 242.458054 281.918937 
L 242.86438 290.182188 
L 243.270707 276.24338 
L 243.677033 288.327976 
L 244.083359 281.770642 
L 244.489685 284.749108 
L 244.896011 285.782004 
L 245.302337 284.234998 
L 245.708663 276.576099 
L 246.114989 284.566861 
L 246.521315 284.064598 
L 246.927641 278.097 
L 247.333967 284.83189 
L 247.740294 285.500242 
L 248.14662 282.119857 
L 248.552946 286.705002 
L 248.959272 281.4045 
L 249.365598 284.938871 
L 249.771924 271.066488 
L 250.584576 279.742831 
L 250.990902 289.584063 
L 251.397228 289.775722 
L 251.803554 280.382441 
L 252.209881 281.084889 
L 252.616207 279.273814 
L 253.022533 285.743763 
L 253.428859 287.143287 
L 253.835185 280.54853 
L 254.241511 285.336021 
L 254.647837 270.586142 
L 255.054163 274.432129 
L 255.460489 289.472611 
L 255.866815 278.406521 
L 256.679468 286.785645 
L 257.085794 289.129403 
L 257.49212 280.964827 
L 257.898446 279.545 
L 258.304772 279.615381 
L 258.711098 285.803661 
L 259.117424 279.398954 
L 259.52375 278.604733 
L 259.930076 288.483162 
L 260.336402 289.110935 
L 260.742728 281.364944 
L 261.149054 282.160784 
L 261.555381 287.546576 
L 261.961707 286.725951 
L 262.368033 286.607708 
L 262.774359 288.606092 
L 263.180685 281.671547 
L 263.587011 286.098366 
L 263.993337 277.092056 
L 264.399663 290.792658 
L 264.805989 280.061581 
L 265.212315 281.089442 
L 265.618641 280.10899 
L 266.431294 287.133528 
L 266.83762 273.271871 
L 267.650272 282.722243 
L 268.056598 278.993521 
L 268.462924 281.317927 
L 268.86925 281.328217 
L 269.275576 278.382858 
L 269.681902 272.086353 
L 270.088228 286.732456 
L 270.900881 282.887132 
L 271.307207 282.42163 
L 271.713533 287.402481 
L 272.119859 274.757205 
L 272.526185 280.49927 
L 272.932511 280.767311 
L 273.338837 288.513993 
L 273.745163 287.123697 
L 274.151489 279.568818 
L 274.557815 282.204468 
L 274.964142 284.069671 
L 275.370468 278.645832 
L 275.776794 284.729662 
L 276.18312 283.958153 
L 276.589446 282.236653 
L 276.995772 277.530065 
L 277.402098 287.595311 
L 277.808424 272.599082 
L 278.21475 274.406233 
L 278.621076 281.404782 
L 279.027402 271.174215 
L 279.433729 283.293687 
L 279.840055 283.149951 
L 280.246381 283.897426 
L 280.652707 279.232799 
L 281.059033 285.899944 
L 281.465359 284.340879 
L 281.871685 281.147008 
L 282.278011 290.342596 
L 282.684337 281.832988 
L 283.090663 281.532337 
L 283.496989 285.295862 
L 283.903316 273.28378 
L 284.309642 275.464671 
L 284.715968 283.340897 
L 285.122294 281.493477 
L 285.52862 289.989944 
L 285.934946 284.340736 
L 286.341272 275.43242 
L 286.747598 287.972975 
L 287.153924 275.523149 
L 287.56025 274.976699 
L 288.372902 287.507711 
L 288.779229 279.023098 
L 289.185555 277.655189 
L 289.591881 279.572288 
L 289.998207 292.688432 
L 290.404533 279.553466 
L 290.810859 281.364817 
L 291.217185 285.917285 
L 291.623511 282.353128 
L 292.029837 285.216965 
L 292.436163 285.718061 
L 292.842489 279.528532 
L 293.248816 279.333795 
L 293.655142 286.921384 
L 294.061468 275.256705 
L 294.467794 277.438259 
L 294.87412 285.873617 
L 295.280446 285.434464 
L 295.686772 279.17326 
L 296.093098 293.330009 
L 296.499424 283.291045 
L 296.90575 277.507828 
L 297.312076 280.878812 
L 297.718403 268.747155 
L 298.124729 285.074837 
L 298.531055 284.288071 
L 298.937381 275.726783 
L 299.343707 263.436309 
L 299.750033 282.329426 
L 300.156359 277.941455 
L 300.562685 280.231941 
L 300.969011 286.215864 
L 301.375337 278.174731 
L 301.781663 276.273862 
L 302.18799 285.898336 
L 302.594316 266.798258 
L 303.000642 280.924398 
L 303.406968 279.360067 
L 303.813294 288.544768 
L 304.21962 289.606124 
L 304.625946 288.901974 
L 305.032272 277.55758 
L 305.438598 283.26809 
L 305.844924 271.461526 
L 306.25125 290.884359 
L 306.657577 291.666964 
L 307.063903 271.421174 
L 307.470229 288.415024 
L 307.876555 285.71443 
L 308.282881 279.822137 
L 308.689207 290.200347 
L 309.095533 280.791565 
L 309.501859 284.046876 
L 309.908185 277.809894 
L 310.720837 290.237455 
L 311.127163 279.064328 
L 311.939816 285.869014 
L 312.346142 277.889879 
L 312.752468 286.994158 
L 313.158794 281.015248 
L 313.56512 283.095922 
L 313.971446 276.862222 
L 314.377772 283.289426 
L 314.784098 285.416542 
L 315.190424 286.792702 
L 315.59675 276.51782 
L 316.003077 274.27602 
L 316.409403 287.07263 
L 316.815729 283.452376 
L 317.222055 288.623809 
L 317.628381 279.71388 
L 318.034707 281.322304 
L 318.441033 276.452545 
L 318.847359 279.396954 
L 319.253685 287.260348 
L 319.660011 289.244779 
L 320.066337 294.315574 
L 320.472664 282.628519 
L 320.87899 280.746952 
L 321.285316 279.469208 
L 321.691642 277.649906 
L 322.097968 289.02555 
L 322.504294 274.07768 
L 322.91062 277.803528 
L 323.316946 292.60859 
L 323.723272 283.844414 
L 324.129598 280.04918 
L 324.535924 279.676396 
L 324.942251 273.581563 
L 325.348577 285.609196 
L 325.754903 289.202829 
L 326.161229 288.393445 
L 326.567555 276.040901 
L 326.973881 278.085495 
L 327.380207 282.292937 
L 327.786533 292.33389 
L 328.599185 281.105816 
L 329.005511 283.037461 
L 329.818164 277.031417 
L 330.22449 269.267985 
L 330.630816 284.061885 
L 331.037142 283.69991 
L 331.443468 290.171644 
L 331.849794 277.666832 
L 332.25612 285.222712 
L 332.662446 289.608776 
L 333.068772 283.992388 
L 333.475098 281.128645 
L 333.881425 282.779295 
L 334.287751 275.752789 
L 334.694077 283.057902 
L 335.100403 282.026172 
L 335.506729 280.016294 
L 335.913055 274.641399 
L 336.319381 280.986208 
L 336.725707 279.046435 
L 337.132033 280.005263 
L 337.538359 283.081162 
L 337.944685 282.009162 
L 338.351011 273.639632 
L 338.757338 283.392191 
L 339.163664 282.130666 
L 339.56999 283.648931 
L 339.976316 279.729215 
L 340.382642 279.481908 
L 341.195294 281.038248 
L 341.60162 278.613841 
L 342.414272 283.329353 
L 342.820598 277.922849 
L 343.633251 286.068459 
L 344.039577 283.186098 
L 344.445903 288.486478 
L 344.852229 283.092114 
L 345.258555 290.356936 
L 345.664881 277.762214 
L 346.071207 288.317068 
L 346.477533 285.188997 
L 346.883859 283.668444 
L 347.290185 276.464559 
L 347.696512 285.54596 
L 348.102838 286.708433 
L 348.509164 276.670077 
L 348.91549 274.395706 
L 349.321816 283.640686 
L 349.728142 283.479482 
L 350.134468 282.131142 
L 350.540794 279.235242 
L 350.94712 286.957481 
L 351.353446 281.859132 
L 351.759772 286.705853 
L 352.166099 283.04533 
L 352.572425 282.151682 
L 352.978751 278.356421 
L 353.791403 281.351637 
L 354.197729 278.015688 
L 354.604055 287.137573 
L 355.010381 280.121379 
L 355.416707 275.916231 
L 355.823033 278.451123 
L 356.229359 283.670019 
L 356.635686 283.025828 
L 357.042012 283.75563 
L 357.448338 291.536884 
L 357.854664 279.914761 
L 358.26099 284.686397 
L 358.667316 284.724473 
L 359.479968 272.475865 
L 359.886294 278.941437 
L 360.29262 279.372871 
L 360.698946 277.949767 
L 361.105272 282.344634 
L 361.511599 271.778921 
L 361.917925 278.014699 
L 362.324251 281.360611 
L 362.730577 275.675362 
L 363.136903 285.046831 
L 363.543229 283.023551 
L 364.355881 288.188689 
L 364.762207 281.104374 
L 365.168533 285.66795 
L 365.574859 284.569961 
L 365.981186 277.96346 
L 366.387512 287.115297 
L 366.793838 279.157781 
L 367.200164 285.583952 
L 367.60649 279.630838 
L 368.012816 275.621382 
L 368.419142 282.326259 
L 368.825468 285.92637 
L 369.231794 295.488 
L 369.63812 274.499697 
L 370.044446 276.351096 
L 370.450773 280.972807 
L 370.857099 287.113098 
L 371.263425 287.776813 
L 372.076077 276.545401 
L 372.482403 291.498659 
L 372.888729 280.572889 
L 373.701381 287.977965 
L 374.107707 283.61321 
L 374.514033 288.190004 
L 374.92036 287.539702 
L 375.326686 284.899486 
L 375.733012 278.906573 
L 376.139338 278.029338 
L 376.545664 287.543271 
L 376.95199 281.597176 
L 377.358316 283.449829 
L 377.764642 283.690748 
L 378.170968 281.017265 
L 378.577294 286.974601 
L 378.98362 279.154698 
L 379.389947 288.274704 
L 379.796273 293.423462 
L 380.608925 284.77323 
L 381.015251 284.641398 
L 381.421577 284.103155 
L 381.827903 280.471887 
L 382.234229 274.478117 
L 382.640555 282.889735 
L 383.046881 283.289896 
L 383.453207 288.290818 
L 384.26586 278.026691 
L 384.672186 283.394064 
L 385.078512 281.029738 
L 385.484838 280.910356 
L 385.891164 281.089171 
L 386.29749 282.262907 
L 386.703816 280.140295 
L 387.110142 274.482726 
L 387.516468 289.66049 
L 387.922794 282.749083 
L 388.32912 278.806444 
L 388.735447 277.445957 
L 389.141773 280.41352 
L 389.548099 273.810976 
L 389.954425 286.242179 
L 390.360751 274.589497 
L 390.767077 275.049026 
L 391.173403 289.31952 
L 391.579729 284.053684 
L 391.986055 277.000868 
L 392.392381 284.172397 
L 392.798707 274.174742 
L 393.205034 283.558064 
L 393.61136 284.225703 
L 394.017686 281.610217 
L 394.424012 285.087896 
L 394.830338 283.253523 
L 395.236664 275.105851 
L 395.64299 276.642402 
L 396.049316 284.346776 
L 396.455642 287.583065 
L 396.861968 288.609374 
L 397.268294 278.78335 
L 397.674621 284.616143 
L 398.080947 282.232071 
L 398.487273 278.746999 
L 398.487273 278.746999 
" style="fill:none;stroke:#1f77b4;stroke-linecap:square;stroke-width:1.5;"/>
   </g>
   <g id="patch_3">
    <path d="M 57.6 307.584 
L 57.6 41.472 
" style="fill:none;stroke:#000000;stroke-linecap:square;stroke-linejoin:miter;stroke-width:0.8;"/>
   </g>
   <g id="patch_4">
    <path d="M 414.72 307.584 
L 414.72 41.472 
" style="fill:none;stroke:#000000;stroke-linecap:square;stroke-linejoin:miter;stroke-width:0.8;"/>
   </g>
   <g id="patch_5">
    <path d="M 57.6 307.584 
L 414.72 307.584 
" style="fill:none;stroke:#000000;stroke-linecap:square;stroke-linejoin:miter;stroke-width:0.8;"/>
   </g>
   <g id="patch_6">
    <path d="M 57.6 41.472 
L 414.72 41.472 
" style="fill:none;stroke:#000000;stroke-linecap:square;stroke-linejoin:miter;stroke-width:0.8;"/>
   </g>
  </g>
 </g>
 <defs>
  <clipPath id="p778161d880">
   <rect height="266.112" width="357.12" x="57.6" y="41.472"/>
  </clipPath>
 </defs>
</svg>
