<?xml version="1.0" encoding="utf-8" standalone="no"?>
<!DOCTYPE svg PUBLIC "-//W3C//DTD SVG 1.1//EN"
  "http://www.w3.org/Graphics/SVG/1.1/DTD/svg11.dtd">
<!-- Created with matplotlib (https://matplotlib.org/) -->
<svg height="345.6pt" version="1.1" viewBox="0 0 460.8 345.6" width="460.8pt" xmlns="http://www.w3.org/2000/svg" xmlns:xlink="http://www.w3.org/1999/xlink">
 <metadata>
  <rdf:RDF xmlns:cc="http://creativecommons.org/ns#" xmlns:dc="http://purl.org/dc/elements/1.1/" xmlns:rdf="http://www.w3.org/1999/02/22-rdf-syntax-ns#">
   <cc:Work>
    <dc:type rdf:resource="http://purl.org/dc/dcmitype/StillImage"/>
    <dc:date>2021-05-24T00:09:57.198461</dc:date>
    <dc:format>image/svg+xml</dc:format>
    <dc:creator>
     <cc:Agent>
      <dc:title>Matplotlib v3.3.4, https://matplotlib.org/</dc:title>
     </cc:Agent>
    </dc:creator>
   </cc:Work>
  </rdf:RDF>
 </metadata>
 <defs>
  <style type="text/css">*{stroke-linecap:butt;stroke-linejoin:round;}</style>
 </defs>
 <g id="figure_1">
  <g id="patch_1">
   <path d="M 0 345.6 
L 460.8 345.6 
L 460.8 0 
L 0 0 
z
" style="fill:#ffffff;"/>
  </g>
  <g id="axes_1">
   <g id="patch_2">
    <path d="M 57.6 307.584 
L 414.72 307.584 
L 414.72 41.472 
L 57.6 41.472 
z
" style="fill:#ffffff;"/>
   </g>
   <g id="matplotlib.axis_1">
    <g id="xtick_1">
     <g id="line2d_1">
      <defs>
       <path d="M 0 0 
L 0 3.5 
" id="mc80b3fbd08" style="stroke:#000000;stroke-width:0.8;"/>
      </defs>
      <g>
       <use style="stroke:#000000;stroke-width:0.8;" x="73.832727" xlink:href="#mc80b3fbd08" y="307.584"/>
      </g>
     </g>
     <g id="text_1">
      <!-- 0 -->
      <g transform="translate(70.651477 322.182437)scale(0.1 -0.1)">
       <defs>
        <path d="M 31.78125 66.40625 
Q 24.171875 66.40625 20.328125 58.90625 
Q 16.5 51.421875 16.5 36.375 
Q 16.5 21.390625 20.328125 13.890625 
Q 24.171875 6.390625 31.78125 6.390625 
Q 39.453125 6.390625 43.28125 13.890625 
Q 47.125 21.390625 47.125 36.375 
Q 47.125 51.421875 43.28125 58.90625 
Q 39.453125 66.40625 31.78125 66.40625 
z
M 31.78125 74.21875 
Q 44.046875 74.21875 50.515625 64.515625 
Q 56.984375 54.828125 56.984375 36.375 
Q 56.984375 17.96875 50.515625 8.265625 
Q 44.046875 -1.421875 31.78125 -1.421875 
Q 19.53125 -1.421875 13.0625 8.265625 
Q 6.59375 17.96875 6.59375 36.375 
Q 6.59375 54.828125 13.0625 64.515625 
Q 19.53125 74.21875 31.78125 74.21875 
z
" id="DejaVuSans-48"/>
       </defs>
       <use xlink:href="#DejaVuSans-48"/>
      </g>
     </g>
    </g>
    <g id="xtick_2">
     <g id="line2d_2">
      <g>
       <use style="stroke:#000000;stroke-width:0.8;" x="114.434847" xlink:href="#mc80b3fbd08" y="307.584"/>
      </g>
     </g>
     <g id="text_2">
      <!-- 250 -->
      <g transform="translate(104.891097 322.182437)scale(0.1 -0.1)">
       <defs>
        <path d="M 19.1875 8.296875 
L 53.609375 8.296875 
L 53.609375 0 
L 7.328125 0 
L 7.328125 8.296875 
Q 12.9375 14.109375 22.625 23.890625 
Q 32.328125 33.6875 34.8125 36.53125 
Q 39.546875 41.84375 41.421875 45.53125 
Q 43.3125 49.21875 43.3125 52.78125 
Q 43.3125 58.59375 39.234375 62.25 
Q 35.15625 65.921875 28.609375 65.921875 
Q 23.96875 65.921875 18.8125 64.3125 
Q 13.671875 62.703125 7.8125 59.421875 
L 7.8125 69.390625 
Q 13.765625 71.78125 18.9375 73 
Q 24.125 74.21875 28.421875 74.21875 
Q 39.75 74.21875 46.484375 68.546875 
Q 53.21875 62.890625 53.21875 53.421875 
Q 53.21875 48.921875 51.53125 44.890625 
Q 49.859375 40.875 45.40625 35.40625 
Q 44.1875 33.984375 37.640625 27.21875 
Q 31.109375 20.453125 19.1875 8.296875 
z
" id="DejaVuSans-50"/>
        <path d="M 10.796875 72.90625 
L 49.515625 72.90625 
L 49.515625 64.59375 
L 19.828125 64.59375 
L 19.828125 46.734375 
Q 21.96875 47.46875 24.109375 47.828125 
Q 26.265625 48.1875 28.421875 48.1875 
Q 40.625 48.1875 47.75 41.5 
Q 54.890625 34.8125 54.890625 23.390625 
Q 54.890625 11.625 47.5625 5.09375 
Q 40.234375 -1.421875 26.90625 -1.421875 
Q 22.3125 -1.421875 17.546875 -0.640625 
Q 12.796875 0.140625 7.71875 1.703125 
L 7.71875 11.625 
Q 12.109375 9.234375 16.796875 8.0625 
Q 21.484375 6.890625 26.703125 6.890625 
Q 35.15625 6.890625 40.078125 11.328125 
Q 45.015625 15.765625 45.015625 23.390625 
Q 45.015625 31 40.078125 35.4375 
Q 35.15625 39.890625 26.703125 39.890625 
Q 22.75 39.890625 18.8125 39.015625 
Q 14.890625 38.140625 10.796875 36.28125 
z
" id="DejaVuSans-53"/>
       </defs>
       <use xlink:href="#DejaVuSans-50"/>
       <use x="63.623047" xlink:href="#DejaVuSans-53"/>
       <use x="127.246094" xlink:href="#DejaVuSans-48"/>
      </g>
     </g>
    </g>
    <g id="xtick_3">
     <g id="line2d_3">
      <g>
       <use style="stroke:#000000;stroke-width:0.8;" x="155.036966" xlink:href="#mc80b3fbd08" y="307.584"/>
      </g>
     </g>
     <g id="text_3">
      <!-- 500 -->
      <g transform="translate(145.493216 322.182437)scale(0.1 -0.1)">
       <use xlink:href="#DejaVuSans-53"/>
       <use x="63.623047" xlink:href="#DejaVuSans-48"/>
       <use x="127.246094" xlink:href="#DejaVuSans-48"/>
      </g>
     </g>
    </g>
    <g id="xtick_4">
     <g id="line2d_4">
      <g>
       <use style="stroke:#000000;stroke-width:0.8;" x="195.639085" xlink:href="#mc80b3fbd08" y="307.584"/>
      </g>
     </g>
     <g id="text_4">
      <!-- 750 -->
      <g transform="translate(186.095335 322.182437)scale(0.1 -0.1)">
       <defs>
        <path d="M 8.203125 72.90625 
L 55.078125 72.90625 
L 55.078125 68.703125 
L 28.609375 0 
L 18.3125 0 
L 43.21875 64.59375 
L 8.203125 64.59375 
z
" id="DejaVuSans-55"/>
       </defs>
       <use xlink:href="#DejaVuSans-55"/>
       <use x="63.623047" xlink:href="#DejaVuSans-53"/>
       <use x="127.246094" xlink:href="#DejaVuSans-48"/>
      </g>
     </g>
    </g>
    <g id="xtick_5">
     <g id="line2d_5">
      <g>
       <use style="stroke:#000000;stroke-width:0.8;" x="236.241204" xlink:href="#mc80b3fbd08" y="307.584"/>
      </g>
     </g>
     <g id="text_5">
      <!-- 1000 -->
      <g transform="translate(223.516204 322.182437)scale(0.1 -0.1)">
       <defs>
        <path d="M 12.40625 8.296875 
L 28.515625 8.296875 
L 28.515625 63.921875 
L 10.984375 60.40625 
L 10.984375 69.390625 
L 28.421875 72.90625 
L 38.28125 72.90625 
L 38.28125 8.296875 
L 54.390625 8.296875 
L 54.390625 0 
L 12.40625 0 
z
" id="DejaVuSans-49"/>
       </defs>
       <use xlink:href="#DejaVuSans-49"/>
       <use x="63.623047" xlink:href="#DejaVuSans-48"/>
       <use x="127.246094" xlink:href="#DejaVuSans-48"/>
       <use x="190.869141" xlink:href="#DejaVuSans-48"/>
      </g>
     </g>
    </g>
    <g id="xtick_6">
     <g id="line2d_6">
      <g>
       <use style="stroke:#000000;stroke-width:0.8;" x="276.843323" xlink:href="#mc80b3fbd08" y="307.584"/>
      </g>
     </g>
     <g id="text_6">
      <!-- 1250 -->
      <g transform="translate(264.118323 322.182437)scale(0.1 -0.1)">
       <use xlink:href="#DejaVuSans-49"/>
       <use x="63.623047" xlink:href="#DejaVuSans-50"/>
       <use x="127.246094" xlink:href="#DejaVuSans-53"/>
       <use x="190.869141" xlink:href="#DejaVuSans-48"/>
      </g>
     </g>
    </g>
    <g id="xtick_7">
     <g id="line2d_7">
      <g>
       <use style="stroke:#000000;stroke-width:0.8;" x="317.445443" xlink:href="#mc80b3fbd08" y="307.584"/>
      </g>
     </g>
     <g id="text_7">
      <!-- 1500 -->
      <g transform="translate(304.720443 322.182437)scale(0.1 -0.1)">
       <use xlink:href="#DejaVuSans-49"/>
       <use x="63.623047" xlink:href="#DejaVuSans-53"/>
       <use x="127.246094" xlink:href="#DejaVuSans-48"/>
       <use x="190.869141" xlink:href="#DejaVuSans-48"/>
      </g>
     </g>
    </g>
    <g id="xtick_8">
     <g id="line2d_8">
      <g>
       <use style="stroke:#000000;stroke-width:0.8;" x="358.047562" xlink:href="#mc80b3fbd08" y="307.584"/>
      </g>
     </g>
     <g id="text_8">
      <!-- 1750 -->
      <g transform="translate(345.322562 322.182437)scale(0.1 -0.1)">
       <use xlink:href="#DejaVuSans-49"/>
       <use x="63.623047" xlink:href="#DejaVuSans-55"/>
       <use x="127.246094" xlink:href="#DejaVuSans-53"/>
       <use x="190.869141" xlink:href="#DejaVuSans-48"/>
      </g>
     </g>
    </g>
    <g id="xtick_9">
     <g id="line2d_9">
      <g>
       <use style="stroke:#000000;stroke-width:0.8;" x="398.649681" xlink:href="#mc80b3fbd08" y="307.584"/>
      </g>
     </g>
     <g id="text_9">
      <!-- 2000 -->
      <g transform="translate(385.924681 322.182437)scale(0.1 -0.1)">
       <use xlink:href="#DejaVuSans-50"/>
       <use x="63.623047" xlink:href="#DejaVuSans-48"/>
       <use x="127.246094" xlink:href="#DejaVuSans-48"/>
       <use x="190.869141" xlink:href="#DejaVuSans-48"/>
      </g>
     </g>
    </g>
    <g id="text_10">
     <!-- Episode -->
     <g transform="translate(216.5225 335.860562)scale(0.1 -0.1)">
      <defs>
       <path d="M 9.8125 72.90625 
L 55.90625 72.90625 
L 55.90625 64.59375 
L 19.671875 64.59375 
L 19.671875 43.015625 
L 54.390625 43.015625 
L 54.390625 34.71875 
L 19.671875 34.71875 
L 19.671875 8.296875 
L 56.78125 8.296875 
L 56.78125 0 
L 9.8125 0 
z
" id="DejaVuSans-69"/>
       <path d="M 18.109375 8.203125 
L 18.109375 -20.796875 
L 9.078125 -20.796875 
L 9.078125 54.6875 
L 18.109375 54.6875 
L 18.109375 46.390625 
Q 20.953125 51.265625 25.265625 53.625 
Q 29.59375 56 35.59375 56 
Q 45.5625 56 51.78125 48.09375 
Q 58.015625 40.1875 58.015625 27.296875 
Q 58.015625 14.40625 51.78125 6.484375 
Q 45.5625 -1.421875 35.59375 -1.421875 
Q 29.59375 -1.421875 25.265625 0.953125 
Q 20.953125 3.328125 18.109375 8.203125 
z
M 48.6875 27.296875 
Q 48.6875 37.203125 44.609375 42.84375 
Q 40.53125 48.484375 33.40625 48.484375 
Q 26.265625 48.484375 22.1875 42.84375 
Q 18.109375 37.203125 18.109375 27.296875 
Q 18.109375 17.390625 22.1875 11.75 
Q 26.265625 6.109375 33.40625 6.109375 
Q 40.53125 6.109375 44.609375 11.75 
Q 48.6875 17.390625 48.6875 27.296875 
z
" id="DejaVuSans-112"/>
       <path d="M 9.421875 54.6875 
L 18.40625 54.6875 
L 18.40625 0 
L 9.421875 0 
z
M 9.421875 75.984375 
L 18.40625 75.984375 
L 18.40625 64.59375 
L 9.421875 64.59375 
z
" id="DejaVuSans-105"/>
       <path d="M 44.28125 53.078125 
L 44.28125 44.578125 
Q 40.484375 46.53125 36.375 47.5 
Q 32.28125 48.484375 27.875 48.484375 
Q 21.1875 48.484375 17.84375 46.4375 
Q 14.5 44.390625 14.5 40.28125 
Q 14.5 37.15625 16.890625 35.375 
Q 19.28125 33.59375 26.515625 31.984375 
L 29.59375 31.296875 
Q 39.15625 29.25 43.1875 25.515625 
Q 47.21875 21.78125 47.21875 15.09375 
Q 47.21875 7.46875 41.1875 3.015625 
Q 35.15625 -1.421875 24.609375 -1.421875 
Q 20.21875 -1.421875 15.453125 -0.5625 
Q 10.6875 0.296875 5.421875 2 
L 5.421875 11.28125 
Q 10.40625 8.6875 15.234375 7.390625 
Q 20.0625 6.109375 24.8125 6.109375 
Q 31.15625 6.109375 34.5625 8.28125 
Q 37.984375 10.453125 37.984375 14.40625 
Q 37.984375 18.0625 35.515625 20.015625 
Q 33.0625 21.96875 24.703125 23.78125 
L 21.578125 24.515625 
Q 13.234375 26.265625 9.515625 29.90625 
Q 5.8125 33.546875 5.8125 39.890625 
Q 5.8125 47.609375 11.28125 51.796875 
Q 16.75 56 26.8125 56 
Q 31.78125 56 36.171875 55.265625 
Q 40.578125 54.546875 44.28125 53.078125 
z
" id="DejaVuSans-115"/>
       <path d="M 30.609375 48.390625 
Q 23.390625 48.390625 19.1875 42.75 
Q 14.984375 37.109375 14.984375 27.296875 
Q 14.984375 17.484375 19.15625 11.84375 
Q 23.34375 6.203125 30.609375 6.203125 
Q 37.796875 6.203125 41.984375 11.859375 
Q 46.1875 17.53125 46.1875 27.296875 
Q 46.1875 37.015625 41.984375 42.703125 
Q 37.796875 48.390625 30.609375 48.390625 
z
M 30.609375 56 
Q 42.328125 56 49.015625 48.375 
Q 55.71875 40.765625 55.71875 27.296875 
Q 55.71875 13.875 49.015625 6.21875 
Q 42.328125 -1.421875 30.609375 -1.421875 
Q 18.84375 -1.421875 12.171875 6.21875 
Q 5.515625 13.875 5.515625 27.296875 
Q 5.515625 40.765625 12.171875 48.375 
Q 18.84375 56 30.609375 56 
z
" id="DejaVuSans-111"/>
       <path d="M 45.40625 46.390625 
L 45.40625 75.984375 
L 54.390625 75.984375 
L 54.390625 0 
L 45.40625 0 
L 45.40625 8.203125 
Q 42.578125 3.328125 38.25 0.953125 
Q 33.9375 -1.421875 27.875 -1.421875 
Q 17.96875 -1.421875 11.734375 6.484375 
Q 5.515625 14.40625 5.515625 27.296875 
Q 5.515625 40.1875 11.734375 48.09375 
Q 17.96875 56 27.875 56 
Q 33.9375 56 38.25 53.625 
Q 42.578125 51.265625 45.40625 46.390625 
z
M 14.796875 27.296875 
Q 14.796875 17.390625 18.875 11.75 
Q 22.953125 6.109375 30.078125 6.109375 
Q 37.203125 6.109375 41.296875 11.75 
Q 45.40625 17.390625 45.40625 27.296875 
Q 45.40625 37.203125 41.296875 42.84375 
Q 37.203125 48.484375 30.078125 48.484375 
Q 22.953125 48.484375 18.875 42.84375 
Q 14.796875 37.203125 14.796875 27.296875 
z
" id="DejaVuSans-100"/>
       <path d="M 56.203125 29.59375 
L 56.203125 25.203125 
L 14.890625 25.203125 
Q 15.484375 15.921875 20.484375 11.0625 
Q 25.484375 6.203125 34.421875 6.203125 
Q 39.59375 6.203125 44.453125 7.46875 
Q 49.3125 8.734375 54.109375 11.28125 
L 54.109375 2.78125 
Q 49.265625 0.734375 44.1875 -0.34375 
Q 39.109375 -1.421875 33.890625 -1.421875 
Q 20.796875 -1.421875 13.15625 6.1875 
Q 5.515625 13.8125 5.515625 26.8125 
Q 5.515625 40.234375 12.765625 48.109375 
Q 20.015625 56 32.328125 56 
Q 43.359375 56 49.78125 48.890625 
Q 56.203125 41.796875 56.203125 29.59375 
z
M 47.21875 32.234375 
Q 47.125 39.59375 43.09375 43.984375 
Q 39.0625 48.390625 32.421875 48.390625 
Q 24.90625 48.390625 20.390625 44.140625 
Q 15.875 39.890625 15.1875 32.171875 
z
" id="DejaVuSans-101"/>
      </defs>
      <use xlink:href="#DejaVuSans-69"/>
      <use x="63.183594" xlink:href="#DejaVuSans-112"/>
      <use x="126.660156" xlink:href="#DejaVuSans-105"/>
      <use x="154.443359" xlink:href="#DejaVuSans-115"/>
      <use x="206.542969" xlink:href="#DejaVuSans-111"/>
      <use x="267.724609" xlink:href="#DejaVuSans-100"/>
      <use x="331.201172" xlink:href="#DejaVuSans-101"/>
     </g>
    </g>
   </g>
   <g id="matplotlib.axis_2">
    <g id="ytick_1">
     <g id="line2d_10">
      <defs>
       <path d="M 0 0 
L -3.5 0 
" id="mc13347acd1" style="stroke:#000000;stroke-width:0.8;"/>
      </defs>
      <g>
       <use style="stroke:#000000;stroke-width:0.8;" x="57.6" xlink:href="#mc13347acd1" y="292.58378"/>
      </g>
     </g>
     <g id="text_11">
      <!-- −1.0 -->
      <g transform="translate(26.317187 296.382999)scale(0.1 -0.1)">
       <defs>
        <path d="M 10.59375 35.5 
L 73.1875 35.5 
L 73.1875 27.203125 
L 10.59375 27.203125 
z
" id="DejaVuSans-8722"/>
        <path d="M 10.6875 12.40625 
L 21 12.40625 
L 21 0 
L 10.6875 0 
z
" id="DejaVuSans-46"/>
       </defs>
       <use xlink:href="#DejaVuSans-8722"/>
       <use x="83.789062" xlink:href="#DejaVuSans-49"/>
       <use x="147.412109" xlink:href="#DejaVuSans-46"/>
       <use x="179.199219" xlink:href="#DejaVuSans-48"/>
      </g>
     </g>
    </g>
    <g id="ytick_2">
     <g id="line2d_11">
      <g>
       <use style="stroke:#000000;stroke-width:0.8;" x="57.6" xlink:href="#mc13347acd1" y="237.967519"/>
      </g>
     </g>
     <g id="text_12">
      <!-- −0.5 -->
      <g transform="translate(26.317187 241.766737)scale(0.1 -0.1)">
       <use xlink:href="#DejaVuSans-8722"/>
       <use x="83.789062" xlink:href="#DejaVuSans-48"/>
       <use x="147.412109" xlink:href="#DejaVuSans-46"/>
       <use x="179.199219" xlink:href="#DejaVuSans-53"/>
      </g>
     </g>
    </g>
    <g id="ytick_3">
     <g id="line2d_12">
      <g>
       <use style="stroke:#000000;stroke-width:0.8;" x="57.6" xlink:href="#mc13347acd1" y="183.351257"/>
      </g>
     </g>
     <g id="text_13">
      <!-- 0.0 -->
      <g transform="translate(34.696875 187.150476)scale(0.1 -0.1)">
       <use xlink:href="#DejaVuSans-48"/>
       <use x="63.623047" xlink:href="#DejaVuSans-46"/>
       <use x="95.410156" xlink:href="#DejaVuSans-48"/>
      </g>
     </g>
    </g>
    <g id="ytick_4">
     <g id="line2d_13">
      <g>
       <use style="stroke:#000000;stroke-width:0.8;" x="57.6" xlink:href="#mc13347acd1" y="128.734995"/>
      </g>
     </g>
     <g id="text_14">
      <!-- 0.5 -->
      <g transform="translate(34.696875 132.534214)scale(0.1 -0.1)">
       <use xlink:href="#DejaVuSans-48"/>
       <use x="63.623047" xlink:href="#DejaVuSans-46"/>
       <use x="95.410156" xlink:href="#DejaVuSans-53"/>
      </g>
     </g>
    </g>
    <g id="ytick_5">
     <g id="line2d_14">
      <g>
       <use style="stroke:#000000;stroke-width:0.8;" x="57.6" xlink:href="#mc13347acd1" y="74.118734"/>
      </g>
     </g>
     <g id="text_15">
      <!-- 1.0 -->
      <g transform="translate(34.696875 77.917953)scale(0.1 -0.1)">
       <use xlink:href="#DejaVuSans-49"/>
       <use x="63.623047" xlink:href="#DejaVuSans-46"/>
       <use x="95.410156" xlink:href="#DejaVuSans-48"/>
      </g>
     </g>
    </g>
    <g id="text_16">
     <!-- Average advantage -->
     <g transform="translate(20.2375 223.355344)rotate(-90)scale(0.1 -0.1)">
      <defs>
       <path d="M 34.1875 63.1875 
L 20.796875 26.90625 
L 47.609375 26.90625 
z
M 28.609375 72.90625 
L 39.796875 72.90625 
L 67.578125 0 
L 57.328125 0 
L 50.6875 18.703125 
L 17.828125 18.703125 
L 11.1875 0 
L 0.78125 0 
z
" id="DejaVuSans-65"/>
       <path d="M 2.984375 54.6875 
L 12.5 54.6875 
L 29.59375 8.796875 
L 46.6875 54.6875 
L 56.203125 54.6875 
L 35.6875 0 
L 23.484375 0 
z
" id="DejaVuSans-118"/>
       <path d="M 41.109375 46.296875 
Q 39.59375 47.171875 37.8125 47.578125 
Q 36.03125 48 33.890625 48 
Q 26.265625 48 22.1875 43.046875 
Q 18.109375 38.09375 18.109375 28.8125 
L 18.109375 0 
L 9.078125 0 
L 9.078125 54.6875 
L 18.109375 54.6875 
L 18.109375 46.1875 
Q 20.953125 51.171875 25.484375 53.578125 
Q 30.03125 56 36.53125 56 
Q 37.453125 56 38.578125 55.875 
Q 39.703125 55.765625 41.0625 55.515625 
z
" id="DejaVuSans-114"/>
       <path d="M 34.28125 27.484375 
Q 23.390625 27.484375 19.1875 25 
Q 14.984375 22.515625 14.984375 16.5 
Q 14.984375 11.71875 18.140625 8.90625 
Q 21.296875 6.109375 26.703125 6.109375 
Q 34.1875 6.109375 38.703125 11.40625 
Q 43.21875 16.703125 43.21875 25.484375 
L 43.21875 27.484375 
z
M 52.203125 31.203125 
L 52.203125 0 
L 43.21875 0 
L 43.21875 8.296875 
Q 40.140625 3.328125 35.546875 0.953125 
Q 30.953125 -1.421875 24.3125 -1.421875 
Q 15.921875 -1.421875 10.953125 3.296875 
Q 6 8.015625 6 15.921875 
Q 6 25.140625 12.171875 29.828125 
Q 18.359375 34.515625 30.609375 34.515625 
L 43.21875 34.515625 
L 43.21875 35.40625 
Q 43.21875 41.609375 39.140625 45 
Q 35.0625 48.390625 27.6875 48.390625 
Q 23 48.390625 18.546875 47.265625 
Q 14.109375 46.140625 10.015625 43.890625 
L 10.015625 52.203125 
Q 14.9375 54.109375 19.578125 55.046875 
Q 24.21875 56 28.609375 56 
Q 40.484375 56 46.34375 49.84375 
Q 52.203125 43.703125 52.203125 31.203125 
z
" id="DejaVuSans-97"/>
       <path d="M 45.40625 27.984375 
Q 45.40625 37.75 41.375 43.109375 
Q 37.359375 48.484375 30.078125 48.484375 
Q 22.859375 48.484375 18.828125 43.109375 
Q 14.796875 37.75 14.796875 27.984375 
Q 14.796875 18.265625 18.828125 12.890625 
Q 22.859375 7.515625 30.078125 7.515625 
Q 37.359375 7.515625 41.375 12.890625 
Q 45.40625 18.265625 45.40625 27.984375 
z
M 54.390625 6.78125 
Q 54.390625 -7.171875 48.1875 -13.984375 
Q 42 -20.796875 29.203125 -20.796875 
Q 24.46875 -20.796875 20.265625 -20.09375 
Q 16.0625 -19.390625 12.109375 -17.921875 
L 12.109375 -9.1875 
Q 16.0625 -11.328125 19.921875 -12.34375 
Q 23.78125 -13.375 27.78125 -13.375 
Q 36.625 -13.375 41.015625 -8.765625 
Q 45.40625 -4.15625 45.40625 5.171875 
L 45.40625 9.625 
Q 42.625 4.78125 38.28125 2.390625 
Q 33.9375 0 27.875 0 
Q 17.828125 0 11.671875 7.65625 
Q 5.515625 15.328125 5.515625 27.984375 
Q 5.515625 40.671875 11.671875 48.328125 
Q 17.828125 56 27.875 56 
Q 33.9375 56 38.28125 53.609375 
Q 42.625 51.21875 45.40625 46.390625 
L 45.40625 54.6875 
L 54.390625 54.6875 
z
" id="DejaVuSans-103"/>
       <path id="DejaVuSans-32"/>
       <path d="M 54.890625 33.015625 
L 54.890625 0 
L 45.90625 0 
L 45.90625 32.71875 
Q 45.90625 40.484375 42.875 44.328125 
Q 39.84375 48.1875 33.796875 48.1875 
Q 26.515625 48.1875 22.3125 43.546875 
Q 18.109375 38.921875 18.109375 30.90625 
L 18.109375 0 
L 9.078125 0 
L 9.078125 54.6875 
L 18.109375 54.6875 
L 18.109375 46.1875 
Q 21.34375 51.125 25.703125 53.5625 
Q 30.078125 56 35.796875 56 
Q 45.21875 56 50.046875 50.171875 
Q 54.890625 44.34375 54.890625 33.015625 
z
" id="DejaVuSans-110"/>
       <path d="M 18.3125 70.21875 
L 18.3125 54.6875 
L 36.8125 54.6875 
L 36.8125 47.703125 
L 18.3125 47.703125 
L 18.3125 18.015625 
Q 18.3125 11.328125 20.140625 9.421875 
Q 21.96875 7.515625 27.59375 7.515625 
L 36.8125 7.515625 
L 36.8125 0 
L 27.59375 0 
Q 17.1875 0 13.234375 3.875 
Q 9.28125 7.765625 9.28125 18.015625 
L 9.28125 47.703125 
L 2.6875 47.703125 
L 2.6875 54.6875 
L 9.28125 54.6875 
L 9.28125 70.21875 
z
" id="DejaVuSans-116"/>
      </defs>
      <use xlink:href="#DejaVuSans-65"/>
      <use x="62.533203" xlink:href="#DejaVuSans-118"/>
      <use x="121.712891" xlink:href="#DejaVuSans-101"/>
      <use x="183.236328" xlink:href="#DejaVuSans-114"/>
      <use x="224.349609" xlink:href="#DejaVuSans-97"/>
      <use x="285.628906" xlink:href="#DejaVuSans-103"/>
      <use x="349.105469" xlink:href="#DejaVuSans-101"/>
      <use x="410.628906" xlink:href="#DejaVuSans-32"/>
      <use x="442.416016" xlink:href="#DejaVuSans-97"/>
      <use x="503.695312" xlink:href="#DejaVuSans-100"/>
      <use x="567.171875" xlink:href="#DejaVuSans-118"/>
      <use x="626.351562" xlink:href="#DejaVuSans-97"/>
      <use x="687.630859" xlink:href="#DejaVuSans-110"/>
      <use x="751.009766" xlink:href="#DejaVuSans-116"/>
      <use x="790.21875" xlink:href="#DejaVuSans-97"/>
      <use x="851.498047" xlink:href="#DejaVuSans-103"/>
      <use x="914.974609" xlink:href="#DejaVuSans-101"/>
     </g>
    </g>
   </g>
   <g id="line2d_15">
    <path clip-path="url(#p43729d551c)" d="M 73.832727 111.352005 
L 73.995136 166.285041 
L 74.157544 127.334088 
L 74.319953 171.652454 
L 74.482361 260.027027 
L 74.64477 262.142041 
L 74.807178 224.406301 
L 74.969587 121.667651 
L 75.131995 230.836 
L 75.294404 151.572785 
L 75.619221 201.209409 
L 75.781629 76.717102 
L 75.944037 285.504147 
L 76.106446 53.568 
L 76.268854 171.457201 
L 76.431263 173.06838 
L 76.593671 100.229403 
L 76.75608 162.11782 
L 76.918488 170.568321 
L 77.080897 100.903914 
L 77.243305 136.590179 
L 77.405714 213.209967 
L 77.568122 219.724322 
L 77.730531 114.724559 
L 77.892939 272.097221 
L 78.055348 267.120314 
L 78.217756 189.193832 
L 78.380165 189.193832 
L 78.542573 91.817133 
L 78.86739 238.416737 
L 79.192207 157.723942 
L 79.354615 148.594834 
L 79.517024 160.57218 
L 79.679432 257.449139 
L 79.841841 136.013978 
L 80.166658 223.141934 
L 80.329066 238.501393 
L 80.491475 137.78491 
L 80.653883 124.222327 
L 80.816292 128.771861 
L 80.9787 102.629788 
L 81.141109 119.218112 
L 81.465926 234.523963 
L 81.628334 136.000324 
L 81.790743 243.775958 
L 82.11556 130.910088 
L 82.277968 131.393442 
L 82.440377 260.380667 
L 82.602785 263.495159 
L 82.765194 176.768632 
L 82.927602 226.784839 
L 83.09001 128.068677 
L 83.414827 234.637292 
L 83.739644 81.071384 
L 83.902053 293.47266 
L 84.22687 61.940673 
L 84.389278 267.300547 
L 84.551687 102.752674 
L 84.714095 175.836059 
L 84.876504 146.305047 
L 85.038912 169.702653 
L 85.201321 102.046759 
L 85.363729 190.235637 
L 85.526138 216.242535 
L 85.850955 115.029045 
L 86.013363 166.616835 
L 86.175772 98.940459 
L 86.500588 257.313964 
L 86.662997 184.746703 
L 86.825405 164.921 
L 86.987814 237.632994 
L 87.150222 152.972327 
L 87.312631 173.71088 
L 87.475039 129.585644 
L 87.637448 239.178634 
L 87.799856 136.672104 
L 87.962265 131.584599 
L 88.124673 227.646411 
L 88.287082 216.867891 
L 88.44949 137.361634 
L 88.611899 135.675357 
L 88.774307 271.127782 
L 88.936716 199.995563 
L 89.099124 187.142991 
L 89.261533 233.325136 
L 89.423941 199.117606 
L 89.58635 108.809618 
L 89.748758 193.437515 
L 89.911166 147.655434 
L 90.073575 247.327381 
L 90.235983 138.923659 
L 90.398392 136.475485 
L 90.5608 181.764655 
L 90.723209 259.06305 
L 90.885617 223.68127 
L 91.048026 259.307457 
L 91.372843 128.280315 
L 91.535251 230.130085 
L 91.69766 160.906704 
L 91.860068 265.61427 
L 92.022477 85.365588 
L 92.184885 289.47475 
L 92.509702 60.431899 
L 92.672111 176.109141 
L 92.834519 171.190946 
L 92.996928 105.024711 
L 93.321745 147.84386 
L 93.484153 106.203057 
L 93.646561 100.163864 
L 93.971378 176.162392 
L 94.133787 184.980187 
L 94.296195 186.001511 
L 94.458604 176.034043 
L 94.621012 182.988166 
L 94.783421 213.283699 
L 94.945829 132.668732 
L 95.108238 167.890759 
L 95.270646 156.901967 
L 95.433055 222.314498 
L 95.595463 129.716723 
L 95.757872 235.355496 
L 95.92028 238.345736 
L 96.082689 165.945054 
L 96.245097 190.313465 
L 96.407506 191.815412 
L 96.569914 267.573629 
L 96.894731 139.393359 
L 97.057139 230.683075 
L 97.219548 195.258968 
L 97.381956 251.104095 
L 97.869182 111.427102 
L 98.356407 242.739615 
L 98.518816 139.341473 
L 98.681224 255.014619 
L 98.843633 229.754598 
L 99.006041 139.453437 
L 99.330858 257.069556 
L 99.493267 138.747522 
L 99.655675 110.162736 
L 99.818084 233.755239 
L 99.980492 164.443107 
L 100.142901 268.95542 
L 100.305309 295.401979 
L 100.630126 87.124231 
L 100.792534 76.220095 
L 100.954943 185.430771 
L 101.117351 205.02299 
L 101.27976 107.915277 
L 101.604577 177.705301 
L 101.766985 140.519819 
L 101.929394 237.522396 
L 102.091802 156.871928 
L 102.254211 188.941231 
L 102.416619 193.926331 
L 102.579028 173.16942 
L 102.741436 187.051509 
L 102.903845 214.840263 
L 103.228662 106.43108 
L 103.39107 187.029662 
L 103.553479 124.018881 
L 103.715887 145.149913 
L 103.878296 147.522989 
L 104.203112 269.295406 
L 104.365521 171.380738 
L 104.690338 225.7799 
L 104.852746 182.906135 
L 105.015155 195.725937 
L 105.177563 153.959516 
L 105.339972 216.471924 
L 105.50238 144.695233 
L 105.664789 254.767481 
L 105.989606 198.739389 
L 106.152014 141.485162 
L 106.314423 252.495444 
L 106.476831 112.378791 
L 106.63924 227.027881 
L 106.801648 200.175796 
L 106.964057 244.120041 
L 107.126465 143.484117 
L 107.288874 187.874849 
L 107.451282 89.681638 
L 107.61369 110.348431 
L 107.776099 253.878601 
L 107.938507 231.728976 
L 108.100916 141.74732 
L 108.263324 166.831203 
L 108.425733 267.267778 
L 108.588141 108.49694 
L 108.75055 295.488 
L 108.912958 79.498436 
L 109.237775 202.016364 
L 109.400184 187.918542 
L 109.562592 222.224381 
L 109.725001 176.707189 
L 109.887409 186.740196 
L 110.049818 176.154199 
L 110.212226 189.359046 
L 110.374635 142.62118 
L 110.537043 175.494708 
L 110.699452 158.709765 
L 110.86186 212.191374 
L 111.024268 189.080503 
L 111.186677 108.046356 
L 111.349085 175.01545 
L 111.511494 164.611052 
L 111.673902 235.63677 
L 111.998719 152.240469 
L 112.161128 215.046439 
L 112.323536 195.05006 
L 112.485945 115.154662 
L 112.648353 235.90712 
L 112.810762 147.877995 
L 112.97317 143.942893 
L 113.135579 250.131926 
L 113.297987 184.544622 
L 113.460396 197.046285 
L 113.622804 193.863522 
L 113.785213 266.544112 
L 113.947621 147.394641 
L 114.11003 227.322809 
L 114.434847 114.021375 
L 114.597255 242.882982 
L 114.759663 199.004278 
L 114.922072 242.10197 
L 115.571706 82.061304 
L 115.734114 125.149438 
L 115.896523 106.401041 
L 116.058931 246.928682 
L 116.22134 214.827974 
L 116.383748 147.185734 
L 116.546157 269.329542 
L 116.708565 245.484082 
L 117.033382 104.471721 
L 117.195791 174.081512 
L 117.358199 144.274687 
L 117.683016 204.926046 
L 118.007833 57.974167 
L 118.170241 179.666025 
L 118.33265 178.890474 
L 118.495058 172.116692 
L 118.657467 96.060817 
L 118.819875 138.828081 
L 118.982284 152.012446 
L 119.144692 183.811399 
L 119.307101 164.052601 
L 119.469509 208.615374 
L 119.631918 169.552459 
L 119.794326 171.109022 
L 119.956735 137.68387 
L 120.119143 225.184583 
L 120.281552 174.324554 
L 120.44396 188.825172 
L 120.606369 128.759573 
L 120.768777 167.452463 
L 120.931186 140.79017 
L 121.093594 220.671914 
L 121.256003 123.919207 
L 121.418411 250.329909 
L 121.58082 184.701644 
L 121.743228 239.881819 
L 121.905636 178.307445 
L 122.068045 249.529781 
L 122.392862 113.117475 
L 122.717679 209.179287 
L 122.880087 219.02933 
L 123.042496 179.440733 
L 123.204904 226.593682 
L 123.529721 139.512149 
L 123.69213 248.184856 
L 123.854538 97.33201 
L 124.016947 143.029437 
L 124.179355 117.777608 
L 124.341764 224.419955 
L 124.504172 145.421629 
L 124.666581 286.319295 
L 124.828989 258.118188 
L 125.316214 82.03263 
L 125.641031 208.622201 
L 125.80344 172.535872 
L 125.965848 195.598954 
L 126.128257 185.736622 
L 126.290665 151.922329 
L 126.453074 181.696384 
L 126.615482 145.79575 
L 126.777891 186.333305 
L 126.940299 147.845225 
L 127.265116 189.999422 
L 127.427525 214.545335 
L 127.589933 111.365659 
L 127.752342 127.084219 
L 128.077159 190.800915 
L 128.239567 190.876013 
L 128.401976 151.347493 
L 128.564384 232.021173 
L 128.726792 231.049004 
L 128.889201 191.469964 
L 129.051609 259.676117 
L 129.214018 179.466675 
L 129.376426 154.894819 
L 129.701243 220.935437 
L 130.02606 190.848704 
L 130.188469 247.450267 
L 130.350877 165.02477 
L 130.513286 206.41707 
L 130.675694 190.226079 
L 130.838103 245.49637 
L 131.000511 195.215274 
L 131.16292 237.463684 
L 131.325328 118.554524 
L 131.650145 240.589099 
L 131.812554 99.399236 
L 131.974962 150.457248 
L 132.299779 116.909209 
L 132.462187 268.319141 
L 132.624596 243.771862 
L 133.111821 74.125561 
L 133.27423 213.059773 
L 133.436638 185.098977 
L 133.599047 200.779306 
L 133.923864 111.21956 
L 134.248681 145.814866 
L 134.411089 149.62435 
L 134.573498 144.0808 
L 134.898315 224.153701 
L 135.060723 208.847493 
L 135.223132 180.214918 
L 135.38554 176.375395 
L 135.547949 180.770639 
L 135.710357 193.625941 
L 135.872765 167.578081 
L 136.035174 189.486029 
L 136.197582 176.212912 
L 136.359991 184.33435 
L 136.684808 104.348835 
L 137.009625 227.198557 
L 137.172033 215.386425 
L 137.334442 246.785314 
L 137.659259 136.422234 
L 137.984076 178.950751 
L 138.146484 239.338387 
L 138.308893 193.696942 
L 138.471301 210.503732 
L 138.63371 185.895009 
L 138.796118 186.103536 
L 138.958527 120.381438 
L 139.120935 245.526409 
L 139.283343 185.604178 
L 139.445752 229.863831 
L 139.60816 242.743711 
L 139.770569 150.033972 
L 139.932977 191.64064 
L 140.095386 103.767171 
L 140.420203 146.721496 
L 140.582611 250.082771 
L 140.74502 86.53301 
L 140.907428 277.834659 
L 141.069837 150.667521 
L 141.394654 218.35755 
L 142.044288 156.511461 
L 142.206696 117.327024 
L 142.369105 133.104296 
L 142.531513 192.200457 
L 142.693922 149.752698 
L 142.85633 210.200611 
L 143.018738 158.311067 
L 143.181147 191.968338 
L 143.343555 184.397158 
L 143.505964 188.078625 
L 143.668372 170.517801 
L 143.830781 216.043186 
L 144.155598 186.386556 
L 144.318006 190.673932 
L 144.480415 156.817312 
L 144.642823 225.733476 
L 144.805232 115.990291 
L 145.130049 242.503399 
L 145.454866 149.116419 
L 145.617274 189.327641 
L 145.779683 194.667746 
L 145.942091 204.442692 
L 146.1045 183.449378 
L 146.429316 253.754349 
L 146.591725 200.280933 
L 146.754133 184.492737 
L 146.916542 243.304893 
L 147.07895 123.647491 
L 147.241359 190.553777 
L 147.403767 191.609236 
L 147.566176 237.104582 
L 147.728584 232.922342 
L 147.890993 155.100996 
L 148.053401 188.279009 
L 148.21581 106.964954 
L 148.540627 143.055379 
L 148.703035 82.320731 
L 149.027852 265.906467 
L 149.352669 152.169468 
L 149.515078 240.967317 
L 149.677486 158.861325 
L 149.839894 181.965369 
L 150.002303 152.759324 
L 150.164711 186.327843 
L 150.32712 134.464241 
L 150.489528 196.500122 
L 150.651937 155.733179 
L 151.139162 190.48141 
L 151.301571 183.221543 
L 151.463979 119.776563 
L 151.626388 211.837734 
L 151.788796 186.237726 
L 151.951205 197.316635 
L 152.113613 150.955621 
L 152.276022 153.093848 
L 152.600839 214.05925 
L 152.763247 221.414695 
L 153.250473 145.354724 
L 153.575289 199.12853 
L 153.737698 248.225818 
L 153.900106 186.902679 
L 154.062515 191.542331 
L 154.224923 237.774996 
L 154.54974 115.496014 
L 154.712149 224.13595 
L 154.874557 242.248068 
L 155.199374 124.480389 
L 155.524191 234.485732 
L 155.849008 144.28288 
L 156.011417 155.68539 
L 156.173825 110.359354 
L 156.498642 227.784317 
L 156.823459 82.638871 
L 156.985867 234.846199 
L 157.310684 156.596116 
L 157.473093 263.669931 
L 157.635501 139.153047 
L 157.79791 162.386805 
L 157.960318 154.938512 
L 158.285135 205.479035 
L 158.447544 157.590132 
L 158.609952 194.654092 
L 158.772361 197.206037 
L 158.934769 124.122652 
L 159.097178 183.149177 
L 159.259586 185.440329 
L 159.421995 190.780401 
L 159.584403 183.774533 
L 159.90922 157.330705 
L 160.071629 185.421213 
L 160.234037 192.636022 
L 160.396445 154.823818 
L 160.558854 207.827535 
L 160.721262 205.584172 
L 160.883671 218.629266 
L 161.046079 147.806994 
L 161.208488 181.593979 
L 161.370896 187.447477 
L 161.533305 182.207046 
L 161.695713 170.890557 
L 161.858122 116.685283 
L 162.182939 232.482681 
L 162.345347 222.044148 
L 162.507756 241.652751 
L 162.670164 187.28909 
L 162.832573 205.974678 
L 162.994981 188.851115 
L 163.319798 182.837864 
L 163.482207 129.090001 
L 163.644615 239.692027 
L 163.807024 152.538128 
L 163.969432 225.352528 
L 164.13184 113.781063 
L 164.294249 233.539505 
L 164.943883 92.726494 
L 165.2687 241.389227 
L 165.431108 140.652264 
L 165.593517 167.859354 
L 165.755925 269.45789 
L 165.918334 157.979273 
L 166.243151 202.109212 
L 166.730376 185.019784 
L 166.892785 157.468611 
L 167.055193 175.980793 
L 167.217602 164.544147 
L 167.38001 123.39216 
L 167.542418 219.686091 
L 167.867235 191.3225 
L 168.029644 197.174633 
L 168.192052 190.966129 
L 168.354461 194.229451 
L 168.516869 162.70631 
L 168.679278 210.895603 
L 169.004095 166.291868 
L 169.166503 191.581928 
L 169.49132 122.617974 
L 169.653729 177.559203 
L 169.978546 196.201098 
L 170.140954 188.239412 
L 170.303363 234.777929 
L 170.465771 186.482134 
L 170.62818 222.866122 
L 170.790588 197.688026 
L 170.952996 130.960608 
L 171.115405 245.843184 
L 171.277813 191.095843 
L 171.440222 187.260416 
L 171.60263 193.122106 
L 171.765039 229.880216 
L 171.927447 130.523678 
L 172.089856 226.726127 
L 172.252264 237.806401 
L 172.577081 116.505049 
L 172.73949 189.838304 
L 172.901898 161.768276 
L 173.064307 192.730235 
L 173.226715 263.331311 
L 173.389124 94.187479 
L 173.551532 235.1343 
L 173.713941 181.951715 
L 173.876349 197.352136 
L 174.201166 144.288341 
L 174.363575 189.23889 
L 174.525983 166.909032 
L 174.8508 198.486789 
L 175.013208 159.284601 
L 175.175617 187.08974 
L 175.338025 123.509585 
L 175.500434 155.660812 
L 175.662842 159.447085 
L 175.987659 216.749101 
L 176.150068 204.30342 
L 176.312476 164.650649 
L 176.474885 207.600877 
L 176.799702 162.730887 
L 176.96211 188.145199 
L 177.124519 193.305071 
L 177.286927 189.103715 
L 177.611744 193.457996 
L 177.774153 189.445066 
L 177.936561 243.367702 
L 178.261378 132.965025 
L 178.423786 191.928741 
L 178.586195 197.102266 
L 178.748603 186.914968 
L 178.911012 232.000692 
L 179.07342 200.732882 
L 179.235829 219.904556 
L 179.398237 123.311601 
L 179.560646 224.937444 
L 179.885463 134.187064 
L 180.047871 155.957106 
L 180.21028 229.855638 
L 180.372688 235.811542 
L 180.535097 192.584136 
L 180.697505 119.054263 
L 180.859914 191.318404 
L 181.022322 194.583091 
L 181.184731 184.444948 
L 181.347139 265.285207 
L 181.509548 164.108583 
L 181.671956 233.898607 
L 181.834364 98.5718 
L 181.996773 195.672686 
L 182.159181 190.956571 
L 182.32159 168.076454 
L 182.646407 187.858464 
L 182.808815 161.910278 
L 182.971224 197.865529 
L 183.296041 146.421106 
L 183.458449 214.862109 
L 183.620858 127.522514 
L 183.783266 189.697667 
L 184.108083 156.839158 
L 184.270492 161.418732 
L 184.4329 202.813762 
L 184.595309 182.760036 
L 184.757717 188.539802 
L 184.920126 206.869019 
L 185.082534 165.813975 
L 185.244942 191.616063 
L 185.407351 195.073272 
L 185.732168 190.691683 
L 185.894576 194.469763 
L 186.056985 135.136021 
L 186.381802 218.487264 
L 186.54421 190.757222 
L 186.706619 126.591307 
L 186.869027 199.331975 
L 187.031436 195.470606 
L 187.356253 241.490268 
L 187.518661 185.011591 
L 187.68107 222.694081 
L 187.843478 189.439605 
L 188.005887 233.168115 
L 188.168295 136.415407 
L 188.330704 193.832118 
L 188.493112 159.957747 
L 188.65552 226.402525 
L 188.817929 192.255073 
L 188.980337 184.181424 
L 189.142746 122.451395 
L 189.467563 261.974096 
L 189.629971 101.937527 
L 189.79238 231.021696 
L 189.954788 195.660397 
L 190.117197 188.463339 
L 190.279605 166.406562 
L 190.442014 192.099417 
L 190.604422 184.842281 
L 190.766831 170.336202 
L 191.091648 212.676093 
L 191.578873 162.502865 
L 191.741282 199.14628 
L 192.066099 148.071883 
L 192.228507 187.388764 
L 192.390915 161.525234 
L 192.553324 162.489211 
L 192.715732 128.93571 
L 192.878141 205.476305 
L 193.040549 185.35977 
L 193.202958 194.991348 
L 193.527775 190.876013 
L 193.690183 192.286477 
L 193.852592 137.170477 
L 194.015 194.36053 
L 194.177409 194.337318 
L 194.339817 168.882044 
L 194.502226 217.557422 
L 194.664634 185.598716 
L 194.827043 128.46328 
L 194.989451 191.023476 
L 195.15186 194.469763 
L 195.314268 240.443001 
L 195.476677 196.788223 
L 195.639085 229.163377 
L 195.801493 188.004563 
L 196.12631 231.376701 
L 196.451127 139.079315 
L 196.775944 184.137731 
L 196.938353 222.48927 
L 197.100761 194.023275 
L 197.26317 122.757246 
L 197.425578 191.516388 
L 197.587987 169.003565 
L 197.912804 259.202321 
L 198.075212 191.700718 
L 198.237621 185.189094 
L 198.400029 103.694805 
L 198.562438 190.120943 
L 198.724846 171.731647 
L 198.887255 177.246524 
L 199.049663 191.035765 
L 199.212071 162.665348 
L 199.37448 198.040301 
L 199.536888 187.127972 
L 199.861705 202.853359 
L 200.024114 162.505595 
L 200.348931 185.651967 
L 200.511339 130.258789 
L 200.673748 147.415122 
L 200.836156 210.724927 
L 200.998565 162.774581 
L 201.160973 182.282144 
L 201.323382 139.599535 
L 201.648199 216.026801 
L 201.810607 190.227444 
L 202.135424 195.245313 
L 202.297833 192.427114 
L 202.460241 130.482716 
L 202.62265 189.65807 
L 202.785058 184.999303 
L 202.947466 193.437515 
L 203.109875 171.007982 
L 203.272283 237.527858 
L 203.759509 179.453021 
L 203.921917 228.036917 
L 204.084326 142.783663 
L 204.246734 226.427103 
L 204.409143 151.337935 
L 204.571551 184.577392 
L 204.73396 192.566386 
L 204.896368 170.790882 
L 205.058777 215.775566 
L 205.221185 126.547614 
L 205.383594 190.363985 
L 205.546002 184.83955 
L 205.708411 241.547615 
L 205.870819 170.820921 
L 206.033228 182.678112 
L 206.195636 210.43 
L 206.520453 182.060948 
L 206.682861 192.746619 
L 206.84527 94.319924 
L 207.007678 168.036857 
L 207.170087 169.907464 
L 207.332495 152.277335 
L 207.494904 184.552815 
L 207.657312 166.319176 
L 207.819721 166.880358 
L 207.982129 195.121061 
L 208.144538 163.180106 
L 208.469355 194.113391 
L 208.631763 182.456916 
L 208.794172 194.237643 
L 208.95658 128.896113 
L 209.281397 203.594774 
L 209.443806 194.970867 
L 209.606214 141.537047 
L 209.768622 189.479202 
L 209.931031 171.196211 
L 210.255848 212.49586 
L 210.580665 153.063809 
L 210.743073 227.460715 
L 210.905482 208.484295 
L 211.06789 127.525245 
L 211.392707 185.025245 
L 211.555116 176.610245 
L 211.717524 190.645259 
L 211.879933 141.638087 
L 212.20475 226.323332 
L 212.529567 166.495313 
L 212.691975 219.789861 
L 212.854384 189.789149 
L 213.016792 183.101728 
L 213.179201 130.602872 
L 213.341609 181.768751 
L 213.504017 169.839194 
L 213.666426 194.198047 
L 213.828834 256.498816 
L 214.153651 189.30716 
L 214.31606 200.466628 
L 214.478468 194.285433 
L 214.640877 175.997177 
L 214.803285 190.605662 
L 214.965694 109.92379 
L 215.128102 187.87758 
L 215.290511 193.06749 
L 215.452919 226.367025 
L 215.615328 168.14609 
L 215.777736 194.914885 
L 215.940145 192.069378 
L 216.264962 167.904413 
L 216.42737 188.691362 
L 216.589779 187.69325 
L 216.752187 133.715999 
L 216.914595 197.156883 
L 217.077004 168.135167 
L 217.239412 184.718029 
L 217.401821 152.753862 
L 217.564229 187.969062 
L 217.726638 189.371334 
L 218.051455 206.597303 
L 218.213863 143.40902 
L 218.53868 213.992345 
L 218.701089 183.292545 
L 218.863497 232.955111 
L 219.188314 135.164695 
L 219.350723 212.792153 
L 219.67554 180.492096 
L 219.837948 185.32427 
L 220.000357 145.719287 
L 220.325173 225.538223 
L 220.64999 165.999671 
L 220.812399 223.152858 
L 220.974807 191.545062 
L 221.137216 187.487073 
L 221.299624 186.798909 
L 221.462033 192.719311 
L 221.624441 214.758338 
L 221.949258 134.704553 
L 222.274075 249.570743 
L 222.436484 179.969145 
L 222.598892 196.145116 
L 222.761301 187.993639 
L 222.923709 189.5898 
L 223.086118 187.37511 
L 223.248526 165.757994 
L 223.410935 185.7612 
L 223.573343 168.299015 
L 223.735752 195.167485 
L 223.89816 111.626452 
L 224.060568 179.231826 
L 224.385385 190.3476 
L 224.547794 217.042663 
L 225.035019 154.052364 
L 225.197428 189.359046 
L 225.359836 177.548279 
L 225.522245 136.03992 
L 225.684653 148.796914 
L 225.847062 191.80722 
L 226.00947 188.38278 
L 226.171879 196.164232 
L 226.334287 212.280125 
L 226.496696 202.281253 
L 226.659104 176.167853 
L 226.821513 169.953888 
L 227.14633 229.689059 
L 227.308738 191.435829 
L 227.471146 184.72673 
L 227.633555 147.60901 
L 227.795963 210.503732 
L 228.12078 161.302672 
L 228.283189 187.893965 
L 228.445597 137.197785 
L 228.770414 219.021138 
L 228.932823 224.501879 
L 229.25764 139.39609 
L 229.420048 194.819307 
L 229.582457 185.486753 
L 229.907274 237.608417 
L 230.069682 176.825979 
L 230.232091 187.612691 
L 230.394499 176.588398 
L 230.556908 184.743972 
L 230.881724 186.90541 
L 231.044133 182.574341 
L 231.206541 171.455835 
L 231.531358 188.65939 
L 231.856175 158.331548 
L 232.018584 165.067098 
L 232.180992 193.627307 
L 232.343401 183.468682 
L 232.505809 207.068369 
L 232.668218 105.419313 
L 232.830626 177.402181 
L 232.993035 176.154199 
L 233.155443 195.426913 
L 233.317852 146.840286 
L 233.48026 138.012933 
L 233.642669 189.409566 
L 233.805077 167.991799 
L 234.129894 209.631237 
L 234.292303 195.313584 
L 234.454711 170.352587 
L 234.617119 186.236234 
L 234.779528 177.575587 
L 235.104345 192.248246 
L 235.266753 183.211986 
L 235.429162 188.97127 
L 235.59157 188.512494 
L 235.753979 171.836784 
L 235.916387 222.247593 
L 236.078796 148.182481 
L 236.403613 211.714847 
L 236.566021 208.489757 
L 236.72843 221.015996 
L 237.053247 185.605543 
L 237.215655 191.37029 
L 237.378064 134.077831 
L 237.540472 179.065246 
L 237.702881 187.02147 
L 237.865289 212.027525 
L 238.027697 139.486207 
L 238.190106 176.6949 
L 238.352514 249.258065 
L 238.514923 194.223989 
L 238.677331 192.300132 
L 238.83974 181.787867 
L 239.002148 179.567716 
L 239.164557 189.094157 
L 239.326965 164.512743 
L 239.489374 187.566267 
L 239.651782 185.017053 
L 239.814191 194.005524 
L 239.976599 173.479368 
L 240.139008 183.685968 
L 240.301416 158.873614 
L 240.463825 188.623092 
L 240.626233 193.402015 
L 240.788642 214.264061 
L 240.95105 189.166524 
L 241.113459 192.629195 
L 241.275867 116.846401 
L 241.438276 182.988059 
L 241.600684 186.038377 
L 241.763092 180.310497 
L 241.925501 208.151136 
L 242.087909 139.162605 
L 242.250318 189.606184 
L 242.412726 151.567324 
L 242.575135 220.703318 
L 242.737543 159.952285 
L 242.899952 173.378328 
L 243.06236 200.179893 
L 243.224769 179.580004 
L 243.387177 194.827499 
L 243.549586 195.147004 
L 243.711994 186.340132 
L 243.874403 188.195719 
L 244.036811 165.351103 
L 244.19922 207.678705 
L 244.361628 184.45314 
L 244.524037 188.722766 
L 244.686445 225.540954 
L 244.848854 148.052767 
L 245.17367 214.849821 
L 245.336079 180.0183 
L 245.498487 170.986135 
L 245.660896 177.690282 
L 245.823304 198.819948 
L 245.985713 143.605638 
L 246.148121 189.644416 
L 246.31053 141.105579 
L 246.472938 179.054323 
L 246.635347 187.014643 
L 246.797755 227.72697 
L 246.960164 185.840393 
L 247.284981 174.243995 
L 247.447389 188.137007 
L 247.609798 165.490374 
L 247.772206 177.130967 
L 247.934615 179.14444 
L 248.097023 176.281182 
L 248.259432 181.663615 
L 248.42184 193.513978 
L 248.584248 182.761401 
L 248.746657 188.124718 
L 248.909065 154.206654 
L 249.071474 159.836226 
L 249.233882 192.013396 
L 249.396291 158.935057 
L 249.558699 177.878708 
L 249.721108 107.60806 
L 249.883516 191.745776 
L 250.045925 185.322633 
L 250.370742 168.51748 
L 250.53315 167.732372 
L 250.695559 138.134454 
L 250.857967 189.156966 
L 251.020376 190.654817 
L 251.182784 171.84088 
L 251.507601 200.022871 
L 251.67001 185.463541 
L 251.832418 218.733037 
L 251.994827 177.101791 
L 252.157235 203.993473 
L 252.319643 177.303871 
L 252.482052 182.653534 
L 252.64446 201.257198 
L 252.969277 155.984414 
L 253.131686 212.946444 
L 253.294094 177.759917 
L 253.456503 181.371418 
L 253.618911 194.932635 
L 253.78132 176.82871 
L 253.943728 205.888657 
L 254.106137 174.955372 
L 254.268545 177.43222 
L 254.430954 148.847434 
L 254.593362 184.462698 
L 254.755771 137.324768 
L 254.918179 233.117595 
L 255.080588 183.198332 
L 255.242996 189.258006 
L 255.567813 174.330016 
L 255.89263 199.256878 
L 256.217447 156.439094 
L 256.542264 191.026207 
L 256.704672 184.52141 
L 256.867081 160.20352 
L 257.029489 182.953924 
L 257.191898 178.027537 
L 257.354306 194.565341 
L 257.516715 187.959504 
L 257.679123 114.478786 
L 257.841532 177.295679 
L 258.00394 170.919231 
L 258.166349 185.757103 
L 258.328757 179.53085 
L 258.491166 168.2799 
L 258.653574 142.668969 
L 258.815983 186.759709 
L 258.978391 187.900792 
L 259.140799 181.486112 
L 259.303208 200.721959 
L 259.465616 192.786216 
L 259.628025 214.881225 
L 259.790433 184.509122 
L 259.952842 208.005038 
L 260.277659 155.03136 
L 260.602476 202.196598 
L 260.764884 184.583887 
L 260.927293 194.837057 
L 261.089701 218.551438 
L 261.25211 185.19319 
L 261.414518 193.997332 
L 261.576927 182.026813 
L 261.739335 184.685259 
L 261.901744 180.778831 
L 262.064152 180.7761 
L 262.226561 141.636722 
L 262.551378 200.263182 
L 262.713786 151.362513 
L 262.876194 180.778831 
L 263.038603 183.538318 
L 263.201011 191.801758 
L 263.36342 169.790039 
L 263.525828 228.961297 
L 263.850645 180.586309 
L 264.013054 173.849393 
L 264.175462 191.043958 
L 264.337871 159.275044 
L 264.500279 181.146126 
L 264.662688 157.872771 
L 264.987505 191.048054 
L 265.149913 170.872807 
L 265.312322 193.285955 
L 265.47473 180.49297 
L 265.637139 182.256201 
L 265.799547 144.823581 
L 265.961956 213.240006 
L 266.124364 164.024383 
L 266.286772 183.379931 
L 266.449181 187.40788 
L 266.611589 116.647051 
L 266.773998 184.656586 
L 266.936406 176.60888 
L 267.098815 191.669314 
L 267.261223 180.021031 
L 267.423632 206.684689 
L 267.58604 174.122474 
L 267.910857 199.6665 
L 268.073266 169.694461 
L 268.235674 191.711641 
L 268.560491 177.138657 
L 268.885308 199.340168 
L 269.210125 182.493782 
L 269.534942 144.652905 
L 269.69735 183.526029 
L 269.859759 177.740802 
L 270.022167 212.248721 
L 270.184576 182.877461 
L 270.346984 194.934001 
L 270.509393 171.043483 
L 270.671801 171.051675 
L 270.83421 182.182469 
L 270.996618 151.007507 
L 271.321435 221.584006 
L 271.483844 178.715702 
L 271.646252 178.161347 
L 271.808661 184.425832 
L 271.971069 173.211748 
L 272.133478 188.905731 
L 272.295886 186.56952 
L 272.458295 167.107015 
L 272.620703 168.477884 
L 272.94552 189.916518 
L 273.107929 161.376404 
L 273.270337 185.910029 
L 273.432745 173.583442 
L 273.595154 112.137114 
L 273.919971 188.217566 
L 274.082379 143.030802 
L 274.407196 213.107562 
L 274.569605 179.562254 
L 274.732013 199.588672 
L 274.894422 181.475188 
L 275.219239 172.350177 
L 275.381647 183.408604 
L 275.544056 183.976613 
L 275.706464 187.349167 
L 275.868873 194.675939 
L 276.031281 180.254515 
L 276.19369 179.171748 
L 276.356098 181.185722 
L 276.518507 173.077938 
L 276.680915 190.962033 
L 276.843323 175.444188 
L 277.16814 181.89983 
L 277.330549 191.628352 
L 277.492957 182.568879 
L 277.655366 194.923077 
L 277.817774 160.936743 
L 278.142591 208.224868 
L 278.305 145.610055 
L 278.467408 178.702048 
L 278.629817 153.683704 
L 278.954634 199.617345 
L 279.117042 179.38202 
L 279.279451 181.770116 
L 279.441859 167.168459 
L 279.929085 190.667105 
L 280.091493 180.739234 
L 280.253901 189.998056 
L 280.41631 192.818986 
L 280.578718 223.793233 
L 280.741127 176.711285 
L 280.903535 179.047496 
L 281.065944 188.878423 
L 281.228352 190.414505 
L 281.390761 119.409269 
L 281.715578 170.902846 
L 281.877986 187.442015 
L 282.040395 179.317846 
L 282.202803 210.019012 
L 282.365212 162.526077 
L 282.690029 188.091424 
L 282.852437 184.887339 
L 283.014846 202.428717 
L 283.177254 197.226518 
L 283.339663 188.250336 
L 283.502071 192.944603 
L 283.826888 176.946135 
L 284.151705 188.517453 
L 284.314113 185.066208 
L 284.476522 189.75911 
L 284.63893 183.797745 
L 284.801339 185.301058 
L 284.963747 177.850034 
L 285.126156 195.840631 
L 285.288564 185.012957 
L 285.450973 195.450124 
L 285.613381 184.425832 
L 285.77579 206.120777 
L 286.100607 147.443796 
L 286.263015 186.996893 
L 286.425424 186.71835 
L 286.587832 198.195957 
L 286.912649 156.94566 
L 287.237466 186.93818 
L 287.399874 191.980626 
L 287.562283 193.388361 
L 287.724691 184.758991 
L 287.8871 184.450409 
L 288.049508 163.909233 
L 288.211917 193.46892 
L 288.536734 181.570468 
L 288.699142 180.868948 
L 288.861551 227.681911 
L 289.023959 178.372985 
L 289.186368 191.101305 
L 289.348776 177.516875 
L 289.511185 193.247724 
L 289.673593 150.401266 
L 289.836002 179.085727 
L 289.99841 184.069461 
L 290.160819 126.300476 
L 290.485636 207.432932 
L 290.648044 167.03738 
L 290.810452 188.085122 
L 290.972861 185.234153 
L 291.135269 186.33467 
L 291.297678 167.811565 
L 291.460086 193.635499 
L 291.622495 191.632448 
L 291.947312 175.345879 
L 292.272129 199.808502 
L 292.596946 184.242868 
L 292.759354 188.386876 
L 292.921763 182.481493 
L 293.24658 151.500419 
L 293.408988 194.965405 
L 293.571397 157.693903 
L 293.733805 187.548517 
L 293.896214 185.705218 
L 294.058622 188.072833 
L 294.221031 206.841711 
L 294.545847 160.105211 
L 294.708256 164.632899 
L 294.870664 183.558543 
L 295.033073 183.774533 
L 295.195481 189.593896 
L 295.35789 188.461974 
L 295.520298 169.566113 
L 295.682707 169.949792 
L 296.007524 188.183431 
L 296.169932 178.183193 
L 296.332341 176.166488 
L 296.494749 171.226447 
L 296.657158 171.812206 
L 296.819566 183.321218 
L 296.981975 204.404461 
L 297.306792 175.154722 
L 297.4692 164.398049 
L 297.631609 188.362299 
L 297.794017 175.769155 
L 297.956425 208.002307 
L 298.118834 119.918565 
L 298.281242 178.789434 
L 298.443651 172.470332 
L 298.606059 188.468801 
L 298.768468 154.14248 
L 298.930876 179.592293 
L 299.093285 169.478727 
L 299.255693 178.086249 
L 299.418102 174.940353 
L 299.58051 194.312741 
L 299.742919 185.355674 
L 299.905327 191.827701 
L 300.067736 191.904164 
L 300.230144 177.004847 
L 300.392553 186.707426 
L 300.554961 185.412455 
L 300.71737 181.876618 
L 300.879778 184.140462 
L 301.042187 178.199578 
L 301.204595 143.701217 
L 301.367004 172.42937 
L 301.529412 173.375597 
L 301.69182 167.830681 
L 301.854229 173.490291 
L 302.016637 165.842649 
L 302.179046 187.02147 
L 302.341454 176.436838 
L 302.503863 182.959385 
L 302.666271 197.675737 
L 302.991088 183.494625 
L 303.315905 191.435829 
L 303.478314 175.362263 
L 303.640722 184.522776 
L 303.803131 175.299455 
L 303.965539 173.824816 
L 304.127948 186.375633 
L 304.452765 177.631569 
L 304.615173 182.228893 
L 304.777582 172.366561 
L 304.93999 216.691754 
L 305.102398 179.110304 
L 305.427215 181.749635 
L 305.589624 185.864971 
L 305.752032 173.375597 
L 305.914441 126.218551 
L 306.076849 191.441291 
L 306.239258 169.600248 
L 306.401666 205.253743 
L 306.564075 189.387053 
L 306.726483 194.473859 
L 306.888892 181.965801 
L 307.0513 187.454304 
L 307.213709 186.274592 
L 307.376117 152.768881 
L 307.538526 188.279009 
L 307.863343 187.151183 
L 308.025751 188.853845 
L 308.18816 194.385107 
L 308.512976 190.728549 
L 308.675385 182.885653 
L 308.837793 186.66783 
L 309.000202 184.865493 
L 309.16261 187.775174 
L 309.487427 152.801651 
L 309.812244 192.442134 
L 309.974653 201.254468 
L 310.137061 189.337199 
L 310.29947 190.201502 
L 310.461878 188.396434 
L 310.624287 194.91352 
L 310.786695 190.657547 
L 310.949104 165.908189 
L 311.273921 196.482372 
L 311.436329 182.981232 
L 311.598738 184.092673 
L 311.761146 192.543174 
L 311.923555 178.042556 
L 312.085963 187.250858 
L 312.41078 191.639275 
L 312.573188 189.02179 
L 312.735597 174.332747 
L 313.060414 191.22146 
L 313.222822 224.867808 
L 313.385231 189.121465 
L 313.547639 185.815816 
L 313.710048 191.60787 
L 313.872456 135.078674 
L 314.197273 183.943844 
L 314.359682 196.848301 
L 314.52209 191.184594 
L 314.684499 192.911834 
L 314.846907 204.180534 
L 315.171724 180.847101 
L 315.334133 182.760036 
L 315.496541 188.001832 
L 315.658949 189.337199 
L 315.821358 195.278083 
L 315.983766 185.821277 
L 316.146175 191.082189 
L 316.308583 156.133243 
L 316.470992 192.054358 
L 316.6334 200.504859 
L 316.795809 175.576632 
L 316.958217 193.888099 
L 317.445443 171.986978 
L 317.607851 193.238166 
L 317.77026 158.263277 
L 317.932668 192.002473 
L 318.095077 191.766258 
L 318.257485 190.78453 
L 318.419894 206.388396 
L 318.582302 192.470807 
L 318.744711 192.828544 
L 318.907119 168.946218 
L 319.394344 191.094478 
L 319.556753 184.278368 
L 319.88157 190.922436 
L 320.043978 173.532619 
L 320.206387 190.699875 
L 320.368795 191.546427 
L 320.693612 185.441694 
L 320.856021 133.571265 
L 321.180838 214.36237 
L 321.343246 177.078579 
L 321.668063 186.544943 
L 321.830472 188.232585 
L 321.99288 196.266638 
L 322.155289 192.678349 
L 322.317697 177.189177 
L 322.642514 191.900067 
L 322.804922 189.795976 
L 322.967331 179.21271 
L 323.129739 201.366431 
L 323.292148 178.124481 
L 323.616965 194.076525 
L 323.779373 193.574056 
L 324.10419 187.080182 
L 324.266599 189.222505 
L 324.429007 189.511971 
L 324.591416 156.882851 
L 324.753824 191.885048 
L 324.916233 184.641566 
L 325.078641 189.199293 
L 325.24105 158.11991 
L 325.565867 188.713209 
L 325.728275 192.431211 
L 325.890684 200.668708 
L 326.053092 169.252069 
L 326.2155 191.248768 
L 326.377909 181.29632 
L 326.540317 187.597671 
L 326.702726 188.568475 
L 326.865134 190.773607 
L 327.027543 178.947821 
L 327.189951 189.729071 
L 327.514768 193.926331 
L 327.677177 189.266198 
L 327.839585 189.200659 
L 328.001994 184.581488 
L 328.164402 193.152145 
L 328.489219 196.218848 
L 328.651628 185.164517 
L 328.814036 192.831275 
L 328.976445 191.566908 
L 329.138853 192.554097 
L 329.301262 141.913899 
L 329.46367 177.992036 
L 329.788487 191.885048 
L 329.950895 225.175025 
L 330.113304 195.447394 
L 330.275712 200.620919 
L 330.438121 175.410053 
L 330.600529 191.788104 
L 330.762938 183.672128 
L 330.925346 184.995207 
L 331.087755 185.037534 
L 331.250163 196.969822 
L 331.412572 193.264109 
L 331.57498 197.167806 
L 331.737389 185.42531 
L 331.899797 185.71068 
L 332.062206 186.590001 
L 332.224614 172.352907 
L 332.387023 193.040182 
L 332.549431 191.358001 
L 332.71184 162.963007 
L 332.874248 158.37251 
L 333.036657 192.265996 
L 333.199065 191.594216 
L 333.361473 205.958293 
L 333.523882 177.914208 
L 333.68629 194.772883 
L 333.848699 198.671118 
L 334.011107 188.315875 
L 334.173516 185.333827 
L 334.335924 176.390415 
L 334.498333 193.680558 
L 334.660741 187.466592 
L 334.82315 187.536228 
L 334.985558 189.252544 
L 335.147967 194.258125 
L 335.310375 193.935889 
L 335.472784 173.215844 
L 335.635192 191.889144 
L 335.797601 190.023999 
L 335.960009 177.794861 
L 336.122418 193.070221 
L 336.284826 192.870871 
L 336.447235 189.4082 
L 336.609643 136.796356 
L 336.772051 187.519843 
L 336.93446 188.758267 
L 337.096868 175.688596 
L 337.259277 185.540004 
L 337.421685 180.717388 
L 337.746502 199.155838 
L 337.908911 192.395928 
L 338.071319 190.796819 
L 338.233728 180.5235 
L 338.396136 192.451692 
L 338.558545 189.789149 
L 338.720953 209.942549 
L 338.883362 187.033759 
L 339.04577 181.718231 
L 339.208179 181.686826 
L 339.532996 192.93368 
L 339.695404 182.358607 
L 339.857813 191.213268 
L 340.020221 190.043115 
L 340.182629 194.776979 
L 340.345038 185.911394 
L 340.507446 189.484663 
L 340.669855 189.45599 
L 340.832263 188.842922 
L 340.994672 189.148773 
L 341.15708 159.310544 
L 341.481897 189.427316 
L 341.644306 162.938429 
L 341.806714 195.273987 
L 341.969123 189.374065 
L 342.29394 193.253142 
L 342.456348 192.638752 
L 342.781165 179.511734 
L 342.943574 195.379123 
L 343.105982 181.16251 
L 343.268391 193.694212 
L 343.430799 193.664173 
L 343.593208 187.77654 
L 343.755616 175.73775 
L 343.918024 190.298446 
L 344.080433 184.443582 
L 344.242841 190.490968 
L 344.40525 188.146565 
L 344.567658 188.23122 
L 344.730067 193.915407 
L 344.892475 191.984723 
L 345.054884 145.9951 
L 345.217292 193.28459 
L 345.379701 196.263907 
L 345.704518 183.792283 
L 345.866926 220.393371 
L 346.029335 180.82662 
L 346.191743 182.704054 
L 346.354152 176.54334 
L 346.678969 196.068654 
L 346.841377 193.306436 
L 347.003786 196.625739 
L 347.166194 184.03123 
L 347.328602 190.881474 
L 347.653419 178.179097 
L 347.815828 195.069176 
L 347.978236 196.719952 
L 348.140645 177.327083 
L 348.303053 190.806377 
L 348.62787 170.897384 
L 348.790279 189.965286 
L 348.952687 191.072631 
L 349.115096 167.333673 
L 349.277504 190.142789 
L 349.439913 184.838185 
L 349.602321 187.263147 
L 349.76473 197.906491 
L 349.927138 187.77654 
L 350.089547 161.76418 
L 350.251955 189.858785 
L 350.414364 189.338565 
L 350.576772 174.538923 
L 350.73918 176.521494 
L 350.901589 201.066042 
L 351.063997 194.974963 
L 351.226406 193.713327 
L 351.388814 195.343623 
L 351.713631 177.479402 
L 351.87604 193.885369 
L 352.038448 186.994162 
L 352.200857 188.139738 
L 352.363265 165.624184 
L 352.525674 185.989222 
L 352.688082 135.41866 
L 352.850491 194.139334 
L 353.012899 163.761769 
L 353.175308 182.635784 
L 353.500125 190.687586 
L 353.662533 174.985411 
L 354.149759 194.540764 
L 354.312167 182.800998 
L 354.474575 188.535706 
L 354.636984 190.335312 
L 354.799392 196.008576 
L 355.124209 181.809713 
L 355.286618 184.009383 
L 355.449026 191.865932 
L 355.611435 190.865089 
L 355.773843 190.652086 
L 355.936252 192.373863 
L 356.09866 175.632614 
L 356.261069 186.899949 
L 356.423477 182.739555 
L 356.585886 173.28548 
L 356.748294 187.125241 
L 356.910703 182.876096 
L 357.073111 185.239614 
L 357.23552 162.635309 
L 357.397928 180.471615 
L 357.560337 176.625264 
L 357.722745 190.563334 
L 357.885153 190.605083 
L 358.047562 189.531087 
L 358.20997 192.887256 
L 358.372379 184.816338 
L 358.859604 190.131866 
L 359.022013 181.735981 
L 359.184421 188.558918 
L 359.34683 179.64964 
L 359.509238 163.694865 
L 359.834055 194.525744 
L 360.158872 182.998982 
L 360.321281 194.051948 
L 360.483689 149.777276 
L 360.646098 180.785658 
L 360.808506 184.115885 
L 360.970915 190.275234 
L 361.133323 179.466675 
L 361.295732 176.214277 
L 361.45814 192.590963 
L 361.620548 175.988985 
L 361.782957 195.366835 
L 361.945365 189.861515 
L 362.107774 215.61991 
L 362.432591 185.571408 
L 362.594999 181.090144 
L 362.919816 194.871192 
L 363.082225 177.201466 
L 363.244633 190.723087 
L 363.407042 185.601447 
L 363.56945 193.713327 
L 363.731859 182.912962 
L 363.894267 192.868141 
L 364.056676 190.860993 
L 364.219084 183.497356 
L 364.381493 187.482977 
L 364.543901 187.720558 
L 364.70631 182.769594 
L 364.868718 191.558716 
L 365.031126 169.831002 
L 365.193535 173.20219 
L 365.355943 187.988178 
L 365.518352 190.391293 
L 365.843169 198.773524 
L 366.167986 188.664054 
L 366.330394 183.457759 
L 366.492803 195.674051 
L 366.655211 196.284388 
L 366.81762 190.739472 
L 366.980028 192.117167 
L 367.142437 170.908307 
L 367.304845 193.564498 
L 367.467254 180.408806 
L 367.629662 181.573638 
L 367.792071 151.660171 
L 367.954479 183.891958 
L 368.116888 193.763847 
L 368.441704 185.444425 
L 368.604113 184.567834 
L 368.766521 140.304085 
L 369.091338 193.354225 
L 369.253747 188.969905 
L 369.416155 188.184796 
L 369.578564 178.34158 
L 369.903381 190.368081 
L 370.065789 189.685378 
L 370.228198 193.294147 
L 370.390606 191.837259 
L 370.553015 182.492416 
L 370.715423 180.242226 
L 370.877832 192.857217 
L 371.04024 185.021149 
L 371.202649 189.50651 
L 371.527466 187.809309 
L 371.852283 175.801924 
L 372.014691 180.048339 
L 372.177099 177.73534 
L 372.339508 187.503458 
L 372.501916 186.443903 
L 372.664325 183.292545 
L 372.826733 187.130702 
L 372.989142 182.183834 
L 373.15155 187.330052 
L 373.313959 183.666666 
L 373.476367 165.338814 
L 373.801184 187.806579 
L 373.963593 190.519641 
L 374.126001 189.771399 
L 374.28841 180.35419 
L 374.613227 187.918542 
L 374.775635 189.502414 
L 374.938044 185.896375 
L 375.100452 175.631248 
L 375.262861 182.130584 
L 375.425269 183.302102 
L 375.587677 188.225758 
L 375.750086 164.370741 
L 375.912494 184.076288 
L 376.074903 186.073878 
L 376.237311 166.915859 
L 376.39972 184.212829 
L 376.562128 180.713292 
L 376.724537 148.047306 
L 376.886945 191.65839 
L 377.049354 187.459765 
L 377.211762 178.561411 
L 377.374171 189.969383 
L 377.536579 190.555142 
L 377.698988 186.875371 
L 377.861396 188.691362 
L 378.023805 193.668269 
L 378.186213 193.560402 
L 378.348622 177.996133 
L 378.51103 187.969608 
L 378.673439 188.545264 
L 378.835847 183.893323 
L 378.998255 194.146161 
L 379.160664 195.730317 
L 379.323072 185.721603 
L 379.485481 184.436755 
L 379.647889 190.654817 
L 379.810298 186.632329 
L 379.972706 189.8424 
L 380.135115 197.559678 
L 380.297523 184.174597 
L 380.459932 190.14552 
L 380.62234 178.086249 
L 380.947157 190.119577 
L 381.109566 191.419444 
L 381.271974 171.619684 
L 381.434383 188.238047 
L 381.596791 189.012233 
L 381.7592 184.939225 
L 381.921608 186.811197 
L 382.084017 190.256118 
L 382.246425 186.327843 
L 382.408834 188.923481 
L 382.571242 189.208851 
L 382.73365 194.52984 
L 383.058467 180.716022 
L 383.220876 189.283948 
L 383.383284 188.254432 
L 383.545693 175.269416 
L 383.708101 195.454221 
L 383.87051 170.008504 
L 384.032918 190.252022 
L 384.357735 193.9236 
L 384.520144 181.595344 
L 384.682552 188.146565 
L 384.844961 188.646304 
L 385.007369 185.57687 
L 385.169778 152.84671 
L 385.332186 194.142065 
L 385.494595 186.562693 
L 385.819412 194.450647 
L 385.98182 194.348241 
L 386.469045 186.203591 
L 386.631454 186.117571 
L 386.956271 192.645579 
L 387.118679 182.141507 
L 387.281088 192.66333 
L 387.443496 188.88525 
L 387.605905 191.876856 
L 387.768313 187.708269 
L 387.930722 187.114317 
L 388.09313 193.15078 
L 388.255539 203.884241 
L 388.580356 186.084801 
L 388.742764 192.914564 
L 388.905173 189.705859 
L 389.067581 190.742203 
L 389.22999 190.540122 
L 389.392398 189.97621 
L 389.717215 193.388361 
L 389.879623 190.194675 
L 390.042032 173.042438 
L 390.20444 191.214633 
L 390.366849 186.524462 
L 390.529257 190.658913 
L 390.691666 189.763206 
L 390.854074 173.629562 
L 391.016483 190.493699 
L 391.178891 191.670679 
L 391.3413 189.771399 
L 391.503708 194.88075 
L 391.666117 194.225355 
L 391.828525 172.987821 
L 392.315751 197.277038 
L 392.640568 183.904247 
L 392.802976 194.955847 
L 392.965385 191.276077 
L 393.127793 192.726138 
L 393.290201 192.399337 
L 393.45261 184.338446 
L 393.615018 154.586237 
L 393.777427 194.12568 
L 394.102244 192.367036 
L 394.264652 180.860756 
L 394.427061 189.445066 
L 394.589469 187.84481 
L 394.751878 189.626666 
L 394.914286 185.571408 
L 395.239103 200.106161 
L 395.401512 187.224915 
L 395.56392 196.473513 
L 395.726329 190.38037 
L 395.888737 195.450124 
L 396.051146 189.363142 
L 396.213554 190.88284 
L 396.375963 190.672567 
L 396.538371 190.85007 
L 396.700779 176.140545 
L 396.863188 191.505465 
L 397.025596 173.275922 
L 397.188005 193.687385 
L 397.350413 195.907536 
L 397.512822 190.512814 
L 397.67523 196.201098 
L 398.000047 193.87308 
L 398.162456 184.206186 
L 398.324864 194.406954 
L 398.487273 189.748187 
L 398.487273 189.748187 
" style="fill:none;stroke:#1f77b4;stroke-linecap:square;stroke-width:1.5;"/>
   </g>
   <g id="patch_3">
    <path d="M 57.6 307.584 
L 57.6 41.472 
" style="fill:none;stroke:#000000;stroke-linecap:square;stroke-linejoin:miter;stroke-width:0.8;"/>
   </g>
   <g id="patch_4">
    <path d="M 414.72 307.584 
L 414.72 41.472 
" style="fill:none;stroke:#000000;stroke-linecap:square;stroke-linejoin:miter;stroke-width:0.8;"/>
   </g>
   <g id="patch_5">
    <path d="M 57.6 307.584 
L 414.72 307.584 
" style="fill:none;stroke:#000000;stroke-linecap:square;stroke-linejoin:miter;stroke-width:0.8;"/>
   </g>
   <g id="patch_6">
    <path d="M 57.6 41.472 
L 414.72 41.472 
" style="fill:none;stroke:#000000;stroke-linecap:square;stroke-linejoin:miter;stroke-width:0.8;"/>
   </g>
  </g>
 </g>
 <defs>
  <clipPath id="p43729d551c">
   <rect height="266.112" width="357.12" x="57.6" y="41.472"/>
  </clipPath>
 </defs>
</svg>
