<?xml version="1.0" encoding="utf-8" standalone="no"?>
<!DOCTYPE svg PUBLIC "-//W3C//DTD SVG 1.1//EN"
  "http://www.w3.org/Graphics/SVG/1.1/DTD/svg11.dtd">
<!-- Created with matplotlib (https://matplotlib.org/) -->
<svg height="345.6pt" version="1.1" viewBox="0 0 460.8 345.6" width="460.8pt" xmlns="http://www.w3.org/2000/svg" xmlns:xlink="http://www.w3.org/1999/xlink">
 <metadata>
  <rdf:RDF xmlns:cc="http://creativecommons.org/ns#" xmlns:dc="http://purl.org/dc/elements/1.1/" xmlns:rdf="http://www.w3.org/1999/02/22-rdf-syntax-ns#">
   <cc:Work>
    <dc:type rdf:resource="http://purl.org/dc/dcmitype/StillImage"/>
    <dc:date>2021-05-24T00:09:57.439464</dc:date>
    <dc:format>image/svg+xml</dc:format>
    <dc:creator>
     <cc:Agent>
      <dc:title>Matplotlib v3.3.4, https://matplotlib.org/</dc:title>
     </cc:Agent>
    </dc:creator>
   </cc:Work>
  </rdf:RDF>
 </metadata>
 <defs>
  <style type="text/css">*{stroke-linecap:butt;stroke-linejoin:round;}</style>
 </defs>
 <g id="figure_1">
  <g id="patch_1">
   <path d="M 0 345.6 
L 460.8 345.6 
L 460.8 0 
L 0 0 
z
" style="fill:#ffffff;"/>
  </g>
  <g id="axes_1">
   <g id="patch_2">
    <path d="M 57.6 307.584 
L 414.72 307.584 
L 414.72 41.472 
L 57.6 41.472 
z
" style="fill:#ffffff;"/>
   </g>
   <g id="matplotlib.axis_1">
    <g id="xtick_1">
     <g id="line2d_1">
      <defs>
       <path d="M 0 0 
L 0 3.5 
" id="mc5fd14038d" style="stroke:#000000;stroke-width:0.8;"/>
      </defs>
      <g>
       <use style="stroke:#000000;stroke-width:0.8;" x="73.832727" xlink:href="#mc5fd14038d" y="307.584"/>
      </g>
     </g>
     <g id="text_1">
      <!-- 0 -->
      <g transform="translate(70.651477 322.182437)scale(0.1 -0.1)">
       <defs>
        <path d="M 31.78125 66.40625 
Q 24.171875 66.40625 20.328125 58.90625 
Q 16.5 51.421875 16.5 36.375 
Q 16.5 21.390625 20.328125 13.890625 
Q 24.171875 6.390625 31.78125 6.390625 
Q 39.453125 6.390625 43.28125 13.890625 
Q 47.125 21.390625 47.125 36.375 
Q 47.125 51.421875 43.28125 58.90625 
Q 39.453125 66.40625 31.78125 66.40625 
z
M 31.78125 74.21875 
Q 44.046875 74.21875 50.515625 64.515625 
Q 56.984375 54.828125 56.984375 36.375 
Q 56.984375 17.96875 50.515625 8.265625 
Q 44.046875 -1.421875 31.78125 -1.421875 
Q 19.53125 -1.421875 13.0625 8.265625 
Q 6.59375 17.96875 6.59375 36.375 
Q 6.59375 54.828125 13.0625 64.515625 
Q 19.53125 74.21875 31.78125 74.21875 
z
" id="DejaVuSans-48"/>
       </defs>
       <use xlink:href="#DejaVuSans-48"/>
      </g>
     </g>
    </g>
    <g id="xtick_2">
     <g id="line2d_2">
      <g>
       <use style="stroke:#000000;stroke-width:0.8;" x="114.434847" xlink:href="#mc5fd14038d" y="307.584"/>
      </g>
     </g>
     <g id="text_2">
      <!-- 250 -->
      <g transform="translate(104.891097 322.182437)scale(0.1 -0.1)">
       <defs>
        <path d="M 19.1875 8.296875 
L 53.609375 8.296875 
L 53.609375 0 
L 7.328125 0 
L 7.328125 8.296875 
Q 12.9375 14.109375 22.625 23.890625 
Q 32.328125 33.6875 34.8125 36.53125 
Q 39.546875 41.84375 41.421875 45.53125 
Q 43.3125 49.21875 43.3125 52.78125 
Q 43.3125 58.59375 39.234375 62.25 
Q 35.15625 65.921875 28.609375 65.921875 
Q 23.96875 65.921875 18.8125 64.3125 
Q 13.671875 62.703125 7.8125 59.421875 
L 7.8125 69.390625 
Q 13.765625 71.78125 18.9375 73 
Q 24.125 74.21875 28.421875 74.21875 
Q 39.75 74.21875 46.484375 68.546875 
Q 53.21875 62.890625 53.21875 53.421875 
Q 53.21875 48.921875 51.53125 44.890625 
Q 49.859375 40.875 45.40625 35.40625 
Q 44.1875 33.984375 37.640625 27.21875 
Q 31.109375 20.453125 19.1875 8.296875 
z
" id="DejaVuSans-50"/>
        <path d="M 10.796875 72.90625 
L 49.515625 72.90625 
L 49.515625 64.59375 
L 19.828125 64.59375 
L 19.828125 46.734375 
Q 21.96875 47.46875 24.109375 47.828125 
Q 26.265625 48.1875 28.421875 48.1875 
Q 40.625 48.1875 47.75 41.5 
Q 54.890625 34.8125 54.890625 23.390625 
Q 54.890625 11.625 47.5625 5.09375 
Q 40.234375 -1.421875 26.90625 -1.421875 
Q 22.3125 -1.421875 17.546875 -0.640625 
Q 12.796875 0.140625 7.71875 1.703125 
L 7.71875 11.625 
Q 12.109375 9.234375 16.796875 8.0625 
Q 21.484375 6.890625 26.703125 6.890625 
Q 35.15625 6.890625 40.078125 11.328125 
Q 45.015625 15.765625 45.015625 23.390625 
Q 45.015625 31 40.078125 35.4375 
Q 35.15625 39.890625 26.703125 39.890625 
Q 22.75 39.890625 18.8125 39.015625 
Q 14.890625 38.140625 10.796875 36.28125 
z
" id="DejaVuSans-53"/>
       </defs>
       <use xlink:href="#DejaVuSans-50"/>
       <use x="63.623047" xlink:href="#DejaVuSans-53"/>
       <use x="127.246094" xlink:href="#DejaVuSans-48"/>
      </g>
     </g>
    </g>
    <g id="xtick_3">
     <g id="line2d_3">
      <g>
       <use style="stroke:#000000;stroke-width:0.8;" x="155.036966" xlink:href="#mc5fd14038d" y="307.584"/>
      </g>
     </g>
     <g id="text_3">
      <!-- 500 -->
      <g transform="translate(145.493216 322.182437)scale(0.1 -0.1)">
       <use xlink:href="#DejaVuSans-53"/>
       <use x="63.623047" xlink:href="#DejaVuSans-48"/>
       <use x="127.246094" xlink:href="#DejaVuSans-48"/>
      </g>
     </g>
    </g>
    <g id="xtick_4">
     <g id="line2d_4">
      <g>
       <use style="stroke:#000000;stroke-width:0.8;" x="195.639085" xlink:href="#mc5fd14038d" y="307.584"/>
      </g>
     </g>
     <g id="text_4">
      <!-- 750 -->
      <g transform="translate(186.095335 322.182437)scale(0.1 -0.1)">
       <defs>
        <path d="M 8.203125 72.90625 
L 55.078125 72.90625 
L 55.078125 68.703125 
L 28.609375 0 
L 18.3125 0 
L 43.21875 64.59375 
L 8.203125 64.59375 
z
" id="DejaVuSans-55"/>
       </defs>
       <use xlink:href="#DejaVuSans-55"/>
       <use x="63.623047" xlink:href="#DejaVuSans-53"/>
       <use x="127.246094" xlink:href="#DejaVuSans-48"/>
      </g>
     </g>
    </g>
    <g id="xtick_5">
     <g id="line2d_5">
      <g>
       <use style="stroke:#000000;stroke-width:0.8;" x="236.241204" xlink:href="#mc5fd14038d" y="307.584"/>
      </g>
     </g>
     <g id="text_5">
      <!-- 1000 -->
      <g transform="translate(223.516204 322.182437)scale(0.1 -0.1)">
       <defs>
        <path d="M 12.40625 8.296875 
L 28.515625 8.296875 
L 28.515625 63.921875 
L 10.984375 60.40625 
L 10.984375 69.390625 
L 28.421875 72.90625 
L 38.28125 72.90625 
L 38.28125 8.296875 
L 54.390625 8.296875 
L 54.390625 0 
L 12.40625 0 
z
" id="DejaVuSans-49"/>
       </defs>
       <use xlink:href="#DejaVuSans-49"/>
       <use x="63.623047" xlink:href="#DejaVuSans-48"/>
       <use x="127.246094" xlink:href="#DejaVuSans-48"/>
       <use x="190.869141" xlink:href="#DejaVuSans-48"/>
      </g>
     </g>
    </g>
    <g id="xtick_6">
     <g id="line2d_6">
      <g>
       <use style="stroke:#000000;stroke-width:0.8;" x="276.843323" xlink:href="#mc5fd14038d" y="307.584"/>
      </g>
     </g>
     <g id="text_6">
      <!-- 1250 -->
      <g transform="translate(264.118323 322.182437)scale(0.1 -0.1)">
       <use xlink:href="#DejaVuSans-49"/>
       <use x="63.623047" xlink:href="#DejaVuSans-50"/>
       <use x="127.246094" xlink:href="#DejaVuSans-53"/>
       <use x="190.869141" xlink:href="#DejaVuSans-48"/>
      </g>
     </g>
    </g>
    <g id="xtick_7">
     <g id="line2d_7">
      <g>
       <use style="stroke:#000000;stroke-width:0.8;" x="317.445443" xlink:href="#mc5fd14038d" y="307.584"/>
      </g>
     </g>
     <g id="text_7">
      <!-- 1500 -->
      <g transform="translate(304.720443 322.182437)scale(0.1 -0.1)">
       <use xlink:href="#DejaVuSans-49"/>
       <use x="63.623047" xlink:href="#DejaVuSans-53"/>
       <use x="127.246094" xlink:href="#DejaVuSans-48"/>
       <use x="190.869141" xlink:href="#DejaVuSans-48"/>
      </g>
     </g>
    </g>
    <g id="xtick_8">
     <g id="line2d_8">
      <g>
       <use style="stroke:#000000;stroke-width:0.8;" x="358.047562" xlink:href="#mc5fd14038d" y="307.584"/>
      </g>
     </g>
     <g id="text_8">
      <!-- 1750 -->
      <g transform="translate(345.322562 322.182437)scale(0.1 -0.1)">
       <use xlink:href="#DejaVuSans-49"/>
       <use x="63.623047" xlink:href="#DejaVuSans-55"/>
       <use x="127.246094" xlink:href="#DejaVuSans-53"/>
       <use x="190.869141" xlink:href="#DejaVuSans-48"/>
      </g>
     </g>
    </g>
    <g id="xtick_9">
     <g id="line2d_9">
      <g>
       <use style="stroke:#000000;stroke-width:0.8;" x="398.649681" xlink:href="#mc5fd14038d" y="307.584"/>
      </g>
     </g>
     <g id="text_9">
      <!-- 2000 -->
      <g transform="translate(385.924681 322.182437)scale(0.1 -0.1)">
       <use xlink:href="#DejaVuSans-50"/>
       <use x="63.623047" xlink:href="#DejaVuSans-48"/>
       <use x="127.246094" xlink:href="#DejaVuSans-48"/>
       <use x="190.869141" xlink:href="#DejaVuSans-48"/>
      </g>
     </g>
    </g>
    <g id="text_10">
     <!-- Episode -->
     <g transform="translate(216.5225 335.860562)scale(0.1 -0.1)">
      <defs>
       <path d="M 9.8125 72.90625 
L 55.90625 72.90625 
L 55.90625 64.59375 
L 19.671875 64.59375 
L 19.671875 43.015625 
L 54.390625 43.015625 
L 54.390625 34.71875 
L 19.671875 34.71875 
L 19.671875 8.296875 
L 56.78125 8.296875 
L 56.78125 0 
L 9.8125 0 
z
" id="DejaVuSans-69"/>
       <path d="M 18.109375 8.203125 
L 18.109375 -20.796875 
L 9.078125 -20.796875 
L 9.078125 54.6875 
L 18.109375 54.6875 
L 18.109375 46.390625 
Q 20.953125 51.265625 25.265625 53.625 
Q 29.59375 56 35.59375 56 
Q 45.5625 56 51.78125 48.09375 
Q 58.015625 40.1875 58.015625 27.296875 
Q 58.015625 14.40625 51.78125 6.484375 
Q 45.5625 -1.421875 35.59375 -1.421875 
Q 29.59375 -1.421875 25.265625 0.953125 
Q 20.953125 3.328125 18.109375 8.203125 
z
M 48.6875 27.296875 
Q 48.6875 37.203125 44.609375 42.84375 
Q 40.53125 48.484375 33.40625 48.484375 
Q 26.265625 48.484375 22.1875 42.84375 
Q 18.109375 37.203125 18.109375 27.296875 
Q 18.109375 17.390625 22.1875 11.75 
Q 26.265625 6.109375 33.40625 6.109375 
Q 40.53125 6.109375 44.609375 11.75 
Q 48.6875 17.390625 48.6875 27.296875 
z
" id="DejaVuSans-112"/>
       <path d="M 9.421875 54.6875 
L 18.40625 54.6875 
L 18.40625 0 
L 9.421875 0 
z
M 9.421875 75.984375 
L 18.40625 75.984375 
L 18.40625 64.59375 
L 9.421875 64.59375 
z
" id="DejaVuSans-105"/>
       <path d="M 44.28125 53.078125 
L 44.28125 44.578125 
Q 40.484375 46.53125 36.375 47.5 
Q 32.28125 48.484375 27.875 48.484375 
Q 21.1875 48.484375 17.84375 46.4375 
Q 14.5 44.390625 14.5 40.28125 
Q 14.5 37.15625 16.890625 35.375 
Q 19.28125 33.59375 26.515625 31.984375 
L 29.59375 31.296875 
Q 39.15625 29.25 43.1875 25.515625 
Q 47.21875 21.78125 47.21875 15.09375 
Q 47.21875 7.46875 41.1875 3.015625 
Q 35.15625 -1.421875 24.609375 -1.421875 
Q 20.21875 -1.421875 15.453125 -0.5625 
Q 10.6875 0.296875 5.421875 2 
L 5.421875 11.28125 
Q 10.40625 8.6875 15.234375 7.390625 
Q 20.0625 6.109375 24.8125 6.109375 
Q 31.15625 6.109375 34.5625 8.28125 
Q 37.984375 10.453125 37.984375 14.40625 
Q 37.984375 18.0625 35.515625 20.015625 
Q 33.0625 21.96875 24.703125 23.78125 
L 21.578125 24.515625 
Q 13.234375 26.265625 9.515625 29.90625 
Q 5.8125 33.546875 5.8125 39.890625 
Q 5.8125 47.609375 11.28125 51.796875 
Q 16.75 56 26.8125 56 
Q 31.78125 56 36.171875 55.265625 
Q 40.578125 54.546875 44.28125 53.078125 
z
" id="DejaVuSans-115"/>
       <path d="M 30.609375 48.390625 
Q 23.390625 48.390625 19.1875 42.75 
Q 14.984375 37.109375 14.984375 27.296875 
Q 14.984375 17.484375 19.15625 11.84375 
Q 23.34375 6.203125 30.609375 6.203125 
Q 37.796875 6.203125 41.984375 11.859375 
Q 46.1875 17.53125 46.1875 27.296875 
Q 46.1875 37.015625 41.984375 42.703125 
Q 37.796875 48.390625 30.609375 48.390625 
z
M 30.609375 56 
Q 42.328125 56 49.015625 48.375 
Q 55.71875 40.765625 55.71875 27.296875 
Q 55.71875 13.875 49.015625 6.21875 
Q 42.328125 -1.421875 30.609375 -1.421875 
Q 18.84375 -1.421875 12.171875 6.21875 
Q 5.515625 13.875 5.515625 27.296875 
Q 5.515625 40.765625 12.171875 48.375 
Q 18.84375 56 30.609375 56 
z
" id="DejaVuSans-111"/>
       <path d="M 45.40625 46.390625 
L 45.40625 75.984375 
L 54.390625 75.984375 
L 54.390625 0 
L 45.40625 0 
L 45.40625 8.203125 
Q 42.578125 3.328125 38.25 0.953125 
Q 33.9375 -1.421875 27.875 -1.421875 
Q 17.96875 -1.421875 11.734375 6.484375 
Q 5.515625 14.40625 5.515625 27.296875 
Q 5.515625 40.1875 11.734375 48.09375 
Q 17.96875 56 27.875 56 
Q 33.9375 56 38.25 53.625 
Q 42.578125 51.265625 45.40625 46.390625 
z
M 14.796875 27.296875 
Q 14.796875 17.390625 18.875 11.75 
Q 22.953125 6.109375 30.078125 6.109375 
Q 37.203125 6.109375 41.296875 11.75 
Q 45.40625 17.390625 45.40625 27.296875 
Q 45.40625 37.203125 41.296875 42.84375 
Q 37.203125 48.484375 30.078125 48.484375 
Q 22.953125 48.484375 18.875 42.84375 
Q 14.796875 37.203125 14.796875 27.296875 
z
" id="DejaVuSans-100"/>
       <path d="M 56.203125 29.59375 
L 56.203125 25.203125 
L 14.890625 25.203125 
Q 15.484375 15.921875 20.484375 11.0625 
Q 25.484375 6.203125 34.421875 6.203125 
Q 39.59375 6.203125 44.453125 7.46875 
Q 49.3125 8.734375 54.109375 11.28125 
L 54.109375 2.78125 
Q 49.265625 0.734375 44.1875 -0.34375 
Q 39.109375 -1.421875 33.890625 -1.421875 
Q 20.796875 -1.421875 13.15625 6.1875 
Q 5.515625 13.8125 5.515625 26.8125 
Q 5.515625 40.234375 12.765625 48.109375 
Q 20.015625 56 32.328125 56 
Q 43.359375 56 49.78125 48.890625 
Q 56.203125 41.796875 56.203125 29.59375 
z
M 47.21875 32.234375 
Q 47.125 39.59375 43.09375 43.984375 
Q 39.0625 48.390625 32.421875 48.390625 
Q 24.90625 48.390625 20.390625 44.140625 
Q 15.875 39.890625 15.1875 32.171875 
z
" id="DejaVuSans-101"/>
      </defs>
      <use xlink:href="#DejaVuSans-69"/>
      <use x="63.183594" xlink:href="#DejaVuSans-112"/>
      <use x="126.660156" xlink:href="#DejaVuSans-105"/>
      <use x="154.443359" xlink:href="#DejaVuSans-115"/>
      <use x="206.542969" xlink:href="#DejaVuSans-111"/>
      <use x="267.724609" xlink:href="#DejaVuSans-100"/>
      <use x="331.201172" xlink:href="#DejaVuSans-101"/>
     </g>
    </g>
   </g>
   <g id="matplotlib.axis_2">
    <g id="ytick_1">
     <g id="line2d_10">
      <defs>
       <path d="M 0 0 
L -3.5 0 
" id="m978eaf68ec" style="stroke:#000000;stroke-width:0.8;"/>
      </defs>
      <g>
       <use style="stroke:#000000;stroke-width:0.8;" x="57.6" xlink:href="#m978eaf68ec" y="295.509599"/>
      </g>
     </g>
     <g id="text_11">
      <!-- 0.00 -->
      <g transform="translate(28.334375 299.308817)scale(0.1 -0.1)">
       <defs>
        <path d="M 10.6875 12.40625 
L 21 12.40625 
L 21 0 
L 10.6875 0 
z
" id="DejaVuSans-46"/>
       </defs>
       <use xlink:href="#DejaVuSans-48"/>
       <use x="63.623047" xlink:href="#DejaVuSans-46"/>
       <use x="95.410156" xlink:href="#DejaVuSans-48"/>
       <use x="159.033203" xlink:href="#DejaVuSans-48"/>
      </g>
     </g>
    </g>
    <g id="ytick_2">
     <g id="line2d_11">
      <g>
       <use style="stroke:#000000;stroke-width:0.8;" x="57.6" xlink:href="#m978eaf68ec" y="246.356288"/>
      </g>
     </g>
     <g id="text_12">
      <!-- 0.05 -->
      <g transform="translate(28.334375 250.155507)scale(0.1 -0.1)">
       <use xlink:href="#DejaVuSans-48"/>
       <use x="63.623047" xlink:href="#DejaVuSans-46"/>
       <use x="95.410156" xlink:href="#DejaVuSans-48"/>
       <use x="159.033203" xlink:href="#DejaVuSans-53"/>
      </g>
     </g>
    </g>
    <g id="ytick_3">
     <g id="line2d_12">
      <g>
       <use style="stroke:#000000;stroke-width:0.8;" x="57.6" xlink:href="#m978eaf68ec" y="197.202977"/>
      </g>
     </g>
     <g id="text_13">
      <!-- 0.10 -->
      <g transform="translate(28.334375 201.002196)scale(0.1 -0.1)">
       <use xlink:href="#DejaVuSans-48"/>
       <use x="63.623047" xlink:href="#DejaVuSans-46"/>
       <use x="95.410156" xlink:href="#DejaVuSans-49"/>
       <use x="159.033203" xlink:href="#DejaVuSans-48"/>
      </g>
     </g>
    </g>
    <g id="ytick_4">
     <g id="line2d_13">
      <g>
       <use style="stroke:#000000;stroke-width:0.8;" x="57.6" xlink:href="#m978eaf68ec" y="148.049666"/>
      </g>
     </g>
     <g id="text_14">
      <!-- 0.15 -->
      <g transform="translate(28.334375 151.848885)scale(0.1 -0.1)">
       <use xlink:href="#DejaVuSans-48"/>
       <use x="63.623047" xlink:href="#DejaVuSans-46"/>
       <use x="95.410156" xlink:href="#DejaVuSans-49"/>
       <use x="159.033203" xlink:href="#DejaVuSans-53"/>
      </g>
     </g>
    </g>
    <g id="ytick_5">
     <g id="line2d_14">
      <g>
       <use style="stroke:#000000;stroke-width:0.8;" x="57.6" xlink:href="#m978eaf68ec" y="98.896355"/>
      </g>
     </g>
     <g id="text_15">
      <!-- 0.20 -->
      <g transform="translate(28.334375 102.695574)scale(0.1 -0.1)">
       <use xlink:href="#DejaVuSans-48"/>
       <use x="63.623047" xlink:href="#DejaVuSans-46"/>
       <use x="95.410156" xlink:href="#DejaVuSans-50"/>
       <use x="159.033203" xlink:href="#DejaVuSans-48"/>
      </g>
     </g>
    </g>
    <g id="ytick_6">
     <g id="line2d_15">
      <g>
       <use style="stroke:#000000;stroke-width:0.8;" x="57.6" xlink:href="#m978eaf68ec" y="49.743044"/>
      </g>
     </g>
     <g id="text_16">
      <!-- 0.25 -->
      <g transform="translate(28.334375 53.542263)scale(0.1 -0.1)">
       <use xlink:href="#DejaVuSans-48"/>
       <use x="63.623047" xlink:href="#DejaVuSans-46"/>
       <use x="95.410156" xlink:href="#DejaVuSans-50"/>
       <use x="159.033203" xlink:href="#DejaVuSans-53"/>
      </g>
     </g>
    </g>
    <g id="text_17">
     <!-- criticLoss -->
     <g transform="translate(22.254687 197.787375)rotate(-90)scale(0.1 -0.1)">
      <defs>
       <path d="M 48.78125 52.59375 
L 48.78125 44.1875 
Q 44.96875 46.296875 41.140625 47.34375 
Q 37.3125 48.390625 33.40625 48.390625 
Q 24.65625 48.390625 19.8125 42.84375 
Q 14.984375 37.3125 14.984375 27.296875 
Q 14.984375 17.28125 19.8125 11.734375 
Q 24.65625 6.203125 33.40625 6.203125 
Q 37.3125 6.203125 41.140625 7.25 
Q 44.96875 8.296875 48.78125 10.40625 
L 48.78125 2.09375 
Q 45.015625 0.34375 40.984375 -0.53125 
Q 36.96875 -1.421875 32.421875 -1.421875 
Q 20.0625 -1.421875 12.78125 6.34375 
Q 5.515625 14.109375 5.515625 27.296875 
Q 5.515625 40.671875 12.859375 48.328125 
Q 20.21875 56 33.015625 56 
Q 37.15625 56 41.109375 55.140625 
Q 45.0625 54.296875 48.78125 52.59375 
z
" id="DejaVuSans-99"/>
       <path d="M 41.109375 46.296875 
Q 39.59375 47.171875 37.8125 47.578125 
Q 36.03125 48 33.890625 48 
Q 26.265625 48 22.1875 43.046875 
Q 18.109375 38.09375 18.109375 28.8125 
L 18.109375 0 
L 9.078125 0 
L 9.078125 54.6875 
L 18.109375 54.6875 
L 18.109375 46.1875 
Q 20.953125 51.171875 25.484375 53.578125 
Q 30.03125 56 36.53125 56 
Q 37.453125 56 38.578125 55.875 
Q 39.703125 55.765625 41.0625 55.515625 
z
" id="DejaVuSans-114"/>
       <path d="M 18.3125 70.21875 
L 18.3125 54.6875 
L 36.8125 54.6875 
L 36.8125 47.703125 
L 18.3125 47.703125 
L 18.3125 18.015625 
Q 18.3125 11.328125 20.140625 9.421875 
Q 21.96875 7.515625 27.59375 7.515625 
L 36.8125 7.515625 
L 36.8125 0 
L 27.59375 0 
Q 17.1875 0 13.234375 3.875 
Q 9.28125 7.765625 9.28125 18.015625 
L 9.28125 47.703125 
L 2.6875 47.703125 
L 2.6875 54.6875 
L 9.28125 54.6875 
L 9.28125 70.21875 
z
" id="DejaVuSans-116"/>
       <path d="M 9.8125 72.90625 
L 19.671875 72.90625 
L 19.671875 8.296875 
L 55.171875 8.296875 
L 55.171875 0 
L 9.8125 0 
z
" id="DejaVuSans-76"/>
      </defs>
      <use xlink:href="#DejaVuSans-99"/>
      <use x="54.980469" xlink:href="#DejaVuSans-114"/>
      <use x="96.09375" xlink:href="#DejaVuSans-105"/>
      <use x="123.876953" xlink:href="#DejaVuSans-116"/>
      <use x="163.085938" xlink:href="#DejaVuSans-105"/>
      <use x="190.869141" xlink:href="#DejaVuSans-99"/>
      <use x="245.849609" xlink:href="#DejaVuSans-76"/>
      <use x="299.8125" xlink:href="#DejaVuSans-111"/>
      <use x="360.994141" xlink:href="#DejaVuSans-115"/>
      <use x="413.09375" xlink:href="#DejaVuSans-115"/>
     </g>
    </g>
   </g>
   <g id="line2d_16">
    <path clip-path="url(#pd5b7dad874)" d="M 73.832727 219.502081 
L 73.995136 284.06755 
L 74.157544 242.022494 
L 74.319953 287.491111 
L 74.482361 244.169946 
L 74.64477 279.970955 
L 74.807178 242.25742 
L 74.969587 245.496705 
L 75.131995 272.6879 
L 75.294404 272.496833 
L 75.456812 290.917951 
L 75.619221 290.533552 
L 75.944037 130.899325 
L 76.106446 88.316192 
L 76.268854 290.230524 
L 76.431263 291.145158 
L 76.593671 193.651565 
L 76.75608 282.694113 
L 76.918488 290.450155 
L 77.080897 190.377156 
L 77.243305 284.911875 
L 77.405714 285.534738 
L 77.892939 218.44749 
L 78.055348 219.456604 
L 78.217756 291.990839 
L 78.380165 294.285977 
L 78.542573 177.659359 
L 78.704982 285.035695 
L 78.86739 293.705698 
L 79.029799 286.599184 
L 79.192207 267.754347 
L 79.354615 271.434885 
L 79.517024 278.94613 
L 79.841841 241.046482 
L 80.004249 293.900324 
L 80.166658 267.396972 
L 80.329066 268.150867 
L 80.491475 281.942898 
L 80.653883 241.07964 
L 80.816292 246.067632 
L 80.9787 293.253981 
L 81.141109 248.767239 
L 81.303517 263.44127 
L 81.465926 195.58491 
L 81.628334 271.154332 
L 81.790743 261.133025 
L 81.953151 290.753701 
L 82.11556 251.152251 
L 82.277968 238.884096 
L 82.440377 249.196215 
L 82.602785 233.913591 
L 82.765194 293.141733 
L 83.09001 258.09473 
L 83.252419 294.492143 
L 83.414827 267.436271 
L 83.577236 284.635352 
L 83.739644 158.025498 
L 83.902053 155.088364 
L 84.064461 290.531133 
L 84.22687 118.054837 
L 84.389278 207.818762 
L 84.551687 210.44786 
L 84.714095 293.368277 
L 84.876504 276.949039 
L 85.038912 291.361851 
L 85.201321 199.316618 
L 85.363729 295.07382 
L 85.526138 285.758298 
L 85.688546 233.977738 
L 85.850955 291.888856 
L 86.013363 289.241744 
L 86.175772 204.048878 
L 86.662997 295.074819 
L 86.825405 288.610235 
L 86.987814 265.375694 
L 87.150222 266.23669 
L 87.475039 293.260989 
L 87.637448 283.143469 
L 87.799856 264.321383 
L 87.962265 264.287504 
L 88.124673 265.706655 
L 88.287082 258.372519 
L 88.44949 265.370884 
L 88.611899 218.306224 
L 88.774307 278.58121 
L 88.936716 294.62111 
L 89.099124 293.322601 
L 89.261533 293.599243 
L 89.423941 269.286235 
L 89.58635 294.743462 
L 89.748758 219.038079 
L 89.911166 279.256779 
L 90.073575 253.186735 
L 90.235983 265.946293 
L 90.398392 264.444067 
L 90.5608 294.432886 
L 90.723209 239.683914 
L 90.885617 275.722798 
L 91.048026 237.624985 
L 91.210434 294.825149 
L 91.372843 262.281687 
L 91.535251 269.075343 
L 91.69766 286.302398 
L 91.860068 170.224002 
L 92.022477 210.266976 
L 92.184885 156.433448 
L 92.347294 291.176363 
L 92.509702 293.611089 
L 92.672111 124.753307 
L 92.834519 292.43983 
L 92.996928 208.268759 
L 93.321745 278.88651 
L 93.484153 274.428864 
L 93.646561 210.310674 
L 93.80897 217.278294 
L 93.971378 294.652885 
L 94.296195 294.163198 
L 94.458604 262.808272 
L 94.621012 295.017443 
L 94.783421 286.425825 
L 94.945829 294.902534 
L 95.108238 285.968191 
L 95.270646 291.569294 
L 95.757872 265.747014 
L 95.92028 262.785647 
L 96.082689 220.509715 
L 96.245097 294.85245 
L 96.407506 289.609022 
L 96.569914 294.376587 
L 96.732323 271.26601 
L 96.894731 283.224843 
L 97.057139 270.065079 
L 97.219548 293.353995 
L 97.381956 246.340481 
L 97.544365 293.469077 
L 97.706773 270.06797 
L 97.869182 224.769492 
L 98.03159 295.311962 
L 98.193999 282.793511 
L 98.356407 256.831679 
L 98.518816 269.024508 
L 98.681224 239.248222 
L 98.843633 272.26853 
L 99.006041 270.443176 
L 99.16845 295.266138 
L 99.330858 236.995902 
L 99.493267 273.790052 
L 99.655675 225.722808 
L 99.980492 290.512427 
L 100.305309 147.321394 
L 100.467717 294.627062 
L 100.630126 181.405958 
L 100.792534 295.488 
L 100.954943 161.945817 
L 101.27976 289.799824 
L 101.442168 276.289862 
L 101.604577 294.383515 
L 101.766985 262.26331 
L 101.929394 295.050783 
L 102.091802 294.852568 
L 102.254211 295.294391 
L 102.416619 272.525932 
L 102.579028 286.064268 
L 102.741436 289.855115 
L 102.903845 224.908136 
L 103.066253 295.418351 
L 103.228662 294.065033 
L 103.39107 284.64721 
L 103.553479 251.5716 
L 103.715887 278.492551 
L 103.878296 282.848958 
L 104.040704 260.75766 
L 104.203112 293.329561 
L 104.365521 214.853898 
L 104.527929 294.353772 
L 104.690338 294.238251 
L 104.852746 277.569492 
L 105.015155 281.558661 
L 105.177563 295.477865 
L 105.50238 276.554207 
L 105.664789 237.716434 
L 105.827197 292.900127 
L 106.314423 232.463672 
L 106.476831 274.987568 
L 106.63924 274.889128 
L 106.801648 292.550205 
L 106.964057 252.98772 
L 107.288874 295.105887 
L 107.451282 188.279898 
L 107.776099 241.793789 
L 108.100916 276.507633 
L 108.263324 291.776594 
L 108.588141 149.985562 
L 108.75055 228.556807 
L 108.912958 169.544794 
L 109.237775 295.215819 
L 109.400184 291.333511 
L 109.562592 295.470088 
L 109.725001 294.835363 
L 109.887409 280.22057 
L 110.049818 279.566735 
L 110.212226 295.035831 
L 110.374635 274.624554 
L 110.699452 294.627943 
L 110.86186 287.477267 
L 111.024268 228.805207 
L 111.186677 294.235804 
L 111.349085 295.255419 
L 111.511494 264.334735 
L 111.673902 290.908257 
L 111.836311 294.418688 
L 111.998719 286.12263 
L 112.161128 283.542622 
L 112.323536 197.367094 
L 112.485945 294.421003 
L 112.648353 263.289732 
L 112.810762 280.968058 
L 112.97317 277.347714 
L 113.135579 242.013884 
L 113.297987 293.447915 
L 113.460396 294.639628 
L 113.622804 289.305746 
L 113.785213 220.156928 
L 113.947621 272.348415 
L 114.11003 279.199057 
L 114.272438 270.78956 
L 114.434847 236.018422 
L 114.597255 289.876261 
L 114.759663 293.0071 
L 114.922072 255.62734 
L 115.08448 291.707227 
L 115.246889 280.551215 
L 115.409297 279.185805 
L 115.571706 105.421263 
L 115.734114 228.636966 
L 115.896523 170.865972 
L 116.058931 270.797562 
L 116.22134 287.832948 
L 116.383748 279.272138 
L 116.546157 230.502824 
L 116.708565 262.724939 
L 116.870974 271.20013 
L 117.033382 172.724337 
L 117.195791 279.833 
L 117.358199 257.697728 
L 117.683016 292.519319 
L 117.845425 53.568 
L 118.007833 233.577759 
L 118.170241 288.881392 
L 118.495058 279.973903 
L 118.657467 156.930307 
L 118.819875 257.599794 
L 118.982284 245.223453 
L 119.307101 295.285255 
L 119.631918 280.02905 
L 119.794326 239.539356 
L 119.956735 284.529102 
L 120.119143 277.763415 
L 120.281552 295.390584 
L 120.44396 285.410166 
L 120.606369 258.014824 
L 120.768777 271.921801 
L 120.931186 273.375769 
L 121.093594 225.177682 
L 121.256003 244.585295 
L 121.418411 282.451468 
L 121.58082 264.822151 
L 121.743228 274.117497 
L 121.905636 259.516542 
L 122.068045 282.734176 
L 122.230453 248.276543 
L 122.392862 286.512137 
L 122.55527 286.307444 
L 122.717679 193.909458 
L 122.880087 280.914384 
L 123.042496 283.692993 
L 123.204904 281.439295 
L 123.367313 246.579103 
L 123.529721 294.864355 
L 123.854538 202.880825 
L 124.016947 278.594101 
L 124.179355 237.971459 
L 124.341764 274.532378 
L 124.504172 270.874644 
L 124.828989 167.919287 
L 124.991398 295.207634 
L 125.153806 178.420834 
L 125.478623 288.609637 
L 125.641031 289.036458 
L 125.80344 293.640878 
L 125.965848 293.42222 
L 126.128257 295.341834 
L 126.290665 295.364841 
L 126.453074 284.000558 
L 126.615482 293.782941 
L 126.777891 278.05173 
L 126.940299 280.324208 
L 127.102708 295.207918 
L 127.265116 294.248027 
L 127.427525 285.821382 
L 127.589933 234.541286 
L 127.752342 282.412009 
L 127.91475 294.757488 
L 128.077159 294.952937 
L 128.239567 246.026857 
L 128.401976 292.697917 
L 128.564384 268.463334 
L 128.726792 269.228112 
L 128.889201 294.750466 
L 129.051609 231.919146 
L 129.214018 294.594489 
L 129.538835 278.41561 
L 129.701243 294.999443 
L 129.863652 290.251291 
L 130.02606 295.090475 
L 130.188469 248.390489 
L 130.350877 288.107924 
L 130.675694 294.617955 
L 130.838103 262.320137 
L 131.000511 293.983314 
L 131.325328 242.152886 
L 131.487737 294.466501 
L 131.650145 267.37252 
L 131.812554 191.800158 
L 131.974962 282.719638 
L 132.137371 263.652096 
L 132.299779 224.699815 
L 132.462187 213.52615 
L 132.787004 290.427695 
L 132.949413 281.628249 
L 133.111821 285.771618 
L 133.27423 146.100678 
L 133.436638 294.623788 
L 133.599047 217.620732 
L 133.761455 292.776036 
L 134.086272 262.156407 
L 134.248681 276.095245 
L 134.411089 270.531823 
L 134.735906 280.199221 
L 134.898315 291.906691 
L 135.060723 288.450708 
L 135.38554 293.183531 
L 135.547949 293.962833 
L 135.710357 289.537199 
L 135.872765 294.872112 
L 136.035174 292.713761 
L 136.359991 295.330366 
L 136.522399 294.238679 
L 136.684808 276.147684 
L 136.847216 205.628147 
L 137.009625 278.131245 
L 137.172033 294.994148 
L 137.334442 257.209659 
L 137.49685 286.343474 
L 137.659259 257.913498 
L 137.821667 286.394324 
L 137.984076 292.954041 
L 138.146484 263.847277 
L 138.308893 289.962015 
L 138.471301 294.003254 
L 138.63371 286.481965 
L 138.796118 232.061159 
L 138.958527 293.689542 
L 139.120935 255.428907 
L 139.283343 294.483915 
L 139.60816 259.470185 
L 139.932977 294.646014 
L 140.095386 213.475531 
L 140.420203 280.748053 
L 140.582611 186.143476 
L 140.74502 238.363956 
L 140.907428 189.300152 
L 141.069837 278.709013 
L 141.232245 295.127881 
L 141.394654 280.966366 
L 141.557062 291.356217 
L 141.719471 258.706337 
L 141.881879 289.79643 
L 142.044288 294.694338 
L 142.206696 286.483709 
L 142.369105 239.906306 
L 142.693922 294.801093 
L 142.85633 288.962703 
L 143.018738 294.898142 
L 143.181147 289.6164 
L 143.343555 294.659657 
L 143.505964 283.714931 
L 143.668372 295.323033 
L 143.830781 294.814419 
L 143.993189 293.44334 
L 144.155598 295.33413 
L 144.318006 294.93696 
L 144.480415 285.672861 
L 144.642823 295.166149 
L 145.130049 240.060422 
L 145.292457 293.628043 
L 145.454866 279.763418 
L 145.617274 294.680637 
L 145.779683 295.401837 
L 145.942091 295.255265 
L 146.1045 290.65719 
L 146.266908 243.188635 
L 146.591725 291.674898 
L 146.754133 262.825576 
L 146.916542 295.230241 
L 147.07895 247.919962 
L 147.241359 294.934002 
L 147.403767 294.536031 
L 147.566176 269.332533 
L 147.728584 268.141702 
L 148.053401 294.761937 
L 148.21581 212.568124 
L 148.540627 276.182766 
L 148.703035 173.555365 
L 148.865444 214.123764 
L 149.027852 294.717505 
L 149.190261 278.183747 
L 149.352669 292.138983 
L 149.515078 253.458259 
L 149.677486 294.599726 
L 150.002303 280.403746 
L 150.164711 295.06072 
L 150.32712 257.301214 
L 150.489528 293.739431 
L 150.651937 283.688383 
L 150.814345 292.557716 
L 150.976754 294.502185 
L 151.301571 294.980337 
L 151.463979 286.300068 
L 151.626388 238.781294 
L 151.788796 294.963446 
L 151.951205 294.623827 
L 152.113613 279.872908 
L 152.276022 283.511449 
L 152.43843 294.918242 
L 152.763247 281.112458 
L 152.925656 294.476634 
L 153.088064 293.813883 
L 153.250473 292.48062 
L 153.412881 253.173317 
L 153.575289 292.908148 
L 153.737698 273.881254 
L 153.900106 295.415605 
L 154.062515 265.194087 
L 154.224923 294.009538 
L 154.387332 235.514993 
L 154.54974 295.056234 
L 154.874557 265.923348 
L 155.036966 294.9578 
L 155.199374 244.561399 
L 155.361783 294.985503 
L 155.524191 272.729283 
L 155.6866 294.411966 
L 156.011417 276.638193 
L 156.173825 294.230246 
L 156.336234 215.461912 
L 156.498642 275.745859 
L 156.661051 246.193172 
L 156.823459 171.457448 
L 156.985867 261.577324 
L 157.310684 294.676596 
L 157.473093 218.772232 
L 157.635501 287.028639 
L 157.79791 269.376095 
L 158.122727 293.482905 
L 158.285135 292.695316 
L 158.447544 294.271479 
L 158.609952 244.219895 
L 158.772361 293.807351 
L 158.934769 283.570057 
L 159.097178 294.256453 
L 159.259586 294.585226 
L 159.421995 294.312935 
L 159.584403 294.40621 
L 159.746812 294.065906 
L 159.90922 292.996176 
L 160.071629 282.134782 
L 160.234037 295.142119 
L 160.396445 286.713221 
L 160.721262 290.596682 
L 161.046079 274.968098 
L 161.208488 293.61064 
L 161.370896 294.303571 
L 161.533305 293.837115 
L 161.695713 234.15251 
L 161.858122 290.088458 
L 162.02053 294.422348 
L 162.182939 272.091771 
L 162.507756 289.94461 
L 162.670164 263.147726 
L 162.832573 294.601471 
L 162.994981 294.875729 
L 163.15739 293.993461 
L 163.319798 293.983458 
L 163.644615 247.761271 
L 163.807024 230.869506 
L 163.969432 279.00162 
L 164.13184 285.495572 
L 164.294249 270.164286 
L 164.456657 294.476651 
L 164.619066 253.37565 
L 164.781474 282.819851 
L 164.943883 200.720335 
L 165.106291 294.624861 
L 165.2687 251.892354 
L 165.431108 269.381974 
L 165.593517 205.198006 
L 165.755925 292.298046 
L 165.918334 295.205674 
L 166.080742 286.009761 
L 166.243151 294.478859 
L 166.405559 295.220734 
L 166.730376 290.754597 
L 166.892785 294.964833 
L 167.055193 295.447496 
L 167.217602 286.431906 
L 167.38001 249.028204 
L 167.704827 294.818483 
L 167.867235 288.766984 
L 168.192052 295.099154 
L 168.354461 294.49568 
L 168.516869 289.435946 
L 168.679278 294.895304 
L 168.841686 286.153714 
L 169.004095 292.868205 
L 169.328912 294.798322 
L 169.49132 284.699644 
L 169.653729 249.91949 
L 169.816137 295.12808 
L 169.978546 294.551377 
L 170.140954 295.346208 
L 170.303363 295.294868 
L 170.465771 266.226879 
L 170.62818 278.612031 
L 170.790588 254.099925 
L 170.952996 292.765337 
L 171.115405 295.134284 
L 171.277813 257.984926 
L 171.440222 295.143299 
L 171.60263 294.175495 
L 171.927447 255.184865 
L 172.089856 274.61733 
L 172.252264 266.806458 
L 172.414673 285.395418 
L 172.577081 234.671389 
L 172.73949 294.812212 
L 172.901898 289.304449 
L 173.064307 294.849874 
L 173.226715 201.498591 
L 173.389124 217.452659 
L 173.551532 295.028159 
L 173.713941 259.330505 
L 173.876349 294.090256 
L 174.038758 291.617713 
L 174.201166 275.703764 
L 174.363575 291.283498 
L 174.525983 295.044739 
L 174.688391 295.088604 
L 174.8508 295.272734 
L 175.013208 293.879135 
L 175.175617 288.335019 
L 175.338025 246.721581 
L 175.500434 295.364177 
L 175.662842 284.337845 
L 175.987659 291.00103 
L 176.150068 283.523851 
L 176.312476 291.793684 
L 176.474885 288.489125 
L 176.637293 295.189185 
L 176.799702 294.702884 
L 176.96211 288.395469 
L 177.124519 294.753677 
L 177.449336 295.161849 
L 177.611744 294.330546 
L 177.774153 295.276499 
L 177.936561 258.785452 
L 178.098969 295.223548 
L 178.261378 259.154983 
L 178.423786 294.996215 
L 178.586195 294.257386 
L 178.748603 295.436992 
L 178.911012 270.334936 
L 179.07342 291.737388 
L 179.235829 281.865366 
L 179.398237 249.674847 
L 179.723054 295.204167 
L 179.885463 261.525489 
L 180.21028 287.830848 
L 180.372688 266.942276 
L 180.535097 294.378676 
L 180.697505 241.084701 
L 180.859914 294.549754 
L 181.022322 294.410903 
L 181.184731 295.26346 
L 181.347139 212.492412 
L 181.509548 290.360851 
L 181.834364 213.772104 
L 181.996773 294.808564 
L 182.159181 294.155262 
L 182.32159 292.527537 
L 182.483998 289.492473 
L 182.646407 295.177597 
L 182.808815 295.410324 
L 182.971224 293.809749 
L 183.133632 293.893224 
L 183.296041 277.374078 
L 183.458449 283.871159 
L 183.620858 295.34636 
L 183.783266 294.722644 
L 183.945675 255.795516 
L 184.108083 289.08225 
L 184.270492 285.849984 
L 184.595309 295.391835 
L 184.757717 294.600658 
L 184.920126 295.09917 
L 185.082534 288.00636 
L 185.407351 294.338741 
L 185.569759 294.160095 
L 185.732168 263.540545 
L 185.894576 294.834517 
L 186.056985 295.107754 
L 186.219393 294.782245 
L 186.381802 281.645275 
L 186.54421 295.163109 
L 186.706619 257.112306 
L 186.869027 258.488981 
L 187.031436 292.498662 
L 187.193844 294.487072 
L 187.356253 269.984054 
L 187.518661 295.441449 
L 187.68107 278.105848 
L 187.843478 295.129343 
L 188.005887 269.427968 
L 188.168295 264.991715 
L 188.330704 293.833351 
L 188.493112 289.877569 
L 188.65552 276.743022 
L 188.817929 294.498973 
L 188.980337 246.647458 
L 189.142746 295.302147 
L 189.305154 294.236275 
L 189.467563 218.668174 
L 189.629971 262.279845 
L 189.79238 219.067677 
L 189.954788 294.38878 
L 190.117197 295.172758 
L 190.279605 292.063775 
L 190.442014 295.391364 
L 190.604422 294.758455 
L 190.766831 295.189095 
L 190.929239 293.323999 
L 191.091648 285.393373 
L 191.254056 294.54855 
L 191.416465 289.523001 
L 191.578873 294.31324 
L 191.741282 294.992275 
L 191.90369 292.397087 
L 192.066099 278.49734 
L 192.228507 294.955073 
L 192.390915 289.934807 
L 192.553324 288.854075 
L 192.715732 257.677 
L 192.878141 295.468902 
L 193.040549 289.098305 
L 193.202958 295.178064 
L 193.365366 294.470932 
L 193.527775 294.850369 
L 193.690183 294.561212 
L 193.852592 266.976001 
L 194.015 294.485471 
L 194.177409 294.488498 
L 194.339817 292.498378 
L 194.502226 282.615745 
L 194.664634 258.824194 
L 194.827043 295.446017 
L 195.15186 294.761194 
L 195.314268 260.669507 
L 195.476677 271.892044 
L 195.639085 293.537115 
L 195.801493 280.761529 
L 195.963902 295.26765 
L 196.12631 272.032834 
L 196.288719 293.927647 
L 196.451127 267.384682 
L 196.613536 290.283316 
L 196.775944 295.395375 
L 196.938353 246.314772 
L 197.26317 294.616903 
L 197.425578 294.725226 
L 197.587987 292.766101 
L 197.750395 225.190668 
L 198.075212 295.129237 
L 198.237621 295.322791 
L 198.400029 221.583972 
L 198.562438 294.994241 
L 198.724846 293.62454 
L 198.887255 294.988158 
L 199.049663 295.062703 
L 199.212071 293.272943 
L 199.37448 294.026966 
L 199.536888 289.325945 
L 199.699297 295.249356 
L 200.024114 284.710256 
L 200.186522 295.43618 
L 200.348931 294.395345 
L 200.511339 258.899002 
L 200.673748 286.961331 
L 200.836156 289.908037 
L 200.998565 271.662381 
L 201.160973 295.112314 
L 201.323382 268.858103 
L 201.648199 294.882713 
L 201.810607 295.272821 
L 201.973016 294.490692 
L 202.135424 294.591394 
L 202.297833 294.827016 
L 202.460241 261.29473 
L 202.62265 294.720243 
L 202.785058 293.24445 
L 202.947466 295.278432 
L 203.109875 295.41175 
L 203.272283 264.451197 
L 203.5971 294.538201 
L 203.759509 280.997591 
L 203.921917 293.361631 
L 204.084326 262.424319 
L 204.246734 274.568566 
L 204.409143 295.188634 
L 204.571551 280.223956 
L 204.73396 294.330335 
L 205.058777 288.549144 
L 205.221185 295.089474 
L 205.383594 239.010779 
L 205.546002 294.379805 
L 205.708411 256.622428 
L 205.870819 294.881464 
L 206.033228 293.24021 
L 206.195636 283.418688 
L 206.358044 294.687132 
L 206.520453 294.371076 
L 206.682861 294.300414 
L 206.84527 194.616425 
L 207.007678 288.642521 
L 207.170087 289.815282 
L 207.332495 277.158481 
L 207.494904 293.439973 
L 207.657312 291.343255 
L 207.819721 292.055928 
L 207.982129 294.579443 
L 208.144538 294.729267 
L 208.306946 295.043231 
L 208.631763 293.414356 
L 208.794172 284.689582 
L 208.95658 244.564765 
L 209.118989 293.167771 
L 209.281397 292.775003 
L 209.443806 294.396356 
L 209.606214 260.258717 
L 209.768622 294.937277 
L 209.931031 294.745111 
L 210.093439 293.826852 
L 210.255848 288.817159 
L 210.418256 292.797861 
L 210.580665 283.358258 
L 210.743073 290.653137 
L 210.905482 279.215357 
L 211.06789 248.331136 
L 211.230299 289.800884 
L 211.392707 291.339124 
L 211.717524 295.100009 
L 211.879933 272.171318 
L 212.042341 294.017475 
L 212.20475 275.568028 
L 212.367158 295.396348 
L 212.529567 292.902257 
L 212.691975 285.087709 
L 212.854384 294.876205 
L 213.016792 294.547699 
L 213.179201 258.942366 
L 213.341609 293.868007 
L 213.504017 289.191674 
L 213.666426 294.447869 
L 213.828834 229.012173 
L 213.991243 282.168998 
L 214.153651 294.954767 
L 214.31606 291.477284 
L 214.478468 294.513399 
L 214.640877 294.899669 
L 214.803285 294.789829 
L 214.965694 233.578389 
L 215.128102 295.389496 
L 215.290511 294.302309 
L 215.452919 269.957798 
L 215.615328 292.069372 
L 215.777736 295.118038 
L 215.940145 294.264213 
L 216.102553 294.83549 
L 216.264962 292.137469 
L 216.42737 295.175232 
L 216.589779 295.139527 
L 216.752187 293.925947 
L 216.914595 295.154537 
L 217.077004 264.513114 
L 217.239412 292.604945 
L 217.401821 281.440529 
L 217.564229 295.309231 
L 217.726638 295.321243 
L 217.889046 294.530524 
L 218.051455 274.370116 
L 218.213863 294.459223 
L 218.53868 284.527798 
L 218.701089 295.272457 
L 218.863497 269.238286 
L 219.025906 294.386576 
L 219.188314 267.948924 
L 219.350723 295.287527 
L 219.513131 285.783491 
L 219.67554 295.019333 
L 219.837948 295.471008 
L 220.000357 295.252666 
L 220.162765 273.7159 
L 220.325173 278.623334 
L 220.487582 295.135708 
L 220.64999 292.095112 
L 220.812399 277.393133 
L 220.974807 295.126613 
L 221.299624 295.328979 
L 221.462033 294.276824 
L 221.624441 260.909605 
L 221.78685 286.671307 
L 221.949258 294.561428 
L 222.111667 294.768353 
L 222.274075 242.132711 
L 222.436484 295.046053 
L 222.598892 293.520526 
L 222.761301 295.328636 
L 222.923709 295.115174 
L 223.086118 295.308019 
L 223.248526 287.810556 
L 223.410935 295.343673 
L 223.573343 294.840218 
L 223.735752 295.084749 
L 223.89816 291.385654 
L 224.060568 294.533557 
L 224.222977 233.083823 
L 224.385385 295.353885 
L 224.547794 278.601008 
L 224.710202 294.653545 
L 224.872611 295.261036 
L 225.035019 280.737117 
L 225.197428 295.317104 
L 225.359836 294.744996 
L 225.522245 264.338203 
L 225.684653 295.117951 
L 225.847062 295.429928 
L 226.00947 276.563116 
L 226.171879 294.441302 
L 226.334287 286.820484 
L 226.496696 291.600938 
L 226.659104 292.475861 
L 226.821513 294.935493 
L 226.983921 294.266724 
L 227.14633 274.323964 
L 227.308738 294.915663 
L 227.471146 270.792221 
L 227.633555 295.413146 
L 227.795963 288.284425 
L 227.958372 293.490402 
L 228.12078 288.285871 
L 228.283189 268.07607 
L 228.445597 295.384137 
L 228.608006 282.078713 
L 228.770414 293.615289 
L 228.932823 282.170327 
L 229.095231 295.001986 
L 229.25764 294.802799 
L 229.420048 294.845765 
L 229.582457 262.257429 
L 229.744865 289.408686 
L 229.907274 258.829881 
L 230.069682 294.515808 
L 230.232091 294.955709 
L 230.394499 293.096411 
L 230.556908 295.356166 
L 230.719316 294.029348 
L 230.881724 294.604419 
L 231.044133 294.44054 
L 231.206541 293.608296 
L 231.531358 294.776822 
L 231.693767 294.675703 
L 231.856175 293.57528 
L 232.018584 287.087046 
L 232.180992 288.994332 
L 232.343401 295.026191 
L 232.505809 219.136622 
L 232.668218 285.372405 
L 232.830626 292.326565 
L 232.993035 270.177554 
L 233.155443 294.136899 
L 233.317852 294.817617 
L 233.48026 294.931767 
L 233.642669 292.485587 
L 233.805077 261.101376 
L 233.967486 289.657123 
L 234.292303 294.493114 
L 234.617119 293.663756 
L 234.779528 290.293378 
L 234.941936 294.132382 
L 235.104345 294.813481 
L 235.429162 294.364682 
L 235.753979 295.359034 
L 235.916387 281.253299 
L 236.078796 278.364076 
L 236.241204 294.249596 
L 236.403613 290.251425 
L 236.566021 280.597251 
L 236.890838 294.078829 
L 237.053247 295.379442 
L 237.215655 294.9764 
L 237.378064 259.857021 
L 237.540472 292.319038 
L 237.702881 295.248107 
L 237.865289 287.250385 
L 238.027697 292.912822 
L 238.352514 241.237071 
L 238.514923 293.606957 
L 238.677331 295.44554 
L 239.002148 293.857732 
L 239.164557 295.154779 
L 239.326965 282.850726 
L 239.489374 295.42349 
L 239.651782 295.297906 
L 239.976599 293.903352 
L 240.139008 295.479234 
L 240.301416 295.147934 
L 240.463825 278.893773 
L 240.626233 293.844875 
L 240.788642 283.161236 
L 240.95105 294.531853 
L 241.113459 294.822581 
L 241.275867 295.480138 
L 241.438276 244.67447 
L 241.600684 295.45277 
L 241.763092 295.298249 
L 241.925501 270.403551 
L 242.087909 295.230785 
L 242.412726 280.977264 
L 242.575135 285.307748 
L 242.737543 285.550031 
L 242.899952 294.172559 
L 243.06236 291.536964 
L 243.224769 295.253452 
L 243.387177 294.274485 
L 243.549586 294.23782 
L 243.711994 292.002967 
L 243.874403 295.410948 
L 244.036811 284.284814 
L 244.19922 293.408098 
L 244.361628 288.867262 
L 244.524037 295.348066 
L 244.686445 266.391953 
L 245.17367 293.924429 
L 245.336079 295.343767 
L 245.498487 289.968131 
L 245.660896 291.595221 
L 245.823304 290.974351 
L 245.985713 262.820988 
L 246.148121 274.054352 
L 246.31053 294.872228 
L 246.472938 291.775738 
L 246.635347 295.39265 
L 246.797755 267.233268 
L 246.960164 294.131007 
L 247.122572 293.630262 
L 247.284981 293.54558 
L 247.447389 292.068933 
L 247.609798 288.322945 
L 247.772206 289.907615 
L 247.934615 293.850262 
L 248.259432 291.762322 
L 248.42184 292.806345 
L 248.584248 287.96473 
L 248.746657 293.587912 
L 248.909065 273.377014 
L 249.233882 295.110002 
L 249.396291 291.124742 
L 249.558699 293.630966 
L 249.721108 222.083065 
L 249.883516 279.575757 
L 250.045925 292.632928 
L 250.370742 291.602117 
L 250.53315 286.350257 
L 250.695559 256.105943 
L 250.857967 295.123688 
L 251.020376 286.284772 
L 251.182784 294.389392 
L 251.345193 294.878997 
L 251.67001 290.907807 
L 251.832418 291.863095 
L 251.994827 284.832752 
L 252.319643 294.368082 
L 252.482052 292.229734 
L 252.64446 294.737072 
L 252.806869 293.182227 
L 253.131686 281.125782 
L 253.294094 293.430198 
L 253.456503 294.634685 
L 253.618911 292.798606 
L 253.78132 293.961283 
L 254.106137 290.428823 
L 254.268545 293.284184 
L 254.593362 263.691432 
L 254.755771 294.683762 
L 254.918179 260.495369 
L 255.080588 294.924508 
L 255.242996 294.509301 
L 255.405405 292.756176 
L 255.567813 295.081753 
L 255.730221 294.663446 
L 255.89263 288.005973 
L 256.055038 293.020511 
L 256.217447 280.688357 
L 256.379855 295.061478 
L 256.542264 294.949267 
L 256.704672 284.940108 
L 256.867081 295.327233 
L 257.191898 294.317933 
L 257.354306 294.689676 
L 257.516715 239.618046 
L 257.679123 293.82404 
L 257.841532 294.000746 
L 258.00394 293.264853 
L 258.166349 295.079711 
L 258.328757 291.597974 
L 258.491166 293.644933 
L 258.653574 269.461981 
L 258.815983 292.417555 
L 258.978391 294.907544 
L 259.303208 294.578648 
L 259.465616 294.863088 
L 259.628025 288.175977 
L 259.790433 295.227699 
L 259.952842 293.650935 
L 260.11525 288.59613 
L 260.277659 279.341519 
L 260.440067 291.949862 
L 260.602476 294.509621 
L 260.764884 294.727402 
L 260.927293 293.851948 
L 261.089701 283.021359 
L 261.25211 295.033079 
L 261.414518 294.86297 
L 261.576927 295.084658 
L 261.901744 294.663936 
L 262.064152 272.414758 
L 262.226561 294.305498 
L 262.388969 275.561198 
L 262.551378 294.686017 
L 262.713786 293.334327 
L 263.038603 294.766254 
L 263.201011 294.962499 
L 263.36342 286.965148 
L 263.525828 290.932468 
L 263.688237 269.293994 
L 263.850645 294.541705 
L 264.013054 282.002677 
L 264.175462 292.408743 
L 264.337871 294.975446 
L 264.500279 277.887705 
L 264.662688 294.803321 
L 264.825096 293.654097 
L 264.987505 294.997158 
L 265.149913 294.925103 
L 265.312322 292.883822 
L 265.47473 294.047078 
L 265.637139 269.61518 
L 265.799547 294.863146 
L 266.124364 286.203473 
L 266.286772 294.782918 
L 266.449181 293.377337 
L 266.611589 238.916861 
L 266.773998 294.874072 
L 266.936406 293.074113 
L 267.098815 294.831678 
L 267.423632 290.737621 
L 267.58604 292.950328 
L 267.748449 288.097739 
L 267.910857 295.096431 
L 268.073266 293.487563 
L 268.235674 289.591291 
L 268.560491 294.478868 
L 268.7229 293.410462 
L 268.885308 295.105843 
L 269.047717 293.176837 
L 269.210125 294.68442 
L 269.534942 273.599042 
L 269.69735 294.713753 
L 269.859759 293.381524 
L 270.022167 288.329248 
L 270.184576 294.337535 
L 270.346984 292.966469 
L 270.509393 287.834016 
L 270.671801 287.504296 
L 270.83421 294.905494 
L 270.996618 269.255813 
L 271.159027 277.265569 
L 271.321435 293.897768 
L 271.483844 293.641946 
L 271.971069 288.656256 
L 272.133478 293.673246 
L 272.295886 292.601549 
L 272.620703 285.956221 
L 272.783112 292.673891 
L 272.94552 290.952589 
L 273.107929 291.37913 
L 273.270337 279.128552 
L 273.432745 289.741873 
L 273.595154 222.870879 
L 273.757562 284.101073 
L 273.919971 295.367495 
L 274.082379 261.506966 
L 274.244788 289.327148 
L 274.407196 292.733789 
L 274.569605 293.114414 
L 274.732013 292.57218 
L 274.894422 292.676893 
L 275.05683 291.162521 
L 275.219239 292.615099 
L 275.381647 288.034866 
L 275.706464 293.496433 
L 275.868873 291.729763 
L 276.031281 291.589479 
L 276.19369 295.299038 
L 276.518507 292.980823 
L 276.680915 294.791875 
L 276.843323 289.665375 
L 277.005732 290.370348 
L 277.330549 293.713428 
L 277.492957 292.175165 
L 277.655366 294.750529 
L 277.817774 283.277469 
L 277.980183 291.513768 
L 278.142591 290.785234 
L 278.305 270.739426 
L 278.467408 294.015901 
L 278.629817 276.222953 
L 278.792225 294.63765 
L 278.954634 293.681832 
L 279.117042 294.400263 
L 279.279451 289.79662 
L 279.441859 291.475961 
L 279.604268 295.090567 
L 279.766676 294.350911 
L 279.929085 294.505237 
L 280.091493 294.040733 
L 280.253901 291.615978 
L 280.41631 294.920301 
L 280.578718 272.782165 
L 280.741127 292.954036 
L 280.903535 294.148937 
L 281.065944 294.431939 
L 281.228352 294.403938 
L 281.390761 243.859962 
L 281.715578 292.171187 
L 282.040395 295.21864 
L 282.365212 283.610639 
L 282.52762 294.563373 
L 282.690029 294.811318 
L 282.852437 294.744081 
L 283.014846 292.091435 
L 283.177254 294.973057 
L 283.339663 293.950312 
L 283.502071 294.990967 
L 283.66448 294.367008 
L 283.826888 294.379504 
L 283.989296 292.243013 
L 284.151705 295.151848 
L 284.314113 294.871417 
L 284.476522 295.087694 
L 284.63893 295.067447 
L 284.801339 294.796271 
L 284.963747 294.967983 
L 285.126156 294.109645 
L 285.288564 294.710519 
L 285.613381 294.297694 
L 285.938198 286.705708 
L 286.100607 276.360057 
L 286.263015 295.200434 
L 286.425424 295.145482 
L 286.587832 293.807343 
L 286.750241 294.93973 
L 286.912649 281.728346 
L 287.075058 286.116002 
L 287.237466 295.124424 
L 287.399874 294.910831 
L 287.562283 294.92324 
L 287.724691 291.982883 
L 287.8871 294.556676 
L 288.049508 282.077912 
L 288.211917 294.732142 
L 288.536734 294.962937 
L 288.699142 270.834105 
L 288.861551 294.596597 
L 289.023959 294.418338 
L 289.186368 294.88782 
L 289.348776 294.377055 
L 289.511185 294.800762 
L 289.673593 277.412956 
L 289.99841 294.165899 
L 290.160819 294.534283 
L 290.323227 254.162853 
L 290.485636 291.689977 
L 290.648044 288.162039 
L 290.810452 295.04014 
L 290.972861 295.005156 
L 291.135269 295.144883 
L 291.297678 286.623722 
L 291.460086 294.14654 
L 291.622495 294.092192 
L 291.784903 292.029187 
L 291.947312 295.030003 
L 292.10972 292.506831 
L 292.272129 294.87759 
L 292.596946 293.663167 
L 292.759354 295.297481 
L 292.921763 285.135801 
L 293.084171 292.494174 
L 293.24658 280.637093 
L 293.408988 294.22455 
L 293.571397 272.515745 
L 293.733805 295.117846 
L 293.896214 292.013908 
L 294.058622 294.791878 
L 294.221031 290.235484 
L 294.383439 289.496599 
L 294.545847 278.53422 
L 294.708256 293.968695 
L 294.870664 281.713785 
L 295.033073 294.303006 
L 295.195481 294.167073 
L 295.35789 295.314922 
L 295.520298 284.646258 
L 295.682707 289.776496 
L 295.845115 287.972599 
L 296.007524 293.963817 
L 296.169932 289.877919 
L 296.332341 290.587285 
L 296.494749 284.961872 
L 296.657158 294.793026 
L 296.819566 283.14636 
L 296.981975 281.024557 
L 297.144383 290.542222 
L 297.4692 288.191951 
L 297.631609 291.922277 
L 297.794017 287.50489 
L 297.956425 236.346772 
L 298.118834 291.684546 
L 298.443651 288.386224 
L 298.606059 294.577869 
L 298.768468 274.284538 
L 299.093285 289.303203 
L 299.255693 294.861891 
L 299.418102 293.020503 
L 299.58051 286.823605 
L 299.742919 294.707064 
L 299.905327 291.83912 
L 300.067736 293.147175 
L 300.230144 289.757921 
L 300.392553 289.389437 
L 300.554961 291.941547 
L 300.71737 289.657631 
L 300.879778 294.563229 
L 301.042187 287.91162 
L 301.204595 292.614487 
L 301.367004 265.081196 
L 301.529412 286.907969 
L 301.69182 287.058377 
L 301.854229 279.241991 
L 302.179046 294.124311 
L 302.503863 285.579603 
L 302.82868 294.619639 
L 302.991088 294.568783 
L 303.153497 295.459354 
L 303.478314 293.900156 
L 303.640722 294.541479 
L 303.803131 292.345872 
L 303.965539 294.442655 
L 304.290356 292.71444 
L 304.452765 290.555879 
L 304.615173 294.161561 
L 304.93999 279.387184 
L 305.102398 292.039452 
L 305.264807 293.707555 
L 305.427215 293.795736 
L 305.589624 293.601877 
L 305.752032 294.3093 
L 305.914441 252.832684 
L 306.076849 287.711008 
L 306.239258 294.617547 
L 306.401666 291.140243 
L 306.564075 294.998199 
L 306.726483 294.03326 
L 306.888892 295.480768 
L 307.0513 294.728303 
L 307.213709 295.102447 
L 307.376117 276.820419 
L 307.538526 295.386864 
L 307.700934 295.140715 
L 307.863343 295.236122 
L 308.025751 294.93346 
L 308.18816 293.855508 
L 308.512976 294.95259 
L 308.675385 295.342108 
L 308.837793 294.169979 
L 309.16261 295.185191 
L 309.325019 280.102219 
L 309.487427 291.379379 
L 309.649836 294.840877 
L 309.812244 292.945619 
L 309.974653 292.446162 
L 310.137061 295.303681 
L 310.624287 293.994371 
L 310.786695 295.105824 
L 310.949104 289.025824 
L 311.111512 294.673292 
L 311.273921 294.143929 
L 311.436329 295.298763 
L 311.598738 295.34307 
L 311.761146 294.724605 
L 312.085963 295.428234 
L 312.248371 294.676624 
L 312.41078 295.19575 
L 312.573188 295.235629 
L 312.735597 292.998597 
L 312.898005 294.334213 
L 313.060414 292.537715 
L 313.222822 272.286105 
L 313.385231 295.035866 
L 313.547639 268.083691 
L 313.710048 295.123525 
L 313.872456 295.211917 
L 314.034865 292.219585 
L 314.197273 295.214891 
L 314.359682 294.071765 
L 314.52209 295.099839 
L 314.684499 294.737943 
L 314.846907 294.819882 
L 315.009316 292.362462 
L 315.334133 295.304215 
L 315.496541 295.375997 
L 315.658949 295.202492 
L 315.821358 292.948846 
L 315.983766 294.811783 
L 316.146175 294.978653 
L 316.308583 294.971742 
L 316.470992 284.165182 
L 316.6334 292.266006 
L 316.958217 295.405173 
L 317.120626 294.428218 
L 317.283034 295.301181 
L 317.445443 287.165035 
L 317.607851 294.872572 
L 317.77026 294.866945 
L 317.932668 290.780707 
L 318.095077 294.692218 
L 318.257485 295.245535 
L 318.419894 289.87801 
L 318.582302 294.627416 
L 318.744711 294.389226 
L 318.907119 288.815523 
L 319.069527 294.018994 
L 319.231936 294.813155 
L 319.556753 295.150064 
L 319.719161 295.416478 
L 319.88157 294.760693 
L 320.043978 295.143572 
L 320.206387 294.588783 
L 320.368795 293.171826 
L 320.693612 295.044342 
L 320.856021 294.889545 
L 321.018429 266.909992 
L 321.505655 294.959083 
L 321.668063 294.914068 
L 321.830472 295.147154 
L 321.99288 294.267674 
L 322.155289 292.10643 
L 322.317697 294.805841 
L 322.480106 294.485074 
L 322.642514 295.397067 
L 322.967331 294.365176 
L 323.129739 292.319375 
L 323.292148 294.998242 
L 323.454556 294.121404 
L 323.616965 294.617514 
L 323.779373 293.404872 
L 323.941782 295.238788 
L 324.10419 293.256638 
L 324.266599 295.222692 
L 324.429007 294.95303 
L 324.591416 281.051587 
L 324.753824 294.720977 
L 324.916233 295.343965 
L 325.078641 294.779993 
L 325.24105 286.280833 
L 325.403458 293.36848 
L 325.565867 294.958491 
L 325.728275 294.650051 
L 325.890684 292.029778 
L 326.053092 291.502356 
L 326.2155 294.786462 
L 326.377909 294.496323 
L 326.865134 295.324425 
L 327.189951 294.806227 
L 327.35236 294.985356 
L 327.514768 293.942029 
L 327.677177 295.256942 
L 327.839585 294.955641 
L 328.001994 294.902118 
L 328.164402 294.457295 
L 328.326811 294.545167 
L 328.489219 293.658263 
L 328.651628 294.493573 
L 328.976445 294.918945 
L 329.138853 292.67019 
L 329.301262 275.460046 
L 329.46367 292.969455 
L 329.626078 295.240455 
L 329.788487 272.694283 
L 329.950895 294.806445 
L 330.113304 293.758252 
L 330.275712 294.140048 
L 330.438121 295.062458 
L 330.600529 293.714037 
L 330.762938 294.586387 
L 330.925346 294.695107 
L 331.087755 295.432477 
L 331.412572 292.812717 
L 331.57498 294.945334 
L 331.737389 294.759245 
L 331.899797 294.321857 
L 332.062206 294.814481 
L 332.224614 290.492751 
L 332.387023 294.536592 
L 332.549431 290.199084 
L 332.71184 295.019378 
L 332.874248 294.823831 
L 333.036657 294.833811 
L 333.199065 286.481972 
L 333.523882 291.999452 
L 333.68629 294.126795 
L 333.848699 293.122402 
L 334.011107 295.284881 
L 334.173516 291.532009 
L 334.335924 295.484371 
L 334.660741 293.863259 
L 334.82315 294.779379 
L 335.147967 294.338555 
L 335.310375 289.323327 
L 335.472784 294.685233 
L 335.960009 294.840933 
L 336.122418 294.247987 
L 336.609643 295.42887 
L 336.772051 265.181328 
L 336.93446 294.629056 
L 337.096868 292.779571 
L 337.421685 295.099923 
L 337.584094 295.315626 
L 337.746502 294.740559 
L 337.908911 293.350403 
L 338.071319 294.966313 
L 338.233728 294.760218 
L 338.396136 293.760422 
L 338.558545 294.991916 
L 338.720953 294.539321 
L 338.883362 294.74354 
L 339.04577 285.405287 
L 339.208179 294.557591 
L 339.370587 294.427544 
L 339.532996 294.892632 
L 339.695404 292.937477 
L 340.020221 295.248649 
L 340.182629 294.932326 
L 340.345038 295.250323 
L 340.507446 294.792435 
L 340.669855 295.008097 
L 340.994672 294.868507 
L 341.15708 283.590688 
L 341.319489 294.168744 
L 341.481897 295.240653 
L 341.644306 294.3854 
L 341.806714 284.195547 
L 341.969123 294.64869 
L 342.131531 294.721265 
L 342.29394 294.420074 
L 342.456348 295.403289 
L 342.781165 293.359405 
L 342.943574 295.186837 
L 343.105982 294.268551 
L 343.268391 294.756719 
L 343.430799 294.229016 
L 343.593208 294.852286 
L 343.755616 293.470313 
L 343.918024 295.140425 
L 344.080433 295.352624 
L 344.242841 294.713919 
L 344.40525 291.365709 
L 344.567658 294.3237 
L 344.730067 293.728248 
L 344.892475 295.002398 
L 345.054884 278.581074 
L 345.217292 294.694174 
L 345.542109 293.229413 
L 345.704518 295.318796 
L 345.866926 277.443688 
L 346.029335 294.105873 
L 346.191743 290.018976 
L 346.354152 289.685139 
L 346.51656 295.204368 
L 346.678969 294.140241 
L 346.841377 294.062896 
L 347.003786 292.759167 
L 347.166194 294.552364 
L 347.328602 294.577337 
L 347.491011 288.837878 
L 347.653419 295.377739 
L 347.978236 293.63276 
L 348.140645 290.779688 
L 348.303053 294.492161 
L 348.465462 295.112963 
L 348.62787 295.072945 
L 348.790279 288.142716 
L 349.115096 295.077152 
L 349.277504 294.987955 
L 349.439913 290.435707 
L 349.602321 293.307221 
L 349.76473 292.427338 
L 349.927138 295.401603 
L 350.089547 295.131119 
L 350.251955 288.34139 
L 350.414364 292.795012 
L 350.576772 286.322199 
L 350.73918 292.547715 
L 350.901589 294.165007 
L 351.063997 284.551561 
L 351.226406 294.789995 
L 351.388814 294.065982 
L 351.551223 291.885496 
L 351.713631 294.77326 
L 351.87604 292.091772 
L 352.038448 292.547406 
L 352.200857 295.224227 
L 352.363265 294.147894 
L 352.525674 284.133105 
L 352.688082 259.179095 
L 352.850491 294.424263 
L 353.012899 287.167458 
L 353.337716 295.357638 
L 353.500125 294.819244 
L 353.662533 290.148654 
L 353.824942 295.259217 
L 354.149759 289.893306 
L 354.474575 295.272702 
L 354.636984 295.136147 
L 354.799392 294.351697 
L 354.961801 291.556542 
L 355.286618 295.065054 
L 355.449026 294.823132 
L 355.611435 293.031729 
L 355.773843 294.962163 
L 355.936252 293.924583 
L 356.09866 293.998254 
L 356.261069 290.232419 
L 356.423477 289.444357 
L 356.585886 284.832464 
L 356.748294 295.211484 
L 356.910703 281.78686 
L 357.073111 291.72853 
L 357.23552 291.973383 
L 357.397928 291.978183 
L 357.560337 285.360175 
L 357.885153 295.191696 
L 358.047562 295.247504 
L 358.20997 294.427374 
L 358.372379 290.780099 
L 358.534787 292.633209 
L 358.697196 290.897124 
L 359.022013 293.623005 
L 359.184421 294.975918 
L 359.34683 294.209277 
L 359.509238 278.721972 
L 359.671647 294.812888 
L 359.834055 294.279685 
L 359.996464 295.252376 
L 360.158872 292.279612 
L 360.321281 294.658206 
L 360.483689 281.489463 
L 360.808506 294.231897 
L 360.970915 295.241233 
L 361.295732 284.051314 
L 361.45814 294.735211 
L 361.620548 291.183468 
L 361.782957 294.316052 
L 361.945365 291.683112 
L 362.107774 280.745292 
L 362.270182 294.571052 
L 362.432591 292.558658 
L 362.594999 292.247244 
L 362.757408 293.987752 
L 362.919816 293.653436 
L 363.082225 288.233362 
L 363.407042 295.182107 
L 363.56945 294.676857 
L 363.731859 294.684621 
L 363.894267 295.34849 
L 364.056676 295.017412 
L 364.219084 295.255418 
L 364.381493 294.427431 
L 364.543901 295.27048 
L 364.70631 292.585877 
L 364.868718 295.069476 
L 365.031126 292.658156 
L 365.193535 288.231677 
L 365.355943 294.025503 
L 365.518352 295.128214 
L 365.68076 292.709928 
L 365.843169 293.338857 
L 366.005577 295.176303 
L 366.167986 292.596695 
L 366.330394 293.804535 
L 366.492803 290.328748 
L 366.655211 294.980535 
L 366.81762 294.091879 
L 366.980028 294.878815 
L 367.142437 287.286802 
L 367.304845 294.849283 
L 367.467254 288.314776 
L 367.629662 290.821076 
L 367.792071 289.701368 
L 367.954479 280.334752 
L 368.116888 294.837792 
L 368.279296 291.265436 
L 368.441704 295.34255 
L 368.604113 289.984407 
L 368.766521 261.488468 
L 368.92893 290.183977 
L 369.091338 294.586191 
L 369.253747 294.234956 
L 369.416155 295.22761 
L 369.578564 288.452219 
L 369.740972 294.389924 
L 369.903381 292.464895 
L 370.065789 294.892072 
L 370.228198 294.820556 
L 370.390606 290.204553 
L 370.553015 289.770606 
L 370.715423 293.677281 
L 370.877832 294.798034 
L 371.04024 288.736014 
L 371.202649 295.226962 
L 371.365057 294.881004 
L 371.852283 288.119403 
L 372.014691 289.963992 
L 372.177099 290.131111 
L 372.339508 292.469957 
L 372.501916 290.107905 
L 372.664325 293.677606 
L 372.826733 294.527893 
L 372.989142 290.922259 
L 373.15155 294.018795 
L 373.313959 290.648723 
L 373.476367 282.814389 
L 373.638776 294.346982 
L 373.801184 294.88832 
L 373.963593 291.852011 
L 374.126001 291.757578 
L 374.28841 292.038839 
L 374.450818 293.354335 
L 374.613227 291.34576 
L 374.775635 294.065928 
L 374.938044 294.024249 
L 375.100452 292.613562 
L 375.262861 294.430657 
L 375.425269 287.174095 
L 375.587677 294.346659 
L 375.750086 279.041569 
L 375.912494 293.694234 
L 376.074903 289.391982 
L 376.562128 293.182905 
L 376.724537 277.235244 
L 376.886945 294.416001 
L 377.211762 291.770011 
L 377.374171 294.48942 
L 377.536579 295.148439 
L 377.698988 293.907425 
L 378.023805 295.061133 
L 378.186213 294.166723 
L 378.348622 295.041016 
L 378.51103 294.86002 
L 378.673439 288.492936 
L 378.835847 294.20827 
L 378.998255 294.434102 
L 379.160664 294.1998 
L 379.323072 295.233407 
L 379.485481 294.422086 
L 379.647889 294.948369 
L 379.972706 293.492948 
L 380.135115 290.358097 
L 380.297523 294.91572 
L 380.459932 295.032819 
L 380.62234 294.230084 
L 380.784749 294.476516 
L 380.947157 295.190118 
L 381.109566 293.847223 
L 381.271974 291.225044 
L 381.434383 294.619227 
L 381.7592 295.230938 
L 381.921608 294.837673 
L 382.084017 293.788819 
L 382.246425 293.972289 
L 382.896059 295.266071 
L 383.220876 294.693743 
L 383.383284 293.819145 
L 383.545693 294.537125 
L 383.708101 293.691263 
L 383.87051 288.648932 
L 384.032918 294.818743 
L 384.195327 295.036622 
L 384.357735 294.374083 
L 384.520144 294.337514 
L 384.682552 295.167391 
L 384.844961 294.312895 
L 385.007369 294.534056 
L 385.169778 283.797501 
L 385.332186 294.859163 
L 385.494595 295.413634 
L 385.657003 294.566578 
L 385.819412 294.663545 
L 385.98182 294.942686 
L 386.144228 294.761339 
L 386.306637 294.233631 
L 386.469045 295.147985 
L 386.793862 295.304474 
L 386.956271 294.989104 
L 387.118679 295.004267 
L 387.443496 294.757444 
L 387.605905 295.206845 
L 387.768313 294.751508 
L 387.930722 295.2813 
L 388.09313 295.106277 
L 388.255539 294.644025 
L 388.417947 287.334086 
L 388.580356 294.776174 
L 388.742764 295.236581 
L 388.905173 294.978146 
L 389.067581 295.125779 
L 389.22999 294.575497 
L 389.392398 293.332279 
L 389.554806 294.803375 
L 389.717215 294.70156 
L 389.879623 295.310139 
L 390.042032 293.435565 
L 390.20444 295.081704 
L 390.366849 295.415022 
L 390.529257 293.686635 
L 390.691666 295.239353 
L 390.854074 293.340427 
L 391.016483 294.717893 
L 391.178891 295.017406 
L 391.3413 294.180466 
L 391.503708 294.804095 
L 391.666117 294.879759 
L 391.828525 291.68395 
L 391.990934 294.877947 
L 392.153342 294.870492 
L 392.315751 293.904014 
L 392.478159 295.137295 
L 392.640568 295.353927 
L 392.802976 294.074438 
L 392.965385 294.691289 
L 393.127793 294.75535 
L 393.45261 295.220641 
L 393.615018 285.99726 
L 393.777427 294.241134 
L 393.939835 294.371058 
L 394.102244 294.271375 
L 394.264652 295.065026 
L 394.427061 293.714308 
L 394.589469 294.976793 
L 394.751878 294.678824 
L 394.914286 295.320371 
L 395.076695 294.851838 
L 395.239103 287.126136 
L 395.401512 294.882992 
L 395.56392 294.944639 
L 395.726329 295.137662 
L 395.888737 294.533011 
L 396.051146 294.984144 
L 396.375963 294.40963 
L 396.538371 294.424319 
L 396.700779 293.206683 
L 396.863188 295.009767 
L 397.025596 292.020411 
L 397.188005 294.693181 
L 397.350413 294.961364 
L 397.512822 293.967532 
L 397.67523 293.921863 
L 397.837639 294.615323 
L 398.000047 294.696573 
L 398.162456 295.231073 
L 398.324864 294.407448 
L 398.487273 294.584946 
L 398.487273 294.584946 
" style="fill:none;stroke:#1f77b4;stroke-linecap:square;stroke-width:1.5;"/>
   </g>
   <g id="patch_3">
    <path d="M 57.6 307.584 
L 57.6 41.472 
" style="fill:none;stroke:#000000;stroke-linecap:square;stroke-linejoin:miter;stroke-width:0.8;"/>
   </g>
   <g id="patch_4">
    <path d="M 414.72 307.584 
L 414.72 41.472 
" style="fill:none;stroke:#000000;stroke-linecap:square;stroke-linejoin:miter;stroke-width:0.8;"/>
   </g>
   <g id="patch_5">
    <path d="M 57.6 307.584 
L 414.72 307.584 
" style="fill:none;stroke:#000000;stroke-linecap:square;stroke-linejoin:miter;stroke-width:0.8;"/>
   </g>
   <g id="patch_6">
    <path d="M 57.6 41.472 
L 414.72 41.472 
" style="fill:none;stroke:#000000;stroke-linecap:square;stroke-linejoin:miter;stroke-width:0.8;"/>
   </g>
  </g>
 </g>
 <defs>
  <clipPath id="pd5b7dad874">
   <rect height="266.112" width="357.12" x="57.6" y="41.472"/>
  </clipPath>
 </defs>
</svg>
