<?xml version="1.0" encoding="utf-8" standalone="no"?>
<!DOCTYPE svg PUBLIC "-//W3C//DTD SVG 1.1//EN"
  "http://www.w3.org/Graphics/SVG/1.1/DTD/svg11.dtd">
<!-- Created with matplotlib (https://matplotlib.org/) -->
<svg height="345.6pt" version="1.1" viewBox="0 0 460.8 345.6" width="460.8pt" xmlns="http://www.w3.org/2000/svg" xmlns:xlink="http://www.w3.org/1999/xlink">
 <metadata>
  <rdf:RDF xmlns:cc="http://creativecommons.org/ns#" xmlns:dc="http://purl.org/dc/elements/1.1/" xmlns:rdf="http://www.w3.org/1999/02/22-rdf-syntax-ns#">
   <cc:Work>
    <dc:type rdf:resource="http://purl.org/dc/dcmitype/StillImage"/>
    <dc:date>2021-05-24T00:09:57.322390</dc:date>
    <dc:format>image/svg+xml</dc:format>
    <dc:creator>
     <cc:Agent>
      <dc:title>Matplotlib v3.3.4, https://matplotlib.org/</dc:title>
     </cc:Agent>
    </dc:creator>
   </cc:Work>
  </rdf:RDF>
 </metadata>
 <defs>
  <style type="text/css">*{stroke-linecap:butt;stroke-linejoin:round;}</style>
 </defs>
 <g id="figure_1">
  <g id="patch_1">
   <path d="M 0 345.6 
L 460.8 345.6 
L 460.8 0 
L 0 0 
z
" style="fill:#ffffff;"/>
  </g>
  <g id="axes_1">
   <g id="patch_2">
    <path d="M 57.6 307.584 
L 414.72 307.584 
L 414.72 41.472 
L 57.6 41.472 
z
" style="fill:#ffffff;"/>
   </g>
   <g id="matplotlib.axis_1">
    <g id="xtick_1">
     <g id="line2d_1">
      <defs>
       <path d="M 0 0 
L 0 3.5 
" id="md2809b6636" style="stroke:#000000;stroke-width:0.8;"/>
      </defs>
      <g>
       <use style="stroke:#000000;stroke-width:0.8;" x="73.832727" xlink:href="#md2809b6636" y="307.584"/>
      </g>
     </g>
     <g id="text_1">
      <!-- 0 -->
      <g transform="translate(70.651477 322.182437)scale(0.1 -0.1)">
       <defs>
        <path d="M 31.78125 66.40625 
Q 24.171875 66.40625 20.328125 58.90625 
Q 16.5 51.421875 16.5 36.375 
Q 16.5 21.390625 20.328125 13.890625 
Q 24.171875 6.390625 31.78125 6.390625 
Q 39.453125 6.390625 43.28125 13.890625 
Q 47.125 21.390625 47.125 36.375 
Q 47.125 51.421875 43.28125 58.90625 
Q 39.453125 66.40625 31.78125 66.40625 
z
M 31.78125 74.21875 
Q 44.046875 74.21875 50.515625 64.515625 
Q 56.984375 54.828125 56.984375 36.375 
Q 56.984375 17.96875 50.515625 8.265625 
Q 44.046875 -1.421875 31.78125 -1.421875 
Q 19.53125 -1.421875 13.0625 8.265625 
Q 6.59375 17.96875 6.59375 36.375 
Q 6.59375 54.828125 13.0625 64.515625 
Q 19.53125 74.21875 31.78125 74.21875 
z
" id="DejaVuSans-48"/>
       </defs>
       <use xlink:href="#DejaVuSans-48"/>
      </g>
     </g>
    </g>
    <g id="xtick_2">
     <g id="line2d_2">
      <g>
       <use style="stroke:#000000;stroke-width:0.8;" x="114.434847" xlink:href="#md2809b6636" y="307.584"/>
      </g>
     </g>
     <g id="text_2">
      <!-- 250 -->
      <g transform="translate(104.891097 322.182437)scale(0.1 -0.1)">
       <defs>
        <path d="M 19.1875 8.296875 
L 53.609375 8.296875 
L 53.609375 0 
L 7.328125 0 
L 7.328125 8.296875 
Q 12.9375 14.109375 22.625 23.890625 
Q 32.328125 33.6875 34.8125 36.53125 
Q 39.546875 41.84375 41.421875 45.53125 
Q 43.3125 49.21875 43.3125 52.78125 
Q 43.3125 58.59375 39.234375 62.25 
Q 35.15625 65.921875 28.609375 65.921875 
Q 23.96875 65.921875 18.8125 64.3125 
Q 13.671875 62.703125 7.8125 59.421875 
L 7.8125 69.390625 
Q 13.765625 71.78125 18.9375 73 
Q 24.125 74.21875 28.421875 74.21875 
Q 39.75 74.21875 46.484375 68.546875 
Q 53.21875 62.890625 53.21875 53.421875 
Q 53.21875 48.921875 51.53125 44.890625 
Q 49.859375 40.875 45.40625 35.40625 
Q 44.1875 33.984375 37.640625 27.21875 
Q 31.109375 20.453125 19.1875 8.296875 
z
" id="DejaVuSans-50"/>
        <path d="M 10.796875 72.90625 
L 49.515625 72.90625 
L 49.515625 64.59375 
L 19.828125 64.59375 
L 19.828125 46.734375 
Q 21.96875 47.46875 24.109375 47.828125 
Q 26.265625 48.1875 28.421875 48.1875 
Q 40.625 48.1875 47.75 41.5 
Q 54.890625 34.8125 54.890625 23.390625 
Q 54.890625 11.625 47.5625 5.09375 
Q 40.234375 -1.421875 26.90625 -1.421875 
Q 22.3125 -1.421875 17.546875 -0.640625 
Q 12.796875 0.140625 7.71875 1.703125 
L 7.71875 11.625 
Q 12.109375 9.234375 16.796875 8.0625 
Q 21.484375 6.890625 26.703125 6.890625 
Q 35.15625 6.890625 40.078125 11.328125 
Q 45.015625 15.765625 45.015625 23.390625 
Q 45.015625 31 40.078125 35.4375 
Q 35.15625 39.890625 26.703125 39.890625 
Q 22.75 39.890625 18.8125 39.015625 
Q 14.890625 38.140625 10.796875 36.28125 
z
" id="DejaVuSans-53"/>
       </defs>
       <use xlink:href="#DejaVuSans-50"/>
       <use x="63.623047" xlink:href="#DejaVuSans-53"/>
       <use x="127.246094" xlink:href="#DejaVuSans-48"/>
      </g>
     </g>
    </g>
    <g id="xtick_3">
     <g id="line2d_3">
      <g>
       <use style="stroke:#000000;stroke-width:0.8;" x="155.036966" xlink:href="#md2809b6636" y="307.584"/>
      </g>
     </g>
     <g id="text_3">
      <!-- 500 -->
      <g transform="translate(145.493216 322.182437)scale(0.1 -0.1)">
       <use xlink:href="#DejaVuSans-53"/>
       <use x="63.623047" xlink:href="#DejaVuSans-48"/>
       <use x="127.246094" xlink:href="#DejaVuSans-48"/>
      </g>
     </g>
    </g>
    <g id="xtick_4">
     <g id="line2d_4">
      <g>
       <use style="stroke:#000000;stroke-width:0.8;" x="195.639085" xlink:href="#md2809b6636" y="307.584"/>
      </g>
     </g>
     <g id="text_4">
      <!-- 750 -->
      <g transform="translate(186.095335 322.182437)scale(0.1 -0.1)">
       <defs>
        <path d="M 8.203125 72.90625 
L 55.078125 72.90625 
L 55.078125 68.703125 
L 28.609375 0 
L 18.3125 0 
L 43.21875 64.59375 
L 8.203125 64.59375 
z
" id="DejaVuSans-55"/>
       </defs>
       <use xlink:href="#DejaVuSans-55"/>
       <use x="63.623047" xlink:href="#DejaVuSans-53"/>
       <use x="127.246094" xlink:href="#DejaVuSans-48"/>
      </g>
     </g>
    </g>
    <g id="xtick_5">
     <g id="line2d_5">
      <g>
       <use style="stroke:#000000;stroke-width:0.8;" x="236.241204" xlink:href="#md2809b6636" y="307.584"/>
      </g>
     </g>
     <g id="text_5">
      <!-- 1000 -->
      <g transform="translate(223.516204 322.182437)scale(0.1 -0.1)">
       <defs>
        <path d="M 12.40625 8.296875 
L 28.515625 8.296875 
L 28.515625 63.921875 
L 10.984375 60.40625 
L 10.984375 69.390625 
L 28.421875 72.90625 
L 38.28125 72.90625 
L 38.28125 8.296875 
L 54.390625 8.296875 
L 54.390625 0 
L 12.40625 0 
z
" id="DejaVuSans-49"/>
       </defs>
       <use xlink:href="#DejaVuSans-49"/>
       <use x="63.623047" xlink:href="#DejaVuSans-48"/>
       <use x="127.246094" xlink:href="#DejaVuSans-48"/>
       <use x="190.869141" xlink:href="#DejaVuSans-48"/>
      </g>
     </g>
    </g>
    <g id="xtick_6">
     <g id="line2d_6">
      <g>
       <use style="stroke:#000000;stroke-width:0.8;" x="276.843323" xlink:href="#md2809b6636" y="307.584"/>
      </g>
     </g>
     <g id="text_6">
      <!-- 1250 -->
      <g transform="translate(264.118323 322.182437)scale(0.1 -0.1)">
       <use xlink:href="#DejaVuSans-49"/>
       <use x="63.623047" xlink:href="#DejaVuSans-50"/>
       <use x="127.246094" xlink:href="#DejaVuSans-53"/>
       <use x="190.869141" xlink:href="#DejaVuSans-48"/>
      </g>
     </g>
    </g>
    <g id="xtick_7">
     <g id="line2d_7">
      <g>
       <use style="stroke:#000000;stroke-width:0.8;" x="317.445443" xlink:href="#md2809b6636" y="307.584"/>
      </g>
     </g>
     <g id="text_7">
      <!-- 1500 -->
      <g transform="translate(304.720443 322.182437)scale(0.1 -0.1)">
       <use xlink:href="#DejaVuSans-49"/>
       <use x="63.623047" xlink:href="#DejaVuSans-53"/>
       <use x="127.246094" xlink:href="#DejaVuSans-48"/>
       <use x="190.869141" xlink:href="#DejaVuSans-48"/>
      </g>
     </g>
    </g>
    <g id="xtick_8">
     <g id="line2d_8">
      <g>
       <use style="stroke:#000000;stroke-width:0.8;" x="358.047562" xlink:href="#md2809b6636" y="307.584"/>
      </g>
     </g>
     <g id="text_8">
      <!-- 1750 -->
      <g transform="translate(345.322562 322.182437)scale(0.1 -0.1)">
       <use xlink:href="#DejaVuSans-49"/>
       <use x="63.623047" xlink:href="#DejaVuSans-55"/>
       <use x="127.246094" xlink:href="#DejaVuSans-53"/>
       <use x="190.869141" xlink:href="#DejaVuSans-48"/>
      </g>
     </g>
    </g>
    <g id="xtick_9">
     <g id="line2d_9">
      <g>
       <use style="stroke:#000000;stroke-width:0.8;" x="398.649681" xlink:href="#md2809b6636" y="307.584"/>
      </g>
     </g>
     <g id="text_9">
      <!-- 2000 -->
      <g transform="translate(385.924681 322.182437)scale(0.1 -0.1)">
       <use xlink:href="#DejaVuSans-50"/>
       <use x="63.623047" xlink:href="#DejaVuSans-48"/>
       <use x="127.246094" xlink:href="#DejaVuSans-48"/>
       <use x="190.869141" xlink:href="#DejaVuSans-48"/>
      </g>
     </g>
    </g>
    <g id="text_10">
     <!-- Episode -->
     <g transform="translate(216.5225 335.860562)scale(0.1 -0.1)">
      <defs>
       <path d="M 9.8125 72.90625 
L 55.90625 72.90625 
L 55.90625 64.59375 
L 19.671875 64.59375 
L 19.671875 43.015625 
L 54.390625 43.015625 
L 54.390625 34.71875 
L 19.671875 34.71875 
L 19.671875 8.296875 
L 56.78125 8.296875 
L 56.78125 0 
L 9.8125 0 
z
" id="DejaVuSans-69"/>
       <path d="M 18.109375 8.203125 
L 18.109375 -20.796875 
L 9.078125 -20.796875 
L 9.078125 54.6875 
L 18.109375 54.6875 
L 18.109375 46.390625 
Q 20.953125 51.265625 25.265625 53.625 
Q 29.59375 56 35.59375 56 
Q 45.5625 56 51.78125 48.09375 
Q 58.015625 40.1875 58.015625 27.296875 
Q 58.015625 14.40625 51.78125 6.484375 
Q 45.5625 -1.421875 35.59375 -1.421875 
Q 29.59375 -1.421875 25.265625 0.953125 
Q 20.953125 3.328125 18.109375 8.203125 
z
M 48.6875 27.296875 
Q 48.6875 37.203125 44.609375 42.84375 
Q 40.53125 48.484375 33.40625 48.484375 
Q 26.265625 48.484375 22.1875 42.84375 
Q 18.109375 37.203125 18.109375 27.296875 
Q 18.109375 17.390625 22.1875 11.75 
Q 26.265625 6.109375 33.40625 6.109375 
Q 40.53125 6.109375 44.609375 11.75 
Q 48.6875 17.390625 48.6875 27.296875 
z
" id="DejaVuSans-112"/>
       <path d="M 9.421875 54.6875 
L 18.40625 54.6875 
L 18.40625 0 
L 9.421875 0 
z
M 9.421875 75.984375 
L 18.40625 75.984375 
L 18.40625 64.59375 
L 9.421875 64.59375 
z
" id="DejaVuSans-105"/>
       <path d="M 44.28125 53.078125 
L 44.28125 44.578125 
Q 40.484375 46.53125 36.375 47.5 
Q 32.28125 48.484375 27.875 48.484375 
Q 21.1875 48.484375 17.84375 46.4375 
Q 14.5 44.390625 14.5 40.28125 
Q 14.5 37.15625 16.890625 35.375 
Q 19.28125 33.59375 26.515625 31.984375 
L 29.59375 31.296875 
Q 39.15625 29.25 43.1875 25.515625 
Q 47.21875 21.78125 47.21875 15.09375 
Q 47.21875 7.46875 41.1875 3.015625 
Q 35.15625 -1.421875 24.609375 -1.421875 
Q 20.21875 -1.421875 15.453125 -0.5625 
Q 10.6875 0.296875 5.421875 2 
L 5.421875 11.28125 
Q 10.40625 8.6875 15.234375 7.390625 
Q 20.0625 6.109375 24.8125 6.109375 
Q 31.15625 6.109375 34.5625 8.28125 
Q 37.984375 10.453125 37.984375 14.40625 
Q 37.984375 18.0625 35.515625 20.015625 
Q 33.0625 21.96875 24.703125 23.78125 
L 21.578125 24.515625 
Q 13.234375 26.265625 9.515625 29.90625 
Q 5.8125 33.546875 5.8125 39.890625 
Q 5.8125 47.609375 11.28125 51.796875 
Q 16.75 56 26.8125 56 
Q 31.78125 56 36.171875 55.265625 
Q 40.578125 54.546875 44.28125 53.078125 
z
" id="DejaVuSans-115"/>
       <path d="M 30.609375 48.390625 
Q 23.390625 48.390625 19.1875 42.75 
Q 14.984375 37.109375 14.984375 27.296875 
Q 14.984375 17.484375 19.15625 11.84375 
Q 23.34375 6.203125 30.609375 6.203125 
Q 37.796875 6.203125 41.984375 11.859375 
Q 46.1875 17.53125 46.1875 27.296875 
Q 46.1875 37.015625 41.984375 42.703125 
Q 37.796875 48.390625 30.609375 48.390625 
z
M 30.609375 56 
Q 42.328125 56 49.015625 48.375 
Q 55.71875 40.765625 55.71875 27.296875 
Q 55.71875 13.875 49.015625 6.21875 
Q 42.328125 -1.421875 30.609375 -1.421875 
Q 18.84375 -1.421875 12.171875 6.21875 
Q 5.515625 13.875 5.515625 27.296875 
Q 5.515625 40.765625 12.171875 48.375 
Q 18.84375 56 30.609375 56 
z
" id="DejaVuSans-111"/>
       <path d="M 45.40625 46.390625 
L 45.40625 75.984375 
L 54.390625 75.984375 
L 54.390625 0 
L 45.40625 0 
L 45.40625 8.203125 
Q 42.578125 3.328125 38.25 0.953125 
Q 33.9375 -1.421875 27.875 -1.421875 
Q 17.96875 -1.421875 11.734375 6.484375 
Q 5.515625 14.40625 5.515625 27.296875 
Q 5.515625 40.1875 11.734375 48.09375 
Q 17.96875 56 27.875 56 
Q 33.9375 56 38.25 53.625 
Q 42.578125 51.265625 45.40625 46.390625 
z
M 14.796875 27.296875 
Q 14.796875 17.390625 18.875 11.75 
Q 22.953125 6.109375 30.078125 6.109375 
Q 37.203125 6.109375 41.296875 11.75 
Q 45.40625 17.390625 45.40625 27.296875 
Q 45.40625 37.203125 41.296875 42.84375 
Q 37.203125 48.484375 30.078125 48.484375 
Q 22.953125 48.484375 18.875 42.84375 
Q 14.796875 37.203125 14.796875 27.296875 
z
" id="DejaVuSans-100"/>
       <path d="M 56.203125 29.59375 
L 56.203125 25.203125 
L 14.890625 25.203125 
Q 15.484375 15.921875 20.484375 11.0625 
Q 25.484375 6.203125 34.421875 6.203125 
Q 39.59375 6.203125 44.453125 7.46875 
Q 49.3125 8.734375 54.109375 11.28125 
L 54.109375 2.78125 
Q 49.265625 0.734375 44.1875 -0.34375 
Q 39.109375 -1.421875 33.890625 -1.421875 
Q 20.796875 -1.421875 13.15625 6.1875 
Q 5.515625 13.8125 5.515625 26.8125 
Q 5.515625 40.234375 12.765625 48.109375 
Q 20.015625 56 32.328125 56 
Q 43.359375 56 49.78125 48.890625 
Q 56.203125 41.796875 56.203125 29.59375 
z
M 47.21875 32.234375 
Q 47.125 39.59375 43.09375 43.984375 
Q 39.0625 48.390625 32.421875 48.390625 
Q 24.90625 48.390625 20.390625 44.140625 
Q 15.875 39.890625 15.1875 32.171875 
z
" id="DejaVuSans-101"/>
      </defs>
      <use xlink:href="#DejaVuSans-69"/>
      <use x="63.183594" xlink:href="#DejaVuSans-112"/>
      <use x="126.660156" xlink:href="#DejaVuSans-105"/>
      <use x="154.443359" xlink:href="#DejaVuSans-115"/>
      <use x="206.542969" xlink:href="#DejaVuSans-111"/>
      <use x="267.724609" xlink:href="#DejaVuSans-100"/>
      <use x="331.201172" xlink:href="#DejaVuSans-101"/>
     </g>
    </g>
   </g>
   <g id="matplotlib.axis_2">
    <g id="ytick_1">
     <g id="line2d_10">
      <defs>
       <path d="M 0 0 
L -3.5 0 
" id="m43a21100bd" style="stroke:#000000;stroke-width:0.8;"/>
      </defs>
      <g>
       <use style="stroke:#000000;stroke-width:0.8;" x="57.6" xlink:href="#m43a21100bd" y="280.377286"/>
      </g>
     </g>
     <g id="text_11">
      <!-- −1.0 -->
      <g transform="translate(26.317187 284.176505)scale(0.1 -0.1)">
       <defs>
        <path d="M 10.59375 35.5 
L 73.1875 35.5 
L 73.1875 27.203125 
L 10.59375 27.203125 
z
" id="DejaVuSans-8722"/>
        <path d="M 10.6875 12.40625 
L 21 12.40625 
L 21 0 
L 10.6875 0 
z
" id="DejaVuSans-46"/>
       </defs>
       <use xlink:href="#DejaVuSans-8722"/>
       <use x="83.789062" xlink:href="#DejaVuSans-49"/>
       <use x="147.412109" xlink:href="#DejaVuSans-46"/>
       <use x="179.199219" xlink:href="#DejaVuSans-48"/>
      </g>
     </g>
    </g>
    <g id="ytick_2">
     <g id="line2d_11">
      <g>
       <use style="stroke:#000000;stroke-width:0.8;" x="57.6" xlink:href="#m43a21100bd" y="228.993327"/>
      </g>
     </g>
     <g id="text_12">
      <!-- −0.5 -->
      <g transform="translate(26.317187 232.792546)scale(0.1 -0.1)">
       <use xlink:href="#DejaVuSans-8722"/>
       <use x="83.789062" xlink:href="#DejaVuSans-48"/>
       <use x="147.412109" xlink:href="#DejaVuSans-46"/>
       <use x="179.199219" xlink:href="#DejaVuSans-53"/>
      </g>
     </g>
    </g>
    <g id="ytick_3">
     <g id="line2d_12">
      <g>
       <use style="stroke:#000000;stroke-width:0.8;" x="57.6" xlink:href="#m43a21100bd" y="177.609368"/>
      </g>
     </g>
     <g id="text_13">
      <!-- 0.0 -->
      <g transform="translate(34.696875 181.408587)scale(0.1 -0.1)">
       <use xlink:href="#DejaVuSans-48"/>
       <use x="63.623047" xlink:href="#DejaVuSans-46"/>
       <use x="95.410156" xlink:href="#DejaVuSans-48"/>
      </g>
     </g>
    </g>
    <g id="ytick_4">
     <g id="line2d_13">
      <g>
       <use style="stroke:#000000;stroke-width:0.8;" x="57.6" xlink:href="#m43a21100bd" y="126.22541"/>
      </g>
     </g>
     <g id="text_14">
      <!-- 0.5 -->
      <g transform="translate(34.696875 130.024628)scale(0.1 -0.1)">
       <use xlink:href="#DejaVuSans-48"/>
       <use x="63.623047" xlink:href="#DejaVuSans-46"/>
       <use x="95.410156" xlink:href="#DejaVuSans-53"/>
      </g>
     </g>
    </g>
    <g id="ytick_5">
     <g id="line2d_14">
      <g>
       <use style="stroke:#000000;stroke-width:0.8;" x="57.6" xlink:href="#m43a21100bd" y="74.841451"/>
      </g>
     </g>
     <g id="text_15">
      <!-- 1.0 -->
      <g transform="translate(34.696875 78.64067)scale(0.1 -0.1)">
       <use xlink:href="#DejaVuSans-49"/>
       <use x="63.623047" xlink:href="#DejaVuSans-46"/>
       <use x="95.410156" xlink:href="#DejaVuSans-48"/>
      </g>
     </g>
    </g>
    <g id="text_16">
     <!-- Policy Loss -->
     <g transform="translate(20.2375 201.463937)rotate(-90)scale(0.1 -0.1)">
      <defs>
       <path d="M 19.671875 64.796875 
L 19.671875 37.40625 
L 32.078125 37.40625 
Q 38.96875 37.40625 42.71875 40.96875 
Q 46.484375 44.53125 46.484375 51.125 
Q 46.484375 57.671875 42.71875 61.234375 
Q 38.96875 64.796875 32.078125 64.796875 
z
M 9.8125 72.90625 
L 32.078125 72.90625 
Q 44.34375 72.90625 50.609375 67.359375 
Q 56.890625 61.8125 56.890625 51.125 
Q 56.890625 40.328125 50.609375 34.8125 
Q 44.34375 29.296875 32.078125 29.296875 
L 19.671875 29.296875 
L 19.671875 0 
L 9.8125 0 
z
" id="DejaVuSans-80"/>
       <path d="M 9.421875 75.984375 
L 18.40625 75.984375 
L 18.40625 0 
L 9.421875 0 
z
" id="DejaVuSans-108"/>
       <path d="M 48.78125 52.59375 
L 48.78125 44.1875 
Q 44.96875 46.296875 41.140625 47.34375 
Q 37.3125 48.390625 33.40625 48.390625 
Q 24.65625 48.390625 19.8125 42.84375 
Q 14.984375 37.3125 14.984375 27.296875 
Q 14.984375 17.28125 19.8125 11.734375 
Q 24.65625 6.203125 33.40625 6.203125 
Q 37.3125 6.203125 41.140625 7.25 
Q 44.96875 8.296875 48.78125 10.40625 
L 48.78125 2.09375 
Q 45.015625 0.34375 40.984375 -0.53125 
Q 36.96875 -1.421875 32.421875 -1.421875 
Q 20.0625 -1.421875 12.78125 6.34375 
Q 5.515625 14.109375 5.515625 27.296875 
Q 5.515625 40.671875 12.859375 48.328125 
Q 20.21875 56 33.015625 56 
Q 37.15625 56 41.109375 55.140625 
Q 45.0625 54.296875 48.78125 52.59375 
z
" id="DejaVuSans-99"/>
       <path d="M 32.171875 -5.078125 
Q 28.375 -14.84375 24.75 -17.8125 
Q 21.140625 -20.796875 15.09375 -20.796875 
L 7.90625 -20.796875 
L 7.90625 -13.28125 
L 13.1875 -13.28125 
Q 16.890625 -13.28125 18.9375 -11.515625 
Q 21 -9.765625 23.484375 -3.21875 
L 25.09375 0.875 
L 2.984375 54.6875 
L 12.5 54.6875 
L 29.59375 11.921875 
L 46.6875 54.6875 
L 56.203125 54.6875 
z
" id="DejaVuSans-121"/>
       <path id="DejaVuSans-32"/>
       <path d="M 9.8125 72.90625 
L 19.671875 72.90625 
L 19.671875 8.296875 
L 55.171875 8.296875 
L 55.171875 0 
L 9.8125 0 
z
" id="DejaVuSans-76"/>
      </defs>
      <use xlink:href="#DejaVuSans-80"/>
      <use x="56.677734" xlink:href="#DejaVuSans-111"/>
      <use x="117.859375" xlink:href="#DejaVuSans-108"/>
      <use x="145.642578" xlink:href="#DejaVuSans-105"/>
      <use x="173.425781" xlink:href="#DejaVuSans-99"/>
      <use x="228.40625" xlink:href="#DejaVuSans-121"/>
      <use x="287.585938" xlink:href="#DejaVuSans-32"/>
      <use x="319.373047" xlink:href="#DejaVuSans-76"/>
      <use x="373.335938" xlink:href="#DejaVuSans-111"/>
      <use x="434.517578" xlink:href="#DejaVuSans-115"/>
      <use x="486.617188" xlink:href="#DejaVuSans-115"/>
     </g>
    </g>
   </g>
   <g id="line2d_15">
    <path clip-path="url(#p7152c6bccd)" d="M 73.832727 102.843826 
L 73.995136 156.123444 
L 74.157544 124.026932 
L 74.319953 163.417977 
L 74.482361 253.4368 
L 74.64477 253.066621 
L 74.807178 223.379688 
L 74.969587 122.640866 
L 75.131995 231.002314 
L 75.294404 144.762339 
L 75.619221 202.68697 
L 75.781629 66.019352 
L 75.944037 291.463864 
L 76.106446 53.568 
L 76.268854 168.268162 
L 76.431263 166.387831 
L 76.593671 157.572374 
L 76.75608 91.316375 
L 76.918488 161.692906 
L 77.080897 88.005204 
L 77.243305 212.536841 
L 77.405714 135.983682 
L 77.730531 270.576568 
L 77.892939 105.089904 
L 78.055348 265.874578 
L 78.217756 185.99793 
L 78.380165 188.116574 
L 78.542573 87.268932 
L 78.704982 176.781257 
L 78.86739 165.888679 
L 79.029799 236.34184 
L 79.192207 143.270227 
L 79.354615 156.042762 
L 79.517024 151.320369 
L 79.679432 253.833919 
L 79.841841 129.001915 
L 80.166658 218.399168 
L 80.329066 234.136159 
L 80.491475 140.234321 
L 80.653883 120.356467 
L 80.816292 127.309028 
L 80.9787 177.012281 
L 81.141109 126.592884 
L 81.303517 128.25654 
L 81.465926 93.096258 
L 81.628334 232.724722 
L 81.790743 241.701789 
L 82.11556 126.725084 
L 82.277968 125.295604 
L 82.440377 255.487189 
L 82.602785 257.279868 
L 82.765194 168.765078 
L 82.927602 224.022544 
L 83.09001 124.420474 
L 83.414827 232.870281 
L 83.577236 150.411464 
L 83.739644 295.488 
L 83.902053 68.717243 
L 84.064461 202.944587 
L 84.22687 55.334689 
L 84.389278 93.090316 
L 84.551687 271.293655 
L 84.714095 169.38824 
L 84.876504 140.320032 
L 85.038912 163.061 
L 85.201321 90.021492 
L 85.363729 186.246769 
L 85.526138 212.618839 
L 85.850955 132.63823 
L 86.013363 158.434667 
L 86.175772 90.68987 
L 86.33818 254.652578 
L 86.500588 173.648999 
L 86.662997 180.641634 
L 86.825405 159.027954 
L 86.987814 235.128959 
L 87.150222 130.933785 
L 87.475039 171.459034 
L 87.799856 237.262047 
L 87.962265 147.527662 
L 88.124673 123.925385 
L 88.287082 130.533696 
L 88.44949 130.5184 
L 88.611899 266.580713 
L 88.936716 195.596009 
L 89.099124 181.678487 
L 89.261533 232.030329 
L 89.423941 97.00578 
L 89.58635 194.343733 
L 89.748758 187.744154 
L 89.911166 244.706828 
L 90.073575 144.006701 
L 90.235983 129.933237 
L 90.398392 129.981107 
L 90.723209 226.531352 
L 90.885617 207.763986 
L 91.048026 227.141103 
L 91.372843 146.214471 
L 91.535251 212.464395 
L 91.69766 161.990642 
L 91.860068 238.268238 
L 92.022477 109.772666 
L 92.184885 253.952765 
L 92.509702 101.664236 
L 92.672111 174.620122 
L 92.834519 170.200093 
L 92.996928 122.834002 
L 93.159336 115.736718 
L 93.321745 124.846309 
L 93.484153 155.906254 
L 93.80897 123.289667 
L 93.971378 168.807529 
L 94.296195 182.270288 
L 94.458604 182.413231 
L 94.621012 145.396482 
L 94.945829 199.201946 
L 95.108238 168.346084 
L 95.433055 151.618088 
L 95.595463 204.302405 
L 95.757872 183.424316 
L 95.92028 214.504496 
L 96.082689 216.048565 
L 96.245097 166.424727 
L 96.407506 184.042712 
L 96.569914 234.077974 
L 96.894731 150.316675 
L 97.057139 212.012947 
L 97.219548 188.280801 
L 97.381956 225.755935 
L 97.869182 127.058093 
L 98.03159 174.595012 
L 98.193999 158.903438 
L 98.356407 219.554794 
L 98.518816 148.917385 
L 98.681224 248.115589 
L 98.843633 223.221709 
L 99.006041 149.338148 
L 99.16845 182.329171 
L 99.330858 249.344525 
L 99.493267 135.11152 
L 99.655675 101.762727 
L 99.818084 228.841894 
L 99.980492 157.895726 
L 100.142901 266.178406 
L 100.305309 291.046648 
L 100.467717 79.831232 
L 100.630126 169.773748 
L 100.792534 71.236442 
L 100.954943 178.529398 
L 101.117351 200.374465 
L 101.27976 101.426489 
L 101.442168 141.5861 
L 101.604577 231.897817 
L 101.929394 171.448077 
L 102.091802 134.1489 
L 102.254211 150.262787 
L 102.416619 184.354049 
L 102.579028 100.71018 
L 102.741436 181.039259 
L 102.903845 167.34364 
L 103.066253 182.248556 
L 103.228662 208.876835 
L 103.553479 122.853223 
L 103.715887 140.234297 
L 103.878296 145.579927 
L 104.203112 261.464086 
L 104.365521 164.893035 
L 104.527929 188.394851 
L 104.690338 188.819072 
L 104.852746 217.661266 
L 105.015155 176.699334 
L 105.177563 212.691067 
L 105.339972 152.389713 
L 105.50238 138.265824 
L 105.664789 248.891824 
L 105.827197 193.348274 
L 105.989606 226.356231 
L 106.152014 136.561523 
L 106.314423 239.119191 
L 106.476831 104.873786 
L 106.63924 216.321723 
L 106.801648 194.256878 
L 106.964057 238.913382 
L 107.126465 138.398942 
L 107.288874 183.818525 
L 107.451282 91.303554 
L 107.61369 108.67117 
L 107.776099 239.27202 
L 107.938507 222.377644 
L 108.100916 142.40385 
L 108.263324 161.979816 
L 108.425733 256.999702 
L 108.588141 109.648166 
L 108.75055 279.676492 
L 108.912958 84.611021 
L 109.237775 195.865886 
L 109.400184 182.809417 
L 109.562592 179.560826 
L 109.725001 210.418282 
L 109.887409 163.381215 
L 110.212226 184.330243 
L 110.374635 140.073394 
L 110.537043 203.975177 
L 110.86186 154.600827 
L 111.024268 182.400876 
L 111.186677 109.986701 
L 111.511494 225.142817 
L 111.673902 160.507825 
L 111.998719 207.854624 
L 112.161128 153.797189 
L 112.323536 186.670594 
L 112.485945 107.574421 
L 112.648353 226.120206 
L 112.810762 146.638676 
L 112.97317 142.480427 
L 113.135579 239.968447 
L 113.460396 173.271224 
L 113.622804 250.556322 
L 113.785213 185.659383 
L 113.947621 218.910005 
L 114.272438 112.950437 
L 114.434847 227.591792 
L 114.597255 159.56886 
L 114.922072 231.444155 
L 115.571706 76.325701 
L 115.734114 122.776888 
L 115.896523 96.495953 
L 116.058931 229.373766 
L 116.22134 204.352603 
L 116.383748 153.452689 
L 116.546157 258.042927 
L 116.708565 236.834522 
L 117.033382 97.227215 
L 117.195791 164.555173 
L 117.358199 138.416078 
L 117.683016 192.556181 
L 118.007833 58.196925 
L 118.170241 174.525994 
L 118.495058 165.263801 
L 118.657467 92.294547 
L 118.819875 144.565758 
L 118.982284 132.578443 
L 119.469509 194.215706 
L 119.794326 130.618925 
L 119.956735 212.54043 
L 120.119143 164.43332 
L 120.281552 164.676616 
L 120.44396 180.738729 
L 120.606369 211.036471 
L 120.768777 140.42617 
L 120.931186 162.130537 
L 121.093594 131.808052 
L 121.256003 126.1856 
L 121.418411 233.078858 
L 121.58082 180.51354 
L 121.743228 226.514063 
L 121.905636 167.823231 
L 122.068045 220.472196 
L 122.230453 144.948473 
L 122.392862 171.785968 
L 122.55527 103.13585 
L 122.717679 202.116102 
L 122.880087 201.588706 
L 123.042496 170.251501 
L 123.204904 215.90722 
L 123.367313 132.823586 
L 123.69213 218.964209 
L 123.854538 113.192729 
L 124.016947 150.493006 
L 124.179355 127.152116 
L 124.341764 206.200417 
L 124.504172 145.760291 
L 124.666581 254.233647 
L 124.828989 230.441199 
L 125.153806 111.509671 
L 125.316214 130.507332 
L 125.478623 193.977573 
L 125.641031 162.453453 
L 125.80344 169.22716 
L 125.965848 186.84278 
L 126.128257 180.07125 
L 126.290665 157.57308 
L 126.453074 176.249118 
L 126.615482 176.537492 
L 126.777891 152.212557 
L 126.940299 174.474511 
L 127.102708 154.309752 
L 127.427525 199.54405 
L 127.589933 183.212656 
L 127.752342 182.509932 
L 127.91475 130.24112 
L 128.077159 155.946237 
L 128.239567 128.958908 
L 128.564384 210.053834 
L 128.726792 210.071622 
L 128.889201 183.489561 
L 129.051609 227.060452 
L 129.214018 174.118161 
L 129.376426 183.738621 
L 129.538835 162.440311 
L 129.701243 203.957913 
L 129.863652 198.370773 
L 130.02606 220.396259 
L 130.350877 166.160741 
L 130.513286 194.821566 
L 130.675694 183.555693 
L 130.838103 226.749711 
L 131.000511 185.41083 
L 131.16292 214.031884 
L 131.325328 133.119577 
L 131.650145 222.402982 
L 131.812554 103.966522 
L 131.974962 156.407417 
L 132.137371 142.430572 
L 132.299779 117.903986 
L 132.462187 254.008108 
L 132.624596 233.716248 
L 132.949413 145.861241 
L 133.111821 89.754055 
L 133.27423 205.084061 
L 133.436638 178.968099 
L 133.599047 116.101286 
L 133.761455 192.125539 
L 134.086272 126.999047 
L 134.248681 146.29103 
L 134.573498 152.563559 
L 134.898315 212.665677 
L 135.060723 176.489185 
L 135.223132 176.541034 
L 135.38554 196.356251 
L 135.710357 164.045447 
L 135.872765 185.758703 
L 136.035174 171.520113 
L 136.197582 181.761056 
L 136.359991 149.332326 
L 136.522399 178.81542 
L 136.684808 180.282413 
L 136.847216 113.385527 
L 137.009625 230.053403 
L 137.49685 182.033394 
L 137.659259 139.484714 
L 137.821667 163.03396 
L 137.984076 225.689562 
L 138.308893 169.776488 
L 138.471301 178.467891 
L 138.63371 207.126027 
L 138.796118 121.176083 
L 139.120935 236.844641 
L 139.283343 180.705548 
L 139.60816 233.304716 
L 139.770569 149.977219 
L 139.932977 187.233608 
L 140.095386 96.698626 
L 140.257794 113.568298 
L 140.420203 145.552329 
L 140.582611 84.920932 
L 140.74502 273.919885 
L 140.907428 249.024152 
L 141.069837 146.778404 
L 141.394654 214.77974 
L 141.557062 197.720118 
L 141.719471 158.394384 
L 141.881879 171.361254 
L 142.369105 111.830221 
L 142.531513 182.786225 
L 142.693922 146.445581 
L 142.85633 202.122734 
L 143.018738 186.442466 
L 143.181147 159.700289 
L 143.343555 187.128678 
L 143.505964 179.18686 
L 143.668372 186.490589 
L 143.830781 167.907717 
L 143.993189 211.05365 
L 144.155598 181.999638 
L 144.318006 186.100156 
L 144.480415 150.626255 
L 144.642823 220.909718 
L 144.805232 184.222489 
L 144.96764 112.034891 
L 145.130049 236.024769 
L 145.292457 167.285658 
L 145.454866 186.892293 
L 145.617274 143.731022 
L 145.942091 200.817677 
L 146.1045 176.938559 
L 146.429316 245.218982 
L 146.754133 177.249181 
L 146.916542 232.309735 
L 147.07895 116.784402 
L 147.241359 188.385311 
L 147.403767 186.02729 
L 147.566176 226.430144 
L 147.728584 226.943208 
L 148.21581 101.087618 
L 148.540627 144.920933 
L 148.703035 85.43441 
L 149.190261 263.121423 
L 149.352669 182.360501 
L 149.515078 240.088855 
L 149.839894 156.492234 
L 150.002303 148.511008 
L 150.164711 182.705604 
L 150.32712 128.298269 
L 150.489528 192.602353 
L 150.651937 153.345227 
L 150.814345 168.446285 
L 151.301571 184.680494 
L 151.463979 208.091734 
L 151.626388 115.202861 
L 151.788796 179.846211 
L 151.951205 188.321653 
L 152.113613 150.291135 
L 152.276022 156.920383 
L 152.600839 207.107801 
L 152.763247 215.625921 
L 153.250473 142.731497 
L 153.412881 181.198404 
L 153.575289 167.690525 
L 153.900106 238.806529 
L 154.062515 190.325846 
L 154.224923 229.989172 
L 154.54974 113.977178 
L 154.712149 216.923205 
L 154.874557 178.741215 
L 155.036966 235.843468 
L 155.199374 119.197674 
L 155.524191 228.523141 
L 155.849008 143.04817 
L 156.011417 152.151174 
L 156.173825 100.764984 
L 156.498642 221.27806 
L 156.823459 80.131636 
L 156.985867 237.879694 
L 157.310684 158.255911 
L 157.473093 264.846661 
L 157.635501 143.875767 
L 157.960318 157.67901 
L 158.285135 197.829918 
L 158.447544 185.66812 
L 158.609952 119.061763 
L 158.772361 191.243916 
L 158.934769 154.26162 
L 159.097178 182.014695 
L 159.259586 176.011934 
L 159.421995 184.772988 
L 159.584403 181.43791 
L 159.746812 180.65629 
L 160.071629 152.464514 
L 160.234037 185.636225 
L 160.396445 156.570417 
L 160.558854 206.91314 
L 160.721262 202.144238 
L 160.883671 213.35256 
L 161.046079 143.100432 
L 161.208488 178.532086 
L 161.370896 186.647432 
L 161.695713 168.192222 
L 161.858122 111.745457 
L 162.182939 230.080232 
L 162.345347 218.256255 
L 162.507756 238.780288 
L 162.670164 195.092072 
L 162.832573 182.098935 
L 162.994981 181.724484 
L 163.15739 184.982336 
L 163.319798 180.590259 
L 163.482207 218.731458 
L 163.644615 120.253284 
L 163.807024 222.481866 
L 164.13184 125.212524 
L 164.294249 213.929047 
L 164.456657 185.0334 
L 164.619066 129.385058 
L 164.781474 152.522585 
L 164.943883 111.121348 
L 165.2687 222.65585 
L 165.431108 144.584465 
L 165.593517 164.923921 
L 165.755925 244.398001 
L 166.080742 158.434661 
L 166.243151 185.192955 
L 166.405559 181.65204 
L 166.567968 190.70474 
L 166.892785 158.831678 
L 167.055193 164.303728 
L 167.217602 174.223981 
L 167.38001 131.829019 
L 167.542418 204.641779 
L 167.704827 184.16582 
L 167.867235 196.789925 
L 168.192052 185.622919 
L 168.354461 182.908859 
L 168.516869 161.852488 
L 168.679278 199.089368 
L 169.004095 168.526819 
L 169.166503 186.300963 
L 169.49132 133.583304 
L 169.653729 173.776406 
L 169.816137 185.45756 
L 170.140954 180.872717 
L 170.303363 216.74587 
L 170.465771 180.81871 
L 170.62818 207.388582 
L 170.790588 190.196416 
L 170.952996 223.643483 
L 171.115405 136.729142 
L 171.277813 182.295501 
L 171.440222 181.60309 
L 171.60263 187.442314 
L 171.765039 210.204933 
L 171.927447 135.76629 
L 172.089856 210.486866 
L 172.252264 215.891052 
L 172.577081 125.514043 
L 172.73949 183.723538 
L 172.901898 161.970493 
L 173.064307 184.176359 
L 173.226715 113.063659 
L 173.389124 240.332317 
L 173.551532 188.640847 
L 173.713941 220.689937 
L 173.876349 178.982083 
L 174.038758 166.547805 
L 174.201166 141.141114 
L 174.363575 182.768272 
L 174.525983 165.011325 
L 174.8508 181.062779 
L 175.013208 187.324737 
L 175.338025 131.766239 
L 175.500434 156.48968 
L 175.662842 159.404922 
L 175.987659 203.178962 
L 176.150068 194.061932 
L 176.312476 169.219636 
L 176.474885 162.101116 
L 176.799702 197.028165 
L 176.96211 184.091654 
L 177.124519 184.449369 
L 177.286927 181.755992 
L 177.449336 182.202967 
L 177.611744 185.696657 
L 177.774153 181.28558 
L 177.936561 220.441115 
L 178.098969 181.608038 
L 178.261378 182.054389 
L 178.423786 137.761776 
L 178.586195 188.253647 
L 178.748603 179.786697 
L 178.911012 213.944588 
L 179.07342 194.968447 
L 179.235829 204.587217 
L 179.398237 133.162455 
L 179.560646 208.209514 
L 179.723054 180.378447 
L 179.885463 131.69406 
L 180.047871 156.831088 
L 180.21028 217.262885 
L 180.372688 224.423038 
L 180.535097 185.727341 
L 180.697505 116.826949 
L 180.859914 186.430454 
L 181.022322 187.630918 
L 181.184731 181.040302 
L 181.347139 255.214931 
L 181.509548 163.417303 
L 181.671956 229.076088 
L 181.834364 101.936182 
L 181.996773 188.871071 
L 182.159181 185.565022 
L 182.32159 165.21923 
L 182.483998 178.017743 
L 182.646407 158.314553 
L 182.808815 183.109579 
L 182.971224 167.890713 
L 183.133632 188.894516 
L 183.296041 143.389498 
L 183.458449 207.016957 
L 183.783266 125.383461 
L 183.945675 182.355536 
L 184.108083 155.633857 
L 184.270492 158.342445 
L 184.4329 195.959089 
L 184.595309 177.060839 
L 184.757717 185.424001 
L 184.920126 201.756187 
L 185.082534 162.756885 
L 185.244942 184.263344 
L 185.407351 187.66416 
L 185.569759 188.212488 
L 185.894576 184.126638 
L 186.056985 133.377115 
L 186.381802 209.650908 
L 186.54421 183.657481 
L 186.706619 127.539979 
L 187.031436 230.36438 
L 187.193844 187.060506 
L 187.356253 220.113419 
L 187.518661 180.061575 
L 187.68107 213.10304 
L 187.843478 183.703646 
L 188.005887 221.427882 
L 188.168295 132.647908 
L 188.330704 189.35052 
L 188.493112 159.177588 
L 188.65552 215.005006 
L 188.817929 186.746889 
L 188.980337 120.260384 
L 189.142746 179.909603 
L 189.305154 188.172083 
L 189.467563 105.515138 
L 189.629971 251.823027 
L 190.279605 162.874098 
L 190.604422 186.009335 
L 190.766831 166.824243 
L 191.091648 205.240208 
L 191.578873 160.829353 
L 191.741282 174.927685 
L 191.90369 148.31929 
L 192.066099 193.135922 
L 192.228507 183.753049 
L 192.390915 159.330657 
L 192.553324 157.505529 
L 192.715732 127.539036 
L 193.040549 199.697332 
L 193.202958 183.31939 
L 193.365366 186.927329 
L 193.527775 185.370752 
L 193.690183 186.798403 
L 193.852592 134.260294 
L 194.015 186.923747 
L 194.177409 187.203274 
L 194.339817 164.625365 
L 194.502226 208.90115 
L 194.664634 128.836427 
L 194.827043 179.954424 
L 195.15186 185.603549 
L 195.314268 227.797686 
L 195.476677 219.455902 
L 195.639085 188.633609 
L 195.801493 182.487531 
L 195.963902 211.126806 
L 196.12631 215.701779 
L 196.288719 189.024384 
L 196.451127 139.995735 
L 196.938353 208.447218 
L 197.100761 127.533275 
L 197.26317 185.976027 
L 197.425578 184.828201 
L 197.587987 165.22223 
L 197.750395 241.18776 
L 197.912804 183.755739 
L 198.075212 217.963915 
L 198.237621 180.31172 
L 198.400029 114.175317 
L 198.562438 183.658946 
L 198.724846 168.98916 
L 199.049663 183.430577 
L 199.212071 160.536201 
L 199.37448 189.420365 
L 199.536888 189.902726 
L 199.699297 181.780513 
L 199.861705 149.672367 
L 200.024114 194.944983 
L 200.186522 171.13143 
L 200.348931 179.261855 
L 200.511339 124.818946 
L 200.673748 133.893046 
L 200.998565 200.573281 
L 201.160973 179.547577 
L 201.323382 140.86361 
L 201.48579 182.459267 
L 201.810607 186.419821 
L 201.973016 204.117465 
L 202.135424 186.210922 
L 202.297833 184.920793 
L 202.460241 135.107814 
L 202.62265 185.425255 
L 202.785058 167.534723 
L 202.947466 181.968932 
L 203.109875 179.10049 
L 203.272283 220.657659 
L 203.759509 180.314564 
L 203.921917 234.993899 
L 204.084326 112.324563 
L 204.246734 212.806357 
L 204.571551 143.854438 
L 204.73396 186.327473 
L 204.896368 167.720317 
L 205.058777 214.462748 
L 205.221185 99.117117 
L 205.383594 185.588679 
L 205.546002 182.28432 
L 205.708411 262.06841 
L 205.870819 167.624747 
L 206.195636 183.261213 
L 206.358044 231.031392 
L 206.520453 178.118714 
L 206.682861 195.65312 
L 206.84527 62.219077 
L 207.007678 159.144486 
L 207.170087 160.568389 
L 207.332495 139.611722 
L 207.494904 176.966306 
L 207.657312 168.89692 
L 207.819721 166.832917 
L 208.144538 186.857071 
L 208.306946 191.477228 
L 208.469355 178.778468 
L 208.631763 149.852973 
L 208.794172 187.694965 
L 208.95658 105.89197 
L 209.281397 207.932907 
L 209.443806 183.359913 
L 209.606214 113.1047 
L 209.768622 184.363267 
L 209.931031 176.298717 
L 210.093439 217.820328 
L 210.418256 170.768317 
L 210.580665 161.03967 
L 210.743073 231.895484 
L 210.905482 213.373188 
L 211.06789 107.926512 
L 211.392707 176.333376 
L 211.555116 181.191692 
L 211.879933 154.606724 
L 212.20475 200.126899 
L 212.529567 169.916249 
L 212.691975 223.316942 
L 212.854384 181.600846 
L 213.016792 175.522252 
L 213.179201 148.462411 
L 213.341609 159.779292 
L 213.504017 180.805508 
L 213.666426 183.160456 
L 213.828834 217.898226 
L 214.153651 181.365574 
L 214.31606 187.642363 
L 214.478468 183.067456 
L 214.640877 181.786575 
L 214.803285 174.185873 
L 214.965694 139.158589 
L 215.128102 179.837786 
L 215.290511 183.19533 
L 215.452919 202.468753 
L 215.615328 168.529565 
L 215.777736 183.581109 
L 215.940145 180.86993 
L 216.102553 180.557565 
L 216.264962 182.090234 
L 216.42737 169.136899 
L 216.589779 175.227743 
L 216.752187 169.572764 
L 216.914595 150.746847 
L 217.077004 184.308795 
L 217.239412 179.792021 
L 217.401821 158.526833 
L 217.564229 180.063682 
L 217.726638 180.217561 
L 217.889046 182.931598 
L 218.051455 190.605634 
L 218.213863 155.624922 
L 218.53868 194.296545 
L 218.701089 178.678209 
L 218.863497 203.570913 
L 219.188314 152.142145 
L 219.513131 193.425718 
L 219.67554 178.821244 
L 219.837948 177.414405 
L 220.000357 152.592053 
L 220.325173 201.226459 
L 220.64999 169.637795 
L 220.812399 199.112352 
L 220.974807 181.962241 
L 221.299624 179.828743 
L 221.462033 183.250476 
L 221.624441 194.964196 
L 221.78685 145.766704 
L 222.274075 219.819643 
L 222.436484 174.899198 
L 222.598892 186.527194 
L 222.923709 180.552871 
L 223.086118 180.607231 
L 223.248526 162.538219 
L 223.573343 179.586624 
L 223.735752 167.604726 
L 223.89816 183.634017 
L 224.060568 135.186948 
L 224.222977 177.775807 
L 224.385385 182.506709 
L 224.547794 202.655113 
L 225.035019 147.931259 
L 225.197428 180.399473 
L 225.359836 176.85453 
L 225.522245 147.967466 
L 225.684653 181.215689 
L 225.847062 179.116724 
L 226.00947 153.785457 
L 226.334287 194.921517 
L 226.496696 190.450446 
L 226.659104 169.381353 
L 226.821513 182.655096 
L 226.983921 173.082761 
L 227.14633 203.778162 
L 227.308738 183.786903 
L 227.471146 178.063422 
L 227.633555 138.688553 
L 227.795963 193.549371 
L 228.283189 149.662389 
L 228.608006 199.413408 
L 228.770414 175.158978 
L 228.932823 216.841997 
L 229.095231 184.111573 
L 229.25764 188.092834 
L 229.420048 128.505512 
L 229.744865 205.232131 
L 229.907274 241.838533 
L 230.069682 173.57207 
L 230.394499 187.608458 
L 230.556908 173.210276 
L 230.881724 184.847036 
L 231.044133 180.075202 
L 231.206541 170.048706 
L 231.36895 181.250829 
L 231.531358 183.315645 
L 231.856175 161.06946 
L 232.018584 179.390909 
L 232.180992 161.144703 
L 232.505809 212.754659 
L 232.668218 104.675683 
L 232.830626 174.804061 
L 232.993035 179.272866 
L 233.155443 188.461162 
L 233.317852 139.840526 
L 233.48026 171.458144 
L 233.642669 130.46902 
L 233.805077 183.465756 
L 233.967486 196.091174 
L 234.129894 188.145728 
L 234.292303 204.438868 
L 234.617119 172.028224 
L 234.779528 165.494716 
L 234.941936 178.182057 
L 235.104345 178.168117 
L 235.266753 186.716951 
L 235.429162 171.859 
L 235.59157 181.454436 
L 235.753979 180.390738 
L 235.916387 218.000508 
L 236.078796 154.473484 
L 236.403613 202.947571 
L 236.566021 201.398279 
L 236.72843 210.420738 
L 236.890838 185.27914 
L 237.053247 179.443587 
L 237.215655 182.552761 
L 237.378064 130.858764 
L 237.540472 180.94566 
L 237.702881 180.913535 
L 237.865289 195.652123 
L 238.027697 147.860721 
L 238.190106 172.105074 
L 238.352514 221.692954 
L 238.514923 186.175576 
L 238.677331 183.963351 
L 238.83974 177.03105 
L 239.002148 177.205875 
L 239.164557 181.448316 
L 239.326965 180.758044 
L 239.489374 166.240863 
L 239.814191 184.419755 
L 240.139008 170.893567 
L 240.301416 181.490967 
L 240.463825 181.940268 
L 240.626233 157.04122 
L 240.788642 201.10903 
L 240.95105 183.14346 
L 241.113459 183.226293 
L 241.275867 177.097637 
L 241.438276 135.670237 
L 241.600684 179.424157 
L 241.763092 177.009282 
L 241.925501 181.282143 
L 242.087909 194.048961 
L 242.250318 148.781645 
L 242.412726 155.999341 
L 242.575135 204.026095 
L 242.737543 168.183047 
L 242.899952 171.231151 
L 243.06236 189.411432 
L 243.224769 184.877531 
L 243.387177 175.499791 
L 243.549586 184.933722 
L 243.711994 178.546324 
L 243.874403 179.785735 
L 244.036811 179.82225 
L 244.19922 193.556104 
L 244.361628 173.95274 
L 244.524037 180.559903 
L 244.686445 204.638285 
L 244.848854 147.879107 
L 245.17367 198.862308 
L 245.336079 175.911603 
L 245.498487 174.947935 
L 245.660896 177.82408 
L 245.823304 192.283419 
L 245.985713 141.733019 
L 246.148121 182.720817 
L 246.31053 150.826052 
L 246.472938 181.703205 
L 246.635347 180.03375 
L 246.797755 223.630258 
L 246.960164 183.83324 
L 247.284981 169.451595 
L 247.447389 182.503558 
L 247.609798 166.409306 
L 247.934615 178.312155 
L 248.097023 175.738571 
L 248.259432 178.322487 
L 248.42184 199.930451 
L 248.584248 179.45139 
L 248.746657 181.749702 
L 248.909065 150.511416 
L 249.071474 155.978983 
L 249.233882 183.981823 
L 249.396291 176.000787 
L 249.558699 183.261175 
L 249.721108 124.048138 
L 249.883516 177.761214 
L 250.045925 170.016046 
L 250.208333 169.005989 
L 250.370742 170.152808 
L 250.53315 178.766128 
L 250.695559 141.032767 
L 250.857967 181.253673 
L 251.020376 171.373142 
L 251.182784 183.651314 
L 251.345193 181.050083 
L 251.507601 193.337003 
L 251.67001 187.305441 
L 251.832418 173.931831 
L 251.994827 208.733607 
L 252.157235 199.007925 
L 252.319643 176.288154 
L 252.482052 179.496607 
L 252.64446 193.082263 
L 252.806869 176.544263 
L 252.969277 204.163134 
L 253.131686 149.468421 
L 253.294094 188.026459 
L 253.456503 174.875977 
L 253.618911 177.309946 
L 253.78132 197.830985 
L 253.943728 176.275247 
L 254.106137 175.333051 
L 254.268545 179.242982 
L 254.430954 141.710293 
L 254.593362 183.05476 
L 254.755771 143.809505 
L 254.918179 230.490061 
L 255.080588 178.43728 
L 255.242996 186.189787 
L 255.567813 167.903257 
L 255.89263 201.854764 
L 256.217447 150.574312 
L 256.379855 185.173559 
L 256.542264 179.191621 
L 256.704672 151.141951 
L 256.867081 179.178046 
L 257.029489 178.843837 
L 257.191898 175.887272 
L 257.354306 186.836967 
L 257.516715 117.800926 
L 257.679123 182.566016 
L 257.841532 171.749717 
L 258.00394 171.946585 
L 258.166349 181.474697 
L 258.328757 181.915347 
L 258.491166 169.558941 
L 258.653574 139.223764 
L 258.978391 195.479321 
L 259.140799 180.168603 
L 259.303208 179.422629 
L 259.465616 186.334358 
L 259.628025 212.36082 
L 259.790433 179.487505 
L 259.952842 173.658213 
L 260.11525 203.054007 
L 260.277659 142.160247 
L 260.440067 196.482164 
L 260.602476 174.55558 
L 260.764884 176.999362 
L 261.089701 211.342695 
L 261.25211 179.578231 
L 261.414518 189.011894 
L 261.576927 177.298517 
L 261.739335 178.425273 
L 261.901744 177.756336 
L 262.064152 140.764969 
L 262.226561 182.26493 
L 262.388969 177.587693 
L 262.551378 133.314259 
L 262.713786 197.719317 
L 262.876194 179.647374 
L 263.038603 179.283762 
L 263.201011 189.529171 
L 263.36342 165.740233 
L 263.525828 240.997595 
L 264.013054 145.083435 
L 264.337871 186.664672 
L 264.500279 176.720636 
L 264.662688 152.741894 
L 264.987505 186.583555 
L 265.149913 171.31428 
L 265.312322 186.739413 
L 265.47473 175.194332 
L 265.637139 178.240439 
L 265.799547 131.079448 
L 265.961956 203.798581 
L 266.124364 165.249303 
L 266.286772 186.335417 
L 266.449181 178.244856 
L 266.611589 181.87516 
L 266.773998 105.77286 
L 266.936406 170.801096 
L 267.098815 190.739245 
L 267.261223 175.813241 
L 267.423632 206.892565 
L 267.58604 197.995521 
L 267.910857 171.974138 
L 268.073266 167.971856 
L 268.235674 186.747079 
L 268.398083 171.158602 
L 268.560491 178.957413 
L 268.7229 198.351639 
L 268.885308 179.293059 
L 269.047717 183.349425 
L 269.210125 178.336665 
L 269.534942 133.889328 
L 269.69735 177.990164 
L 269.859759 176.625188 
L 270.022167 212.461437 
L 270.184576 176.566826 
L 270.346984 187.934695 
L 270.509393 171.350439 
L 270.671801 169.824854 
L 270.83421 180.358303 
L 270.996618 141.664729 
L 271.159027 220.813279 
L 271.321435 177.559091 
L 271.646252 171.401353 
L 271.808661 188.698003 
L 271.971069 183.749374 
L 272.133478 171.135911 
L 272.295886 180.387832 
L 272.458295 158.965374 
L 272.620703 163.868013 
L 272.94552 179.352491 
L 273.107929 151.558551 
L 273.270337 179.264116 
L 273.432745 170.13987 
L 273.595154 112.819983 
L 273.757562 164.010871 
L 273.919971 180.172629 
L 274.082379 137.074152 
L 274.407196 207.934237 
L 274.569605 174.548137 
L 274.732013 194.959779 
L 274.894422 175.796286 
L 275.05683 177.230635 
L 275.219239 167.147934 
L 275.381647 180.925712 
L 275.544056 178.847857 
L 275.706464 188.892671 
L 276.031281 171.577085 
L 276.19369 181.231485 
L 276.356098 171.087707 
L 276.680915 182.805637 
L 276.843323 171.725633 
L 277.005732 174.380996 
L 277.16814 174.864064 
L 277.330549 187.267623 
L 277.492957 176.65745 
L 277.655366 189.015606 
L 277.817774 149.767842 
L 278.142591 200.803027 
L 278.305 140.98044 
L 278.467408 177.935809 
L 278.629817 140.833929 
L 278.954634 194.096102 
L 279.117042 174.454345 
L 279.279451 179.335004 
L 279.441859 164.359762 
L 279.929085 188.212542 
L 280.091493 176.438021 
L 280.253901 196.48662 
L 280.41631 186.564497 
L 280.578718 230.614702 
L 280.741127 170.1549 
L 280.903535 173.722351 
L 281.065944 184.265373 
L 281.228352 186.072068 
L 281.390761 111.482351 
L 281.715578 170.172166 
L 281.877986 178.981752 
L 282.040395 174.54989 
L 282.202803 196.686441 
L 282.365212 152.21102 
L 282.52762 176.694285 
L 282.690029 180.803246 
L 282.852437 178.968114 
L 283.014846 200.212505 
L 283.339663 185.544324 
L 283.502071 187.146821 
L 283.66448 185.813998 
L 283.989296 170.957927 
L 284.151705 179.860023 
L 284.314113 181.401163 
L 284.476522 180.152234 
L 284.63893 176.025816 
L 284.801339 175.957613 
L 284.963747 179.468579 
L 285.126156 193.183223 
L 285.450973 180.604571 
L 285.613381 179.940817 
L 285.77579 205.045718 
L 285.938198 139.538829 
L 286.263015 179.712846 
L 286.425424 180.701383 
L 286.587832 187.608852 
L 286.912649 172.332396 
L 287.075058 154.115719 
L 287.237466 183.436824 
L 287.562283 178.749578 
L 287.724691 191.935261 
L 288.049508 180.133994 
L 288.211917 161.930693 
L 288.374325 179.309197 
L 288.536734 179.026956 
L 288.699142 215.894663 
L 288.861551 174.674931 
L 289.023959 174.821947 
L 289.186368 182.370469 
L 289.348776 176.237409 
L 289.511185 184.786236 
L 289.673593 179.281579 
L 289.836002 150.40539 
L 289.99841 175.512563 
L 290.160819 182.225733 
L 290.323227 135.190051 
L 290.485636 199.32958 
L 290.648044 161.220891 
L 290.810452 181.130037 
L 290.972861 178.706502 
L 291.135269 180.770091 
L 291.297678 172.214767 
L 291.460086 187.035319 
L 291.622495 183.426079 
L 291.784903 185.258423 
L 291.947312 172.309778 
L 292.10972 186.023743 
L 292.272129 176.335989 
L 292.434537 192.526636 
L 292.596946 179.295948 
L 292.759354 180.908409 
L 292.921763 179.337722 
L 293.24658 153.05739 
L 293.408988 187.447053 
L 293.571397 156.59941 
L 293.733805 181.098357 
L 293.896214 181.03706 
L 294.058622 180.04956 
L 294.221031 195.954418 
L 294.383439 153.428809 
L 294.545847 184.633169 
L 294.708256 171.388122 
L 295.195481 185.988485 
L 295.35789 180.421968 
L 295.682707 157.602951 
L 295.845115 182.977758 
L 296.007524 180.779218 
L 296.332341 171.333555 
L 296.657158 183.257042 
L 296.819566 179.273457 
L 296.981975 210.783693 
L 297.144383 184.230769 
L 297.4692 169.991398 
L 297.631609 183.037052 
L 297.794017 178.17438 
L 297.956425 210.701305 
L 298.118834 125.525743 
L 298.281242 176.91077 
L 298.443651 182.00551 
L 298.606059 172.64694 
L 298.768468 148.903217 
L 298.930876 179.207723 
L 299.093285 161.886632 
L 299.255693 178.366801 
L 299.418102 178.725917 
L 299.58051 191.671489 
L 299.742919 181.563096 
L 299.905327 190.829644 
L 300.067736 187.527297 
L 300.230144 176.717752 
L 300.392553 181.71971 
L 300.71737 183.15804 
L 300.879778 177.747525 
L 301.042187 183.708 
L 301.204595 171.097042 
L 301.367004 146.429076 
L 301.529412 171.874994 
L 301.69182 150.760069 
L 301.854229 177.845202 
L 302.016637 142.770599 
L 302.179046 182.074792 
L 302.341454 178.304678 
L 302.503863 179.189147 
L 302.666271 195.222783 
L 302.82868 193.429528 
L 302.991088 181.22371 
L 303.153497 178.67632 
L 303.315905 186.804017 
L 303.478314 176.514255 
L 303.640722 191.600189 
L 303.803131 170.837868 
L 303.965539 186.940608 
L 304.127948 166.70129 
L 304.452765 178.196303 
L 304.615173 175.134584 
L 304.777582 183.720835 
L 304.93999 240.229127 
L 305.102398 195.148547 
L 305.427215 175.403985 
L 305.589624 185.340362 
L 305.752032 182.6453 
L 305.914441 102.10204 
L 306.076849 191.913165 
L 306.239258 153.500435 
L 306.401666 200.460238 
L 306.726483 175.502218 
L 307.0513 187.443682 
L 307.213709 184.301879 
L 307.376117 131.414311 
L 307.538526 182.748557 
L 307.700934 186.345184 
L 307.863343 183.145224 
L 308.025751 187.321719 
L 308.18816 201.356606 
L 308.675385 178.792081 
L 308.837793 193.019545 
L 309.16261 181.184094 
L 309.325019 135.910385 
L 309.812244 192.875087 
L 309.974653 207.927051 
L 310.137061 181.091447 
L 310.29947 188.676777 
L 310.461878 187.320218 
L 310.624287 191.534633 
L 310.786695 185.704846 
L 310.949104 156.370654 
L 311.111512 183.552098 
L 311.273921 190.725264 
L 311.436329 178.488382 
L 311.598738 180.600465 
L 311.761146 186.537031 
L 311.923555 174.260426 
L 312.248371 188.083266 
L 312.41078 183.985676 
L 312.573188 183.868185 
L 312.735597 170.037985 
L 313.060414 194.015447 
L 313.222822 223.182442 
L 313.385231 186.031297 
L 313.710048 182.917416 
L 313.872456 127.544074 
L 314.197273 182.214516 
L 314.359682 189.549269 
L 314.52209 180.334958 
L 314.846907 191.078235 
L 315.171724 181.127794 
L 315.334133 178.60491 
L 315.658949 182.834578 
L 315.821358 194.77478 
L 315.983766 180.371371 
L 316.146175 185.176783 
L 316.308583 148.948628 
L 316.470992 185.715002 
L 316.6334 195.469314 
L 316.795809 176.472626 
L 316.958217 180.769125 
L 317.120626 189.829394 
L 317.283034 176.816092 
L 317.445443 151.114279 
L 317.607851 187.273004 
L 317.77026 165.996067 
L 317.932668 188.494252 
L 318.095077 186.116371 
L 318.257485 200.370117 
L 318.419894 180.128112 
L 318.582302 187.62536 
L 318.744711 186.329594 
L 318.907119 162.732737 
L 319.231936 181.653738 
L 319.394344 178.547926 
L 319.556753 184.077693 
L 319.719161 180.758556 
L 319.88157 182.815225 
L 320.043978 183.321567 
L 320.206387 185.185846 
L 320.368795 175.750808 
L 320.531204 183.431143 
L 320.693612 180.8908 
L 320.856021 145.584849 
L 321.180838 206.023315 
L 321.343246 184.152625 
L 321.505655 180.054587 
L 321.99288 185.539743 
L 322.155289 168.089794 
L 322.480106 187.254991 
L 322.642514 180.48899 
L 322.804922 184.03859 
L 322.967331 179.69217 
L 323.129739 193.918561 
L 323.454556 176.315033 
L 323.616965 185.614224 
L 323.779373 187.802239 
L 323.941782 182.522556 
L 324.10419 186.630494 
L 324.266599 181.161698 
L 324.429007 182.521105 
L 324.591416 155.143949 
L 324.753824 184.273747 
L 324.916233 181.670744 
L 325.078641 181.898495 
L 325.24105 159.51331 
L 325.403458 166.909203 
L 325.728275 184.445208 
L 325.890684 191.423843 
L 326.053092 162.758433 
L 326.2155 183.208912 
L 326.377909 176.123264 
L 326.540317 182.167445 
L 326.702726 175.584963 
L 327.027543 182.84359 
L 327.189951 183.222828 
L 327.35236 185.141257 
L 327.514768 190.685401 
L 327.677177 181.259731 
L 327.839585 181.456598 
L 328.001994 181.232385 
L 328.164402 187.200108 
L 328.326811 187.860712 
L 328.489219 189.065194 
L 328.651628 178.78524 
L 328.814036 185.222434 
L 328.976445 185.191053 
L 329.138853 191.896804 
L 329.301262 144.136512 
L 329.626078 182.074917 
L 329.788487 180.272047 
L 329.950895 220.375157 
L 330.113304 187.478846 
L 330.275712 187.971234 
L 330.438121 168.138305 
L 330.762938 187.370509 
L 331.087755 180.192445 
L 331.250163 190.892395 
L 331.412572 182.376313 
L 331.57498 194.592345 
L 331.899797 180.711059 
L 332.062206 179.05625 
L 332.224614 174.520304 
L 332.387023 186.004908 
L 332.549431 186.009533 
L 332.71184 158.717835 
L 332.874248 184.901061 
L 333.036657 152.634334 
L 333.361473 195.912174 
L 333.523882 195.080105 
L 333.848699 174.367574 
L 334.011107 181.747962 
L 334.173516 179.984412 
L 334.335924 168.669077 
L 334.498333 186.490213 
L 334.660741 178.108338 
L 334.985558 180.922267 
L 335.147967 186.532039 
L 335.310375 184.937327 
L 335.472784 165.008024 
L 335.635192 184.824222 
L 335.797601 185.228337 
L 335.960009 184.535618 
L 336.122418 176.651079 
L 336.284826 183.846418 
L 336.447235 180.499814 
L 336.609643 181.204007 
L 336.772051 145.916002 
L 336.93446 183.23814 
L 337.096868 182.716383 
L 337.259277 180.183035 
L 337.421685 182.589396 
L 337.584094 173.776625 
L 337.746502 191.004324 
L 337.908911 180.441997 
L 338.071319 185.22509 
L 338.233728 185.086533 
L 338.396136 176.994226 
L 338.558545 184.122436 
L 338.720953 178.320481 
L 338.883362 203.88461 
L 339.04577 181.27857 
L 339.208179 180.635579 
L 339.370587 184.907735 
L 339.532996 183.774082 
L 339.695404 170.596688 
L 339.857813 188.379324 
L 340.020221 182.644329 
L 340.182629 185.005916 
L 340.345038 181.062975 
L 340.507446 180.444969 
L 340.669855 181.87016 
L 340.832263 181.745863 
L 340.994672 181.212072 
L 341.15708 161.061751 
L 341.319489 169.393509 
L 341.481897 183.832686 
L 341.644306 158.459097 
L 341.806714 185.057066 
L 341.969123 187.196849 
L 342.131531 181.084078 
L 342.29394 183.968847 
L 342.456348 180.03189 
L 342.618757 180.810843 
L 342.781165 175.569405 
L 342.943574 187.970291 
L 343.105982 176.487364 
L 343.430799 189.252085 
L 343.593208 181.095839 
L 343.755616 166.548428 
L 343.918024 182.618686 
L 344.080433 180.359859 
L 344.242841 181.110628 
L 344.40525 179.359597 
L 344.567658 188.820418 
L 344.892475 185.052053 
L 345.054884 144.221913 
L 345.217292 186.119954 
L 345.379701 189.219792 
L 345.542109 180.270176 
L 345.704518 180.084591 
L 345.866926 217.863265 
L 346.029335 179.969955 
L 346.191743 175.630871 
L 346.354152 182.757233 
L 346.51656 168.173109 
L 346.678969 188.525832 
L 346.841377 187.862963 
L 347.003786 177.77542 
L 347.166194 186.798707 
L 347.328602 186.726073 
L 347.653419 173.03254 
L 347.815828 188.018336 
L 347.978236 190.493477 
L 348.140645 177.190486 
L 348.303053 183.82114 
L 348.465462 171.439698 
L 348.62787 184.266534 
L 348.790279 167.831278 
L 348.952687 184.026652 
L 349.115096 162.37597 
L 349.439913 184.71011 
L 349.602321 194.745226 
L 349.76473 181.817898 
L 349.927138 180.842195 
L 350.089547 184.265129 
L 350.251955 156.087344 
L 350.576772 194.899781 
L 350.73918 162.830387 
L 350.901589 166.506373 
L 351.063997 185.398389 
L 351.388814 188.993325 
L 351.551223 176.730043 
L 351.713631 181.405878 
L 351.87604 172.20303 
L 352.038448 186.804082 
L 352.363265 177.813029 
L 352.525674 165.170043 
L 352.688082 132.650622 
L 352.850491 187.009912 
L 353.012899 169.708899 
L 353.337716 180.968689 
L 353.500125 185.405932 
L 353.662533 171.434078 
L 353.824942 178.530841 
L 353.98735 197.773501 
L 354.149759 181.516585 
L 354.312167 176.464049 
L 354.474575 181.628285 
L 354.636984 182.341264 
L 354.799392 186.187953 
L 354.961801 177.410695 
L 355.124209 182.527535 
L 355.286618 178.030512 
L 355.449026 179.147976 
L 355.611435 183.741959 
L 355.773843 182.874236 
L 355.936252 186.348512 
L 356.261069 174.376832 
L 356.423477 170.377278 
L 356.585886 169.761914 
L 356.748294 181.81913 
L 356.910703 155.305909 
L 357.073111 176.763469 
L 357.397928 180.227349 
L 357.560337 171.325414 
L 357.722745 181.862439 
L 357.885153 178.074133 
L 358.047562 180.110817 
L 358.20997 185.159506 
L 358.534787 177.308443 
L 358.697196 181.984905 
L 358.859604 182.658006 
L 359.022013 174.50744 
L 359.184421 183.928796 
L 359.509238 152.95833 
L 359.834055 185.398782 
L 359.996464 179.417232 
L 360.158872 179.732642 
L 360.321281 184.639676 
L 360.483689 155.62453 
L 360.808506 184.639911 
L 360.970915 181.546222 
L 361.133323 175.519001 
L 361.295732 174.216502 
L 361.45814 184.739089 
L 361.620548 174.4957 
L 361.782957 185.428018 
L 361.945365 182.415704 
L 362.107774 181.688873 
L 362.270182 202.615267 
L 362.432591 186.427693 
L 362.594999 185.517605 
L 362.757408 188.122049 
L 363.082225 169.941744 
L 363.244633 181.866591 
L 363.407042 180.913591 
L 363.56945 184.967364 
L 363.731859 179.233383 
L 363.894267 185.013792 
L 364.056676 181.602907 
L 364.219084 185.760093 
L 364.381493 175.034735 
L 364.70631 184.752307 
L 364.868718 182.580626 
L 365.031126 168.547858 
L 365.193535 171.808078 
L 365.355943 182.140898 
L 365.518352 182.108347 
L 365.68076 189.072249 
L 365.843169 181.950873 
L 366.005577 188.813536 
L 366.167986 179.162724 
L 366.492803 186.612715 
L 366.655211 186.376435 
L 366.81762 182.808571 
L 366.980028 183.144381 
L 367.142437 169.584087 
L 367.304845 183.528341 
L 367.467254 169.848462 
L 367.629662 172.482641 
L 367.792071 159.669307 
L 367.954479 167.8366 
L 368.116888 183.715401 
L 368.279296 185.533394 
L 368.441704 180.29227 
L 368.604113 127.762835 
L 368.766521 180.105841 
L 368.92893 176.343856 
L 369.091338 184.497515 
L 369.253747 183.722438 
L 369.416155 185.766995 
L 369.578564 183.768265 
L 369.740972 173.07905 
L 369.903381 185.135738 
L 370.065789 183.799115 
L 370.228198 186.31884 
L 370.390606 201.714041 
L 370.553015 174.486249 
L 370.715423 176.425041 
L 370.877832 188.551338 
L 371.04024 177.631939 
L 371.202649 186.404708 
L 371.365057 186.017054 
L 371.527466 174.266492 
L 371.689874 181.529128 
L 371.852283 172.758455 
L 372.014691 179.284748 
L 372.177099 176.086978 
L 372.501916 181.083147 
L 372.664325 183.198055 
L 372.826733 190.309945 
L 373.15155 179.581492 
L 373.313959 178.525442 
L 373.476367 155.093477 
L 373.638776 179.347679 
L 373.963593 188.325383 
L 374.126001 179.553156 
L 374.450818 186.844611 
L 374.613227 186.362909 
L 374.938044 181.134342 
L 375.100452 173.777218 
L 375.425269 178.27343 
L 375.587677 186.764944 
L 375.750086 152.501193 
L 375.912494 170.987716 
L 376.237311 180.92329 
L 376.39972 173.838536 
L 376.562128 177.217564 
L 376.724537 133.278655 
L 376.886945 189.883345 
L 377.049354 184.15059 
L 377.211762 174.23737 
L 377.374171 184.77603 
L 377.536579 182.019351 
L 377.698988 186.382688 
L 377.861396 185.523712 
L 378.023805 182.080314 
L 378.186213 189.639461 
L 378.348622 186.604494 
L 378.51103 177.106609 
L 378.835847 183.071215 
L 378.998255 182.194571 
L 379.160664 178.096994 
L 379.323072 178.800179 
L 379.485481 180.985862 
L 379.647889 186.251846 
L 379.972706 175.119781 
L 380.135115 210.364917 
L 380.297523 182.755035 
L 380.62234 183.056493 
L 380.784749 184.861033 
L 380.947157 181.271918 
L 381.109566 186.426182 
L 381.271974 160.696492 
L 381.434383 181.967705 
L 381.596791 183.156688 
L 381.7592 180.947938 
L 381.921608 187.051555 
L 382.084017 187.377522 
L 382.408834 192.630972 
L 382.73365 180.417672 
L 382.896059 178.72715 
L 383.058467 179.747617 
L 383.220876 183.867782 
L 383.383284 183.592499 
L 383.545693 181.583153 
L 383.708101 193.282449 
L 383.87051 154.554753 
L 384.032918 183.687672 
L 384.195327 187.456402 
L 384.357735 184.83141 
L 384.520144 178.606387 
L 384.682552 178.006805 
L 384.844961 185.393194 
L 385.007369 184.620377 
L 385.169778 161.238738 
L 385.332186 176.259891 
L 385.657003 184.604774 
L 385.819412 182.205208 
L 385.98182 184.063265 
L 386.144228 183.919322 
L 386.306637 185.417111 
L 386.469045 185.00615 
L 386.631454 180.204291 
L 386.793862 178.994022 
L 386.956271 182.975182 
L 387.118679 178.698982 
L 387.281088 182.441917 
L 387.443496 182.961696 
L 387.605905 181.681244 
L 387.768313 183.267304 
L 387.930722 179.297244 
L 388.09313 184.057885 
L 388.255539 181.273131 
L 388.417947 196.235119 
L 388.580356 182.686457 
L 388.742764 183.071307 
L 388.905173 181.484665 
L 389.067581 181.290218 
L 389.22999 184.368297 
L 389.392398 183.707912 
L 389.554806 187.967671 
L 390.042032 172.400165 
L 390.20444 182.300711 
L 390.366849 179.416463 
L 390.529257 186.841104 
L 390.691666 180.390567 
L 390.854074 182.414168 
L 391.016483 182.535237 
L 391.3413 185.732525 
L 391.503708 182.25846 
L 391.666117 183.458113 
L 391.828525 168.723442 
L 391.990934 180.155164 
L 392.315751 185.8472 
L 392.478159 176.713707 
L 392.640568 179.263852 
L 392.802976 185.425332 
L 392.965385 183.604906 
L 393.127793 183.838727 
L 393.290201 178.176322 
L 393.45261 178.985361 
L 393.615018 160.98961 
L 393.777427 185.141099 
L 393.939835 184.958221 
L 394.102244 185.439272 
L 394.264652 179.09017 
L 394.427061 186.850516 
L 394.589469 182.355469 
L 394.751878 183.228291 
L 394.914286 179.984281 
L 395.076695 181.802693 
L 395.239103 197.478137 
L 395.401512 182.680029 
L 395.56392 178.839831 
L 395.888737 184.049542 
L 396.051146 184.406425 
L 396.213554 184.367139 
L 396.375963 182.615359 
L 396.538371 173.068704 
L 396.700779 188.031447 
L 396.863188 182.777333 
L 397.025596 167.893304 
L 397.188005 183.755502 
L 397.350413 186.471634 
L 397.512822 182.418184 
L 397.67523 186.188324 
L 397.837639 183.658758 
L 398.000047 183.5568 
L 398.162456 178.991241 
L 398.324864 184.72102 
L 398.487273 184.155096 
L 398.487273 184.155096 
" style="fill:none;stroke:#1f77b4;stroke-linecap:square;stroke-width:1.5;"/>
   </g>
   <g id="patch_3">
    <path d="M 57.6 307.584 
L 57.6 41.472 
" style="fill:none;stroke:#000000;stroke-linecap:square;stroke-linejoin:miter;stroke-width:0.8;"/>
   </g>
   <g id="patch_4">
    <path d="M 414.72 307.584 
L 414.72 41.472 
" style="fill:none;stroke:#000000;stroke-linecap:square;stroke-linejoin:miter;stroke-width:0.8;"/>
   </g>
   <g id="patch_5">
    <path d="M 57.6 307.584 
L 414.72 307.584 
" style="fill:none;stroke:#000000;stroke-linecap:square;stroke-linejoin:miter;stroke-width:0.8;"/>
   </g>
   <g id="patch_6">
    <path d="M 57.6 41.472 
L 414.72 41.472 
" style="fill:none;stroke:#000000;stroke-linecap:square;stroke-linejoin:miter;stroke-width:0.8;"/>
   </g>
  </g>
 </g>
 <defs>
  <clipPath id="p7152c6bccd">
   <rect height="266.112" width="357.12" x="57.6" y="41.472"/>
  </clipPath>
 </defs>
</svg>
