<?xml version="1.0" encoding="utf-8" standalone="no"?>
<!DOCTYPE svg PUBLIC "-//W3C//DTD SVG 1.1//EN"
  "http://www.w3.org/Graphics/SVG/1.1/DTD/svg11.dtd">
<!-- Created with matplotlib (https://matplotlib.org/) -->
<svg height="345.6pt" version="1.1" viewBox="0 0 460.8 345.6" width="460.8pt" xmlns="http://www.w3.org/2000/svg" xmlns:xlink="http://www.w3.org/1999/xlink">
 <metadata>
  <rdf:RDF xmlns:cc="http://creativecommons.org/ns#" xmlns:dc="http://purl.org/dc/elements/1.1/" xmlns:rdf="http://www.w3.org/1999/02/22-rdf-syntax-ns#">
   <cc:Work>
    <dc:type rdf:resource="http://purl.org/dc/dcmitype/StillImage"/>
    <dc:date>2021-05-08T15:00:20.633080</dc:date>
    <dc:format>image/svg+xml</dc:format>
    <dc:creator>
     <cc:Agent>
      <dc:title>Matplotlib v3.3.4, https://matplotlib.org/</dc:title>
     </cc:Agent>
    </dc:creator>
   </cc:Work>
  </rdf:RDF>
 </metadata>
 <defs>
  <style type="text/css">*{stroke-linecap:butt;stroke-linejoin:round;}</style>
 </defs>
 <g id="figure_1">
  <g id="patch_1">
   <path d="M 0 345.6 
L 460.8 345.6 
L 460.8 0 
L 0 0 
z
" style="fill:#ffffff;"/>
  </g>
  <g id="axes_1">
   <g id="patch_2">
    <path d="M 57.6 307.584 
L 414.72 307.584 
L 414.72 41.472 
L 57.6 41.472 
z
" style="fill:#ffffff;"/>
   </g>
   <g id="matplotlib.axis_1">
    <g id="xtick_1">
     <g id="line2d_1">
      <defs>
       <path d="M 0 0 
L 0 3.5 
" id="m798cd0bf41" style="stroke:#000000;stroke-width:0.8;"/>
      </defs>
      <g>
       <use style="stroke:#000000;stroke-width:0.8;" x="73.832727" xlink:href="#m798cd0bf41" y="307.584"/>
      </g>
     </g>
     <g id="text_1">
      <!-- 0 -->
      <g transform="translate(70.651477 322.182437)scale(0.1 -0.1)">
       <defs>
        <path d="M 31.78125 66.40625 
Q 24.171875 66.40625 20.328125 58.90625 
Q 16.5 51.421875 16.5 36.375 
Q 16.5 21.390625 20.328125 13.890625 
Q 24.171875 6.390625 31.78125 6.390625 
Q 39.453125 6.390625 43.28125 13.890625 
Q 47.125 21.390625 47.125 36.375 
Q 47.125 51.421875 43.28125 58.90625 
Q 39.453125 66.40625 31.78125 66.40625 
z
M 31.78125 74.21875 
Q 44.046875 74.21875 50.515625 64.515625 
Q 56.984375 54.828125 56.984375 36.375 
Q 56.984375 17.96875 50.515625 8.265625 
Q 44.046875 -1.421875 31.78125 -1.421875 
Q 19.53125 -1.421875 13.0625 8.265625 
Q 6.59375 17.96875 6.59375 36.375 
Q 6.59375 54.828125 13.0625 64.515625 
Q 19.53125 74.21875 31.78125 74.21875 
z
" id="DejaVuSans-48"/>
       </defs>
       <use xlink:href="#DejaVuSans-48"/>
      </g>
     </g>
    </g>
    <g id="xtick_2">
     <g id="line2d_2">
      <g>
       <use style="stroke:#000000;stroke-width:0.8;" x="114.465336" xlink:href="#m798cd0bf41" y="307.584"/>
      </g>
     </g>
     <g id="text_2">
      <!-- 100 -->
      <g transform="translate(104.921586 322.182437)scale(0.1 -0.1)">
       <defs>
        <path d="M 12.40625 8.296875 
L 28.515625 8.296875 
L 28.515625 63.921875 
L 10.984375 60.40625 
L 10.984375 69.390625 
L 28.421875 72.90625 
L 38.28125 72.90625 
L 38.28125 8.296875 
L 54.390625 8.296875 
L 54.390625 0 
L 12.40625 0 
z
" id="DejaVuSans-49"/>
       </defs>
       <use xlink:href="#DejaVuSans-49"/>
       <use x="63.623047" xlink:href="#DejaVuSans-48"/>
       <use x="127.246094" xlink:href="#DejaVuSans-48"/>
      </g>
     </g>
    </g>
    <g id="xtick_3">
     <g id="line2d_3">
      <g>
       <use style="stroke:#000000;stroke-width:0.8;" x="155.097945" xlink:href="#m798cd0bf41" y="307.584"/>
      </g>
     </g>
     <g id="text_3">
      <!-- 200 -->
      <g transform="translate(145.554195 322.182437)scale(0.1 -0.1)">
       <defs>
        <path d="M 19.1875 8.296875 
L 53.609375 8.296875 
L 53.609375 0 
L 7.328125 0 
L 7.328125 8.296875 
Q 12.9375 14.109375 22.625 23.890625 
Q 32.328125 33.6875 34.8125 36.53125 
Q 39.546875 41.84375 41.421875 45.53125 
Q 43.3125 49.21875 43.3125 52.78125 
Q 43.3125 58.59375 39.234375 62.25 
Q 35.15625 65.921875 28.609375 65.921875 
Q 23.96875 65.921875 18.8125 64.3125 
Q 13.671875 62.703125 7.8125 59.421875 
L 7.8125 69.390625 
Q 13.765625 71.78125 18.9375 73 
Q 24.125 74.21875 28.421875 74.21875 
Q 39.75 74.21875 46.484375 68.546875 
Q 53.21875 62.890625 53.21875 53.421875 
Q 53.21875 48.921875 51.53125 44.890625 
Q 49.859375 40.875 45.40625 35.40625 
Q 44.1875 33.984375 37.640625 27.21875 
Q 31.109375 20.453125 19.1875 8.296875 
z
" id="DejaVuSans-50"/>
       </defs>
       <use xlink:href="#DejaVuSans-50"/>
       <use x="63.623047" xlink:href="#DejaVuSans-48"/>
       <use x="127.246094" xlink:href="#DejaVuSans-48"/>
      </g>
     </g>
    </g>
    <g id="xtick_4">
     <g id="line2d_4">
      <g>
       <use style="stroke:#000000;stroke-width:0.8;" x="195.730554" xlink:href="#m798cd0bf41" y="307.584"/>
      </g>
     </g>
     <g id="text_4">
      <!-- 300 -->
      <g transform="translate(186.186804 322.182437)scale(0.1 -0.1)">
       <defs>
        <path d="M 40.578125 39.3125 
Q 47.65625 37.796875 51.625 33 
Q 55.609375 28.21875 55.609375 21.1875 
Q 55.609375 10.40625 48.1875 4.484375 
Q 40.765625 -1.421875 27.09375 -1.421875 
Q 22.515625 -1.421875 17.65625 -0.515625 
Q 12.796875 0.390625 7.625 2.203125 
L 7.625 11.71875 
Q 11.71875 9.328125 16.59375 8.109375 
Q 21.484375 6.890625 26.8125 6.890625 
Q 36.078125 6.890625 40.9375 10.546875 
Q 45.796875 14.203125 45.796875 21.1875 
Q 45.796875 27.640625 41.28125 31.265625 
Q 36.765625 34.90625 28.71875 34.90625 
L 20.21875 34.90625 
L 20.21875 43.015625 
L 29.109375 43.015625 
Q 36.375 43.015625 40.234375 45.921875 
Q 44.09375 48.828125 44.09375 54.296875 
Q 44.09375 59.90625 40.109375 62.90625 
Q 36.140625 65.921875 28.71875 65.921875 
Q 24.65625 65.921875 20.015625 65.03125 
Q 15.375 64.15625 9.8125 62.3125 
L 9.8125 71.09375 
Q 15.4375 72.65625 20.34375 73.4375 
Q 25.25 74.21875 29.59375 74.21875 
Q 40.828125 74.21875 47.359375 69.109375 
Q 53.90625 64.015625 53.90625 55.328125 
Q 53.90625 49.265625 50.4375 45.09375 
Q 46.96875 40.921875 40.578125 39.3125 
z
" id="DejaVuSans-51"/>
       </defs>
       <use xlink:href="#DejaVuSans-51"/>
       <use x="63.623047" xlink:href="#DejaVuSans-48"/>
       <use x="127.246094" xlink:href="#DejaVuSans-48"/>
      </g>
     </g>
    </g>
    <g id="xtick_5">
     <g id="line2d_5">
      <g>
       <use style="stroke:#000000;stroke-width:0.8;" x="236.363163" xlink:href="#m798cd0bf41" y="307.584"/>
      </g>
     </g>
     <g id="text_5">
      <!-- 400 -->
      <g transform="translate(226.819413 322.182437)scale(0.1 -0.1)">
       <defs>
        <path d="M 37.796875 64.3125 
L 12.890625 25.390625 
L 37.796875 25.390625 
z
M 35.203125 72.90625 
L 47.609375 72.90625 
L 47.609375 25.390625 
L 58.015625 25.390625 
L 58.015625 17.1875 
L 47.609375 17.1875 
L 47.609375 0 
L 37.796875 0 
L 37.796875 17.1875 
L 4.890625 17.1875 
L 4.890625 26.703125 
z
" id="DejaVuSans-52"/>
       </defs>
       <use xlink:href="#DejaVuSans-52"/>
       <use x="63.623047" xlink:href="#DejaVuSans-48"/>
       <use x="127.246094" xlink:href="#DejaVuSans-48"/>
      </g>
     </g>
    </g>
    <g id="xtick_6">
     <g id="line2d_6">
      <g>
       <use style="stroke:#000000;stroke-width:0.8;" x="276.995772" xlink:href="#m798cd0bf41" y="307.584"/>
      </g>
     </g>
     <g id="text_6">
      <!-- 500 -->
      <g transform="translate(267.452022 322.182437)scale(0.1 -0.1)">
       <defs>
        <path d="M 10.796875 72.90625 
L 49.515625 72.90625 
L 49.515625 64.59375 
L 19.828125 64.59375 
L 19.828125 46.734375 
Q 21.96875 47.46875 24.109375 47.828125 
Q 26.265625 48.1875 28.421875 48.1875 
Q 40.625 48.1875 47.75 41.5 
Q 54.890625 34.8125 54.890625 23.390625 
Q 54.890625 11.625 47.5625 5.09375 
Q 40.234375 -1.421875 26.90625 -1.421875 
Q 22.3125 -1.421875 17.546875 -0.640625 
Q 12.796875 0.140625 7.71875 1.703125 
L 7.71875 11.625 
Q 12.109375 9.234375 16.796875 8.0625 
Q 21.484375 6.890625 26.703125 6.890625 
Q 35.15625 6.890625 40.078125 11.328125 
Q 45.015625 15.765625 45.015625 23.390625 
Q 45.015625 31 40.078125 35.4375 
Q 35.15625 39.890625 26.703125 39.890625 
Q 22.75 39.890625 18.8125 39.015625 
Q 14.890625 38.140625 10.796875 36.28125 
z
" id="DejaVuSans-53"/>
       </defs>
       <use xlink:href="#DejaVuSans-53"/>
       <use x="63.623047" xlink:href="#DejaVuSans-48"/>
       <use x="127.246094" xlink:href="#DejaVuSans-48"/>
      </g>
     </g>
    </g>
    <g id="xtick_7">
     <g id="line2d_7">
      <g>
       <use style="stroke:#000000;stroke-width:0.8;" x="317.628381" xlink:href="#m798cd0bf41" y="307.584"/>
      </g>
     </g>
     <g id="text_7">
      <!-- 600 -->
      <g transform="translate(308.084631 322.182437)scale(0.1 -0.1)">
       <defs>
        <path d="M 33.015625 40.375 
Q 26.375 40.375 22.484375 35.828125 
Q 18.609375 31.296875 18.609375 23.390625 
Q 18.609375 15.53125 22.484375 10.953125 
Q 26.375 6.390625 33.015625 6.390625 
Q 39.65625 6.390625 43.53125 10.953125 
Q 47.40625 15.53125 47.40625 23.390625 
Q 47.40625 31.296875 43.53125 35.828125 
Q 39.65625 40.375 33.015625 40.375 
z
M 52.59375 71.296875 
L 52.59375 62.3125 
Q 48.875 64.0625 45.09375 64.984375 
Q 41.3125 65.921875 37.59375 65.921875 
Q 27.828125 65.921875 22.671875 59.328125 
Q 17.53125 52.734375 16.796875 39.40625 
Q 19.671875 43.65625 24.015625 45.921875 
Q 28.375 48.1875 33.59375 48.1875 
Q 44.578125 48.1875 50.953125 41.515625 
Q 57.328125 34.859375 57.328125 23.390625 
Q 57.328125 12.15625 50.6875 5.359375 
Q 44.046875 -1.421875 33.015625 -1.421875 
Q 20.359375 -1.421875 13.671875 8.265625 
Q 6.984375 17.96875 6.984375 36.375 
Q 6.984375 53.65625 15.1875 63.9375 
Q 23.390625 74.21875 37.203125 74.21875 
Q 40.921875 74.21875 44.703125 73.484375 
Q 48.484375 72.75 52.59375 71.296875 
z
" id="DejaVuSans-54"/>
       </defs>
       <use xlink:href="#DejaVuSans-54"/>
       <use x="63.623047" xlink:href="#DejaVuSans-48"/>
       <use x="127.246094" xlink:href="#DejaVuSans-48"/>
      </g>
     </g>
    </g>
    <g id="xtick_8">
     <g id="line2d_8">
      <g>
       <use style="stroke:#000000;stroke-width:0.8;" x="358.26099" xlink:href="#m798cd0bf41" y="307.584"/>
      </g>
     </g>
     <g id="text_8">
      <!-- 700 -->
      <g transform="translate(348.71724 322.182437)scale(0.1 -0.1)">
       <defs>
        <path d="M 8.203125 72.90625 
L 55.078125 72.90625 
L 55.078125 68.703125 
L 28.609375 0 
L 18.3125 0 
L 43.21875 64.59375 
L 8.203125 64.59375 
z
" id="DejaVuSans-55"/>
       </defs>
       <use xlink:href="#DejaVuSans-55"/>
       <use x="63.623047" xlink:href="#DejaVuSans-48"/>
       <use x="127.246094" xlink:href="#DejaVuSans-48"/>
      </g>
     </g>
    </g>
    <g id="xtick_9">
     <g id="line2d_9">
      <g>
       <use style="stroke:#000000;stroke-width:0.8;" x="398.893599" xlink:href="#m798cd0bf41" y="307.584"/>
      </g>
     </g>
     <g id="text_9">
      <!-- 800 -->
      <g transform="translate(389.349849 322.182437)scale(0.1 -0.1)">
       <defs>
        <path d="M 31.78125 34.625 
Q 24.75 34.625 20.71875 30.859375 
Q 16.703125 27.09375 16.703125 20.515625 
Q 16.703125 13.921875 20.71875 10.15625 
Q 24.75 6.390625 31.78125 6.390625 
Q 38.8125 6.390625 42.859375 10.171875 
Q 46.921875 13.96875 46.921875 20.515625 
Q 46.921875 27.09375 42.890625 30.859375 
Q 38.875 34.625 31.78125 34.625 
z
M 21.921875 38.8125 
Q 15.578125 40.375 12.03125 44.71875 
Q 8.5 49.078125 8.5 55.328125 
Q 8.5 64.0625 14.71875 69.140625 
Q 20.953125 74.21875 31.78125 74.21875 
Q 42.671875 74.21875 48.875 69.140625 
Q 55.078125 64.0625 55.078125 55.328125 
Q 55.078125 49.078125 51.53125 44.71875 
Q 48 40.375 41.703125 38.8125 
Q 48.828125 37.15625 52.796875 32.3125 
Q 56.78125 27.484375 56.78125 20.515625 
Q 56.78125 9.90625 50.3125 4.234375 
Q 43.84375 -1.421875 31.78125 -1.421875 
Q 19.734375 -1.421875 13.25 4.234375 
Q 6.78125 9.90625 6.78125 20.515625 
Q 6.78125 27.484375 10.78125 32.3125 
Q 14.796875 37.15625 21.921875 38.8125 
z
M 18.3125 54.390625 
Q 18.3125 48.734375 21.84375 45.5625 
Q 25.390625 42.390625 31.78125 42.390625 
Q 38.140625 42.390625 41.71875 45.5625 
Q 45.3125 48.734375 45.3125 54.390625 
Q 45.3125 60.0625 41.71875 63.234375 
Q 38.140625 66.40625 31.78125 66.40625 
Q 25.390625 66.40625 21.84375 63.234375 
Q 18.3125 60.0625 18.3125 54.390625 
z
" id="DejaVuSans-56"/>
       </defs>
       <use xlink:href="#DejaVuSans-56"/>
       <use x="63.623047" xlink:href="#DejaVuSans-48"/>
       <use x="127.246094" xlink:href="#DejaVuSans-48"/>
      </g>
     </g>
    </g>
   </g>
   <g id="matplotlib.axis_2">
    <g id="ytick_1">
     <g id="line2d_10">
      <defs>
       <path d="M 0 0 
L -3.5 0 
" id="m4875bdb0c2" style="stroke:#000000;stroke-width:0.8;"/>
      </defs>
      <g>
       <use style="stroke:#000000;stroke-width:0.8;" x="57.6" xlink:href="#m4875bdb0c2" y="295.666774"/>
      </g>
     </g>
     <g id="text_10">
      <!-- 0.00 -->
      <g transform="translate(28.334375 299.465993)scale(0.1 -0.1)">
       <defs>
        <path d="M 10.6875 12.40625 
L 21 12.40625 
L 21 0 
L 10.6875 0 
z
" id="DejaVuSans-46"/>
       </defs>
       <use xlink:href="#DejaVuSans-48"/>
       <use x="63.623047" xlink:href="#DejaVuSans-46"/>
       <use x="95.410156" xlink:href="#DejaVuSans-48"/>
       <use x="159.033203" xlink:href="#DejaVuSans-48"/>
      </g>
     </g>
    </g>
    <g id="ytick_2">
     <g id="line2d_11">
      <g>
       <use style="stroke:#000000;stroke-width:0.8;" x="57.6" xlink:href="#m4875bdb0c2" y="245.819373"/>
      </g>
     </g>
     <g id="text_11">
      <!-- 0.05 -->
      <g transform="translate(28.334375 249.618592)scale(0.1 -0.1)">
       <use xlink:href="#DejaVuSans-48"/>
       <use x="63.623047" xlink:href="#DejaVuSans-46"/>
       <use x="95.410156" xlink:href="#DejaVuSans-48"/>
       <use x="159.033203" xlink:href="#DejaVuSans-53"/>
      </g>
     </g>
    </g>
    <g id="ytick_3">
     <g id="line2d_12">
      <g>
       <use style="stroke:#000000;stroke-width:0.8;" x="57.6" xlink:href="#m4875bdb0c2" y="195.971973"/>
      </g>
     </g>
     <g id="text_12">
      <!-- 0.10 -->
      <g transform="translate(28.334375 199.771191)scale(0.1 -0.1)">
       <use xlink:href="#DejaVuSans-48"/>
       <use x="63.623047" xlink:href="#DejaVuSans-46"/>
       <use x="95.410156" xlink:href="#DejaVuSans-49"/>
       <use x="159.033203" xlink:href="#DejaVuSans-48"/>
      </g>
     </g>
    </g>
    <g id="ytick_4">
     <g id="line2d_13">
      <g>
       <use style="stroke:#000000;stroke-width:0.8;" x="57.6" xlink:href="#m4875bdb0c2" y="146.124572"/>
      </g>
     </g>
     <g id="text_13">
      <!-- 0.15 -->
      <g transform="translate(28.334375 149.92379)scale(0.1 -0.1)">
       <use xlink:href="#DejaVuSans-48"/>
       <use x="63.623047" xlink:href="#DejaVuSans-46"/>
       <use x="95.410156" xlink:href="#DejaVuSans-49"/>
       <use x="159.033203" xlink:href="#DejaVuSans-53"/>
      </g>
     </g>
    </g>
    <g id="ytick_5">
     <g id="line2d_14">
      <g>
       <use style="stroke:#000000;stroke-width:0.8;" x="57.6" xlink:href="#m4875bdb0c2" y="96.277171"/>
      </g>
     </g>
     <g id="text_14">
      <!-- 0.20 -->
      <g transform="translate(28.334375 100.07639)scale(0.1 -0.1)">
       <use xlink:href="#DejaVuSans-48"/>
       <use x="63.623047" xlink:href="#DejaVuSans-46"/>
       <use x="95.410156" xlink:href="#DejaVuSans-50"/>
       <use x="159.033203" xlink:href="#DejaVuSans-48"/>
      </g>
     </g>
    </g>
    <g id="ytick_6">
     <g id="line2d_15">
      <g>
       <use style="stroke:#000000;stroke-width:0.8;" x="57.6" xlink:href="#m4875bdb0c2" y="46.42977"/>
      </g>
     </g>
     <g id="text_15">
      <!-- 0.25 -->
      <g transform="translate(28.334375 50.228989)scale(0.1 -0.1)">
       <use xlink:href="#DejaVuSans-48"/>
       <use x="63.623047" xlink:href="#DejaVuSans-46"/>
       <use x="95.410156" xlink:href="#DejaVuSans-50"/>
       <use x="159.033203" xlink:href="#DejaVuSans-53"/>
      </g>
     </g>
    </g>
   </g>
   <g id="line2d_16">
    <path clip-path="url(#pf4c2813ceb)" d="M 73.832727 53.568 
L 74.645379 168.471762 
L 75.051706 241.306536 
L 75.458032 227.751724 
L 76.270684 270.740342 
L 76.67701 264.641564 
L 77.083336 260.598694 
L 77.489662 266.050977 
L 77.895988 264.598668 
L 78.302314 272.724471 
L 78.70864 271.661443 
L 79.114966 274.387603 
L 79.521293 274.758032 
L 79.927619 277.594073 
L 80.333945 275.14902 
L 80.740271 273.449807 
L 81.146597 272.682737 
L 81.552923 280.323883 
L 81.959249 280.722281 
L 82.365575 282.904953 
L 82.771901 282.942279 
L 83.178227 283.294991 
L 83.584553 283.456031 
L 83.99088 283.773093 
L 84.397206 285.249078 
L 84.803532 284.979669 
L 85.209858 286.024157 
L 86.02251 286.606669 
L 86.428836 287.987402 
L 86.835162 286.842931 
L 87.241488 288.287259 
L 87.647814 286.878881 
L 88.05414 287.517618 
L 88.460466 289.101996 
L 88.866793 288.706626 
L 89.273119 289.570373 
L 89.679445 291.392473 
L 90.085771 291.325037 
L 90.492097 291.144811 
L 90.898423 290.070897 
L 91.711075 290.77133 
L 92.117401 292.067642 
L 92.523727 292.033389 
L 93.33638 291.553852 
L 93.742706 291.84066 
L 94.149032 292.292968 
L 94.961684 291.868599 
L 95.774336 291.084568 
L 96.180662 292.985683 
L 96.993314 292.786673 
L 97.39964 292.848619 
L 98.212293 293.259071 
L 99.024945 292.842063 
L 99.431271 293.166743 
L 100.243923 293.107362 
L 100.650249 292.893849 
L 101.056575 293.347785 
L 101.462901 293.206956 
L 101.869227 293.462649 
L 102.275554 292.866516 
L 103.494532 293.326076 
L 103.900858 293.222301 
L 104.307184 293.338019 
L 104.71351 293.302484 
L 105.119836 292.894571 
L 105.526162 293.497498 
L 105.932488 293.445031 
L 106.338814 293.223157 
L 106.745141 293.61179 
L 107.557793 293.350223 
L 107.964119 293.659845 
L 108.370445 293.33254 
L 109.589423 293.400703 
L 109.995749 293.079455 
L 110.402075 293.509366 
L 110.808401 293.525918 
L 111.214728 293.665769 
L 111.621054 293.312324 
L 112.433706 293.646286 
L 112.840032 293.540185 
L 113.246358 293.288409 
L 113.652684 293.399668 
L 114.05901 293.627133 
L 114.465336 293.581816 
L 114.871662 293.821427 
L 115.277988 293.226218 
L 115.684314 293.495924 
L 116.903293 293.727152 
L 117.309619 293.516272 
L 119.341249 293.44652 
L 119.747575 293.681586 
L 120.153901 293.72627 
L 120.560228 293.479757 
L 120.966554 293.482326 
L 121.37288 293.601056 
L 121.779206 293.845594 
L 122.591858 293.593067 
L 123.40451 293.680687 
L 123.810836 292.87667 
L 124.217162 293.041446 
L 124.623488 293.765182 
L 125.029815 293.833101 
L 125.436141 293.2017 
L 125.842467 293.915656 
L 126.248793 293.794849 
L 126.655119 293.906268 
L 127.061445 293.746513 
L 127.467771 293.918777 
L 127.874097 293.894518 
L 128.280423 294.058225 
L 128.686749 293.80152 
L 129.093075 293.721393 
L 129.905728 294.259847 
L 130.71838 294.010932 
L 131.531032 294.17108 
L 132.343684 293.946074 
L 133.156336 294.312876 
L 133.968989 294.126156 
L 134.375315 294.439358 
L 134.781641 294.254862 
L 135.187967 294.311686 
L 135.594293 294.152644 
L 136.406945 294.315852 
L 136.813271 294.243173 
L 137.219597 294.050437 
L 137.625923 294.07324 
L 138.032249 294.369492 
L 138.438575 294.30681 
L 139.251228 294.531491 
L 140.06388 294.368599 
L 140.470206 294.477056 
L 140.876532 294.347012 
L 141.282858 294.563592 
L 141.689184 294.365246 
L 142.09551 294.486136 
L 142.501836 294.358508 
L 143.314489 294.576475 
L 144.127141 294.421533 
L 144.533467 293.97187 
L 144.939793 294.500423 
L 145.346119 294.337371 
L 145.752445 294.569935 
L 146.565097 294.633947 
L 146.971423 294.386591 
L 147.377749 294.56929 
L 147.784076 294.610702 
L 148.190402 294.419857 
L 149.003054 294.495607 
L 149.40938 293.670947 
L 149.815706 294.209262 
L 150.222032 293.923784 
L 150.628358 294.521683 
L 151.034684 294.620137 
L 151.44101 294.404335 
L 151.847336 294.524015 
L 152.253663 294.450676 
L 152.659989 294.611509 
L 153.066315 294.638288 
L 153.878967 294.435085 
L 154.285293 294.494095 
L 154.691619 294.422844 
L 155.504271 294.723382 
L 155.910597 294.463173 
L 156.72325 294.605656 
L 157.535902 294.571387 
L 157.942228 294.636083 
L 158.348554 294.298234 
L 158.75488 294.674557 
L 159.161206 294.419644 
L 159.567532 294.682442 
L 159.973858 294.401505 
L 160.380184 294.490827 
L 160.78651 294.415595 
L 161.192837 294.511803 
L 162.005489 294.438397 
L 162.411815 294.603946 
L 162.818141 293.739003 
L 163.224467 294.335415 
L 163.630793 294.670318 
L 164.849771 294.756736 
L 165.256097 294.493756 
L 165.662423 294.609755 
L 166.475076 294.387928 
L 166.881402 294.6086 
L 167.287728 293.931562 
L 167.694054 294.630951 
L 168.10038 294.706132 
L 168.913032 294.581157 
L 170.538337 294.653409 
L 170.944663 294.24086 
L 171.350989 294.663245 
L 171.757315 294.522872 
L 172.163641 294.674198 
L 172.976293 294.703844 
L 173.382619 294.717824 
L 173.788945 294.598687 
L 174.195271 294.652997 
L 174.601597 294.586982 
L 175.007924 294.800047 
L 175.41425 294.556292 
L 175.820576 294.620868 
L 176.226902 294.818338 
L 176.633228 294.655207 
L 177.44588 294.74701 
L 177.852206 294.549916 
L 178.258532 294.735912 
L 178.664858 294.763784 
L 179.071184 294.268718 
L 179.477511 294.746926 
L 180.696489 294.573297 
L 181.102815 294.774436 
L 181.915467 294.717858 
L 182.321793 294.845728 
L 182.728119 294.437566 
L 183.134445 294.921191 
L 183.540771 294.766709 
L 184.353424 294.938555 
L 185.166076 293.467639 
L 185.572402 292.040334 
L 185.978728 294.649779 
L 186.385054 293.277065 
L 186.79138 294.118365 
L 187.197706 294.351783 
L 188.010358 293.727321 
L 188.416684 294.329783 
L 188.823011 294.567144 
L 189.229337 294.221459 
L 189.635663 294.378679 
L 190.448315 293.977633 
L 190.854641 294.624915 
L 191.260967 294.369144 
L 191.667293 294.626521 
L 192.479945 294.667728 
L 193.292598 294.441945 
L 193.698924 294.626428 
L 194.917902 294.538539 
L 195.324228 294.645412 
L 195.730554 294.485106 
L 196.543206 294.756799 
L 196.949532 294.649434 
L 197.355858 294.708828 
L 197.762185 294.518202 
L 198.574837 294.765457 
L 200.200141 294.751317 
L 200.606467 294.876074 
L 201.012793 294.694625 
L 203.857076 294.933605 
L 204.263402 294.807124 
L 205.076054 294.915177 
L 205.48238 294.249741 
L 205.888706 294.866931 
L 206.701359 294.978411 
L 207.107685 294.724902 
L 207.514011 294.955668 
L 207.920337 295.02461 
L 208.326663 294.8287 
L 209.139315 295.007783 
L 214.82788 294.996106 
L 215.640532 295.066198 
L 217.265837 294.998534 
L 217.672163 295.096118 
L 218.484815 295.028272 
L 221.329098 295.044322 
L 222.14175 294.863526 
L 222.548076 295.073816 
L 222.954402 295.041284 
L 223.360728 295.137921 
L 223.767054 295.019007 
L 224.17338 295.091182 
L 224.579706 295.018621 
L 224.986033 295.135603 
L 225.798685 295.066716 
L 226.611337 295.198303 
L 227.423989 295.069345 
L 227.830315 295.102861 
L 228.236641 294.992098 
L 229.861946 295.095502 
L 230.674598 295.02883 
L 231.080924 295.162351 
L 231.893576 295.059544 
L 232.299902 294.907446 
L 232.706228 295.025262 
L 233.51888 295.100612 
L 234.331533 295.165593 
L 234.737859 295.133932 
L 235.144185 294.89308 
L 236.363163 295.072171 
L 237.175815 295.010616 
L 237.988467 295.114563 
L 238.394793 294.825839 
L 238.80112 295.151708 
L 239.207446 294.63739 
L 239.613772 295.09469 
L 240.020098 294.929097 
L 240.83275 295.008599 
L 242.051728 295.098976 
L 242.86438 295.074039 
L 243.677033 295.094191 
L 246.521315 295.111419 
L 246.927641 294.874973 
L 247.333967 295.17956 
L 248.552946 295.085898 
L 248.959272 295.040756 
L 249.365598 295.156731 
L 250.17825 295.088761 
L 250.584576 295.214234 
L 251.803554 295.168334 
L 252.209881 295.04076 
L 252.616207 294.645014 
L 253.835185 295.138819 
L 254.241511 294.993536 
L 255.460489 295.065744 
L 255.866815 294.960984 
L 256.273141 295.103464 
L 256.679468 295.045072 
L 257.085794 295.13807 
L 257.49212 294.969599 
L 257.898446 295.094808 
L 258.304772 294.990612 
L 258.711098 295.087444 
L 259.930076 295.095967 
L 260.336402 295.157946 
L 260.742728 294.783975 
L 261.149054 295.109207 
L 261.555381 294.905075 
L 261.961707 295.180331 
L 262.774359 295.088157 
L 263.587011 295.198423 
L 264.805989 294.947136 
L 265.212315 295.186932 
L 266.024968 295.124196 
L 266.83762 295.208626 
L 267.243946 295.187022 
L 267.650272 294.98485 
L 268.462924 295.219475 
L 268.86925 294.720452 
L 269.275576 295.085242 
L 272.526185 295.20991 
L 273.745163 295.147982 
L 274.151489 294.927197 
L 274.557815 295.117333 
L 276.589446 295.062967 
L 276.995772 295.217789 
L 277.808424 295.075668 
L 278.21475 295.244536 
L 279.027402 295.084567 
L 279.433729 295.182349 
L 279.840055 295.060994 
L 280.246381 295.199838 
L 281.465359 295.257072 
L 281.871685 295.295758 
L 282.278011 295.063832 
L 282.684337 295.265669 
L 283.496989 295.215385 
L 283.903316 295.268392 
L 284.309642 295.181605 
L 285.122294 295.281689 
L 285.52862 295.191544 
L 285.934946 295.355461 
L 286.341272 295.137058 
L 287.153924 295.273754 
L 287.966576 295.267903 
L 289.185555 295.282962 
L 289.591881 294.832062 
L 289.998207 295.357052 
L 290.810859 295.22743 
L 291.623511 295.332933 
L 293.248816 295.315529 
L 294.467794 295.340835 
L 294.87412 295.191565 
L 295.280446 294.869342 
L 295.686772 295.231124 
L 296.499424 294.768236 
L 297.312076 295.220011 
L 297.718403 295.213522 
L 298.124729 295.070948 
L 298.937381 295.270454 
L 299.343707 295.140742 
L 300.156359 295.270129 
L 300.562685 295.211804 
L 300.969011 295.036672 
L 301.375337 295.233822 
L 303.000642 295.232007 
L 303.406968 295.330712 
L 303.813294 295.184113 
L 304.625946 295.305769 
L 305.438598 295.281963 
L 307.063903 295.263415 
L 307.470229 295.305511 
L 307.876555 295.217657 
L 309.501859 295.272759 
L 313.158794 295.379666 
L 314.784098 295.32522 
L 315.59675 295.355583 
L 318.034707 295.348175 
L 319.660011 295.430713 
L 320.472664 295.356892 
L 321.691642 295.426737 
L 322.504294 295.385739 
L 322.91062 295.430755 
L 323.316946 295.349268 
L 324.129598 295.354407 
L 326.161229 295.411265 
L 326.973881 295.358143 
L 327.786533 295.381054 
L 329.005511 295.338978 
L 330.630816 295.436654 
L 331.443468 295.397933 
L 331.849794 295.464344 
L 332.662446 295.396101 
L 334.694077 295.413748 
L 341.195294 295.402326 
L 342.414272 295.40647 
L 342.820598 295.252959 
L 343.226925 295.376837 
L 346.883859 295.408222 
L 347.696512 295.405993 
L 349.321816 295.437699 
L 350.540794 295.390276 
L 350.94712 295.442571 
L 351.353446 295.359573 
L 351.759772 295.442752 
L 353.791403 295.35566 
L 354.604055 295.375446 
L 355.010381 294.922685 
L 355.416707 295.423188 
L 357.042012 295.409106 
L 357.448338 295.311551 
L 357.854664 295.442408 
L 359.479968 295.392026 
L 360.698946 295.468974 
L 361.511599 295.414614 
L 362.730577 295.417859 
L 368.419142 295.431763 
L 369.231794 295.465901 
L 370.857099 295.261317 
L 371.263425 295.45319 
L 372.076077 295.383725 
L 373.701381 295.366241 
L 374.514033 295.351489 
L 375.326686 295.434096 
L 376.545664 295.450926 
L 381.827903 295.442551 
L 382.640555 295.178936 
L 383.046881 295.42699 
L 383.453207 295.209385 
L 383.859534 295.410623 
L 384.672186 295.410037 
L 385.891164 295.423664 
L 386.29749 295.372628 
L 386.703816 295.458449 
L 387.516468 295.423232 
L 393.61136 295.473653 
L 394.017686 294.84218 
L 394.424012 295.453431 
L 396.455642 295.437077 
L 396.861968 295.353407 
L 398.080947 295.465417 
L 398.487273 295.474287 
L 398.487273 295.474287 
" style="fill:none;stroke:#1f77b4;stroke-linecap:square;stroke-width:1.5;"/>
   </g>
   <g id="patch_3">
    <path d="M 57.6 307.584 
L 57.6 41.472 
" style="fill:none;stroke:#000000;stroke-linecap:square;stroke-linejoin:miter;stroke-width:0.8;"/>
   </g>
   <g id="patch_4">
    <path d="M 414.72 307.584 
L 414.72 41.472 
" style="fill:none;stroke:#000000;stroke-linecap:square;stroke-linejoin:miter;stroke-width:0.8;"/>
   </g>
   <g id="patch_5">
    <path d="M 57.6 307.584 
L 414.72 307.584 
" style="fill:none;stroke:#000000;stroke-linecap:square;stroke-linejoin:miter;stroke-width:0.8;"/>
   </g>
   <g id="patch_6">
    <path d="M 57.6 41.472 
L 414.72 41.472 
" style="fill:none;stroke:#000000;stroke-linecap:square;stroke-linejoin:miter;stroke-width:0.8;"/>
   </g>
  </g>
 </g>
 <defs>
  <clipPath id="pf4c2813ceb">
   <rect height="266.112" width="357.12" x="57.6" y="41.472"/>
  </clipPath>
 </defs>
</svg>
