<?xml version="1.0" encoding="utf-8" standalone="no"?>
<!DOCTYPE svg PUBLIC "-//W3C//DTD SVG 1.1//EN"
  "http://www.w3.org/Graphics/SVG/1.1/DTD/svg11.dtd">
<!-- Created with matplotlib (https://matplotlib.org/) -->
<svg height="345.6pt" version="1.1" viewBox="0 0 460.8 345.6" width="460.8pt" xmlns="http://www.w3.org/2000/svg" xmlns:xlink="http://www.w3.org/1999/xlink">
 <defs>
  <style type="text/css">
*{stroke-linecap:butt;stroke-linejoin:round;}
  </style>
 </defs>
 <g id="figure_1">
  <g id="patch_1">
   <path d="M 0 345.6 
L 460.8 345.6 
L 460.8 0 
L 0 0 
z
" style="fill:#ffffff;"/>
  </g>
  <g id="axes_1">
   <g id="patch_2">
    <path d="M 50.6 304.36 
L 403.8775 304.36 
L 403.8775 10.8 
L 50.6 10.8 
z
" style="fill:#ffffff;"/>
   </g>
   <g id="matplotlib.axis_1">
    <g id="xtick_1">
     <g id="line2d_1">
      <defs>
       <path d="M 0 0 
L 0 3.5 
" id="m7241dbc553" style="stroke:#000000;stroke-width:0.8;"/>
      </defs>
      <g>
       <use style="stroke:#000000;stroke-width:0.8;" x="66.658068" xlink:href="#m7241dbc553" y="304.36"/>
      </g>
     </g>
     <g id="text_1">
      <!-- 0 -->
      <defs>
       <path d="M 31.78125 66.40625 
Q 24.171875 66.40625 20.328125 58.90625 
Q 16.5 51.421875 16.5 36.375 
Q 16.5 21.390625 20.328125 13.890625 
Q 24.171875 6.390625 31.78125 6.390625 
Q 39.453125 6.390625 43.28125 13.890625 
Q 47.125 21.390625 47.125 36.375 
Q 47.125 51.421875 43.28125 58.90625 
Q 39.453125 66.40625 31.78125 66.40625 
z
M 31.78125 74.21875 
Q 44.046875 74.21875 50.515625 64.515625 
Q 56.984375 54.828125 56.984375 36.375 
Q 56.984375 17.96875 50.515625 8.265625 
Q 44.046875 -1.421875 31.78125 -1.421875 
Q 19.53125 -1.421875 13.0625 8.265625 
Q 6.59375 17.96875 6.59375 36.375 
Q 6.59375 54.828125 13.0625 64.515625 
Q 19.53125 74.21875 31.78125 74.21875 
z
" id="DejaVuSans-48"/>
      </defs>
      <g transform="translate(63.476818 318.958437)scale(0.1 -0.1)">
       <use xlink:href="#DejaVuSans-48"/>
      </g>
     </g>
    </g>
    <g id="xtick_2">
     <g id="line2d_2">
      <g>
       <use style="stroke:#000000;stroke-width:0.8;" x="120.363982" xlink:href="#m7241dbc553" y="304.36"/>
      </g>
     </g>
     <g id="text_2">
      <!-- 50 -->
      <defs>
       <path d="M 10.796875 72.90625 
L 49.515625 72.90625 
L 49.515625 64.59375 
L 19.828125 64.59375 
L 19.828125 46.734375 
Q 21.96875 47.46875 24.109375 47.828125 
Q 26.265625 48.1875 28.421875 48.1875 
Q 40.625 48.1875 47.75 41.5 
Q 54.890625 34.8125 54.890625 23.390625 
Q 54.890625 11.625 47.5625 5.09375 
Q 40.234375 -1.421875 26.90625 -1.421875 
Q 22.3125 -1.421875 17.546875 -0.640625 
Q 12.796875 0.140625 7.71875 1.703125 
L 7.71875 11.625 
Q 12.109375 9.234375 16.796875 8.0625 
Q 21.484375 6.890625 26.703125 6.890625 
Q 35.15625 6.890625 40.078125 11.328125 
Q 45.015625 15.765625 45.015625 23.390625 
Q 45.015625 31 40.078125 35.4375 
Q 35.15625 39.890625 26.703125 39.890625 
Q 22.75 39.890625 18.8125 39.015625 
Q 14.890625 38.140625 10.796875 36.28125 
z
" id="DejaVuSans-53"/>
      </defs>
      <g transform="translate(114.001482 318.958437)scale(0.1 -0.1)">
       <use xlink:href="#DejaVuSans-53"/>
       <use x="63.623047" xlink:href="#DejaVuSans-48"/>
      </g>
     </g>
    </g>
    <g id="xtick_3">
     <g id="line2d_3">
      <g>
       <use style="stroke:#000000;stroke-width:0.8;" x="174.069895" xlink:href="#m7241dbc553" y="304.36"/>
      </g>
     </g>
     <g id="text_3">
      <!-- 100 -->
      <defs>
       <path d="M 12.40625 8.296875 
L 28.515625 8.296875 
L 28.515625 63.921875 
L 10.984375 60.40625 
L 10.984375 69.390625 
L 28.421875 72.90625 
L 38.28125 72.90625 
L 38.28125 8.296875 
L 54.390625 8.296875 
L 54.390625 0 
L 12.40625 0 
z
" id="DejaVuSans-49"/>
      </defs>
      <g transform="translate(164.526145 318.958437)scale(0.1 -0.1)">
       <use xlink:href="#DejaVuSans-49"/>
       <use x="63.623047" xlink:href="#DejaVuSans-48"/>
       <use x="127.246094" xlink:href="#DejaVuSans-48"/>
      </g>
     </g>
    </g>
    <g id="xtick_4">
     <g id="line2d_4">
      <g>
       <use style="stroke:#000000;stroke-width:0.8;" x="227.775809" xlink:href="#m7241dbc553" y="304.36"/>
      </g>
     </g>
     <g id="text_4">
      <!-- 150 -->
      <g transform="translate(218.232059 318.958437)scale(0.1 -0.1)">
       <use xlink:href="#DejaVuSans-49"/>
       <use x="63.623047" xlink:href="#DejaVuSans-53"/>
       <use x="127.246094" xlink:href="#DejaVuSans-48"/>
      </g>
     </g>
    </g>
    <g id="xtick_5">
     <g id="line2d_5">
      <g>
       <use style="stroke:#000000;stroke-width:0.8;" x="281.481723" xlink:href="#m7241dbc553" y="304.36"/>
      </g>
     </g>
     <g id="text_5">
      <!-- 200 -->
      <defs>
       <path d="M 19.1875 8.296875 
L 53.609375 8.296875 
L 53.609375 0 
L 7.328125 0 
L 7.328125 8.296875 
Q 12.9375 14.109375 22.625 23.890625 
Q 32.328125 33.6875 34.8125 36.53125 
Q 39.546875 41.84375 41.421875 45.53125 
Q 43.3125 49.21875 43.3125 52.78125 
Q 43.3125 58.59375 39.234375 62.25 
Q 35.15625 65.921875 28.609375 65.921875 
Q 23.96875 65.921875 18.8125 64.3125 
Q 13.671875 62.703125 7.8125 59.421875 
L 7.8125 69.390625 
Q 13.765625 71.78125 18.9375 73 
Q 24.125 74.21875 28.421875 74.21875 
Q 39.75 74.21875 46.484375 68.546875 
Q 53.21875 62.890625 53.21875 53.421875 
Q 53.21875 48.921875 51.53125 44.890625 
Q 49.859375 40.875 45.40625 35.40625 
Q 44.1875 33.984375 37.640625 27.21875 
Q 31.109375 20.453125 19.1875 8.296875 
z
" id="DejaVuSans-50"/>
      </defs>
      <g transform="translate(271.937973 318.958437)scale(0.1 -0.1)">
       <use xlink:href="#DejaVuSans-50"/>
       <use x="63.623047" xlink:href="#DejaVuSans-48"/>
       <use x="127.246094" xlink:href="#DejaVuSans-48"/>
      </g>
     </g>
    </g>
    <g id="xtick_6">
     <g id="line2d_6">
      <g>
       <use style="stroke:#000000;stroke-width:0.8;" x="335.187636" xlink:href="#m7241dbc553" y="304.36"/>
      </g>
     </g>
     <g id="text_6">
      <!-- 250 -->
      <g transform="translate(325.643886 318.958437)scale(0.1 -0.1)">
       <use xlink:href="#DejaVuSans-50"/>
       <use x="63.623047" xlink:href="#DejaVuSans-53"/>
       <use x="127.246094" xlink:href="#DejaVuSans-48"/>
      </g>
     </g>
    </g>
    <g id="xtick_7">
     <g id="line2d_7">
      <g>
       <use style="stroke:#000000;stroke-width:0.8;" x="388.89355" xlink:href="#m7241dbc553" y="304.36"/>
      </g>
     </g>
     <g id="text_7">
      <!-- 300 -->
      <defs>
       <path d="M 40.578125 39.3125 
Q 47.65625 37.796875 51.625 33 
Q 55.609375 28.21875 55.609375 21.1875 
Q 55.609375 10.40625 48.1875 4.484375 
Q 40.765625 -1.421875 27.09375 -1.421875 
Q 22.515625 -1.421875 17.65625 -0.515625 
Q 12.796875 0.390625 7.625 2.203125 
L 7.625 11.71875 
Q 11.71875 9.328125 16.59375 8.109375 
Q 21.484375 6.890625 26.8125 6.890625 
Q 36.078125 6.890625 40.9375 10.546875 
Q 45.796875 14.203125 45.796875 21.1875 
Q 45.796875 27.640625 41.28125 31.265625 
Q 36.765625 34.90625 28.71875 34.90625 
L 20.21875 34.90625 
L 20.21875 43.015625 
L 29.109375 43.015625 
Q 36.375 43.015625 40.234375 45.921875 
Q 44.09375 48.828125 44.09375 54.296875 
Q 44.09375 59.90625 40.109375 62.90625 
Q 36.140625 65.921875 28.71875 65.921875 
Q 24.65625 65.921875 20.015625 65.03125 
Q 15.375 64.15625 9.8125 62.3125 
L 9.8125 71.09375 
Q 15.4375 72.65625 20.34375 73.4375 
Q 25.25 74.21875 29.59375 74.21875 
Q 40.828125 74.21875 47.359375 69.109375 
Q 53.90625 64.015625 53.90625 55.328125 
Q 53.90625 49.265625 50.4375 45.09375 
Q 46.96875 40.921875 40.578125 39.3125 
z
" id="DejaVuSans-51"/>
      </defs>
      <g transform="translate(379.3498 318.958437)scale(0.1 -0.1)">
       <use xlink:href="#DejaVuSans-51"/>
       <use x="63.623047" xlink:href="#DejaVuSans-48"/>
       <use x="127.246094" xlink:href="#DejaVuSans-48"/>
      </g>
     </g>
    </g>
    <g id="text_8">
     <!-- Average of Per 7500.0 Episode -->
     <defs>
      <path d="M 34.1875 63.1875 
L 20.796875 26.90625 
L 47.609375 26.90625 
z
M 28.609375 72.90625 
L 39.796875 72.90625 
L 67.578125 0 
L 57.328125 0 
L 50.6875 18.703125 
L 17.828125 18.703125 
L 11.1875 0 
L 0.78125 0 
z
" id="DejaVuSans-65"/>
      <path d="M 2.984375 54.6875 
L 12.5 54.6875 
L 29.59375 8.796875 
L 46.6875 54.6875 
L 56.203125 54.6875 
L 35.6875 0 
L 23.484375 0 
z
" id="DejaVuSans-118"/>
      <path d="M 56.203125 29.59375 
L 56.203125 25.203125 
L 14.890625 25.203125 
Q 15.484375 15.921875 20.484375 11.0625 
Q 25.484375 6.203125 34.421875 6.203125 
Q 39.59375 6.203125 44.453125 7.46875 
Q 49.3125 8.734375 54.109375 11.28125 
L 54.109375 2.78125 
Q 49.265625 0.734375 44.1875 -0.34375 
Q 39.109375 -1.421875 33.890625 -1.421875 
Q 20.796875 -1.421875 13.15625 6.1875 
Q 5.515625 13.8125 5.515625 26.8125 
Q 5.515625 40.234375 12.765625 48.109375 
Q 20.015625 56 32.328125 56 
Q 43.359375 56 49.78125 48.890625 
Q 56.203125 41.796875 56.203125 29.59375 
z
M 47.21875 32.234375 
Q 47.125 39.59375 43.09375 43.984375 
Q 39.0625 48.390625 32.421875 48.390625 
Q 24.90625 48.390625 20.390625 44.140625 
Q 15.875 39.890625 15.1875 32.171875 
z
" id="DejaVuSans-101"/>
      <path d="M 41.109375 46.296875 
Q 39.59375 47.171875 37.8125 47.578125 
Q 36.03125 48 33.890625 48 
Q 26.265625 48 22.1875 43.046875 
Q 18.109375 38.09375 18.109375 28.8125 
L 18.109375 0 
L 9.078125 0 
L 9.078125 54.6875 
L 18.109375 54.6875 
L 18.109375 46.1875 
Q 20.953125 51.171875 25.484375 53.578125 
Q 30.03125 56 36.53125 56 
Q 37.453125 56 38.578125 55.875 
Q 39.703125 55.765625 41.0625 55.515625 
z
" id="DejaVuSans-114"/>
      <path d="M 34.28125 27.484375 
Q 23.390625 27.484375 19.1875 25 
Q 14.984375 22.515625 14.984375 16.5 
Q 14.984375 11.71875 18.140625 8.90625 
Q 21.296875 6.109375 26.703125 6.109375 
Q 34.1875 6.109375 38.703125 11.40625 
Q 43.21875 16.703125 43.21875 25.484375 
L 43.21875 27.484375 
z
M 52.203125 31.203125 
L 52.203125 0 
L 43.21875 0 
L 43.21875 8.296875 
Q 40.140625 3.328125 35.546875 0.953125 
Q 30.953125 -1.421875 24.3125 -1.421875 
Q 15.921875 -1.421875 10.953125 3.296875 
Q 6 8.015625 6 15.921875 
Q 6 25.140625 12.171875 29.828125 
Q 18.359375 34.515625 30.609375 34.515625 
L 43.21875 34.515625 
L 43.21875 35.40625 
Q 43.21875 41.609375 39.140625 45 
Q 35.0625 48.390625 27.6875 48.390625 
Q 23 48.390625 18.546875 47.265625 
Q 14.109375 46.140625 10.015625 43.890625 
L 10.015625 52.203125 
Q 14.9375 54.109375 19.578125 55.046875 
Q 24.21875 56 28.609375 56 
Q 40.484375 56 46.34375 49.84375 
Q 52.203125 43.703125 52.203125 31.203125 
z
" id="DejaVuSans-97"/>
      <path d="M 45.40625 27.984375 
Q 45.40625 37.75 41.375 43.109375 
Q 37.359375 48.484375 30.078125 48.484375 
Q 22.859375 48.484375 18.828125 43.109375 
Q 14.796875 37.75 14.796875 27.984375 
Q 14.796875 18.265625 18.828125 12.890625 
Q 22.859375 7.515625 30.078125 7.515625 
Q 37.359375 7.515625 41.375 12.890625 
Q 45.40625 18.265625 45.40625 27.984375 
z
M 54.390625 6.78125 
Q 54.390625 -7.171875 48.1875 -13.984375 
Q 42 -20.796875 29.203125 -20.796875 
Q 24.46875 -20.796875 20.265625 -20.09375 
Q 16.0625 -19.390625 12.109375 -17.921875 
L 12.109375 -9.1875 
Q 16.0625 -11.328125 19.921875 -12.34375 
Q 23.78125 -13.375 27.78125 -13.375 
Q 36.625 -13.375 41.015625 -8.765625 
Q 45.40625 -4.15625 45.40625 5.171875 
L 45.40625 9.625 
Q 42.625 4.78125 38.28125 2.390625 
Q 33.9375 0 27.875 0 
Q 17.828125 0 11.671875 7.65625 
Q 5.515625 15.328125 5.515625 27.984375 
Q 5.515625 40.671875 11.671875 48.328125 
Q 17.828125 56 27.875 56 
Q 33.9375 56 38.28125 53.609375 
Q 42.625 51.21875 45.40625 46.390625 
L 45.40625 54.6875 
L 54.390625 54.6875 
z
" id="DejaVuSans-103"/>
      <path id="DejaVuSans-32"/>
      <path d="M 30.609375 48.390625 
Q 23.390625 48.390625 19.1875 42.75 
Q 14.984375 37.109375 14.984375 27.296875 
Q 14.984375 17.484375 19.15625 11.84375 
Q 23.34375 6.203125 30.609375 6.203125 
Q 37.796875 6.203125 41.984375 11.859375 
Q 46.1875 17.53125 46.1875 27.296875 
Q 46.1875 37.015625 41.984375 42.703125 
Q 37.796875 48.390625 30.609375 48.390625 
z
M 30.609375 56 
Q 42.328125 56 49.015625 48.375 
Q 55.71875 40.765625 55.71875 27.296875 
Q 55.71875 13.875 49.015625 6.21875 
Q 42.328125 -1.421875 30.609375 -1.421875 
Q 18.84375 -1.421875 12.171875 6.21875 
Q 5.515625 13.875 5.515625 27.296875 
Q 5.515625 40.765625 12.171875 48.375 
Q 18.84375 56 30.609375 56 
z
" id="DejaVuSans-111"/>
      <path d="M 37.109375 75.984375 
L 37.109375 68.5 
L 28.515625 68.5 
Q 23.6875 68.5 21.796875 66.546875 
Q 19.921875 64.59375 19.921875 59.515625 
L 19.921875 54.6875 
L 34.71875 54.6875 
L 34.71875 47.703125 
L 19.921875 47.703125 
L 19.921875 0 
L 10.890625 0 
L 10.890625 47.703125 
L 2.296875 47.703125 
L 2.296875 54.6875 
L 10.890625 54.6875 
L 10.890625 58.5 
Q 10.890625 67.625 15.140625 71.796875 
Q 19.390625 75.984375 28.609375 75.984375 
z
" id="DejaVuSans-102"/>
      <path d="M 19.671875 64.796875 
L 19.671875 37.40625 
L 32.078125 37.40625 
Q 38.96875 37.40625 42.71875 40.96875 
Q 46.484375 44.53125 46.484375 51.125 
Q 46.484375 57.671875 42.71875 61.234375 
Q 38.96875 64.796875 32.078125 64.796875 
z
M 9.8125 72.90625 
L 32.078125 72.90625 
Q 44.34375 72.90625 50.609375 67.359375 
Q 56.890625 61.8125 56.890625 51.125 
Q 56.890625 40.328125 50.609375 34.8125 
Q 44.34375 29.296875 32.078125 29.296875 
L 19.671875 29.296875 
L 19.671875 0 
L 9.8125 0 
z
" id="DejaVuSans-80"/>
      <path d="M 8.203125 72.90625 
L 55.078125 72.90625 
L 55.078125 68.703125 
L 28.609375 0 
L 18.3125 0 
L 43.21875 64.59375 
L 8.203125 64.59375 
z
" id="DejaVuSans-55"/>
      <path d="M 10.6875 12.40625 
L 21 12.40625 
L 21 0 
L 10.6875 0 
z
" id="DejaVuSans-46"/>
      <path d="M 9.8125 72.90625 
L 55.90625 72.90625 
L 55.90625 64.59375 
L 19.671875 64.59375 
L 19.671875 43.015625 
L 54.390625 43.015625 
L 54.390625 34.71875 
L 19.671875 34.71875 
L 19.671875 8.296875 
L 56.78125 8.296875 
L 56.78125 0 
L 9.8125 0 
z
" id="DejaVuSans-69"/>
      <path d="M 18.109375 8.203125 
L 18.109375 -20.796875 
L 9.078125 -20.796875 
L 9.078125 54.6875 
L 18.109375 54.6875 
L 18.109375 46.390625 
Q 20.953125 51.265625 25.265625 53.625 
Q 29.59375 56 35.59375 56 
Q 45.5625 56 51.78125 48.09375 
Q 58.015625 40.1875 58.015625 27.296875 
Q 58.015625 14.40625 51.78125 6.484375 
Q 45.5625 -1.421875 35.59375 -1.421875 
Q 29.59375 -1.421875 25.265625 0.953125 
Q 20.953125 3.328125 18.109375 8.203125 
z
M 48.6875 27.296875 
Q 48.6875 37.203125 44.609375 42.84375 
Q 40.53125 48.484375 33.40625 48.484375 
Q 26.265625 48.484375 22.1875 42.84375 
Q 18.109375 37.203125 18.109375 27.296875 
Q 18.109375 17.390625 22.1875 11.75 
Q 26.265625 6.109375 33.40625 6.109375 
Q 40.53125 6.109375 44.609375 11.75 
Q 48.6875 17.390625 48.6875 27.296875 
z
" id="DejaVuSans-112"/>
      <path d="M 9.421875 54.6875 
L 18.40625 54.6875 
L 18.40625 0 
L 9.421875 0 
z
M 9.421875 75.984375 
L 18.40625 75.984375 
L 18.40625 64.59375 
L 9.421875 64.59375 
z
" id="DejaVuSans-105"/>
      <path d="M 44.28125 53.078125 
L 44.28125 44.578125 
Q 40.484375 46.53125 36.375 47.5 
Q 32.28125 48.484375 27.875 48.484375 
Q 21.1875 48.484375 17.84375 46.4375 
Q 14.5 44.390625 14.5 40.28125 
Q 14.5 37.15625 16.890625 35.375 
Q 19.28125 33.59375 26.515625 31.984375 
L 29.59375 31.296875 
Q 39.15625 29.25 43.1875 25.515625 
Q 47.21875 21.78125 47.21875 15.09375 
Q 47.21875 7.46875 41.1875 3.015625 
Q 35.15625 -1.421875 24.609375 -1.421875 
Q 20.21875 -1.421875 15.453125 -0.5625 
Q 10.6875 0.296875 5.421875 2 
L 5.421875 11.28125 
Q 10.40625 8.6875 15.234375 7.390625 
Q 20.0625 6.109375 24.8125 6.109375 
Q 31.15625 6.109375 34.5625 8.28125 
Q 37.984375 10.453125 37.984375 14.40625 
Q 37.984375 18.0625 35.515625 20.015625 
Q 33.0625 21.96875 24.703125 23.78125 
L 21.578125 24.515625 
Q 13.234375 26.265625 9.515625 29.90625 
Q 5.8125 33.546875 5.8125 39.890625 
Q 5.8125 47.609375 11.28125 51.796875 
Q 16.75 56 26.8125 56 
Q 31.78125 56 36.171875 55.265625 
Q 40.578125 54.546875 44.28125 53.078125 
z
" id="DejaVuSans-115"/>
      <path d="M 45.40625 46.390625 
L 45.40625 75.984375 
L 54.390625 75.984375 
L 54.390625 0 
L 45.40625 0 
L 45.40625 8.203125 
Q 42.578125 3.328125 38.25 0.953125 
Q 33.9375 -1.421875 27.875 -1.421875 
Q 17.96875 -1.421875 11.734375 6.484375 
Q 5.515625 14.40625 5.515625 27.296875 
Q 5.515625 40.1875 11.734375 48.09375 
Q 17.96875 56 27.875 56 
Q 33.9375 56 38.25 53.625 
Q 42.578125 51.265625 45.40625 46.390625 
z
M 14.796875 27.296875 
Q 14.796875 17.390625 18.875 11.75 
Q 22.953125 6.109375 30.078125 6.109375 
Q 37.203125 6.109375 41.296875 11.75 
Q 45.40625 17.390625 45.40625 27.296875 
Q 45.40625 37.203125 41.296875 42.84375 
Q 37.203125 48.484375 30.078125 48.484375 
Q 22.953125 48.484375 18.875 42.84375 
Q 14.796875 37.203125 14.796875 27.296875 
z
" id="DejaVuSans-100"/>
     </defs>
     <g transform="translate(150.431719 332.636562)scale(0.1 -0.1)">
      <use xlink:href="#DejaVuSans-65"/>
      <use x="62.533203" xlink:href="#DejaVuSans-118"/>
      <use x="121.712891" xlink:href="#DejaVuSans-101"/>
      <use x="183.236328" xlink:href="#DejaVuSans-114"/>
      <use x="224.349609" xlink:href="#DejaVuSans-97"/>
      <use x="285.628906" xlink:href="#DejaVuSans-103"/>
      <use x="349.105469" xlink:href="#DejaVuSans-101"/>
      <use x="410.628906" xlink:href="#DejaVuSans-32"/>
      <use x="442.416016" xlink:href="#DejaVuSans-111"/>
      <use x="503.597656" xlink:href="#DejaVuSans-102"/>
      <use x="538.802734" xlink:href="#DejaVuSans-32"/>
      <use x="570.589844" xlink:href="#DejaVuSans-80"/>
      <use x="627.267578" xlink:href="#DejaVuSans-101"/>
      <use x="688.791016" xlink:href="#DejaVuSans-114"/>
      <use x="729.904297" xlink:href="#DejaVuSans-32"/>
      <use x="761.691406" xlink:href="#DejaVuSans-55"/>
      <use x="825.314453" xlink:href="#DejaVuSans-53"/>
      <use x="888.9375" xlink:href="#DejaVuSans-48"/>
      <use x="952.560547" xlink:href="#DejaVuSans-48"/>
      <use x="1016.183594" xlink:href="#DejaVuSans-46"/>
      <use x="1047.970703" xlink:href="#DejaVuSans-48"/>
      <use x="1111.59375" xlink:href="#DejaVuSans-32"/>
      <use x="1143.380859" xlink:href="#DejaVuSans-69"/>
      <use x="1206.564453" xlink:href="#DejaVuSans-112"/>
      <use x="1270.041016" xlink:href="#DejaVuSans-105"/>
      <use x="1297.824219" xlink:href="#DejaVuSans-115"/>
      <use x="1349.923828" xlink:href="#DejaVuSans-111"/>
      <use x="1411.105469" xlink:href="#DejaVuSans-100"/>
      <use x="1474.582031" xlink:href="#DejaVuSans-101"/>
     </g>
    </g>
   </g>
   <g id="matplotlib.axis_2">
    <g id="ytick_1">
     <g id="line2d_8">
      <defs>
       <path d="M 0 0 
L -3.5 0 
" id="med39092249" style="stroke:#000000;stroke-width:0.8;"/>
      </defs>
      <g>
       <use style="stroke:#000000;stroke-width:0.8;" x="50.6" xlink:href="#med39092249" y="291.130208"/>
      </g>
     </g>
     <g id="text_9">
      <!-- 0 -->
      <g style="fill:#ff0000;" transform="translate(37.2375 294.929427)scale(0.1 -0.1)">
       <use xlink:href="#DejaVuSans-48"/>
      </g>
     </g>
    </g>
    <g id="ytick_2">
     <g id="line2d_9">
      <g>
       <use style="stroke:#000000;stroke-width:0.8;" x="50.6" xlink:href="#med39092249" y="247.615699"/>
      </g>
     </g>
     <g id="text_10">
      <!-- 50 -->
      <g style="fill:#ff0000;" transform="translate(30.875 251.414918)scale(0.1 -0.1)">
       <use xlink:href="#DejaVuSans-53"/>
       <use x="63.623047" xlink:href="#DejaVuSans-48"/>
      </g>
     </g>
    </g>
    <g id="ytick_3">
     <g id="line2d_10">
      <g>
       <use style="stroke:#000000;stroke-width:0.8;" x="50.6" xlink:href="#med39092249" y="204.101191"/>
      </g>
     </g>
     <g id="text_11">
      <!-- 100 -->
      <g style="fill:#ff0000;" transform="translate(24.5125 207.90041)scale(0.1 -0.1)">
       <use xlink:href="#DejaVuSans-49"/>
       <use x="63.623047" xlink:href="#DejaVuSans-48"/>
       <use x="127.246094" xlink:href="#DejaVuSans-48"/>
      </g>
     </g>
    </g>
    <g id="ytick_4">
     <g id="line2d_11">
      <g>
       <use style="stroke:#000000;stroke-width:0.8;" x="50.6" xlink:href="#med39092249" y="160.586682"/>
      </g>
     </g>
     <g id="text_12">
      <!-- 150 -->
      <g style="fill:#ff0000;" transform="translate(24.5125 164.385901)scale(0.1 -0.1)">
       <use xlink:href="#DejaVuSans-49"/>
       <use x="63.623047" xlink:href="#DejaVuSans-53"/>
       <use x="127.246094" xlink:href="#DejaVuSans-48"/>
      </g>
     </g>
    </g>
    <g id="ytick_5">
     <g id="line2d_12">
      <g>
       <use style="stroke:#000000;stroke-width:0.8;" x="50.6" xlink:href="#med39092249" y="117.072174"/>
      </g>
     </g>
     <g id="text_13">
      <!-- 200 -->
      <g style="fill:#ff0000;" transform="translate(24.5125 120.871393)scale(0.1 -0.1)">
       <use xlink:href="#DejaVuSans-50"/>
       <use x="63.623047" xlink:href="#DejaVuSans-48"/>
       <use x="127.246094" xlink:href="#DejaVuSans-48"/>
      </g>
     </g>
    </g>
    <g id="ytick_6">
     <g id="line2d_13">
      <g>
       <use style="stroke:#000000;stroke-width:0.8;" x="50.6" xlink:href="#med39092249" y="73.557665"/>
      </g>
     </g>
     <g id="text_14">
      <!-- 250 -->
      <g style="fill:#ff0000;" transform="translate(24.5125 77.356884)scale(0.1 -0.1)">
       <use xlink:href="#DejaVuSans-50"/>
       <use x="63.623047" xlink:href="#DejaVuSans-53"/>
       <use x="127.246094" xlink:href="#DejaVuSans-48"/>
      </g>
     </g>
    </g>
    <g id="ytick_7">
     <g id="line2d_14">
      <g>
       <use style="stroke:#000000;stroke-width:0.8;" x="50.6" xlink:href="#med39092249" y="30.043157"/>
      </g>
     </g>
     <g id="text_15">
      <!-- 300 -->
      <g style="fill:#ff0000;" transform="translate(24.5125 33.842376)scale(0.1 -0.1)">
       <use xlink:href="#DejaVuSans-51"/>
       <use x="63.623047" xlink:href="#DejaVuSans-48"/>
       <use x="127.246094" xlink:href="#DejaVuSans-48"/>
      </g>
     </g>
    </g>
    <g id="text_16">
     <!-- Model Price -->
     <defs>
      <path d="M 9.8125 72.90625 
L 24.515625 72.90625 
L 43.109375 23.296875 
L 61.8125 72.90625 
L 76.515625 72.90625 
L 76.515625 0 
L 66.890625 0 
L 66.890625 64.015625 
L 48.09375 14.015625 
L 38.1875 14.015625 
L 19.390625 64.015625 
L 19.390625 0 
L 9.8125 0 
z
" id="DejaVuSans-77"/>
      <path d="M 9.421875 75.984375 
L 18.40625 75.984375 
L 18.40625 0 
L 9.421875 0 
z
" id="DejaVuSans-108"/>
      <path d="M 48.78125 52.59375 
L 48.78125 44.1875 
Q 44.96875 46.296875 41.140625 47.34375 
Q 37.3125 48.390625 33.40625 48.390625 
Q 24.65625 48.390625 19.8125 42.84375 
Q 14.984375 37.3125 14.984375 27.296875 
Q 14.984375 17.28125 19.8125 11.734375 
Q 24.65625 6.203125 33.40625 6.203125 
Q 37.3125 6.203125 41.140625 7.25 
Q 44.96875 8.296875 48.78125 10.40625 
L 48.78125 2.09375 
Q 45.015625 0.34375 40.984375 -0.53125 
Q 36.96875 -1.421875 32.421875 -1.421875 
Q 20.0625 -1.421875 12.78125 6.34375 
Q 5.515625 14.109375 5.515625 27.296875 
Q 5.515625 40.671875 12.859375 48.328125 
Q 20.21875 56 33.015625 56 
Q 37.15625 56 41.109375 55.140625 
Q 45.0625 54.296875 48.78125 52.59375 
z
" id="DejaVuSans-99"/>
     </defs>
     <g style="fill:#ff0000;" transform="translate(18.432813 186.38)rotate(-90)scale(0.1 -0.1)">
      <use xlink:href="#DejaVuSans-77"/>
      <use x="86.279297" xlink:href="#DejaVuSans-111"/>
      <use x="147.460938" xlink:href="#DejaVuSans-100"/>
      <use x="210.9375" xlink:href="#DejaVuSans-101"/>
      <use x="272.460938" xlink:href="#DejaVuSans-108"/>
      <use x="300.244141" xlink:href="#DejaVuSans-32"/>
      <use x="332.03125" xlink:href="#DejaVuSans-80"/>
      <use x="390.583984" xlink:href="#DejaVuSans-114"/>
      <use x="431.697266" xlink:href="#DejaVuSans-105"/>
      <use x="459.480469" xlink:href="#DejaVuSans-99"/>
      <use x="514.460938" xlink:href="#DejaVuSans-101"/>
     </g>
    </g>
   </g>
   <g id="line2d_15">
    <path clip-path="url(#p26e659d1c9)" d="M 66.658068 291.016364 
L 67.732186 109.547895 
L 68.806305 105.771756 
L 69.880423 121.292601 
L 70.954541 122.104212 
L 72.02866 132.700845 
L 73.102778 119.579886 
L 75.251014 125.578943 
L 76.325133 142.089209 
L 77.399251 117.361168 
L 78.473369 160.226998 
L 79.547487 107.643799 
L 81.695724 170.000303 
L 82.769842 110.863765 
L 83.843961 116.315554 
L 84.918079 81.139453 
L 85.992197 147.965958 
L 87.066315 148.119676 
L 88.140434 152.807812 
L 89.214552 108.320051 
L 90.28867 173.311702 
L 91.362788 153.86613 
L 92.436907 24.143636 
L 94.585143 152.652952 
L 95.659262 82.068043 
L 96.73338 169.139121 
L 97.807498 96.911422 
L 98.881616 129.42684 
L 99.955735 116.784487 
L 101.029853 142.420998 
L 102.103971 155.63692 
L 103.178089 135.42167 
L 104.252208 121.920875 
L 105.326326 121.643701 
L 106.400444 124.423395 
L 107.474563 36.845532 
L 108.548681 153.278998 
L 109.622799 68.68427 
L 110.696917 105.825378 
L 111.771036 92.374061 
L 112.845154 102.07995 
L 113.919272 109.8357 
L 114.99339 177.393403 
L 116.067509 127.473592 
L 117.141627 163.313391 
L 118.215745 148.757065 
L 119.289864 81.102452 
L 120.363982 141.852277 
L 121.4381 192.406524 
L 122.512218 149.864514 
L 123.586337 127.129883 
L 124.660455 73.031969 
L 125.734573 126.951682 
L 126.808691 99.826744 
L 127.88281 170.507548 
L 128.956928 133.065042 
L 130.031046 113.549015 
L 131.105165 161.655561 
L 132.179283 96.223783 
L 133.253401 154.43469 
L 134.327519 107.945127 
L 135.401638 104.71642 
L 136.475756 136.486809 
L 137.549874 125.988393 
L 138.623992 80.009458 
L 139.698111 77.564385 
L 140.772229 42.070375 
L 142.920466 118.151026 
L 143.994584 171.3826 
L 145.068702 141.79555 
L 146.14282 124.030151 
L 147.216939 118.001143 
L 148.291057 151.823841 
L 149.365175 175.374704 
L 150.439293 154.203004 
L 151.513412 91.253843 
L 152.58753 100.088425 
L 153.661648 130.478531 
L 154.735767 120.09279 
L 155.809885 56.607723 
L 156.884003 145.295643 
L 157.958121 96.567146 
L 159.03224 144.960766 
L 160.106358 122.229119 
L 161.180476 145.752194 
L 162.254594 103.762426 
L 163.328713 99.106873 
L 164.402831 127.472704 
L 165.476949 166.643978 
L 166.551068 63.062677 
L 167.625186 87.970792 
L 168.699304 115.717786 
L 169.773422 132.557238 
L 170.847541 50.275213 
L 171.921659 83.734533 
L 172.995777 98.646822 
L 174.069895 79.451474 
L 175.144014 145.537774 
L 176.218132 115.091683 
L 177.29225 140.992657 
L 178.366369 111.762319 
L 179.440487 143.448599 
L 180.514605 141.100412 
L 181.588723 93.325917 
L 182.662842 84.082647 
L 183.73696 100.295626 
L 184.811078 174.082695 
L 185.885196 155.256999 
L 186.959315 86.571985 
L 188.033433 81.383001 
L 189.107551 129.633281 
L 190.18167 134.099319 
L 191.255788 139.155658 
L 192.329906 138.005352 
L 193.404024 96.74432 
L 194.478143 65.120539 
L 195.552261 97.294994 
L 196.626379 90.43991 
L 197.700497 172.569204 
L 198.774616 167.39397 
L 199.848734 141.870307 
L 200.922852 98.649076 
L 201.996971 89.733287 
L 203.071089 138.65432 
L 204.145207 142.780824 
L 205.219325 115.69409 
L 206.293444 103.564352 
L 207.367562 79.091009 
L 208.44168 186.631713 
L 209.515798 93.607902 
L 210.589917 110.726574 
L 211.664035 148.762329 
L 212.738153 59.385377 
L 213.812272 128.934101 
L 214.88639 132.804329 
L 215.960508 139.71089 
L 217.034626 88.078147 
L 218.108745 96.266062 
L 219.182863 38.838781 
L 220.256981 119.678201 
L 221.331099 149.86447 
L 222.405218 154.628373 
L 223.479336 101.121822 
L 224.553454 90.334948 
L 225.627573 107.128286 
L 226.701691 101.213944 
L 227.775809 99.481981 
L 228.849927 50.185155 
L 229.924046 81.463481 
L 230.998164 97.506505 
L 232.072282 115.726066 
L 233.146401 167.454066 
L 234.220519 179.862849 
L 235.294637 111.283208 
L 236.368755 72.531876 
L 237.442874 103.425865 
L 238.516992 120.705931 
L 239.59111 85.843966 
L 241.739347 142.488564 
L 242.813465 141.29706 
L 243.887583 145.528219 
L 244.961702 129.014387 
L 246.03582 147.015763 
L 248.184056 132.011208 
L 250.332293 107.713356 
L 251.406411 130.454138 
L 252.480529 92.394026 
L 253.554648 81.755081 
L 254.628766 146.540532 
L 255.702884 41.083981 
L 256.777003 131.717134 
L 257.851121 124.668282 
L 258.925239 124.738286 
L 259.999357 94.279945 
L 261.073476 91.029133 
L 262.147594 94.012051 
L 263.221712 102.068881 
L 264.29583 146.808272 
L 265.369949 147.256663 
L 266.444067 135.712006 
L 267.518185 148.828004 
L 268.592304 145.064135 
L 269.666422 106.249601 
L 270.74054 109.057671 
L 271.814658 102.846269 
L 272.888777 99.990854 
L 273.962895 105.448237 
L 275.037013 78.729117 
L 276.111131 153.245543 
L 277.18525 143.98093 
L 278.259368 100.492499 
L 279.333486 123.360307 
L 280.407605 83.506434 
L 281.481723 68.749501 
L 282.555841 89.841687 
L 283.629959 116.961774 
L 284.704078 89.746373 
L 285.778196 78.228951 
L 286.852314 106.764571 
L 287.926432 84.100867 
L 290.074669 159.037582 
L 291.148787 131.063585 
L 292.222906 182.605103 
L 293.297024 112.804366 
L 294.371142 115.871251 
L 295.44526 131.072921 
L 296.519379 123.290642 
L 297.593497 83.398659 
L 298.667615 151.251071 
L 300.815852 93.519621 
L 301.88997 98.926204 
L 302.964088 111.923353 
L 304.038207 165.766945 
L 305.112325 183.225536 
L 306.186443 164.104969 
L 307.260561 152.966294 
L 308.33468 54.172468 
L 309.408798 70.206899 
L 310.482916 129.850859 
L 311.557034 111.092032 
L 312.631153 133.8328 
L 313.705271 99.796922 
L 314.779389 86.697459 
L 315.853508 125.572537 
L 316.927626 135.970301 
L 318.001744 95.489096 
L 319.075862 83.025902 
L 320.149981 99.211865 
L 321.224099 100.026884 
L 322.298217 145.263024 
L 323.372335 134.169815 
L 324.446454 171.452633 
L 325.520572 128.087497 
L 326.59469 131.229151 
L 327.668809 191.326835 
L 328.742927 164.563711 
L 329.817045 167.365027 
L 330.891163 163.62097 
L 331.965282 143.304645 
L 333.0394 111.448577 
L 334.113518 135.957175 
L 335.187636 138.939983 
L 336.261755 102.738704 
L 337.335873 61.310994 
L 338.409991 94.736096 
L 339.48411 73.414245 
L 340.558228 125.422749 
L 341.632346 138.353655 
L 344.854701 55.351479 
L 345.928819 125.63122 
L 348.077056 153.222717 
L 349.151174 140.705777 
L 351.299411 98.117234 
L 352.373529 102.034146 
L 353.447647 87.614081 
L 354.521765 129.697987 
L 355.595884 116.515878 
L 356.670002 117.964211 
L 357.74412 114.529435 
L 358.818238 154.115701 
L 359.892357 110.767158 
L 360.966475 101.162414 
L 362.040593 99.097207 
L 363.114712 60.318981 
L 364.18883 36.038488 
L 365.262948 64.861965 
L 366.337066 100.73405 
L 367.411185 108.868679 
L 368.485303 77.804199 
L 369.559421 76.350902 
L 370.633539 97.444375 
L 371.707658 102.556732 
L 372.781776 119.520968 
L 373.855894 121.999732 
L 374.930013 85.66442 
L 376.004131 125.493037 
L 377.078249 145.433454 
L 378.152367 97.954789 
L 379.226486 75.71511 
L 380.300604 134.87171 
L 381.374722 79.406955 
L 382.44884 94.945836 
L 383.522959 116.099146 
L 384.597077 95.117273 
L 385.671195 94.725893 
L 386.745314 115.739879 
L 387.819432 131.15072 
L 387.819432 131.15072 
" style="fill:none;stroke:#ff0000;stroke-linecap:square;stroke-width:1.5;"/>
   </g>
   <g id="patch_3">
    <path d="M 50.6 304.36 
L 50.6 10.8 
" style="fill:none;stroke:#000000;stroke-linecap:square;stroke-linejoin:miter;stroke-width:0.8;"/>
   </g>
   <g id="patch_4">
    <path d="M 403.8775 304.36 
L 403.8775 10.8 
" style="fill:none;stroke:#000000;stroke-linecap:square;stroke-linejoin:miter;stroke-width:0.8;"/>
   </g>
   <g id="patch_5">
    <path d="M 50.6 304.36 
L 403.8775 304.36 
" style="fill:none;stroke:#000000;stroke-linecap:square;stroke-linejoin:miter;stroke-width:0.8;"/>
   </g>
   <g id="patch_6">
    <path d="M 50.6 10.8 
L 403.8775 10.8 
" style="fill:none;stroke:#000000;stroke-linecap:square;stroke-linejoin:miter;stroke-width:0.8;"/>
   </g>
  </g>
  <g id="axes_2">
   <g id="matplotlib.axis_3">
    <g id="ytick_8">
     <g id="line2d_16">
      <defs>
       <path d="M 0 0 
L 3.5 0 
" id="m38d8ee1b8d" style="stroke:#000000;stroke-width:0.8;"/>
      </defs>
      <g>
       <use style="stroke:#000000;stroke-width:0.8;" x="403.8775" xlink:href="#m38d8ee1b8d" y="291.058149"/>
      </g>
     </g>
     <g id="text_17">
      <!-- 0 -->
      <g style="fill:#0000ff;" transform="translate(410.8775 294.857368)scale(0.1 -0.1)">
       <use xlink:href="#DejaVuSans-48"/>
      </g>
     </g>
    </g>
    <g id="ytick_9">
     <g id="line2d_17">
      <g>
       <use style="stroke:#000000;stroke-width:0.8;" x="403.8775" xlink:href="#m38d8ee1b8d" y="256.650511"/>
      </g>
     </g>
     <g id="text_18">
      <!-- 200 -->
      <g style="fill:#0000ff;" transform="translate(410.8775 260.44973)scale(0.1 -0.1)">
       <use xlink:href="#DejaVuSans-50"/>
       <use x="63.623047" xlink:href="#DejaVuSans-48"/>
       <use x="127.246094" xlink:href="#DejaVuSans-48"/>
      </g>
     </g>
    </g>
    <g id="ytick_10">
     <g id="line2d_18">
      <g>
       <use style="stroke:#000000;stroke-width:0.8;" x="403.8775" xlink:href="#m38d8ee1b8d" y="222.242873"/>
      </g>
     </g>
     <g id="text_19">
      <!-- 400 -->
      <defs>
       <path d="M 37.796875 64.3125 
L 12.890625 25.390625 
L 37.796875 25.390625 
z
M 35.203125 72.90625 
L 47.609375 72.90625 
L 47.609375 25.390625 
L 58.015625 25.390625 
L 58.015625 17.1875 
L 47.609375 17.1875 
L 47.609375 0 
L 37.796875 0 
L 37.796875 17.1875 
L 4.890625 17.1875 
L 4.890625 26.703125 
z
" id="DejaVuSans-52"/>
      </defs>
      <g style="fill:#0000ff;" transform="translate(410.8775 226.042092)scale(0.1 -0.1)">
       <use xlink:href="#DejaVuSans-52"/>
       <use x="63.623047" xlink:href="#DejaVuSans-48"/>
       <use x="127.246094" xlink:href="#DejaVuSans-48"/>
      </g>
     </g>
    </g>
    <g id="ytick_11">
     <g id="line2d_19">
      <g>
       <use style="stroke:#000000;stroke-width:0.8;" x="403.8775" xlink:href="#m38d8ee1b8d" y="187.835236"/>
      </g>
     </g>
     <g id="text_20">
      <!-- 600 -->
      <defs>
       <path d="M 33.015625 40.375 
Q 26.375 40.375 22.484375 35.828125 
Q 18.609375 31.296875 18.609375 23.390625 
Q 18.609375 15.53125 22.484375 10.953125 
Q 26.375 6.390625 33.015625 6.390625 
Q 39.65625 6.390625 43.53125 10.953125 
Q 47.40625 15.53125 47.40625 23.390625 
Q 47.40625 31.296875 43.53125 35.828125 
Q 39.65625 40.375 33.015625 40.375 
z
M 52.59375 71.296875 
L 52.59375 62.3125 
Q 48.875 64.0625 45.09375 64.984375 
Q 41.3125 65.921875 37.59375 65.921875 
Q 27.828125 65.921875 22.671875 59.328125 
Q 17.53125 52.734375 16.796875 39.40625 
Q 19.671875 43.65625 24.015625 45.921875 
Q 28.375 48.1875 33.59375 48.1875 
Q 44.578125 48.1875 50.953125 41.515625 
Q 57.328125 34.859375 57.328125 23.390625 
Q 57.328125 12.15625 50.6875 5.359375 
Q 44.046875 -1.421875 33.015625 -1.421875 
Q 20.359375 -1.421875 13.671875 8.265625 
Q 6.984375 17.96875 6.984375 36.375 
Q 6.984375 53.65625 15.1875 63.9375 
Q 23.390625 74.21875 37.203125 74.21875 
Q 40.921875 74.21875 44.703125 73.484375 
Q 48.484375 72.75 52.59375 71.296875 
z
" id="DejaVuSans-54"/>
      </defs>
      <g style="fill:#0000ff;" transform="translate(410.8775 191.634454)scale(0.1 -0.1)">
       <use xlink:href="#DejaVuSans-54"/>
       <use x="63.623047" xlink:href="#DejaVuSans-48"/>
       <use x="127.246094" xlink:href="#DejaVuSans-48"/>
      </g>
     </g>
    </g>
    <g id="ytick_12">
     <g id="line2d_20">
      <g>
       <use style="stroke:#000000;stroke-width:0.8;" x="403.8775" xlink:href="#m38d8ee1b8d" y="153.427598"/>
      </g>
     </g>
     <g id="text_21">
      <!-- 800 -->
      <defs>
       <path d="M 31.78125 34.625 
Q 24.75 34.625 20.71875 30.859375 
Q 16.703125 27.09375 16.703125 20.515625 
Q 16.703125 13.921875 20.71875 10.15625 
Q 24.75 6.390625 31.78125 6.390625 
Q 38.8125 6.390625 42.859375 10.171875 
Q 46.921875 13.96875 46.921875 20.515625 
Q 46.921875 27.09375 42.890625 30.859375 
Q 38.875 34.625 31.78125 34.625 
z
M 21.921875 38.8125 
Q 15.578125 40.375 12.03125 44.71875 
Q 8.5 49.078125 8.5 55.328125 
Q 8.5 64.0625 14.71875 69.140625 
Q 20.953125 74.21875 31.78125 74.21875 
Q 42.671875 74.21875 48.875 69.140625 
Q 55.078125 64.0625 55.078125 55.328125 
Q 55.078125 49.078125 51.53125 44.71875 
Q 48 40.375 41.703125 38.8125 
Q 48.828125 37.15625 52.796875 32.3125 
Q 56.78125 27.484375 56.78125 20.515625 
Q 56.78125 9.90625 50.3125 4.234375 
Q 43.84375 -1.421875 31.78125 -1.421875 
Q 19.734375 -1.421875 13.25 4.234375 
Q 6.78125 9.90625 6.78125 20.515625 
Q 6.78125 27.484375 10.78125 32.3125 
Q 14.796875 37.15625 21.921875 38.8125 
z
M 18.3125 54.390625 
Q 18.3125 48.734375 21.84375 45.5625 
Q 25.390625 42.390625 31.78125 42.390625 
Q 38.140625 42.390625 41.71875 45.5625 
Q 45.3125 48.734375 45.3125 54.390625 
Q 45.3125 60.0625 41.71875 63.234375 
Q 38.140625 66.40625 31.78125 66.40625 
Q 25.390625 66.40625 21.84375 63.234375 
Q 18.3125 60.0625 18.3125 54.390625 
z
" id="DejaVuSans-56"/>
      </defs>
      <g style="fill:#0000ff;" transform="translate(410.8775 157.226817)scale(0.1 -0.1)">
       <use xlink:href="#DejaVuSans-56"/>
       <use x="63.623047" xlink:href="#DejaVuSans-48"/>
       <use x="127.246094" xlink:href="#DejaVuSans-48"/>
      </g>
     </g>
    </g>
    <g id="ytick_13">
     <g id="line2d_21">
      <g>
       <use style="stroke:#000000;stroke-width:0.8;" x="403.8775" xlink:href="#m38d8ee1b8d" y="119.01996"/>
      </g>
     </g>
     <g id="text_22">
      <!-- 1000 -->
      <g style="fill:#0000ff;" transform="translate(410.8775 122.819179)scale(0.1 -0.1)">
       <use xlink:href="#DejaVuSans-49"/>
       <use x="63.623047" xlink:href="#DejaVuSans-48"/>
       <use x="127.246094" xlink:href="#DejaVuSans-48"/>
       <use x="190.869141" xlink:href="#DejaVuSans-48"/>
      </g>
     </g>
    </g>
    <g id="ytick_14">
     <g id="line2d_22">
      <g>
       <use style="stroke:#000000;stroke-width:0.8;" x="403.8775" xlink:href="#m38d8ee1b8d" y="84.612322"/>
      </g>
     </g>
     <g id="text_23">
      <!-- 1200 -->
      <g style="fill:#0000ff;" transform="translate(410.8775 88.411541)scale(0.1 -0.1)">
       <use xlink:href="#DejaVuSans-49"/>
       <use x="63.623047" xlink:href="#DejaVuSans-50"/>
       <use x="127.246094" xlink:href="#DejaVuSans-48"/>
       <use x="190.869141" xlink:href="#DejaVuSans-48"/>
      </g>
     </g>
    </g>
    <g id="ytick_15">
     <g id="line2d_23">
      <g>
       <use style="stroke:#000000;stroke-width:0.8;" x="403.8775" xlink:href="#m38d8ee1b8d" y="50.204685"/>
      </g>
     </g>
     <g id="text_24">
      <!-- 1400 -->
      <g style="fill:#0000ff;" transform="translate(410.8775 54.003903)scale(0.1 -0.1)">
       <use xlink:href="#DejaVuSans-49"/>
       <use x="63.623047" xlink:href="#DejaVuSans-52"/>
       <use x="127.246094" xlink:href="#DejaVuSans-48"/>
       <use x="190.869141" xlink:href="#DejaVuSans-48"/>
      </g>
     </g>
    </g>
    <g id="ytick_16">
     <g id="line2d_24">
      <g>
       <use style="stroke:#000000;stroke-width:0.8;" x="403.8775" xlink:href="#m38d8ee1b8d" y="15.797047"/>
      </g>
     </g>
     <g id="text_25">
      <!-- 1600 -->
      <g style="fill:#0000ff;" transform="translate(410.8775 19.596266)scale(0.1 -0.1)">
       <use xlink:href="#DejaVuSans-49"/>
       <use x="63.623047" xlink:href="#DejaVuSans-54"/>
       <use x="127.246094" xlink:href="#DejaVuSans-48"/>
       <use x="190.869141" xlink:href="#DejaVuSans-48"/>
      </g>
     </g>
    </g>
    <g id="text_26">
     <!-- Demand-Supply -->
     <defs>
      <path d="M 19.671875 64.796875 
L 19.671875 8.109375 
L 31.59375 8.109375 
Q 46.6875 8.109375 53.6875 14.9375 
Q 60.6875 21.78125 60.6875 36.53125 
Q 60.6875 51.171875 53.6875 57.984375 
Q 46.6875 64.796875 31.59375 64.796875 
z
M 9.8125 72.90625 
L 30.078125 72.90625 
Q 51.265625 72.90625 61.171875 64.09375 
Q 71.09375 55.28125 71.09375 36.53125 
Q 71.09375 17.671875 61.125 8.828125 
Q 51.171875 0 30.078125 0 
L 9.8125 0 
z
" id="DejaVuSans-68"/>
      <path d="M 52 44.1875 
Q 55.375 50.25 60.0625 53.125 
Q 64.75 56 71.09375 56 
Q 79.640625 56 84.28125 50.015625 
Q 88.921875 44.046875 88.921875 33.015625 
L 88.921875 0 
L 79.890625 0 
L 79.890625 32.71875 
Q 79.890625 40.578125 77.09375 44.375 
Q 74.3125 48.1875 68.609375 48.1875 
Q 61.625 48.1875 57.5625 43.546875 
Q 53.515625 38.921875 53.515625 30.90625 
L 53.515625 0 
L 44.484375 0 
L 44.484375 32.71875 
Q 44.484375 40.625 41.703125 44.40625 
Q 38.921875 48.1875 33.109375 48.1875 
Q 26.21875 48.1875 22.15625 43.53125 
Q 18.109375 38.875 18.109375 30.90625 
L 18.109375 0 
L 9.078125 0 
L 9.078125 54.6875 
L 18.109375 54.6875 
L 18.109375 46.1875 
Q 21.1875 51.21875 25.484375 53.609375 
Q 29.78125 56 35.6875 56 
Q 41.65625 56 45.828125 52.96875 
Q 50 49.953125 52 44.1875 
z
" id="DejaVuSans-109"/>
      <path d="M 54.890625 33.015625 
L 54.890625 0 
L 45.90625 0 
L 45.90625 32.71875 
Q 45.90625 40.484375 42.875 44.328125 
Q 39.84375 48.1875 33.796875 48.1875 
Q 26.515625 48.1875 22.3125 43.546875 
Q 18.109375 38.921875 18.109375 30.90625 
L 18.109375 0 
L 9.078125 0 
L 9.078125 54.6875 
L 18.109375 54.6875 
L 18.109375 46.1875 
Q 21.34375 51.125 25.703125 53.5625 
Q 30.078125 56 35.796875 56 
Q 45.21875 56 50.046875 50.171875 
Q 54.890625 44.34375 54.890625 33.015625 
z
" id="DejaVuSans-110"/>
      <path d="M 4.890625 31.390625 
L 31.203125 31.390625 
L 31.203125 23.390625 
L 4.890625 23.390625 
z
" id="DejaVuSans-45"/>
      <path d="M 53.515625 70.515625 
L 53.515625 60.890625 
Q 47.90625 63.578125 42.921875 64.890625 
Q 37.9375 66.21875 33.296875 66.21875 
Q 25.25 66.21875 20.875 63.09375 
Q 16.5 59.96875 16.5 54.203125 
Q 16.5 49.359375 19.40625 46.890625 
Q 22.3125 44.4375 30.421875 42.921875 
L 36.375 41.703125 
Q 47.40625 39.59375 52.65625 34.296875 
Q 57.90625 29 57.90625 20.125 
Q 57.90625 9.515625 50.796875 4.046875 
Q 43.703125 -1.421875 29.984375 -1.421875 
Q 24.8125 -1.421875 18.96875 -0.25 
Q 13.140625 0.921875 6.890625 3.21875 
L 6.890625 13.375 
Q 12.890625 10.015625 18.65625 8.296875 
Q 24.421875 6.59375 29.984375 6.59375 
Q 38.421875 6.59375 43.015625 9.90625 
Q 47.609375 13.234375 47.609375 19.390625 
Q 47.609375 24.75 44.3125 27.78125 
Q 41.015625 30.8125 33.5 32.328125 
L 27.484375 33.5 
Q 16.453125 35.6875 11.515625 40.375 
Q 6.59375 45.0625 6.59375 53.421875 
Q 6.59375 63.09375 13.40625 68.65625 
Q 20.21875 74.21875 32.171875 74.21875 
Q 37.3125 74.21875 42.625 73.28125 
Q 47.953125 72.359375 53.515625 70.515625 
z
" id="DejaVuSans-83"/>
      <path d="M 8.5 21.578125 
L 8.5 54.6875 
L 17.484375 54.6875 
L 17.484375 21.921875 
Q 17.484375 14.15625 20.5 10.265625 
Q 23.53125 6.390625 29.59375 6.390625 
Q 36.859375 6.390625 41.078125 11.03125 
Q 45.3125 15.671875 45.3125 23.6875 
L 45.3125 54.6875 
L 54.296875 54.6875 
L 54.296875 0 
L 45.3125 0 
L 45.3125 8.40625 
Q 42.046875 3.421875 37.71875 1 
Q 33.40625 -1.421875 27.6875 -1.421875 
Q 18.265625 -1.421875 13.375 4.4375 
Q 8.5 10.296875 8.5 21.578125 
z
M 31.109375 56 
z
" id="DejaVuSans-117"/>
      <path d="M 32.171875 -5.078125 
Q 28.375 -14.84375 24.75 -17.8125 
Q 21.140625 -20.796875 15.09375 -20.796875 
L 7.90625 -20.796875 
L 7.90625 -13.28125 
L 13.1875 -13.28125 
Q 16.890625 -13.28125 18.9375 -11.515625 
Q 21 -9.765625 23.484375 -3.21875 
L 25.09375 0.875 
L 2.984375 54.6875 
L 12.5 54.6875 
L 29.59375 11.921875 
L 46.6875 54.6875 
L 56.203125 54.6875 
z
" id="DejaVuSans-121"/>
     </defs>
     <g style="fill:#0000ff;" transform="translate(447.925937 197.627656)rotate(-90)scale(0.1 -0.1)">
      <use xlink:href="#DejaVuSans-68"/>
      <use x="77.001953" xlink:href="#DejaVuSans-101"/>
      <use x="138.525391" xlink:href="#DejaVuSans-109"/>
      <use x="235.9375" xlink:href="#DejaVuSans-97"/>
      <use x="297.216797" xlink:href="#DejaVuSans-110"/>
      <use x="360.595703" xlink:href="#DejaVuSans-100"/>
      <use x="424.072266" xlink:href="#DejaVuSans-45"/>
      <use x="460.15625" xlink:href="#DejaVuSans-83"/>
      <use x="523.632812" xlink:href="#DejaVuSans-117"/>
      <use x="587.011719" xlink:href="#DejaVuSans-112"/>
      <use x="650.488281" xlink:href="#DejaVuSans-112"/>
      <use x="713.964844" xlink:href="#DejaVuSans-108"/>
      <use x="741.748047" xlink:href="#DejaVuSans-121"/>
     </g>
    </g>
   </g>
   <g id="line2d_25">
    <path clip-path="url(#p26e659d1c9)" d="M 66.658068 291.016364 
L 67.732186 24.143636 
L 68.806305 26.531773 
L 69.880423 25.414673 
L 70.954541 25.189785 
L 72.02866 25.962968 
L 73.102778 25.239802 
L 74.176896 25.392389 
L 75.251014 26.149989 
L 76.325133 25.05853 
L 77.399251 25.765883 
L 78.473369 25.366411 
L 79.547487 26.132952 
L 80.621606 25.205534 
L 81.695724 25.110268 
L 82.769842 25.461253 
L 83.843961 25.416587 
L 84.918079 26.156081 
L 85.992197 25.067469 
L 89.214552 25.182534 
L 90.28867 24.576487 
L 91.362788 25.599844 
L 92.436907 26.941161 
L 93.511025 26.128045 
L 94.585143 24.973726 
L 95.659262 26.41052 
L 96.73338 24.234114 
L 97.807498 26.573566 
L 98.881616 25.323571 
L 99.955735 25.997866 
L 101.029853 26.085119 
L 102.103971 24.717141 
L 104.252208 25.79389 
L 105.326326 25.330343 
L 106.400444 25.566079 
L 107.474563 27.387574 
L 108.548681 25.039889 
L 109.622799 26.346507 
L 111.771036 25.452118 
L 112.845154 26.380541 
L 113.919272 26.19039 
L 114.99339 24.535524 
L 116.067509 25.39127 
L 117.141627 24.814822 
L 118.215745 25.049454 
L 119.289864 26.363045 
L 120.363982 25.297074 
L 121.4381 24.736151 
L 122.512218 24.994052 
L 123.586337 25.404873 
L 124.660455 26.764785 
L 125.734573 25.436946 
L 126.808691 25.448519 
L 127.88281 24.992452 
L 128.956928 25.042932 
L 130.031046 25.474239 
L 131.105165 24.962579 
L 132.179283 25.7249 
L 133.253401 24.987711 
L 134.327519 25.21656 
L 135.401638 25.834873 
L 136.475756 25.260376 
L 137.549874 26.012507 
L 138.623992 26.159807 
L 139.698111 26.51078 
L 140.772229 27.20666 
L 141.846347 26.068369 
L 142.920466 25.802955 
L 143.994584 25.152431 
L 145.068702 25.099826 
L 146.14282 25.844599 
L 147.216939 25.615314 
L 148.291057 24.963971 
L 149.365175 24.694361 
L 150.439293 25.039209 
L 151.513412 25.803049 
L 153.661648 25.571982 
L 154.735767 26.284551 
L 155.809885 26.483979 
L 156.884003 25.282725 
L 157.958121 25.725586 
L 159.03224 25.449175 
L 160.106358 26.251435 
L 161.180476 25.210059 
L 162.254594 25.823532 
L 163.328713 26.076597 
L 164.402831 25.230551 
L 165.476949 25.208126 
L 166.551068 26.365722 
L 167.625186 26.108155 
L 168.699304 25.517333 
L 169.773422 26.032877 
L 170.847541 26.71199 
L 171.921659 25.93618 
L 172.995777 26.494161 
L 174.069895 26.490327 
L 175.144014 25.355035 
L 176.218132 25.604944 
L 177.29225 25.430259 
L 178.366369 25.569689 
L 179.440487 25.287474 
L 180.514605 25.57772 
L 181.588723 26.195499 
L 182.662842 26.374282 
L 183.73696 25.852415 
L 184.811078 24.3772 
L 186.959315 25.824287 
L 188.033433 26.35398 
L 189.107551 25.825123 
L 190.18167 24.856002 
L 191.255788 25.117048 
L 192.329906 25.721981 
L 193.404024 25.886584 
L 194.478143 26.461195 
L 196.626379 25.961558 
L 197.700497 24.486749 
L 199.848734 25.267203 
L 200.922852 25.947694 
L 203.071089 25.541234 
L 204.145207 24.856874 
L 205.219325 26.289213 
L 206.293444 26.004973 
L 207.367562 26.215961 
L 208.44168 24.810793 
L 209.515798 26.067779 
L 210.589917 25.292691 
L 211.664035 25.183169 
L 212.738153 26.779377 
L 213.812272 25.716771 
L 214.88639 24.883389 
L 217.034626 26.315558 
L 218.108745 25.967985 
L 219.182863 27.233083 
L 220.256981 25.647424 
L 221.331099 24.82288 
L 222.405218 25.12119 
L 223.479336 26.075878 
L 224.553454 26.062039 
L 225.627573 26.479812 
L 226.701691 26.53181 
L 227.775809 25.746785 
L 228.849927 26.851243 
L 229.924046 26.324925 
L 230.998164 26.022649 
L 232.072282 25.307904 
L 233.146401 24.789876 
L 234.220519 25.208955 
L 235.294637 26.032809 
L 236.368755 25.814788 
L 237.442874 25.928917 
L 239.59111 25.717978 
L 240.665228 26.318297 
L 241.739347 25.292971 
L 242.813465 24.926169 
L 243.887583 25.795689 
L 244.961702 25.446082 
L 246.03582 24.817979 
L 247.109938 25.778132 
L 248.184056 25.854961 
L 249.258175 25.427188 
L 250.332293 25.737691 
L 251.406411 25.633426 
L 252.480529 25.650886 
L 253.554648 27.014927 
L 254.628766 25.257277 
L 255.702884 26.179823 
L 257.851121 25.177125 
L 258.925239 25.428323 
L 259.999357 26.536208 
L 262.147594 25.569246 
L 263.221712 26.344342 
L 264.29583 24.868259 
L 265.369949 25.495539 
L 266.444067 25.606493 
L 267.518185 25.036508 
L 268.592304 25.051275 
L 271.814658 26.375196 
L 272.888777 25.80103 
L 275.037013 26.093688 
L 276.111131 24.952222 
L 277.18525 25.309566 
L 278.259368 25.905334 
L 279.333486 25.740503 
L 281.481723 26.62916 
L 282.555841 26.361489 
L 283.629959 25.131458 
L 284.704078 26.266673 
L 285.778196 26.980987 
L 286.852314 25.354255 
L 287.926432 26.961113 
L 289.000551 25.983775 
L 290.074669 24.770602 
L 291.148787 25.22838 
L 292.222906 24.344041 
L 293.297024 25.304241 
L 294.371142 25.274293 
L 295.44526 25.974246 
L 296.519379 25.455557 
L 297.593497 26.070852 
L 298.667615 25.76018 
L 299.741733 25.180053 
L 301.88997 26.558364 
L 302.964088 25.635554 
L 304.038207 24.974125 
L 305.112325 25.21388 
L 306.186443 24.829473 
L 307.260561 24.669305 
L 308.33468 26.977579 
L 309.408798 26.451421 
L 310.482916 25.584917 
L 311.557034 25.990177 
L 312.631153 25.817979 
L 313.705271 25.381864 
L 314.779389 26.815458 
L 315.853508 25.076483 
L 316.927626 25.261546 
L 318.001744 26.482465 
L 319.075862 26.733553 
L 320.149981 26.167287 
L 321.224099 26.299389 
L 324.446454 24.886442 
L 326.59469 25.474294 
L 327.668809 24.691226 
L 328.742927 24.947913 
L 329.817045 24.798093 
L 330.891163 24.826267 
L 331.965282 25.215966 
L 333.0394 25.950603 
L 334.113518 25.25823 
L 335.187636 25.026384 
L 336.261755 25.610615 
L 337.335873 26.510543 
L 338.409991 26.167711 
L 339.48411 26.247978 
L 340.558228 25.187098 
L 341.632346 25.23485 
L 342.706464 25.518505 
L 343.780583 26.173565 
L 344.854701 26.585547 
L 345.928819 25.712845 
L 348.077056 24.871394 
L 350.225292 25.249574 
L 351.299411 26.060074 
L 352.373529 26.017097 
L 353.447647 26.290346 
L 354.521765 25.308795 
L 355.595884 25.910509 
L 356.670002 25.321058 
L 357.74412 25.884107 
L 358.818238 25.426458 
L 359.892357 26.024104 
L 360.966475 25.640983 
L 363.114712 26.553618 
L 364.18883 27.126504 
L 365.262948 26.282105 
L 366.337066 25.972451 
L 367.411185 26.136739 
L 368.485303 26.524787 
L 369.559421 25.980295 
L 370.633539 26.372247 
L 371.707658 25.431021 
L 372.781776 25.714939 
L 373.855894 25.542878 
L 374.930013 26.003062 
L 376.004131 25.71772 
L 377.078249 25.582584 
L 378.152367 25.863064 
L 379.226486 26.539046 
L 380.300604 25.875574 
L 381.374722 26.381807 
L 382.44884 26.080764 
L 383.522959 25.382206 
L 384.597077 25.876185 
L 386.745314 25.90469 
L 387.819432 25.404322 
L 387.819432 25.404322 
" style="fill:none;stroke:#0000ff;stroke-linecap:square;stroke-width:1.5;"/>
   </g>
   <g id="patch_7">
    <path d="M 50.6 304.36 
L 50.6 10.8 
" style="fill:none;stroke:#000000;stroke-linecap:square;stroke-linejoin:miter;stroke-width:0.8;"/>
   </g>
   <g id="patch_8">
    <path d="M 403.8775 304.36 
L 403.8775 10.8 
" style="fill:none;stroke:#000000;stroke-linecap:square;stroke-linejoin:miter;stroke-width:0.8;"/>
   </g>
   <g id="patch_9">
    <path d="M 50.6 304.36 
L 403.8775 304.36 
" style="fill:none;stroke:#000000;stroke-linecap:square;stroke-linejoin:miter;stroke-width:0.8;"/>
   </g>
   <g id="patch_10">
    <path d="M 50.6 10.8 
L 403.8775 10.8 
" style="fill:none;stroke:#000000;stroke-linecap:square;stroke-linejoin:miter;stroke-width:0.8;"/>
   </g>
  </g>
 </g>
 <defs>
  <clipPath id="p26e659d1c9">
   <rect height="293.56" width="353.2775" x="50.6" y="10.8"/>
  </clipPath>
 </defs>
</svg>
