<?xml version="1.0" encoding="utf-8" standalone="no"?>
<!DOCTYPE svg PUBLIC "-//W3C//DTD SVG 1.1//EN"
  "http://www.w3.org/Graphics/SVG/1.1/DTD/svg11.dtd">
<!-- Created with matplotlib (https://matplotlib.org/) -->
<svg height="345.6pt" version="1.1" viewBox="0 0 460.8 345.6" width="460.8pt" xmlns="http://www.w3.org/2000/svg" xmlns:xlink="http://www.w3.org/1999/xlink">
 <defs>
  <style type="text/css">
*{stroke-linecap:butt;stroke-linejoin:round;}
  </style>
 </defs>
 <g id="figure_1">
  <g id="patch_1">
   <path d="M 0 345.6 
L 460.8 345.6 
L 460.8 0 
L 0 0 
z
" style="fill:#ffffff;"/>
  </g>
  <g id="axes_1">
   <g id="patch_2">
    <path d="M 56.9225 304.36 
L 391.1875 304.36 
L 391.1875 10.8 
L 56.9225 10.8 
z
" style="fill:#ffffff;"/>
   </g>
   <g id="matplotlib.axis_1">
    <g id="xtick_1">
     <g id="line2d_1">
      <defs>
       <path d="M 0 0 
L 0 3.5 
" id="m11ff78771b" style="stroke:#000000;stroke-width:0.8;"/>
      </defs>
      <g>
       <use style="stroke:#000000;stroke-width:0.8;" x="72.116364" xlink:href="#m11ff78771b" y="304.36"/>
      </g>
     </g>
     <g id="text_1">
      <!-- 0 -->
      <defs>
       <path d="M 31.78125 66.40625 
Q 24.171875 66.40625 20.328125 58.90625 
Q 16.5 51.421875 16.5 36.375 
Q 16.5 21.390625 20.328125 13.890625 
Q 24.171875 6.390625 31.78125 6.390625 
Q 39.453125 6.390625 43.28125 13.890625 
Q 47.125 21.390625 47.125 36.375 
Q 47.125 51.421875 43.28125 58.90625 
Q 39.453125 66.40625 31.78125 66.40625 
z
M 31.78125 74.21875 
Q 44.046875 74.21875 50.515625 64.515625 
Q 56.984375 54.828125 56.984375 36.375 
Q 56.984375 17.96875 50.515625 8.265625 
Q 44.046875 -1.421875 31.78125 -1.421875 
Q 19.53125 -1.421875 13.0625 8.265625 
Q 6.59375 17.96875 6.59375 36.375 
Q 6.59375 54.828125 13.0625 64.515625 
Q 19.53125 74.21875 31.78125 74.21875 
z
" id="DejaVuSans-48"/>
      </defs>
      <g transform="translate(68.935114 318.958437)scale(0.1 -0.1)">
       <use xlink:href="#DejaVuSans-48"/>
      </g>
     </g>
    </g>
    <g id="xtick_2">
     <g id="line2d_2">
      <g>
       <use style="stroke:#000000;stroke-width:0.8;" x="122.931961" xlink:href="#m11ff78771b" y="304.36"/>
      </g>
     </g>
     <g id="text_2">
      <!-- 50 -->
      <defs>
       <path d="M 10.796875 72.90625 
L 49.515625 72.90625 
L 49.515625 64.59375 
L 19.828125 64.59375 
L 19.828125 46.734375 
Q 21.96875 47.46875 24.109375 47.828125 
Q 26.265625 48.1875 28.421875 48.1875 
Q 40.625 48.1875 47.75 41.5 
Q 54.890625 34.8125 54.890625 23.390625 
Q 54.890625 11.625 47.5625 5.09375 
Q 40.234375 -1.421875 26.90625 -1.421875 
Q 22.3125 -1.421875 17.546875 -0.640625 
Q 12.796875 0.140625 7.71875 1.703125 
L 7.71875 11.625 
Q 12.109375 9.234375 16.796875 8.0625 
Q 21.484375 6.890625 26.703125 6.890625 
Q 35.15625 6.890625 40.078125 11.328125 
Q 45.015625 15.765625 45.015625 23.390625 
Q 45.015625 31 40.078125 35.4375 
Q 35.15625 39.890625 26.703125 39.890625 
Q 22.75 39.890625 18.8125 39.015625 
Q 14.890625 38.140625 10.796875 36.28125 
z
" id="DejaVuSans-53"/>
      </defs>
      <g transform="translate(116.569461 318.958437)scale(0.1 -0.1)">
       <use xlink:href="#DejaVuSans-53"/>
       <use x="63.623047" xlink:href="#DejaVuSans-48"/>
      </g>
     </g>
    </g>
    <g id="xtick_3">
     <g id="line2d_3">
      <g>
       <use style="stroke:#000000;stroke-width:0.8;" x="173.747559" xlink:href="#m11ff78771b" y="304.36"/>
      </g>
     </g>
     <g id="text_3">
      <!-- 100 -->
      <defs>
       <path d="M 12.40625 8.296875 
L 28.515625 8.296875 
L 28.515625 63.921875 
L 10.984375 60.40625 
L 10.984375 69.390625 
L 28.421875 72.90625 
L 38.28125 72.90625 
L 38.28125 8.296875 
L 54.390625 8.296875 
L 54.390625 0 
L 12.40625 0 
z
" id="DejaVuSans-49"/>
      </defs>
      <g transform="translate(164.203809 318.958437)scale(0.1 -0.1)">
       <use xlink:href="#DejaVuSans-49"/>
       <use x="63.623047" xlink:href="#DejaVuSans-48"/>
       <use x="127.246094" xlink:href="#DejaVuSans-48"/>
      </g>
     </g>
    </g>
    <g id="xtick_4">
     <g id="line2d_4">
      <g>
       <use style="stroke:#000000;stroke-width:0.8;" x="224.563156" xlink:href="#m11ff78771b" y="304.36"/>
      </g>
     </g>
     <g id="text_4">
      <!-- 150 -->
      <g transform="translate(215.019406 318.958437)scale(0.1 -0.1)">
       <use xlink:href="#DejaVuSans-49"/>
       <use x="63.623047" xlink:href="#DejaVuSans-53"/>
       <use x="127.246094" xlink:href="#DejaVuSans-48"/>
      </g>
     </g>
    </g>
    <g id="xtick_5">
     <g id="line2d_5">
      <g>
       <use style="stroke:#000000;stroke-width:0.8;" x="275.378753" xlink:href="#m11ff78771b" y="304.36"/>
      </g>
     </g>
     <g id="text_5">
      <!-- 200 -->
      <defs>
       <path d="M 19.1875 8.296875 
L 53.609375 8.296875 
L 53.609375 0 
L 7.328125 0 
L 7.328125 8.296875 
Q 12.9375 14.109375 22.625 23.890625 
Q 32.328125 33.6875 34.8125 36.53125 
Q 39.546875 41.84375 41.421875 45.53125 
Q 43.3125 49.21875 43.3125 52.78125 
Q 43.3125 58.59375 39.234375 62.25 
Q 35.15625 65.921875 28.609375 65.921875 
Q 23.96875 65.921875 18.8125 64.3125 
Q 13.671875 62.703125 7.8125 59.421875 
L 7.8125 69.390625 
Q 13.765625 71.78125 18.9375 73 
Q 24.125 74.21875 28.421875 74.21875 
Q 39.75 74.21875 46.484375 68.546875 
Q 53.21875 62.890625 53.21875 53.421875 
Q 53.21875 48.921875 51.53125 44.890625 
Q 49.859375 40.875 45.40625 35.40625 
Q 44.1875 33.984375 37.640625 27.21875 
Q 31.109375 20.453125 19.1875 8.296875 
z
" id="DejaVuSans-50"/>
      </defs>
      <g transform="translate(265.835003 318.958437)scale(0.1 -0.1)">
       <use xlink:href="#DejaVuSans-50"/>
       <use x="63.623047" xlink:href="#DejaVuSans-48"/>
       <use x="127.246094" xlink:href="#DejaVuSans-48"/>
      </g>
     </g>
    </g>
    <g id="xtick_6">
     <g id="line2d_6">
      <g>
       <use style="stroke:#000000;stroke-width:0.8;" x="326.194351" xlink:href="#m11ff78771b" y="304.36"/>
      </g>
     </g>
     <g id="text_6">
      <!-- 250 -->
      <g transform="translate(316.650601 318.958437)scale(0.1 -0.1)">
       <use xlink:href="#DejaVuSans-50"/>
       <use x="63.623047" xlink:href="#DejaVuSans-53"/>
       <use x="127.246094" xlink:href="#DejaVuSans-48"/>
      </g>
     </g>
    </g>
    <g id="xtick_7">
     <g id="line2d_7">
      <g>
       <use style="stroke:#000000;stroke-width:0.8;" x="377.009948" xlink:href="#m11ff78771b" y="304.36"/>
      </g>
     </g>
     <g id="text_7">
      <!-- 300 -->
      <defs>
       <path d="M 40.578125 39.3125 
Q 47.65625 37.796875 51.625 33 
Q 55.609375 28.21875 55.609375 21.1875 
Q 55.609375 10.40625 48.1875 4.484375 
Q 40.765625 -1.421875 27.09375 -1.421875 
Q 22.515625 -1.421875 17.65625 -0.515625 
Q 12.796875 0.390625 7.625 2.203125 
L 7.625 11.71875 
Q 11.71875 9.328125 16.59375 8.109375 
Q 21.484375 6.890625 26.8125 6.890625 
Q 36.078125 6.890625 40.9375 10.546875 
Q 45.796875 14.203125 45.796875 21.1875 
Q 45.796875 27.640625 41.28125 31.265625 
Q 36.765625 34.90625 28.71875 34.90625 
L 20.21875 34.90625 
L 20.21875 43.015625 
L 29.109375 43.015625 
Q 36.375 43.015625 40.234375 45.921875 
Q 44.09375 48.828125 44.09375 54.296875 
Q 44.09375 59.90625 40.109375 62.90625 
Q 36.140625 65.921875 28.71875 65.921875 
Q 24.65625 65.921875 20.015625 65.03125 
Q 15.375 64.15625 9.8125 62.3125 
L 9.8125 71.09375 
Q 15.4375 72.65625 20.34375 73.4375 
Q 25.25 74.21875 29.59375 74.21875 
Q 40.828125 74.21875 47.359375 69.109375 
Q 53.90625 64.015625 53.90625 55.328125 
Q 53.90625 49.265625 50.4375 45.09375 
Q 46.96875 40.921875 40.578125 39.3125 
z
" id="DejaVuSans-51"/>
      </defs>
      <g transform="translate(367.466198 318.958437)scale(0.1 -0.1)">
       <use xlink:href="#DejaVuSans-51"/>
       <use x="63.623047" xlink:href="#DejaVuSans-48"/>
       <use x="127.246094" xlink:href="#DejaVuSans-48"/>
      </g>
     </g>
    </g>
    <g id="text_8">
     <!-- Average of Per 7500.0 Episode -->
     <defs>
      <path d="M 34.1875 63.1875 
L 20.796875 26.90625 
L 47.609375 26.90625 
z
M 28.609375 72.90625 
L 39.796875 72.90625 
L 67.578125 0 
L 57.328125 0 
L 50.6875 18.703125 
L 17.828125 18.703125 
L 11.1875 0 
L 0.78125 0 
z
" id="DejaVuSans-65"/>
      <path d="M 2.984375 54.6875 
L 12.5 54.6875 
L 29.59375 8.796875 
L 46.6875 54.6875 
L 56.203125 54.6875 
L 35.6875 0 
L 23.484375 0 
z
" id="DejaVuSans-118"/>
      <path d="M 56.203125 29.59375 
L 56.203125 25.203125 
L 14.890625 25.203125 
Q 15.484375 15.921875 20.484375 11.0625 
Q 25.484375 6.203125 34.421875 6.203125 
Q 39.59375 6.203125 44.453125 7.46875 
Q 49.3125 8.734375 54.109375 11.28125 
L 54.109375 2.78125 
Q 49.265625 0.734375 44.1875 -0.34375 
Q 39.109375 -1.421875 33.890625 -1.421875 
Q 20.796875 -1.421875 13.15625 6.1875 
Q 5.515625 13.8125 5.515625 26.8125 
Q 5.515625 40.234375 12.765625 48.109375 
Q 20.015625 56 32.328125 56 
Q 43.359375 56 49.78125 48.890625 
Q 56.203125 41.796875 56.203125 29.59375 
z
M 47.21875 32.234375 
Q 47.125 39.59375 43.09375 43.984375 
Q 39.0625 48.390625 32.421875 48.390625 
Q 24.90625 48.390625 20.390625 44.140625 
Q 15.875 39.890625 15.1875 32.171875 
z
" id="DejaVuSans-101"/>
      <path d="M 41.109375 46.296875 
Q 39.59375 47.171875 37.8125 47.578125 
Q 36.03125 48 33.890625 48 
Q 26.265625 48 22.1875 43.046875 
Q 18.109375 38.09375 18.109375 28.8125 
L 18.109375 0 
L 9.078125 0 
L 9.078125 54.6875 
L 18.109375 54.6875 
L 18.109375 46.1875 
Q 20.953125 51.171875 25.484375 53.578125 
Q 30.03125 56 36.53125 56 
Q 37.453125 56 38.578125 55.875 
Q 39.703125 55.765625 41.0625 55.515625 
z
" id="DejaVuSans-114"/>
      <path d="M 34.28125 27.484375 
Q 23.390625 27.484375 19.1875 25 
Q 14.984375 22.515625 14.984375 16.5 
Q 14.984375 11.71875 18.140625 8.90625 
Q 21.296875 6.109375 26.703125 6.109375 
Q 34.1875 6.109375 38.703125 11.40625 
Q 43.21875 16.703125 43.21875 25.484375 
L 43.21875 27.484375 
z
M 52.203125 31.203125 
L 52.203125 0 
L 43.21875 0 
L 43.21875 8.296875 
Q 40.140625 3.328125 35.546875 0.953125 
Q 30.953125 -1.421875 24.3125 -1.421875 
Q 15.921875 -1.421875 10.953125 3.296875 
Q 6 8.015625 6 15.921875 
Q 6 25.140625 12.171875 29.828125 
Q 18.359375 34.515625 30.609375 34.515625 
L 43.21875 34.515625 
L 43.21875 35.40625 
Q 43.21875 41.609375 39.140625 45 
Q 35.0625 48.390625 27.6875 48.390625 
Q 23 48.390625 18.546875 47.265625 
Q 14.109375 46.140625 10.015625 43.890625 
L 10.015625 52.203125 
Q 14.9375 54.109375 19.578125 55.046875 
Q 24.21875 56 28.609375 56 
Q 40.484375 56 46.34375 49.84375 
Q 52.203125 43.703125 52.203125 31.203125 
z
" id="DejaVuSans-97"/>
      <path d="M 45.40625 27.984375 
Q 45.40625 37.75 41.375 43.109375 
Q 37.359375 48.484375 30.078125 48.484375 
Q 22.859375 48.484375 18.828125 43.109375 
Q 14.796875 37.75 14.796875 27.984375 
Q 14.796875 18.265625 18.828125 12.890625 
Q 22.859375 7.515625 30.078125 7.515625 
Q 37.359375 7.515625 41.375 12.890625 
Q 45.40625 18.265625 45.40625 27.984375 
z
M 54.390625 6.78125 
Q 54.390625 -7.171875 48.1875 -13.984375 
Q 42 -20.796875 29.203125 -20.796875 
Q 24.46875 -20.796875 20.265625 -20.09375 
Q 16.0625 -19.390625 12.109375 -17.921875 
L 12.109375 -9.1875 
Q 16.0625 -11.328125 19.921875 -12.34375 
Q 23.78125 -13.375 27.78125 -13.375 
Q 36.625 -13.375 41.015625 -8.765625 
Q 45.40625 -4.15625 45.40625 5.171875 
L 45.40625 9.625 
Q 42.625 4.78125 38.28125 2.390625 
Q 33.9375 0 27.875 0 
Q 17.828125 0 11.671875 7.65625 
Q 5.515625 15.328125 5.515625 27.984375 
Q 5.515625 40.671875 11.671875 48.328125 
Q 17.828125 56 27.875 56 
Q 33.9375 56 38.28125 53.609375 
Q 42.625 51.21875 45.40625 46.390625 
L 45.40625 54.6875 
L 54.390625 54.6875 
z
" id="DejaVuSans-103"/>
      <path id="DejaVuSans-32"/>
      <path d="M 30.609375 48.390625 
Q 23.390625 48.390625 19.1875 42.75 
Q 14.984375 37.109375 14.984375 27.296875 
Q 14.984375 17.484375 19.15625 11.84375 
Q 23.34375 6.203125 30.609375 6.203125 
Q 37.796875 6.203125 41.984375 11.859375 
Q 46.1875 17.53125 46.1875 27.296875 
Q 46.1875 37.015625 41.984375 42.703125 
Q 37.796875 48.390625 30.609375 48.390625 
z
M 30.609375 56 
Q 42.328125 56 49.015625 48.375 
Q 55.71875 40.765625 55.71875 27.296875 
Q 55.71875 13.875 49.015625 6.21875 
Q 42.328125 -1.421875 30.609375 -1.421875 
Q 18.84375 -1.421875 12.171875 6.21875 
Q 5.515625 13.875 5.515625 27.296875 
Q 5.515625 40.765625 12.171875 48.375 
Q 18.84375 56 30.609375 56 
z
" id="DejaVuSans-111"/>
      <path d="M 37.109375 75.984375 
L 37.109375 68.5 
L 28.515625 68.5 
Q 23.6875 68.5 21.796875 66.546875 
Q 19.921875 64.59375 19.921875 59.515625 
L 19.921875 54.6875 
L 34.71875 54.6875 
L 34.71875 47.703125 
L 19.921875 47.703125 
L 19.921875 0 
L 10.890625 0 
L 10.890625 47.703125 
L 2.296875 47.703125 
L 2.296875 54.6875 
L 10.890625 54.6875 
L 10.890625 58.5 
Q 10.890625 67.625 15.140625 71.796875 
Q 19.390625 75.984375 28.609375 75.984375 
z
" id="DejaVuSans-102"/>
      <path d="M 19.671875 64.796875 
L 19.671875 37.40625 
L 32.078125 37.40625 
Q 38.96875 37.40625 42.71875 40.96875 
Q 46.484375 44.53125 46.484375 51.125 
Q 46.484375 57.671875 42.71875 61.234375 
Q 38.96875 64.796875 32.078125 64.796875 
z
M 9.8125 72.90625 
L 32.078125 72.90625 
Q 44.34375 72.90625 50.609375 67.359375 
Q 56.890625 61.8125 56.890625 51.125 
Q 56.890625 40.328125 50.609375 34.8125 
Q 44.34375 29.296875 32.078125 29.296875 
L 19.671875 29.296875 
L 19.671875 0 
L 9.8125 0 
z
" id="DejaVuSans-80"/>
      <path d="M 8.203125 72.90625 
L 55.078125 72.90625 
L 55.078125 68.703125 
L 28.609375 0 
L 18.3125 0 
L 43.21875 64.59375 
L 8.203125 64.59375 
z
" id="DejaVuSans-55"/>
      <path d="M 10.6875 12.40625 
L 21 12.40625 
L 21 0 
L 10.6875 0 
z
" id="DejaVuSans-46"/>
      <path d="M 9.8125 72.90625 
L 55.90625 72.90625 
L 55.90625 64.59375 
L 19.671875 64.59375 
L 19.671875 43.015625 
L 54.390625 43.015625 
L 54.390625 34.71875 
L 19.671875 34.71875 
L 19.671875 8.296875 
L 56.78125 8.296875 
L 56.78125 0 
L 9.8125 0 
z
" id="DejaVuSans-69"/>
      <path d="M 18.109375 8.203125 
L 18.109375 -20.796875 
L 9.078125 -20.796875 
L 9.078125 54.6875 
L 18.109375 54.6875 
L 18.109375 46.390625 
Q 20.953125 51.265625 25.265625 53.625 
Q 29.59375 56 35.59375 56 
Q 45.5625 56 51.78125 48.09375 
Q 58.015625 40.1875 58.015625 27.296875 
Q 58.015625 14.40625 51.78125 6.484375 
Q 45.5625 -1.421875 35.59375 -1.421875 
Q 29.59375 -1.421875 25.265625 0.953125 
Q 20.953125 3.328125 18.109375 8.203125 
z
M 48.6875 27.296875 
Q 48.6875 37.203125 44.609375 42.84375 
Q 40.53125 48.484375 33.40625 48.484375 
Q 26.265625 48.484375 22.1875 42.84375 
Q 18.109375 37.203125 18.109375 27.296875 
Q 18.109375 17.390625 22.1875 11.75 
Q 26.265625 6.109375 33.40625 6.109375 
Q 40.53125 6.109375 44.609375 11.75 
Q 48.6875 17.390625 48.6875 27.296875 
z
" id="DejaVuSans-112"/>
      <path d="M 9.421875 54.6875 
L 18.40625 54.6875 
L 18.40625 0 
L 9.421875 0 
z
M 9.421875 75.984375 
L 18.40625 75.984375 
L 18.40625 64.59375 
L 9.421875 64.59375 
z
" id="DejaVuSans-105"/>
      <path d="M 44.28125 53.078125 
L 44.28125 44.578125 
Q 40.484375 46.53125 36.375 47.5 
Q 32.28125 48.484375 27.875 48.484375 
Q 21.1875 48.484375 17.84375 46.4375 
Q 14.5 44.390625 14.5 40.28125 
Q 14.5 37.15625 16.890625 35.375 
Q 19.28125 33.59375 26.515625 31.984375 
L 29.59375 31.296875 
Q 39.15625 29.25 43.1875 25.515625 
Q 47.21875 21.78125 47.21875 15.09375 
Q 47.21875 7.46875 41.1875 3.015625 
Q 35.15625 -1.421875 24.609375 -1.421875 
Q 20.21875 -1.421875 15.453125 -0.5625 
Q 10.6875 0.296875 5.421875 2 
L 5.421875 11.28125 
Q 10.40625 8.6875 15.234375 7.390625 
Q 20.0625 6.109375 24.8125 6.109375 
Q 31.15625 6.109375 34.5625 8.28125 
Q 37.984375 10.453125 37.984375 14.40625 
Q 37.984375 18.0625 35.515625 20.015625 
Q 33.0625 21.96875 24.703125 23.78125 
L 21.578125 24.515625 
Q 13.234375 26.265625 9.515625 29.90625 
Q 5.8125 33.546875 5.8125 39.890625 
Q 5.8125 47.609375 11.28125 51.796875 
Q 16.75 56 26.8125 56 
Q 31.78125 56 36.171875 55.265625 
Q 40.578125 54.546875 44.28125 53.078125 
z
" id="DejaVuSans-115"/>
      <path d="M 45.40625 46.390625 
L 45.40625 75.984375 
L 54.390625 75.984375 
L 54.390625 0 
L 45.40625 0 
L 45.40625 8.203125 
Q 42.578125 3.328125 38.25 0.953125 
Q 33.9375 -1.421875 27.875 -1.421875 
Q 17.96875 -1.421875 11.734375 6.484375 
Q 5.515625 14.40625 5.515625 27.296875 
Q 5.515625 40.1875 11.734375 48.09375 
Q 17.96875 56 27.875 56 
Q 33.9375 56 38.25 53.625 
Q 42.578125 51.265625 45.40625 46.390625 
z
M 14.796875 27.296875 
Q 14.796875 17.390625 18.875 11.75 
Q 22.953125 6.109375 30.078125 6.109375 
Q 37.203125 6.109375 41.296875 11.75 
Q 45.40625 17.390625 45.40625 27.296875 
Q 45.40625 37.203125 41.296875 42.84375 
Q 37.203125 48.484375 30.078125 48.484375 
Q 22.953125 48.484375 18.875 42.84375 
Q 14.796875 37.203125 14.796875 27.296875 
z
" id="DejaVuSans-100"/>
     </defs>
     <g transform="translate(147.247969 332.636562)scale(0.1 -0.1)">
      <use xlink:href="#DejaVuSans-65"/>
      <use x="62.533203" xlink:href="#DejaVuSans-118"/>
      <use x="121.712891" xlink:href="#DejaVuSans-101"/>
      <use x="183.236328" xlink:href="#DejaVuSans-114"/>
      <use x="224.349609" xlink:href="#DejaVuSans-97"/>
      <use x="285.628906" xlink:href="#DejaVuSans-103"/>
      <use x="349.105469" xlink:href="#DejaVuSans-101"/>
      <use x="410.628906" xlink:href="#DejaVuSans-32"/>
      <use x="442.416016" xlink:href="#DejaVuSans-111"/>
      <use x="503.597656" xlink:href="#DejaVuSans-102"/>
      <use x="538.802734" xlink:href="#DejaVuSans-32"/>
      <use x="570.589844" xlink:href="#DejaVuSans-80"/>
      <use x="627.267578" xlink:href="#DejaVuSans-101"/>
      <use x="688.791016" xlink:href="#DejaVuSans-114"/>
      <use x="729.904297" xlink:href="#DejaVuSans-32"/>
      <use x="761.691406" xlink:href="#DejaVuSans-55"/>
      <use x="825.314453" xlink:href="#DejaVuSans-53"/>
      <use x="888.9375" xlink:href="#DejaVuSans-48"/>
      <use x="952.560547" xlink:href="#DejaVuSans-48"/>
      <use x="1016.183594" xlink:href="#DejaVuSans-46"/>
      <use x="1047.970703" xlink:href="#DejaVuSans-48"/>
      <use x="1111.59375" xlink:href="#DejaVuSans-32"/>
      <use x="1143.380859" xlink:href="#DejaVuSans-69"/>
      <use x="1206.564453" xlink:href="#DejaVuSans-112"/>
      <use x="1270.041016" xlink:href="#DejaVuSans-105"/>
      <use x="1297.824219" xlink:href="#DejaVuSans-115"/>
      <use x="1349.923828" xlink:href="#DejaVuSans-111"/>
      <use x="1411.105469" xlink:href="#DejaVuSans-100"/>
      <use x="1474.582031" xlink:href="#DejaVuSans-101"/>
     </g>
    </g>
   </g>
   <g id="matplotlib.axis_2">
    <g id="ytick_1">
     <g id="line2d_8">
      <defs>
       <path d="M 0 0 
L -3.5 0 
" id="m675b307c54" style="stroke:#000000;stroke-width:0.8;"/>
      </defs>
      <g>
       <use style="stroke:#000000;stroke-width:0.8;" x="56.9225" xlink:href="#m675b307c54" y="291.058149"/>
      </g>
     </g>
     <g id="text_9">
      <!-- 0 -->
      <g style="fill:#0000ff;" transform="translate(43.56 294.857368)scale(0.1 -0.1)">
       <use xlink:href="#DejaVuSans-48"/>
      </g>
     </g>
    </g>
    <g id="ytick_2">
     <g id="line2d_9">
      <g>
       <use style="stroke:#000000;stroke-width:0.8;" x="56.9225" xlink:href="#m675b307c54" y="256.650511"/>
      </g>
     </g>
     <g id="text_10">
      <!-- 200 -->
      <g style="fill:#0000ff;" transform="translate(30.835 260.44973)scale(0.1 -0.1)">
       <use xlink:href="#DejaVuSans-50"/>
       <use x="63.623047" xlink:href="#DejaVuSans-48"/>
       <use x="127.246094" xlink:href="#DejaVuSans-48"/>
      </g>
     </g>
    </g>
    <g id="ytick_3">
     <g id="line2d_10">
      <g>
       <use style="stroke:#000000;stroke-width:0.8;" x="56.9225" xlink:href="#m675b307c54" y="222.242873"/>
      </g>
     </g>
     <g id="text_11">
      <!-- 400 -->
      <defs>
       <path d="M 37.796875 64.3125 
L 12.890625 25.390625 
L 37.796875 25.390625 
z
M 35.203125 72.90625 
L 47.609375 72.90625 
L 47.609375 25.390625 
L 58.015625 25.390625 
L 58.015625 17.1875 
L 47.609375 17.1875 
L 47.609375 0 
L 37.796875 0 
L 37.796875 17.1875 
L 4.890625 17.1875 
L 4.890625 26.703125 
z
" id="DejaVuSans-52"/>
      </defs>
      <g style="fill:#0000ff;" transform="translate(30.835 226.042092)scale(0.1 -0.1)">
       <use xlink:href="#DejaVuSans-52"/>
       <use x="63.623047" xlink:href="#DejaVuSans-48"/>
       <use x="127.246094" xlink:href="#DejaVuSans-48"/>
      </g>
     </g>
    </g>
    <g id="ytick_4">
     <g id="line2d_11">
      <g>
       <use style="stroke:#000000;stroke-width:0.8;" x="56.9225" xlink:href="#m675b307c54" y="187.835236"/>
      </g>
     </g>
     <g id="text_12">
      <!-- 600 -->
      <defs>
       <path d="M 33.015625 40.375 
Q 26.375 40.375 22.484375 35.828125 
Q 18.609375 31.296875 18.609375 23.390625 
Q 18.609375 15.53125 22.484375 10.953125 
Q 26.375 6.390625 33.015625 6.390625 
Q 39.65625 6.390625 43.53125 10.953125 
Q 47.40625 15.53125 47.40625 23.390625 
Q 47.40625 31.296875 43.53125 35.828125 
Q 39.65625 40.375 33.015625 40.375 
z
M 52.59375 71.296875 
L 52.59375 62.3125 
Q 48.875 64.0625 45.09375 64.984375 
Q 41.3125 65.921875 37.59375 65.921875 
Q 27.828125 65.921875 22.671875 59.328125 
Q 17.53125 52.734375 16.796875 39.40625 
Q 19.671875 43.65625 24.015625 45.921875 
Q 28.375 48.1875 33.59375 48.1875 
Q 44.578125 48.1875 50.953125 41.515625 
Q 57.328125 34.859375 57.328125 23.390625 
Q 57.328125 12.15625 50.6875 5.359375 
Q 44.046875 -1.421875 33.015625 -1.421875 
Q 20.359375 -1.421875 13.671875 8.265625 
Q 6.984375 17.96875 6.984375 36.375 
Q 6.984375 53.65625 15.1875 63.9375 
Q 23.390625 74.21875 37.203125 74.21875 
Q 40.921875 74.21875 44.703125 73.484375 
Q 48.484375 72.75 52.59375 71.296875 
z
" id="DejaVuSans-54"/>
      </defs>
      <g style="fill:#0000ff;" transform="translate(30.835 191.634454)scale(0.1 -0.1)">
       <use xlink:href="#DejaVuSans-54"/>
       <use x="63.623047" xlink:href="#DejaVuSans-48"/>
       <use x="127.246094" xlink:href="#DejaVuSans-48"/>
      </g>
     </g>
    </g>
    <g id="ytick_5">
     <g id="line2d_12">
      <g>
       <use style="stroke:#000000;stroke-width:0.8;" x="56.9225" xlink:href="#m675b307c54" y="153.427598"/>
      </g>
     </g>
     <g id="text_13">
      <!-- 800 -->
      <defs>
       <path d="M 31.78125 34.625 
Q 24.75 34.625 20.71875 30.859375 
Q 16.703125 27.09375 16.703125 20.515625 
Q 16.703125 13.921875 20.71875 10.15625 
Q 24.75 6.390625 31.78125 6.390625 
Q 38.8125 6.390625 42.859375 10.171875 
Q 46.921875 13.96875 46.921875 20.515625 
Q 46.921875 27.09375 42.890625 30.859375 
Q 38.875 34.625 31.78125 34.625 
z
M 21.921875 38.8125 
Q 15.578125 40.375 12.03125 44.71875 
Q 8.5 49.078125 8.5 55.328125 
Q 8.5 64.0625 14.71875 69.140625 
Q 20.953125 74.21875 31.78125 74.21875 
Q 42.671875 74.21875 48.875 69.140625 
Q 55.078125 64.0625 55.078125 55.328125 
Q 55.078125 49.078125 51.53125 44.71875 
Q 48 40.375 41.703125 38.8125 
Q 48.828125 37.15625 52.796875 32.3125 
Q 56.78125 27.484375 56.78125 20.515625 
Q 56.78125 9.90625 50.3125 4.234375 
Q 43.84375 -1.421875 31.78125 -1.421875 
Q 19.734375 -1.421875 13.25 4.234375 
Q 6.78125 9.90625 6.78125 20.515625 
Q 6.78125 27.484375 10.78125 32.3125 
Q 14.796875 37.15625 21.921875 38.8125 
z
M 18.3125 54.390625 
Q 18.3125 48.734375 21.84375 45.5625 
Q 25.390625 42.390625 31.78125 42.390625 
Q 38.140625 42.390625 41.71875 45.5625 
Q 45.3125 48.734375 45.3125 54.390625 
Q 45.3125 60.0625 41.71875 63.234375 
Q 38.140625 66.40625 31.78125 66.40625 
Q 25.390625 66.40625 21.84375 63.234375 
Q 18.3125 60.0625 18.3125 54.390625 
z
" id="DejaVuSans-56"/>
      </defs>
      <g style="fill:#0000ff;" transform="translate(30.835 157.226817)scale(0.1 -0.1)">
       <use xlink:href="#DejaVuSans-56"/>
       <use x="63.623047" xlink:href="#DejaVuSans-48"/>
       <use x="127.246094" xlink:href="#DejaVuSans-48"/>
      </g>
     </g>
    </g>
    <g id="ytick_6">
     <g id="line2d_13">
      <g>
       <use style="stroke:#000000;stroke-width:0.8;" x="56.9225" xlink:href="#m675b307c54" y="119.01996"/>
      </g>
     </g>
     <g id="text_14">
      <!-- 1000 -->
      <g style="fill:#0000ff;" transform="translate(24.4725 122.819179)scale(0.1 -0.1)">
       <use xlink:href="#DejaVuSans-49"/>
       <use x="63.623047" xlink:href="#DejaVuSans-48"/>
       <use x="127.246094" xlink:href="#DejaVuSans-48"/>
       <use x="190.869141" xlink:href="#DejaVuSans-48"/>
      </g>
     </g>
    </g>
    <g id="ytick_7">
     <g id="line2d_14">
      <g>
       <use style="stroke:#000000;stroke-width:0.8;" x="56.9225" xlink:href="#m675b307c54" y="84.612322"/>
      </g>
     </g>
     <g id="text_15">
      <!-- 1200 -->
      <g style="fill:#0000ff;" transform="translate(24.4725 88.411541)scale(0.1 -0.1)">
       <use xlink:href="#DejaVuSans-49"/>
       <use x="63.623047" xlink:href="#DejaVuSans-50"/>
       <use x="127.246094" xlink:href="#DejaVuSans-48"/>
       <use x="190.869141" xlink:href="#DejaVuSans-48"/>
      </g>
     </g>
    </g>
    <g id="ytick_8">
     <g id="line2d_15">
      <g>
       <use style="stroke:#000000;stroke-width:0.8;" x="56.9225" xlink:href="#m675b307c54" y="50.204685"/>
      </g>
     </g>
     <g id="text_16">
      <!-- 1400 -->
      <g style="fill:#0000ff;" transform="translate(24.4725 54.003903)scale(0.1 -0.1)">
       <use xlink:href="#DejaVuSans-49"/>
       <use x="63.623047" xlink:href="#DejaVuSans-52"/>
       <use x="127.246094" xlink:href="#DejaVuSans-48"/>
       <use x="190.869141" xlink:href="#DejaVuSans-48"/>
      </g>
     </g>
    </g>
    <g id="ytick_9">
     <g id="line2d_16">
      <g>
       <use style="stroke:#000000;stroke-width:0.8;" x="56.9225" xlink:href="#m675b307c54" y="15.797047"/>
      </g>
     </g>
     <g id="text_17">
      <!-- 1600 -->
      <g style="fill:#0000ff;" transform="translate(24.4725 19.596266)scale(0.1 -0.1)">
       <use xlink:href="#DejaVuSans-49"/>
       <use x="63.623047" xlink:href="#DejaVuSans-54"/>
       <use x="127.246094" xlink:href="#DejaVuSans-48"/>
       <use x="190.869141" xlink:href="#DejaVuSans-48"/>
      </g>
     </g>
    </g>
    <g id="text_18">
     <!-- Demand-Supply -->
     <defs>
      <path d="M 19.671875 64.796875 
L 19.671875 8.109375 
L 31.59375 8.109375 
Q 46.6875 8.109375 53.6875 14.9375 
Q 60.6875 21.78125 60.6875 36.53125 
Q 60.6875 51.171875 53.6875 57.984375 
Q 46.6875 64.796875 31.59375 64.796875 
z
M 9.8125 72.90625 
L 30.078125 72.90625 
Q 51.265625 72.90625 61.171875 64.09375 
Q 71.09375 55.28125 71.09375 36.53125 
Q 71.09375 17.671875 61.125 8.828125 
Q 51.171875 0 30.078125 0 
L 9.8125 0 
z
" id="DejaVuSans-68"/>
      <path d="M 52 44.1875 
Q 55.375 50.25 60.0625 53.125 
Q 64.75 56 71.09375 56 
Q 79.640625 56 84.28125 50.015625 
Q 88.921875 44.046875 88.921875 33.015625 
L 88.921875 0 
L 79.890625 0 
L 79.890625 32.71875 
Q 79.890625 40.578125 77.09375 44.375 
Q 74.3125 48.1875 68.609375 48.1875 
Q 61.625 48.1875 57.5625 43.546875 
Q 53.515625 38.921875 53.515625 30.90625 
L 53.515625 0 
L 44.484375 0 
L 44.484375 32.71875 
Q 44.484375 40.625 41.703125 44.40625 
Q 38.921875 48.1875 33.109375 48.1875 
Q 26.21875 48.1875 22.15625 43.53125 
Q 18.109375 38.875 18.109375 30.90625 
L 18.109375 0 
L 9.078125 0 
L 9.078125 54.6875 
L 18.109375 54.6875 
L 18.109375 46.1875 
Q 21.1875 51.21875 25.484375 53.609375 
Q 29.78125 56 35.6875 56 
Q 41.65625 56 45.828125 52.96875 
Q 50 49.953125 52 44.1875 
z
" id="DejaVuSans-109"/>
      <path d="M 54.890625 33.015625 
L 54.890625 0 
L 45.90625 0 
L 45.90625 32.71875 
Q 45.90625 40.484375 42.875 44.328125 
Q 39.84375 48.1875 33.796875 48.1875 
Q 26.515625 48.1875 22.3125 43.546875 
Q 18.109375 38.921875 18.109375 30.90625 
L 18.109375 0 
L 9.078125 0 
L 9.078125 54.6875 
L 18.109375 54.6875 
L 18.109375 46.1875 
Q 21.34375 51.125 25.703125 53.5625 
Q 30.078125 56 35.796875 56 
Q 45.21875 56 50.046875 50.171875 
Q 54.890625 44.34375 54.890625 33.015625 
z
" id="DejaVuSans-110"/>
      <path d="M 4.890625 31.390625 
L 31.203125 31.390625 
L 31.203125 23.390625 
L 4.890625 23.390625 
z
" id="DejaVuSans-45"/>
      <path d="M 53.515625 70.515625 
L 53.515625 60.890625 
Q 47.90625 63.578125 42.921875 64.890625 
Q 37.9375 66.21875 33.296875 66.21875 
Q 25.25 66.21875 20.875 63.09375 
Q 16.5 59.96875 16.5 54.203125 
Q 16.5 49.359375 19.40625 46.890625 
Q 22.3125 44.4375 30.421875 42.921875 
L 36.375 41.703125 
Q 47.40625 39.59375 52.65625 34.296875 
Q 57.90625 29 57.90625 20.125 
Q 57.90625 9.515625 50.796875 4.046875 
Q 43.703125 -1.421875 29.984375 -1.421875 
Q 24.8125 -1.421875 18.96875 -0.25 
Q 13.140625 0.921875 6.890625 3.21875 
L 6.890625 13.375 
Q 12.890625 10.015625 18.65625 8.296875 
Q 24.421875 6.59375 29.984375 6.59375 
Q 38.421875 6.59375 43.015625 9.90625 
Q 47.609375 13.234375 47.609375 19.390625 
Q 47.609375 24.75 44.3125 27.78125 
Q 41.015625 30.8125 33.5 32.328125 
L 27.484375 33.5 
Q 16.453125 35.6875 11.515625 40.375 
Q 6.59375 45.0625 6.59375 53.421875 
Q 6.59375 63.09375 13.40625 68.65625 
Q 20.21875 74.21875 32.171875 74.21875 
Q 37.3125 74.21875 42.625 73.28125 
Q 47.953125 72.359375 53.515625 70.515625 
z
" id="DejaVuSans-83"/>
      <path d="M 8.5 21.578125 
L 8.5 54.6875 
L 17.484375 54.6875 
L 17.484375 21.921875 
Q 17.484375 14.15625 20.5 10.265625 
Q 23.53125 6.390625 29.59375 6.390625 
Q 36.859375 6.390625 41.078125 11.03125 
Q 45.3125 15.671875 45.3125 23.6875 
L 45.3125 54.6875 
L 54.296875 54.6875 
L 54.296875 0 
L 45.3125 0 
L 45.3125 8.40625 
Q 42.046875 3.421875 37.71875 1 
Q 33.40625 -1.421875 27.6875 -1.421875 
Q 18.265625 -1.421875 13.375 4.4375 
Q 8.5 10.296875 8.5 21.578125 
z
M 31.109375 56 
z
" id="DejaVuSans-117"/>
      <path d="M 9.421875 75.984375 
L 18.40625 75.984375 
L 18.40625 0 
L 9.421875 0 
z
" id="DejaVuSans-108"/>
      <path d="M 32.171875 -5.078125 
Q 28.375 -14.84375 24.75 -17.8125 
Q 21.140625 -20.796875 15.09375 -20.796875 
L 7.90625 -20.796875 
L 7.90625 -13.28125 
L 13.1875 -13.28125 
Q 16.890625 -13.28125 18.9375 -11.515625 
Q 21 -9.765625 23.484375 -3.21875 
L 25.09375 0.875 
L 2.984375 54.6875 
L 12.5 54.6875 
L 29.59375 11.921875 
L 46.6875 54.6875 
L 56.203125 54.6875 
z
" id="DejaVuSans-121"/>
     </defs>
     <g transform="translate(18.392813 197.627656)rotate(-90)scale(0.1 -0.1)">
      <use xlink:href="#DejaVuSans-68"/>
      <use x="77.001953" xlink:href="#DejaVuSans-101"/>
      <use x="138.525391" xlink:href="#DejaVuSans-109"/>
      <use x="235.9375" xlink:href="#DejaVuSans-97"/>
      <use x="297.216797" xlink:href="#DejaVuSans-110"/>
      <use x="360.595703" xlink:href="#DejaVuSans-100"/>
      <use x="424.072266" xlink:href="#DejaVuSans-45"/>
      <use x="460.15625" xlink:href="#DejaVuSans-83"/>
      <use x="523.632812" xlink:href="#DejaVuSans-117"/>
      <use x="587.011719" xlink:href="#DejaVuSans-112"/>
      <use x="650.488281" xlink:href="#DejaVuSans-112"/>
      <use x="713.964844" xlink:href="#DejaVuSans-108"/>
      <use x="741.748047" xlink:href="#DejaVuSans-121"/>
     </g>
    </g>
   </g>
   <g id="line2d_17">
    <path clip-path="url(#p4aebbbfc0f)" d="M 72.116364 291.016364 
L 73.132676 24.143636 
L 74.148988 26.531773 
L 75.165299 25.414673 
L 76.181611 25.189785 
L 77.197923 25.962968 
L 78.214235 25.239802 
L 79.230547 25.392389 
L 80.246859 26.149989 
L 81.263171 25.05853 
L 82.279483 25.765883 
L 83.295795 25.366411 
L 84.312107 26.132952 
L 85.328419 25.205534 
L 86.344731 25.110268 
L 87.361043 25.461253 
L 88.377355 25.416587 
L 89.393667 26.156081 
L 90.409979 25.067469 
L 93.458915 25.182534 
L 94.475227 24.576487 
L 95.491538 25.599844 
L 96.50785 26.941161 
L 97.524162 26.128045 
L 98.540474 24.973726 
L 99.556786 26.41052 
L 100.573098 24.234114 
L 101.58941 26.573566 
L 102.605722 25.323571 
L 103.622034 25.997866 
L 104.638346 26.085119 
L 105.654658 24.717141 
L 107.687282 25.79389 
L 108.703594 25.330343 
L 109.719906 25.566079 
L 110.736218 27.387574 
L 111.75253 25.039889 
L 112.768842 26.346507 
L 114.801465 25.452118 
L 115.817777 26.380541 
L 116.834089 26.19039 
L 117.850401 24.535524 
L 118.866713 25.39127 
L 119.883025 24.814822 
L 120.899337 25.049454 
L 121.915649 26.363045 
L 122.931961 25.297074 
L 123.948273 24.736151 
L 124.964585 24.994052 
L 125.980897 25.404873 
L 126.997209 26.764785 
L 128.013521 25.436946 
L 129.029833 25.448519 
L 130.046145 24.992452 
L 131.062457 25.042932 
L 132.078769 25.474239 
L 133.095081 24.962579 
L 134.111393 25.7249 
L 135.127704 24.987711 
L 136.144016 25.21656 
L 137.160328 25.834873 
L 138.17664 25.260376 
L 139.192952 26.012507 
L 140.209264 26.159807 
L 141.225576 26.51078 
L 142.241888 27.20666 
L 143.2582 26.068369 
L 144.274512 25.802955 
L 145.290824 25.152431 
L 146.307136 25.099826 
L 147.323448 25.844599 
L 148.33976 25.615314 
L 149.356072 24.963971 
L 150.372384 24.694361 
L 151.388696 25.039209 
L 152.405008 25.803049 
L 154.437631 25.571982 
L 155.453943 26.284551 
L 156.470255 26.483979 
L 157.486567 25.282725 
L 158.502879 25.725586 
L 159.519191 25.449175 
L 160.535503 26.251435 
L 161.551815 25.210059 
L 162.568127 25.823532 
L 163.584439 26.076597 
L 164.600751 25.230551 
L 165.617063 25.208126 
L 166.633375 26.365722 
L 167.649687 26.108155 
L 168.665999 25.517333 
L 169.682311 26.032877 
L 170.698623 26.71199 
L 171.714935 25.93618 
L 172.731247 26.494161 
L 173.747559 26.490327 
L 174.76387 25.355035 
L 175.780182 25.604944 
L 176.796494 25.430259 
L 177.812806 25.569689 
L 178.829118 25.287474 
L 179.84543 25.57772 
L 180.861742 26.195499 
L 181.878054 26.374282 
L 182.894366 25.852415 
L 183.910678 24.3772 
L 185.943302 25.824287 
L 186.959614 26.35398 
L 187.975926 25.825123 
L 188.992238 24.856002 
L 190.00855 25.117048 
L 191.024862 25.721981 
L 192.041174 25.886584 
L 193.057486 26.461195 
L 195.090109 25.961558 
L 196.106421 24.486749 
L 198.139045 25.267203 
L 199.155357 25.947694 
L 201.187981 25.541234 
L 202.204293 24.856874 
L 203.220605 26.289213 
L 204.236917 26.004973 
L 205.253229 26.215961 
L 206.269541 24.810793 
L 207.285853 26.067779 
L 208.302165 25.292691 
L 209.318477 25.183169 
L 210.334789 26.779377 
L 211.351101 25.716771 
L 212.367413 24.883389 
L 214.400036 26.315558 
L 215.416348 25.967985 
L 216.43266 27.233083 
L 217.448972 25.647424 
L 218.465284 24.82288 
L 219.481596 25.12119 
L 220.497908 26.075878 
L 221.51422 26.062039 
L 222.530532 26.479812 
L 223.546844 26.53181 
L 224.563156 25.746785 
L 225.579468 26.851243 
L 226.59578 26.324925 
L 227.612092 26.022649 
L 228.628404 25.307904 
L 229.644716 24.789876 
L 230.661028 25.208955 
L 231.67734 26.032809 
L 232.693652 25.814788 
L 233.709964 25.928917 
L 235.742587 25.717978 
L 236.758899 26.318297 
L 237.775211 25.292971 
L 238.791523 24.926169 
L 239.807835 25.795689 
L 240.824147 25.446082 
L 241.840459 24.817979 
L 242.856771 25.778132 
L 243.873083 25.854961 
L 244.889395 25.427188 
L 245.905707 25.737691 
L 246.922019 25.633426 
L 247.938331 25.650886 
L 248.954643 27.014927 
L 249.970955 25.257277 
L 250.987267 26.179823 
L 253.019891 25.177125 
L 254.036202 25.428323 
L 255.052514 26.536208 
L 257.085138 25.569246 
L 258.10145 26.344342 
L 259.117762 24.868259 
L 260.134074 25.495539 
L 261.150386 25.606493 
L 262.166698 25.036508 
L 263.18301 25.051275 
L 266.231946 26.375196 
L 267.248258 25.80103 
L 269.280882 26.093688 
L 270.297194 24.952222 
L 271.313506 25.309566 
L 272.329818 25.905334 
L 273.34613 25.740503 
L 275.378753 26.62916 
L 276.395065 26.361489 
L 277.411377 25.131458 
L 278.427689 26.266673 
L 279.444001 26.980987 
L 280.460313 25.354255 
L 281.476625 26.961113 
L 282.492937 25.983775 
L 283.509249 24.770602 
L 284.525561 25.22838 
L 285.541873 24.344041 
L 286.558185 25.304241 
L 287.574497 25.274293 
L 288.590809 25.974246 
L 289.607121 25.455557 
L 290.623433 26.070852 
L 291.639745 25.76018 
L 292.656057 25.180053 
L 294.68868 26.558364 
L 295.704992 25.635554 
L 296.721304 24.974125 
L 297.737616 25.21388 
L 298.753928 24.829473 
L 299.77024 24.669305 
L 300.786552 26.977579 
L 301.802864 26.451421 
L 302.819176 25.584917 
L 303.835488 25.990177 
L 304.8518 25.817979 
L 305.868112 25.381864 
L 306.884424 26.815458 
L 307.900736 25.076483 
L 308.917048 25.261546 
L 309.93336 26.482465 
L 310.949672 26.733553 
L 311.965984 26.167287 
L 312.982296 26.299389 
L 316.031231 24.886442 
L 318.063855 25.474294 
L 319.080167 24.691226 
L 320.096479 24.947913 
L 321.112791 24.798093 
L 322.129103 24.826267 
L 323.145415 25.215966 
L 324.161727 25.950603 
L 325.178039 25.25823 
L 326.194351 25.026384 
L 327.210663 25.610615 
L 328.226975 26.510543 
L 329.243287 26.167711 
L 330.259599 26.247978 
L 331.275911 25.187098 
L 332.292223 25.23485 
L 333.308535 25.518505 
L 334.324846 26.173565 
L 335.341158 26.585547 
L 336.35747 25.712845 
L 338.390094 24.871394 
L 340.422718 25.249574 
L 341.43903 26.060074 
L 342.455342 26.017097 
L 343.471654 26.290346 
L 344.487966 25.308795 
L 345.504278 25.910509 
L 346.52059 25.321058 
L 347.536902 25.884107 
L 348.553214 25.426458 
L 349.569526 26.024104 
L 350.585838 25.640983 
L 352.618462 26.553618 
L 353.634773 27.126504 
L 354.651085 26.282105 
L 355.667397 25.972451 
L 356.683709 26.136739 
L 357.700021 26.524787 
L 358.716333 25.980295 
L 359.732645 26.372247 
L 360.748957 25.431021 
L 361.765269 25.714939 
L 362.781581 25.542878 
L 363.797893 26.003062 
L 364.814205 25.71772 
L 365.830517 25.582584 
L 366.846829 25.863064 
L 367.863141 26.539046 
L 368.879453 25.875574 
L 369.895765 26.381807 
L 370.912077 26.080764 
L 371.928389 25.382206 
L 372.944701 25.876185 
L 374.977324 25.90469 
L 375.993636 25.404322 
L 375.993636 25.404322 
" style="fill:none;stroke:#0000ff;stroke-linecap:square;stroke-width:1.5;"/>
   </g>
   <g id="patch_3">
    <path d="M 56.9225 304.36 
L 56.9225 10.8 
" style="fill:none;stroke:#000000;stroke-linecap:square;stroke-linejoin:miter;stroke-width:0.8;"/>
   </g>
   <g id="patch_4">
    <path d="M 391.1875 304.36 
L 391.1875 10.8 
" style="fill:none;stroke:#000000;stroke-linecap:square;stroke-linejoin:miter;stroke-width:0.8;"/>
   </g>
   <g id="patch_5">
    <path d="M 56.9225 304.36 
L 391.1875 304.36 
" style="fill:none;stroke:#000000;stroke-linecap:square;stroke-linejoin:miter;stroke-width:0.8;"/>
   </g>
   <g id="patch_6">
    <path d="M 56.9225 10.8 
L 391.1875 10.8 
" style="fill:none;stroke:#000000;stroke-linecap:square;stroke-linejoin:miter;stroke-width:0.8;"/>
   </g>
  </g>
  <g id="axes_2">
   <g id="matplotlib.axis_3">
    <g id="ytick_10">
     <g id="line2d_18">
      <defs>
       <path d="M 0 0 
L 3.5 0 
" id="ma37ded6763" style="stroke:#000000;stroke-width:0.8;"/>
      </defs>
      <g>
       <use style="stroke:#000000;stroke-width:0.8;" x="391.1875" xlink:href="#ma37ded6763" y="291.130208"/>
      </g>
     </g>
     <g id="text_19">
      <!-- 0 -->
      <g style="fill:#008000;" transform="translate(398.1875 294.929427)scale(0.1 -0.1)">
       <use xlink:href="#DejaVuSans-48"/>
      </g>
     </g>
    </g>
    <g id="ytick_11">
     <g id="line2d_19">
      <g>
       <use style="stroke:#000000;stroke-width:0.8;" x="391.1875" xlink:href="#ma37ded6763" y="247.615699"/>
      </g>
     </g>
     <g id="text_20">
      <!-- 50 -->
      <g style="fill:#008000;" transform="translate(398.1875 251.414918)scale(0.1 -0.1)">
       <use xlink:href="#DejaVuSans-53"/>
       <use x="63.623047" xlink:href="#DejaVuSans-48"/>
      </g>
     </g>
    </g>
    <g id="ytick_12">
     <g id="line2d_20">
      <g>
       <use style="stroke:#000000;stroke-width:0.8;" x="391.1875" xlink:href="#ma37ded6763" y="204.101191"/>
      </g>
     </g>
     <g id="text_21">
      <!-- 100 -->
      <g style="fill:#008000;" transform="translate(398.1875 207.90041)scale(0.1 -0.1)">
       <use xlink:href="#DejaVuSans-49"/>
       <use x="63.623047" xlink:href="#DejaVuSans-48"/>
       <use x="127.246094" xlink:href="#DejaVuSans-48"/>
      </g>
     </g>
    </g>
    <g id="ytick_13">
     <g id="line2d_21">
      <g>
       <use style="stroke:#000000;stroke-width:0.8;" x="391.1875" xlink:href="#ma37ded6763" y="160.586682"/>
      </g>
     </g>
     <g id="text_22">
      <!-- 150 -->
      <g style="fill:#008000;" transform="translate(398.1875 164.385901)scale(0.1 -0.1)">
       <use xlink:href="#DejaVuSans-49"/>
       <use x="63.623047" xlink:href="#DejaVuSans-53"/>
       <use x="127.246094" xlink:href="#DejaVuSans-48"/>
      </g>
     </g>
    </g>
    <g id="ytick_14">
     <g id="line2d_22">
      <g>
       <use style="stroke:#000000;stroke-width:0.8;" x="391.1875" xlink:href="#ma37ded6763" y="117.072174"/>
      </g>
     </g>
     <g id="text_23">
      <!-- 200 -->
      <g style="fill:#008000;" transform="translate(398.1875 120.871393)scale(0.1 -0.1)">
       <use xlink:href="#DejaVuSans-50"/>
       <use x="63.623047" xlink:href="#DejaVuSans-48"/>
       <use x="127.246094" xlink:href="#DejaVuSans-48"/>
      </g>
     </g>
    </g>
    <g id="ytick_15">
     <g id="line2d_23">
      <g>
       <use style="stroke:#000000;stroke-width:0.8;" x="391.1875" xlink:href="#ma37ded6763" y="73.557665"/>
      </g>
     </g>
     <g id="text_24">
      <!-- 250 -->
      <g style="fill:#008000;" transform="translate(398.1875 77.356884)scale(0.1 -0.1)">
       <use xlink:href="#DejaVuSans-50"/>
       <use x="63.623047" xlink:href="#DejaVuSans-53"/>
       <use x="127.246094" xlink:href="#DejaVuSans-48"/>
      </g>
     </g>
    </g>
    <g id="ytick_16">
     <g id="line2d_24">
      <g>
       <use style="stroke:#000000;stroke-width:0.8;" x="391.1875" xlink:href="#ma37ded6763" y="30.043157"/>
      </g>
     </g>
     <g id="text_25">
      <!-- 300 -->
      <g style="fill:#008000;" transform="translate(398.1875 33.842376)scale(0.1 -0.1)">
       <use xlink:href="#DejaVuSans-51"/>
       <use x="63.623047" xlink:href="#DejaVuSans-48"/>
       <use x="127.246094" xlink:href="#DejaVuSans-48"/>
      </g>
     </g>
    </g>
    <g id="text_26">
     <!-- Model Price -->
     <defs>
      <path d="M 9.8125 72.90625 
L 24.515625 72.90625 
L 43.109375 23.296875 
L 61.8125 72.90625 
L 76.515625 72.90625 
L 76.515625 0 
L 66.890625 0 
L 66.890625 64.015625 
L 48.09375 14.015625 
L 38.1875 14.015625 
L 19.390625 64.015625 
L 19.390625 0 
L 9.8125 0 
z
" id="DejaVuSans-77"/>
      <path d="M 48.78125 52.59375 
L 48.78125 44.1875 
Q 44.96875 46.296875 41.140625 47.34375 
Q 37.3125 48.390625 33.40625 48.390625 
Q 24.65625 48.390625 19.8125 42.84375 
Q 14.984375 37.3125 14.984375 27.296875 
Q 14.984375 17.28125 19.8125 11.734375 
Q 24.65625 6.203125 33.40625 6.203125 
Q 37.3125 6.203125 41.140625 7.25 
Q 44.96875 8.296875 48.78125 10.40625 
L 48.78125 2.09375 
Q 45.015625 0.34375 40.984375 -0.53125 
Q 36.96875 -1.421875 32.421875 -1.421875 
Q 20.0625 -1.421875 12.78125 6.34375 
Q 5.515625 14.109375 5.515625 27.296875 
Q 5.515625 40.671875 12.859375 48.328125 
Q 20.21875 56 33.015625 56 
Q 37.15625 56 41.109375 55.140625 
Q 45.0625 54.296875 48.78125 52.59375 
z
" id="DejaVuSans-99"/>
     </defs>
     <g style="fill:#008000;" transform="translate(428.873438 186.38)rotate(-90)scale(0.1 -0.1)">
      <use xlink:href="#DejaVuSans-77"/>
      <use x="86.279297" xlink:href="#DejaVuSans-111"/>
      <use x="147.460938" xlink:href="#DejaVuSans-100"/>
      <use x="210.9375" xlink:href="#DejaVuSans-101"/>
      <use x="272.460938" xlink:href="#DejaVuSans-108"/>
      <use x="300.244141" xlink:href="#DejaVuSans-32"/>
      <use x="332.03125" xlink:href="#DejaVuSans-80"/>
      <use x="390.583984" xlink:href="#DejaVuSans-114"/>
      <use x="431.697266" xlink:href="#DejaVuSans-105"/>
      <use x="459.480469" xlink:href="#DejaVuSans-99"/>
      <use x="514.460938" xlink:href="#DejaVuSans-101"/>
     </g>
    </g>
   </g>
   <g id="line2d_25">
    <path clip-path="url(#p4aebbbfc0f)" d="M 72.116364 291.016364 
L 73.132676 109.547895 
L 74.148988 105.771756 
L 75.165299 121.292601 
L 76.181611 122.104212 
L 77.197923 132.700845 
L 78.214235 119.579886 
L 80.246859 125.578943 
L 81.263171 142.089209 
L 82.279483 117.361168 
L 83.295795 160.226998 
L 84.312107 107.643799 
L 86.344731 170.000303 
L 87.361043 110.863765 
L 88.377355 116.315554 
L 89.393667 81.139453 
L 90.409979 147.965958 
L 91.426291 148.119676 
L 92.442603 152.807812 
L 93.458915 108.320051 
L 94.475227 173.311702 
L 95.491538 153.86613 
L 96.50785 24.143636 
L 98.540474 152.652952 
L 99.556786 82.068043 
L 100.573098 169.139121 
L 101.58941 96.911422 
L 102.605722 129.42684 
L 103.622034 116.784487 
L 104.638346 142.420998 
L 105.654658 155.63692 
L 106.67097 135.42167 
L 107.687282 121.920875 
L 108.703594 121.643701 
L 109.719906 124.423395 
L 110.736218 36.845532 
L 111.75253 153.278998 
L 112.768842 68.68427 
L 113.785154 105.825378 
L 114.801465 92.374061 
L 115.817777 102.07995 
L 116.834089 109.8357 
L 117.850401 177.393403 
L 118.866713 127.473592 
L 119.883025 163.313391 
L 120.899337 148.757065 
L 121.915649 81.102452 
L 122.931961 141.852277 
L 123.948273 192.406524 
L 124.964585 149.864514 
L 125.980897 127.129883 
L 126.997209 73.031969 
L 128.013521 126.951682 
L 129.029833 99.826744 
L 130.046145 170.507548 
L 131.062457 133.065042 
L 132.078769 113.549015 
L 133.095081 161.655561 
L 134.111393 96.223783 
L 135.127704 154.43469 
L 136.144016 107.945127 
L 137.160328 104.71642 
L 138.17664 136.486809 
L 139.192952 125.988393 
L 140.209264 80.009458 
L 141.225576 77.564385 
L 142.241888 42.070375 
L 144.274512 118.151026 
L 145.290824 171.3826 
L 146.307136 141.79555 
L 147.323448 124.030151 
L 148.33976 118.001143 
L 149.356072 151.823841 
L 150.372384 175.374704 
L 151.388696 154.203004 
L 152.405008 91.253843 
L 153.42132 100.088425 
L 154.437631 130.478531 
L 155.453943 120.09279 
L 156.470255 56.607723 
L 157.486567 145.295643 
L 158.502879 96.567146 
L 159.519191 144.960766 
L 160.535503 122.229119 
L 161.551815 145.752194 
L 162.568127 103.762426 
L 163.584439 99.106873 
L 164.600751 127.472704 
L 165.617063 166.643978 
L 166.633375 63.062677 
L 167.649687 87.970792 
L 168.665999 115.717786 
L 169.682311 132.557238 
L 170.698623 50.275213 
L 171.714935 83.734533 
L 172.731247 98.646822 
L 173.747559 79.451474 
L 174.76387 145.537774 
L 175.780182 115.091683 
L 176.796494 140.992657 
L 177.812806 111.762319 
L 178.829118 143.448599 
L 179.84543 141.100412 
L 180.861742 93.325917 
L 181.878054 84.082647 
L 182.894366 100.295626 
L 183.910678 174.082695 
L 184.92699 155.256999 
L 185.943302 86.571985 
L 186.959614 81.383001 
L 187.975926 129.633281 
L 188.992238 134.099319 
L 190.00855 139.155658 
L 191.024862 138.005352 
L 192.041174 96.74432 
L 193.057486 65.120539 
L 194.073798 97.294994 
L 195.090109 90.43991 
L 196.106421 172.569204 
L 197.122733 167.39397 
L 198.139045 141.870307 
L 199.155357 98.649076 
L 200.171669 89.733287 
L 201.187981 138.65432 
L 202.204293 142.780824 
L 203.220605 115.69409 
L 204.236917 103.564352 
L 205.253229 79.091009 
L 206.269541 186.631713 
L 207.285853 93.607902 
L 208.302165 110.726574 
L 209.318477 148.762329 
L 210.334789 59.385377 
L 211.351101 128.934101 
L 212.367413 132.804329 
L 213.383725 139.71089 
L 214.400036 88.078147 
L 215.416348 96.266062 
L 216.43266 38.838781 
L 217.448972 119.678201 
L 218.465284 149.86447 
L 219.481596 154.628373 
L 220.497908 101.121822 
L 221.51422 90.334948 
L 222.530532 107.128286 
L 223.546844 101.213944 
L 224.563156 99.481981 
L 225.579468 50.185155 
L 226.59578 81.463481 
L 227.612092 97.506505 
L 228.628404 115.726066 
L 229.644716 167.454066 
L 230.661028 179.862849 
L 231.67734 111.283208 
L 232.693652 72.531876 
L 233.709964 103.425865 
L 234.726275 120.705931 
L 235.742587 85.843966 
L 237.775211 142.488564 
L 238.791523 141.29706 
L 239.807835 145.528219 
L 240.824147 129.014387 
L 241.840459 147.015763 
L 243.873083 132.011208 
L 245.905707 107.713356 
L 246.922019 130.454138 
L 247.938331 92.394026 
L 248.954643 81.755081 
L 249.970955 146.540532 
L 250.987267 41.083981 
L 252.003579 131.717134 
L 253.019891 124.668282 
L 254.036202 124.738286 
L 255.052514 94.279945 
L 256.068826 91.029133 
L 257.085138 94.012051 
L 258.10145 102.068881 
L 259.117762 146.808272 
L 260.134074 147.256663 
L 261.150386 135.712006 
L 262.166698 148.828004 
L 263.18301 145.064135 
L 264.199322 106.249601 
L 265.215634 109.057671 
L 266.231946 102.846269 
L 267.248258 99.990854 
L 268.26457 105.448237 
L 269.280882 78.729117 
L 270.297194 153.245543 
L 271.313506 143.98093 
L 272.329818 100.492499 
L 273.34613 123.360307 
L 274.362441 83.506434 
L 275.378753 68.749501 
L 276.395065 89.841687 
L 277.411377 116.961774 
L 278.427689 89.746373 
L 279.444001 78.228951 
L 280.460313 106.764571 
L 281.476625 84.100867 
L 283.509249 159.037582 
L 284.525561 131.063585 
L 285.541873 182.605103 
L 286.558185 112.804366 
L 287.574497 115.871251 
L 288.590809 131.072921 
L 289.607121 123.290642 
L 290.623433 83.398659 
L 291.639745 151.251071 
L 293.672369 93.519621 
L 294.68868 98.926204 
L 295.704992 111.923353 
L 296.721304 165.766945 
L 297.737616 183.225536 
L 298.753928 164.104969 
L 299.77024 152.966294 
L 300.786552 54.172468 
L 301.802864 70.206899 
L 302.819176 129.850859 
L 303.835488 111.092032 
L 304.8518 133.8328 
L 305.868112 99.796922 
L 306.884424 86.697459 
L 307.900736 125.572537 
L 308.917048 135.970301 
L 309.93336 95.489096 
L 310.949672 83.025902 
L 311.965984 99.211865 
L 312.982296 100.026884 
L 313.998607 145.263024 
L 315.014919 134.169815 
L 316.031231 171.452633 
L 317.047543 128.087497 
L 318.063855 131.229151 
L 319.080167 191.326835 
L 320.096479 164.563711 
L 321.112791 167.365027 
L 322.129103 163.62097 
L 323.145415 143.304645 
L 324.161727 111.448577 
L 325.178039 135.957175 
L 326.194351 138.939983 
L 327.210663 102.738704 
L 328.226975 61.310994 
L 329.243287 94.736096 
L 330.259599 73.414245 
L 331.275911 125.422749 
L 332.292223 138.353655 
L 335.341158 55.351479 
L 336.35747 125.63122 
L 338.390094 153.222717 
L 339.406406 140.705777 
L 341.43903 98.117234 
L 342.455342 102.034146 
L 343.471654 87.614081 
L 344.487966 129.697987 
L 345.504278 116.515878 
L 346.52059 117.964211 
L 347.536902 114.529435 
L 348.553214 154.115701 
L 349.569526 110.767158 
L 350.585838 101.162414 
L 351.60215 99.097207 
L 352.618462 60.318981 
L 353.634773 36.038488 
L 354.651085 64.861965 
L 355.667397 100.73405 
L 356.683709 108.868679 
L 357.700021 77.804199 
L 358.716333 76.350902 
L 359.732645 97.444375 
L 360.748957 102.556732 
L 361.765269 119.520968 
L 362.781581 121.999732 
L 363.797893 85.66442 
L 364.814205 125.493037 
L 365.830517 145.433454 
L 366.846829 97.954789 
L 367.863141 75.71511 
L 368.879453 134.87171 
L 369.895765 79.406955 
L 370.912077 94.945836 
L 371.928389 116.099146 
L 372.944701 95.117273 
L 373.961012 94.725893 
L 374.977324 115.739879 
L 375.993636 131.15072 
L 375.993636 131.15072 
" style="fill:none;stroke:#008000;stroke-linecap:square;stroke-width:1.5;"/>
   </g>
   <g id="patch_7">
    <path d="M 56.9225 304.36 
L 56.9225 10.8 
" style="fill:none;stroke:#000000;stroke-linecap:square;stroke-linejoin:miter;stroke-width:0.8;"/>
   </g>
   <g id="patch_8">
    <path d="M 391.1875 304.36 
L 391.1875 10.8 
" style="fill:none;stroke:#000000;stroke-linecap:square;stroke-linejoin:miter;stroke-width:0.8;"/>
   </g>
   <g id="patch_9">
    <path d="M 56.9225 304.36 
L 391.1875 304.36 
" style="fill:none;stroke:#000000;stroke-linecap:square;stroke-linejoin:miter;stroke-width:0.8;"/>
   </g>
   <g id="patch_10">
    <path d="M 56.9225 10.8 
L 391.1875 10.8 
" style="fill:none;stroke:#000000;stroke-linecap:square;stroke-linejoin:miter;stroke-width:0.8;"/>
   </g>
  </g>
  <g id="axes_3">
   <g id="matplotlib.axis_4">
    <g id="ytick_17">
     <g id="line2d_26">
      <g>
       <use style="stroke:#000000;stroke-width:0.8;" x="391.1875" xlink:href="#ma37ded6763" y="291.145624"/>
      </g>
     </g>
     <g id="text_27">
      <!-- 0 -->
      <g style="fill:#bf00bf;" transform="translate(398.1875 294.944843)scale(0.1 -0.1)">
       <use xlink:href="#DejaVuSans-48"/>
      </g>
     </g>
    </g>
    <g id="ytick_18">
     <g id="line2d_27">
      <g>
       <use style="stroke:#000000;stroke-width:0.8;" x="391.1875" xlink:href="#ma37ded6763" y="236.900846"/>
      </g>
     </g>
     <g id="text_28">
      <!-- 100000 -->
      <g style="fill:#bf00bf;" transform="translate(398.1875 240.700065)scale(0.1 -0.1)">
       <use xlink:href="#DejaVuSans-49"/>
       <use x="63.623047" xlink:href="#DejaVuSans-48"/>
       <use x="127.246094" xlink:href="#DejaVuSans-48"/>
       <use x="190.869141" xlink:href="#DejaVuSans-48"/>
       <use x="254.492188" xlink:href="#DejaVuSans-48"/>
       <use x="318.115234" xlink:href="#DejaVuSans-48"/>
      </g>
     </g>
    </g>
    <g id="ytick_19">
     <g id="line2d_28">
      <g>
       <use style="stroke:#000000;stroke-width:0.8;" x="391.1875" xlink:href="#ma37ded6763" y="182.656069"/>
      </g>
     </g>
     <g id="text_29">
      <!-- 200000 -->
      <g style="fill:#bf00bf;" transform="translate(398.1875 186.455287)scale(0.1 -0.1)">
       <use xlink:href="#DejaVuSans-50"/>
       <use x="63.623047" xlink:href="#DejaVuSans-48"/>
       <use x="127.246094" xlink:href="#DejaVuSans-48"/>
       <use x="190.869141" xlink:href="#DejaVuSans-48"/>
       <use x="254.492188" xlink:href="#DejaVuSans-48"/>
       <use x="318.115234" xlink:href="#DejaVuSans-48"/>
      </g>
     </g>
    </g>
    <g id="ytick_20">
     <g id="line2d_29">
      <g>
       <use style="stroke:#000000;stroke-width:0.8;" x="391.1875" xlink:href="#ma37ded6763" y="128.411291"/>
      </g>
     </g>
     <g id="text_30">
      <!-- 300000 -->
      <g style="fill:#bf00bf;" transform="translate(398.1875 132.21051)scale(0.1 -0.1)">
       <use xlink:href="#DejaVuSans-51"/>
       <use x="63.623047" xlink:href="#DejaVuSans-48"/>
       <use x="127.246094" xlink:href="#DejaVuSans-48"/>
       <use x="190.869141" xlink:href="#DejaVuSans-48"/>
       <use x="254.492188" xlink:href="#DejaVuSans-48"/>
       <use x="318.115234" xlink:href="#DejaVuSans-48"/>
      </g>
     </g>
    </g>
    <g id="ytick_21">
     <g id="line2d_30">
      <g>
       <use style="stroke:#000000;stroke-width:0.8;" x="391.1875" xlink:href="#ma37ded6763" y="74.166513"/>
      </g>
     </g>
     <g id="text_31">
      <!-- 400000 -->
      <g style="fill:#bf00bf;" transform="translate(398.1875 77.965732)scale(0.1 -0.1)">
       <use xlink:href="#DejaVuSans-52"/>
       <use x="63.623047" xlink:href="#DejaVuSans-48"/>
       <use x="127.246094" xlink:href="#DejaVuSans-48"/>
       <use x="190.869141" xlink:href="#DejaVuSans-48"/>
       <use x="254.492188" xlink:href="#DejaVuSans-48"/>
       <use x="318.115234" xlink:href="#DejaVuSans-48"/>
      </g>
     </g>
    </g>
    <g id="ytick_22">
     <g id="line2d_31">
      <g>
       <use style="stroke:#000000;stroke-width:0.8;" x="391.1875" xlink:href="#ma37ded6763" y="19.921736"/>
      </g>
     </g>
     <g id="text_32">
      <!-- 500000 -->
      <g style="fill:#bf00bf;" transform="translate(398.1875 23.720954)scale(0.1 -0.1)">
       <use xlink:href="#DejaVuSans-53"/>
       <use x="63.623047" xlink:href="#DejaVuSans-48"/>
       <use x="127.246094" xlink:href="#DejaVuSans-48"/>
       <use x="190.869141" xlink:href="#DejaVuSans-48"/>
       <use x="254.492188" xlink:href="#DejaVuSans-48"/>
       <use x="318.115234" xlink:href="#DejaVuSans-48"/>
      </g>
     </g>
    </g>
    <g id="text_33">
     <!-- Profit -->
     <defs>
      <path d="M 18.3125 70.21875 
L 18.3125 54.6875 
L 36.8125 54.6875 
L 36.8125 47.703125 
L 18.3125 47.703125 
L 18.3125 18.015625 
Q 18.3125 11.328125 20.140625 9.421875 
Q 21.96875 7.515625 27.59375 7.515625 
L 36.8125 7.515625 
L 36.8125 0 
L 27.59375 0 
Q 17.1875 0 13.234375 3.875 
Q 9.28125 7.765625 9.28125 18.015625 
L 9.28125 47.703125 
L 2.6875 47.703125 
L 2.6875 54.6875 
L 9.28125 54.6875 
L 9.28125 70.21875 
z
" id="DejaVuSans-116"/>
     </defs>
     <g style="fill:#bf00bf;" transform="translate(447.960938 170.619062)rotate(-90)scale(0.1 -0.1)">
      <use xlink:href="#DejaVuSans-80"/>
      <use x="58.552734" xlink:href="#DejaVuSans-114"/>
      <use x="97.416016" xlink:href="#DejaVuSans-111"/>
      <use x="158.597656" xlink:href="#DejaVuSans-102"/>
      <use x="193.802734" xlink:href="#DejaVuSans-105"/>
      <use x="221.585938" xlink:href="#DejaVuSans-116"/>
     </g>
    </g>
   </g>
   <g id="line2d_32">
    <path clip-path="url(#p4aebbbfc0f)" d="M 72.116364 291.016364 
L 73.132676 105.177343 
L 74.148988 104.892155 
L 75.165299 115.884656 
L 76.181611 120.086162 
L 77.197923 129.395356 
L 78.214235 115.848803 
L 80.246859 124.150811 
L 81.263171 138.358516 
L 82.279483 115.184808 
L 83.295795 157.859669 
L 84.312107 105.537244 
L 85.328419 134.769668 
L 86.344731 169.883584 
L 87.361043 107.376812 
L 88.377355 113.076958 
L 89.393667 76.16383 
L 90.409979 144.099108 
L 91.426291 144.386359 
L 92.442603 149.161469 
L 93.458915 101.31201 
L 94.475227 169.948152 
L 95.491538 152.085582 
L 96.50785 24.143636 
L 98.540474 149.128973 
L 99.556786 80.422483 
L 100.573098 163.748102 
L 101.58941 97.208255 
L 102.605722 125.626726 
L 103.622034 114.876277 
L 104.638346 140.541705 
L 105.654658 151.476253 
L 106.67097 131.110047 
L 107.687282 120.040641 
L 108.703594 116.103308 
L 109.719906 122.238888 
L 110.736218 37.281459 
L 111.75253 148.799801 
L 112.768842 67.247642 
L 113.785154 102.478437 
L 114.801465 89.531892 
L 115.817777 101.83227 
L 116.834089 108.109624 
L 117.850401 173.707926 
L 118.866713 123.174094 
L 119.883025 160.83943 
L 120.899337 145.652971 
L 121.915649 78.505349 
L 122.931961 140.650026 
L 123.948273 189.890845 
L 124.964585 147.53037 
L 125.980897 122.615176 
L 126.997209 70.74092 
L 128.013521 124.851904 
L 129.029833 93.219803 
L 130.046145 167.349854 
L 131.062457 127.451565 
L 132.078769 109.629959 
L 133.095081 158.384361 
L 134.111393 91.522184 
L 135.127704 153.009772 
L 136.144016 105.434604 
L 137.160328 104.368871 
L 138.17664 133.087846 
L 139.192952 124.602422 
L 140.209264 76.558963 
L 141.225576 77.107656 
L 142.241888 42.292759 
L 144.274512 115.018702 
L 145.290824 168.911903 
L 146.307136 137.057857 
L 147.323448 121.520329 
L 148.33976 113.153889 
L 149.356072 148.664039 
L 150.372384 171.454841 
L 151.388696 150.823227 
L 152.405008 83.9633 
L 153.42132 95.400123 
L 154.437631 127.24517 
L 155.453943 118.47531 
L 156.470255 54.98944 
L 157.486567 141.528567 
L 158.502879 94.684218 
L 159.519191 143.798271 
L 160.535503 121.105761 
L 161.551815 141.887908 
L 162.568127 99.882898 
L 163.584439 96.706086 
L 164.600751 123.435516 
L 165.617063 165.85984 
L 166.633375 61.666277 
L 167.649687 88.586786 
L 168.665999 112.06565 
L 169.682311 128.741468 
L 170.698623 47.517451 
L 171.714935 81.044628 
L 172.731247 97.091573 
L 173.747559 76.151356 
L 174.76387 143.835024 
L 175.780182 111.54466 
L 176.796494 136.198629 
L 177.812806 107.549001 
L 178.829118 140.49881 
L 179.84543 137.654228 
L 180.861742 89.171472 
L 181.878054 79.643134 
L 182.894366 98.062706 
L 183.910678 169.599188 
L 184.92699 152.512752 
L 185.943302 82.603587 
L 186.959614 79.139306 
L 187.975926 126.464234 
L 188.992238 129.673311 
L 190.00855 136.052885 
L 191.024862 134.564487 
L 192.041174 91.04089 
L 193.057486 63.552655 
L 194.073798 94.74011 
L 195.090109 89.608352 
L 196.106421 168.797657 
L 197.122733 163.074562 
L 198.139045 137.192571 
L 199.155357 95.940541 
L 200.171669 84.217284 
L 201.187981 134.045008 
L 202.204293 137.073428 
L 203.220605 112.566459 
L 204.236917 98.745392 
L 205.253229 75.750013 
L 206.269541 183.952978 
L 207.285853 88.63653 
L 208.302165 104.764063 
L 209.318477 143.773694 
L 210.334789 58.445832 
L 211.351101 125.176209 
L 212.367413 128.320834 
L 213.383725 137.355973 
L 214.400036 86.714793 
L 215.416348 91.975559 
L 216.43266 37.907148 
L 217.448972 116.172432 
L 218.465284 144.947266 
L 219.481596 151.563797 
L 220.497908 99.320916 
L 221.51422 86.4691 
L 222.530532 106.721886 
L 223.546844 100.461786 
L 224.563156 95.50186 
L 225.579468 46.607267 
L 226.59578 78.939375 
L 228.628404 110.46388 
L 229.644716 163.850552 
L 230.661028 178.116212 
L 231.67734 108.870442 
L 232.693652 66.915091 
L 233.709964 100.953984 
L 234.726275 119.778451 
L 235.742587 81.968438 
L 236.758899 113.723298 
L 237.775211 138.402853 
L 238.791523 137.084582 
L 239.807835 142.993868 
L 240.824147 125.37829 
L 241.840459 142.991484 
L 242.856771 136.424145 
L 243.873083 128.654048 
L 245.905707 106.206598 
L 246.922019 128.810149 
L 247.938331 89.020701 
L 248.954643 80.458429 
L 249.970955 143.31395 
L 250.987267 37.476525 
L 252.003579 129.85856 
L 253.019891 118.525374 
L 254.036202 121.846544 
L 255.052514 92.605158 
L 256.068826 88.924613 
L 257.085138 90.368543 
L 258.10145 100.623098 
L 259.117762 141.991869 
L 260.134074 144.268985 
L 261.150386 133.598563 
L 262.166698 145.514166 
L 263.18301 140.070538 
L 264.199322 99.559805 
L 265.215634 106.979899 
L 266.231946 101.873507 
L 267.248258 99.18 
L 268.26457 102.468215 
L 269.280882 75.524552 
L 270.297194 148.125102 
L 271.313506 140.429975 
L 272.329818 96.976211 
L 273.34613 120.832397 
L 274.362441 82.135915 
L 275.378753 65.035858 
L 276.395065 86.449542 
L 277.411377 111.383857 
L 278.427689 85.733959 
L 279.444001 77.646233 
L 280.460313 101.250516 
L 281.476625 83.719756 
L 282.492937 117.517439 
L 283.509249 155.750722 
L 284.525561 128.697512 
L 285.541873 179.289438 
L 286.558185 108.760459 
L 287.574497 111.60601 
L 288.590809 127.971189 
L 289.607121 119.524261 
L 290.623433 81.475903 
L 291.639745 150.353772 
L 293.672369 89.699763 
L 294.68868 98.13069 
L 295.704992 109.373744 
L 296.721304 161.984196 
L 297.737616 181.561165 
L 298.753928 160.771852 
L 299.77024 149.365981 
L 300.786552 54.75138 
L 301.802864 68.244928 
L 302.819176 126.301917 
L 303.835488 109.073576 
L 304.8518 132.315613 
L 305.868112 94.698837 
L 306.884424 83.157894 
L 307.900736 120.366232 
L 308.917048 132.65826 
L 309.93336 93.434423 
L 310.949672 80.610642 
L 311.965984 96.661966 
L 312.982296 98.140809 
L 313.998607 142.881416 
L 315.014919 131.336859 
L 316.031231 168.751605 
L 317.047543 122.266133 
L 318.063855 126.88153 
L 319.080167 188.158435 
L 320.096479 162.302428 
L 321.112791 164.369532 
L 322.129103 159.682523 
L 323.145415 140.606242 
L 324.161727 108.088589 
L 325.178039 132.040533 
L 326.194351 135.249328 
L 328.226975 59.7634 
L 329.243287 92.079015 
L 330.259599 71.348237 
L 331.275911 120.739654 
L 332.292223 134.700444 
L 333.308535 105.804542 
L 335.341158 57.046356 
L 336.35747 124.001448 
L 338.390094 149.602345 
L 339.406406 136.545096 
L 341.43903 96.009377 
L 342.455342 100.957559 
L 343.471654 84.841194 
L 344.487966 126.54326 
L 345.504278 114.665009 
L 346.52059 112.591169 
L 347.536902 112.253608 
L 348.553214 150.487947 
L 349.569526 107.568792 
L 350.585838 95.470938 
L 351.60215 95.296311 
L 352.618462 57.531072 
L 353.634773 33.653864 
L 354.651085 59.67599 
L 355.667397 98.049123 
L 356.683709 108.385162 
L 357.700021 76.991936 
L 358.716333 73.682518 
L 359.732645 97.982867 
L 360.748957 97.246952 
L 361.765269 116.886163 
L 362.781581 120.226484 
L 363.797893 86.184259 
L 364.814205 122.430261 
L 365.830517 142.986088 
L 366.846829 96.057175 
L 367.863141 72.180931 
L 368.879453 131.390285 
L 369.895765 78.090611 
L 370.912077 92.119361 
L 371.928389 109.9455 
L 372.944701 91.121127 
L 373.961012 91.394067 
L 374.977324 114.855306 
L 375.993636 129.178167 
L 375.993636 129.178167 
" style="fill:none;stroke:#ff0000;stroke-linecap:square;stroke-width:1.5;"/>
   </g>
   <g id="line2d_33">
    <path clip-path="url(#p4aebbbfc0f)" d="M 72.116364 233.498614 
L 375.993636 233.498614 
L 375.993636 233.498614 
" style="fill:none;stroke:#bf00bf;stroke-linecap:square;stroke-width:1.5;"/>
   </g>
   <g id="patch_11">
    <path d="M 56.9225 304.36 
L 56.9225 10.8 
" style="fill:none;stroke:#000000;stroke-linecap:square;stroke-linejoin:miter;stroke-width:0.8;"/>
   </g>
   <g id="patch_12">
    <path d="M 391.1875 304.36 
L 391.1875 10.8 
" style="fill:none;stroke:#000000;stroke-linecap:square;stroke-linejoin:miter;stroke-width:0.8;"/>
   </g>
   <g id="patch_13">
    <path d="M 56.9225 304.36 
L 391.1875 304.36 
" style="fill:none;stroke:#000000;stroke-linecap:square;stroke-linejoin:miter;stroke-width:0.8;"/>
   </g>
   <g id="patch_14">
    <path d="M 56.9225 10.8 
L 391.1875 10.8 
" style="fill:none;stroke:#000000;stroke-linecap:square;stroke-linejoin:miter;stroke-width:0.8;"/>
   </g>
   <g id="legend_1">
    <g id="patch_15">
     <path d="M 245.54375 299.36 
L 384.1875 299.36 
Q 386.1875 299.36 386.1875 297.36 
L 386.1875 269.00375 
Q 386.1875 267.00375 384.1875 267.00375 
L 245.54375 267.00375 
Q 243.54375 267.00375 243.54375 269.00375 
L 243.54375 297.36 
Q 243.54375 299.36 245.54375 299.36 
z
" style="fill:#ffffff;opacity:0.8;stroke:#cccccc;stroke-linejoin:miter;"/>
    </g>
    <g id="line2d_34">
     <path d="M 247.54375 275.102187 
L 267.54375 275.102187 
" style="fill:none;stroke:#ff0000;stroke-linecap:square;stroke-width:1.5;"/>
    </g>
    <g id="line2d_35"/>
    <g id="text_34">
     <!-- Model Profit -->
     <g transform="translate(275.54375 278.602187)scale(0.1 -0.1)">
      <use xlink:href="#DejaVuSans-77"/>
      <use x="86.279297" xlink:href="#DejaVuSans-111"/>
      <use x="147.460938" xlink:href="#DejaVuSans-100"/>
      <use x="210.9375" xlink:href="#DejaVuSans-101"/>
      <use x="272.460938" xlink:href="#DejaVuSans-108"/>
      <use x="300.244141" xlink:href="#DejaVuSans-32"/>
      <use x="332.03125" xlink:href="#DejaVuSans-80"/>
      <use x="390.583984" xlink:href="#DejaVuSans-114"/>
      <use x="429.447266" xlink:href="#DejaVuSans-111"/>
      <use x="490.628906" xlink:href="#DejaVuSans-102"/>
      <use x="525.833984" xlink:href="#DejaVuSans-105"/>
      <use x="553.617188" xlink:href="#DejaVuSans-116"/>
     </g>
    </g>
    <g id="line2d_36">
     <path d="M 247.54375 289.780312 
L 267.54375 289.780312 
" style="fill:none;stroke:#bf00bf;stroke-linecap:square;stroke-width:1.5;"/>
    </g>
    <g id="line2d_37"/>
    <g id="text_35">
     <!-- Mean Profit (Dataset) -->
     <defs>
      <path d="M 31 75.875 
Q 24.46875 64.65625 21.28125 53.65625 
Q 18.109375 42.671875 18.109375 31.390625 
Q 18.109375 20.125 21.3125 9.0625 
Q 24.515625 -2 31 -13.1875 
L 23.1875 -13.1875 
Q 15.875 -1.703125 12.234375 9.375 
Q 8.59375 20.453125 8.59375 31.390625 
Q 8.59375 42.28125 12.203125 53.3125 
Q 15.828125 64.359375 23.1875 75.875 
z
" id="DejaVuSans-40"/>
      <path d="M 8.015625 75.875 
L 15.828125 75.875 
Q 23.140625 64.359375 26.78125 53.3125 
Q 30.421875 42.28125 30.421875 31.390625 
Q 30.421875 20.453125 26.78125 9.375 
Q 23.140625 -1.703125 15.828125 -13.1875 
L 8.015625 -13.1875 
Q 14.5 -2 17.703125 9.0625 
Q 20.90625 20.125 20.90625 31.390625 
Q 20.90625 42.671875 17.703125 53.65625 
Q 14.5 64.65625 8.015625 75.875 
z
" id="DejaVuSans-41"/>
     </defs>
     <g transform="translate(275.54375 293.280312)scale(0.1 -0.1)">
      <use xlink:href="#DejaVuSans-77"/>
      <use x="86.279297" xlink:href="#DejaVuSans-101"/>
      <use x="147.802734" xlink:href="#DejaVuSans-97"/>
      <use x="209.082031" xlink:href="#DejaVuSans-110"/>
      <use x="272.460938" xlink:href="#DejaVuSans-32"/>
      <use x="304.248047" xlink:href="#DejaVuSans-80"/>
      <use x="362.800781" xlink:href="#DejaVuSans-114"/>
      <use x="401.664062" xlink:href="#DejaVuSans-111"/>
      <use x="462.845703" xlink:href="#DejaVuSans-102"/>
      <use x="498.050781" xlink:href="#DejaVuSans-105"/>
      <use x="525.833984" xlink:href="#DejaVuSans-116"/>
      <use x="565.042969" xlink:href="#DejaVuSans-32"/>
      <use x="596.830078" xlink:href="#DejaVuSans-40"/>
      <use x="635.84375" xlink:href="#DejaVuSans-68"/>
      <use x="712.845703" xlink:href="#DejaVuSans-97"/>
      <use x="774.125" xlink:href="#DejaVuSans-116"/>
      <use x="813.333984" xlink:href="#DejaVuSans-97"/>
      <use x="874.613281" xlink:href="#DejaVuSans-115"/>
      <use x="926.712891" xlink:href="#DejaVuSans-101"/>
      <use x="988.236328" xlink:href="#DejaVuSans-116"/>
      <use x="1027.445312" xlink:href="#DejaVuSans-41"/>
     </g>
    </g>
   </g>
  </g>
  <g id="text_36">
   <!-- A3C price vs Exchange vs Profits -->
   <defs>
    <path d="M 64.40625 67.28125 
L 64.40625 56.890625 
Q 59.421875 61.53125 53.78125 63.8125 
Q 48.140625 66.109375 41.796875 66.109375 
Q 29.296875 66.109375 22.65625 58.46875 
Q 16.015625 50.828125 16.015625 36.375 
Q 16.015625 21.96875 22.65625 14.328125 
Q 29.296875 6.6875 41.796875 6.6875 
Q 48.140625 6.6875 53.78125 8.984375 
Q 59.421875 11.28125 64.40625 15.921875 
L 64.40625 5.609375 
Q 59.234375 2.09375 53.4375 0.328125 
Q 47.65625 -1.421875 41.21875 -1.421875 
Q 24.65625 -1.421875 15.125 8.703125 
Q 5.609375 18.84375 5.609375 36.375 
Q 5.609375 53.953125 15.125 64.078125 
Q 24.65625 74.21875 41.21875 74.21875 
Q 47.75 74.21875 53.53125 72.484375 
Q 59.328125 70.75 64.40625 67.28125 
z
" id="DejaVuSans-67"/>
    <path d="M 54.890625 54.6875 
L 35.109375 28.078125 
L 55.90625 0 
L 45.3125 0 
L 29.390625 21.484375 
L 13.484375 0 
L 2.875 0 
L 24.125 28.609375 
L 4.6875 54.6875 
L 15.28125 54.6875 
L 29.78125 35.203125 
L 44.28125 54.6875 
z
" id="DejaVuSans-120"/>
    <path d="M 54.890625 33.015625 
L 54.890625 0 
L 45.90625 0 
L 45.90625 32.71875 
Q 45.90625 40.484375 42.875 44.328125 
Q 39.84375 48.1875 33.796875 48.1875 
Q 26.515625 48.1875 22.3125 43.546875 
Q 18.109375 38.921875 18.109375 30.90625 
L 18.109375 0 
L 9.078125 0 
L 9.078125 75.984375 
L 18.109375 75.984375 
L 18.109375 46.1875 
Q 21.34375 51.125 25.703125 53.5625 
Q 30.078125 56 35.796875 56 
Q 45.21875 56 50.046875 50.171875 
Q 54.890625 44.34375 54.890625 33.015625 
z
" id="DejaVuSans-104"/>
   </defs>
   <g transform="translate(116.0375 17.549812)scale(0.14 -0.14)">
    <use xlink:href="#DejaVuSans-65"/>
    <use x="68.408203" xlink:href="#DejaVuSans-51"/>
    <use x="132.03125" xlink:href="#DejaVuSans-67"/>
    <use x="201.855469" xlink:href="#DejaVuSans-32"/>
    <use x="233.642578" xlink:href="#DejaVuSans-112"/>
    <use x="297.119141" xlink:href="#DejaVuSans-114"/>
    <use x="338.232422" xlink:href="#DejaVuSans-105"/>
    <use x="366.015625" xlink:href="#DejaVuSans-99"/>
    <use x="420.996094" xlink:href="#DejaVuSans-101"/>
    <use x="482.519531" xlink:href="#DejaVuSans-32"/>
    <use x="514.306641" xlink:href="#DejaVuSans-118"/>
    <use x="573.486328" xlink:href="#DejaVuSans-115"/>
    <use x="625.585938" xlink:href="#DejaVuSans-32"/>
    <use x="657.373047" xlink:href="#DejaVuSans-69"/>
    <use x="720.556641" xlink:href="#DejaVuSans-120"/>
    <use x="777.986328" xlink:href="#DejaVuSans-99"/>
    <use x="832.966797" xlink:href="#DejaVuSans-104"/>
    <use x="896.345703" xlink:href="#DejaVuSans-97"/>
    <use x="957.625" xlink:href="#DejaVuSans-110"/>
    <use x="1021.003906" xlink:href="#DejaVuSans-103"/>
    <use x="1084.480469" xlink:href="#DejaVuSans-101"/>
    <use x="1146.003906" xlink:href="#DejaVuSans-32"/>
    <use x="1177.791016" xlink:href="#DejaVuSans-118"/>
    <use x="1236.970703" xlink:href="#DejaVuSans-115"/>
    <use x="1289.070312" xlink:href="#DejaVuSans-32"/>
    <use x="1320.857422" xlink:href="#DejaVuSans-80"/>
    <use x="1379.410156" xlink:href="#DejaVuSans-114"/>
    <use x="1418.273438" xlink:href="#DejaVuSans-111"/>
    <use x="1479.455078" xlink:href="#DejaVuSans-102"/>
    <use x="1514.660156" xlink:href="#DejaVuSans-105"/>
    <use x="1542.443359" xlink:href="#DejaVuSans-116"/>
    <use x="1581.652344" xlink:href="#DejaVuSans-115"/>
   </g>
  </g>
 </g>
 <defs>
  <clipPath id="p4aebbbfc0f">
   <rect height="293.56" width="334.265" x="56.9225" y="10.8"/>
  </clipPath>
 </defs>
</svg>
