<?xml version="1.0" encoding="utf-8" standalone="no"?>
<!DOCTYPE svg PUBLIC "-//W3C//DTD SVG 1.1//EN"
  "http://www.w3.org/Graphics/SVG/1.1/DTD/svg11.dtd">
<!-- Created with matplotlib (https://matplotlib.org/) -->
<svg height="345.6pt" version="1.1" viewBox="0 0 460.8 345.6" width="460.8pt" xmlns="http://www.w3.org/2000/svg" xmlns:xlink="http://www.w3.org/1999/xlink">
 <defs>
  <style type="text/css">
*{stroke-linecap:butt;stroke-linejoin:round;}
  </style>
 </defs>
 <g id="figure_1">
  <g id="patch_1">
   <path d="M 0 345.6 
L 460.8 345.6 
L 460.8 0 
L 0 0 
z
" style="fill:#ffffff;"/>
  </g>
  <g id="axes_1">
   <g id="patch_2">
    <path d="M 63.245 304.36 
L 397.555 304.36 
L 397.555 11.745158 
L 63.245 11.745158 
z
" style="fill:#ffffff;"/>
   </g>
   <g id="matplotlib.axis_1">
    <g id="xtick_1">
     <g id="line2d_1">
      <defs>
       <path d="M 0 0 
L 0 3.5 
" id="m29b6f77cf6" style="stroke:#000000;stroke-width:0.8;"/>
      </defs>
      <g>
       <use style="stroke:#000000;stroke-width:0.8;" x="78.440909" xlink:href="#m29b6f77cf6" y="304.36"/>
      </g>
     </g>
     <g id="text_1">
      <!-- 0 -->
      <defs>
       <path d="M 31.78125 66.40625 
Q 24.171875 66.40625 20.328125 58.90625 
Q 16.5 51.421875 16.5 36.375 
Q 16.5 21.390625 20.328125 13.890625 
Q 24.171875 6.390625 31.78125 6.390625 
Q 39.453125 6.390625 43.28125 13.890625 
Q 47.125 21.390625 47.125 36.375 
Q 47.125 51.421875 43.28125 58.90625 
Q 39.453125 66.40625 31.78125 66.40625 
z
M 31.78125 74.21875 
Q 44.046875 74.21875 50.515625 64.515625 
Q 56.984375 54.828125 56.984375 36.375 
Q 56.984375 17.96875 50.515625 8.265625 
Q 44.046875 -1.421875 31.78125 -1.421875 
Q 19.53125 -1.421875 13.0625 8.265625 
Q 6.59375 17.96875 6.59375 36.375 
Q 6.59375 54.828125 13.0625 64.515625 
Q 19.53125 74.21875 31.78125 74.21875 
z
" id="DejaVuSans-48"/>
      </defs>
      <g transform="translate(75.259659 318.958437)scale(0.1 -0.1)">
       <use xlink:href="#DejaVuSans-48"/>
      </g>
     </g>
    </g>
    <g id="xtick_2">
     <g id="line2d_2">
      <g>
       <use style="stroke:#000000;stroke-width:0.8;" x="129.263348" xlink:href="#m29b6f77cf6" y="304.36"/>
      </g>
     </g>
     <g id="text_2">
      <!-- 50 -->
      <defs>
       <path d="M 10.796875 72.90625 
L 49.515625 72.90625 
L 49.515625 64.59375 
L 19.828125 64.59375 
L 19.828125 46.734375 
Q 21.96875 47.46875 24.109375 47.828125 
Q 26.265625 48.1875 28.421875 48.1875 
Q 40.625 48.1875 47.75 41.5 
Q 54.890625 34.8125 54.890625 23.390625 
Q 54.890625 11.625 47.5625 5.09375 
Q 40.234375 -1.421875 26.90625 -1.421875 
Q 22.3125 -1.421875 17.546875 -0.640625 
Q 12.796875 0.140625 7.71875 1.703125 
L 7.71875 11.625 
Q 12.109375 9.234375 16.796875 8.0625 
Q 21.484375 6.890625 26.703125 6.890625 
Q 35.15625 6.890625 40.078125 11.328125 
Q 45.015625 15.765625 45.015625 23.390625 
Q 45.015625 31 40.078125 35.4375 
Q 35.15625 39.890625 26.703125 39.890625 
Q 22.75 39.890625 18.8125 39.015625 
Q 14.890625 38.140625 10.796875 36.28125 
z
" id="DejaVuSans-53"/>
      </defs>
      <g transform="translate(122.900848 318.958437)scale(0.1 -0.1)">
       <use xlink:href="#DejaVuSans-53"/>
       <use x="63.623047" xlink:href="#DejaVuSans-48"/>
      </g>
     </g>
    </g>
    <g id="xtick_3">
     <g id="line2d_3">
      <g>
       <use style="stroke:#000000;stroke-width:0.8;" x="180.085786" xlink:href="#m29b6f77cf6" y="304.36"/>
      </g>
     </g>
     <g id="text_3">
      <!-- 100 -->
      <defs>
       <path d="M 12.40625 8.296875 
L 28.515625 8.296875 
L 28.515625 63.921875 
L 10.984375 60.40625 
L 10.984375 69.390625 
L 28.421875 72.90625 
L 38.28125 72.90625 
L 38.28125 8.296875 
L 54.390625 8.296875 
L 54.390625 0 
L 12.40625 0 
z
" id="DejaVuSans-49"/>
      </defs>
      <g transform="translate(170.542036 318.958437)scale(0.1 -0.1)">
       <use xlink:href="#DejaVuSans-49"/>
       <use x="63.623047" xlink:href="#DejaVuSans-48"/>
       <use x="127.246094" xlink:href="#DejaVuSans-48"/>
      </g>
     </g>
    </g>
    <g id="xtick_4">
     <g id="line2d_4">
      <g>
       <use style="stroke:#000000;stroke-width:0.8;" x="230.908224" xlink:href="#m29b6f77cf6" y="304.36"/>
      </g>
     </g>
     <g id="text_4">
      <!-- 150 -->
      <g transform="translate(221.364474 318.958437)scale(0.1 -0.1)">
       <use xlink:href="#DejaVuSans-49"/>
       <use x="63.623047" xlink:href="#DejaVuSans-53"/>
       <use x="127.246094" xlink:href="#DejaVuSans-48"/>
      </g>
     </g>
    </g>
    <g id="xtick_5">
     <g id="line2d_5">
      <g>
       <use style="stroke:#000000;stroke-width:0.8;" x="281.730663" xlink:href="#m29b6f77cf6" y="304.36"/>
      </g>
     </g>
     <g id="text_5">
      <!-- 200 -->
      <defs>
       <path d="M 19.1875 8.296875 
L 53.609375 8.296875 
L 53.609375 0 
L 7.328125 0 
L 7.328125 8.296875 
Q 12.9375 14.109375 22.625 23.890625 
Q 32.328125 33.6875 34.8125 36.53125 
Q 39.546875 41.84375 41.421875 45.53125 
Q 43.3125 49.21875 43.3125 52.78125 
Q 43.3125 58.59375 39.234375 62.25 
Q 35.15625 65.921875 28.609375 65.921875 
Q 23.96875 65.921875 18.8125 64.3125 
Q 13.671875 62.703125 7.8125 59.421875 
L 7.8125 69.390625 
Q 13.765625 71.78125 18.9375 73 
Q 24.125 74.21875 28.421875 74.21875 
Q 39.75 74.21875 46.484375 68.546875 
Q 53.21875 62.890625 53.21875 53.421875 
Q 53.21875 48.921875 51.53125 44.890625 
Q 49.859375 40.875 45.40625 35.40625 
Q 44.1875 33.984375 37.640625 27.21875 
Q 31.109375 20.453125 19.1875 8.296875 
z
" id="DejaVuSans-50"/>
      </defs>
      <g transform="translate(272.186913 318.958437)scale(0.1 -0.1)">
       <use xlink:href="#DejaVuSans-50"/>
       <use x="63.623047" xlink:href="#DejaVuSans-48"/>
       <use x="127.246094" xlink:href="#DejaVuSans-48"/>
      </g>
     </g>
    </g>
    <g id="xtick_6">
     <g id="line2d_6">
      <g>
       <use style="stroke:#000000;stroke-width:0.8;" x="332.553101" xlink:href="#m29b6f77cf6" y="304.36"/>
      </g>
     </g>
     <g id="text_6">
      <!-- 250 -->
      <g transform="translate(323.009351 318.958437)scale(0.1 -0.1)">
       <use xlink:href="#DejaVuSans-50"/>
       <use x="63.623047" xlink:href="#DejaVuSans-53"/>
       <use x="127.246094" xlink:href="#DejaVuSans-48"/>
      </g>
     </g>
    </g>
    <g id="xtick_7">
     <g id="line2d_7">
      <g>
       <use style="stroke:#000000;stroke-width:0.8;" x="383.37554" xlink:href="#m29b6f77cf6" y="304.36"/>
      </g>
     </g>
     <g id="text_7">
      <!-- 300 -->
      <defs>
       <path d="M 40.578125 39.3125 
Q 47.65625 37.796875 51.625 33 
Q 55.609375 28.21875 55.609375 21.1875 
Q 55.609375 10.40625 48.1875 4.484375 
Q 40.765625 -1.421875 27.09375 -1.421875 
Q 22.515625 -1.421875 17.65625 -0.515625 
Q 12.796875 0.390625 7.625 2.203125 
L 7.625 11.71875 
Q 11.71875 9.328125 16.59375 8.109375 
Q 21.484375 6.890625 26.8125 6.890625 
Q 36.078125 6.890625 40.9375 10.546875 
Q 45.796875 14.203125 45.796875 21.1875 
Q 45.796875 27.640625 41.28125 31.265625 
Q 36.765625 34.90625 28.71875 34.90625 
L 20.21875 34.90625 
L 20.21875 43.015625 
L 29.109375 43.015625 
Q 36.375 43.015625 40.234375 45.921875 
Q 44.09375 48.828125 44.09375 54.296875 
Q 44.09375 59.90625 40.109375 62.90625 
Q 36.140625 65.921875 28.71875 65.921875 
Q 24.65625 65.921875 20.015625 65.03125 
Q 15.375 64.15625 9.8125 62.3125 
L 9.8125 71.09375 
Q 15.4375 72.65625 20.34375 73.4375 
Q 25.25 74.21875 29.59375 74.21875 
Q 40.828125 74.21875 47.359375 69.109375 
Q 53.90625 64.015625 53.90625 55.328125 
Q 53.90625 49.265625 50.4375 45.09375 
Q 46.96875 40.921875 40.578125 39.3125 
z
" id="DejaVuSans-51"/>
      </defs>
      <g transform="translate(373.83179 318.958437)scale(0.1 -0.1)">
       <use xlink:href="#DejaVuSans-51"/>
       <use x="63.623047" xlink:href="#DejaVuSans-48"/>
       <use x="127.246094" xlink:href="#DejaVuSans-48"/>
      </g>
     </g>
    </g>
    <g id="text_8">
     <!-- Average of Per 7500 Episode -->
     <defs>
      <path d="M 34.1875 63.1875 
L 20.796875 26.90625 
L 47.609375 26.90625 
z
M 28.609375 72.90625 
L 39.796875 72.90625 
L 67.578125 0 
L 57.328125 0 
L 50.6875 18.703125 
L 17.828125 18.703125 
L 11.1875 0 
L 0.78125 0 
z
" id="DejaVuSans-65"/>
      <path d="M 2.984375 54.6875 
L 12.5 54.6875 
L 29.59375 8.796875 
L 46.6875 54.6875 
L 56.203125 54.6875 
L 35.6875 0 
L 23.484375 0 
z
" id="DejaVuSans-118"/>
      <path d="M 56.203125 29.59375 
L 56.203125 25.203125 
L 14.890625 25.203125 
Q 15.484375 15.921875 20.484375 11.0625 
Q 25.484375 6.203125 34.421875 6.203125 
Q 39.59375 6.203125 44.453125 7.46875 
Q 49.3125 8.734375 54.109375 11.28125 
L 54.109375 2.78125 
Q 49.265625 0.734375 44.1875 -0.34375 
Q 39.109375 -1.421875 33.890625 -1.421875 
Q 20.796875 -1.421875 13.15625 6.1875 
Q 5.515625 13.8125 5.515625 26.8125 
Q 5.515625 40.234375 12.765625 48.109375 
Q 20.015625 56 32.328125 56 
Q 43.359375 56 49.78125 48.890625 
Q 56.203125 41.796875 56.203125 29.59375 
z
M 47.21875 32.234375 
Q 47.125 39.59375 43.09375 43.984375 
Q 39.0625 48.390625 32.421875 48.390625 
Q 24.90625 48.390625 20.390625 44.140625 
Q 15.875 39.890625 15.1875 32.171875 
z
" id="DejaVuSans-101"/>
      <path d="M 41.109375 46.296875 
Q 39.59375 47.171875 37.8125 47.578125 
Q 36.03125 48 33.890625 48 
Q 26.265625 48 22.1875 43.046875 
Q 18.109375 38.09375 18.109375 28.8125 
L 18.109375 0 
L 9.078125 0 
L 9.078125 54.6875 
L 18.109375 54.6875 
L 18.109375 46.1875 
Q 20.953125 51.171875 25.484375 53.578125 
Q 30.03125 56 36.53125 56 
Q 37.453125 56 38.578125 55.875 
Q 39.703125 55.765625 41.0625 55.515625 
z
" id="DejaVuSans-114"/>
      <path d="M 34.28125 27.484375 
Q 23.390625 27.484375 19.1875 25 
Q 14.984375 22.515625 14.984375 16.5 
Q 14.984375 11.71875 18.140625 8.90625 
Q 21.296875 6.109375 26.703125 6.109375 
Q 34.1875 6.109375 38.703125 11.40625 
Q 43.21875 16.703125 43.21875 25.484375 
L 43.21875 27.484375 
z
M 52.203125 31.203125 
L 52.203125 0 
L 43.21875 0 
L 43.21875 8.296875 
Q 40.140625 3.328125 35.546875 0.953125 
Q 30.953125 -1.421875 24.3125 -1.421875 
Q 15.921875 -1.421875 10.953125 3.296875 
Q 6 8.015625 6 15.921875 
Q 6 25.140625 12.171875 29.828125 
Q 18.359375 34.515625 30.609375 34.515625 
L 43.21875 34.515625 
L 43.21875 35.40625 
Q 43.21875 41.609375 39.140625 45 
Q 35.0625 48.390625 27.6875 48.390625 
Q 23 48.390625 18.546875 47.265625 
Q 14.109375 46.140625 10.015625 43.890625 
L 10.015625 52.203125 
Q 14.9375 54.109375 19.578125 55.046875 
Q 24.21875 56 28.609375 56 
Q 40.484375 56 46.34375 49.84375 
Q 52.203125 43.703125 52.203125 31.203125 
z
" id="DejaVuSans-97"/>
      <path d="M 45.40625 27.984375 
Q 45.40625 37.75 41.375 43.109375 
Q 37.359375 48.484375 30.078125 48.484375 
Q 22.859375 48.484375 18.828125 43.109375 
Q 14.796875 37.75 14.796875 27.984375 
Q 14.796875 18.265625 18.828125 12.890625 
Q 22.859375 7.515625 30.078125 7.515625 
Q 37.359375 7.515625 41.375 12.890625 
Q 45.40625 18.265625 45.40625 27.984375 
z
M 54.390625 6.78125 
Q 54.390625 -7.171875 48.1875 -13.984375 
Q 42 -20.796875 29.203125 -20.796875 
Q 24.46875 -20.796875 20.265625 -20.09375 
Q 16.0625 -19.390625 12.109375 -17.921875 
L 12.109375 -9.1875 
Q 16.0625 -11.328125 19.921875 -12.34375 
Q 23.78125 -13.375 27.78125 -13.375 
Q 36.625 -13.375 41.015625 -8.765625 
Q 45.40625 -4.15625 45.40625 5.171875 
L 45.40625 9.625 
Q 42.625 4.78125 38.28125 2.390625 
Q 33.9375 0 27.875 0 
Q 17.828125 0 11.671875 7.65625 
Q 5.515625 15.328125 5.515625 27.984375 
Q 5.515625 40.671875 11.671875 48.328125 
Q 17.828125 56 27.875 56 
Q 33.9375 56 38.28125 53.609375 
Q 42.625 51.21875 45.40625 46.390625 
L 45.40625 54.6875 
L 54.390625 54.6875 
z
" id="DejaVuSans-103"/>
      <path id="DejaVuSans-32"/>
      <path d="M 30.609375 48.390625 
Q 23.390625 48.390625 19.1875 42.75 
Q 14.984375 37.109375 14.984375 27.296875 
Q 14.984375 17.484375 19.15625 11.84375 
Q 23.34375 6.203125 30.609375 6.203125 
Q 37.796875 6.203125 41.984375 11.859375 
Q 46.1875 17.53125 46.1875 27.296875 
Q 46.1875 37.015625 41.984375 42.703125 
Q 37.796875 48.390625 30.609375 48.390625 
z
M 30.609375 56 
Q 42.328125 56 49.015625 48.375 
Q 55.71875 40.765625 55.71875 27.296875 
Q 55.71875 13.875 49.015625 6.21875 
Q 42.328125 -1.421875 30.609375 -1.421875 
Q 18.84375 -1.421875 12.171875 6.21875 
Q 5.515625 13.875 5.515625 27.296875 
Q 5.515625 40.765625 12.171875 48.375 
Q 18.84375 56 30.609375 56 
z
" id="DejaVuSans-111"/>
      <path d="M 37.109375 75.984375 
L 37.109375 68.5 
L 28.515625 68.5 
Q 23.6875 68.5 21.796875 66.546875 
Q 19.921875 64.59375 19.921875 59.515625 
L 19.921875 54.6875 
L 34.71875 54.6875 
L 34.71875 47.703125 
L 19.921875 47.703125 
L 19.921875 0 
L 10.890625 0 
L 10.890625 47.703125 
L 2.296875 47.703125 
L 2.296875 54.6875 
L 10.890625 54.6875 
L 10.890625 58.5 
Q 10.890625 67.625 15.140625 71.796875 
Q 19.390625 75.984375 28.609375 75.984375 
z
" id="DejaVuSans-102"/>
      <path d="M 19.671875 64.796875 
L 19.671875 37.40625 
L 32.078125 37.40625 
Q 38.96875 37.40625 42.71875 40.96875 
Q 46.484375 44.53125 46.484375 51.125 
Q 46.484375 57.671875 42.71875 61.234375 
Q 38.96875 64.796875 32.078125 64.796875 
z
M 9.8125 72.90625 
L 32.078125 72.90625 
Q 44.34375 72.90625 50.609375 67.359375 
Q 56.890625 61.8125 56.890625 51.125 
Q 56.890625 40.328125 50.609375 34.8125 
Q 44.34375 29.296875 32.078125 29.296875 
L 19.671875 29.296875 
L 19.671875 0 
L 9.8125 0 
z
" id="DejaVuSans-80"/>
      <path d="M 8.203125 72.90625 
L 55.078125 72.90625 
L 55.078125 68.703125 
L 28.609375 0 
L 18.3125 0 
L 43.21875 64.59375 
L 8.203125 64.59375 
z
" id="DejaVuSans-55"/>
      <path d="M 9.8125 72.90625 
L 55.90625 72.90625 
L 55.90625 64.59375 
L 19.671875 64.59375 
L 19.671875 43.015625 
L 54.390625 43.015625 
L 54.390625 34.71875 
L 19.671875 34.71875 
L 19.671875 8.296875 
L 56.78125 8.296875 
L 56.78125 0 
L 9.8125 0 
z
" id="DejaVuSans-69"/>
      <path d="M 18.109375 8.203125 
L 18.109375 -20.796875 
L 9.078125 -20.796875 
L 9.078125 54.6875 
L 18.109375 54.6875 
L 18.109375 46.390625 
Q 20.953125 51.265625 25.265625 53.625 
Q 29.59375 56 35.59375 56 
Q 45.5625 56 51.78125 48.09375 
Q 58.015625 40.1875 58.015625 27.296875 
Q 58.015625 14.40625 51.78125 6.484375 
Q 45.5625 -1.421875 35.59375 -1.421875 
Q 29.59375 -1.421875 25.265625 0.953125 
Q 20.953125 3.328125 18.109375 8.203125 
z
M 48.6875 27.296875 
Q 48.6875 37.203125 44.609375 42.84375 
Q 40.53125 48.484375 33.40625 48.484375 
Q 26.265625 48.484375 22.1875 42.84375 
Q 18.109375 37.203125 18.109375 27.296875 
Q 18.109375 17.390625 22.1875 11.75 
Q 26.265625 6.109375 33.40625 6.109375 
Q 40.53125 6.109375 44.609375 11.75 
Q 48.6875 17.390625 48.6875 27.296875 
z
" id="DejaVuSans-112"/>
      <path d="M 9.421875 54.6875 
L 18.40625 54.6875 
L 18.40625 0 
L 9.421875 0 
z
M 9.421875 75.984375 
L 18.40625 75.984375 
L 18.40625 64.59375 
L 9.421875 64.59375 
z
" id="DejaVuSans-105"/>
      <path d="M 44.28125 53.078125 
L 44.28125 44.578125 
Q 40.484375 46.53125 36.375 47.5 
Q 32.28125 48.484375 27.875 48.484375 
Q 21.1875 48.484375 17.84375 46.4375 
Q 14.5 44.390625 14.5 40.28125 
Q 14.5 37.15625 16.890625 35.375 
Q 19.28125 33.59375 26.515625 31.984375 
L 29.59375 31.296875 
Q 39.15625 29.25 43.1875 25.515625 
Q 47.21875 21.78125 47.21875 15.09375 
Q 47.21875 7.46875 41.1875 3.015625 
Q 35.15625 -1.421875 24.609375 -1.421875 
Q 20.21875 -1.421875 15.453125 -0.5625 
Q 10.6875 0.296875 5.421875 2 
L 5.421875 11.28125 
Q 10.40625 8.6875 15.234375 7.390625 
Q 20.0625 6.109375 24.8125 6.109375 
Q 31.15625 6.109375 34.5625 8.28125 
Q 37.984375 10.453125 37.984375 14.40625 
Q 37.984375 18.0625 35.515625 20.015625 
Q 33.0625 21.96875 24.703125 23.78125 
L 21.578125 24.515625 
Q 13.234375 26.265625 9.515625 29.90625 
Q 5.8125 33.546875 5.8125 39.890625 
Q 5.8125 47.609375 11.28125 51.796875 
Q 16.75 56 26.8125 56 
Q 31.78125 56 36.171875 55.265625 
Q 40.578125 54.546875 44.28125 53.078125 
z
" id="DejaVuSans-115"/>
      <path d="M 45.40625 46.390625 
L 45.40625 75.984375 
L 54.390625 75.984375 
L 54.390625 0 
L 45.40625 0 
L 45.40625 8.203125 
Q 42.578125 3.328125 38.25 0.953125 
Q 33.9375 -1.421875 27.875 -1.421875 
Q 17.96875 -1.421875 11.734375 6.484375 
Q 5.515625 14.40625 5.515625 27.296875 
Q 5.515625 40.1875 11.734375 48.09375 
Q 17.96875 56 27.875 56 
Q 33.9375 56 38.25 53.625 
Q 42.578125 51.265625 45.40625 46.390625 
z
M 14.796875 27.296875 
Q 14.796875 17.390625 18.875 11.75 
Q 22.953125 6.109375 30.078125 6.109375 
Q 37.203125 6.109375 41.296875 11.75 
Q 45.40625 17.390625 45.40625 27.296875 
Q 45.40625 37.203125 41.296875 42.84375 
Q 37.203125 48.484375 30.078125 48.484375 
Q 22.953125 48.484375 18.875 42.84375 
Q 14.796875 37.203125 14.796875 27.296875 
z
" id="DejaVuSans-100"/>
     </defs>
     <g transform="translate(158.363281 332.636562)scale(0.1 -0.1)">
      <use xlink:href="#DejaVuSans-65"/>
      <use x="62.533203" xlink:href="#DejaVuSans-118"/>
      <use x="121.712891" xlink:href="#DejaVuSans-101"/>
      <use x="183.236328" xlink:href="#DejaVuSans-114"/>
      <use x="224.349609" xlink:href="#DejaVuSans-97"/>
      <use x="285.628906" xlink:href="#DejaVuSans-103"/>
      <use x="349.105469" xlink:href="#DejaVuSans-101"/>
      <use x="410.628906" xlink:href="#DejaVuSans-32"/>
      <use x="442.416016" xlink:href="#DejaVuSans-111"/>
      <use x="503.597656" xlink:href="#DejaVuSans-102"/>
      <use x="538.802734" xlink:href="#DejaVuSans-32"/>
      <use x="570.589844" xlink:href="#DejaVuSans-80"/>
      <use x="627.267578" xlink:href="#DejaVuSans-101"/>
      <use x="688.791016" xlink:href="#DejaVuSans-114"/>
      <use x="729.904297" xlink:href="#DejaVuSans-32"/>
      <use x="761.691406" xlink:href="#DejaVuSans-55"/>
      <use x="825.314453" xlink:href="#DejaVuSans-53"/>
      <use x="888.9375" xlink:href="#DejaVuSans-48"/>
      <use x="952.560547" xlink:href="#DejaVuSans-48"/>
      <use x="1016.183594" xlink:href="#DejaVuSans-32"/>
      <use x="1047.970703" xlink:href="#DejaVuSans-69"/>
      <use x="1111.154297" xlink:href="#DejaVuSans-112"/>
      <use x="1174.630859" xlink:href="#DejaVuSans-105"/>
      <use x="1202.414062" xlink:href="#DejaVuSans-115"/>
      <use x="1254.513672" xlink:href="#DejaVuSans-111"/>
      <use x="1315.695312" xlink:href="#DejaVuSans-100"/>
      <use x="1379.171875" xlink:href="#DejaVuSans-101"/>
     </g>
    </g>
   </g>
   <g id="matplotlib.axis_2">
    <g id="ytick_1">
     <g id="line2d_8">
      <defs>
       <path d="M 0 0 
L -3.5 0 
" id="me4b351013e" style="stroke:#000000;stroke-width:0.8;"/>
      </defs>
      <g>
       <use style="stroke:#000000;stroke-width:0.8;" x="63.245" xlink:href="#me4b351013e" y="291.095656"/>
      </g>
     </g>
     <g id="text_9">
      <!-- 0 -->
      <g style="fill:#ff0000;" transform="translate(49.8825 294.894874)scale(0.1 -0.1)">
       <use xlink:href="#DejaVuSans-48"/>
      </g>
     </g>
    </g>
    <g id="ytick_2">
     <g id="line2d_9">
      <g>
       <use style="stroke:#000000;stroke-width:0.8;" x="63.245" xlink:href="#me4b351013e" y="243.513802"/>
      </g>
     </g>
     <g id="text_10">
      <!-- 2000 -->
      <g style="fill:#ff0000;" transform="translate(30.795 247.31302)scale(0.1 -0.1)">
       <use xlink:href="#DejaVuSans-50"/>
       <use x="63.623047" xlink:href="#DejaVuSans-48"/>
       <use x="127.246094" xlink:href="#DejaVuSans-48"/>
       <use x="190.869141" xlink:href="#DejaVuSans-48"/>
      </g>
     </g>
    </g>
    <g id="ytick_3">
     <g id="line2d_10">
      <g>
       <use style="stroke:#000000;stroke-width:0.8;" x="63.245" xlink:href="#me4b351013e" y="195.931948"/>
      </g>
     </g>
     <g id="text_11">
      <!-- 4000 -->
      <defs>
       <path d="M 37.796875 64.3125 
L 12.890625 25.390625 
L 37.796875 25.390625 
z
M 35.203125 72.90625 
L 47.609375 72.90625 
L 47.609375 25.390625 
L 58.015625 25.390625 
L 58.015625 17.1875 
L 47.609375 17.1875 
L 47.609375 0 
L 37.796875 0 
L 37.796875 17.1875 
L 4.890625 17.1875 
L 4.890625 26.703125 
z
" id="DejaVuSans-52"/>
      </defs>
      <g style="fill:#ff0000;" transform="translate(30.795 199.731167)scale(0.1 -0.1)">
       <use xlink:href="#DejaVuSans-52"/>
       <use x="63.623047" xlink:href="#DejaVuSans-48"/>
       <use x="127.246094" xlink:href="#DejaVuSans-48"/>
       <use x="190.869141" xlink:href="#DejaVuSans-48"/>
      </g>
     </g>
    </g>
    <g id="ytick_4">
     <g id="line2d_11">
      <g>
       <use style="stroke:#000000;stroke-width:0.8;" x="63.245" xlink:href="#me4b351013e" y="148.350094"/>
      </g>
     </g>
     <g id="text_12">
      <!-- 6000 -->
      <defs>
       <path d="M 33.015625 40.375 
Q 26.375 40.375 22.484375 35.828125 
Q 18.609375 31.296875 18.609375 23.390625 
Q 18.609375 15.53125 22.484375 10.953125 
Q 26.375 6.390625 33.015625 6.390625 
Q 39.65625 6.390625 43.53125 10.953125 
Q 47.40625 15.53125 47.40625 23.390625 
Q 47.40625 31.296875 43.53125 35.828125 
Q 39.65625 40.375 33.015625 40.375 
z
M 52.59375 71.296875 
L 52.59375 62.3125 
Q 48.875 64.0625 45.09375 64.984375 
Q 41.3125 65.921875 37.59375 65.921875 
Q 27.828125 65.921875 22.671875 59.328125 
Q 17.53125 52.734375 16.796875 39.40625 
Q 19.671875 43.65625 24.015625 45.921875 
Q 28.375 48.1875 33.59375 48.1875 
Q 44.578125 48.1875 50.953125 41.515625 
Q 57.328125 34.859375 57.328125 23.390625 
Q 57.328125 12.15625 50.6875 5.359375 
Q 44.046875 -1.421875 33.015625 -1.421875 
Q 20.359375 -1.421875 13.671875 8.265625 
Q 6.984375 17.96875 6.984375 36.375 
Q 6.984375 53.65625 15.1875 63.9375 
Q 23.390625 74.21875 37.203125 74.21875 
Q 40.921875 74.21875 44.703125 73.484375 
Q 48.484375 72.75 52.59375 71.296875 
z
" id="DejaVuSans-54"/>
      </defs>
      <g style="fill:#ff0000;" transform="translate(30.795 152.149313)scale(0.1 -0.1)">
       <use xlink:href="#DejaVuSans-54"/>
       <use x="63.623047" xlink:href="#DejaVuSans-48"/>
       <use x="127.246094" xlink:href="#DejaVuSans-48"/>
       <use x="190.869141" xlink:href="#DejaVuSans-48"/>
      </g>
     </g>
    </g>
    <g id="ytick_5">
     <g id="line2d_12">
      <g>
       <use style="stroke:#000000;stroke-width:0.8;" x="63.245" xlink:href="#me4b351013e" y="100.76824"/>
      </g>
     </g>
     <g id="text_13">
      <!-- 8000 -->
      <defs>
       <path d="M 31.78125 34.625 
Q 24.75 34.625 20.71875 30.859375 
Q 16.703125 27.09375 16.703125 20.515625 
Q 16.703125 13.921875 20.71875 10.15625 
Q 24.75 6.390625 31.78125 6.390625 
Q 38.8125 6.390625 42.859375 10.171875 
Q 46.921875 13.96875 46.921875 20.515625 
Q 46.921875 27.09375 42.890625 30.859375 
Q 38.875 34.625 31.78125 34.625 
z
M 21.921875 38.8125 
Q 15.578125 40.375 12.03125 44.71875 
Q 8.5 49.078125 8.5 55.328125 
Q 8.5 64.0625 14.71875 69.140625 
Q 20.953125 74.21875 31.78125 74.21875 
Q 42.671875 74.21875 48.875 69.140625 
Q 55.078125 64.0625 55.078125 55.328125 
Q 55.078125 49.078125 51.53125 44.71875 
Q 48 40.375 41.703125 38.8125 
Q 48.828125 37.15625 52.796875 32.3125 
Q 56.78125 27.484375 56.78125 20.515625 
Q 56.78125 9.90625 50.3125 4.234375 
Q 43.84375 -1.421875 31.78125 -1.421875 
Q 19.734375 -1.421875 13.25 4.234375 
Q 6.78125 9.90625 6.78125 20.515625 
Q 6.78125 27.484375 10.78125 32.3125 
Q 14.796875 37.15625 21.921875 38.8125 
z
M 18.3125 54.390625 
Q 18.3125 48.734375 21.84375 45.5625 
Q 25.390625 42.390625 31.78125 42.390625 
Q 38.140625 42.390625 41.71875 45.5625 
Q 45.3125 48.734375 45.3125 54.390625 
Q 45.3125 60.0625 41.71875 63.234375 
Q 38.140625 66.40625 31.78125 66.40625 
Q 25.390625 66.40625 21.84375 63.234375 
Q 18.3125 60.0625 18.3125 54.390625 
z
" id="DejaVuSans-56"/>
      </defs>
      <g style="fill:#ff0000;" transform="translate(30.795 104.567459)scale(0.1 -0.1)">
       <use xlink:href="#DejaVuSans-56"/>
       <use x="63.623047" xlink:href="#DejaVuSans-48"/>
       <use x="127.246094" xlink:href="#DejaVuSans-48"/>
       <use x="190.869141" xlink:href="#DejaVuSans-48"/>
      </g>
     </g>
    </g>
    <g id="ytick_6">
     <g id="line2d_13">
      <g>
       <use style="stroke:#000000;stroke-width:0.8;" x="63.245" xlink:href="#me4b351013e" y="53.186386"/>
      </g>
     </g>
     <g id="text_14">
      <!-- 10000 -->
      <g style="fill:#ff0000;" transform="translate(24.4325 56.985605)scale(0.1 -0.1)">
       <use xlink:href="#DejaVuSans-49"/>
       <use x="63.623047" xlink:href="#DejaVuSans-48"/>
       <use x="127.246094" xlink:href="#DejaVuSans-48"/>
       <use x="190.869141" xlink:href="#DejaVuSans-48"/>
       <use x="254.492188" xlink:href="#DejaVuSans-48"/>
      </g>
     </g>
    </g>
    <g id="text_15">
     <!-- Demand -->
     <defs>
      <path d="M 19.671875 64.796875 
L 19.671875 8.109375 
L 31.59375 8.109375 
Q 46.6875 8.109375 53.6875 14.9375 
Q 60.6875 21.78125 60.6875 36.53125 
Q 60.6875 51.171875 53.6875 57.984375 
Q 46.6875 64.796875 31.59375 64.796875 
z
M 9.8125 72.90625 
L 30.078125 72.90625 
Q 51.265625 72.90625 61.171875 64.09375 
Q 71.09375 55.28125 71.09375 36.53125 
Q 71.09375 17.671875 61.125 8.828125 
Q 51.171875 0 30.078125 0 
L 9.8125 0 
z
" id="DejaVuSans-68"/>
      <path d="M 52 44.1875 
Q 55.375 50.25 60.0625 53.125 
Q 64.75 56 71.09375 56 
Q 79.640625 56 84.28125 50.015625 
Q 88.921875 44.046875 88.921875 33.015625 
L 88.921875 0 
L 79.890625 0 
L 79.890625 32.71875 
Q 79.890625 40.578125 77.09375 44.375 
Q 74.3125 48.1875 68.609375 48.1875 
Q 61.625 48.1875 57.5625 43.546875 
Q 53.515625 38.921875 53.515625 30.90625 
L 53.515625 0 
L 44.484375 0 
L 44.484375 32.71875 
Q 44.484375 40.625 41.703125 44.40625 
Q 38.921875 48.1875 33.109375 48.1875 
Q 26.21875 48.1875 22.15625 43.53125 
Q 18.109375 38.875 18.109375 30.90625 
L 18.109375 0 
L 9.078125 0 
L 9.078125 54.6875 
L 18.109375 54.6875 
L 18.109375 46.1875 
Q 21.1875 51.21875 25.484375 53.609375 
Q 29.78125 56 35.6875 56 
Q 41.65625 56 45.828125 52.96875 
Q 50 49.953125 52 44.1875 
z
" id="DejaVuSans-109"/>
      <path d="M 54.890625 33.015625 
L 54.890625 0 
L 45.90625 0 
L 45.90625 32.71875 
Q 45.90625 40.484375 42.875 44.328125 
Q 39.84375 48.1875 33.796875 48.1875 
Q 26.515625 48.1875 22.3125 43.546875 
Q 18.109375 38.921875 18.109375 30.90625 
L 18.109375 0 
L 9.078125 0 
L 9.078125 54.6875 
L 18.109375 54.6875 
L 18.109375 46.1875 
Q 21.34375 51.125 25.703125 53.5625 
Q 30.078125 56 35.796875 56 
Q 45.21875 56 50.046875 50.171875 
Q 54.890625 44.34375 54.890625 33.015625 
z
" id="DejaVuSans-110"/>
     </defs>
     <g style="fill:#ff0000;" transform="translate(18.352813 179.256485)rotate(-90)scale(0.1 -0.1)">
      <use xlink:href="#DejaVuSans-68"/>
      <use x="77.001953" xlink:href="#DejaVuSans-101"/>
      <use x="138.525391" xlink:href="#DejaVuSans-109"/>
      <use x="235.9375" xlink:href="#DejaVuSans-97"/>
      <use x="297.216797" xlink:href="#DejaVuSans-110"/>
      <use x="360.595703" xlink:href="#DejaVuSans-100"/>
     </g>
    </g>
   </g>
   <g id="line2d_14">
    <path clip-path="url(#p677a25b7e5)" d="M 78.440909 291.059325 
L 79.457358 25.045833 
L 80.473807 25.376085 
L 81.490255 25.221603 
L 82.506704 25.190503 
L 83.523153 25.297426 
L 84.539602 25.19742 
L 90.638294 25.320933 
L 91.654743 25.192681 
L 94.704089 25.221867 
L 95.720538 25.324131 
L 96.736987 25.173588 
L 101.819231 25.24721 
L 102.83568 25.432699 
L 104.868577 25.160625 
L 105.885026 25.359317 
L 106.901475 25.058345 
L 107.917923 25.381864 
L 108.934372 25.209004 
L 110.96727 25.314318 
L 111.983718 25.125142 
L 114.016616 25.274044 
L 116.049514 25.24254 
L 117.065962 25.494432 
L 118.082411 25.169774 
L 119.09886 25.350465 
L 121.131757 25.226781 
L 122.148206 25.355171 
L 123.164655 25.328876 
L 124.181104 25.100026 
L 125.197552 25.218366 
L 126.214001 25.13865 
L 127.23045 25.171097 
L 128.246899 25.352752 
L 130.279796 25.127771 
L 132.312694 25.220248 
L 133.329143 25.408308 
L 134.345591 25.224683 
L 146.542977 25.324646 
L 148.575874 25.469414 
L 149.592323 25.312001 
L 152.641669 25.178063 
L 153.658118 25.281057 
L 157.723913 25.16968 
L 158.740362 25.275311 
L 161.789708 25.341897 
L 162.806157 25.369476 
L 163.822606 25.203356 
L 166.871952 25.337317 
L 167.888401 25.193307 
L 169.921298 25.313139 
L 170.937747 25.196141 
L 171.954196 25.19304 
L 172.970645 25.353122 
L 176.019991 25.307093 
L 177.03644 25.401007 
L 178.052888 25.293721 
L 180.085786 25.370353 
L 181.102235 25.213355 
L 184.151581 25.24304 
L 186.184479 25.24415 
L 188.217376 25.354306 
L 189.233825 25.282137 
L 190.250274 25.078132 
L 193.29962 25.351498 
L 196.348966 25.180445 
L 199.398313 25.366325 
L 201.43121 25.297231 
L 202.447659 25.093281 
L 207.529903 25.239105 
L 208.546351 25.144465 
L 209.5628 25.342542 
L 212.612147 25.138093 
L 213.628595 25.31192 
L 215.661493 25.189588 
L 216.677942 25.410326 
L 218.710839 25.148132 
L 220.743737 25.346185 
L 221.760185 25.29812 
L 222.776634 25.473068 
L 224.809532 25.139764 
L 229.891776 25.37609 
L 230.908224 25.26753 
L 231.924673 25.420264 
L 235.990468 25.1352 
L 240.056263 25.292717 
L 248.187853 25.139087 
L 249.204302 25.271865 
L 255.302995 25.4429 
L 256.319444 25.199837 
L 257.335892 25.327414 
L 259.36879 25.188753 
L 260.385239 25.22349 
L 261.401687 25.376698 
L 263.434585 25.242978 
L 264.451034 25.350165 
L 265.467483 25.14604 
L 267.50038 25.248129 
L 269.533278 25.171349 
L 272.582624 25.354432 
L 274.615521 25.297779 
L 275.63197 25.315503 
L 276.648419 25.157651 
L 282.747112 25.352537 
L 283.76356 25.182437 
L 285.796458 25.438206 
L 286.812907 25.213248 
L 287.829355 25.435458 
L 289.862253 25.132535 
L 290.878702 25.195841 
L 291.895151 25.073546 
L 292.911599 25.206331 
L 295.960946 25.227257 
L 296.977394 25.312345 
L 300.026741 25.286955 
L 301.043189 25.379762 
L 303.076087 25.16068 
L 305.108984 25.140676 
L 306.125433 25.118527 
L 307.141882 25.437735 
L 310.191228 25.301188 
L 312.224126 25.217066 
L 313.240575 25.415315 
L 314.257023 25.174835 
L 315.273472 25.200427 
L 316.289921 25.369266 
L 317.30637 25.403989 
L 321.372165 25.188246 
L 323.405062 25.184677 
L 324.421511 25.229848 
L 325.43796 25.121558 
L 330.520204 25.295716 
L 332.553101 25.167907 
L 335.602448 25.325739 
L 336.618896 25.336839 
L 337.635345 25.190132 
L 339.668243 25.235961 
L 341.70114 25.383521 
L 343.734038 25.203312 
L 345.766935 25.180426 
L 353.898525 25.28652 
L 354.914974 25.223232 
L 355.931423 25.30588 
L 357.96432 25.310405 
L 359.997218 25.458329 
L 362.030116 25.298737 
L 366.095911 25.354024 
L 367.112359 25.223863 
L 370.161706 25.30297 
L 373.211052 25.28361 
L 374.227501 25.377091 
L 375.24395 25.28534 
L 376.260398 25.355346 
L 380.326193 25.294826 
L 382.359091 25.220171 
L 382.359091 25.220171 
" style="fill:none;stroke:#ff0000;stroke-linecap:square;stroke-width:1.5;"/>
   </g>
   <g id="patch_3">
    <path d="M 63.245 304.36 
L 63.245 11.745158 
" style="fill:none;stroke:#000000;stroke-linecap:square;stroke-linejoin:miter;stroke-width:0.8;"/>
   </g>
   <g id="patch_4">
    <path d="M 397.555 304.36 
L 397.555 11.745158 
" style="fill:none;stroke:#000000;stroke-linecap:square;stroke-linejoin:miter;stroke-width:0.8;"/>
   </g>
   <g id="patch_5">
    <path d="M 63.245 304.36 
L 397.555 304.36 
" style="fill:none;stroke:#000000;stroke-linecap:square;stroke-linejoin:miter;stroke-width:0.8;"/>
   </g>
   <g id="patch_6">
    <path d="M 63.245 11.745158 
L 397.555 11.745158 
" style="fill:none;stroke:#000000;stroke-linecap:square;stroke-linejoin:miter;stroke-width:0.8;"/>
   </g>
  </g>
  <g id="axes_2">
   <g id="matplotlib.axis_3">
    <g id="ytick_7">
     <g id="line2d_15">
      <defs>
       <path d="M 0 0 
L 3.5 0 
" id="maba7c0fc24" style="stroke:#000000;stroke-width:0.8;"/>
      </defs>
      <g>
       <use style="stroke:#000000;stroke-width:0.8;" x="397.555" xlink:href="#maba7c0fc24" y="291.100976"/>
      </g>
     </g>
     <g id="text_16">
      <!-- 0 -->
      <g style="fill:#0000ff;" transform="translate(404.555 294.900195)scale(0.1 -0.1)">
       <use xlink:href="#DejaVuSans-48"/>
      </g>
     </g>
    </g>
    <g id="ytick_8">
     <g id="line2d_16">
      <g>
       <use style="stroke:#000000;stroke-width:0.8;" x="397.555" xlink:href="#maba7c0fc24" y="256.804119"/>
      </g>
     </g>
     <g id="text_17">
      <!-- 200 -->
      <g style="fill:#0000ff;" transform="translate(404.555 260.603337)scale(0.1 -0.1)">
       <use xlink:href="#DejaVuSans-50"/>
       <use x="63.623047" xlink:href="#DejaVuSans-48"/>
       <use x="127.246094" xlink:href="#DejaVuSans-48"/>
      </g>
     </g>
    </g>
    <g id="ytick_9">
     <g id="line2d_17">
      <g>
       <use style="stroke:#000000;stroke-width:0.8;" x="397.555" xlink:href="#maba7c0fc24" y="222.507261"/>
      </g>
     </g>
     <g id="text_18">
      <!-- 400 -->
      <g style="fill:#0000ff;" transform="translate(404.555 226.30648)scale(0.1 -0.1)">
       <use xlink:href="#DejaVuSans-52"/>
       <use x="63.623047" xlink:href="#DejaVuSans-48"/>
       <use x="127.246094" xlink:href="#DejaVuSans-48"/>
      </g>
     </g>
    </g>
    <g id="ytick_10">
     <g id="line2d_18">
      <g>
       <use style="stroke:#000000;stroke-width:0.8;" x="397.555" xlink:href="#maba7c0fc24" y="188.210404"/>
      </g>
     </g>
     <g id="text_19">
      <!-- 600 -->
      <g style="fill:#0000ff;" transform="translate(404.555 192.009622)scale(0.1 -0.1)">
       <use xlink:href="#DejaVuSans-54"/>
       <use x="63.623047" xlink:href="#DejaVuSans-48"/>
       <use x="127.246094" xlink:href="#DejaVuSans-48"/>
      </g>
     </g>
    </g>
    <g id="ytick_11">
     <g id="line2d_19">
      <g>
       <use style="stroke:#000000;stroke-width:0.8;" x="397.555" xlink:href="#maba7c0fc24" y="153.913546"/>
      </g>
     </g>
     <g id="text_20">
      <!-- 800 -->
      <g style="fill:#0000ff;" transform="translate(404.555 157.712765)scale(0.1 -0.1)">
       <use xlink:href="#DejaVuSans-56"/>
       <use x="63.623047" xlink:href="#DejaVuSans-48"/>
       <use x="127.246094" xlink:href="#DejaVuSans-48"/>
      </g>
     </g>
    </g>
    <g id="ytick_12">
     <g id="line2d_20">
      <g>
       <use style="stroke:#000000;stroke-width:0.8;" x="397.555" xlink:href="#maba7c0fc24" y="119.616689"/>
      </g>
     </g>
     <g id="text_21">
      <!-- 1000 -->
      <g style="fill:#0000ff;" transform="translate(404.555 123.415907)scale(0.1 -0.1)">
       <use xlink:href="#DejaVuSans-49"/>
       <use x="63.623047" xlink:href="#DejaVuSans-48"/>
       <use x="127.246094" xlink:href="#DejaVuSans-48"/>
       <use x="190.869141" xlink:href="#DejaVuSans-48"/>
      </g>
     </g>
    </g>
    <g id="ytick_13">
     <g id="line2d_21">
      <g>
       <use style="stroke:#000000;stroke-width:0.8;" x="397.555" xlink:href="#maba7c0fc24" y="85.319831"/>
      </g>
     </g>
     <g id="text_22">
      <!-- 1200 -->
      <g style="fill:#0000ff;" transform="translate(404.555 89.11905)scale(0.1 -0.1)">
       <use xlink:href="#DejaVuSans-49"/>
       <use x="63.623047" xlink:href="#DejaVuSans-50"/>
       <use x="127.246094" xlink:href="#DejaVuSans-48"/>
       <use x="190.869141" xlink:href="#DejaVuSans-48"/>
      </g>
     </g>
    </g>
    <g id="ytick_14">
     <g id="line2d_22">
      <g>
       <use style="stroke:#000000;stroke-width:0.8;" x="397.555" xlink:href="#maba7c0fc24" y="51.022974"/>
      </g>
     </g>
     <g id="text_23">
      <!-- 1400 -->
      <g style="fill:#0000ff;" transform="translate(404.555 54.822193)scale(0.1 -0.1)">
       <use xlink:href="#DejaVuSans-49"/>
       <use x="63.623047" xlink:href="#DejaVuSans-52"/>
       <use x="127.246094" xlink:href="#DejaVuSans-48"/>
       <use x="190.869141" xlink:href="#DejaVuSans-48"/>
      </g>
     </g>
    </g>
    <g id="ytick_15">
     <g id="line2d_23">
      <g>
       <use style="stroke:#000000;stroke-width:0.8;" x="397.555" xlink:href="#maba7c0fc24" y="16.726116"/>
      </g>
     </g>
     <g id="text_24">
      <!-- 1600 -->
      <g style="fill:#0000ff;" transform="translate(404.555 20.525335)scale(0.1 -0.1)">
       <use xlink:href="#DejaVuSans-49"/>
       <use x="63.623047" xlink:href="#DejaVuSans-54"/>
       <use x="127.246094" xlink:href="#DejaVuSans-48"/>
       <use x="190.869141" xlink:href="#DejaVuSans-48"/>
      </g>
     </g>
    </g>
    <g id="text_25">
     <!-- Demand-Supply -->
     <defs>
      <path d="M 4.890625 31.390625 
L 31.203125 31.390625 
L 31.203125 23.390625 
L 4.890625 23.390625 
z
" id="DejaVuSans-45"/>
      <path d="M 53.515625 70.515625 
L 53.515625 60.890625 
Q 47.90625 63.578125 42.921875 64.890625 
Q 37.9375 66.21875 33.296875 66.21875 
Q 25.25 66.21875 20.875 63.09375 
Q 16.5 59.96875 16.5 54.203125 
Q 16.5 49.359375 19.40625 46.890625 
Q 22.3125 44.4375 30.421875 42.921875 
L 36.375 41.703125 
Q 47.40625 39.59375 52.65625 34.296875 
Q 57.90625 29 57.90625 20.125 
Q 57.90625 9.515625 50.796875 4.046875 
Q 43.703125 -1.421875 29.984375 -1.421875 
Q 24.8125 -1.421875 18.96875 -0.25 
Q 13.140625 0.921875 6.890625 3.21875 
L 6.890625 13.375 
Q 12.890625 10.015625 18.65625 8.296875 
Q 24.421875 6.59375 29.984375 6.59375 
Q 38.421875 6.59375 43.015625 9.90625 
Q 47.609375 13.234375 47.609375 19.390625 
Q 47.609375 24.75 44.3125 27.78125 
Q 41.015625 30.8125 33.5 32.328125 
L 27.484375 33.5 
Q 16.453125 35.6875 11.515625 40.375 
Q 6.59375 45.0625 6.59375 53.421875 
Q 6.59375 63.09375 13.40625 68.65625 
Q 20.21875 74.21875 32.171875 74.21875 
Q 37.3125 74.21875 42.625 73.28125 
Q 47.953125 72.359375 53.515625 70.515625 
z
" id="DejaVuSans-83"/>
      <path d="M 8.5 21.578125 
L 8.5 54.6875 
L 17.484375 54.6875 
L 17.484375 21.921875 
Q 17.484375 14.15625 20.5 10.265625 
Q 23.53125 6.390625 29.59375 6.390625 
Q 36.859375 6.390625 41.078125 11.03125 
Q 45.3125 15.671875 45.3125 23.6875 
L 45.3125 54.6875 
L 54.296875 54.6875 
L 54.296875 0 
L 45.3125 0 
L 45.3125 8.40625 
Q 42.046875 3.421875 37.71875 1 
Q 33.40625 -1.421875 27.6875 -1.421875 
Q 18.265625 -1.421875 13.375 4.4375 
Q 8.5 10.296875 8.5 21.578125 
z
M 31.109375 56 
z
" id="DejaVuSans-117"/>
      <path d="M 9.421875 75.984375 
L 18.40625 75.984375 
L 18.40625 0 
L 9.421875 0 
z
" id="DejaVuSans-108"/>
      <path d="M 32.171875 -5.078125 
Q 28.375 -14.84375 24.75 -17.8125 
Q 21.140625 -20.796875 15.09375 -20.796875 
L 7.90625 -20.796875 
L 7.90625 -13.28125 
L 13.1875 -13.28125 
Q 16.890625 -13.28125 18.9375 -11.515625 
Q 21 -9.765625 23.484375 -3.21875 
L 25.09375 0.875 
L 2.984375 54.6875 
L 12.5 54.6875 
L 29.59375 11.921875 
L 46.6875 54.6875 
L 56.203125 54.6875 
z
" id="DejaVuSans-121"/>
     </defs>
     <g style="fill:#0000ff;" transform="translate(441.603438 198.100235)rotate(-90)scale(0.1 -0.1)">
      <use xlink:href="#DejaVuSans-68"/>
      <use x="77.001953" xlink:href="#DejaVuSans-101"/>
      <use x="138.525391" xlink:href="#DejaVuSans-109"/>
      <use x="235.9375" xlink:href="#DejaVuSans-97"/>
      <use x="297.216797" xlink:href="#DejaVuSans-110"/>
      <use x="360.595703" xlink:href="#DejaVuSans-100"/>
      <use x="424.072266" xlink:href="#DejaVuSans-45"/>
      <use x="460.15625" xlink:href="#DejaVuSans-83"/>
      <use x="523.632812" xlink:href="#DejaVuSans-117"/>
      <use x="587.011719" xlink:href="#DejaVuSans-112"/>
      <use x="650.488281" xlink:href="#DejaVuSans-112"/>
      <use x="713.964844" xlink:href="#DejaVuSans-108"/>
      <use x="741.748047" xlink:href="#DejaVuSans-121"/>
     </g>
    </g>
   </g>
   <g id="line2d_24">
    <path clip-path="url(#p677a25b7e5)" d="M 78.440909 291.059325 
L 79.457358 25.045833 
L 80.473807 27.42628 
L 81.490255 26.312777 
L 82.506704 26.088613 
L 83.523153 26.859307 
L 84.539602 26.138469 
L 85.55605 26.290565 
L 86.572499 27.045726 
L 87.588948 25.957781 
L 88.605397 26.662857 
L 89.621846 26.26467 
L 90.638294 27.028744 
L 91.654743 26.104311 
L 92.671192 26.009352 
L 93.687641 26.359207 
L 94.704089 26.314685 
L 95.720538 27.051798 
L 96.736987 25.966691 
L 99.786333 26.081385 
L 100.802782 25.47729 
L 101.819231 26.497352 
L 102.83568 27.834351 
L 103.852128 27.023852 
L 104.868577 25.87325 
L 105.885026 27.305418 
L 106.901475 25.136019 
L 107.917923 27.467939 
L 108.934372 26.221968 
L 109.950821 26.894093 
L 110.96727 26.981065 
L 111.983718 25.617491 
L 114.016616 26.690773 
L 115.033065 26.228719 
L 116.049514 26.463695 
L 117.065962 28.279326 
L 118.082411 25.9392 
L 119.09886 27.241611 
L 121.131757 26.350101 
L 122.148206 27.275535 
L 123.164655 27.085996 
L 124.181104 25.436459 
L 125.197552 26.289449 
L 126.214001 25.714858 
L 127.23045 25.948734 
L 128.246899 27.258096 
L 129.263348 26.195556 
L 130.279796 25.63644 
L 131.296245 25.89351 
L 132.312694 26.303009 
L 133.329143 27.658542 
L 134.345591 26.334978 
L 135.36204 26.346514 
L 136.378489 25.891916 
L 137.394938 25.942233 
L 138.411386 26.372152 
L 139.427835 25.862138 
L 140.444284 26.622005 
L 141.460733 25.88719 
L 142.477182 26.115302 
L 143.49363 26.731625 
L 144.510079 26.158977 
L 145.526528 26.908686 
L 146.542977 27.055512 
L 147.559425 27.405355 
L 148.575874 28.098995 
L 149.592323 26.964368 
L 150.608772 26.699809 
L 151.62522 26.05138 
L 152.641669 25.998944 
L 153.658118 26.741319 
L 154.674567 26.512772 
L 155.691016 25.863526 
L 156.707464 25.594784 
L 157.723913 25.938522 
L 158.740362 26.699902 
L 160.773259 26.469579 
L 161.789708 27.179854 
L 162.806157 27.37864 
L 163.822606 26.181254 
L 164.839054 26.622689 
L 165.855503 26.347169 
L 166.871952 27.146845 
L 167.888401 26.108822 
L 168.904849 26.720319 
L 169.921298 26.97257 
L 170.937747 26.129248 
L 171.954196 26.106895 
L 172.970645 27.260764 
L 173.987093 27.004026 
L 175.003542 26.415106 
L 176.019991 26.928991 
L 177.03644 27.605917 
L 178.052888 26.832605 
L 179.069337 27.38879 
L 180.085786 27.384968 
L 181.102235 26.253331 
L 182.118683 26.502435 
L 183.135132 26.328313 
L 184.151581 26.467294 
L 185.16803 26.185988 
L 186.184479 26.475299 
L 187.200927 27.091089 
L 188.217376 27.269296 
L 189.233825 26.749109 
L 190.250274 25.278645 
L 192.283171 26.721072 
L 193.29962 27.24906 
L 194.316069 26.721906 
L 195.332517 25.755904 
L 196.348966 26.016111 
L 197.365415 26.619096 
L 198.381864 26.783168 
L 199.398313 27.35593 
L 201.43121 26.857902 
L 202.447659 25.387841 
L 204.480556 26.165782 
L 205.497005 26.844082 
L 207.529903 26.438931 
L 208.546351 25.756774 
L 209.5628 27.184501 
L 210.579249 26.901177 
L 211.595698 27.111485 
L 212.612147 25.710842 
L 213.628595 26.963781 
L 214.645044 26.191188 
L 215.661493 26.082018 
L 216.677942 27.673087 
L 217.69439 26.613903 
L 218.710839 25.783204 
L 220.743737 27.210761 
L 221.760185 26.864308 
L 222.776634 28.125333 
L 223.793083 26.544779 
L 224.809532 25.72289 
L 225.825981 26.020239 
L 226.842429 26.971853 
L 227.858878 26.958059 
L 228.875327 27.374486 
L 229.891776 27.426317 
L 230.908224 26.64382 
L 231.924673 27.744721 
L 232.941122 27.220099 
L 233.957571 26.918796 
L 234.974019 26.206352 
L 235.990468 25.689992 
L 237.006917 26.107722 
L 238.023366 26.928923 
L 239.039815 26.711604 
L 240.056263 26.825365 
L 242.089161 26.615105 
L 243.10561 27.213492 
L 244.122058 26.191467 
L 245.138507 25.825846 
L 246.154956 26.692566 
L 247.171405 26.344085 
L 248.187853 25.718004 
L 249.204302 26.675066 
L 250.220751 26.751647 
L 251.2372 26.325252 
L 252.253649 26.634756 
L 253.270097 26.530826 
L 254.286546 26.54823 
L 255.302995 27.907878 
L 256.319444 26.155888 
L 257.335892 27.075464 
L 259.36879 26.075994 
L 260.385239 26.326383 
L 261.401687 27.430701 
L 263.434585 26.466853 
L 264.451034 27.239453 
L 265.467483 25.768122 
L 266.483931 26.393383 
L 267.50038 26.503979 
L 268.516829 25.935829 
L 269.533278 25.950549 
L 272.582624 27.270208 
L 273.599073 26.69789 
L 275.63197 26.989606 
L 276.648419 25.851815 
L 277.664868 26.208009 
L 278.681317 26.801858 
L 279.697765 26.637558 
L 281.730663 27.523354 
L 282.747112 27.256545 
L 283.76356 26.030474 
L 284.780009 27.162034 
L 285.796458 27.874048 
L 286.812907 26.252554 
L 287.829355 27.854238 
L 288.845804 26.880047 
L 289.862253 25.67078 
L 290.878702 26.127084 
L 291.895151 25.245592 
L 292.911599 26.202701 
L 293.928048 26.172849 
L 294.944497 26.870548 
L 295.960946 26.35353 
L 296.977394 26.966843 
L 297.993843 26.657172 
L 299.010292 26.078912 
L 301.043189 27.452786 
L 302.059638 26.532947 
L 303.076087 25.873647 
L 304.092536 26.112631 
L 305.108984 25.729461 
L 306.125433 25.569809 
L 307.141882 27.870651 
L 308.158331 27.346188 
L 309.17478 26.482473 
L 310.191228 26.886428 
L 311.207677 26.714784 
L 312.224126 26.280073 
L 313.240575 27.709053 
L 314.257023 25.975676 
L 315.273472 26.160143 
L 316.289921 27.377131 
L 317.30637 27.627411 
L 318.322818 27.062968 
L 319.339267 27.194644 
L 322.388614 25.786247 
L 324.421511 26.372206 
L 325.43796 25.591659 
L 326.454409 25.84752 
L 327.470857 25.698182 
L 328.487306 25.726266 
L 329.503755 26.11471 
L 330.520204 26.846982 
L 331.536652 26.156838 
L 332.553101 25.925738 
L 333.56955 26.508088 
L 334.585999 27.405119 
L 335.602448 27.063391 
L 336.618896 27.1434 
L 337.635345 26.085935 
L 338.651794 26.133533 
L 339.668243 26.416275 
L 340.684691 27.069226 
L 341.70114 27.479881 
L 342.717589 26.609989 
L 344.750486 25.771247 
L 346.783384 26.14821 
L 347.799833 26.9561 
L 348.816282 26.913261 
L 349.83273 27.185631 
L 350.849179 26.20724 
L 351.865628 26.807017 
L 352.882077 26.219464 
L 353.898525 26.780699 
L 354.914974 26.324524 
L 355.931423 26.920246 
L 356.947872 26.538358 
L 358.980769 27.448055 
L 359.997218 28.019096 
L 361.013667 27.177416 
L 362.030116 26.868759 
L 363.046564 27.032518 
L 364.063013 27.419317 
L 365.079462 26.876578 
L 366.095911 27.267268 
L 367.112359 26.329072 
L 368.128808 26.612077 
L 369.145257 26.440569 
L 370.161706 26.899272 
L 371.178154 26.614849 
L 372.194603 26.480147 
L 373.211052 26.759724 
L 374.227501 27.43353 
L 375.24395 26.772194 
L 376.260398 27.276798 
L 377.276847 26.976723 
L 378.293296 26.280415 
L 379.309745 26.772804 
L 381.342642 26.801217 
L 382.359091 26.30246 
L 382.359091 26.30246 
" style="fill:none;stroke:#0000ff;stroke-linecap:square;stroke-width:1.5;"/>
   </g>
   <g id="patch_7">
    <path d="M 63.245 304.36 
L 63.245 11.745158 
" style="fill:none;stroke:#000000;stroke-linecap:square;stroke-linejoin:miter;stroke-width:0.8;"/>
   </g>
   <g id="patch_8">
    <path d="M 397.555 304.36 
L 397.555 11.745158 
" style="fill:none;stroke:#000000;stroke-linecap:square;stroke-linejoin:miter;stroke-width:0.8;"/>
   </g>
   <g id="patch_9">
    <path d="M 63.245 304.36 
L 397.555 304.36 
" style="fill:none;stroke:#000000;stroke-linecap:square;stroke-linejoin:miter;stroke-width:0.8;"/>
   </g>
   <g id="patch_10">
    <path d="M 63.245 11.745158 
L 397.555 11.745158 
" style="fill:none;stroke:#000000;stroke-linecap:square;stroke-linejoin:miter;stroke-width:0.8;"/>
   </g>
  </g>
  <g id="axes_3">
   <g id="matplotlib.axis_4">
    <g id="ytick_16">
     <g id="line2d_25">
      <g>
       <use style="stroke:#000000;stroke-width:0.8;" x="397.555" xlink:href="#maba7c0fc24" y="291.094799"/>
      </g>
     </g>
     <g id="text_26">
      <!-- 0 -->
      <g style="fill:#008000;" transform="translate(404.555 294.894017)scale(0.1 -0.1)">
       <use xlink:href="#DejaVuSans-48"/>
      </g>
     </g>
    </g>
    <g id="ytick_17">
     <g id="line2d_26">
      <g>
       <use style="stroke:#000000;stroke-width:0.8;" x="397.555" xlink:href="#maba7c0fc24" y="235.848305"/>
      </g>
     </g>
     <g id="text_27">
      <!-- 2000 -->
      <g style="fill:#008000;" transform="translate(404.555 239.647524)scale(0.1 -0.1)">
       <use xlink:href="#DejaVuSans-50"/>
       <use x="63.623047" xlink:href="#DejaVuSans-48"/>
       <use x="127.246094" xlink:href="#DejaVuSans-48"/>
       <use x="190.869141" xlink:href="#DejaVuSans-48"/>
      </g>
     </g>
    </g>
    <g id="ytick_18">
     <g id="line2d_27">
      <g>
       <use style="stroke:#000000;stroke-width:0.8;" x="397.555" xlink:href="#maba7c0fc24" y="180.601811"/>
      </g>
     </g>
     <g id="text_28">
      <!-- 4000 -->
      <g style="fill:#008000;" transform="translate(404.555 184.40103)scale(0.1 -0.1)">
       <use xlink:href="#DejaVuSans-52"/>
       <use x="63.623047" xlink:href="#DejaVuSans-48"/>
       <use x="127.246094" xlink:href="#DejaVuSans-48"/>
       <use x="190.869141" xlink:href="#DejaVuSans-48"/>
      </g>
     </g>
    </g>
    <g id="ytick_19">
     <g id="line2d_28">
      <g>
       <use style="stroke:#000000;stroke-width:0.8;" x="397.555" xlink:href="#maba7c0fc24" y="125.355317"/>
      </g>
     </g>
     <g id="text_29">
      <!-- 6000 -->
      <g style="fill:#008000;" transform="translate(404.555 129.154536)scale(0.1 -0.1)">
       <use xlink:href="#DejaVuSans-54"/>
       <use x="63.623047" xlink:href="#DejaVuSans-48"/>
       <use x="127.246094" xlink:href="#DejaVuSans-48"/>
       <use x="190.869141" xlink:href="#DejaVuSans-48"/>
      </g>
     </g>
    </g>
    <g id="ytick_20">
     <g id="line2d_29">
      <g>
       <use style="stroke:#000000;stroke-width:0.8;" x="397.555" xlink:href="#maba7c0fc24" y="70.108824"/>
      </g>
     </g>
     <g id="text_30">
      <!-- 8000 -->
      <g style="fill:#008000;" transform="translate(404.555 73.908042)scale(0.1 -0.1)">
       <use xlink:href="#DejaVuSans-56"/>
       <use x="63.623047" xlink:href="#DejaVuSans-48"/>
       <use x="127.246094" xlink:href="#DejaVuSans-48"/>
       <use x="190.869141" xlink:href="#DejaVuSans-48"/>
      </g>
     </g>
    </g>
    <g id="ytick_21">
     <g id="line2d_30">
      <g>
       <use style="stroke:#000000;stroke-width:0.8;" x="397.555" xlink:href="#maba7c0fc24" y="14.86233"/>
      </g>
     </g>
     <g id="text_31">
      <!-- 10000 -->
      <g style="fill:#008000;" transform="translate(404.555 18.661549)scale(0.1 -0.1)">
       <use xlink:href="#DejaVuSans-49"/>
       <use x="63.623047" xlink:href="#DejaVuSans-48"/>
       <use x="127.246094" xlink:href="#DejaVuSans-48"/>
       <use x="190.869141" xlink:href="#DejaVuSans-48"/>
       <use x="254.492188" xlink:href="#DejaVuSans-48"/>
      </g>
     </g>
    </g>
    <g id="text_32">
     <!-- Supply -->
     <g style="fill:#008000;" transform="translate(447.965938 175.092423)rotate(-90)scale(0.1 -0.1)">
      <use xlink:href="#DejaVuSans-83"/>
      <use x="63.476562" xlink:href="#DejaVuSans-117"/>
      <use x="126.855469" xlink:href="#DejaVuSans-112"/>
      <use x="190.332031" xlink:href="#DejaVuSans-112"/>
      <use x="253.808594" xlink:href="#DejaVuSans-108"/>
      <use x="281.591797" xlink:href="#DejaVuSans-121"/>
     </g>
    </g>
   </g>
   <g id="line2d_31">
    <path clip-path="url(#p677a25b7e5)" d="M 78.440909 291.059325 
L 79.457358 25.045833 
L 382.359091 25.045833 
L 382.359091 25.045833 
" style="fill:none;stroke:#008000;stroke-linecap:square;stroke-width:1.5;"/>
   </g>
   <g id="patch_11">
    <path d="M 63.245 304.36 
L 63.245 11.745158 
" style="fill:none;stroke:#000000;stroke-linecap:square;stroke-linejoin:miter;stroke-width:0.8;"/>
   </g>
   <g id="patch_12">
    <path d="M 397.555 304.36 
L 397.555 11.745158 
" style="fill:none;stroke:#000000;stroke-linecap:square;stroke-linejoin:miter;stroke-width:0.8;"/>
   </g>
   <g id="patch_13">
    <path d="M 63.245 304.36 
L 397.555 304.36 
" style="fill:none;stroke:#000000;stroke-linecap:square;stroke-linejoin:miter;stroke-width:0.8;"/>
   </g>
   <g id="patch_14">
    <path d="M 63.245 11.745158 
L 397.555 11.745158 
" style="fill:none;stroke:#000000;stroke-linecap:square;stroke-linejoin:miter;stroke-width:0.8;"/>
   </g>
  </g>
 </g>
 <defs>
  <clipPath id="p677a25b7e5">
   <rect height="292.614842" width="334.31" x="63.245" y="11.745158"/>
  </clipPath>
 </defs>
</svg>
